<svg width="377" height="377" viewBox="0 0 377 377" fill="none" xmlns="http://www.w3.org/2000/svg">
<rect width="377" height="377" fill="#222222"/>
<g clip-path="url(#clip0_1786_198)">
<path d="M189 156.5H146C141.858 156.5 138.5 159.858 138.5 164V188C138.5 192.142 141.858 195.5 146 195.5H189C193.142 195.5 196.5 192.142 196.5 188V164C196.5 159.858 193.142 156.5 189 156.5Z" stroke="white" stroke-width="3"/>
<path d="M162 181.355V170.704C162 169.94 162.821 169.458 163.487 169.83L173.378 175.353C174.073 175.742 174.058 176.748 173.351 177.114L163.46 182.243C162.795 182.588 162 182.105 162 181.355Z" stroke="white" stroke-width="3"/>
<path d="M165.499 134C166.047 134.438 167.517 135.078 169.936 135.238C172.974 135.439 175.939 134.473 178.798 133.426L209.999 122M165.499 134L169.166 143M165.499 134L162.845 132.5M169.166 143L169.52 143.868C170.341 145.886 172.627 146.874 174.66 146.092L225.7 126.461C227.788 125.659 228.811 123.3 227.972 121.227L225.249 114.5M169.166 143L165.829 144.292C164.813 144.685 163.669 144.193 163.256 143.184L160.232 135.791C159.823 134.793 160.28 133.65 161.265 133.209L162.845 132.5M162.845 132.5L155.918 128.585C155.17 128.162 155.268 127.055 156.079 126.771L217.399 105.263C219.414 104.556 221.629 105.557 222.431 107.537L225.249 114.5M225.249 114.5C224.333 115.667 222.499 117 221.499 117.5" stroke="white" stroke-width="3" stroke-linecap="round"/>
<path d="M217 119.5L214 120.5" stroke="white" stroke-width="3" stroke-linecap="round"/>
<path d="M207 133.5C207.5 135.124 207.756 138.19 206 140.298M206 140.298C205.413 141.002 204.602 141.599 203.5 142C202.396 142.402 201.394 142.476 200.5 142.329M206 140.298L209.514 149.436C210.108 150.981 211.592 152 213.247 152H223M195.5 138C196.124 139.498 197.833 141.893 200.5 142.329M200.5 142.329L204.806 153.935C205.824 156.679 208.442 158.5 211.369 158.5H223" stroke="white" stroke-width="3"/>
<path d="M227.212 146H229V165H227C226.056 165 225.167 164.555 224.6 163.8C224.21 163.281 224 162.649 224 162V149.616C224 148.581 224.411 147.589 225.143 146.857C225.692 146.308 226.436 146 227.212 146Z" stroke="white" stroke-width="3"/>
</g>
<path d="M140.939 273.571V276H132.016V273.571H140.939ZM132.871 258.227V276H129.807V258.227H132.871ZM146.164 262.792V276H143.21V262.792H146.164ZM143.015 259.325C143.015 258.878 143.161 258.507 143.454 258.214C143.755 257.913 144.17 257.763 144.699 257.763C145.22 257.763 145.631 257.913 145.932 258.214C146.233 258.507 146.384 258.878 146.384 259.325C146.384 259.765 146.233 260.131 145.932 260.424C145.631 260.717 145.22 260.863 144.699 260.863C144.17 260.863 143.755 260.717 143.454 260.424C143.161 260.131 143.015 259.765 143.015 259.325ZM153.684 273.668L156.918 262.792H159.97L155.38 276H153.476L153.684 273.668ZM151.206 262.792L154.501 273.717L154.66 276H152.756L148.142 262.792H151.206ZM167.441 276.244C166.464 276.244 165.581 276.085 164.792 275.768C164.011 275.443 163.343 274.991 162.79 274.413C162.245 273.835 161.826 273.156 161.533 272.375C161.24 271.593 161.093 270.751 161.093 269.848V269.359C161.093 268.326 161.244 267.39 161.545 266.552C161.846 265.714 162.265 264.997 162.802 264.403C163.339 263.801 163.974 263.341 164.707 263.024C165.439 262.707 166.232 262.548 167.087 262.548C168.031 262.548 168.857 262.707 169.565 263.024C170.273 263.341 170.859 263.789 171.323 264.367C171.795 264.936 172.145 265.616 172.373 266.405C172.609 267.195 172.727 268.065 172.727 269.018V270.275H162.521V268.163H169.821V267.931C169.805 267.402 169.699 266.906 169.504 266.442C169.317 265.978 169.028 265.604 168.637 265.319C168.247 265.034 167.726 264.892 167.075 264.892C166.586 264.892 166.151 264.997 165.769 265.209C165.394 265.412 165.081 265.709 164.829 266.1C164.576 266.491 164.381 266.963 164.243 267.516C164.112 268.061 164.047 268.676 164.047 269.359V269.848C164.047 270.425 164.125 270.963 164.279 271.459C164.442 271.947 164.678 272.375 164.987 272.741C165.297 273.107 165.671 273.396 166.11 273.607C166.55 273.811 167.05 273.913 167.612 273.913C168.32 273.913 168.951 273.77 169.504 273.485C170.057 273.201 170.537 272.798 170.944 272.277L172.495 273.778C172.21 274.193 171.84 274.592 171.384 274.975C170.928 275.349 170.371 275.654 169.711 275.89C169.06 276.126 168.304 276.244 167.441 276.244ZM185.544 273.668L188.779 262.792H191.831L187.241 276H185.336L185.544 273.668ZM183.066 262.792L186.362 273.717L186.521 276H184.616L180.002 262.792H183.066ZM196.799 262.792V276H193.845V262.792H196.799ZM193.649 259.325C193.649 258.878 193.796 258.507 194.089 258.214C194.39 257.913 194.805 257.763 195.334 257.763C195.855 257.763 196.266 257.913 196.567 258.214C196.868 258.507 197.019 258.878 197.019 259.325C197.019 259.765 196.868 260.131 196.567 260.424C196.266 260.717 195.855 260.863 195.334 260.863C194.805 260.863 194.39 260.717 194.089 260.424C193.796 260.131 193.649 259.765 193.649 259.325ZM208.078 273.266V257.25H211.032V276H208.359L208.078 273.266ZM199.484 269.542V269.286C199.484 268.285 199.602 267.374 199.838 266.552C200.074 265.722 200.416 265.01 200.864 264.416C201.311 263.813 201.857 263.354 202.5 263.036C203.142 262.711 203.867 262.548 204.672 262.548C205.47 262.548 206.17 262.702 206.772 263.012C207.374 263.321 207.887 263.764 208.31 264.342C208.733 264.912 209.071 265.596 209.323 266.393C209.576 267.182 209.755 268.061 209.86 269.03V269.848C209.755 270.792 209.576 271.654 209.323 272.436C209.071 273.217 208.733 273.892 208.31 274.462C207.887 275.032 207.37 275.471 206.76 275.78C206.158 276.09 205.454 276.244 204.648 276.244C203.85 276.244 203.13 276.077 202.487 275.744C201.853 275.41 201.311 274.942 200.864 274.34C200.416 273.738 200.074 273.03 199.838 272.216C199.602 271.394 199.484 270.503 199.484 269.542ZM202.426 269.286V269.542C202.426 270.145 202.479 270.706 202.585 271.227C202.699 271.748 202.874 272.208 203.11 272.606C203.346 272.997 203.651 273.306 204.025 273.534C204.408 273.754 204.864 273.864 205.393 273.864C206.06 273.864 206.609 273.717 207.041 273.424C207.472 273.131 207.81 272.737 208.054 272.24C208.306 271.736 208.477 271.174 208.566 270.556V268.346C208.518 267.866 208.416 267.418 208.261 267.003C208.115 266.588 207.915 266.226 207.663 265.917C207.411 265.6 207.097 265.355 206.723 265.185C206.357 265.006 205.922 264.916 205.417 264.916C204.88 264.916 204.424 265.03 204.05 265.258C203.675 265.486 203.366 265.799 203.122 266.198C202.886 266.597 202.711 267.06 202.597 267.589C202.483 268.118 202.426 268.684 202.426 269.286ZM219.931 276.244C218.955 276.244 218.072 276.085 217.282 275.768C216.501 275.443 215.834 274.991 215.28 274.413C214.735 273.835 214.316 273.156 214.023 272.375C213.73 271.593 213.583 270.751 213.583 269.848V269.359C213.583 268.326 213.734 267.39 214.035 266.552C214.336 265.714 214.755 264.997 215.292 264.403C215.83 263.801 216.464 263.341 217.197 263.024C217.929 262.707 218.723 262.548 219.577 262.548C220.521 262.548 221.347 262.707 222.055 263.024C222.763 263.341 223.349 263.789 223.813 264.367C224.285 264.936 224.635 265.616 224.863 266.405C225.099 267.195 225.217 268.065 225.217 269.018V270.275H215.012V268.163H222.312V267.931C222.295 267.402 222.189 266.906 221.994 266.442C221.807 265.978 221.518 265.604 221.127 265.319C220.737 265.034 220.216 264.892 219.565 264.892C219.077 264.892 218.641 264.997 218.259 265.209C217.884 265.412 217.571 265.709 217.319 266.1C217.067 266.491 216.871 266.963 216.733 267.516C216.603 268.061 216.538 268.676 216.538 269.359V269.848C216.538 270.425 216.615 270.963 216.77 271.459C216.932 271.947 217.168 272.375 217.478 272.741C217.787 273.107 218.161 273.396 218.601 273.607C219.04 273.811 219.541 273.913 220.102 273.913C220.81 273.913 221.441 273.77 221.994 273.485C222.548 273.201 223.028 272.798 223.435 272.277L224.985 273.778C224.7 274.193 224.33 274.592 223.874 274.975C223.418 275.349 222.861 275.654 222.202 275.89C221.551 276.126 220.794 276.244 219.931 276.244ZM226.95 269.542V269.262C226.95 268.31 227.089 267.427 227.365 266.613C227.642 265.791 228.041 265.079 228.562 264.477C229.09 263.866 229.733 263.394 230.49 263.061C231.255 262.719 232.118 262.548 233.078 262.548C234.047 262.548 234.909 262.719 235.666 263.061C236.431 263.394 237.078 263.866 237.607 264.477C238.136 265.079 238.539 265.791 238.815 266.613C239.092 267.427 239.23 268.31 239.23 269.262V269.542C239.23 270.495 239.092 271.378 238.815 272.191C238.539 273.005 238.136 273.717 237.607 274.328C237.078 274.93 236.435 275.402 235.678 275.744C234.921 276.077 234.063 276.244 233.103 276.244C232.134 276.244 231.267 276.077 230.502 275.744C229.746 275.402 229.103 274.93 228.574 274.328C228.045 273.717 227.642 273.005 227.365 272.191C227.089 271.378 226.95 270.495 226.95 269.542ZM229.892 269.262V269.542C229.892 270.137 229.953 270.698 230.075 271.227C230.197 271.756 230.389 272.22 230.649 272.619C230.909 273.017 231.243 273.331 231.65 273.559C232.057 273.786 232.541 273.9 233.103 273.9C233.648 273.9 234.12 273.786 234.519 273.559C234.925 273.331 235.259 273.017 235.52 272.619C235.78 272.22 235.971 271.756 236.093 271.227C236.223 270.698 236.289 270.137 236.289 269.542V269.262C236.289 268.676 236.223 268.122 236.093 267.602C235.971 267.073 235.776 266.605 235.507 266.198C235.247 265.791 234.913 265.473 234.506 265.246C234.108 265.01 233.632 264.892 233.078 264.892C232.525 264.892 232.045 265.01 231.638 265.246C231.239 265.473 230.909 265.791 230.649 266.198C230.389 266.605 230.197 267.073 230.075 267.602C229.953 268.122 229.892 268.676 229.892 269.262Z" fill="white"/>
<defs>
<clipPath id="clip0_1786_198">
<rect width="94" height="94" fill="white" transform="translate(137 103)"/>
</clipPath>
</defs>
</svg>
