<svg width="376" height="377" viewBox="0 0 376 377" fill="none" xmlns="http://www.w3.org/2000/svg">
<rect width="376" height="377" fill="#222222"/>
<path d="M174.5 139V143C174.5 144.657 175.843 146 177.5 146H187.5M187.5 146H197.5C199.157 146 200.5 144.657 200.5 143V139M187.5 146V139M187.5 146V155M187.5 155H207.5C209.157 155 210.5 156.343 210.5 158V171M187.5 155H168C166.343 155 165 156.343 165 158V171" stroke="white" stroke-width="2"/>
<path d="M162.932 163.5H213.076C222.206 163.5 229.689 156.258 229.988 147.133C230.297 137.72 222.86 129.866 213.444 129.662L206.727 129.515L201.645 123.261C200.931 122.383 200.135 121.576 199.266 120.852L198.33 120.072C192.052 114.841 182.94 114.822 176.64 120.026C175.479 120.985 174.45 122.095 173.581 123.325L169.21 129.518L162.547 129.669C153.571 129.873 146.317 137.054 146.023 146.028C145.71 155.584 153.371 163.5 162.932 163.5Z" stroke="white" stroke-width="3"/>
<path d="M187.5 139C189.433 139 191 137.433 191 135.5C191 133.567 189.433 132 187.5 132C185.567 132 184 133.567 184 135.5C184 137.433 185.567 139 187.5 139Z" stroke="white" stroke-width="2"/>
<path d="M200.5 139C202.433 139 204 137.433 204 135.5C204 133.567 202.433 132 200.5 132C198.567 132 197 133.567 197 135.5C197 137.433 198.567 139 200.5 139Z" stroke="white" stroke-width="2"/>
<path d="M174.5 139C176.433 139 178 137.433 178 135.5C178 133.567 176.433 132 174.5 132C172.567 132 171 133.567 171 135.5C171 137.433 172.567 139 174.5 139Z" stroke="white" stroke-width="2"/>
<path d="M163 185.409V179.645C163 178.895 163.795 178.412 164.46 178.757L170.224 181.746C170.956 182.125 170.94 183.177 170.198 183.534L164.434 186.31C163.77 186.629 163 186.145 163 185.409Z" stroke="white" stroke-width="2"/>
<path d="M207 185.409V179.645C207 178.895 207.795 178.412 208.46 178.757L214.224 181.746C214.956 182.125 214.94 183.177 214.198 183.534L208.434 186.31C207.77 186.629 207 186.145 207 185.409Z" stroke="white" stroke-width="2"/>
<path d="M180 170.5H152C150.067 170.5 148.5 172.067 148.5 174V192C148.5 193.933 150.067 195.5 152 195.5H180C181.933 195.5 183.5 193.933 183.5 192V174C183.5 172.067 181.933 170.5 180 170.5Z" stroke="white" stroke-width="3"/>
<path d="M224 170.5H196C194.067 170.5 192.5 172.067 192.5 174V192C192.5 193.933 194.067 195.5 196 195.5H224C225.933 195.5 227.5 193.933 227.5 192V174C227.5 172.067 225.933 170.5 224 170.5Z" stroke="white" stroke-width="3"/>
<path d="M43.1572 271.422C43.1572 271.056 43.1003 270.731 42.9863 270.446C42.8805 270.161 42.6893 269.901 42.4126 269.665C42.1359 269.429 41.7453 269.201 41.2407 268.981C40.7443 268.753 40.1095 268.521 39.3364 268.285C38.4901 268.025 37.7088 267.736 36.9927 267.418C36.2847 267.093 35.6662 266.719 35.1372 266.295C34.6082 265.864 34.1973 265.372 33.9043 264.818C33.6113 264.257 33.4648 263.61 33.4648 262.877C33.4648 262.153 33.6154 261.494 33.9165 260.9C34.2257 260.306 34.6611 259.793 35.2227 259.362C35.7923 258.922 36.4637 258.585 37.2368 258.349C38.0099 258.104 38.8644 257.982 39.8003 257.982C41.1187 257.982 42.2539 258.227 43.2061 258.715C44.1663 259.203 44.9028 259.858 45.4155 260.68C45.9364 261.502 46.1968 262.41 46.1968 263.402H43.1572C43.1572 262.816 43.0311 262.3 42.7788 261.852C42.5347 261.396 42.1603 261.038 41.6558 260.778C41.1593 260.517 40.5286 260.387 39.7637 260.387C39.0394 260.387 38.4372 260.497 37.957 260.717C37.4769 260.937 37.1188 261.234 36.8828 261.608C36.6468 261.982 36.5288 262.405 36.5288 262.877C36.5288 263.211 36.6061 263.516 36.7607 263.793C36.9154 264.062 37.1514 264.314 37.4688 264.55C37.7861 264.778 38.1849 264.993 38.665 265.197C39.1452 265.4 39.7108 265.596 40.3618 265.783C41.3465 266.076 42.2051 266.401 42.9375 266.759C43.6699 267.109 44.2803 267.508 44.7686 267.956C45.2568 268.403 45.623 268.912 45.8672 269.481C46.1113 270.043 46.2334 270.682 46.2334 271.398C46.2334 272.147 46.0828 272.822 45.7817 273.424C45.4806 274.018 45.0493 274.527 44.4878 274.95C43.9344 275.365 43.2671 275.687 42.4858 275.915C41.7127 276.134 40.8501 276.244 39.8979 276.244C39.0435 276.244 38.2012 276.13 37.3711 275.902C36.5492 275.674 35.8005 275.329 35.125 274.865C34.4495 274.393 33.9124 273.807 33.5137 273.107C33.1149 272.399 32.9155 271.573 32.9155 270.629H35.9795C35.9795 271.207 36.0771 271.699 36.2725 272.106C36.4759 272.513 36.7567 272.847 37.1147 273.107C37.4728 273.359 37.8879 273.546 38.3599 273.668C38.84 273.791 39.3527 273.852 39.8979 273.852C40.6141 273.852 41.2122 273.75 41.6924 273.546C42.1807 273.343 42.5469 273.058 42.791 272.692C43.0352 272.326 43.1572 271.903 43.1572 271.422ZM56.0967 273.351V267.052C56.0967 266.58 56.0112 266.173 55.8403 265.832C55.6694 265.49 55.409 265.225 55.0591 265.038C54.7173 264.851 54.286 264.757 53.7651 264.757C53.285 264.757 52.87 264.839 52.52 265.001C52.1701 265.164 51.8975 265.384 51.7021 265.661C51.5068 265.937 51.4092 266.251 51.4092 266.601H48.4795C48.4795 266.08 48.6056 265.575 48.8579 265.087C49.1102 264.599 49.4764 264.163 49.9565 263.781C50.4367 263.398 51.0104 263.097 51.6777 262.877C52.3451 262.658 53.0938 262.548 53.9238 262.548C54.9167 262.548 55.7956 262.715 56.5605 263.048C57.3337 263.382 57.9399 263.887 58.3794 264.562C58.827 265.229 59.0508 266.068 59.0508 267.077V272.948C59.0508 273.55 59.0915 274.092 59.1729 274.572C59.2624 275.044 59.3885 275.455 59.5513 275.805V276H56.5361C56.3978 275.683 56.2879 275.28 56.2065 274.792C56.1333 274.295 56.0967 273.815 56.0967 273.351ZM56.5239 267.968L56.5483 269.787H54.4365C53.8913 269.787 53.4111 269.84 52.9961 269.945C52.5811 270.043 52.2352 270.189 51.9585 270.385C51.6818 270.58 51.4743 270.816 51.3359 271.093C51.1976 271.369 51.1284 271.683 51.1284 272.033C51.1284 272.383 51.2098 272.704 51.3726 272.997C51.5353 273.282 51.7713 273.506 52.0806 273.668C52.3979 273.831 52.7804 273.913 53.228 273.913C53.8302 273.913 54.3551 273.791 54.8027 273.546C55.2585 273.294 55.6165 272.989 55.877 272.631C56.1374 272.265 56.2757 271.919 56.292 271.593L57.2441 272.899C57.1465 273.233 56.9797 273.591 56.7437 273.974C56.5076 274.356 56.1984 274.722 55.8159 275.072C55.4416 275.414 54.9899 275.695 54.4609 275.915C53.9401 276.134 53.3379 276.244 52.6543 276.244C51.7917 276.244 51.0226 276.073 50.3472 275.731C49.6717 275.382 49.1427 274.914 48.7603 274.328C48.3778 273.734 48.1865 273.062 48.1865 272.313C48.1865 271.614 48.3167 270.995 48.5771 270.458C48.8457 269.913 49.2363 269.457 49.749 269.091C50.2699 268.725 50.9046 268.448 51.6533 268.261C52.402 268.065 53.2565 267.968 54.2168 267.968H56.5239ZM66.2285 273.668L69.4634 262.792H72.5151L67.9253 276H66.021L66.2285 273.668ZM63.7505 262.792L67.0464 273.717L67.2051 276H65.3008L60.6865 262.792H63.7505ZM77.4834 262.792V276H74.5293V262.792H77.4834ZM74.334 259.325C74.334 258.878 74.4805 258.507 74.7734 258.214C75.0745 257.913 75.4896 257.763 76.0186 257.763C76.5394 257.763 76.9504 257.913 77.2515 258.214C77.5526 258.507 77.7031 258.878 77.7031 259.325C77.7031 259.765 77.5526 260.131 77.2515 260.424C76.9504 260.717 76.5394 260.863 76.0186 260.863C75.4896 260.863 75.0745 260.717 74.7734 260.424C74.4805 260.131 74.334 259.765 74.334 259.325ZM83.6235 265.612V276H80.6816V262.792H83.4526L83.6235 265.612ZM83.0986 268.908L82.1465 268.896C82.1546 267.96 82.2848 267.101 82.5371 266.32C82.7975 265.539 83.1556 264.867 83.6113 264.306C84.0752 263.744 84.6286 263.313 85.2715 263.012C85.9144 262.702 86.6305 262.548 87.4199 262.548C88.0547 262.548 88.6284 262.637 89.1411 262.816C89.6619 262.987 90.1055 263.268 90.4717 263.659C90.846 264.049 91.1309 264.558 91.3262 265.185C91.5215 265.803 91.6191 266.564 91.6191 267.467V276H88.665V267.455C88.665 266.82 88.5715 266.32 88.3843 265.954C88.2052 265.579 87.9408 265.315 87.5908 265.16C87.249 264.997 86.8218 264.916 86.3091 264.916C85.8045 264.916 85.3529 265.022 84.9541 265.233C84.5553 265.445 84.2176 265.734 83.9409 266.1C83.6724 266.466 83.4648 266.889 83.3184 267.37C83.1719 267.85 83.0986 268.362 83.0986 268.908ZM103.082 262.792H105.755V275.634C105.755 276.822 105.503 277.831 104.998 278.661C104.493 279.491 103.79 280.122 102.886 280.553C101.983 280.993 100.937 281.212 99.749 281.212C99.2445 281.212 98.6829 281.139 98.0645 280.993C97.4541 280.846 96.86 280.61 96.2822 280.285C95.7126 279.967 95.2365 279.548 94.854 279.027L96.2334 277.294C96.7054 277.855 97.2262 278.266 97.7959 278.527C98.3656 278.787 98.9637 278.917 99.5903 278.917C100.266 278.917 100.84 278.791 101.312 278.539C101.792 278.295 102.162 277.933 102.422 277.453C102.683 276.972 102.813 276.387 102.813 275.695V265.783L103.082 262.792ZM94.1094 269.542V269.286C94.1094 268.285 94.2314 267.374 94.4756 266.552C94.7197 265.722 95.0697 265.01 95.5254 264.416C95.9811 263.813 96.5345 263.354 97.1855 263.036C97.8366 262.711 98.5731 262.548 99.395 262.548C100.25 262.548 100.978 262.702 101.58 263.012C102.19 263.321 102.699 263.764 103.106 264.342C103.513 264.912 103.83 265.596 104.058 266.393C104.294 267.182 104.469 268.061 104.583 269.03V269.848C104.477 270.792 104.298 271.654 104.046 272.436C103.794 273.217 103.46 273.892 103.045 274.462C102.63 275.032 102.117 275.471 101.507 275.78C100.905 276.09 100.193 276.244 99.3706 276.244C98.5649 276.244 97.8366 276.077 97.1855 275.744C96.5426 275.41 95.9893 274.942 95.5254 274.34C95.0697 273.738 94.7197 273.03 94.4756 272.216C94.2314 271.394 94.1094 270.503 94.1094 269.542ZM97.0513 269.286V269.542C97.0513 270.145 97.1082 270.706 97.2222 271.227C97.3442 271.748 97.5273 272.208 97.7715 272.606C98.0238 272.997 98.3411 273.306 98.7236 273.534C99.1143 273.754 99.5741 273.864 100.103 273.864C100.795 273.864 101.36 273.717 101.8 273.424C102.247 273.131 102.589 272.737 102.825 272.24C103.069 271.736 103.24 271.174 103.338 270.556V268.346C103.289 267.866 103.187 267.418 103.033 267.003C102.886 266.588 102.687 266.226 102.435 265.917C102.182 265.6 101.865 265.355 101.482 265.185C101.1 265.006 100.648 264.916 100.127 264.916C99.5985 264.916 99.1387 265.03 98.748 265.258C98.3574 265.486 98.036 265.799 97.7837 266.198C97.5396 266.597 97.3564 267.06 97.2344 267.589C97.1123 268.118 97.0513 268.684 97.0513 269.286ZM119.329 273.668L122.564 262.792H125.616L121.026 276H119.122L119.329 273.668ZM116.851 262.792L120.147 273.717L120.306 276H118.401L113.787 262.792H116.851ZM130.584 262.792V276H127.63V262.792H130.584ZM127.435 259.325C127.435 258.878 127.581 258.507 127.874 258.214C128.175 257.913 128.59 257.763 129.119 257.763C129.64 257.763 130.051 257.913 130.352 258.214C130.653 258.507 130.804 258.878 130.804 259.325C130.804 259.765 130.653 260.131 130.352 260.424C130.051 260.717 129.64 260.863 129.119 260.863C128.59 260.863 128.175 260.717 127.874 260.424C127.581 260.131 127.435 259.765 127.435 259.325ZM141.863 273.266V257.25H144.817V276H142.144L141.863 273.266ZM133.27 269.542V269.286C133.27 268.285 133.388 267.374 133.624 266.552C133.86 265.722 134.201 265.01 134.649 264.416C135.097 263.813 135.642 263.354 136.285 263.036C136.928 262.711 137.652 262.548 138.458 262.548C139.255 262.548 139.955 262.702 140.557 263.012C141.159 263.321 141.672 263.764 142.095 264.342C142.518 264.912 142.856 265.596 143.108 266.393C143.361 267.182 143.54 268.061 143.646 269.03V269.848C143.54 270.792 143.361 271.654 143.108 272.436C142.856 273.217 142.518 273.892 142.095 274.462C141.672 275.032 141.155 275.471 140.545 275.78C139.943 276.09 139.239 276.244 138.433 276.244C137.636 276.244 136.915 276.077 136.272 275.744C135.638 275.41 135.097 274.942 134.649 274.34C134.201 273.738 133.86 273.03 133.624 272.216C133.388 271.394 133.27 270.503 133.27 269.542ZM136.211 269.286V269.542C136.211 270.145 136.264 270.706 136.37 271.227C136.484 271.748 136.659 272.208 136.895 272.606C137.131 272.997 137.436 273.306 137.811 273.534C138.193 273.754 138.649 273.864 139.178 273.864C139.845 273.864 140.394 273.717 140.826 273.424C141.257 273.131 141.595 272.737 141.839 272.24C142.091 271.736 142.262 271.174 142.352 270.556V268.346C142.303 267.866 142.201 267.418 142.046 267.003C141.9 266.588 141.701 266.226 141.448 265.917C141.196 265.6 140.883 265.355 140.508 265.185C140.142 265.006 139.707 264.916 139.202 264.916C138.665 264.916 138.209 265.03 137.835 265.258C137.461 265.486 137.151 265.799 136.907 266.198C136.671 266.597 136.496 267.06 136.382 267.589C136.268 268.118 136.211 268.684 136.211 269.286ZM153.716 276.244C152.74 276.244 151.857 276.085 151.067 275.768C150.286 275.443 149.619 274.991 149.065 274.413C148.52 273.835 148.101 273.156 147.808 272.375C147.515 271.593 147.369 270.751 147.369 269.848V269.359C147.369 268.326 147.519 267.39 147.82 266.552C148.121 265.714 148.541 264.997 149.078 264.403C149.615 263.801 150.25 263.341 150.982 263.024C151.714 262.707 152.508 262.548 153.362 262.548C154.306 262.548 155.132 262.707 155.84 263.024C156.548 263.341 157.134 263.789 157.598 264.367C158.07 264.936 158.42 265.616 158.648 266.405C158.884 267.195 159.002 268.065 159.002 269.018V270.275H148.797V268.163H156.097V267.931C156.08 267.402 155.975 266.906 155.779 266.442C155.592 265.978 155.303 265.604 154.913 265.319C154.522 265.034 154.001 264.892 153.35 264.892C152.862 264.892 152.426 264.997 152.044 265.209C151.67 265.412 151.356 265.709 151.104 266.1C150.852 266.491 150.656 266.963 150.518 267.516C150.388 268.061 150.323 268.676 150.323 269.359V269.848C150.323 270.425 150.4 270.963 150.555 271.459C150.717 271.947 150.953 272.375 151.263 272.741C151.572 273.107 151.946 273.396 152.386 273.607C152.825 273.811 153.326 273.913 153.887 273.913C154.595 273.913 155.226 273.77 155.779 273.485C156.333 273.201 156.813 272.798 157.22 272.277L158.77 273.778C158.485 274.193 158.115 274.592 157.659 274.975C157.203 275.349 156.646 275.654 155.987 275.89C155.336 276.126 154.579 276.244 153.716 276.244ZM160.735 269.542V269.262C160.735 268.31 160.874 267.427 161.15 266.613C161.427 265.791 161.826 265.079 162.347 264.477C162.876 263.866 163.519 263.394 164.275 263.061C165.04 262.719 165.903 262.548 166.863 262.548C167.832 262.548 168.694 262.719 169.451 263.061C170.216 263.394 170.863 263.866 171.392 264.477C171.921 265.079 172.324 265.791 172.601 266.613C172.877 267.427 173.016 268.31 173.016 269.262V269.542C173.016 270.495 172.877 271.378 172.601 272.191C172.324 273.005 171.921 273.717 171.392 274.328C170.863 274.93 170.22 275.402 169.463 275.744C168.707 276.077 167.848 276.244 166.888 276.244C165.919 276.244 165.053 276.077 164.288 275.744C163.531 275.402 162.888 274.93 162.359 274.328C161.83 273.717 161.427 273.005 161.15 272.191C160.874 271.378 160.735 270.495 160.735 269.542ZM163.677 269.262V269.542C163.677 270.137 163.738 270.698 163.86 271.227C163.982 271.756 164.174 272.22 164.434 272.619C164.694 273.017 165.028 273.331 165.435 273.559C165.842 273.786 166.326 273.9 166.888 273.9C167.433 273.9 167.905 273.786 168.304 273.559C168.711 273.331 169.044 273.017 169.305 272.619C169.565 272.22 169.756 271.756 169.878 271.227C170.009 270.698 170.074 270.137 170.074 269.542V269.262C170.074 268.676 170.009 268.122 169.878 267.602C169.756 267.073 169.561 266.605 169.292 266.198C169.032 265.791 168.698 265.473 168.292 265.246C167.893 265.01 167.417 264.892 166.863 264.892C166.31 264.892 165.83 265.01 165.423 265.246C165.024 265.473 164.694 265.791 164.434 266.198C164.174 266.605 163.982 267.073 163.86 267.602C163.738 268.122 163.677 268.676 163.677 269.262ZM186.004 273.668L189.239 262.792H192.291L187.701 276H185.796L186.004 273.668ZM183.526 262.792L186.822 273.717L186.98 276H185.076L180.462 262.792H183.526ZM197.259 262.792V276H194.305V262.792H197.259ZM194.109 259.325C194.109 258.878 194.256 258.507 194.549 258.214C194.85 257.913 195.265 257.763 195.794 257.763C196.315 257.763 196.726 257.913 197.027 258.214C197.328 258.507 197.479 258.878 197.479 259.325C197.479 259.765 197.328 260.131 197.027 260.424C196.726 260.717 196.315 260.863 195.794 260.863C195.265 260.863 194.85 260.717 194.549 260.424C194.256 260.131 194.109 259.765 194.109 259.325ZM207.928 273.351V267.052C207.928 266.58 207.842 266.173 207.671 265.832C207.5 265.49 207.24 265.225 206.89 265.038C206.548 264.851 206.117 264.757 205.596 264.757C205.116 264.757 204.701 264.839 204.351 265.001C204.001 265.164 203.729 265.384 203.533 265.661C203.338 265.937 203.24 266.251 203.24 266.601H200.311C200.311 266.08 200.437 265.575 200.689 265.087C200.941 264.599 201.307 264.163 201.788 263.781C202.268 263.398 202.841 263.097 203.509 262.877C204.176 262.658 204.925 262.548 205.755 262.548C206.748 262.548 207.627 262.715 208.392 263.048C209.165 263.382 209.771 263.887 210.21 264.562C210.658 265.229 210.882 266.068 210.882 267.077V272.948C210.882 273.55 210.923 274.092 211.004 274.572C211.093 275.044 211.22 275.455 211.382 275.805V276H208.367C208.229 275.683 208.119 275.28 208.038 274.792C207.964 274.295 207.928 273.815 207.928 273.351ZM208.355 267.968L208.379 269.787H206.268C205.722 269.787 205.242 269.84 204.827 269.945C204.412 270.043 204.066 270.189 203.79 270.385C203.513 270.58 203.305 270.816 203.167 271.093C203.029 271.369 202.959 271.683 202.959 272.033C202.959 272.383 203.041 272.704 203.204 272.997C203.366 273.282 203.602 273.506 203.912 273.668C204.229 273.831 204.611 273.913 205.059 273.913C205.661 273.913 206.186 273.791 206.634 273.546C207.09 273.294 207.448 272.989 207.708 272.631C207.968 272.265 208.107 271.919 208.123 271.593L209.075 272.899C208.978 273.233 208.811 273.591 208.575 273.974C208.339 274.356 208.029 274.722 207.647 275.072C207.273 275.414 206.821 275.695 206.292 275.915C205.771 276.134 205.169 276.244 204.485 276.244C203.623 276.244 202.854 276.073 202.178 275.731C201.503 275.382 200.974 274.914 200.591 274.328C200.209 273.734 200.018 273.062 200.018 272.313C200.018 271.614 200.148 270.995 200.408 270.458C200.677 269.913 201.067 269.457 201.58 269.091C202.101 268.725 202.736 268.448 203.484 268.261C204.233 268.065 205.088 267.968 206.048 267.968H208.355ZM227.593 272.423C227.593 272.13 227.52 271.866 227.374 271.63C227.227 271.386 226.946 271.166 226.531 270.971C226.124 270.775 225.522 270.596 224.725 270.434C224.025 270.279 223.382 270.096 222.796 269.884C222.218 269.665 221.722 269.4 221.307 269.091C220.892 268.782 220.57 268.415 220.342 267.992C220.114 267.569 220 267.081 220 266.527C220 265.99 220.118 265.482 220.354 265.001C220.59 264.521 220.928 264.098 221.368 263.732C221.807 263.366 222.34 263.077 222.967 262.865C223.602 262.654 224.31 262.548 225.091 262.548C226.198 262.548 227.146 262.735 227.935 263.109C228.733 263.476 229.343 263.976 229.766 264.611C230.189 265.237 230.401 265.945 230.401 266.735H227.459C227.459 266.385 227.369 266.059 227.19 265.758C227.02 265.449 226.759 265.201 226.409 265.014C226.059 264.818 225.62 264.721 225.091 264.721C224.586 264.721 224.167 264.802 223.833 264.965C223.508 265.119 223.264 265.323 223.101 265.575C222.946 265.827 222.869 266.104 222.869 266.405C222.869 266.625 222.91 266.824 222.991 267.003C223.081 267.174 223.227 267.333 223.431 267.479C223.634 267.618 223.911 267.748 224.261 267.87C224.619 267.992 225.066 268.11 225.604 268.224C226.613 268.436 227.479 268.708 228.204 269.042C228.936 269.368 229.498 269.791 229.888 270.312C230.279 270.824 230.474 271.475 230.474 272.265C230.474 272.851 230.348 273.388 230.096 273.876C229.852 274.356 229.493 274.775 229.021 275.133C228.549 275.483 227.984 275.756 227.325 275.951C226.674 276.146 225.941 276.244 225.127 276.244C223.931 276.244 222.918 276.033 222.088 275.609C221.258 275.178 220.627 274.629 220.196 273.961C219.773 273.286 219.561 272.586 219.561 271.862H222.405C222.438 272.407 222.588 272.842 222.857 273.168C223.134 273.485 223.475 273.717 223.882 273.864C224.297 274.002 224.725 274.071 225.164 274.071C225.693 274.071 226.137 274.002 226.495 273.864C226.853 273.717 227.125 273.522 227.312 273.278C227.5 273.026 227.593 272.741 227.593 272.423ZM236.333 265.783H238.091C238.775 265.783 239.34 265.665 239.788 265.429C240.244 265.193 240.582 264.867 240.801 264.452C241.021 264.037 241.131 263.561 241.131 263.024C241.131 262.462 241.029 261.982 240.826 261.583C240.63 261.177 240.329 260.863 239.922 260.644C239.524 260.424 239.015 260.314 238.396 260.314C237.876 260.314 237.404 260.42 236.98 260.631C236.565 260.835 236.236 261.128 235.992 261.51C235.748 261.885 235.625 262.332 235.625 262.853H232.671C232.671 261.909 232.92 261.071 233.416 260.338C233.912 259.606 234.588 259.032 235.442 258.617C236.305 258.194 237.273 257.982 238.348 257.982C239.495 257.982 240.496 258.174 241.351 258.556C242.213 258.931 242.885 259.492 243.365 260.241C243.845 260.989 244.085 261.917 244.085 263.024C244.085 263.528 243.967 264.041 243.731 264.562C243.495 265.083 243.145 265.559 242.681 265.99C242.217 266.413 241.639 266.759 240.948 267.028C240.256 267.288 239.454 267.418 238.543 267.418H236.333V265.783ZM236.333 268.078V266.466H238.543C239.585 266.466 240.472 266.588 241.204 266.833C241.945 267.077 242.547 267.414 243.011 267.846C243.475 268.269 243.812 268.753 244.024 269.298C244.244 269.844 244.354 270.421 244.354 271.032C244.354 271.862 244.203 272.602 243.902 273.253C243.609 273.896 243.19 274.442 242.645 274.889C242.099 275.337 241.46 275.674 240.728 275.902C240.004 276.13 239.214 276.244 238.36 276.244C237.595 276.244 236.862 276.138 236.163 275.927C235.463 275.715 234.836 275.402 234.283 274.987C233.729 274.564 233.29 274.039 232.964 273.412C232.647 272.777 232.488 272.045 232.488 271.215H235.43C235.43 271.744 235.552 272.212 235.796 272.619C236.049 273.017 236.399 273.331 236.846 273.559C237.302 273.786 237.823 273.9 238.409 273.9C239.027 273.9 239.56 273.791 240.008 273.571C240.455 273.351 240.797 273.026 241.033 272.594C241.277 272.163 241.399 271.642 241.399 271.032C241.399 270.34 241.265 269.778 240.997 269.347C240.728 268.916 240.346 268.598 239.849 268.395C239.353 268.183 238.767 268.078 238.091 268.078H236.333ZM256.438 265.331V281.078H253.497V262.792H256.207L256.438 265.331ZM265.044 269.274V269.53C265.044 270.491 264.931 271.382 264.703 272.204C264.483 273.017 264.153 273.729 263.714 274.34C263.283 274.942 262.75 275.41 262.115 275.744C261.48 276.077 260.748 276.244 259.917 276.244C259.096 276.244 258.375 276.094 257.757 275.792C257.146 275.483 256.63 275.048 256.207 274.486C255.783 273.925 255.442 273.266 255.181 272.509C254.929 271.744 254.75 270.906 254.644 269.994V269.005C254.75 268.037 254.929 267.158 255.181 266.369C255.442 265.579 255.783 264.9 256.207 264.33C256.63 263.76 257.146 263.321 257.757 263.012C258.367 262.702 259.079 262.548 259.893 262.548C260.723 262.548 261.46 262.711 262.103 263.036C262.745 263.354 263.287 263.809 263.726 264.403C264.166 264.989 264.495 265.697 264.715 266.527C264.935 267.349 265.044 268.265 265.044 269.274ZM262.103 269.53V269.274C262.103 268.664 262.046 268.098 261.932 267.577C261.818 267.048 261.639 266.584 261.395 266.186C261.15 265.787 260.837 265.478 260.455 265.258C260.08 265.03 259.629 264.916 259.1 264.916C258.579 264.916 258.131 265.006 257.757 265.185C257.382 265.355 257.069 265.596 256.817 265.905C256.565 266.214 256.369 266.576 256.231 266.991C256.093 267.398 255.995 267.842 255.938 268.322V270.69C256.036 271.276 256.202 271.813 256.438 272.301C256.674 272.79 257.008 273.18 257.439 273.473C257.879 273.758 258.44 273.9 259.124 273.9C259.653 273.9 260.105 273.786 260.479 273.559C260.853 273.331 261.159 273.017 261.395 272.619C261.639 272.212 261.818 271.744 261.932 271.215C262.046 270.686 262.103 270.124 262.103 269.53ZM270.501 265.307V276H267.559V262.792H270.367L270.501 265.307ZM274.542 262.707L274.517 265.441C274.338 265.408 274.143 265.384 273.931 265.368C273.728 265.351 273.524 265.343 273.321 265.343C272.816 265.343 272.373 265.417 271.99 265.563C271.608 265.701 271.286 265.905 271.026 266.173C270.774 266.434 270.578 266.751 270.44 267.125C270.302 267.5 270.22 267.919 270.196 268.383L269.524 268.432C269.524 267.602 269.606 266.833 269.769 266.125C269.931 265.417 270.175 264.794 270.501 264.257C270.835 263.72 271.25 263.301 271.746 263C272.251 262.698 272.833 262.548 273.492 262.548C273.671 262.548 273.862 262.564 274.065 262.597C274.277 262.629 274.436 262.666 274.542 262.707ZM275.506 269.542V269.262C275.506 268.31 275.644 267.427 275.921 266.613C276.198 265.791 276.596 265.079 277.117 264.477C277.646 263.866 278.289 263.394 279.046 263.061C279.811 262.719 280.674 262.548 281.634 262.548C282.602 262.548 283.465 262.719 284.222 263.061C284.987 263.394 285.634 263.866 286.163 264.477C286.692 265.079 287.094 265.791 287.371 266.613C287.648 267.427 287.786 268.31 287.786 269.262V269.542C287.786 270.495 287.648 271.378 287.371 272.191C287.094 273.005 286.692 273.717 286.163 274.328C285.634 274.93 284.991 275.402 284.234 275.744C283.477 276.077 282.618 276.244 281.658 276.244C280.69 276.244 279.823 276.077 279.058 275.744C278.301 275.402 277.658 274.93 277.129 274.328C276.6 273.717 276.198 273.005 275.921 272.191C275.644 271.378 275.506 270.495 275.506 269.542ZM278.448 269.262V269.542C278.448 270.137 278.509 270.698 278.631 271.227C278.753 271.756 278.944 272.22 279.205 272.619C279.465 273.017 279.799 273.331 280.206 273.559C280.612 273.786 281.097 273.9 281.658 273.9C282.203 273.9 282.675 273.786 283.074 273.559C283.481 273.331 283.815 273.017 284.075 272.619C284.336 272.22 284.527 271.756 284.649 271.227C284.779 270.698 284.844 270.137 284.844 269.542V269.262C284.844 268.676 284.779 268.122 284.649 267.602C284.527 267.073 284.332 266.605 284.063 266.198C283.803 265.791 283.469 265.473 283.062 265.246C282.663 265.01 282.187 264.892 281.634 264.892C281.08 264.892 280.6 265.01 280.193 265.246C279.795 265.473 279.465 265.791 279.205 266.198C278.944 266.605 278.753 267.073 278.631 267.602C278.509 268.122 278.448 268.676 278.448 269.262ZM296.307 262.792V264.94H288.86V262.792H296.307ZM291.009 259.557H293.951V272.35C293.951 272.757 294.008 273.07 294.122 273.29C294.244 273.502 294.41 273.644 294.622 273.717C294.834 273.791 295.082 273.827 295.367 273.827C295.57 273.827 295.765 273.815 295.953 273.791C296.14 273.766 296.29 273.742 296.404 273.717L296.417 275.963C296.172 276.037 295.888 276.102 295.562 276.159C295.245 276.216 294.878 276.244 294.463 276.244C293.788 276.244 293.19 276.126 292.669 275.89C292.148 275.646 291.741 275.251 291.448 274.706C291.155 274.161 291.009 273.437 291.009 272.533V259.557ZM297.723 269.542V269.262C297.723 268.31 297.861 267.427 298.138 266.613C298.414 265.791 298.813 265.079 299.334 264.477C299.863 263.866 300.506 263.394 301.263 263.061C302.028 262.719 302.89 262.548 303.851 262.548C304.819 262.548 305.682 262.719 306.438 263.061C307.203 263.394 307.85 263.866 308.379 264.477C308.908 265.079 309.311 265.791 309.588 266.613C309.865 267.427 310.003 268.31 310.003 269.262V269.542C310.003 270.495 309.865 271.378 309.588 272.191C309.311 273.005 308.908 273.717 308.379 274.328C307.85 274.93 307.208 275.402 306.451 275.744C305.694 276.077 304.835 276.244 303.875 276.244C302.907 276.244 302.04 276.077 301.275 275.744C300.518 275.402 299.875 274.93 299.346 274.328C298.817 273.717 298.414 273.005 298.138 272.191C297.861 271.378 297.723 270.495 297.723 269.542ZM300.665 269.262V269.542C300.665 270.137 300.726 270.698 300.848 271.227C300.97 271.756 301.161 272.22 301.421 272.619C301.682 273.017 302.015 273.331 302.422 273.559C302.829 273.786 303.313 273.9 303.875 273.9C304.42 273.9 304.892 273.786 305.291 273.559C305.698 273.331 306.032 273.017 306.292 272.619C306.552 272.22 306.744 271.756 306.866 271.227C306.996 270.698 307.061 270.137 307.061 269.542V269.262C307.061 268.676 306.996 268.122 306.866 267.602C306.744 267.073 306.548 266.605 306.28 266.198C306.019 265.791 305.686 265.473 305.279 265.246C304.88 265.01 304.404 264.892 303.851 264.892C303.297 264.892 302.817 265.01 302.41 265.246C302.011 265.473 301.682 265.791 301.421 266.198C301.161 266.605 300.97 267.073 300.848 267.602C300.726 268.122 300.665 268.676 300.665 269.262ZM317.864 273.9C318.344 273.9 318.776 273.807 319.158 273.62C319.549 273.424 319.862 273.156 320.098 272.814C320.342 272.472 320.477 272.077 320.501 271.63H323.272C323.256 272.484 323.003 273.262 322.515 273.961C322.027 274.661 321.38 275.219 320.574 275.634C319.769 276.041 318.877 276.244 317.901 276.244C316.892 276.244 316.013 276.073 315.264 275.731C314.515 275.382 313.893 274.901 313.396 274.291C312.9 273.681 312.526 272.977 312.273 272.179C312.029 271.382 311.907 270.527 311.907 269.616V269.188C311.907 268.277 312.029 267.423 312.273 266.625C312.526 265.819 312.9 265.111 313.396 264.501C313.893 263.891 314.515 263.415 315.264 263.073C316.013 262.723 316.888 262.548 317.889 262.548C318.947 262.548 319.874 262.759 320.672 263.183C321.469 263.598 322.096 264.18 322.552 264.928C323.016 265.669 323.256 266.531 323.272 267.516H320.501C320.477 267.028 320.354 266.588 320.135 266.198C319.923 265.799 319.622 265.482 319.231 265.246C318.849 265.01 318.389 264.892 317.852 264.892C317.258 264.892 316.766 265.014 316.375 265.258C315.984 265.494 315.679 265.819 315.459 266.234C315.24 266.641 315.081 267.101 314.983 267.614C314.894 268.118 314.849 268.643 314.849 269.188V269.616C314.849 270.161 314.894 270.69 314.983 271.203C315.073 271.715 315.228 272.175 315.447 272.582C315.675 272.981 315.984 273.302 316.375 273.546C316.766 273.782 317.262 273.9 317.864 273.9ZM324.969 269.542V269.262C324.969 268.31 325.107 267.427 325.384 266.613C325.66 265.791 326.059 265.079 326.58 264.477C327.109 263.866 327.752 263.394 328.509 263.061C329.274 262.719 330.136 262.548 331.097 262.548C332.065 262.548 332.928 262.719 333.685 263.061C334.45 263.394 335.097 263.866 335.625 264.477C336.154 265.079 336.557 265.791 336.834 266.613C337.111 267.427 337.249 268.31 337.249 269.262V269.542C337.249 270.495 337.111 271.378 336.834 272.191C336.557 273.005 336.154 273.717 335.625 274.328C335.097 274.93 334.454 275.402 333.697 275.744C332.94 276.077 332.081 276.244 331.121 276.244C330.153 276.244 329.286 276.077 328.521 275.744C327.764 275.402 327.121 274.93 326.592 274.328C326.063 273.717 325.66 273.005 325.384 272.191C325.107 271.378 324.969 270.495 324.969 269.542ZM327.911 269.262V269.542C327.911 270.137 327.972 270.698 328.094 271.227C328.216 271.756 328.407 272.22 328.667 272.619C328.928 273.017 329.262 273.331 329.668 273.559C330.075 273.786 330.56 273.9 331.121 273.9C331.666 273.9 332.138 273.786 332.537 273.559C332.944 273.331 333.278 273.017 333.538 272.619C333.799 272.22 333.99 271.756 334.112 271.227C334.242 270.698 334.307 270.137 334.307 269.542V269.262C334.307 268.676 334.242 268.122 334.112 267.602C333.99 267.073 333.794 266.605 333.526 266.198C333.265 265.791 332.932 265.473 332.525 265.246C332.126 265.01 331.65 264.892 331.097 264.892C330.543 264.892 330.063 265.01 329.656 265.246C329.257 265.473 328.928 265.791 328.667 266.198C328.407 266.605 328.216 267.073 328.094 267.602C327.972 268.122 327.911 268.676 327.911 269.262ZM342.864 257.25V276H339.91V257.25H342.864Z" fill="white"/>
</svg>
