<svg width="190" height="162" viewBox="0 0 190 162" fill="none" xmlns="http://www.w3.org/2000/svg">
<path d="M91.9048 25.0183C93.0371 23.0251 95.8961 22.9869 97.0813 24.9492L102.571 34.038C103.142 34.9835 102.838 36.2129 101.893 36.784C100.947 37.355 99.7177 37.0515 99.1467 36.106L94.5397 28.4782L29.654 142.699H74.9164C76.0209 142.699 76.9164 143.594 76.9164 144.699C76.9164 145.803 76.0209 146.699 74.9164 146.699H27.9358C25.6357 146.699 24.1912 144.217 25.3273 142.217L91.9048 25.0183Z" fill="white"/>
<path d="M105.04 46.1533C104.492 45.1943 104.825 43.9725 105.784 43.4244C106.743 42.8763 107.965 43.2094 108.513 44.1683L164.549 142.208C165.692 144.208 164.248 146.696 161.944 146.696H114.969C113.865 146.696 112.969 145.801 112.969 144.696C112.969 143.592 113.865 142.696 114.969 142.696H160.221L105.04 46.1533Z" fill="white"/>
<path fill-rule="evenodd" clip-rule="evenodd" d="M83.9064 66.0617C83.805 64.3385 85.1751 62.8854 86.9013 62.8854H102.521C104.257 62.8854 105.631 64.3546 105.514 66.0868L102.008 118.212C101.902 119.787 100.593 121.011 99.0147 121.011H89.9694C88.3811 121.011 87.068 119.773 86.9746 118.187L83.9064 66.0617ZM87.9619 66.8854L90.9123 117.011H98.0797L101.452 66.8854H87.9619Z" fill="white"/>
<path fill-rule="evenodd" clip-rule="evenodd" d="M104.499 138.276C104.499 143.85 100.016 148.368 94.4863 148.368C88.9564 148.368 84.4735 143.85 84.4735 138.276C84.4735 132.703 88.9564 128.185 94.4863 128.185C100.016 128.185 104.499 132.703 104.499 138.276ZM100.499 138.276C100.499 141.67 97.7778 144.368 94.4863 144.368C91.1949 144.368 88.4735 141.67 88.4735 138.276C88.4735 134.883 91.1949 132.185 94.4863 132.185C97.7778 132.185 100.499 134.883 100.499 138.276Z" fill="white"/>
<path fill-rule="evenodd" clip-rule="evenodd" d="M104.858 6.38032L187.298 143.827C192.096 151.826 186.334 162 177.008 162H12.1269C2.80021 162 -2.96129 151.826 1.83609 143.827L84.2764 6.38032C88.9369 -1.38979 100.198 -1.3898 104.858 6.38032ZM101.428 8.43779C98.3208 3.25771 90.8137 3.25772 87.7067 8.43779L5.26637 145.885C2.06812 151.217 5.90911 158 12.1269 158H177.008C183.225 158 187.066 151.217 183.868 145.885L101.428 8.43779Z" fill="white"/>
</svg>
