<svg width="128" height="129" viewBox="0 0 128 129" fill="none" xmlns="http://www.w3.org/2000/svg">
<circle cx="52.5" cy="52.5" r="42.5" stroke="white" stroke-width="4"/>
<circle cx="52.5" cy="52.5" r="50.5" stroke="white" stroke-width="4"/>
<circle cx="29" cy="47" r="6" stroke="white" stroke-width="4"/>
<circle cx="50" cy="68" r="6" stroke="white" stroke-width="4"/>
<path d="M81.9995 95.0003L107.113 120.818C108.132 121.842 109.308 122.689 110.574 123.312C111.84 123.935 113.171 124.321 114.491 124.448C115.812 124.575 117.095 124.441 118.268 124.053C119.442 123.664 120.482 123.03 121.33 122.186C122.178 121.342 122.817 120.305 123.21 119.133C123.603 117.962 123.743 116.679 123.622 115.358C123.501 114.037 123.121 112.705 122.504 111.436C121.887 110.167 121.045 108.987 120.026 107.963L94.4996 82.0003" stroke="white" stroke-width="4"/>
<circle cx="76" cy="42" r="6" stroke="white" stroke-width="4"/>
<circle cx="107" cy="13" r="6" stroke="white" stroke-width="4"/>
<path d="M11 47H22.5" stroke="white" stroke-width="4"/>
<path d="M34 51.5L45.5 63" stroke="white" stroke-width="4"/>
<path d="M54 64L71.5 46.5" stroke="white" stroke-width="4"/>
<path d="M87.5 30L80 38" stroke="white" stroke-width="4"/>
<path d="M103 16L95 23" stroke="white" stroke-width="4"/>
<path d="M113 13H125.5" stroke="white" stroke-width="4" stroke-linecap="round"/>
<path d="M90.5 104L103 91.5" stroke="white" stroke-width="4" stroke-linecap="round"/>
</svg>
