<svg width="140" height="140" viewBox="0 0 140 140" fill="none" xmlns="http://www.w3.org/2000/svg">
<path d="M110 97H132.5C135.261 97 137.5 94.7614 137.5 92V7C137.5 4.23857 135.261 2 132.5 2H7C4.23857 2 2 4.23858 2 7V92C2 94.7614 4.23858 97 7 97H45.5" stroke="white" stroke-width="4"/>
<path d="M10 25.5V87.5H42.5" stroke="white" stroke-width="4" stroke-linecap="round"/>
<path d="M52.5 87.5H84.5" stroke="white" stroke-width="4" stroke-linecap="round"/>
<path d="M20.5 77.5L43.2573 51.8375C43.6533 51.391 44.3496 51.3884 44.7488 51.832L48.5 56" stroke="white" stroke-width="4" stroke-linecap="round"/>
<path d="M56.5 65L61.8032 70.7451C62.1849 71.1587 62.8327 71.1758 63.2358 70.783L82 52.5" stroke="white" stroke-width="4" stroke-linecap="round"/>
<path d="M91 44L107.5 27M107.5 27V36.5M107.5 27H98" stroke="white" stroke-width="4" stroke-linecap="round"/>
<path d="M56.5 23.5H67L78.5 42" stroke="white" stroke-width="4" stroke-linecap="round"/>
<rect x="19.5" y="10.5" width="36" height="27" rx="4" stroke="white" stroke-width="4"/>
<rect x="10.5" y="110.5" width="36" height="27" rx="4" stroke="white" stroke-width="4"/>
<path d="M28.5 19.5H46.5" stroke="white" stroke-width="4" stroke-linecap="square"/>
<path d="M19.5 119.5H37.5" stroke="white" stroke-width="4" stroke-linecap="square"/>
<path d="M28.5 28.5H46.5" stroke="white" stroke-width="4" stroke-linecap="square"/>
<path d="M19.5 128.5H37.5" stroke="white" stroke-width="4" stroke-linecap="square"/>
<path d="M46.5 124.5H58.5L67.5 114.5" stroke="white" stroke-width="4" stroke-linecap="round"/>
<circle cx="78" cy="79" r="36.5" stroke="white" stroke-width="4"/>
<circle cx="78" cy="79" r="27.5" stroke="white" stroke-width="4"/>
<path d="M123.543 136.914L124.325 135.073L123.543 136.914C124.847 137.467 126.237 137.773 127.635 137.804C129.033 137.835 130.415 137.591 131.696 137.076C132.979 136.561 134.132 135.786 135.084 134.794C136.037 133.802 136.764 132.619 137.227 131.317C137.689 130.015 137.877 128.625 137.789 127.229C137.701 125.833 137.34 124.457 136.734 123.177C136.13 121.903 135.294 120.743 134.274 119.759L122.464 107.945C121.309 106.79 119.442 106.771 118.264 107.902L107.751 117.999C106.538 119.163 106.519 121.097 107.708 122.285L119.985 134.552L119.999 134.566L120.013 134.58C121.041 135.566 122.239 136.36 123.543 136.914Z" stroke="white" stroke-width="4"/>
<path d="M100 109L108 117" stroke="white" stroke-width="4" stroke-linecap="round"/>
<path d="M108.5 100.5L116.5 108.5" stroke="white" stroke-width="4" stroke-linecap="round"/>
</svg>
