<svg width="249" height="249" viewBox="0 0 249 249" fill="none" xmlns="http://www.w3.org/2000/svg">
<circle cx="124.5" cy="124.5" r="124.5" fill="#222222"/>
<path d="M164 151H186.5C189.261 151 191.5 148.761 191.5 146V61C191.5 58.2386 189.261 56 186.5 56H61C58.2386 56 56 58.2386 56 61V146C56 148.761 58.2386 151 61 151H99.5" stroke="white" stroke-width="4"/>
<path d="M64 79.5V141.5H96.5" stroke="white" stroke-width="4" stroke-linecap="round"/>
<path d="M106.5 141.5H138.5" stroke="white" stroke-width="4" stroke-linecap="round"/>
<path d="M74.5 131.5L97.2573 105.837C97.6533 105.391 98.3496 105.388 98.7488 105.832L102.5 110" stroke="white" stroke-width="4" stroke-linecap="round"/>
<path d="M110.5 119L115.803 124.745C116.185 125.159 116.833 125.176 117.236 124.783L136 106.5" stroke="white" stroke-width="4" stroke-linecap="round"/>
<path d="M145 98L161.5 81M161.5 81V90.5M161.5 81H152" stroke="white" stroke-width="4" stroke-linecap="round"/>
<path d="M110.5 77.5H121L132.5 96" stroke="white" stroke-width="4" stroke-linecap="round"/>
<rect x="73.5" y="64.5" width="36" height="27" rx="4" stroke="white" stroke-width="4"/>
<rect x="64.5" y="164.5" width="36" height="27" rx="4" stroke="white" stroke-width="4"/>
<path d="M82.5 73.5H100.5" stroke="white" stroke-width="4" stroke-linecap="square"/>
<path d="M73.5 173.5H91.5" stroke="white" stroke-width="4" stroke-linecap="square"/>
<path d="M82.5 82.5H100.5" stroke="white" stroke-width="4" stroke-linecap="square"/>
<path d="M73.5 182.5H91.5" stroke="white" stroke-width="4" stroke-linecap="square"/>
<path d="M100.5 178.5H112.5L121.5 168.5" stroke="white" stroke-width="4" stroke-linecap="round"/>
<circle cx="132" cy="133" r="36.5" stroke="white" stroke-width="4"/>
<circle cx="132" cy="133" r="27.5" stroke="white" stroke-width="4"/>
<path d="M177.543 190.914L178.325 189.073L177.543 190.914C178.847 191.467 180.237 191.773 181.635 191.804C183.033 191.835 184.415 191.591 185.696 191.076C186.979 190.561 188.132 189.786 189.084 188.794C190.037 187.802 190.764 186.619 191.227 185.317C191.689 184.015 191.877 182.625 191.789 181.229C191.701 179.833 191.34 178.457 190.734 177.177C190.13 175.903 189.294 174.743 188.274 173.759L176.464 161.945C175.309 160.79 173.442 160.771 172.264 161.902L161.751 171.999C160.538 173.163 160.519 175.097 161.708 176.285L173.985 188.552L173.999 188.566L174.013 188.58C175.041 189.566 176.239 190.36 177.543 190.914Z" stroke="white" stroke-width="4"/>
<path d="M154 163L162 171" stroke="white" stroke-width="4" stroke-linecap="round"/>
<path d="M162.5 154.5L170.5 162.5" stroke="white" stroke-width="4" stroke-linecap="round"/>
</svg>
