<svg width="73" height="82" viewBox="0 0 73 82" fill="none" xmlns="http://www.w3.org/2000/svg">
<path d="M60 25.8072C60 32.2824 56.3349 39.7539 51.1941 47.1435C46.5914 53.7598 41.0161 60.023 36.4432 65.0819C32.1024 60.5869 26.5855 54.3651 21.983 47.6696C16.7819 40.1033 13 32.2862 13 25.8072C13 12.6362 23.5438 2 36.5 2C49.4562 2 60 12.6362 60 25.8072Z" stroke="white" stroke-width="4"/>
<circle cx="36.5" cy="26.5" r="9.5" stroke="white" stroke-width="4"/>
<path d="M55.6793 50.7002C61.8157 52.6035 66.4738 55.3694 68.9692 58.5915C71.4646 61.8136 71.6656 65.322 69.5427 68.601C67.4199 71.88 63.085 74.7568 57.1753 76.8085C51.2656 78.8603 44.0926 79.9788 36.7105 79.9996C29.3284 80.0205 22.1266 78.9427 16.1633 76.9246C10.2 74.9065 5.7898 72.0544 3.58079 68.7877C1.37179 65.5209 1.48048 62.0117 3.89089 58.7757C6.3013 55.5397 10.8863 52.7476 16.9721 50.8097" stroke="white" stroke-width="4" stroke-linecap="round"/>
</svg>
