<svg width="166" height="156" viewBox="0 0 166 156" fill="none" xmlns="http://www.w3.org/2000/svg">
<path fill-rule="evenodd" clip-rule="evenodd" d="M6.5 0.912109C2.91016 0.912109 0 3.82226 0 7.41211V148.912C0 152.502 2.91015 155.412 6.5 155.412H164.5C165.328 155.412 166 154.741 166 153.912C166 153.084 165.328 152.412 164.5 152.412H6.5C4.56701 152.412 3 150.845 3 148.912V7.41211C3 5.47911 4.56701 3.91211 6.5 3.91211H159.5C161.433 3.91211 163 5.47911 163 7.41211V22.9121C163 23.7405 163.672 24.4121 164.5 24.4121C165.328 24.4121 166 23.7405 166 22.9121V7.41211C166 3.82226 163.09 0.912109 159.5 0.912109H6.5ZM153.177 33.9121C152.677 33.9121 152.21 34.1611 151.932 34.576L141.698 49.8185L131.928 57.7994H123.092H113.228C112.631 57.7994 112.091 58.1535 111.852 58.701L103.367 78.2032H93.0068C92.9317 78.2032 92.8566 78.2088 92.7823 78.2201L82.9184 79.713C82.6235 79.7577 82.3487 79.8892 82.1289 80.0908L71.62 89.7307L61.7214 91.1575C61.6699 91.1649 61.6189 91.175 61.5685 91.1877L51.7045 93.676C51.3828 93.7571 51.0971 93.9426 50.8921 94.2035L39.999 108.062H31.3571C30.9223 108.062 30.5088 108.251 30.2239 108.58L19.8667 120.523C19.6302 120.796 19.5 121.145 19.5 121.506V141.412V142.912H22.5V141.412V122.066L29.8571 113.582V141.412V142.912H32.8571V141.412V111.062H39.2279V141.412V142.912H42.2279V141.412V110.081L50.5714 99.4661V141.412V142.912H53.5714V141.412V96.299L60.4354 94.5675V141.412V142.912H63.4354V141.412V93.9414L70.7925 92.8809V141.412V142.912H73.7925V141.412V91.8087L81.6429 84.6076V141.412V142.912H84.6429V141.412V82.4862L91.5068 81.4473V141.412V142.912H94.5068V141.412V81.2032H102.85V141.412V142.912H105.85V141.412V80.0154L111.728 66.5067V141.412V142.912H114.728V141.412V60.7994H121.592V141.412V142.912H124.592V141.412V60.7994H130.963V141.412V142.912H133.963V141.412V60.011L141.32 54.0014V141.412V142.912H144.32V141.412V51.2962L151.677 40.3375V141.412V142.912H154.677V141.412V36.9121H163V141.412V142.912H166V141.412V35.4121C166 34.5837 165.328 33.9121 164.5 33.9121H153.177ZM25.5 47.9121H27H71H72.5V50.9121H71H27H25.5V47.9121ZM19 47.9121H20.5V50.9121H19H18H16.5V47.9121H18H19ZM25.5 38.9121H27H71H72.5V41.9121H71H27H25.5V38.9121ZM19 38.9121H20.5V41.9121H19H18H16.5V38.9121H18H19ZM25.5 28.9121H27H71H72.5V31.9121H71H27H25.5V28.9121ZM19 28.9121H20.5V31.9121H19H18H16.5V28.9121H18H19ZM25.5 18.9121H27H71H72.5V21.9121H71H27H25.5V18.9121ZM19 18.9121H20.5V21.9121H19H18H16.5V18.9121H18H19Z" fill="white"/>
</svg>
