<svg width="173" height="166" viewBox="0 0 173 166" fill="none" xmlns="http://www.w3.org/2000/svg">
<path fill-rule="evenodd" clip-rule="evenodd" d="M6.5 3.91211C4.567 3.91211 3 5.47911 3 7.41211V19.9121H169.5V7.41211C169.5 5.47911 167.933 3.91211 166 3.91211H6.5ZM169.5 22.9121V126.912C169.5 128.845 167.933 130.412 166 130.412H157.5V123.412C157.5 122.584 156.828 121.912 156 121.912C155.172 121.912 154.5 122.584 154.5 123.412V155.912C154.5 156.741 153.828 157.412 153 157.412H139C138.724 157.412 138.5 157.188 138.5 156.912V151.912C138.5 149.979 136.933 148.412 135 148.412H110.5C108.567 148.412 107 149.979 107 151.912V156.912C107 157.188 106.776 157.412 106.5 157.412H94C93.1716 157.412 92.5 156.741 92.5 155.912V133.53C92.8069 133.256 93 132.856 93 132.412C93 131.968 92.8069 131.569 92.5 131.294V83.4121C92.5 82.5837 93.1716 81.9121 94 81.9121H153C153.828 81.9121 154.5 82.5837 154.5 83.4121V112.912C154.5 113.741 155.172 114.412 156 114.412C156.828 114.412 157.5 113.741 157.5 112.912V83.4121C157.5 80.9268 155.485 78.9121 153 78.9121H94C91.5147 78.9121 89.5 80.9268 89.5 83.4121V130.912H72.7899C71.6926 127.312 69.8806 123.942 67.4259 121.015C66.9138 120.405 66.1798 120.023 65.3859 119.954C64.5919 119.886 63.8033 120.136 63.194 120.649L61.1741 122.352C56.4227 117.167 49.5906 113.912 42 113.912C30.7638 113.912 21.1923 121.04 17.5602 131.02C17.3871 130.951 17.1981 130.912 17 130.912H6.5C4.567 130.912 3 129.345 3 127.412V42.4121C3 41.5837 2.32843 40.9121 1.5 40.9121C0.671573 40.9121 0 41.5837 0 42.4121V127.412C0 131.002 2.91015 133.912 6.5 133.912H16.6957C16.2408 135.838 16 137.847 16 139.912C16 154.272 27.6406 165.912 42 165.912C49.3877 165.912 56.0569 162.829 60.7886 157.884L61.979 159.001C62.5593 159.545 63.332 159.837 64.1272 159.812C64.9225 159.786 65.6751 159.446 66.2195 158.866C71.0089 153.762 73.7821 147.092 74.0078 140.117C74.0756 138.021 73.9118 135.941 73.5283 133.912H89.5V155.912C89.5 158.397 91.5147 160.412 94 160.412H106.5C108.433 160.412 110 158.845 110 156.912V151.912C110 151.636 110.224 151.412 110.5 151.412H135C135.276 151.412 135.5 151.636 135.5 151.912V156.912C135.5 158.845 137.067 160.412 139 160.412H153C155.485 160.412 157.5 158.397 157.5 155.912V133.412H166C169.59 133.412 172.5 130.502 172.5 126.912V7.41211C172.5 3.82226 169.59 0.912109 166 0.912109H6.5C2.91015 0.912109 0 3.82226 0 7.41211V30.4121C0 31.2405 0.671573 31.9121 1.5 31.9121C2.32843 31.9121 3 31.2405 3 30.4121V22.9121H169.5ZM70.0248 132.139C70.0085 132.227 70 132.319 70 132.412C70 132.778 70.1308 133.113 70.3481 133.373C70.8557 135.531 71.0823 137.765 71.0093 140.02C70.8398 145.261 69.0631 150.313 65.9574 154.506C65.3634 155.308 64.7209 156.079 64.0318 156.813L61.844 154.761L47.7369 141.524L45.5341 139.457L47.8438 137.511L62.8335 124.877L65.1274 122.943C65.7747 123.715 66.3721 124.521 66.9178 125.358C68.2877 127.457 69.3322 129.743 70.0248 132.139ZM58.6007 155.831L43.4814 141.645C42.8567 141.059 42.5124 140.234 42.5352 139.378C42.558 138.521 42.9457 137.716 43.6007 137.163L58.8779 124.287C54.675 119.749 48.6696 116.912 42 116.912C29.2975 116.912 19 127.21 19 139.912C19 152.615 29.2975 162.912 42 162.912C48.5243 162.912 54.413 160.197 58.6007 155.831ZM96 29.9121C96.8284 29.9121 97.5 30.5837 97.5 31.4121V49.8187L109.948 40.6904C109.659 39.9879 109.5 39.2186 109.5 38.4121C109.5 35.0984 112.186 32.4121 115.5 32.4121C118.814 32.4121 121.5 35.0984 121.5 38.4121C121.5 39.5465 121.185 40.6073 120.638 41.512L126.161 47.8849C126.88 47.5805 127.67 47.4121 128.5 47.4121C130.051 47.4121 131.465 48.0008 132.53 48.9671L141.128 42.0884C140.726 41.2827 140.5 40.3738 140.5 39.4121C140.5 36.0984 143.186 33.4121 146.5 33.4121C149.814 33.4121 152.5 36.0984 152.5 39.4121C152.5 42.7258 149.814 45.4121 146.5 45.4121C145.237 45.4121 144.065 45.0217 143.098 44.3549L134.184 51.4858C134.389 52.0904 134.5 52.7383 134.5 53.4121C134.5 56.7258 131.814 59.4121 128.5 59.4121C125.186 59.4121 122.5 56.7258 122.5 53.4121C122.5 52.0165 122.977 50.7321 123.776 49.7129L118.491 43.6148C117.61 44.122 116.589 44.4121 115.5 44.4121C114.079 44.4121 112.773 43.9181 111.745 43.0923L97.5 53.5389V64.9121C97.5 65.1882 97.7239 65.4121 98 65.4121H147C147.828 65.4121 148.5 66.0837 148.5 66.9121C148.5 67.7405 147.828 68.4121 147 68.4121H98C96.067 68.4121 94.5 66.8451 94.5 64.9121V31.4121C94.5 30.5837 95.1716 29.9121 96 29.9121ZM14 12.4121C14 11.5837 14.6716 10.9121 15.5 10.9121H106.5C107.328 10.9121 108 11.5837 108 12.4121C108 13.2405 107.328 13.9121 106.5 13.9121H15.5C14.6716 13.9121 14 13.2405 14 12.4121ZM135.5 10.9121C134.672 10.9121 134 11.5837 134 12.4121C134 13.2405 134.672 13.9121 135.5 13.9121H137.736C138.564 13.9121 139.236 13.2405 139.236 12.4121C139.236 11.5837 138.564 10.9121 137.736 10.9121H135.5ZM143 12.4121C143 11.5837 143.672 10.9121 144.5 10.9121H146.736C147.564 10.9121 148.236 11.5837 148.236 12.4121C148.236 13.2405 147.564 13.9121 146.736 13.9121H144.5C143.672 13.9121 143 13.2405 143 12.4121ZM154.5 10.9121C153.672 10.9121 153 11.5837 153 12.4121C153 13.2405 153.672 13.9121 154.5 13.9121H156.736C157.564 13.9121 158.236 13.2405 158.236 12.4121C158.236 11.5837 157.564 10.9121 156.736 10.9121H154.5ZM115.5 41.4121C117.157 41.4121 118.5 40.069 118.5 38.4121C118.5 36.7553 117.157 35.4121 115.5 35.4121C113.843 35.4121 112.5 36.7553 112.5 38.4121C112.5 40.069 113.843 41.4121 115.5 41.4121ZM131.5 53.4121C131.5 55.069 130.157 56.4121 128.5 56.4121C126.843 56.4121 125.5 55.069 125.5 53.4121C125.5 51.7553 126.843 50.4121 128.5 50.4121C130.157 50.4121 131.5 51.7553 131.5 53.4121ZM146.5 42.4121C148.157 42.4121 149.5 41.069 149.5 39.4121C149.5 37.7553 148.157 36.4121 146.5 36.4121C144.843 36.4121 143.5 37.7553 143.5 39.4121C143.5 41.069 144.843 42.4121 146.5 42.4121ZM138.5 88.4121H107.5C105.291 88.4121 103.5 90.203 103.5 92.4121V102.412C103.5 104.621 105.291 106.412 107.5 106.412H138.5C140.709 106.412 142.5 104.621 142.5 102.412V92.4121C142.5 90.203 140.709 88.4121 138.5 88.4121ZM106.5 92.4121C106.5 91.8598 106.948 91.4121 107.5 91.4121H138.5C139.052 91.4121 139.5 91.8598 139.5 92.4121V102.412C139.5 102.964 139.052 103.412 138.5 103.412H107.5C106.948 103.412 106.5 102.964 106.5 102.412V92.4121ZM25.5 89.4121H64.5C66.7091 89.4121 68.5 91.203 68.5 93.4121V102.412C68.5 104.621 66.7091 106.412 64.5 106.412H25.5C23.2909 106.412 21.5 104.621 21.5 102.412V93.4121C21.5 91.203 23.2909 89.4121 25.5 89.4121ZM25.5 92.4121C24.9477 92.4121 24.5 92.8598 24.5 93.4121V102.412C24.5 102.964 24.9477 103.412 25.5 103.412H64.5C65.0523 103.412 65.5 102.964 65.5 102.412V93.4121C65.5 92.8598 65.0523 92.4121 64.5 92.4121H25.5ZM105.5 114.912C104.672 114.912 104 115.584 104 116.412C104 117.241 104.672 117.912 105.5 117.912H111.5C112.328 117.912 113 117.241 113 116.412C113 115.584 112.328 114.912 111.5 114.912H105.5ZM118 116.412C118 115.584 118.672 114.912 119.5 114.912H141.5C142.328 114.912 143 115.584 143 116.412C143 117.241 142.328 117.912 141.5 117.912H119.5C118.672 117.912 118 117.241 118 116.412ZM105.5 125.912C104.672 125.912 104 126.584 104 127.412C104 128.241 104.672 128.912 105.5 128.912H111.5C112.328 128.912 113 128.241 113 127.412C113 126.584 112.328 125.912 111.5 125.912H105.5ZM118 127.412C118 126.584 118.672 125.912 119.5 125.912H141.5C142.328 125.912 143 126.584 143 127.412C143 128.241 142.328 128.912 141.5 128.912H119.5C118.672 128.912 118 128.241 118 127.412ZM105.5 136.912C104.672 136.912 104 137.584 104 138.412C104 139.241 104.672 139.912 105.5 139.912H111.5C112.328 139.912 113 139.241 113 138.412C113 137.584 112.328 136.912 111.5 136.912H105.5ZM118 138.412C118 137.584 118.672 136.912 119.5 136.912H141.5C142.328 136.912 143 137.584 143 138.412C143 139.241 142.328 139.912 141.5 139.912H119.5C118.672 139.912 118 139.241 118 138.412ZM76.4955 63.0464L76.5 62.9646V62.8827C76.5 58.7568 75.7008 54.6702 74.1469 50.8557C72.593 47.0411 70.3141 43.5719 67.4379 40.6474C64.5616 37.7228 61.1443 35.4001 57.3796 33.8145C53.6148 32.2289 49.578 31.4121 45.5 31.4121C41.422 31.4121 37.3852 32.2289 33.6204 33.8145C29.8557 35.4001 26.4384 37.7228 23.5621 40.6474C20.6859 43.5719 18.407 47.0411 16.8531 50.8557C15.2992 54.6702 14.5 58.7568 14.5 62.8827V62.9646L14.5045 63.0464C14.6856 66.3621 16.0586 74.2311 20.4334 79.879C21.2122 80.8845 22.391 81.4121 23.5734 81.4121H32H35H56H59H66.946C68.0645 81.4121 69.183 80.9403 69.9633 80.0291C74.8142 74.3642 76.3113 66.4182 76.4955 63.0464ZM59 78.4121H66.946C67.2292 78.4121 67.5004 78.2929 67.6846 78.0778C71.935 73.1141 73.3341 65.9197 73.5 62.8827C73.5 59.1439 72.7758 55.4417 71.3686 51.9875C69.9615 48.5333 67.899 45.3947 65.299 42.751C62.6989 40.1072 59.6123 38.0101 56.2151 36.5793C52.818 35.1485 49.177 34.4121 45.5 34.4121C41.823 34.4121 38.182 35.1485 34.7849 36.5793C31.3877 38.0101 28.301 40.1072 25.701 42.751C23.101 45.3947 21.0385 48.5333 19.6314 51.9875C18.2242 55.4417 17.5 59.1439 17.5 62.8827C17.6655 65.9124 18.9614 73.0795 22.8051 78.0419C22.9886 78.2788 23.2737 78.4121 23.5734 78.4121H32V72.4121C32 66.2755 36.0945 61.0951 41.7007 59.4541C39.1992 58.1017 37.5 55.4553 37.5 52.4121C37.5 47.9938 41.0817 44.4121 45.5 44.4121C49.9183 44.4121 53.5 47.9938 53.5 52.4121C53.5 55.4553 51.8008 58.1017 49.2993 59.4541C54.9055 61.0951 59 66.2755 59 72.4121V78.4121ZM56 78.4121V72.4121C56 66.6131 51.299 61.9121 45.5 61.9121C39.701 61.9121 35 66.6131 35 72.4121V78.4121H56ZM45.5 57.4121C48.2614 57.4121 50.5 55.1735 50.5 52.4121C50.5 49.6507 48.2614 47.4121 45.5 47.4121C42.7386 47.4121 40.5 49.6507 40.5 52.4121C40.5 55.1735 42.7386 57.4121 45.5 57.4121Z" fill="white"/>
</svg>
