<svg width="157" height="154" viewBox="0 0 157 154" fill="none" xmlns="http://www.w3.org/2000/svg">
<path d="M2 81V100.5C2 107.5 7.29478 114.5 14 114.5C21.5 114.5 21.6667 108 21.5 106V75.8743C21.5 74.6538 21.157 73.4309 20.2774 72.5849C18.2061 70.5929 14.4885 68.5764 10 70.5C4.4 72.9 2.33333 78.5 2 81Z" stroke="white" stroke-width="4" stroke-linecap="round"/>
<path d="M154.533 81.2764V100.776C154.533 107.776 149.238 114.776 142.533 114.776C135.033 114.776 134.867 108.276 135.033 106.276V76.1506C135.033 74.9302 135.376 73.7072 136.256 72.8613C138.327 70.8693 142.045 68.8527 146.533 70.7764C152.133 73.1764 154.2 78.7764 154.533 81.2764Z" stroke="white" stroke-width="4" stroke-linecap="round"/>
<rect x="82" y="135" width="30" height="17" rx="8.5" stroke="white" stroke-width="4"/>
<path d="M146 70C146 61.0701 144.254 52.2277 140.862 43.9775C137.47 35.7274 132.498 28.2311 126.23 21.9167C119.962 15.6024 112.521 10.5935 104.331 7.17619C96.1416 3.75887 87.3642 2 78.5 2C69.6358 2 60.8583 3.75888 52.6689 7.1762C44.4794 10.5935 37.0382 15.6024 30.7703 21.9167C24.5023 28.2311 19.5303 35.7274 16.1381 43.9775C12.7459 52.2277 11 61.0701 11 70" stroke="white" stroke-width="4"/>
<path d="M145 115.5V121.5C145 134.203 134.703 144.5 122 144.5H112.5" stroke="white" stroke-width="4" stroke-linecap="round"/>
<path d="M49 98.5H58.5H59.8578C60.4626 98.5 60.929 99.0327 60.849 99.6322L59.2165 111.876C58.8328 114.754 62.3533 116.444 64.3592 114.345L79.2046 98.8091C79.3933 98.6117 79.6545 98.5 79.9276 98.5H107.5C110.814 98.5 113.5 95.8137 113.5 92.5V50C113.5 46.6863 110.814 44 107.5 44H49C45.6863 44 43 46.6863 43 50V92.5C43 95.8137 45.6863 98.5 49 98.5Z" stroke="white" stroke-width="4" stroke-linecap="round"/>
<circle cx="79" cy="70" r="4" fill="white"/>
<circle cx="97" cy="70" r="4" fill="white"/>
<circle cx="61" cy="70" r="4" fill="white"/>
</svg>
