<svg width="163" height="163" viewBox="0 0 163 163" fill="none" xmlns="http://www.w3.org/2000/svg">
<path fill-rule="evenodd" clip-rule="evenodd" d="M25.623 8C25.623 5.79086 27.4139 4 29.623 4H132.388C134.598 4 136.388 5.79086 136.388 8V21.0679H25.623V8ZM136.388 94.5884V25.0679H25.623V94.5884C25.623 95.693 24.7276 96.5884 23.623 96.5884C22.5185 96.5884 21.623 95.693 21.623 94.5884V8C21.623 3.58173 25.2048 0 29.623 0H132.388C136.807 0 140.388 3.58172 140.388 8V94.5884C140.388 95.693 139.493 96.5884 138.388 96.5884C137.284 96.5884 136.388 95.693 136.388 94.5884ZM0 23.5238C0 19.1055 3.58173 15.5238 8 15.5238H14.1973C15.3018 15.5238 16.1973 16.4192 16.1973 17.5238C16.1973 18.6284 15.3018 19.5238 14.1973 19.5238H8C5.79086 19.5238 4 21.3147 4 23.5238V103.128L158.565 103.672V23.5238C158.565 21.3147 156.774 19.5238 154.565 19.5238H148.367C147.263 19.5238 146.367 18.6284 146.367 17.5238C146.367 16.4192 147.263 15.5238 148.367 15.5238H154.565C158.983 15.5238 162.565 19.1055 162.565 23.5238V120.745C162.565 125.163 158.983 128.745 154.565 128.745H8C3.58172 128.745 0 125.163 0 120.745V23.5238ZM158.565 107.672L4 107.128V120.745C4 122.954 5.79086 124.745 8 124.745H154.565C156.774 124.745 158.565 122.954 158.565 120.745V107.672ZM73.1837 116.211C73.1837 115.106 74.0791 114.211 75.1837 114.211H88.4898C89.5944 114.211 90.4898 115.106 90.4898 116.211C90.4898 117.315 89.5944 118.211 88.4898 118.211H75.1837C74.0791 118.211 73.1837 117.315 73.1837 116.211ZM93.4805 10.5342C92.3759 10.5342 91.4805 11.4296 91.4805 12.5342C91.4805 13.6387 92.3759 14.5342 93.4805 14.5342H128.963C130.068 14.5342 130.963 13.6387 130.963 12.5342C130.963 11.4296 130.068 10.5342 128.963 10.5342H93.4805ZM90.7784 37.247C91.8274 37.5929 92.3975 38.7236 92.0516 39.7727L75.419 90.2251C75.0731 91.2741 73.9424 91.8441 72.8933 91.4983C71.8443 91.1525 71.2743 90.0217 71.6201 88.9727L88.2527 38.5203C88.5986 37.4713 89.7293 36.9012 90.7784 37.247ZM61.1963 48.9543C61.9034 49.8029 61.7888 51.064 60.9402 51.7711L46.1155 64.1251L60.9697 76.9988C61.8044 77.7222 61.8947 78.9854 61.1712 79.8201C60.4478 80.6548 59.1847 80.745 58.35 80.0216L42.6065 66.3772C41.2086 65.1656 41.2296 62.9898 42.6508 61.8055L58.3795 48.6982C59.2281 47.9911 60.4892 48.1058 61.1963 48.9543ZM103.288 51.2166C102.44 50.5095 102.325 49.2484 103.032 48.3998C103.739 47.5513 105 47.4366 105.849 48.1437L121.578 61.251C122.999 62.4353 123.02 64.6111 121.622 65.8227L105.878 79.4671C105.044 80.1905 103.781 80.1003 103.057 79.2655C102.334 78.4308 102.424 77.1677 103.259 76.4443L118.113 63.5706L103.288 51.2166ZM54.6698 13.0883C54.6698 14.3131 53.6769 15.306 52.4521 15.306C51.2273 15.306 50.2344 14.3131 50.2344 13.0883C50.2344 11.8635 51.2273 10.8706 52.4521 10.8706C53.6769 10.8706 54.6698 11.8635 54.6698 13.0883ZM43.581 15.306C44.8058 15.306 45.7987 14.3131 45.7987 13.0883C45.7987 11.8635 44.8058 10.8706 43.581 10.8706C42.3562 10.8706 41.3633 11.8635 41.3633 13.0883C41.3633 14.3131 42.3562 15.306 43.581 15.306ZM36.9295 13.0883C36.9295 14.3131 35.9366 15.306 34.7118 15.306C33.487 15.306 32.4941 14.3131 32.4941 13.0883C32.4941 11.8635 33.487 10.8706 34.7118 10.8706C35.9366 10.8706 36.9295 11.8635 36.9295 13.0883ZM51.7988 148.031C47.3805 148.031 43.7988 151.612 43.7988 156.031V159.01C43.7988 160.667 45.142 162.01 46.7988 162.01H115.765C117.422 162.01 118.765 160.667 118.765 159.01V156.031C118.765 151.612 115.183 148.031 110.765 148.031H108.169C108.009 147.877 107.82 147.748 107.605 147.652C107.177 147.459 106.504 146.958 105.628 146.069C104.787 145.215 103.884 144.133 102.987 142.952C101.194 140.591 99.5195 137.96 98.5342 136.271C97.9776 135.317 96.753 134.995 95.7989 135.551C94.8448 136.108 94.5225 137.332 95.0791 138.287C96.1267 140.082 97.8897 142.854 99.8018 145.371C100.506 146.298 101.243 147.208 101.984 148.031H61.6901C62.4309 147.208 63.1682 146.298 63.8722 145.371C65.7843 142.854 67.5473 140.083 68.5949 138.287C69.1515 137.333 68.8292 136.108 67.8751 135.551C66.921 134.995 65.6964 135.317 65.1398 136.271C64.1545 137.96 62.4801 140.591 60.6868 142.952C59.7897 144.133 58.8869 145.215 58.046 146.069C57.1703 146.958 56.4971 147.459 56.0686 147.652C55.8543 147.748 55.6652 147.877 55.5047 148.031H51.7988ZM47.7988 156.031C47.7988 153.822 49.5897 152.031 51.7988 152.031H110.765C112.974 152.031 114.765 153.822 114.765 156.031V158.01H47.7988V156.031Z" fill="white"/>
</svg>
