<svg width="147" height="147" viewBox="0 0 147 147" fill="none" xmlns="http://www.w3.org/2000/svg">
<path d="M13 16H8C4.68629 16 2 18.6863 2 22V108.5C2 111.814 4.68629 114.5 8 114.5H139C142.314 114.5 145 111.814 145 108.5V22C145 18.6863 142.314 16 139 16H134" stroke="white" stroke-width="4" stroke-linecap="round"/>
<path d="M68 105H80" stroke="white" stroke-width="4" stroke-linecap="round"/>
<path d="M21.5 85.5V8C21.5 4.68629 24.1863 2 27.5 2H119C122.314 2 125 4.68629 125 8V85.5" stroke="white" stroke-width="4" stroke-linecap="round"/>
<path d="M22 21H124" stroke="white" stroke-width="4" stroke-linecap="round"/>
<path d="M84.5 11.5H116.5" stroke="white" stroke-width="4" stroke-linecap="round"/>
<path d="M81.5 35.5L66.5 81" stroke="white" stroke-width="4" stroke-linecap="round"/>
<path d="M2.5 95L144.5 95.5" stroke="white" stroke-width="4" stroke-linecap="round"/>
<path d="M54 45.5L39.9039 57.2467C39.4302 57.6415 39.4232 58.3668 39.8892 58.7706L54 71" stroke="white" stroke-width="4" stroke-linecap="round"/>
<path d="M94.5 45L108.596 56.7467C109.07 57.1415 109.077 57.8668 108.611 58.2706L94.5 70.5" stroke="white" stroke-width="4" stroke-linecap="round"/>
<circle cx="47.5" cy="12" r="2" fill="white"/>
<circle cx="39.5" cy="12" r="2" fill="white"/>
<circle cx="31.5" cy="12" r="2" fill="white"/>
<path d="M104.5 144.5H42.5C41.9477 144.5 41.5 144.052 41.5 143.5V141.5C41.5 138.186 44.1863 135.5 47.5 135.5H99.5C102.814 135.5 105.5 138.186 105.5 141.5V143.5C105.5 144.052 105.052 144.5 104.5 144.5Z" stroke="white" stroke-width="4" stroke-linecap="round"/>
<path d="M87.5 124C89.3333 127.143 93.7 133.743 96.5 135" stroke="white" stroke-width="4" stroke-linecap="round"/>
<path d="M60.5 124C58.6667 127.143 54.3 133.743 51.5 135" stroke="white" stroke-width="4" stroke-linecap="round"/>
</svg>
