<svg width="129" height="112" viewBox="0 0 129 112" fill="none" xmlns="http://www.w3.org/2000/svg">
<path d="M20 18H5.5C3.84315 18 2.5 19.3431 2.5 21V106.5C2.5 108.157 3.84315 109.5 5.5 109.5H106C107.657 109.5 109 108.157 109 106.5V93.5" stroke="white" stroke-width="4" stroke-linecap="square"/>
<path d="M3 37H20" stroke="white" stroke-width="4" stroke-linecap="square"/>
<path d="M20 20.5L126 21.0048" stroke="white" stroke-width="4" stroke-linecap="square"/>
<path d="M20 89.5V5C20 3.34315 21.3431 2 23 2H123C124.657 2 126 3.34315 126 5V89.5C126 91.1569 124.657 92.5 123 92.5H23C21.3431 92.5 20 91.1569 20 89.5Z" stroke="white" stroke-width="4" stroke-linecap="square"/>
<path d="M32 10.5H36H40" stroke="white" stroke-width="4" stroke-linecap="round"/>
<path d="M49 10.5H57" stroke="white" stroke-width="4" stroke-linecap="round"/>
<path d="M60.8944 46.7889L62.6833 45.8944L60.8944 42.3167L59.1056 43.2111L60.8944 46.7889ZM42 54L41.1056 52.2111L41.0665 55.7688L42 54ZM59.0665 65.2688L60.8353 66.2023L62.7023 62.6647L60.9335 61.7312L59.0665 65.2688ZM59.1056 43.2111L41.1056 52.2111L42.8944 55.7889L60.8944 46.7889L59.1056 43.2111ZM41.0665 55.7688L59.0665 65.2688L60.9335 61.7312L42.9335 52.2312L41.0665 55.7688Z" fill="white"/>
<path d="M85.6056 46.7889L83.8167 45.8944L85.6056 42.3167L87.3944 43.2111L85.6056 46.7889ZM104.5 54L105.394 52.2111L105.434 55.7688L104.5 54ZM87.4335 65.2688L85.6647 66.2023L83.7977 62.6647L85.5665 61.7312L87.4335 65.2688ZM87.3944 43.2111L105.394 52.2111L103.606 55.7889L85.6056 46.7889L87.3944 43.2111ZM105.434 55.7688L87.4335 65.2688L85.5665 61.7312L103.566 52.2312L105.434 55.7688Z" fill="white"/>
<path d="M80.5 39H78H77L66 68H69.5L80.5 39Z" fill="white" stroke="white" stroke-width="0.5" stroke-linecap="square"/>
</svg>
