<svg width="249" height="249" viewBox="0 0 249 249" fill="none" xmlns="http://www.w3.org/2000/svg">
<circle cx="124.5" cy="124.5" r="124.5" fill="#222222"/>
<path d="M80 87H65.5C63.8431 87 62.5 88.3431 62.5 90V175.5C62.5 177.157 63.8431 178.5 65.5 178.5H166C167.657 178.5 169 177.157 169 175.5V162.5" stroke="white" stroke-width="4" stroke-linecap="square"/>
<path d="M63 106H80" stroke="white" stroke-width="4" stroke-linecap="square"/>
<path d="M80 89.5L186 90.0048" stroke="white" stroke-width="4" stroke-linecap="square"/>
<path d="M80 158.5V74C80 72.3431 81.3431 71 83 71H183C184.657 71 186 72.3431 186 74V158.5C186 160.157 184.657 161.5 183 161.5H83C81.3431 161.5 80 160.157 80 158.5Z" stroke="white" stroke-width="4" stroke-linecap="square"/>
<path d="M92 79.5H96H100" stroke="white" stroke-width="4" stroke-linecap="round"/>
<path d="M109 79.5H117" stroke="white" stroke-width="4" stroke-linecap="round"/>
<path d="M120.894 115.789L122.683 114.894L120.894 111.317L119.106 112.211L120.894 115.789ZM102 123L101.106 121.211L101.066 124.769L102 123ZM119.066 134.269L120.835 135.202L122.702 131.665L120.934 130.731L119.066 134.269ZM119.106 112.211L101.106 121.211L102.894 124.789L120.894 115.789L119.106 112.211ZM101.066 124.769L119.066 134.269L120.934 130.731L102.934 121.231L101.066 124.769Z" fill="white"/>
<path d="M145.606 115.789L143.817 114.894L145.606 111.317L147.394 112.211L145.606 115.789ZM164.5 123L165.394 121.211L165.434 124.769L164.5 123ZM147.434 134.269L145.665 135.202L143.798 131.665L145.566 130.731L147.434 134.269ZM147.394 112.211L165.394 121.211L163.606 124.789L145.606 115.789L147.394 112.211ZM165.434 124.769L147.434 134.269L145.566 130.731L163.566 121.231L165.434 124.769Z" fill="white"/>
<path d="M140.5 108H138H137L126 137H129.5L140.5 108Z" fill="white" stroke="white" stroke-width="0.5" stroke-linecap="square"/>
</svg>
