<svg width="114" height="148" viewBox="0 0 114 148" fill="none" xmlns="http://www.w3.org/2000/svg">
<path fill-rule="evenodd" clip-rule="evenodd" d="M4 8C4 5.79086 5.79086 4 8 4H69V20.5C69 24.9183 72.5817 28.5 77 28.5H94V112.578C92.9594 112.649 91.936 113.044 91.0936 113.765L84.8565 107.528C89.3433 101.524 92 94.0721 92 86C92 66.1178 75.8822 50 56 50C36.1177 50 20 66.1178 20 86C20 105.882 36.1177 122 56 122C61.9935 122 67.645 120.535 72.616 117.944L77.6716 123H8C5.79086 123 4 121.209 4 119V34C4 32.8954 3.10457 32 2 32C0.89543 32 0 32.8954 0 34V119C0 123.418 3.58172 127 8 127H78.8724C78.6743 128.49 79.1467 130.053 80.2944 131.2L92.5712 143.466L92.5994 143.495L92.6281 143.522C93.8288 144.675 95.2311 145.605 96.7614 146.255C98.2919 146.904 99.9312 147.266 101.59 147.303C103.251 147.34 104.901 147.051 106.442 146.432C107.984 145.812 109.375 144.879 110.527 143.679C111.678 142.48 112.555 141.052 113.111 139.486C113.667 137.922 113.889 136.261 113.785 134.603C113.681 132.947 113.253 131.324 112.541 129.821C111.836 128.332 110.862 126.979 109.675 125.833L98 114.153V26.5V25.6597L97.3999 25.0716L72.3999 0.571574L71.8166 0H71H8C3.58172 0 0 3.58172 0 8V24.5C0 25.6046 0.89543 26.5 2 26.5C3.10457 26.5 4 25.6046 4 24.5V8ZM82.278 110.606C80.4423 112.566 78.3899 114.32 76.1591 115.831L82.4157 122.087L88.2021 116.531L82.278 110.606ZM91.1018 24.5L73 6.76028V20.5C73 22.7091 74.7909 24.5 77 24.5H91.1018ZM88 86C88 103.673 73.6731 118 56 118C38.3269 118 24 103.673 24 86C24 68.3269 38.3269 54 56 54C73.6731 54 88 68.3269 88 86ZM56 110C69.2548 110 80 99.2548 80 86C80 72.7452 69.2548 62 56 62C42.7452 62 32 72.7452 32 86C32 99.2548 42.7452 110 56 110ZM56 114C71.464 114 84 101.464 84 86C84 70.536 71.464 58 56 58C40.536 58 28 70.536 28 86C28 101.464 40.536 114 56 114ZM95.0495 116.859L106.873 128.687C107.727 129.507 108.425 130.474 108.926 131.533C109.427 132.591 109.722 133.719 109.793 134.854C109.864 135.989 109.711 137.108 109.342 138.147C108.973 139.186 108.395 140.124 107.642 140.909C106.888 141.694 105.974 142.309 104.951 142.72C103.928 143.131 102.816 143.33 101.679 143.304C100.542 143.279 99.4026 143.03 98.3249 142.573C97.2473 142.115 96.2529 141.457 95.3985 140.637L83.1217 128.37C82.7253 127.974 82.7317 127.33 83.1359 126.941L93.6496 116.845C94.0423 116.468 94.6646 116.474 95.0495 116.859Z" fill="white"/>
</svg>
