<svg width="109" height="137" viewBox="0 0 109 137" fill="none" xmlns="http://www.w3.org/2000/svg">
<path d="M13 24.5V8C13 4.68629 15.6863 2 19 2H82M82 2L107 26.5M82 2V20.5C82 23.8137 84.6863 26.5 88 26.5H107M107 26.5V119C107 122.314 104.314 125 101 125H19C15.6863 125 13 122.314 13 119V34" stroke="white" stroke-width="4" stroke-linecap="round"/>
<path d="M13 11H8.95161C5.65686 11 2.97849 13.6568 2.95181 16.9514L2.04898 128.451C2.02199 131.784 4.71608 134.5 8.04878 134.5H63.5" stroke="white" stroke-width="4" stroke-linecap="round"/>
<path d="M32 47.5H89" stroke="white" stroke-width="4" stroke-linecap="round"/>
<path d="M32 63H89" stroke="white" stroke-width="4" stroke-linecap="round"/>
<path d="M32 79H89" stroke="white" stroke-width="4" stroke-linecap="round"/>
<path d="M98 126V129C98 132.314 95.3137 135 92 135H72" stroke="white" stroke-width="4" stroke-linecap="round"/>
</svg>
