<svg width="182" height="201" viewBox="0 0 182 201" fill="none" xmlns="http://www.w3.org/2000/svg">
<path fill-rule="evenodd" clip-rule="evenodd" d="M92.5 28.9661V86.0339C96.5058 86.3068 100.065 88.2065 102.522 91.0776L125.201 77.724L96.1922 28.224C95.0217 28.6241 93.7838 28.8786 92.5 28.9661ZM106 100.5C106 98.3399 105.528 96.2901 104.681 94.4482L127.224 81.175L158.336 134.263C157.465 134.973 156.679 135.783 155.994 136.675L104.713 106.482C105.54 104.658 106 102.633 106 100.5ZM102.572 109.863C100.216 112.647 96.8286 114.53 93 114.923V143H153.215C153.386 142.013 153.657 141.061 154.017 140.154L102.572 109.863ZM161.753 132.183L130.671 79.1455L155.444 64.5593C157.604 67.7844 161.024 70.0944 165 70.7853V131.215C163.867 131.412 162.78 131.74 161.753 132.183ZM153 56.5C153 58.0515 153.244 59.5461 153.695 60.9475L128.648 75.6945L99.7675 26.4137C101.613 25.1304 103.147 23.4291 104.231 21.447L154.284 50.5257C153.459 52.3474 153 54.3701 153 56.5ZM153.077 147H93V172.077C97.7629 172.566 101.843 175.361 104.104 179.327L153.776 150.192C153.428 149.175 153.19 148.106 153.077 147ZM89 143V114.785C85.3432 114.15 82.1565 112.144 79.9878 109.317L27.7172 139.529C28.2113 140.62 28.574 141.784 28.7853 143H89ZM25.5786 136.145L78.0141 105.838C77.3597 104.186 77 102.385 77 100.5C77 98.7036 77.3267 96.9836 77.9238 95.396L53.8714 81.3654L23.1195 133.839C24.026 134.51 24.8515 135.284 25.5786 136.145ZM50.4163 79.3499L19.6053 131.924C18.617 131.552 17.5774 131.285 16.5 131.137V70.8632C20.4269 70.3214 23.8519 68.2071 26.1188 65.1764L50.4163 79.3499ZM52.4388 75.8989L82.0009 25.4556C80.6372 24.2721 79.4966 22.8382 78.6507 21.2255L27.8181 50.7568C28.5786 52.5179 29 54.4597 29 56.5C29 58.3221 28.6639 60.0658 28.0503 61.6723L52.4388 75.8989ZM55.8939 77.9144L85.3578 27.6386C86.3492 28.1029 87.4017 28.4582 88.5 28.6893V86.3107C84.969 87.0536 81.9111 89.0811 79.838 91.8818L55.8939 77.9144ZM28.9234 147H89V172.215C84.3516 173.023 80.4628 176.044 78.4591 180.153L28.137 150.439C28.5324 149.348 28.8005 148.195 28.9234 147ZM77 14.5C77 15.49 77.0992 16.4568 77.2882 17.391L25.7395 47.3383C23.0806 44.0803 19.0332 42 14.5 42C6.49187 42 0 48.4919 0 56.5C0 63.8296 5.43831 69.8889 12.5 70.8632V131.137C5.43831 132.111 0 138.17 0 145.5C0 153.508 6.49187 160 14.5 160C19.3426 160 23.6307 157.626 26.2641 153.979L77.2048 184.058C77.0701 184.852 77 185.668 77 186.5C77 194.508 83.4919 201 91.5 201C99.5081 201 106 194.508 106 186.5C106 185.325 105.86 184.183 105.597 183.089L155.587 153.768C158.205 157.534 162.565 160 167.5 160C175.508 160 182 153.508 182 145.5C182 137.998 176.303 131.827 169 131.077V70.9234C176.303 70.1728 182 64.0016 182 56.5C182 48.4919 175.508 42 167.5 42C163.058 42 159.083 43.9971 156.423 47.1424L105.657 17.6496C105.882 16.6356 106 15.5816 106 14.5C106 6.49187 99.5081 0 91.5 0C83.4919 0 77 6.49187 77 14.5ZM91.5 25C97.299 25 102 20.299 102 14.5C102 8.70101 97.299 4 91.5 4C85.701 4 81 8.70101 81 14.5C81 20.299 85.701 25 91.5 25ZM25 56.5C25 62.299 20.299 67 14.5 67C8.70101 67 4 62.299 4 56.5C4 50.701 8.70101 46 14.5 46C20.299 46 25 50.701 25 56.5ZM102 100.5C102 106.299 97.299 111 91.5 111C85.701 111 81 106.299 81 100.5C81 94.701 85.701 90 91.5 90C97.299 90 102 94.701 102 100.5ZM167.5 156C173.299 156 178 151.299 178 145.5C178 139.701 173.299 135 167.5 135C161.701 135 157 139.701 157 145.5C157 151.299 161.701 156 167.5 156ZM178 56.5C178 62.299 173.299 67 167.5 67C161.701 67 157 62.299 157 56.5C157 50.701 161.701 46 167.5 46C173.299 46 178 50.701 178 56.5ZM14.5 156C20.299 156 25 151.299 25 145.5C25 139.701 20.299 135 14.5 135C8.70101 135 4 139.701 4 145.5C4 151.299 8.70101 156 14.5 156ZM102 186.5C102 192.299 97.299 197 91.5 197C85.701 197 81 192.299 81 186.5C81 180.701 85.701 176 91.5 176C97.299 176 102 180.701 102 186.5Z" fill="white"/>
</svg>
