<svg width="82" height="156" viewBox="0 0 82 156" fill="none" xmlns="http://www.w3.org/2000/svg">
<path fill-rule="evenodd" clip-rule="evenodd" d="M26.6279 0C24.1668 0 21.7231 0.393556 19.4335 1.1641C17.1442 1.93456 15.0411 3.07131 13.252 4.52496C11.4624 5.97906 10.0152 7.72776 9.01746 9.68493C8.01852 11.6444 7.49512 13.7647 7.49512 15.9204V33.1953H7C3.13401 33.1953 0 36.3293 0 40.1953V78.3813C0 82.2473 3.134 85.3813 7 85.3813H8.64137C9.74594 85.3813 10.6414 84.4859 10.6414 83.3813C10.6414 82.2768 9.74594 81.3813 8.64137 81.3813H7C5.34314 81.3813 4 80.0382 4 78.3813V40.1953C4 38.5385 5.34314 37.1953 7 37.1953H46.2568C47.9137 37.1953 49.2568 38.5385 49.2568 40.1953V68.2532C49.2568 69.3577 50.1523 70.2532 51.2568 70.2532C52.3614 70.2532 53.2568 69.3577 53.2568 68.2532V40.1953C53.2568 36.3293 50.1228 33.1953 46.2568 33.1953H45.7607V15.9204C45.7607 13.7647 45.2373 11.6444 44.2384 9.68493C43.2406 7.72776 41.7935 5.97906 40.0038 4.52496C38.2147 3.07131 36.1116 1.93456 33.8223 1.1641C31.5328 0.393556 29.0891 0 26.6279 0ZM41.7607 33.1953V15.9204C41.7607 14.42 41.3978 12.92 40.6748 11.5017C39.9505 10.081 38.8737 8.76058 37.4815 7.62942C36.0887 6.49782 34.4144 5.58383 32.5464 4.95516C30.6787 4.32657 28.6666 4 26.6279 4C24.5892 4 22.5772 4.32657 20.7094 4.95516C18.8414 5.58383 17.1671 6.49782 15.7744 7.62942C14.3822 8.76058 13.3053 10.081 12.5811 11.5017C11.858 12.92 11.4951 14.42 11.4951 15.9204V33.1953H41.7607Z" fill="white"/>
<path fill-rule="evenodd" clip-rule="evenodd" d="M26.6692 51.3984C21.4072 51.3984 17.1576 55.6944 17.2148 60.9561L17.5997 96.3623L16.8481 95.3186C13.9312 91.2679 8.29504 90.3242 4.21781 93.204C0.114058 96.1024 -0.863019 101.779 2.03544 105.883L7.02926 112.953L7.03314 112.959L19.6034 130.63C20.0851 131.307 20.3439 132.117 20.3439 132.948V137.527C20.3439 138.691 21.0067 139.7 21.9754 140.198C21.7061 140.812 21.5566 141.491 21.5566 142.204V150.912C21.5566 153.674 23.7952 155.912 26.5566 155.912H70.6011C73.3625 155.912 75.6011 153.674 75.6011 150.912V142.204C75.6011 141.389 75.4062 140.62 75.0606 139.941C75.7991 139.394 76.2779 138.517 76.2779 137.527L76.2779 132.694C76.2779 131.969 76.475 131.257 76.848 130.636L79.9565 125.455C80.7025 124.212 81.0965 122.789 81.0965 121.339L81.0965 104.82L81.0967 104.796V95.1587C81.0967 89.9144 76.8454 85.6631 71.6011 85.6631C69.5164 85.6631 67.5887 86.3349 66.0225 87.4737C65.4057 82.8256 61.4266 79.2393 56.6099 79.2393C54.3322 79.2393 52.2419 80.0412 50.6058 81.378C49.3284 77.6422 45.7872 74.9561 41.6186 74.9561C39.5711 74.9561 37.6749 75.6041 36.124 76.7063V60.8533C36.124 55.6315 31.8909 51.3984 26.6692 51.3984ZM18.0439 103.824C18.5589 104.54 19.4589 104.814 20.2569 104.567C21.0822 104.313 21.678 103.541 21.6681 102.634L21.2146 60.9126C21.1816 57.8769 23.6333 55.3984 26.6692 55.3984C29.6818 55.3984 32.124 57.8407 32.124 60.8533V83.9895H32.1341C32.1268 84.1426 32.123 84.2967 32.123 84.4517V99.4429C32.123 100.547 33.0185 101.443 34.123 101.443C35.2276 101.443 36.123 100.547 36.123 99.4429V84.4517C36.123 81.4165 38.5835 78.9561 41.6186 78.9561C44.6538 78.9561 47.1143 81.4165 47.1143 84.4517L47.1143 100.514C47.1143 101.618 48.0097 102.514 49.1143 102.514C50.2188 102.514 51.1143 101.618 51.1143 100.514V88.7349C51.1143 85.6997 53.5747 83.2393 56.6099 83.2393C59.645 83.2393 62.1055 85.6997 62.1055 88.7349L62.1055 104.796C62.1055 105.9 63.0009 106.796 64.1055 106.796C65.21 106.796 66.1055 105.9 66.1055 104.796V95.1587C66.1055 92.1236 68.5659 89.6631 71.6011 89.6631C74.6362 89.6631 77.0967 92.1236 77.0967 95.1587V104.774L77.0965 104.797L77.0965 121.339C77.0965 122.064 76.8995 122.775 76.5265 123.397L73.418 128.578C72.672 129.821 72.2779 131.244 72.2779 132.694L72.2779 136.527H24.3439L24.3439 132.948C24.3439 131.286 23.8262 129.665 22.8628 128.311L10.2965 110.645L5.30267 103.575C3.67869 101.276 4.22614 98.0952 6.52544 96.4712C8.80989 94.8577 11.9678 95.3864 13.6021 97.656L18.0439 103.824ZM25.5566 142.204C25.5566 141.652 26.0044 141.204 26.5566 141.204H70.6011C71.1534 141.204 71.6011 141.652 71.6011 142.204V150.912C71.6011 151.464 71.1534 151.912 70.6011 151.912H26.5566C26.0044 151.912 25.5566 151.464 25.5566 150.912V142.204Z" fill="white"/>
</svg>
