<svg width="163" height="163" viewBox="0 0 163 163" fill="none" xmlns="http://www.w3.org/2000/svg">
<path fill-rule="evenodd" clip-rule="evenodd" d="M8 0.912109H155C159.418 0.912109 163 4.49383 163 8.91211V23.9121V154.912C163 159.33 159.418 162.912 155 162.912H8C3.58172 162.912 0 159.33 0 154.912V8.91211C0 4.49383 3.58172 0.912109 8 0.912109ZM160 8.91211V22.4121H3V8.91211C3 6.15068 5.23858 3.91211 8 3.91211H155C157.761 3.91211 160 6.15069 160 8.91211ZM160 25.4121H3V154.912C3 157.674 5.23857 159.912 8 159.912H155C157.761 159.912 160 157.674 160 154.912V25.4121ZM69.5 12.4121C68.6716 12.4121 68 13.0837 68 13.9121C68 14.7405 68.6716 15.4121 69.5 15.4121H137C137.828 15.4121 138.5 14.7405 138.5 13.9121C138.5 13.0837 137.828 12.4121 137 12.4121H69.5ZM144.5 13.9121C144.5 13.0837 145.172 12.4121 146 12.4121H151C151.828 12.4121 152.5 13.0837 152.5 13.9121C152.5 14.7405 151.828 15.4121 151 15.4121H146C145.172 15.4121 144.5 14.7405 144.5 13.9121ZM11 12.4121C10.1716 12.4121 9.5 13.0837 9.5 13.9121C9.5 14.7405 10.1716 15.4121 11 15.4121H16C16.8284 15.4121 17.5 14.7405 17.5 13.9121C17.5 13.0837 16.8284 12.4121 16 12.4121H11ZM22.5 13.9121C22.5 13.0837 23.1716 12.4121 24 12.4121H29C29.8284 12.4121 30.5 13.0837 30.5 13.9121C30.5 14.7405 29.8284 15.4121 29 15.4121H24C23.1716 15.4121 22.5 14.7405 22.5 13.9121ZM37 12.4121C36.1716 12.4121 35.5 13.0837 35.5 13.9121C35.5 14.7405 36.1716 15.4121 37 15.4121H42C42.8284 15.4121 43.5 14.7405 43.5 13.9121C43.5 13.0837 42.8284 12.4121 42 12.4121H37ZM22 38.9121H94C97.3137 38.9121 100 41.5984 100 44.9121V92.9121C100 96.2258 97.3137 98.9121 94 98.9121H22C18.6863 98.9121 16 96.2258 16 92.9121V44.9121C16 41.5984 18.6863 38.9121 22 38.9121ZM22 41.9121C20.3431 41.9121 19 43.2553 19 44.9121V92.2079L38.7519 62.5801C39.0271 62.1673 39.4885 61.9173 39.9845 61.9122C40.4805 61.9071 40.947 62.1475 41.2306 62.5544L52.4827 78.6987L69.5083 51.1241C69.7809 50.6826 70.2622 50.4134 70.781 50.4121C71.2998 50.4109 71.7824 50.6778 72.0571 51.1179L97 91.0792V44.9121C97 43.2553 95.6569 41.9121 94 41.9121H22ZM96.0021 95.1463L95.7275 94.7064L70.7915 54.7561L45.3803 95.9121H94C94.7694 95.9121 95.4711 95.6225 96.0021 95.1463ZM41.8546 95.9121L50.765 81.4808L50.2694 80.7698L40.0275 66.075L20.4311 95.4697C20.8875 95.7503 21.4249 95.9121 22 95.9121H41.8546ZM47 109.912H23C19.6863 109.912 17 112.598 17 115.912V139.912C17 143.226 19.6863 145.912 23 145.912H47C50.3137 145.912 53 143.226 53 139.912V115.912C53 112.598 50.3137 109.912 47 109.912ZM20 115.912C20 114.255 21.3431 112.912 23 112.912H47C48.6569 112.912 50 114.255 50 115.912V139.912C50 141.569 48.6569 142.912 47 142.912H23C21.3431 142.912 20 141.569 20 139.912V115.912ZM70 109.912H94C97.3137 109.912 100 112.598 100 115.912V139.912C100 143.226 97.3137 145.912 94 145.912H70C66.6863 145.912 64 143.226 64 139.912V115.912C64 112.598 66.6863 109.912 70 109.912ZM70 112.912C68.3431 112.912 67 114.255 67 115.912V139.912C67 141.569 68.3431 142.912 70 142.912H94C95.6569 142.912 97 141.569 97 139.912V115.912C97 114.255 95.6569 112.912 94 112.912H70ZM111 50.4121C110.172 50.4121 109.5 51.0837 109.5 51.9121C109.5 52.7405 110.172 53.4121 111 53.4121H145.5C146.328 53.4121 147 52.7405 147 51.9121C147 51.0837 146.328 50.4121 145.5 50.4121H111ZM109.5 62.9121C109.5 62.0837 110.172 61.4121 111 61.4121H145.5C146.328 61.4121 147 62.0837 147 62.9121C147 63.7405 146.328 64.4121 145.5 64.4121H111C110.172 64.4121 109.5 63.7405 109.5 62.9121ZM111 72.4121C110.172 72.4121 109.5 73.0837 109.5 73.9121C109.5 74.7405 110.172 75.4121 111 75.4121H145.5C146.328 75.4121 147 74.7405 147 73.9121C147 73.0837 146.328 72.4121 145.5 72.4121H111ZM109.5 84.9121C109.5 84.0837 110.172 83.4121 111 83.4121H145.5C146.328 83.4121 147 84.0837 147 84.9121C147 85.7405 146.328 86.4121 145.5 86.4121H111C110.172 86.4121 109.5 85.7405 109.5 84.9121ZM111 93.4121C110.172 93.4121 109.5 94.0837 109.5 94.9121C109.5 95.7405 110.172 96.4121 111 96.4121H132C132.828 96.4121 133.5 95.7405 133.5 94.9121C133.5 94.0837 132.828 93.4121 132 93.4121H111ZM123.5 41.9121C123.5 41.0837 124.172 40.4121 125 40.4121H146C146.828 40.4121 147.5 41.0837 147.5 41.9121C147.5 42.7405 146.828 43.4121 146 43.4121H125C124.172 43.4121 123.5 42.7405 123.5 41.9121ZM111 40.4121C110.172 40.4121 109.5 41.0837 109.5 41.9121C109.5 42.7405 110.172 43.4121 111 43.4121H116C116.828 43.4121 117.5 42.7405 117.5 41.9121C117.5 41.0837 116.828 40.4121 116 40.4121H111ZM139.5 94.9121C139.5 94.0837 140.172 93.4121 141 93.4121H146C146.828 93.4121 147.5 94.0837 147.5 94.9121C147.5 95.7405 146.828 96.4121 146 96.4121H141C140.172 96.4121 139.5 95.7405 139.5 94.9121ZM140 109.912H116C112.686 109.912 110 112.598 110 115.912V139.912C110 143.226 112.686 145.912 116 145.912H140C143.314 145.912 146 143.226 146 139.912V115.912C146 112.598 143.314 109.912 140 109.912ZM113 115.912C113 114.255 114.343 112.912 116 112.912H140C141.657 112.912 143 114.255 143 115.912V139.912C143 141.569 141.657 142.912 140 142.912H116C114.343 142.912 113 141.569 113 139.912V115.912Z" fill="white"/>
</svg>
