<svg width="107" height="101" viewBox="0 0 107 101" fill="none" xmlns="http://www.w3.org/2000/svg">
<path d="M55 11C55 10.1716 55.6716 9.5 56.5 9.5H95C95.8284 9.5 96.5 10.1716 96.5 11C96.5 11.8284 95.8284 12.5 95 12.5H56.5C55.6716 12.5 55 11.8284 55 11Z" fill="white"/>
<path fill-rule="evenodd" clip-rule="evenodd" d="M32 50C31.924 50 31.8493 49.9943 31.7763 49.9834C31.2914 51.5463 30.0606 52.781 28.5 53.2711V57.5C28.5 59.9853 30.5147 62 33 62H46.2289C46.7686 60.2817 48.2108 58.9632 50 58.6V55.5C50 54.1193 51.1193 53 52.5 53H70.5C71.8807 53 73 54.1193 73 55.5V60.5C73 61.3284 72.3284 62 71.5 62C70.6716 62 70 61.3284 70 60.5V56H53V58.916C54.7659 59.6876 56 61.4497 56 63.5C56 65.5503 54.7659 67.3124 53 68.084V72H57.5C57.5554 72 57.61 72.003 57.6638 72.0088C58.5271 70.5095 60.1456 69.5 62 69.5C63.8507 69.5 65.4666 70.5055 66.3311 72H70V67C70 66.1716 70.6716 65.5 71.5 65.5C72.3284 65.5 73 66.1716 73 67V72.5C73 73.8807 71.8807 75 70.5 75H66.9753C66.7517 77.2517 65.0343 79.064 62.8281 79.4317C62.1861 82.0541 59.8203 84 57 84H39.3311C38.7107 85.0725 37.7034 85.8931 36.5 86.2711V90.5C36.5 91.8807 35.3807 93 34 93H16C14.6193 93 13.5 91.8807 13.5 90.5V72.5C13.5 71.1193 14.6193 70 16 70H34C35.3807 70 36.5 71.1193 36.5 72.5V76.5C36.5 76.576 36.4943 76.6507 36.4834 76.7237C38.3674 77.3082 39.7744 78.9767 39.9753 81H57C58.3045 81 59.4145 80.1674 59.8276 79.0047C58.2967 78.2651 57.2002 76.768 57.0247 75H52.5C51.1193 75 50 73.8807 50 72.5V68.4C48.2108 68.0368 46.7686 66.7182 46.2289 65H33C28.8579 65 25.5 61.6421 25.5 57.5V53.2711C23.945 52.7827 22.7173 51.555 22.2289 50H18C16.6193 50 15.5 48.8807 15.5 47.5V29.5C15.5 28.1193 16.6193 27 18 27H36C37.3807 27 38.5 28.1193 38.5 29.5V32.7289C40.2183 33.2686 41.5368 34.7108 41.9 36.5H67.1C67.4632 34.7108 68.7818 33.2686 70.5 32.7289V29C70.5 27.6193 71.6193 26.5 73 26.5H91C92.3807 26.5 93.5 27.6193 93.5 29V46C93.5 47.3807 92.3807 48.5 91 48.5H73C71.6193 48.5 70.5 47.3807 70.5 46V42.2711C69.1158 41.8363 67.9909 40.8158 67.416 39.5H41.584C41.0091 40.8158 39.8842 41.8363 38.5 42.2711V47.5C38.5 48.8807 37.3807 50 36 50H32ZM18.5 47V30H35.5V32.7289C33.4714 33.366 32 35.2612 32 37.5C32 39.7388 33.4714 41.634 35.5 42.2711V47H32C31.924 47 31.8493 47.0057 31.7763 47.0166C31.1443 44.9795 29.2449 43.5 27 43.5C24.7612 43.5 22.866 44.9714 22.2289 47H18.5ZM51 65.5C49.8954 65.5 49 64.6046 49 63.5C49 62.3954 49.8954 61.5 51 61.5C52.1046 61.5 53 62.3954 53 63.5C53 64.6046 52.1046 65.5 51 65.5ZM29 48.5C29 49.6046 28.1046 50.5 27 50.5C25.8954 50.5 25 49.6046 25 48.5C25 47.3954 25.8954 46.5 27 46.5C28.1046 46.5 29 47.3954 29 48.5ZM16.5 73V90H33.5V86.2711C31.4714 85.634 30 83.7388 30 81.5C30 79.2551 31.4795 77.3557 33.5166 76.7237C33.5057 76.6507 33.5 76.576 33.5 76.5V73H16.5ZM37 39.5C38.1046 39.5 39 38.6046 39 37.5C39 36.3954 38.1046 35.5 37 35.5C35.8954 35.5 35 36.3954 35 37.5C35 38.6046 35.8954 39.5 37 39.5ZM73.5 42.2711C75.5285 41.634 77 39.7388 77 37.5C77 35.2612 75.5285 33.366 73.5 32.7289V29.5H90.5V45.5H73.5V42.2711ZM72 35.5C70.8954 35.5 70 36.3954 70 37.5C70 38.6046 70.8954 39.5 72 39.5C73.1046 39.5 74 38.6046 74 37.5C74 36.3954 73.1046 35.5 72 35.5ZM62 76.5C63.1046 76.5 64 75.6046 64 74.5C64 73.3954 63.1046 72.5 62 72.5C60.8954 72.5 60 73.3954 60 74.5C60 75.6046 60.8954 76.5 62 76.5ZM35 83.5C36.1046 83.5 37 82.6046 37 81.5C37 80.3954 36.1046 79.5 35 79.5C33.8954 79.5 33 80.3954 33 81.5C33 82.6046 33.8954 83.5 35 83.5Z" fill="white"/>
<path fill-rule="evenodd" clip-rule="evenodd" d="M14 15.5C16.7614 15.5 19 13.2614 19 10.5C19 7.73858 16.7614 5.5 14 5.5C11.2386 5.5 9 7.73858 9 10.5C9 13.2614 11.2386 15.5 14 15.5ZM16 10.5C16 11.6046 15.1046 12.5 14 12.5C12.8954 12.5 12 11.6046 12 10.5C12 9.39543 12.8954 8.5 14 8.5C15.1046 8.5 16 9.39543 16 10.5Z" fill="white"/>
<path fill-rule="evenodd" clip-rule="evenodd" d="M32 10.5C32 13.2614 29.7614 15.5 27 15.5C24.2386 15.5 22 13.2614 22 10.5C22 7.73858 24.2386 5.5 27 5.5C29.7614 5.5 32 7.73858 32 10.5ZM27 12.5C28.1046 12.5 29 11.6046 29 10.5C29 9.39543 28.1046 8.5 27 8.5C25.8954 8.5 25 9.39543 25 10.5C25 11.6046 25.8954 12.5 27 12.5Z" fill="white"/>
<path fill-rule="evenodd" clip-rule="evenodd" d="M40 15.5C42.7614 15.5 45 13.2614 45 10.5C45 7.73858 42.7614 5.5 40 5.5C37.2386 5.5 35 7.73858 35 10.5C35 13.2614 37.2386 15.5 40 15.5ZM42 10.5C42 11.6046 41.1046 12.5 40 12.5C38.8954 12.5 38 11.6046 38 10.5C38 9.39543 38.8954 8.5 40 8.5C41.1046 8.5 42 9.39543 42 10.5Z" fill="white"/>
<path fill-rule="evenodd" clip-rule="evenodd" d="M8 0.5H99C103.418 0.5 107 4.08172 107 8.5V92.5C107 96.9183 103.418 100.5 99 100.5H8C3.58172 100.5 0 96.9183 0 92.5V8.5C0 4.08172 3.58172 0.5 8 0.5ZM8 3.5C5.23858 3.5 3 5.73858 3 8.5V18.5H11.5C12.3284 18.5 13 19.1716 13 20C13 20.8284 12.3284 21.5 11.5 21.5H3V92.5C3 95.2614 5.23857 97.5 8 97.5H99C101.761 97.5 104 95.2614 104 92.5V21.5H18C17.1716 21.5 16.5 20.8284 16.5 20C16.5 19.1716 17.1716 18.5 18 18.5H104V8.5C104 5.73858 101.761 3.5 99 3.5H8Z" fill="white"/>
</svg>
