<svg width="58" height="66" viewBox="0 0 58 66" fill="none" xmlns="http://www.w3.org/2000/svg">
<path d="M2.93164 53.4482V30.0035C2.93164 27.2805 4.04202 24.6753 6.00632 22.7896L23.3053 6.18261C25.1676 4.39482 27.6491 3.39648 30.2306 3.39648H46.0006C51.5235 3.39648 56.0006 7.87363 56.0006 13.3965V53.4482C56.0006 58.9711 51.5235 63.4482 46.0006 63.4482H12.9316C7.40879 63.4482 2.93164 58.9711 2.93164 53.4482Z" stroke="white" stroke-width="4" stroke-linecap="round"/>
<path d="M4.79297 13.1719L9.91366 18.7581" stroke="white" stroke-width="4" stroke-linecap="round"/>
<path d="M12.707 4.32812L17.8277 9.44881" stroke="white" stroke-width="4" stroke-linecap="round"/>
<path d="M2 14.1034L14.1034 2" stroke="white" stroke-width="4" stroke-linecap="round"/>
<path d="M25.1719 13.2165L18.847 18.8756C18.163 19.4876 18.5959 20.6208 19.5138 20.6208H45.293C46.6896 20.4657 49.0172 19.2243 49.0172 16.4312C49.0172 13.4287 46.0689 12.707 44.8275 12.707H26.5054C26.0134 12.707 25.5386 12.8884 25.1719 13.2165Z" stroke="white" stroke-width="4" stroke-linecap="round"/>
<path d="M18.293 28.5352L44.8275 55.0696" stroke="white" stroke-width="4" stroke-linecap="round"/>
<path d="M44.8271 28.5352L18.2927 55.0696" stroke="white" stroke-width="4" stroke-linecap="round"/>
</svg>
