<svg width="112" height="96" viewBox="0 0 112 96" fill="none" xmlns="http://www.w3.org/2000/svg">
<path d="M14.9997 9C13.8952 9 12.9997 9.89543 12.9997 11C12.9997 12.1046 13.8952 13 14.9997 13H22.9997C24.1043 13 24.9997 12.1046 24.9997 11C24.9997 9.89543 24.1043 9 22.9997 9H14.9997Z" fill="white"/>
<path d="M29.9997 11C29.9997 9.89543 30.8952 9 31.9997 9H39.9997C41.1043 9 41.9997 9.89543 41.9997 11C41.9997 12.1046 41.1043 13 39.9997 13H31.9997C30.8952 13 29.9997 12.1046 29.9997 11Z" fill="white"/>
<path d="M45.683 46.3944L43.8942 42.8167L24.1053 52.7111L24.0662 56.2688L43.835 66.7023L45.702 63.1647L29.3757 54.5481L45.683 46.3944Z" fill="white"/>
<path d="M66.8165 46.3944L83.1238 54.5481L66.7974 63.1647L68.6645 66.7023L88.4333 56.2688L88.3942 52.7111L68.6053 42.8167L66.8165 46.3944Z" fill="white"/>
<path d="M63.4997 39.5L52.4997 68.5H48.9997L59.9997 39.5H63.4997Z" fill="white"/>
<path fill-rule="evenodd" clip-rule="evenodd" d="M0.990234 22.9905L0.999735 20.9952V5.5C0.999735 2.73858 3.23831 0.5 5.99974 0.5H106C108.761 0.5 111 2.73858 111 5.5V19.5143L111.009 19.5143L111 21.5055V90C111 92.7614 108.761 95 106 95H5.99974C3.23831 95 0.999735 92.7614 0.999735 90V22.9905L0.990234 22.9905ZM5.99974 4.5C5.44745 4.5 4.99974 4.94772 4.99974 5.5V19.0095L107 19.4952V5.5C107 4.94772 106.552 4.5 106 4.5H5.99974ZM107 90V23.4953L4.99974 23.0095V90C4.99974 90.5523 5.44745 91 5.99974 91H106C106.552 91 107 90.5523 107 90Z" fill="white"/>
<path d="M14.9997 9C13.8952 9 12.9997 9.89543 12.9997 11C12.9997 12.1046 13.8952 13 14.9997 13H22.9997C24.1043 13 24.9997 12.1046 24.9997 11C24.9997 9.89543 24.1043 9 22.9997 9H14.9997Z" stroke="white" stroke-width="0.5" stroke-linecap="square"/>
<path d="M29.9997 11C29.9997 9.89543 30.8952 9 31.9997 9H39.9997C41.1043 9 41.9997 9.89543 41.9997 11C41.9997 12.1046 41.1043 13 39.9997 13H31.9997C30.8952 13 29.9997 12.1046 29.9997 11Z" stroke="white" stroke-width="0.5" stroke-linecap="square"/>
<path d="M45.683 46.3944L43.8942 42.8167L24.1053 52.7111L24.0662 56.2688L43.835 66.7023L45.702 63.1647L29.3757 54.5481L45.683 46.3944Z" stroke="white" stroke-width="0.5" stroke-linecap="square"/>
<path d="M66.8165 46.3944L83.1238 54.5481L66.7974 63.1647L68.6645 66.7023L88.4333 56.2688L88.3942 52.7111L68.6053 42.8167L66.8165 46.3944Z" stroke="white" stroke-width="0.5" stroke-linecap="square"/>
<path d="M63.4997 39.5L52.4997 68.5H48.9997L59.9997 39.5H63.4997Z" stroke="white" stroke-width="0.5" stroke-linecap="square"/>
<path fill-rule="evenodd" clip-rule="evenodd" d="M0.990234 22.9905L0.999735 20.9952V5.5C0.999735 2.73858 3.23831 0.5 5.99974 0.5H106C108.761 0.5 111 2.73858 111 5.5V19.5143L111.009 19.5143L111 21.5055V90C111 92.7614 108.761 95 106 95H5.99974C3.23831 95 0.999735 92.7614 0.999735 90V22.9905L0.990234 22.9905ZM5.99974 4.5C5.44745 4.5 4.99974 4.94772 4.99974 5.5V19.0095L107 19.4952V5.5C107 4.94772 106.552 4.5 106 4.5H5.99974ZM107 90V23.4953L4.99974 23.0095V90C4.99974 90.5523 5.44745 91 5.99974 91H106C106.552 91 107 90.5523 107 90Z" stroke="white" stroke-width="0.5" stroke-linecap="square"/>
</svg>
