<svg width="56" height="44" viewBox="0 0 56 44" fill="none" xmlns="http://www.w3.org/2000/svg">
<rect x="14.5" y="0.5" width="27" height="43" stroke="white"/>
<path d="M41 1L14.5 43.5L1 22L14.5 0.5" stroke="white" stroke-linejoin="bevel"/>
<path d="M14.5 0.5L14.7344 0.0583716L14.0766 0.765884L14.5 0.5ZM41.5 43.5L41.2656 43.9416L41.9234 43.7659L41.5 43.5ZM55 22L55.4234 22.2659L55.5904 22L55.4234 21.7341L55 22ZM41.5 0.5L41.9234 0.234116L41.2656 0.0583716L41.5 0.5ZM1 22L0.765555 21.5584V22.4416L1 22ZM14.0766 0.765884L41.0766 43.7659L41.9234 43.2341L14.9234 0.234116L14.0766 0.765884ZM41.9234 43.7659L55.4234 22.2659L54.5766 21.7341L41.0766 43.2341L41.9234 43.7659ZM55.4234 21.7341L41.9234 0.234116L41.0766 0.765884L54.5766 22.2659L55.4234 21.7341ZM1 22.5H55V21.5H1V22.5ZM41.7344 43.0584L1.23444 21.5584L0.765555 22.4416L41.2656 43.9416L41.7344 43.0584ZM1.23444 22.4416L41.7344 0.941628L41.2656 0.0583716L0.765555 21.5584L1.23444 22.4416ZM55.2344 21.5584L14.7344 0.0583716L14.2656 0.941628L54.7656 22.4416L55.2344 21.5584ZM14.7344 43.9416L55.2344 22.4416L54.7656 21.5584L14.2656 43.0584L14.7344 43.9416Z" fill="white"/>
</svg>
