<svg width="172" height="171" viewBox="0 0 172 171" fill="none" xmlns="http://www.w3.org/2000/svg">
<path fill-rule="evenodd" clip-rule="evenodd" d="M141.389 1.76814C139.241 -0.379741 135.759 -0.379748 133.611 1.76814L126.441 8.93775L126.439 8.93971L126.437 8.94167L99.84 35.5391C99.7307 35.5138 99.6169 35.5004 99.5 35.5004H20.5V10.968C20.5 9.63363 19.4271 8.47373 18.0131 8.49018C7.63461 8.61085 2.56941 15.8091 0.741312 21.0274C0.0882655 22.8915 0 24.8292 0 26.5681V134.001C0 143.666 7.83502 151.501 17.5 151.501H98.6087L82.4306 167.949C82.0068 168.379 81.8829 169.023 82.1166 169.58C82.3502 170.138 82.8956 170.5 83.5 170.5H170C170.828 170.5 171.5 169.829 171.5 169V83.0004C171.5 82.3964 171.138 81.8514 170.581 81.6174C170.024 81.3835 169.381 81.5064 168.95 81.9292L158.5 92.1722V38.0004C158.5 36.6197 157.381 35.5004 156 35.5004H135.249L151.255 19.3858C153.39 17.2358 153.385 13.7636 151.242 11.6209L141.389 1.76814ZM132.285 38.485L80.5642 90.5574C80.4052 90.7176 80.2121 90.8397 79.9992 90.9149L58.5069 98.5004H114.5C115.328 98.5004 116 99.1719 116 100C116 100.829 115.328 101.5 114.5 101.5H42.5C41.6716 101.5 41 100.829 41 100C41 99.1719 41.6716 98.5004 42.5 98.5004H52.5C52.4999 98.3181 52.5331 98.1343 52.6015 97.9581L62.1015 73.4581C62.1807 73.2537 62.3038 73.0691 62.4621 72.9174L74.4621 61.4174C75.0603 60.8442 76.0098 60.8644 76.583 61.4625C77.1562 62.0606 77.136 63.0102 76.5379 63.5834L65.6618 74.0062L79.4797 87.3923L132.694 33.8158L119.25 20.3717L83.0607 56.561C82.4749 57.1468 81.5251 57.1468 80.9393 56.561C80.3536 55.9752 80.3536 55.0255 80.9393 54.4397L96.8787 38.5004H20.5V90.0004H17.5V37.0004V11.5043C9.20381 11.842 5.12205 17.5964 3.5726 22.0192C3.09596 23.3798 3 24.8902 3 26.5681V124.2C6.14632 119.554 11.4666 116.501 17.5 116.501V97.5008C17.5 96.6724 18.1716 96.0008 19 96.0008C19.8284 96.0008 20.5 96.6724 20.5 97.5008V117.436C20.5 118.577 19.5757 119.501 18.4355 119.501H17.5C9.49187 119.501 3 125.993 3 134.001C3 142.009 9.49187 148.501 17.5 148.501H101.56L112.431 137.449C113.012 136.858 113.961 136.85 114.552 137.431C115.142 138.012 115.15 138.962 114.569 139.552L87.0794 167.5H168.5V153.5H163C162.172 153.5 161.5 152.829 161.5 152C161.5 151.172 162.172 150.5 163 150.5H168.5V141.5H163.5C162.672 141.5 162 140.829 162 140C162 139.172 162.672 138.5 163.5 138.5H168.5V128.5H163.5C162.672 128.5 162 127.829 162 127C162 126.172 162.672 125.5 163.5 125.5H168.5V114.5H163.5C162.672 114.5 162 113.829 162 113C162 112.172 162.672 111.5 163.5 111.5H168.5V86.5711L120.55 133.572C119.958 134.151 119.009 134.142 118.429 133.55C117.849 132.959 117.858 132.009 118.45 131.429L155.593 95.0216C155.533 94.8593 155.5 94.6837 155.5 94.5004V38.5004H132.5C132.427 38.5004 132.355 38.4951 132.285 38.485ZM134.808 31.6873L140.916 25.5379L127.5 12.1217L121.371 18.2504L134.808 31.6873ZM129.621 10.0004L143.03 23.4094L149.126 17.2717C150.097 16.2944 150.094 14.7161 149.12 13.7422L139.268 3.88946C138.291 2.91315 136.709 2.91315 135.732 3.88946L129.621 10.0004ZM64.0808 76.6515L76.7164 88.8922L56.5785 95.9996L64.0808 76.6515ZM151.581 124.617C152.138 124.851 152.5 125.396 152.5 126V152C152.5 152.829 151.828 153.5 151 153.5H124.5C123.891 153.5 123.342 153.132 123.111 152.568C122.881 152.004 123.015 151.356 123.449 150.93L149.949 124.93C150.381 124.507 151.024 124.383 151.581 124.617ZM128.171 150.5H149.5V129.573L128.171 150.5Z" fill="white"/>
</svg>
