<svg width="56" height="44" viewBox="0 0 56 44" fill="none" xmlns="http://www.w3.org/2000/svg">
<path fill-rule="evenodd" clip-rule="evenodd" d="M39.8102 1.96312L29.0663 7.66667L34.4664 10.5334L39.8102 1.96312ZM33.936 11.384L28 8.23275L21.9594 11.4395L27.9513 20.9822L33.936 11.384ZM28.8069 21.5L34.8214 11.854L41 15.134V21.5H28.8069ZM27.0049 22.5H15V28.866L21.0371 32.0709L27.0049 22.5ZM21.9225 32.5409L27.9543 22.8674L34.0406 32.5605L28 35.7672L21.9225 32.5409ZM20.5068 32.9215L15 29.9982V41.7531L20.5068 32.9215ZM14 28.3351V22.5H3.00821L14 28.3351ZM15 21.5H27.0956L21.0738 11.9096L15 15.134V21.5ZM14 15.6649V21.5H3.00821L14 15.6649ZM15 14.0018L20.5406 11.0605L15 2.23656V14.0018ZM16.5082 1L28 7.10058L39.4918 1H16.5082ZM14 14.5327L2.41877 20.6807L14 2.23656V14.5327ZM2.41877 23.3193L14 29.4673V41.7634L2.41877 23.3193ZM21.3922 33.3915L26.9337 36.3333L15.9084 42.1862L21.3922 33.3915ZM16.5082 43H39.4918L28 36.8994L16.5082 43ZM42 43.644V44H41H15H14V43.644L0.576555 22.2659V21.7341L14 0.356037V0H15H41H42V0.356034L55.4234 21.7341L55.5904 22L55.4234 22.2659L42 43.644ZM42 2.23656V14.5327L53.5812 20.6807L42 2.23656ZM42 15.6649V21.5H52.9918L42 15.6649ZM41 22.5H28.9044L34.9262 32.0904L41 28.866V22.5ZM42 28.3351V22.5H52.9918L42 28.3351ZM42 29.4673L53.5812 23.3193L42 41.7634V29.4673ZM41 29.9982V41.7634L35.4594 32.9395L41 29.9982ZM41 14.0018V1.945L35.3518 11.0034L41 14.0018ZM34.5738 33.4096L29.0663 36.3333L40.0812 42.1807L34.5738 33.4096ZM21.4262 10.5904L26.9337 7.66667L15.9188 1.81926L21.4262 10.5904Z" fill="black"/>
</svg>
