<svg width="134" height="135" viewBox="0 0 134 135" fill="none" xmlns="http://www.w3.org/2000/svg">
<path d="M61 3V133" stroke="white" stroke-width="4" stroke-linecap="round"/>
<path d="M27.5 33.4996C31 27.1663 42.5 14.6996 60.5 15.4996" stroke="white" stroke-width="4" stroke-linecap="round"/>
<path d="M22.5 43.5C17.4992 57.5 20.4992 80.5 41.9993 91.5V97.5C41.9993 100.814 44.6856 103.5 47.9993 103.5H60.5" stroke="white" stroke-width="4" stroke-linecap="round"/>
<path d="M47 104V117C47 120.866 50.134 124 54 124H60" stroke="white" stroke-width="4" stroke-linecap="round"/>
<path d="M19.5 14L26.5 21" stroke="white" stroke-width="4" stroke-linecap="round"/>
<path d="M26 91L19 98" stroke="white" stroke-width="4" stroke-linecap="round"/>
<path d="M11.8994 55.9492H1.99992" stroke="white" stroke-width="4" stroke-linecap="round"/>
<path d="M61.5 43L72.0927 19.8886C72.3191 19.3946 72.8986 19.1718 73.3976 19.3869L101.5 31.5M101.5 31.5L109.5 51M101.5 31.5L96.3712 43.6226C96.1633 44.1139 96.3777 44.6819 96.8583 44.9133L109.5 51M109.5 51L104.5 62" stroke="white" stroke-width="4" stroke-linecap="round"/>
<path d="M88.5 92.5V72M88.5 72H121.5C122.052 72 122.5 72.4477 122.5 73V84M88.5 72L96.704 63.3134C96.8929 63.1134 97.1559 63 97.431 63H129.5C130.052 63 130.5 63.4477 130.5 64V96.1198C130.5 96.3647 130.41 96.6011 130.247 96.7842L122.5 105.5M122.5 105.5H103M122.5 105.5V93.5" stroke="white" stroke-width="4" stroke-linecap="round"/>
<path d="M122.5 72L130.5 63.5" stroke="white" stroke-width="4" stroke-linecap="round"/>
<path d="M62 81L88.5 92.5" stroke="white" stroke-width="4" stroke-linecap="round"/>
<path d="M91 25.5416C91.5124 23.8692 92.4334 22.3478 93.6813 21.1121C94.9293 19.8764 96.4657 18.9646 98.1545 18.4574C99.8433 17.9502 101.632 17.8633 103.363 18.2043C105.094 18.5454 106.713 19.3039 108.077 20.4127C109.441 21.5215 110.508 22.9464 111.183 24.5611C111.859 26.1757 112.121 27.9304 111.948 29.6696C111.775 31.4089 111.172 33.079 110.191 34.5321C109.211 35.9851 107.883 37.1763 106.327 38L104 39" stroke="white" stroke-width="4"/>
<path d="M84 22.5L85.7281 19.0437C85.8952 18.7097 85.8621 18.3104 85.6424 18.0084L82.5026 13.6911C82.2132 13.2931 82.2563 12.7437 82.6042 12.3958L86.4903 8.50965C86.7947 8.20529 87.2597 8.12984 87.6447 8.32233L92.4809 10.7405C92.8019 10.901 93.1835 10.877 93.4881 10.6872C94.0845 10.3155 95.0178 9.76397 96.0716 9.21808C96.3414 9.07835 96.5371 8.82708 96.6007 8.53004L97.8306 2.79047C97.9294 2.3294 98.3369 2 98.8084 2H104.692C105.163 2 105.571 2.3294 105.669 2.79047L106.899 8.53004C106.963 8.82708 107.158 9.07909 107.43 9.21494L110.585 10.7926C110.848 10.9241 111.156 10.9332 111.426 10.8173L117.301 8.29975C117.714 8.12264 118.194 8.24311 118.475 8.5942L121.523 12.4042C121.805 12.756 121.816 13.2527 121.551 13.6171L118 18.5" stroke="white" stroke-width="4" stroke-linecap="round"/>
<path d="M118.103 19.3463L119.152 23.0656C119.253 23.4251 119.546 23.6981 119.912 23.7736L125.14 24.8532C125.622 24.9527 125.96 25.388 125.937 25.8795L125.678 31.3692C125.658 31.7992 125.365 32.168 124.951 32.2847L119.746 33.7516C119.401 33.849 119.135 34.1235 119.037 34.4689C118.847 35.1452 118.528 36.1814 118.116 37.2944C118.01 37.5793 118.035 37.8968 118.187 38.1593L121.141 43.2319C121.378 43.6394 121.299 44.1573 120.95 44.4747L116.599 48.4346C116.25 48.752 115.727 48.7826 115.344 48.5081L110.645 45.1442C110.357 44.938 109.981 44.8996 109.658 45.0432L107.5 46" stroke="white" stroke-width="4" stroke-linecap="round"/>
<circle cx="89" cy="113" r="7" stroke="white" stroke-width="4"/>
<path d="M90.6529 93.5H85.8471C85.3583 93.5 84.9411 93.8534 84.8607 94.3356L84.0925 98.9449C84.0351 99.2896 83.8019 99.5792 83.4775 99.709L81.9759 100.31C81.6771 100.429 81.3391 100.398 81.0676 100.225L76.6768 97.4307C76.2813 97.179 75.7642 97.2358 75.4328 97.5672L73.0672 99.9328C72.7358 100.264 72.679 100.781 72.9307 101.177L75.6682 105.479C75.8715 105.798 75.8769 106.205 75.682 106.53L74.7131 108.145C74.5767 108.372 74.3555 108.536 74.0982 108.6L69.2575 109.811C68.8123 109.922 68.5 110.322 68.5 110.781V115.08C68.5 115.6 68.8987 116.033 69.417 116.076L73.8429 116.445C74.2415 116.478 74.582 116.746 74.7085 117.126L75.8308 120.492C75.9365 120.809 75.8767 121.159 75.6714 121.422L73.0795 124.755C72.7542 125.173 72.8115 125.773 73.2103 126.122L75.9101 128.484C76.2565 128.787 76.765 128.814 77.1421 128.551L81.0571 125.81C81.3335 125.617 81.6887 125.575 82.002 125.701L83.5562 126.322C83.8369 126.435 84.0517 126.668 84.1406 126.957L85.7828 132.294C85.9119 132.714 86.2996 133 86.7386 133H90.7614C91.2004 133 91.5881 132.714 91.7172 132.294L93.3487 126.992C93.4436 126.683 93.6818 126.439 93.9882 126.337L95.9923 125.669C96.3095 125.564 96.6585 125.623 96.9224 125.829L100.303 128.458C100.701 128.768 101.268 128.732 101.624 128.376L104.026 125.974C104.313 125.687 104.398 125.256 104.242 124.882L102.144 119.846C102.051 119.623 102.042 119.374 102.118 119.145L102.793 117.12C102.919 116.744 103.256 116.477 103.651 116.441L107.591 116.083C108.106 116.036 108.5 115.604 108.5 115.087V110.796C108.5 110.33 108.179 109.926 107.725 109.821L102.509 108.618C102.19 108.544 101.927 108.319 101.806 108.015L101.19 106.476C101.071 106.177 101.102 105.839 101.275 105.568L104.069 101.177C104.321 100.781 104.264 100.264 103.933 99.9328L101.526 97.5261C101.214 97.2138 100.734 97.1434 100.345 97.3527L94.957 100.254C94.6705 100.408 94.3268 100.413 94.0357 100.268L92.9555 99.7277C92.6693 99.5847 92.4689 99.3133 92.4163 98.9977L91.6393 94.3356C91.5589 93.8534 91.1417 93.5 90.6529 93.5Z" stroke="white" stroke-width="4" stroke-linecap="round"/>
</svg>
