<svg width="170" height="169" viewBox="0 0 170 169" fill="none" xmlns="http://www.w3.org/2000/svg">
<path fill-rule="evenodd" clip-rule="evenodd" d="M96.5 7C96.5 10.866 93.366 14 89.5 14C88.1099 14 86.8144 13.5948 85.7253 12.8961L64.1461 34.4752C82.1796 25.4581 116.418 17.5806 149.127 39.4318L153.157 35.5375C154.746 34.0024 157.278 34.0458 158.813 35.6345L168.499 45.658C170.034 47.2467 169.991 49.779 168.402 51.3141L158.378 60.9999C156.79 62.535 154.258 62.4916 152.722 60.9029L143.037 50.8794C141.502 49.2907 141.545 46.7584 143.134 45.2233L146.918 41.5667C111.229 18.1109 73.7206 31.132 59.3298 40.6858C59.1745 40.7889 59.0069 40.8593 58.8353 40.8986C59.893 42.6864 60.5 44.7723 60.5 47C60.5 53.6274 55.1274 59 48.5 59C46.1212 59 43.904 58.3078 42.0389 57.1139C31.1272 71.6134 16.1177 109.217 42.0995 145.458L46.1572 141.538C47.7458 140.002 50.2781 140.046 51.8132 141.634L61.499 151.658C63.0341 153.247 62.9907 155.779 61.4021 157.314L51.3785 167C49.7898 168.535 47.2576 168.492 45.7225 166.903L36.0366 156.879C34.5015 155.291 34.5449 152.758 36.1336 151.223L39.9321 147.553C39.879 147.499 39.8294 147.44 39.7837 147.377C16.9256 115.648 24.3498 82.9063 34.0572 64.2857L12.9924 84.6598C13.9364 85.8528 14.5 87.3606 14.5 89C14.5 92.866 11.366 96 7.5 96C3.63401 96 0.5 92.866 0.5 89C0.5 85.134 3.63401 82 7.5 82C8.63427 82 9.70553 82.2698 10.6531 82.7487L39.4573 54.8889C37.6157 52.7796 36.5 50.0201 36.5 47C36.5 40.3726 41.8726 35 48.5 35C51.5284 35 54.2947 36.1218 56.4062 37.9725L83.6039 10.7747C82.9052 9.68558 82.5 8.39011 82.5 7C82.5 3.13401 85.634 0 89.5 0C93.366 0 96.5 3.13401 96.5 7ZM89.5 11C91.7091 11 93.5 9.20914 93.5 7C93.5 4.79086 91.7091 3 89.5 3C87.2909 3 85.5 4.79086 85.5 7C85.5 9.20914 87.2909 11 89.5 11ZM126.5 110C126.5 118.284 119.784 125 111.5 125C103.216 125 96.5 118.284 96.5 110C96.5 106.526 97.6811 103.328 99.6635 100.785L64.75 65.8713L61.7514 68.8699L87.6615 135.845L116.65 147.25L148.249 116.608L137.33 87.6484L69.8622 60.7591L66.8713 63.75L101.735 98.6136C104.359 96.3611 107.771 95 111.5 95C119.784 95 126.5 101.716 126.5 110ZM111.5 122C118.127 122 123.5 116.627 123.5 110C123.5 103.373 118.127 98 111.5 98C104.873 98 99.5 103.373 99.5 110C99.5 116.627 104.873 122 111.5 122ZM57.5 47C57.5 51.9706 53.4706 56 48.5 56C43.5294 56 39.5 51.9706 39.5 47C39.5 42.0294 43.5294 38 48.5 38C53.4706 38 57.5 42.0294 57.5 47ZM11.5 89C11.5 91.2091 9.70914 93 7.5 93C5.29086 93 3.5 91.2091 3.5 89C3.5 86.7909 5.29086 85 7.5 85C9.70914 85 11.5 86.7909 11.5 89ZM68.4393 57.9393C68.8632 57.5155 69.4986 57.3847 70.0553 57.6066L139.055 85.1066C139.447 85.2627 139.755 85.5763 139.904 85.9708L151.189 115.903L168.641 124.144C169.083 124.353 169.396 124.765 169.479 125.248C169.561 125.73 169.403 126.223 169.054 126.567L127.554 167.567C127.219 167.899 126.747 168.053 126.28 167.984C125.814 167.915 125.407 167.63 125.182 167.216L115.942 150.196L85.9508 138.396C85.5605 138.242 85.2524 137.932 85.101 137.541L58.601 69.0412C58.3868 68.4874 58.5194 67.8593 58.9393 67.4393L68.4393 57.9393ZM118.861 149.285L126.866 164.03L165.42 125.94L150.299 118.8L118.861 149.285ZM49.6558 143.719C49.272 143.322 48.639 143.311 48.2418 143.695L38.2182 153.381C37.8211 153.764 37.8102 154.398 38.194 154.795L47.8798 164.818C48.2636 165.215 48.8967 165.226 49.2938 164.843L59.3174 155.157C59.7146 154.773 59.7254 154.14 59.3416 153.743L49.6558 143.719ZM155.242 37.6949C155.639 37.3111 156.272 37.322 156.656 37.7191L166.342 47.7427C166.725 48.1399 166.715 48.7729 166.317 49.1567L156.294 58.8425C155.897 59.2263 155.264 59.2154 154.88 58.8183L145.194 48.7947C144.81 48.3975 144.821 47.7645 145.218 47.3807L155.242 37.6949Z" fill="white"/>
</svg>
