<svg width="141" height="123" viewBox="0 0 141 123" fill="none" xmlns="http://www.w3.org/2000/svg">
<path fill-rule="evenodd" clip-rule="evenodd" d="M109 3H35C33.8954 3 33 3.89543 33 5V43C33 44.1046 33.8954 45 35 45H109C110.105 45 111 44.1046 111 43V5C111 3.89543 110.105 3 109 3ZM35 0C32.2386 0 30 2.23858 30 5V43C30 45.7614 32.2386 48 35 48H41.5V63.5H22C20.6193 63.5 19.5 64.6193 19.5 66V83H4C1.79086 83 0 84.7909 0 87V106C0 108.209 1.79086 110 4 110H34C36.2091 110 38 108.209 38 106V87C38 84.7909 36.2091 83 34 83H22.5V66.5H42C43.3807 66.5 44.5 65.3807 44.5 64V48H69.5V77H57C54.7909 77 53 78.7909 53 81V100C53 102.209 54.7909 104 57 104H87C89.2091 104 91 102.209 91 100V81C91 78.7909 89.2091 77 87 77H72.5V48H93.5V70.84C93.5 72.2207 94.6193 73.34 96 73.34H118.5V96H107C104.791 96 103 97.7909 103 100V119C103 121.209 104.791 123 107 123H137C139.209 123 141 121.209 141 119V100C141 97.7909 139.209 96 137 96H121.5V72.84C121.5 71.4593 120.381 70.34 119 70.34H96.5V48H109C111.761 48 114 45.7614 114 43V5C114 2.23858 111.761 0 109 0H35ZM34 86H4C3.44771 86 3 86.4477 3 87V106C3 106.552 3.44772 107 4 107H34C34.5523 107 35 106.552 35 106V87C35 86.4477 34.5523 86 34 86ZM57 80H87C87.5523 80 88 80.4477 88 81V100C88 100.552 87.5523 101 87 101H57C56.4477 101 56 100.552 56 100V81C56 80.4477 56.4477 80 57 80ZM137 99H107C106.448 99 106 99.4477 106 100V119C106 119.552 106.448 120 107 120H137C137.552 120 138 119.552 138 119V100C138 99.4477 137.552 99 137 99Z" fill="white"/>
</svg>
