<svg width="128" height="125" viewBox="0 0 128 125" fill="none" xmlns="http://www.w3.org/2000/svg">
<path fill-rule="evenodd" clip-rule="evenodd" d="M6.5 3C4.567 3 3 4.567 3 6.5V17.5H113.5V6.5C113.5 4.567 111.933 3 110 3H6.5ZM0 6.5V19V91C0 94.5899 2.91015 97.5 6.5 97.5H36.5C37.3284 97.5 38 96.8284 38 96C38 95.1716 37.3284 94.5 36.5 94.5H6.5C4.567 94.5 3 92.933 3 91V20.5H113.5V64.5871L108.261 59.883L97.8317 49.5181C94.6979 46.4035 89.6326 46.4192 86.5181 49.553C85.0457 51.0345 84.2728 52.9477 84.1983 54.8824L83.8317 54.5181C80.6979 51.4035 75.6326 51.4192 72.5181 54.553C70.8173 56.2643 70.0499 58.5516 70.214 60.7827C67.3143 59.6016 63.8632 60.1934 61.5181 62.553C60.0637 64.0163 59.2919 65.9008 59.2014 67.8112L46.832 55.5179C43.6982 52.4033 38.6329 52.419 35.5184 55.5528C32.4038 58.6866 32.4195 63.7519 35.5533 66.8664L68.0698 99.1831L71.2575 103.198L59.006 100.071C54.725 98.9777 50.3686 101.562 49.2758 105.843C48.183 110.124 50.7676 114.481 55.0486 115.573L70.4457 119.504C74.7669 121.227 81.9919 123.256 89.8792 123.852C97.8045 124.451 106.591 123.617 113.765 119.365L113.811 119.338L113.854 119.308C116.651 117.372 121.992 112.04 125.672 103.755C127.567 99.4893 127.89 94.8026 127.429 90.3377C127.289 88.9849 127.136 87.6972 126.983 86.774C126.978 86.7429 126.972 86.7118 126.966 86.6806C126.959 86.6502 126.952 86.6202 126.943 86.5907C125.519 81.3042 123.857 77.2784 122.338 74.4088C121.579 72.9731 120.849 71.8165 120.196 70.9316C119.585 70.1047 118.991 69.4462 118.454 69.0349L116.353 67.1486C116.447 66.9523 116.5 66.7323 116.5 66.5V6.5C116.5 2.91015 113.59 0 110 0H6.5C2.91015 0 0 2.91015 0 6.5ZM50.5 8C49.6716 8 49 8.67157 49 9.5C49 10.3284 49.6716 11 50.5 11H104C104.828 11 105.5 10.3284 105.5 9.5C105.5 8.67157 104.828 8 104 8H50.5ZM16 10C16 11.1046 15.1046 12 14 12C12.8954 12 12 11.1046 12 10C12 8.89543 12.8954 8 14 8C15.1046 8 16 8.89543 16 10ZM23 12C24.1046 12 25 11.1046 25 10C25 8.89543 24.1046 8 23 8C21.8954 8 21 8.89543 21 10C21 11.1046 21.8954 12 23 12ZM34 10C34 11.1046 33.1046 12 32 12C30.8954 12 30 11.1046 30 10C30 8.89543 30.8954 8 32 8C33.1046 8 34 8.89543 34 10ZM46 98C47.1046 98 48 97.1046 48 96C48 94.8954 47.1046 94 46 94C44.8954 94 44 94.8954 44 96C44 97.1046 44.8954 98 46 98ZM99.1294 71.2528C99.0634 71.3726 98.9798 71.4854 98.8786 71.5872C98.2946 72.1748 97.3448 72.1778 96.7572 71.5938L81.717 56.6459C79.7583 54.6994 76.5925 54.7091 74.6459 56.6677C72.6993 58.6264 72.7091 61.7922 74.6677 63.7388L89.708 78.6866C90.2956 79.2706 90.2985 80.2203 89.7146 80.8079C89.1862 81.3396 88.3584 81.3926 87.7703 80.9653C87.3832 80.969 86.9949 80.8238 86.6986 80.5293L70.717 64.6459C68.7583 62.6994 65.5925 62.7091 63.6459 64.6677C61.6993 66.6264 61.7091 69.7922 63.6677 71.7388L79.6493 87.6222C80.2369 88.2061 80.2399 89.1559 79.6559 89.7435C79.6452 89.7542 79.6343 89.7648 79.6234 89.7752C79.615 89.7831 79.6067 89.7909 79.5982 89.7985C79.546 89.8759 79.4858 89.9494 79.4177 90.018C78.8337 90.6056 77.8839 90.6085 77.2963 90.0246L44.7173 57.6457C42.7586 55.6992 39.5928 55.7089 37.6462 57.6675C35.6996 59.6262 35.7094 62.792 37.668 64.7386L70.2471 97.1174L70.3097 97.1795L70.3645 97.2486L76.1751 104.567C76.6902 105.216 76.5818 106.159 75.933 106.675C75.522 107.001 74.9928 107.077 74.5291 106.924C74.2847 106.992 74.0197 106.999 73.7562 106.932L58.264 102.977C55.5883 102.294 52.8656 103.91 52.1826 106.585C51.4996 109.261 53.115 111.984 55.7906 112.667L71.2828 116.621L71.3788 116.646L71.4708 116.683C75.5236 118.31 82.4957 120.286 90.1052 120.861C97.7152 121.436 105.771 120.596 112.189 116.812C114.538 115.169 119.488 110.286 122.93 102.537C124.546 98.9001 124.872 94.7815 124.445 90.646C124.309 89.3316 124.167 88.1433 124.032 87.318C122.663 82.2501 121.085 78.4537 119.687 75.812C118.984 74.4841 118.332 73.4582 117.782 72.7137C117.215 71.9452 116.808 71.5473 116.612 71.4034L116.553 71.3598L116.498 71.3106L106.228 62.0899L106.2 62.0645L106.173 62.0377L95.717 51.6459C93.7583 49.6994 90.5925 49.7091 88.6459 51.6677C86.6993 53.6264 86.7091 56.7922 88.6677 58.7388L99.1238 69.1305C99.7113 69.7145 99.7143 70.6643 99.1303 71.2518L99.1294 71.2528ZM18 59C17.1716 59 16.5 59.6716 16.5 60.5C16.5 61.3284 17.1716 62 18 62H25C25.8284 62 26.5 61.3284 26.5 60.5C26.5 59.6716 25.8284 59 25 59H18ZM40 46.5C39.1716 46.5 38.5 45.8284 38.5 45V38C38.5 37.1716 39.1716 36.5 40 36.5C40.8284 36.5 41.5 37.1716 41.5 38V45C41.5 45.8284 40.8284 46.5 40 46.5ZM21.0334 38.9128C20.4329 38.342 19.4835 38.3661 18.9128 38.9666C18.342 39.5671 18.3661 40.5165 18.9666 41.0872L28.1381 49.8048C28.7386 50.3755 29.688 50.3514 30.2588 49.7509C30.8295 49.1505 30.8054 48.201 30.2049 47.6303L21.0334 38.9128Z" fill="white"/>
</svg>
