<svg width="150" height="149" viewBox="0 0 150 149" fill="none" xmlns="http://www.w3.org/2000/svg">
<path fill-rule="evenodd" clip-rule="evenodd" d="M40.0527 9.0093C40.0527 6.33008 42.2169 4.15814 44.8867 4.15814H109.109C110.253 4.15814 111.181 3.22731 111.181 2.07907C111.181 0.930831 110.253 0 109.109 0H44.8867C39.9286 0 35.9093 4.0336 35.9093 9.0093V37.1598C25.3397 41.8022 17.9547 52.3909 17.9547 64.7106C17.9547 81.312 31.365 94.7701 47.9075 94.7701C64.45 94.7701 77.8603 81.312 77.8603 64.7106C77.8603 48.1092 64.45 34.6512 47.9075 34.6512C45.1895 34.6512 42.556 35.0145 40.0527 35.6954V18.0186H78.0337C79.1779 18.0186 80.1054 17.0878 80.1054 15.9395C80.1054 14.7913 79.1779 13.8605 78.0337 13.8605H40.0527V9.0093ZM63.3178 85.4902C59.0172 88.7075 53.6839 90.612 47.9075 90.612C42.1301 90.612 36.796 88.7069 32.495 85.4886C32.5133 84.1342 32.8702 82.774 33.5736 81.4757C34.298 80.1384 35.3824 78.8825 36.799 77.7994C38.216 76.7159 39.9254 75.8365 41.8391 75.2304C43.7522 74.6245 45.815 74.3092 47.9064 74.3092C49.9978 74.3092 52.0606 74.6245 53.9736 75.2304C55.8873 75.8365 57.5968 76.7159 59.0138 77.7994C60.4304 78.8825 61.5148 80.1384 62.2392 81.4757C62.9428 82.7745 63.2997 84.1353 63.3178 85.4902ZM66.9767 82.1651C71.1635 77.5609 73.7169 71.435 73.7169 64.7106C73.7169 50.4057 62.1616 38.8093 47.9075 38.8093C33.6533 38.8093 22.0981 50.4057 22.0981 64.7106C22.0981 71.4341 24.6508 77.5593 28.8366 82.1633C29.0995 81.2456 29.4669 80.3506 29.9334 79.4896C30.9662 77.583 32.4575 75.8914 34.2879 74.4918C36.118 73.0925 38.2634 72.0026 40.5921 71.265C40.7711 71.2083 40.9509 71.1538 41.1316 71.1014C38.021 69.0052 35.9741 65.4423 35.9741 61.3996C35.9741 54.9501 41.1839 49.7217 47.6105 49.7217C54.0371 49.7217 59.247 54.9501 59.247 61.3996C59.247 65.3676 57.2749 68.8734 54.2607 70.9838C54.5833 71.0708 54.9034 71.1645 55.2206 71.265C57.5494 72.0026 59.6948 73.0925 61.5248 74.4918C63.3553 75.8914 64.8465 77.583 65.8794 79.4896C66.3461 80.3512 66.7138 81.2468 66.9767 82.1651ZM47.6105 68.9193C51.7488 68.9193 55.1036 65.5526 55.1036 61.3996C55.1036 57.2466 51.7488 53.8799 47.6105 53.8799C43.4722 53.8799 40.1175 57.2466 40.1175 61.3996C40.1175 65.5526 43.4722 68.9193 47.6105 68.9193Z" fill="white"/>
<path d="M113.253 115.042C114.397 115.042 115.324 115.973 115.324 117.121V139.991C115.324 144.966 111.305 149 106.347 149H49.5607C46.5381 149 43.5912 148.052 41.1316 146.289L39.5391 145.148C38.6081 144.48 38.3924 143.182 39.0575 142.247C39.7225 141.313 41.0164 141.097 41.9474 141.764L43.5399 142.906C45.2967 144.165 47.4017 144.842 49.5607 144.842H106.347C109.017 144.842 111.181 142.67 111.181 139.991V128.902H66.9847C65.8406 128.902 64.913 127.971 64.913 126.823C64.913 125.675 65.8406 124.744 66.9847 124.744H111.181V117.121C111.181 115.973 112.108 115.042 113.253 115.042Z" fill="white"/>
<path fill-rule="evenodd" clip-rule="evenodd" d="M115.324 50.5907C115.324 49.4425 114.397 48.5116 113.253 48.5116C112.108 48.5116 111.181 49.4425 111.181 50.5907V72.6603L95.7988 85.358C94.0596 85.656 91.6559 86.2656 89.395 87.2536C86.9707 88.3132 84.193 90.0299 83.0354 92.7387C81.3056 96.7864 80.796 99.8912 80.796 101.181V112.159C80.7764 112.199 80.7348 112.276 80.6523 112.392C80.4517 112.675 80.1257 113.024 79.6864 113.412C78.8112 114.185 77.7256 114.903 77.0059 115.316C76.1903 115.783 75.7903 116.743 76.0314 117.654C76.2726 118.566 77.0944 119.2 78.0337 119.2H98.8721L98.9927 119.186C104.466 118.539 107.922 115.395 109.941 111.847C111.721 108.72 112.42 105.242 112.542 102.691L146.473 64.382C147.992 62.6675 149.313 60.4989 149.801 58.2079C150.307 55.8366 149.914 53.2561 147.864 51.2C146.611 49.9426 145.118 49.3528 143.552 49.3068C142.057 49.2628 140.61 49.7152 139.328 50.316C136.829 51.4874 134.364 53.5223 132.52 55.045L115.324 69.2399V50.5907ZM95.971 89.5536C94.5584 89.8319 92.7366 90.3285 91.0494 91.0659C88.8239 92.0386 87.3431 93.2081 86.8434 94.3776C85.2584 98.0865 84.9394 100.621 84.9394 101.181V112.27C84.9394 113.322 84.4517 114.207 84.0257 114.807C83.9694 114.886 83.9112 114.964 83.8513 115.042H98.6245C102.474 114.55 104.856 112.399 106.343 109.785C107.698 107.404 108.272 104.683 108.393 102.679L96.5753 90.1603L95.971 89.5536ZM99.7517 87.4791L110.442 98.8031L143.377 61.6194C144.587 60.2525 145.456 58.7133 145.749 57.3382C146.025 56.0434 145.791 54.9994 144.935 54.1408C144.447 53.651 143.966 53.4789 143.431 53.4632C142.825 53.4454 142.046 53.6313 141.082 54.0835C139.118 55.004 137.039 56.6989 135.086 58.3106L99.7517 87.4791Z" fill="white"/>
<path d="M9.6679 124.744C9.6679 123.596 10.5954 122.665 11.7396 122.665H20.7169C21.8611 122.665 22.7886 123.596 22.7886 124.744C22.7886 125.892 21.8611 126.823 20.7169 126.823H11.7396C10.5954 126.823 9.6679 125.892 9.6679 124.744Z" fill="white"/>
<path d="M29.0037 122.665C27.8595 122.665 26.932 123.596 26.932 124.744C26.932 125.892 27.8595 126.823 29.0037 126.823H49.0301C50.1742 126.823 51.1017 125.892 51.1017 124.744C51.1017 123.596 50.1742 122.665 49.0301 122.665H29.0037Z" fill="white"/>
<path fill-rule="evenodd" clip-rule="evenodd" d="M5.52451 112.27H35.9093V102.567C35.9093 101.419 36.8369 100.488 37.981 100.488C39.1252 100.488 40.0527 101.419 40.0527 102.567V112.27H55.2451C58.2962 112.27 60.7696 114.752 60.7696 117.814V131.674C60.7696 134.736 58.2962 137.219 55.2451 137.219H5.52451C2.47341 137.219 0 134.736 0 131.674V117.814C0 114.752 2.47341 112.27 5.52451 112.27ZM5.52451 116.428H55.2451C56.0079 116.428 56.6263 117.048 56.6263 117.814V131.674C56.6263 132.44 56.0079 133.06 55.2451 133.06H5.52451C4.76174 133.06 4.14338 132.44 4.14338 131.674V117.814C4.14338 117.048 4.76174 116.428 5.52451 116.428Z" fill="white"/>
<path d="M98.0601 29.107C96.9159 29.107 95.9884 30.0378 95.9884 31.186C95.9884 32.3343 96.9159 33.2651 98.0601 33.2651H133.279C134.423 33.2651 135.351 32.3343 135.351 31.186C135.351 30.0378 134.423 29.107 133.279 29.107H98.0601Z" fill="white"/>
<path d="M95.2978 21.4837C95.2978 20.3355 96.2254 19.4047 97.3695 19.4047H102.894C104.038 19.4047 104.966 20.3355 104.966 21.4837C104.966 22.632 104.038 23.5628 102.894 23.5628H97.3695C96.2254 23.5628 95.2978 22.632 95.2978 21.4837Z" fill="white"/>
<path d="M112.562 19.4047C111.418 19.4047 110.49 20.3355 110.49 21.4837C110.49 22.632 111.418 23.5628 112.562 23.5628H133.279C134.423 23.5628 135.351 22.632 135.351 21.4837C135.351 20.3355 134.423 19.4047 133.279 19.4047H112.562Z" fill="white"/>
<path fill-rule="evenodd" clip-rule="evenodd" d="M140.875 8.31628H91.1545C88.1034 8.31628 85.63 10.7985 85.63 13.8605V38.8093C85.63 41.8713 88.1034 44.3535 91.1545 44.3535H140.875C143.926 44.3535 146.4 41.8713 146.4 38.8093V13.8605C146.4 10.7985 143.926 8.31628 140.875 8.31628ZM89.7733 13.8605C89.7733 13.095 90.3917 12.4744 91.1545 12.4744H140.875C141.638 12.4744 142.256 13.095 142.256 13.8605V38.8093C142.256 39.5748 141.638 40.1954 140.875 40.1954H91.1545C90.3917 40.1954 89.7733 39.5748 89.7733 38.8093V13.8605Z" fill="white"/>
<path d="M75.9621 139.991C77.4876 139.991 78.7243 138.75 78.7243 137.219C78.7243 135.688 77.4876 134.447 75.9621 134.447C74.4365 134.447 73.1998 135.688 73.1998 137.219C73.1998 138.75 74.4365 139.991 75.9621 139.991Z" fill="white"/>
</svg>
