<svg width="94" height="94" viewBox="0 0 94 94" fill="none" xmlns="http://www.w3.org/2000/svg">
<rect x="1.5" y="53.5" width="58" height="39" rx="7.5" stroke="white" stroke-width="3"/>
<path d="M25 78.355V67.7037C25 66.9403 25.821 66.4584 26.4875 66.8306L36.378 72.3535C37.0735 72.7419 37.0579 73.7478 36.3508 74.1144L26.4603 79.2428C25.7947 79.588 25 79.1049 25 78.355Z" stroke="white" stroke-width="3"/>
<path d="M28.5 31C29.0478 31.4382 30.5174 32.0781 32.9371 32.2379C35.9748 32.4386 38.9399 31.4727 41.7986 30.4259L73 19M28.5 31L32.1667 40M28.5 31L25.8462 29.5M32.1667 40L32.5203 40.8679C33.3422 42.8853 35.6273 43.8741 37.6605 43.0921L88.701 23.4612C90.7883 22.6583 91.8119 20.3001 90.9728 18.227L88.25 11.5M32.1667 40L28.8301 41.2916C27.8138 41.685 26.6696 41.1924 26.257 40.1837L23.2326 32.7908C22.8241 31.7923 23.2812 30.6498 24.2656 30.2085L25.8462 29.5M25.8462 29.5L18.919 25.5846C18.1709 25.1618 18.2692 24.0548 19.08 23.7704L80.3998 2.26277C82.4151 1.55591 84.6302 2.55691 85.4315 4.53655L88.25 11.5M88.25 11.5C87.3333 12.6667 85.5 14 84.5 14.5" stroke="white" stroke-width="3" stroke-linecap="round"/>
<path d="M80 16.5L77 17.5" stroke="white" stroke-width="3" stroke-linecap="round"/>
<path d="M70.0002 30.5C70.4999 32.1241 70.7561 35.1903 69 37.298M58.5 35C59.1242 36.4979 60.8329 38.8934 63.5 39.3295M69 37.298C68.4133 38.0022 67.602 38.5993 66.5002 39C65.3956 39.4017 64.394 39.4756 63.5 39.3295M69 37.298L72.5139 46.4357C73.108 47.9806 74.5922 49 76.2474 49H86M63.5 39.3295L67.8062 50.9351C68.8244 53.6791 71.4422 55.5 74.369 55.5H86" stroke="white" stroke-width="3"/>
<path d="M90.2122 43H92V62H90C89.0557 62 88.1666 61.5554 87.6 60.8C87.2105 60.2807 87 59.6491 87 59V46.6162C87 45.5814 87.4111 44.5889 88.1429 43.8571C88.6917 43.3083 89.436 43 90.2122 43Z" stroke="white" stroke-width="3"/>
</svg>
