<svg width="75" height="52" viewBox="0 0 75 52" fill="none" xmlns="http://www.w3.org/2000/svg">
<path fill-rule="evenodd" clip-rule="evenodd" d="M3 0C1.34315 0 0 1.34315 0 3V13C0 14.6569 1.34315 16 3 16H13C14.6569 16 16 14.6569 16 13V3C16 1.34315 14.6569 0 13 0H3ZM13.032 10.48L7.104 10.516L7.8 10.048L13.02 10.024L13.032 10.48ZM13.032 11.332L5.94 11.308L6.636 10.84L13.032 10.864V11.332ZM4.908 12.136L5.484 11.668H13.044V12.136H4.908ZM3.036 5.044H8.964L8.268 5.512H3.036V5.044ZM3.036 4.228H10.128L9.432 4.696H3.036V4.228ZM3.036 3.412H11.172L10.596 3.88H3.036V3.412ZM3.096 10.336L12.972 3.712V4.288L3.096 10.912V10.336ZM12.972 5.332L3.096 11.956V11.38L12.972 4.756V5.332ZM13.032 2.716V3.064V3.304L3.072 9.724L3.084 9.148L12.456 3.028L3 2.98V2.524L13.032 2.596V2.716ZM12.972 5.8V6.376L3.624 12.544H13.092V13H3.096V12.892V12.544V12.424L12.972 5.8Z" fill="white"/>
<path fill-rule="evenodd" clip-rule="evenodd" d="M19 18C17.3431 18 16 19.3431 16 21V31C16 32.6569 17.3431 34 19 34H29C30.6569 34 32 32.6569 32 31V21C32 19.3431 30.6569 18 29 18H19ZM20 20.548V21.004H28.136V20.548H20ZM20 21.472V21.94H28.136V21.472H20ZM20 22.408H28.136V22.864H25.808V31H25.34V22.864H24.872V31H24.416V22.864H23.948V31H23.48V22.864H23.012V31H22.556V22.864H20V22.408Z" fill="white"/>
<path fill-rule="evenodd" clip-rule="evenodd" d="M35 36C33.3431 36 32 37.3431 32 39V49C32 50.6569 33.3431 52 35 52H45C46.6569 52 48 50.6569 48 49V39C48 37.3431 46.6569 36 45 36H35ZM41.888 46.984C41.54 47.152 41.036 47.236 40.4 47.236H40.256C38.552 47.2 36.74 45.772 36.74 43.708C36.74 41.764 38.312 40.18 40.256 40.18C41.912 40.18 43.016 41.584 43.136 41.74L42.764 42.028C42.656 41.884 41.684 40.648 40.256 40.648C38.576 40.648 37.196 42.016 37.196 43.708C37.196 45.508 38.78 46.744 40.268 46.768C41.06 46.78 41.636 46.66 41.888 46.432V46.096C41.552 46.276 41.06 46.42 40.352 46.42H40.256C38.96 46.396 37.58 45.316 37.58 43.732C37.58 42.256 38.78 41.056 40.256 41.056C41.216 41.056 42.056 41.8 42.464 42.244L42.476 42.256L42.14 42.58L42.128 42.556C41.828 42.244 41.072 41.512 40.256 41.512C39.032 41.512 38.036 42.508 38.036 43.732C38.036 45.04 39.188 45.94 40.268 45.952C41.132 45.976 41.624 45.76 41.888 45.544V43.624H42.356V48.448H42.332V48.46C42.26 48.508 42.068 48.628 41.792 48.736C41.768 48.748 41.12 49 40.316 49H40.256C37.712 48.964 35 46.84 35 43.732C35 40.828 37.352 38.464 40.256 38.464C41.972 38.464 43.64 39.352 44.612 40.768L44.228 41.032C43.34 39.736 41.816 38.932 40.256 38.932C37.616 38.932 35.456 41.092 35.456 43.732C35.456 46.564 37.94 48.508 40.268 48.544C40.9186 48.5547 41.4743 48.3568 41.5984 48.3126C41.6139 48.3071 41.6227 48.304 41.624 48.304L41.888 48.172V47.872C41.684 47.944 41.06 48.112 40.28 48.16H40.1C39.14 48.16 38.096 47.716 37.292 46.948C36.38 46.084 35.876 44.956 35.876 43.768C35.876 41.344 37.844 39.376 40.256 39.376C42.344 39.376 43.676 41.092 43.82 41.284L43.448 41.56L43.4446 41.5557C43.2966 41.3671 42.101 39.844 40.256 39.844C38.096 39.844 36.332 41.596 36.332 43.768C36.332 44.824 36.788 45.844 37.604 46.612C38.372 47.332 39.356 47.74 40.244 47.692C41.072 47.644 41.696 47.452 41.804 47.416C41.816 47.41 41.831 47.401 41.846 47.392C41.861 47.383 41.876 47.374 41.888 47.368V46.984ZM44.816 43.624V48.448H44.348V43.624H44.816ZM43.976 43.624V48.448H43.508V43.624H43.976ZM43.184 43.624V48.448H42.716V43.624H43.184Z" fill="white"/>
<path d="M22.0781 10.5703V7.74609C22.0781 7.54297 22.0449 7.36914 21.9785 7.22461C21.9121 7.07617 21.8086 6.96094 21.668 6.87891C21.5312 6.79688 21.3535 6.75586 21.1348 6.75586C20.9473 6.75586 20.7852 6.78906 20.6484 6.85547C20.5117 6.91797 20.4062 7.00977 20.332 7.13086C20.2578 7.24805 20.2207 7.38672 20.2207 7.54688H18.5332C18.5332 7.27734 18.5957 7.02148 18.7207 6.7793C18.8457 6.53711 19.0273 6.32422 19.2656 6.14062C19.5039 5.95312 19.7871 5.80664 20.1152 5.70117C20.4473 5.5957 20.8184 5.54297 21.2285 5.54297C21.7207 5.54297 22.1582 5.625 22.541 5.78906C22.9238 5.95312 23.2246 6.19922 23.4434 6.52734C23.666 6.85547 23.7773 7.26562 23.7773 7.75781V10.4707C23.7773 10.8184 23.7988 11.1035 23.8418 11.3262C23.8848 11.5449 23.9473 11.7363 24.0293 11.9004V12H22.3242C22.2422 11.8281 22.1797 11.6133 22.1367 11.3555C22.0977 11.0938 22.0781 10.832 22.0781 10.5703ZM22.3008 8.13867L22.3125 9.09375H21.3691C21.1465 9.09375 20.9531 9.11914 20.7891 9.16992C20.625 9.2207 20.4902 9.29297 20.3848 9.38672C20.2793 9.47656 20.2012 9.58203 20.1504 9.70312C20.1035 9.82422 20.0801 9.95703 20.0801 10.1016C20.0801 10.2461 20.1133 10.377 20.1797 10.4941C20.2461 10.6074 20.3418 10.6973 20.4668 10.7637C20.5918 10.8262 20.7383 10.8574 20.9062 10.8574C21.1602 10.8574 21.3809 10.8066 21.5684 10.7051C21.7559 10.6035 21.9004 10.4785 22.002 10.3301C22.1074 10.1816 22.1621 10.041 22.166 9.9082L22.6113 10.623C22.5488 10.7832 22.4629 10.9492 22.3535 11.1211C22.248 11.293 22.1133 11.4551 21.9492 11.6074C21.7852 11.7559 21.5879 11.8789 21.3574 11.9766C21.127 12.0703 20.8535 12.1172 20.5371 12.1172C20.1348 12.1172 19.7695 12.0371 19.4414 11.877C19.1172 11.7129 18.8594 11.4883 18.668 11.2031C18.4805 10.9141 18.3867 10.5859 18.3867 10.2188C18.3867 9.88672 18.4492 9.5918 18.5742 9.33398C18.6992 9.07617 18.8828 8.85938 19.125 8.68359C19.3711 8.50391 19.6777 8.36914 20.0449 8.2793C20.4121 8.18555 20.8379 8.13867 21.3223 8.13867H22.3008ZM26.7656 2.99414V12H25.0781V2.99414H26.7656ZM30.7617 5.66016L28.0078 8.80078L26.5312 10.2949L25.916 9.07617L27.0879 7.58789L28.7344 5.66016H30.7617ZM29.0098 12L27.1348 9.07031L28.3008 8.05078L30.9551 12H29.0098ZM31.2188 8.89453V8.77148C31.2188 8.30664 31.2852 7.87891 31.418 7.48828C31.5508 7.09375 31.7441 6.75195 31.998 6.46289C32.252 6.17383 32.5645 5.94922 32.9355 5.78906C33.3066 5.625 33.7324 5.54297 34.2129 5.54297C34.6934 5.54297 35.1211 5.625 35.4961 5.78906C35.8711 5.94922 36.1855 6.17383 36.4395 6.46289C36.6973 6.75195 36.8926 7.09375 37.0254 7.48828C37.1582 7.87891 37.2246 8.30664 37.2246 8.77148V8.89453C37.2246 9.35547 37.1582 9.7832 37.0254 10.1777C36.8926 10.5684 36.6973 10.9102 36.4395 11.2031C36.1855 11.4922 35.873 11.7168 35.502 11.877C35.1309 12.0371 34.7051 12.1172 34.2246 12.1172C33.7441 12.1172 33.3164 12.0371 32.9414 11.877C32.5703 11.7168 32.2559 11.4922 31.998 11.2031C31.7441 10.9102 31.5508 10.5684 31.418 10.1777C31.2852 9.7832 31.2188 9.35547 31.2188 8.89453ZM32.9062 8.77148V8.89453C32.9062 9.16016 32.9297 9.4082 32.9766 9.63867C33.0234 9.86914 33.0977 10.0723 33.1992 10.248C33.3047 10.4199 33.4414 10.5547 33.6094 10.6523C33.7773 10.75 33.9824 10.7988 34.2246 10.7988C34.459 10.7988 34.6602 10.75 34.8281 10.6523C34.9961 10.5547 35.1309 10.4199 35.2324 10.248C35.334 10.0723 35.4082 9.86914 35.4551 9.63867C35.5059 9.4082 35.5312 9.16016 35.5312 8.89453V8.77148C35.5312 8.51367 35.5059 8.27148 35.4551 8.04492C35.4082 7.81445 35.332 7.61133 35.2266 7.43555C35.125 7.25586 34.9902 7.11523 34.8223 7.01367C34.6543 6.91211 34.4512 6.86133 34.2129 6.86133C33.9746 6.86133 33.7715 6.91211 33.6035 7.01367C33.4395 7.11523 33.3047 7.25586 33.1992 7.43555C33.0977 7.61133 33.0234 7.81445 32.9766 8.04492C32.9297 8.27148 32.9062 8.51367 32.9062 8.77148ZM42.0059 10.6172V3H43.7051V12H42.1758L42.0059 10.6172ZM37.998 8.90625V8.7832C37.998 8.29883 38.0527 7.85938 38.1621 7.46484C38.2715 7.06641 38.4316 6.72461 38.6426 6.43945C38.8535 6.1543 39.1133 5.93359 39.4219 5.77734C39.7305 5.62109 40.082 5.54297 40.4766 5.54297C40.8477 5.54297 41.1719 5.62109 41.4492 5.77734C41.7305 5.93359 41.9688 6.15625 42.1641 6.44531C42.3633 6.73047 42.5234 7.06836 42.6445 7.45898C42.7656 7.8457 42.8535 8.26953 42.9082 8.73047V9C42.8535 9.44141 42.7656 9.85156 42.6445 10.2305C42.5234 10.6094 42.3633 10.9414 42.1641 11.2266C41.9688 11.5078 41.7305 11.7266 41.4492 11.8828C41.168 12.0391 40.8398 12.1172 40.4648 12.1172C40.0703 12.1172 39.7188 12.0371 39.4102 11.877C39.1055 11.7168 38.8477 11.4922 38.6367 11.2031C38.4297 10.9141 38.2715 10.5742 38.1621 10.1836C38.0527 9.79297 37.998 9.36719 37.998 8.90625ZM39.6855 8.7832V8.90625C39.6855 9.16797 39.7051 9.41211 39.7441 9.63867C39.7871 9.86523 39.8555 10.0664 39.9492 10.2422C40.0469 10.4141 40.1719 10.5488 40.3242 10.6465C40.4805 10.7402 40.6699 10.7871 40.8926 10.7871C41.1816 10.7871 41.4199 10.7227 41.6074 10.5938C41.7949 10.4609 41.9375 10.2793 42.0352 10.0488C42.1367 9.81836 42.1953 9.55273 42.2109 9.25195V8.48438C42.1992 8.23828 42.1641 8.01758 42.1055 7.82227C42.0508 7.62305 41.9688 7.45312 41.8594 7.3125C41.7539 7.17188 41.6211 7.0625 41.4609 6.98438C41.3047 6.90625 41.1191 6.86719 40.9043 6.86719C40.6855 6.86719 40.498 6.91797 40.3418 7.01953C40.1855 7.11719 40.0586 7.25195 39.9609 7.42383C39.8672 7.5957 39.7969 7.79883 39.75 8.0332C39.707 8.26367 39.6855 8.51367 39.6855 8.7832ZM46.8047 5.66016V12H45.1113V5.66016H46.8047ZM45.0059 4.00781C45.0059 3.76172 45.0918 3.55859 45.2637 3.39844C45.4355 3.23828 45.666 3.1582 45.9551 3.1582C46.2402 3.1582 46.4688 3.23828 46.6406 3.39844C46.8164 3.55859 46.9043 3.76172 46.9043 4.00781C46.9043 4.25391 46.8164 4.45703 46.6406 4.61719C46.4688 4.77734 46.2402 4.85742 45.9551 4.85742C45.666 4.85742 45.4355 4.77734 45.2637 4.61719C45.0918 4.45703 45.0059 4.25391 45.0059 4.00781ZM49.5586 5.66016L50.6074 7.58789L51.6855 5.66016H53.4844L51.6914 8.75977L53.5664 12H51.7617L50.6191 9.96094L49.4766 12H47.6719L49.5469 8.75977L47.7539 5.66016H49.5586Z" fill="white"/>
<path d="M37.5742 30.1172C37.082 30.1172 36.6406 30.0391 36.25 29.8828C35.8594 29.7227 35.5273 29.502 35.2539 29.2207C34.9844 28.9395 34.7773 28.6133 34.6328 28.2422C34.4883 27.8672 34.416 27.4688 34.416 27.0469V26.8125C34.416 26.332 34.4844 25.8926 34.6211 25.4941C34.7578 25.0957 34.9531 24.75 35.207 24.457C35.4648 24.1641 35.7773 23.9395 36.1445 23.7832C36.5117 23.623 36.9258 23.543 37.3867 23.543C37.8359 23.543 38.2344 23.6172 38.582 23.7656C38.9297 23.9141 39.2207 24.125 39.4551 24.3984C39.6934 24.6719 39.873 25 39.9941 25.3828C40.1152 25.7617 40.1758 26.1836 40.1758 26.6484V27.3516H35.1367V26.2266H38.5176V26.0977C38.5176 25.8633 38.4746 25.6543 38.3887 25.4707C38.3066 25.2832 38.1816 25.1348 38.0137 25.0254C37.8457 24.916 37.6309 24.8613 37.3691 24.8613C37.1465 24.8613 36.9551 24.9102 36.7949 25.0078C36.6348 25.1055 36.5039 25.2422 36.4023 25.418C36.3047 25.5938 36.2305 25.8008 36.1797 26.0391C36.1328 26.2734 36.1094 26.5312 36.1094 26.8125V27.0469C36.1094 27.3008 36.1445 27.5352 36.2148 27.75C36.2891 27.9648 36.3926 28.1504 36.5254 28.3066C36.6621 28.4629 36.8262 28.584 37.0176 28.6699C37.2129 28.7559 37.4336 28.7988 37.6797 28.7988C37.9844 28.7988 38.2676 28.7402 38.5293 28.623C38.7949 28.502 39.0234 28.3203 39.2148 28.0781L40.0352 28.9688C39.9023 29.1602 39.7207 29.3438 39.4902 29.5195C39.2637 29.6953 38.9902 29.8398 38.6699 29.9531C38.3496 30.0625 37.9844 30.1172 37.5742 30.1172ZM43.7559 28.7988C43.9629 28.7988 44.1465 28.7598 44.3066 28.6816C44.4668 28.5996 44.5918 28.4863 44.6816 28.3418C44.7754 28.1934 44.8242 28.0195 44.8281 27.8203H46.416C46.4121 28.2656 46.293 28.6621 46.0586 29.0098C45.8242 29.3535 45.5098 29.625 45.1152 29.8242C44.7207 30.0195 44.2793 30.1172 43.791 30.1172C43.2988 30.1172 42.8691 30.0352 42.502 29.8711C42.1387 29.707 41.8359 29.4805 41.5938 29.1914C41.3516 28.8984 41.1699 28.5586 41.0488 28.1719C40.9277 27.7812 40.8672 27.3633 40.8672 26.918V26.748C40.8672 26.2988 40.9277 25.8809 41.0488 25.4941C41.1699 25.1035 41.3516 24.7637 41.5938 24.4746C41.8359 24.1816 42.1387 23.9531 42.502 23.7891C42.8652 23.625 43.291 23.543 43.7793 23.543C44.2988 23.543 44.7539 23.6426 45.1445 23.8418C45.5391 24.041 45.8477 24.3262 46.0703 24.6973C46.2969 25.0645 46.4121 25.5 46.416 26.0039H44.8281C44.8242 25.793 44.7793 25.6016 44.6934 25.4297C44.6113 25.2578 44.4902 25.1211 44.3301 25.0195C44.1738 24.9141 43.9805 24.8613 43.75 24.8613C43.5039 24.8613 43.3027 24.9141 43.1465 25.0195C42.9902 25.1211 42.8691 25.2617 42.7832 25.4414C42.6973 25.6172 42.6367 25.8184 42.6016 26.0449C42.5703 26.2676 42.5547 26.502 42.5547 26.748V26.918C42.5547 27.1641 42.5703 27.4004 42.6016 27.627C42.6328 27.8535 42.6914 28.0547 42.7773 28.2305C42.8672 28.4062 42.9902 28.5449 43.1465 28.6465C43.3027 28.748 43.5059 28.7988 43.7559 28.7988ZM49.041 21V30H47.3535V21H49.041ZM48.8008 26.6074H48.3379C48.3418 26.166 48.4004 25.7598 48.5137 25.3887C48.627 25.0137 48.7891 24.6895 49 24.416C49.2109 24.1387 49.4629 23.9238 49.7559 23.7715C50.0527 23.6191 50.3809 23.543 50.7402 23.543C51.0527 23.543 51.3359 23.5879 51.5898 23.6777C51.8477 23.7637 52.0684 23.9043 52.252 24.0996C52.4395 24.291 52.584 24.543 52.6855 24.8555C52.7871 25.168 52.8379 25.5469 52.8379 25.9922V30H51.1387V25.9805C51.1387 25.6992 51.0977 25.4785 51.0156 25.3184C50.9375 25.1543 50.8223 25.0391 50.6699 24.9727C50.5215 24.9023 50.3379 24.8672 50.1191 24.8672C49.877 24.8672 49.6699 24.9121 49.498 25.002C49.3301 25.0918 49.1953 25.2168 49.0938 25.377C48.9922 25.5332 48.918 25.7168 48.8711 25.9277C48.8242 26.1387 48.8008 26.3652 48.8008 26.6074Z" fill="white"/>
<path d="M52.3438 43.043V48H50.6562V41.6602H52.2441L52.3438 43.043ZM54.2539 41.6191L54.2246 43.1836C54.1426 43.1719 54.043 43.1621 53.9258 43.1543C53.8125 43.1426 53.709 43.1367 53.6152 43.1367C53.377 43.1367 53.1699 43.168 52.9941 43.2305C52.8223 43.2891 52.6777 43.377 52.5605 43.4941C52.4473 43.6113 52.3613 43.7539 52.3027 43.9219C52.248 44.0898 52.2168 44.2812 52.209 44.4961L51.8691 44.3906C51.8691 43.9805 51.9102 43.6035 51.9922 43.2598C52.0742 42.9121 52.1934 42.6094 52.3496 42.3516C52.5098 42.0938 52.7051 41.8945 52.9355 41.7539C53.166 41.6133 53.4297 41.543 53.7266 41.543C53.8203 41.543 53.916 41.5508 54.0137 41.5664C54.1113 41.5781 54.1914 41.5957 54.2539 41.6191ZM54.6055 44.8945V44.7715C54.6055 44.3066 54.6719 43.8789 54.8047 43.4883C54.9375 43.0938 55.1309 42.752 55.3848 42.4629C55.6387 42.1738 55.9512 41.9492 56.3223 41.7891C56.6934 41.625 57.1191 41.543 57.5996 41.543C58.0801 41.543 58.5078 41.625 58.8828 41.7891C59.2578 41.9492 59.5723 42.1738 59.8262 42.4629C60.084 42.752 60.2793 43.0938 60.4121 43.4883C60.5449 43.8789 60.6113 44.3066 60.6113 44.7715V44.8945C60.6113 45.3555 60.5449 45.7832 60.4121 46.1777C60.2793 46.5684 60.084 46.9102 59.8262 47.2031C59.5723 47.4922 59.2598 47.7168 58.8887 47.877C58.5176 48.0371 58.0918 48.1172 57.6113 48.1172C57.1309 48.1172 56.7031 48.0371 56.3281 47.877C55.957 47.7168 55.6426 47.4922 55.3848 47.2031C55.1309 46.9102 54.9375 46.5684 54.8047 46.1777C54.6719 45.7832 54.6055 45.3555 54.6055 44.8945ZM56.293 44.7715V44.8945C56.293 45.1602 56.3164 45.4082 56.3633 45.6387C56.4102 45.8691 56.4844 46.0723 56.5859 46.248C56.6914 46.4199 56.8281 46.5547 56.9961 46.6523C57.1641 46.75 57.3691 46.7988 57.6113 46.7988C57.8457 46.7988 58.0469 46.75 58.2148 46.6523C58.3828 46.5547 58.5176 46.4199 58.6191 46.248C58.7207 46.0723 58.7949 45.8691 58.8418 45.6387C58.8926 45.4082 58.918 45.1602 58.918 44.8945V44.7715C58.918 44.5137 58.8926 44.2715 58.8418 44.0449C58.7949 43.8145 58.7188 43.6113 58.6133 43.4355C58.5117 43.2559 58.377 43.1152 58.209 43.0137C58.041 42.9121 57.8379 42.8613 57.5996 42.8613C57.3613 42.8613 57.1582 42.9121 56.9902 43.0137C56.8262 43.1152 56.6914 43.2559 56.5859 43.4355C56.4844 43.6113 56.4102 43.8145 56.3633 44.0449C56.3164 44.2715 56.293 44.5137 56.293 44.7715ZM65.3984 46.4824V41.6602H67.0859V48H65.498L65.3984 46.4824ZM65.5859 45.1816L66.084 45.1699C66.084 45.5918 66.0352 45.9844 65.9375 46.3477C65.8398 46.707 65.6934 47.0195 65.498 47.2852C65.3027 47.5469 65.0566 47.752 64.7598 47.9004C64.4629 48.0449 64.1133 48.1172 63.7109 48.1172C63.4023 48.1172 63.1172 48.0742 62.8555 47.9883C62.5977 47.8984 62.375 47.7598 62.1875 47.5723C62.0039 47.3809 61.8594 47.1367 61.7539 46.8398C61.6523 46.5391 61.6016 46.1777 61.6016 45.7559V41.6602H63.2891V45.7676C63.2891 45.9551 63.3105 46.1133 63.3535 46.2422C63.4004 46.3711 63.4648 46.4766 63.5469 46.5586C63.6289 46.6406 63.7246 46.6992 63.834 46.7344C63.9473 46.7695 64.0723 46.7871 64.209 46.7871C64.5566 46.7871 64.8301 46.7168 65.0293 46.5762C65.2324 46.4355 65.375 46.2441 65.457 46.002C65.543 45.7559 65.5859 45.4824 65.5859 45.1816ZM70.0625 42.8789V50.4375H68.375V41.6602H69.9395L70.0625 42.8789ZM74.0762 44.7598V44.8828C74.0762 45.3438 74.0215 45.7715 73.9121 46.166C73.8066 46.5605 73.6504 46.9043 73.4434 47.1973C73.2363 47.4863 72.9785 47.7129 72.6699 47.877C72.3652 48.0371 72.0137 48.1172 71.6152 48.1172C71.2285 48.1172 70.8926 48.0391 70.6074 47.8828C70.3223 47.7266 70.082 47.5078 69.8867 47.2266C69.6953 46.9414 69.541 46.6113 69.4238 46.2363C69.3066 45.8613 69.2168 45.459 69.1543 45.0293V44.707C69.2168 44.2461 69.3066 43.8242 69.4238 43.4414C69.541 43.0547 69.6953 42.7207 69.8867 42.4395C70.082 42.1543 70.3203 41.9336 70.6016 41.7773C70.8867 41.6211 71.2207 41.543 71.6035 41.543C72.0059 41.543 72.3594 41.6191 72.6641 41.7715C72.9727 41.9238 73.2305 42.1426 73.4375 42.4277C73.6484 42.7129 73.8066 43.0527 73.9121 43.4473C74.0215 43.8418 74.0762 44.2793 74.0762 44.7598ZM72.3828 44.8828V44.7598C72.3828 44.4902 72.3594 44.2422 72.3125 44.0156C72.2695 43.7852 72.1992 43.584 72.1016 43.4121C72.0078 43.2402 71.8828 43.1074 71.7266 43.0137C71.5742 42.916 71.3887 42.8672 71.1699 42.8672C70.9395 42.8672 70.7422 42.9043 70.5781 42.9785C70.418 43.0527 70.2871 43.1602 70.1855 43.3008C70.084 43.4414 70.0078 43.6094 69.957 43.8047C69.9062 44 69.875 44.2207 69.8633 44.4668V45.2812C69.8828 45.5703 69.9375 45.8301 70.0273 46.0605C70.1172 46.2871 70.2559 46.4668 70.4434 46.5996C70.6309 46.7324 70.877 46.7988 71.1816 46.7988C71.4043 46.7988 71.5918 46.75 71.7441 46.6523C71.8965 46.5508 72.0195 46.4121 72.1133 46.2363C72.2109 46.0605 72.2793 45.8574 72.3184 45.627C72.3613 45.3965 72.3828 45.1484 72.3828 44.8828Z" fill="white"/>
</svg>
