<svg width="42" height="42" viewBox="0 0 42 42" fill="none" xmlns="http://www.w3.org/2000/svg">
<circle cx="21" cy="21" r="21" fill="white"/>
<path d="M30.8911 12H11.1098C10.7851 12 10.4811 12.0798 10.2061 12.2114L20.9535 22.9589L23.3624 20.6439C23.3624 20.6439 23.3626 20.6436 23.3626 20.6435C23.3627 20.6434 23.3629 20.6433 23.3629 20.6433L31.7951 12.2116C31.52 12.0799 31.2158 12 30.8911 12Z" fill="black"/>
<path d="M32.7892 13.2061L24.854 21.1408L32.7889 29.0757C32.9205 28.8007 33.0003 28.4967 33.0003 28.172V14.1094C33.0003 13.7849 32.9206 13.481 32.7892 13.2061Z" fill="black"/>
<path d="M9.21141 13.2051C9.07983 13.4801 9 13.7841 9 14.1088V28.1713C9 28.4958 9.07973 28.7999 9.21122 29.0748L17.1464 21.14L9.21141 13.2051Z" fill="black"/>
<path d="M23.8597 22.1349L21.4505 24.4502C21.3132 24.5875 21.1333 24.6562 20.9534 24.6562C20.7736 24.6562 20.5936 24.5875 20.4563 24.4502L18.1409 22.1348L10.2056 30.0695C10.4806 30.2012 10.7848 30.2811 11.1096 30.2811H30.8909C31.2156 30.2811 31.5196 30.2013 31.7946 30.0697L23.8597 22.1349Z" fill="black"/>
</svg>
