<svg width="109" height="108" viewBox="0 0 109 108" fill="none" xmlns="http://www.w3.org/2000/svg">
<path fill-rule="evenodd" clip-rule="evenodd" d="M29 6.5C29 4.567 30.567 3 32.5 3H79C79.8284 3 80.5 2.32843 80.5 1.5C80.5 0.671573 79.8284 0 79 0H32.5C28.9101 0 26 2.91015 26 6.5V26.81C18.3471 30.1593 13 37.7988 13 46.6872C13 58.6647 22.7097 68.3744 34.6872 68.3744C46.6647 68.3744 56.3744 58.6647 56.3744 46.6872C56.3744 34.7097 46.6647 25 34.6872 25C32.7192 25 30.8125 25.2621 29 25.7534V13H56.5C57.3284 13 58 12.3284 58 11.5C58 10.6716 57.3284 10 56.5 10H29V6.5ZM45.845 61.6792C42.7311 64.0004 38.8696 65.3744 34.6872 65.3744C30.5041 65.3744 26.642 63.9999 23.5279 61.678C23.5411 60.7009 23.7996 59.7195 24.3088 58.7828C24.8333 57.818 25.6185 56.9119 26.6442 56.1304C27.6701 55.3487 28.9078 54.7142 30.2934 54.2769C31.6786 53.8398 33.1722 53.6123 34.6864 53.6123C36.2007 53.6123 37.6942 53.8398 39.0794 54.2769C40.465 54.7142 41.7027 55.3487 42.7287 56.1304C43.7544 56.9119 44.5395 57.818 45.064 58.7828C45.5735 59.7198 45.8319 60.7016 45.845 61.6792ZM48.4942 59.2802C51.5256 55.9584 53.3744 51.5387 53.3744 46.6872C53.3744 36.3665 45.0079 28 34.6872 28C24.3665 28 16 36.3665 16 46.6872C16 51.538 17.8483 55.9572 20.879 59.2789C21.0694 58.6168 21.3354 57.9711 21.6731 57.3499C22.421 55.9743 23.5007 54.7539 24.826 53.7441C26.1511 52.7346 27.7044 51.9482 29.3906 51.416C29.5201 51.3751 29.6503 51.3358 29.7812 51.298C27.529 49.7856 26.0469 47.2151 26.0469 44.2984C26.0469 39.6452 29.819 35.873 34.4722 35.873C39.1254 35.873 42.8975 39.6452 42.8975 44.2984C42.8975 47.1612 41.4697 49.6906 39.2872 51.2131C39.5208 51.2759 39.7526 51.3435 39.9823 51.416C41.6684 51.9482 43.2217 52.7346 44.5468 53.7441C45.8721 54.7539 46.9519 55.9743 47.6997 57.3499C48.0376 57.9715 48.3038 58.6177 48.4942 59.2802ZM34.4722 49.7237C37.4685 49.7237 39.8975 47.2947 39.8975 44.2984C39.8975 41.302 37.4685 38.873 34.4722 38.873C31.4759 38.873 29.0469 41.302 29.0469 44.2984C29.0469 47.2947 31.4759 49.7237 34.4722 49.7237Z" fill="white"/>
<path d="M82 83C82.8284 83 83.5 83.6716 83.5 84.5V101C83.5 104.59 80.5899 107.5 77 107.5H35.8842C33.6957 107.5 31.562 106.816 29.7812 105.544L28.6281 104.721C27.954 104.239 27.7979 103.302 28.2794 102.628C28.7609 101.954 29.6977 101.798 30.3719 102.279L31.5249 103.103C32.7969 104.012 34.321 104.5 35.8842 104.5H77C78.933 104.5 80.5 102.933 80.5 101V93H48.5C47.6716 93 47 92.3284 47 91.5C47 90.6716 47.6716 90 48.5 90H80.5V84.5C80.5 83.6716 81.1716 83 82 83Z" fill="white"/>
<path fill-rule="evenodd" clip-rule="evenodd" d="M83.5 36.5C83.5 35.6716 82.8284 35 82 35C81.1716 35 80.5 35.6716 80.5 36.5V52.4227L69.3627 61.5838C68.1034 61.7988 66.363 62.2386 64.7261 62.9514C62.9708 63.7159 60.9596 64.9544 60.1214 66.9088C58.869 69.8291 58.5 72.0692 58.5 73V80.9198C58.4858 80.9491 58.4557 81.0047 58.396 81.0884C58.2507 81.292 58.0147 81.5439 57.6966 81.8239C57.0629 82.3815 56.2769 82.8998 55.7558 83.1975C55.1653 83.535 54.8757 84.2275 55.0502 84.8849C55.2248 85.5423 55.8198 85.9999 56.5 85.9999H71.5879L71.6753 85.9896C75.6385 85.5234 78.1405 83.255 79.6026 80.6946C80.8908 78.4386 81.3973 75.9294 81.4856 74.0889L106.053 46.4501C107.153 45.2131 108.109 43.6485 108.463 41.9956C108.829 40.2848 108.544 38.423 107.06 36.9396C106.153 36.0324 105.072 35.6069 103.938 35.5737C102.856 35.542 101.808 35.8683 100.88 36.3018C99.0706 37.1469 97.2859 38.6151 95.9504 39.7137L83.5 49.955V36.5ZM69.4874 64.6108C68.4646 64.8116 67.1456 65.1699 65.9239 65.7019C64.3126 66.4037 63.2404 67.2475 62.8786 68.0912C61.731 70.7671 61.5 72.5959 61.5 73V81C61.5 81.7593 61.1469 82.3978 60.8384 82.8303C60.7977 82.8875 60.7555 82.944 60.7122 82.9999H71.4087C74.1961 82.6454 75.9202 81.0934 76.9974 79.207C77.978 77.4897 78.3939 75.5262 78.4818 74.0808L69.9249 65.0486L69.4874 64.6108ZM72.2248 63.1141L79.9648 71.2841L103.811 44.457C104.688 43.4707 105.317 42.3603 105.529 41.3682C105.729 40.434 105.559 39.6808 104.94 39.0613C104.586 38.7079 104.238 38.5838 103.851 38.5724C103.412 38.5596 102.848 38.6937 102.15 39.0199C100.728 39.6841 99.2223 40.9069 97.8086 42.0697L72.2248 63.1141Z" fill="white"/>
<path d="M7 90C7 89.1716 7.67157 88.5 8.5 88.5H15C15.8284 88.5 16.5 89.1716 16.5 90C16.5 90.8284 15.8284 91.5 15 91.5H8.5C7.67157 91.5 7 90.8284 7 90Z" fill="white"/>
<path d="M21 88.5C20.1716 88.5 19.5 89.1716 19.5 90C19.5 90.8284 20.1716 91.5 21 91.5H35.5C36.3284 91.5 37 90.8284 37 90C37 89.1716 36.3284 88.5 35.5 88.5H21Z" fill="white"/>
<path fill-rule="evenodd" clip-rule="evenodd" d="M4 81H26V74C26 73.1716 26.6716 72.5 27.5 72.5C28.3284 72.5 29 73.1716 29 74V81H40C42.2091 81 44 82.7909 44 85V95C44 97.2091 42.2091 99 40 99H4C1.79086 99 0 97.2091 0 95V85C0 82.7909 1.79086 81 4 81ZM4 84H40C40.5523 84 41 84.4477 41 85V95C41 95.5523 40.5523 96 40 96H4C3.44772 96 3 95.5523 3 95V85C3 84.4477 3.44772 84 4 84Z" fill="white"/>
<path d="M71 21C70.1716 21 69.5 21.6716 69.5 22.5C69.5 23.3284 70.1716 24 71 24H96.5C97.3284 24 98 23.3284 98 22.5C98 21.6716 97.3284 21 96.5 21H71Z" fill="white"/>
<path d="M69 15.5C69 14.6716 69.6716 14 70.5 14H74.5C75.3284 14 76 14.6716 76 15.5C76 16.3284 75.3284 17 74.5 17H70.5C69.6716 17 69 16.3284 69 15.5Z" fill="white"/>
<path d="M81.5 14C80.6716 14 80 14.6716 80 15.5C80 16.3284 80.6716 17 81.5 17H96.5C97.3284 17 98 16.3284 98 15.5C98 14.6716 97.3284 14 96.5 14H81.5Z" fill="white"/>
<path fill-rule="evenodd" clip-rule="evenodd" d="M102 6H66C63.7909 6 62 7.79086 62 10V28C62 30.2091 63.7909 32 66 32H102C104.209 32 106 30.2091 106 28V10C106 7.79086 104.209 6 102 6ZM65 10C65 9.44772 65.4477 9 66 9H102C102.552 9 103 9.44772 103 10V28C103 28.5523 102.552 29 102 29H66C65.4477 29 65 28.5523 65 28V10Z" fill="white"/>
<path d="M55 101C56.1046 101 57 100.105 57 99C57 97.8954 56.1046 97 55 97C53.8954 97 53 97.8954 53 99C53 100.105 53.8954 101 55 101Z" fill="white"/>
</svg>
