<svg width="172" height="171" viewBox="0 0 172 171" fill="none" xmlns="http://www.w3.org/2000/svg">
<path fill-rule="evenodd" clip-rule="evenodd" d="M43.6992 6.9121C43.6992 4.97911 45.2662 3.41211 47.1992 3.41211H124.599C125.428 3.41211 126.099 2.74054 126.099 1.91211C126.099 1.08368 125.428 0.412109 124.599 0.412109H47.1992C43.6094 0.412109 40.6992 3.32225 40.6992 6.9121V42.7121H43.6992V19.4121H88.6C89.4284 19.4121 90.1 18.7405 90.1 17.9121C90.1 17.0837 89.4284 16.4121 88.6 16.4121H43.6992V6.9121ZM53.6983 107.111C71.8683 107.111 86.5979 92.381 86.5979 74.211C86.5979 56.0411 71.8683 41.3115 53.6983 41.3115C35.5284 41.3115 20.7988 56.0411 20.7988 74.211C20.7988 92.381 35.5284 107.111 53.6983 107.111ZM72.4212 97.5241C67.2969 101.645 60.7856 104.111 53.6983 104.111C46.6107 104.111 40.099 101.644 34.9746 97.5234C35.0914 96.0293 35.5352 94.5468 36.303 93.1345C37.2092 91.4676 38.5538 89.9235 40.2848 88.6047C42.0161 87.2856 44.0911 86.2249 46.3982 85.4967C48.7049 84.7688 51.1862 84.3916 53.6979 84.3916C56.2096 84.3916 58.6908 84.7688 60.9975 85.4967C63.3046 86.2249 65.3797 87.2856 67.1109 88.6047C68.8419 89.9235 70.1866 91.4676 71.0928 93.1345C71.8607 94.547 72.3045 96.0298 72.4212 97.5241ZM75.0636 95.1277C74.7746 93.9509 74.3268 92.8023 73.7284 91.7016C72.5989 89.6239 70.9597 87.7655 68.929 86.2184C66.8987 84.6714 64.508 83.4588 61.9004 82.6358C60.2494 82.1148 58.527 81.7548 56.7729 81.5608C61.5559 80.0991 65.0348 75.6501 65.0348 70.3885C65.0348 63.9375 59.8053 58.708 53.3543 58.708C46.9034 58.708 41.6738 63.9375 41.6738 70.3885C41.6738 75.7223 45.249 80.2211 50.1336 81.6193C48.5485 81.8233 46.9926 82.1633 45.4954 82.6358C42.8877 83.4588 40.4971 84.6714 38.4667 86.2184C36.4361 87.7655 34.7969 89.6239 33.6673 91.7016C33.069 92.802 32.6213 93.9504 32.3323 95.1269C27.0533 89.735 23.7988 82.3531 23.7988 74.211C23.7988 57.698 37.1853 44.3115 53.6983 44.3115C70.2114 44.3115 83.5979 57.698 83.5979 74.211C83.5979 82.3535 80.3431 89.7357 75.0636 95.1277ZM53.3543 79.069C58.1484 79.069 62.0348 75.1826 62.0348 70.3885C62.0348 65.5944 58.1484 61.708 53.3543 61.708C48.5602 61.708 44.6738 65.5944 44.6738 70.3885C44.6738 75.1826 48.5602 79.069 53.3543 79.069ZM129.4 133.212C130.229 133.212 130.9 133.883 130.9 134.712V164.112C130.9 167.702 127.99 170.612 124.4 170.612H53.8846C51.6961 170.612 49.5624 169.928 47.7816 168.656L44.5285 166.333C43.8544 165.851 43.6983 164.914 44.1798 164.24C44.6613 163.566 45.5981 163.41 46.2722 163.891L49.5253 166.215C50.7973 167.123 52.3214 167.612 53.8846 167.612H124.4C126.333 167.612 127.9 166.045 127.9 164.112V147.412H75.8008C74.9724 147.412 74.3008 146.741 74.3008 145.912C74.3008 145.084 74.9724 144.412 75.8008 144.412H127.9V134.712C127.9 133.883 128.572 133.212 129.4 133.212ZM130.9 57.9121C130.9 57.0837 130.229 56.4121 129.4 56.4121C128.572 56.4121 127.9 57.0837 127.9 57.9121V83.8128L109.565 98.8945C107.596 99.2123 104.766 99.9078 102.121 101.06C99.3554 102.264 96.4192 104.127 95.221 106.921C93.2486 111.52 92.6996 114.981 92.6996 116.312V116.332V116.353V116.373V116.394V116.415V116.436V116.456V116.477V116.499V116.52V116.541V116.562V116.584V116.605V116.627V116.648V116.67V116.692V116.714V116.736V116.758V116.78V116.802V116.825V116.847V116.87V116.892V116.915V116.937V116.96V116.983V117.006V117.029V117.052V117.075V117.099V117.122V117.145V117.169V117.192V117.216V117.24V117.263V117.287V117.311V117.335V117.359V117.383V117.408V117.432V117.456V117.481V117.505V117.53V117.554V117.579V117.604V117.628V117.653V117.678V117.703V117.728V117.753V117.779V117.804V117.829V117.855V117.88V117.906V117.931V117.957V117.982V118.008V118.034V118.06V118.086V118.112V118.138V118.164V118.19V118.216V118.243V118.269V118.295V118.322V118.348V118.375V118.401V118.428V118.455V118.482V118.508V118.535V118.562V118.589V118.616V118.643V118.67V118.697V118.725V118.752V118.779V118.807V118.834V118.861V118.889V118.916V118.944V118.972V118.999V119.027V119.055V119.083V119.111V119.138V119.166V119.194V119.222V119.25V119.278V119.307V119.335V119.363V119.391V119.42V119.448V119.476V119.505V119.533V119.562V119.59V119.619V119.647V119.676V119.704V119.733V119.762V119.791V119.819V119.848V119.877V119.906V119.935V119.964V119.993V120.022V120.051V120.08V120.109V120.138V120.167V120.196V120.225V120.255V120.284V120.313V120.342V120.372V120.401V120.43V120.46V120.489V120.518V120.548V120.577V120.607V120.636V120.666V120.695V120.725V120.755V120.784V120.814V120.843V120.873V120.903V120.932V120.962V120.992V121.022V121.051V121.081V121.111V121.141V121.17V121.2V121.23V121.26V121.29V121.32V121.349V121.379V121.409V121.439V121.469V121.499V121.529V121.559V121.589V121.619V121.649V121.678V121.708V121.738V121.768V121.798V121.828V121.858V121.888V121.918V121.948V121.978V122.008V122.038V122.068V122.098V122.128V122.158V122.188V122.218V122.248V122.278V122.308V122.338V122.368V122.398V122.428V122.458V122.488V122.518V122.547V122.577V122.607V122.637V122.667V122.697V122.727V122.757V122.787V122.816V122.846V122.876V122.906V122.936V122.965V122.995V123.025V123.055V123.084V123.114V123.144V123.174V123.203V123.233V123.262V123.292V123.322V123.351V123.381V123.41V123.44V123.469V123.499V123.528V123.558V123.587V123.617V123.646V123.675V123.705V123.734V123.763V123.793V123.822V123.851V123.88V123.909V123.938V123.968V123.997V124.026V124.055V124.084V124.113V124.142V124.171V124.199V124.228V124.257V124.286V124.315V124.343V124.372V124.401V124.429V124.458V124.486V124.515V124.543V124.572V124.6V124.629V124.657V124.685V124.713V124.742V124.77V124.798V124.826V124.854V124.882V124.91V124.938V124.966V124.994V125.022V125.049V125.077V125.105V125.132V125.16V125.188V125.215V125.243V125.27V125.297V125.325V125.352V125.379V125.406V125.433V125.46V125.487V125.514V125.541V125.568V125.595V125.622V125.648V125.675V125.702V125.728V125.755V125.781V125.808V125.834V125.86V125.886V125.913V125.939V125.965V125.991V126.017V126.043V126.068V126.094V126.12V126.146V126.171V126.197V126.222V126.247V126.273V126.298V126.323V126.348V126.374V126.399V126.423V126.448V126.473V126.498V126.523V126.547V126.572V126.596V126.621V126.645V126.669V126.693V126.718V126.742V126.766V126.79V126.813V126.837V126.861V126.885V126.908V126.932V126.955V126.978V127.002V127.025V127.048V127.071V127.094V127.117V127.14V127.162V127.185V127.208V127.23V127.252V127.275V127.297V127.319V127.341V127.363V127.385V127.407V127.429V127.45V127.472V127.494V127.515V127.536V127.558V127.579V127.6V127.621V127.642V127.662V127.683V127.704V127.724V127.745V127.765V127.785V127.806V127.826V127.846V127.866V127.886V127.905V127.925V127.944V127.964V127.983V128.002V128.022V128.041V128.06V128.079V128.097V128.116V128.135V128.153V128.171V128.19V128.208V128.226V128.244V128.262V128.28V128.297V128.315V128.332V128.35V128.367V128.384V128.401V128.418V128.435V128.452V128.468V128.485V128.501V128.518V128.534V128.55V128.566V128.582V128.598V128.613V128.629V128.644V128.66V128.675V128.69V128.705V128.72V128.735V128.749V128.764V128.778V128.793V128.807V128.821V128.835V128.849V128.863V128.876V128.89V128.903V128.916V128.929V128.942V128.955V128.968V128.981V128.993V129.006V129.018V129.03V129.042V129.054V129.066V129.078V129.089V129.101V129.112C92.6996 129.11 92.6993 129.165 92.6481 129.29C92.597 129.414 92.5078 129.577 92.3659 129.776C92.0785 130.179 91.6456 130.634 91.1087 131.106C90.0375 132.049 88.7265 132.912 87.8554 133.41C87.2649 133.747 86.9753 134.44 87.1499 135.097C87.3244 135.754 87.9195 136.212 88.5996 136.212H112.6H112.688L112.775 136.202C118.778 135.495 122.555 132.077 124.782 128.177C126.835 124.583 127.599 120.55 127.69 117.697L167.322 73.1115C168.978 71.2484 170.387 68.9291 170.91 66.5282C171.446 64.0706 171.049 61.4646 168.983 59.3753L168.922 59.3143L168.86 59.252C168.244 58.6359 167.57 58.1725 166.867 57.8385C164.269 56.6035 161.703 57.2443 159.537 58.3714C157.574 59.393 155.701 60.9397 154.125 62.2405L154.125 62.2406L154.125 62.2408L154.124 62.2409L154.11 62.2527C153.977 62.3629 153.845 62.4713 153.716 62.5774L130.9 81.3451V57.9121ZM4 130.912H40.6992V117.912C40.6992 117.084 41.3708 116.412 42.1992 116.412C43.0276 116.412 43.6992 117.084 43.6992 117.912V130.912H62.8C65.0091 130.912 66.8 132.703 66.8 134.912V152.112C66.8 154.321 65.0091 156.112 62.8 156.112H4C1.79086 156.112 0 154.321 0 152.112V134.912C0 132.703 1.79086 130.912 4 130.912ZM4 133.912C3.44772 133.912 3 134.36 3 134.912V152.112C3 152.664 3.44772 153.112 4 153.112H62.8C63.3523 153.112 63.8 152.664 63.8 152.112V134.912C63.8 134.36 63.3523 133.912 62.8 133.912H4ZM161.999 10.9121H103.199C100.99 10.9121 99.1992 12.703 99.1992 14.9121V44.9121C99.1992 47.1212 100.99 48.9121 103.199 48.9121H161.999C164.208 48.9121 165.999 47.1213 165.999 44.9121V14.9121C165.999 12.703 164.208 10.9121 161.999 10.9121ZM102.199 14.9121C102.199 14.3598 102.647 13.9121 103.199 13.9121H161.999C162.551 13.9121 162.999 14.3598 162.999 14.9121V44.9121C162.999 45.4644 162.551 45.9121 161.999 45.9121H103.199C102.647 45.9121 102.199 45.4644 102.199 44.9121V14.9121ZM111.801 34.0117C110.972 34.0117 110.301 34.6833 110.301 35.5117C110.301 36.3401 110.972 37.0117 111.801 37.0117H152.601C153.429 37.0117 154.101 36.3401 154.101 35.5117C154.101 34.6833 153.429 34.0117 152.601 34.0117H111.801ZM109.5 24.3125C109.5 23.4841 110.172 22.8125 111 22.8125H117.4C118.228 22.8125 118.9 23.4841 118.9 24.3125C118.9 25.1409 118.228 25.8125 117.4 25.8125H111C110.172 25.8125 109.5 25.1409 109.5 24.3125ZM128.6 22.8125C127.771 22.8125 127.1 23.4841 127.1 24.3125C127.1 25.1409 127.771 25.8125 128.6 25.8125H152.6C153.428 25.8125 154.1 25.1409 154.1 24.3125C154.1 23.4841 153.428 22.8125 152.6 22.8125H128.6ZM109.681 101.918C107.935 102.227 105.536 102.844 103.319 103.81C100.697 104.952 98.7 106.42 97.9782 108.103C96.1106 112.458 95.6996 115.508 95.6996 116.312V116.332V116.353V116.373V116.394V116.415V116.436V116.456V116.477V116.499V116.52V116.541V116.562V116.584V116.605V116.627V116.648V116.67V116.692V116.714V116.736V116.758V116.78V116.802V116.825V116.847V116.87V116.892V116.915V116.937V116.96V116.983V117.006V117.029V117.052V117.075V117.099V117.122V117.145V117.169V117.192V117.216V117.24V117.263V117.287V117.311V117.335V117.359V117.383V117.408V117.432V117.456V117.481V117.505V117.53V117.554V117.579V117.604V117.628V117.653V117.678V117.703V117.728V117.753V117.779V117.804V117.829V117.855V117.88V117.906V117.931V117.957V117.982V118.008V118.034V118.06V118.086V118.112V118.138V118.164V118.19V118.216V118.243V118.269V118.295V118.322V118.348V118.375V118.401V118.428V118.455V118.482V118.508V118.535V118.562V118.589V118.616V118.643V118.67V118.697V118.725V118.752V118.779V118.807V118.834V118.861V118.889V118.916V118.944V118.972V118.999V119.027V119.055V119.083V119.111V119.138V119.166V119.194V119.222V119.25V119.278V119.307V119.335V119.363V119.391V119.42V119.448V119.476V119.505V119.533V119.562V119.59V119.619V119.647V119.676V119.704V119.733V119.762V119.791V119.819V119.848V119.877V119.906V119.935V119.964V119.993V120.022V120.051V120.08V120.109V120.138V120.167V120.196V120.225V120.255V120.284V120.313V120.342V120.372V120.401V120.43V120.46V120.489V120.518V120.548V120.577V120.607V120.636V120.666V120.695V120.725V120.755V120.784V120.814V120.843V120.873V120.903V120.932V120.962V120.992V121.022V121.051V121.081V121.111V121.141V121.17V121.2V121.23V121.26V121.29V121.32V121.349V121.379V121.409V121.439V121.469V121.499V121.529V121.559V121.589V121.619V121.649V121.678V121.708V121.738V121.768V121.798V121.828V121.858V121.888V121.918V121.948V121.978V122.008V122.038V122.068V122.098V122.128V122.158V122.188V122.218V122.248V122.278V122.308V122.338V122.368V122.398V122.428V122.458V122.488V122.518V122.547V122.577V122.607V122.637V122.667V122.697V122.727V122.757V122.787V122.816V122.846V122.876V122.906V122.936V122.965V122.995V123.025V123.055V123.084V123.114V123.144V123.174V123.203V123.233V123.262V123.292V123.322V123.351V123.381V123.41V123.44V123.469V123.499V123.528V123.558V123.587V123.617V123.646V123.675V123.705V123.734V123.763V123.793V123.822V123.851V123.88V123.909V123.938V123.968V123.997V124.026V124.055V124.084V124.113V124.142V124.171V124.199V124.228V124.257V124.286V124.315V124.343V124.372V124.401V124.429V124.458V124.486V124.515V124.543V124.572V124.6V124.629V124.657V124.685V124.713V124.742V124.77V124.798V124.826V124.854V124.882V124.91V124.938V124.966V124.994V125.022V125.049V125.077V125.105V125.132V125.16V125.188V125.215V125.243V125.27V125.297V125.325V125.352V125.379V125.406V125.433V125.46V125.487V125.514V125.541V125.568V125.595V125.622V125.648V125.675V125.702V125.728V125.755V125.781V125.808V125.834V125.86V125.886V125.913V125.939V125.965V125.991V126.017V126.043V126.068V126.094V126.12V126.146V126.171V126.197V126.222V126.247V126.273V126.298V126.323V126.348V126.374V126.399V126.423V126.448V126.473V126.498V126.523V126.547V126.572V126.596V126.621V126.645V126.669V126.693V126.718V126.742V126.766V126.79V126.813V126.837V126.861V126.885V126.908V126.932V126.955V126.978V127.002V127.025V127.048V127.071V127.094V127.117V127.14V127.162V127.185V127.208V127.23V127.252V127.275V127.297V127.319V127.341V127.363V127.385V127.407V127.429V127.45V127.472V127.494V127.515V127.536V127.558V127.579V127.6V127.621V127.642V127.662V127.683V127.704V127.724V127.745V127.765V127.785V127.806V127.826V127.846V127.866V127.886V127.905V127.925V127.944V127.964V127.983V128.002V128.022V128.041V128.06V128.079V128.097V128.116V128.135V128.153V128.171V128.19V128.208V128.226V128.244V128.262V128.28V128.297V128.315V128.332V128.35V128.367V128.384V128.401V128.418V128.435V128.452V128.468V128.485V128.501V128.518V128.534V128.55V128.566V128.582V128.598V128.613V128.629V128.644V128.66V128.675V128.69V128.705V128.72V128.735V128.749V128.764V128.778V128.793V128.807V128.821V128.835V128.849V128.863V128.876V128.89V128.903V128.916V128.929V128.942V128.955V128.968V128.981V128.993V129.006V129.018V129.03V129.042V129.054V129.066V129.078V129.089V129.101V129.112C95.6996 130.051 95.259 130.886 94.8083 131.518C94.3784 132.121 93.8265 132.695 93.2545 133.212H112.51C117.336 132.617 120.335 129.916 122.177 126.69C123.917 123.642 124.595 120.158 124.688 117.702L110.725 102.962L109.681 101.918ZM126.164 114.898L165.079 71.1184C166.515 69.5036 167.599 67.6347 167.979 65.8896C168.347 64.2014 168.056 62.704 166.85 61.485C166.813 61.4482 166.777 61.4111 166.739 61.3737C166.369 61.0032 165.977 60.7372 165.579 60.5478C164.19 59.8873 162.684 60.1156 160.922 61.0326C159.255 61.9004 157.62 63.2475 155.988 64.5929L155.988 64.593L155.988 64.5931C155.866 64.6936 155.744 64.7941 155.622 64.8943L112.429 100.424L112.861 100.855L112.875 100.87L112.889 100.884L126.164 114.898ZM10.3008 143.512C10.3008 142.683 10.9724 142.012 11.8008 142.012H22.2008C23.0292 142.012 23.7008 142.683 23.7008 143.512C23.7008 144.34 23.0292 145.012 22.2008 145.012H11.8008C10.9724 145.012 10.3008 144.34 10.3008 143.512ZM31.8008 142.012C30.9724 142.012 30.3008 142.683 30.3008 143.512C30.3008 144.34 30.9724 145.012 31.8008 145.012H55.0008C55.8292 145.012 56.5008 144.34 56.5008 143.512C56.5008 142.683 55.8292 142.012 55.0008 142.012H31.8008ZM86.2 161.112C87.9673 161.112 89.4 159.679 89.4 157.912C89.4 156.145 87.9673 154.712 86.2 154.712C84.4327 154.712 83 156.145 83 157.912C83 159.679 84.4327 161.112 86.2 161.112Z" fill="white"/>
</svg>
