<svg width="194" height="185" viewBox="0 0 194 185" fill="none" xmlns="http://www.w3.org/2000/svg">
<path fill-rule="evenodd" clip-rule="evenodd" d="M44.5729 160.632C45.0102 160.387 45.4698 160.178 45.9479 160.007C43.8834 146.407 44.9754 131.252 47.7571 117.481C50.4682 104.06 54.8182 91.7892 59.5626 83.4175C58.0812 82.0584 57.0512 80.2153 56.7232 78.1387C44.0317 77.3959 26.668 79.9935 18.2033 81.6576C18.08 85.3366 15.774 88.4624 12.5392 89.7812C12.3128 97.2288 13.0264 104.733 14.7083 112.117C19.0604 131.222 29.608 148.252 44.5729 160.632ZM17.4603 77.7272C16.8081 76.2237 15.762 74.9308 14.4522 73.9785C16.4531 64.6152 19.9778 55.5572 24.9663 47.1848C25.5317 46.2359 25.2208 45.0084 24.2719 44.443C23.323 43.8776 22.0954 44.1885 21.53 45.1374C16.4509 53.6619 12.8236 62.8664 10.706 72.3835C10.186 72.2912 9.65075 72.243 9.10423 72.243C4.0761 72.243 0 76.3191 0 81.3473C0 86.1794 3.76452 90.1323 8.52076 90.4331C8.35485 97.9634 9.10846 105.544 10.8082 113.005C15.313 132.781 26.1685 150.429 41.5695 163.336C40.5218 164.819 39.9062 166.629 39.9062 168.583C39.9062 173.611 43.9824 177.687 49.0105 177.687C52.1842 177.687 54.9786 176.063 56.6082 173.601C75.0006 183.658 96.3478 187.203 117.14 183.51C126.359 181.872 135.191 178.86 143.369 174.64C145.036 176.51 147.464 177.687 150.167 177.687C155.195 177.687 159.271 173.611 159.271 168.583C159.271 167.261 158.989 166.004 158.482 164.871C164.855 159.808 170.583 153.885 175.483 147.217C189.547 128.075 195.705 104.255 192.681 80.6947C191.004 67.6272 186.573 55.1957 179.812 44.1605C181.456 42.5135 182.472 40.24 182.472 37.7291C182.472 32.701 178.396 28.6249 173.368 28.6249C171.759 28.6249 170.247 29.0423 168.936 29.7747C166.012 26.6049 162.854 23.6267 159.478 20.8679C159.942 19.7755 160.199 18.5739 160.199 17.3124C160.199 12.2842 156.123 8.20813 151.095 8.20813C148.548 8.20813 146.246 9.25367 144.593 10.9389C129.081 2.63797 111.402 -1.12444 93.6216 0.292329C80.0811 1.37122 67.0751 5.40624 55.4581 11.9738C53.8037 9.69222 51.1165 8.20836 48.0827 8.20836C43.0546 8.20836 38.9785 12.2845 38.9785 17.3126C38.9785 19.2194 39.5647 20.9893 40.5667 22.4519C37.5696 25.0374 34.7265 27.8259 32.0594 30.8064C31.3228 31.6295 31.393 32.8939 32.2161 33.6305C33.0392 34.3671 34.3036 34.2969 35.0402 33.4738C37.6919 30.5105 40.5253 27.7457 43.517 25.1909C44.8592 25.9705 46.4188 26.4168 48.0827 26.4168C51.5579 26.4168 54.5784 24.4697 56.1126 21.6069C61.9795 22.6384 77.2186 27.0752 91.1958 36.5356C91.0333 37.2163 90.9473 37.9268 90.9473 38.6573C90.9473 40.063 91.2659 41.3944 91.8348 42.583C84.5803 48.5577 73.5803 61.3698 68.2191 67.9514C67.4237 67.7244 66.5838 67.6029 65.7156 67.6029C61.5764 67.6029 58.0824 70.3651 56.9763 74.1468C43.7756 73.3724 26.0461 76.0415 17.4603 77.7272ZM92.984 32.9178C78.866 23.484 63.6598 18.944 57.1774 17.7348C57.1837 17.5949 57.187 17.4541 57.187 17.3126C57.187 16.7537 57.1366 16.2066 57.0402 15.6756C68.2524 9.26239 80.8342 5.3239 93.9392 4.27969C110.866 2.93096 127.696 6.48811 142.484 14.3473C142.201 15.1688 142.033 16.0436 141.997 16.9525C136.488 17.9881 129.586 20.754 123.178 23.7744C116.841 26.7614 110.804 30.0861 106.75 32.4916C105.086 30.685 102.701 29.5531 100.051 29.5531C97.1992 29.5531 94.6533 30.8647 92.984 32.9178ZM142.719 20.8866C137.78 21.816 131.274 24.3805 124.883 27.3927C118.651 30.3304 112.705 33.6074 108.749 35.9569C109.013 36.8102 109.156 37.7171 109.156 38.6573C109.156 40.1902 108.777 41.6346 108.108 42.902C113.207 47.5962 120.749 55.251 127.693 63.7864C134.523 72.1813 140.943 81.6302 143.757 90.0476C144.329 89.9349 144.921 89.8758 145.526 89.8758C146.656 89.8758 147.737 90.0815 148.735 90.4575C150.048 88.6481 151.579 85.9645 153.231 82.666C155.118 78.8973 157.106 74.4442 159.041 69.8213C162.738 60.9898 166.214 51.6124 168.396 45.3572C165.908 43.7322 164.264 40.9227 164.264 37.7291C164.264 35.7579 164.89 33.933 165.955 32.4427C163.224 29.4862 160.281 26.7043 157.138 24.1216C155.531 25.5494 153.414 26.4166 151.095 26.4166C147.335 26.4166 144.108 24.138 142.719 20.8866ZM172.146 46.752C169.941 53.0672 166.45 62.4814 162.731 71.366C160.776 76.0351 158.75 80.5782 156.807 84.4572C155.183 87.7002 153.575 90.5654 152.078 92.6592C153.658 94.2967 154.63 96.5249 154.63 98.9801C154.63 100.269 154.362 101.496 153.879 102.608C159.92 106.626 173.033 116.455 182.393 127.054C188.484 112.713 190.728 96.8982 188.714 81.204C187.111 68.7231 182.884 56.8485 176.434 46.3041C175.476 46.6467 174.444 46.8333 173.368 46.8333C172.954 46.8333 172.546 46.8056 172.146 46.752ZM180.571 131.063C171.447 120.259 157.611 109.875 151.514 105.839C151.002 106.286 150.439 106.677 149.836 107.001C151.023 110.917 152.726 118.116 153.991 125.071C154.188 126.158 153.468 127.199 152.381 127.397C151.294 127.595 150.253 126.874 150.055 125.787C148.778 118.763 147.08 111.669 145.982 108.073C145.831 108.081 145.679 108.084 145.526 108.084C144.058 108.084 142.671 107.737 141.443 107.12C132.775 120.311 118.136 132.871 102.68 143.327C87.1474 153.834 70.6028 162.34 58.0281 167.322C58.0852 167.734 58.1147 168.155 58.1147 168.583C58.1147 169.002 58.0864 169.415 58.0316 169.818C75.7399 179.648 96.3606 183.138 116.44 179.571C125.22 178.011 133.632 175.149 141.427 171.141C141.189 170.329 141.062 169.471 141.062 168.583C141.062 163.694 144.916 159.705 149.751 159.488C149.8 159.209 149.853 158.922 149.906 158.636L149.94 158.452C150.143 157.359 150.396 155.994 150.621 154.336C151.069 151.027 151.408 146.533 150.957 140.901C150.869 139.8 151.69 138.836 152.791 138.748C153.892 138.66 154.856 139.481 154.944 140.582C155.422 146.551 155.064 151.337 154.585 154.873C154.347 156.628 154.079 158.071 153.876 159.165L153.876 159.166L153.873 159.182C153.798 159.587 153.738 159.918 153.691 160.186C154.567 160.555 155.374 161.056 156.086 161.665C162.147 156.838 167.595 151.197 172.259 144.849C175.464 140.486 178.24 135.87 180.571 131.063ZM100.051 47.7616C102.098 47.7616 103.988 47.086 105.508 45.9458C110.481 50.5338 117.83 58.0018 124.59 66.3107C131.484 74.785 137.591 83.9251 140.083 91.6812C139.301 92.2656 138.616 92.9729 138.056 93.7745C116.046 79.6098 87.3421 75.2354 74.6064 74.7383C74.1881 72.8409 73.1779 71.1656 71.7793 69.916C77.2655 63.2199 87.602 51.2699 94.3119 45.7248C95.878 46.9982 97.8756 47.7616 100.051 47.7616ZM74.5918 78.7409C87.119 79.2526 115.352 83.6423 136.533 97.5553C136.46 98.0195 136.422 98.4954 136.422 98.9801C136.422 101.084 137.136 103.022 138.334 104.564C130.132 117.226 115.879 129.569 100.439 140.014C85.159 150.35 68.8993 158.706 56.617 163.578C55.1461 161.347 52.7198 159.802 49.9205 159.524C47.9221 146.489 48.9499 131.778 51.6779 118.273C54.3319 105.135 58.5616 93.3033 63.0315 85.4092C63.8799 85.6706 64.7813 85.8114 65.7156 85.8114C70.0446 85.8114 73.6679 82.7899 74.5918 78.7409ZM145.474 170.594C146.254 172.413 148.062 173.687 150.167 173.687C152.986 173.687 155.271 171.402 155.271 168.583C155.271 165.764 152.986 163.479 150.167 163.479C147.348 163.479 145.062 165.764 145.062 168.583C145.062 168.773 145.073 168.96 145.093 169.144L145.198 169.083C145.221 169.609 145.316 170.116 145.474 170.594ZM156.199 17.3124C156.199 20.1314 153.914 22.4166 151.095 22.4166C148.276 22.4166 145.99 20.1314 145.99 17.3124C145.99 14.4934 148.276 12.2081 151.095 12.2081C153.914 12.2081 156.199 14.4934 156.199 17.3124ZM173.368 42.8333C176.187 42.8333 178.472 40.5481 178.472 37.7291C178.472 34.9101 176.187 32.6249 173.368 32.6249C170.549 32.6249 168.264 34.9101 168.264 37.7291C168.264 40.5481 170.549 42.8333 173.368 42.8333ZM105.156 38.6573C105.156 41.4763 102.87 43.7616 100.051 43.7616C97.2325 43.7616 94.9473 41.4763 94.9473 38.6573C94.9473 35.8383 97.2325 33.5531 100.051 33.5531C102.87 33.5531 105.156 35.8383 105.156 38.6573ZM65.7156 81.8114C68.5345 81.8114 70.8198 79.5261 70.8198 76.7071C70.8198 73.8881 68.5345 71.6029 65.7156 71.6029C62.8966 71.6029 60.6113 73.8881 60.6113 76.7071C60.6113 79.5261 62.8966 81.8114 65.7156 81.8114ZM150.63 98.9801C150.63 101.799 148.345 104.084 145.526 104.084C142.707 104.084 140.422 101.799 140.422 98.9801C140.422 96.1611 142.707 93.8758 145.526 93.8758C148.345 93.8758 150.63 96.1611 150.63 98.9801ZM49.0105 173.687C51.8295 173.687 54.1147 171.402 54.1147 168.583C54.1147 165.764 51.8295 163.479 49.0105 163.479C46.1915 163.479 43.9062 165.764 43.9062 168.583C43.9062 171.402 46.1915 173.687 49.0105 173.687ZM14.2085 81.3473C14.2085 84.1662 11.9232 86.4515 9.10423 86.4515C6.28524 86.4515 4 84.1662 4 81.3473C4 78.5283 6.28524 76.243 9.10423 76.243C11.9232 76.243 14.2085 78.5283 14.2085 81.3473ZM48.0827 22.4168C50.9017 22.4168 53.187 20.1316 53.187 17.3126C53.187 14.4936 50.9017 12.2084 48.0827 12.2084C45.2638 12.2084 42.9785 14.4936 42.9785 17.3126C42.9785 20.1316 45.2638 22.4168 48.0827 22.4168Z" fill="white"/>
</svg>
