<svg width="217" height="83" viewBox="0 0 217 83" fill="none" xmlns="http://www.w3.org/2000/svg">
<path fill-rule="evenodd" clip-rule="evenodd" d="M41 79.9141C61.9868 79.9141 79 62.9009 79 41.9141C79 20.9272 61.9868 3.91406 41 3.91406C20.0132 3.91406 3 20.9272 3 41.9141C3 62.9009 20.0132 79.9141 41 79.9141ZM41 82.9141C62.8042 82.9141 80.6331 65.8935 81.925 44.4141H112.14C113.382 55.3872 122.695 63.9141 134 63.9141C145.305 63.9141 154.618 55.3872 155.86 44.4141H186.128C187.109 52.0298 193.617 57.9141 201.5 57.9141C210.06 57.9141 217 50.9745 217 42.4141C217 33.8536 210.06 26.9141 201.5 26.9141C193.276 26.9141 186.547 33.3197 186.032 41.4141H155.994C155.729 29.4947 145.983 19.9141 134 19.9141C122.017 19.9141 112.271 29.4947 112.006 41.4141H81.997C81.7292 19.0008 63.4768 0.914062 41 0.914062C18.3563 0.914062 0 19.2704 0 41.9141C0 64.5577 18.3563 82.9141 41 82.9141ZM134 60.9141C144.493 60.9141 153 52.4075 153 41.9141C153 31.4207 144.493 22.9141 134 22.9141C123.507 22.9141 115 31.4207 115 41.9141C115 52.4075 123.507 60.9141 134 60.9141ZM214 42.4141C214 49.3176 208.404 54.9141 201.5 54.9141C194.596 54.9141 189 49.3176 189 42.4141C189 35.5105 194.596 29.9141 201.5 29.9141C208.404 29.9141 214 35.5105 214 42.4141Z" fill="white"/>
</svg>
