<svg width="171" height="185" viewBox="0 0 171 185" fill="none" xmlns="http://www.w3.org/2000/svg">
<path fill-rule="evenodd" clip-rule="evenodd" d="M42.4389 47.1786C54.3898 50.6487 66.8911 43.7736 70.3612 31.8227C73.8313 19.8717 66.9562 7.37048 55.0053 3.90037C43.0543 0.430263 30.5531 7.30534 27.083 19.2563C23.6129 31.2072 30.4879 43.7085 42.4389 47.1786ZM43.0434 50.479C43.0476 50.4648 43.0515 50.4506 43.0552 50.4363C55.7072 53.3283 68.5642 46.2194 72.832 33.9461L134.212 51.7686C132.296 60.7189 137.229 69.7546 145.774 72.9935C145.768 73.0124 145.762 73.0314 145.756 73.0507L127.957 134.351C127.953 134.365 127.949 134.379 127.945 134.393C115.169 131.472 102.184 138.75 98.0455 151.246L36.7039 133.435C38.84 124.364 33.8903 115.121 25.2264 111.836C25.2326 111.817 25.2386 111.798 25.2441 111.779L43.0434 50.479ZM148.653 73.8295C148.648 73.8487 148.643 73.868 148.637 73.8872L130.838 135.188L130.831 135.21L130.825 135.229C143.481 139.711 150.591 153.35 146.799 166.409C142.867 179.951 128.701 187.742 115.159 183.81C102.274 180.068 94.5961 167.063 97.2683 154.144L97.2546 154.14L35.7931 136.294L35.7857 136.292C32.2207 144.941 22.6364 149.695 13.447 147.026C3.59818 144.167 -2.06758 133.864 0.792136 124.016C3.51123 114.651 12.9589 109.068 22.3476 111C22.3494 110.993 22.3513 110.986 22.3532 110.978C22.3564 110.967 22.3597 110.955 22.3631 110.943L40.1624 49.6425C40.1665 49.6283 40.1709 49.6142 40.1754 49.6002C27.5194 45.1176 20.4101 31.4788 24.202 18.4198C28.1341 4.87767 42.2997 -2.91275 55.8418 1.01936C68.8516 4.79694 76.5531 18.0195 73.6518 31.0603L135.071 48.8942C138.517 40.0201 148.238 35.0985 157.553 37.8032C167.402 40.6629 173.067 50.9652 170.208 60.814C167.489 70.1783 158.041 75.761 148.653 73.8295ZM143.918 165.573C140.448 177.524 127.946 184.399 115.996 180.929C104.045 177.458 97.1695 164.957 100.64 153.006C104.11 141.055 116.611 134.18 128.562 137.65C140.513 141.12 147.388 153.622 143.918 165.573ZM14.2835 144.145C22.5412 146.543 31.179 141.793 33.5767 133.535C35.9745 125.277 31.224 116.64 22.9664 114.242C14.7087 111.844 6.07086 116.595 3.67314 124.852C1.27543 133.11 6.02585 141.748 14.2835 144.145ZM167.327 59.9775C164.929 68.2351 156.291 72.9855 148.033 70.5878C139.776 68.1901 135.025 59.5522 137.423 51.2946C139.821 43.0369 148.459 38.2865 156.716 40.6842C164.974 43.0819 169.724 51.7198 167.327 59.9775Z" fill="white"/>
</svg>
