<svg width="135" height="126" viewBox="0 0 135 126" fill="none" xmlns="http://www.w3.org/2000/svg">
<path fill-rule="evenodd" clip-rule="evenodd" d="M94.8997 73.8521C93.6278 54.4989 80.3872 38.4142 62.5096 32.9298C62.1746 34.8744 62 36.8738 62 38.9141C62 57.5389 76.5476 72.7659 94.8997 73.8521ZM60.2499 29.2116C64.5383 12.9248 79.3665 0.914062 97 0.914062C117.987 0.914062 135 17.9272 135 38.9141C135 59.5665 118.525 76.3709 98 76.9012C98 76.9055 98 76.9098 98 76.9141C98 103.976 76.062 125.914 49 125.914C21.938 125.914 0 103.976 0 76.9141C0 49.8521 21.938 27.9141 49 27.9141C52.8712 27.9141 56.6376 28.363 60.2499 29.2116ZM63.1485 29.9877C67.0949 14.9815 80.755 3.91406 97 3.91406C116.33 3.91406 132 19.5841 132 38.9141C132 57.9401 116.819 73.4204 97.909 73.9025C96.647 53.0884 82.3917 35.7816 63.1485 29.9877ZM95 76.8623C95 76.8796 95 76.8968 95 76.9141C95 102.319 74.4051 122.914 49 122.914C23.5949 122.914 3 102.319 3 76.9141C3 51.509 23.5949 30.9141 49 30.9141C52.6487 30.9141 56.1982 31.3389 59.6017 32.1417C59.2064 34.3394 59 36.6026 59 38.9141C59 59.23 74.9429 75.8223 95 76.8623Z" fill="white"/>
</svg>
