<svg width="184" height="169" viewBox="0 0 184 169" fill="none" xmlns="http://www.w3.org/2000/svg">
<path fill-rule="evenodd" clip-rule="evenodd" d="M93.8193 72.7644C112.997 71.7262 128.229 55.8464 128.229 36.4092C128.229 16.301 111.928 0 91.8194 0C71.7111 0 55.4102 16.301 55.4102 36.4092C55.4102 55.8464 70.6412 71.7262 89.8193 72.7644V95.3978L65.233 110.342C58.5742 101.728 48.1396 96.1807 36.4092 96.1807C16.301 96.1807 0 112.482 0 132.59C0 152.698 16.301 168.999 36.4092 168.999C56.5175 168.999 72.8184 152.698 72.8184 132.59C72.8184 125.649 70.8762 119.162 67.5057 113.642L91.7983 98.8759L115.861 114.099C112.659 119.518 110.822 125.84 110.822 132.59C110.822 152.698 127.123 168.999 147.231 168.999C167.34 168.999 183.641 152.698 183.641 132.59C183.641 112.482 167.34 96.1807 147.231 96.1807C135.308 96.1807 124.723 101.912 118.082 110.771L93.8193 95.4213V72.7644ZM124.229 36.4092C124.229 45.0765 120.826 52.9491 115.284 58.7643C114.963 57.5365 114.485 56.3386 113.86 55.1892C112.608 52.8858 110.795 50.8323 108.556 49.1268C106.318 47.4216 103.687 46.0882 100.823 45.1844C100.552 45.0988 100.279 45.0171 100.004 44.9394C103.181 42.4873 105.227 38.6418 105.227 34.3183C105.227 26.9126 99.224 20.9092 91.8183 20.9092C84.4127 20.9092 78.4092 26.9126 78.4092 34.3183C78.4092 38.6422 80.4557 42.488 83.6329 44.9401C83.3591 45.0176 83.0868 45.099 82.8163 45.1844C79.9522 46.0882 77.3216 47.4216 75.0835 49.1268C72.8451 50.8323 71.0315 52.8858 69.7793 55.1892C69.1542 56.3389 68.6768 57.537 68.3551 58.7651C62.8128 52.9498 59.4102 45.0769 59.4102 36.4092C59.4102 18.5101 73.9202 4 91.8194 4C109.718 4 124.229 18.5101 124.229 36.4092ZM110.346 57.0997C111.198 58.6665 111.669 60.3106 111.759 61.9607C106.26 66.2577 99.3387 68.8184 91.8194 68.8184C84.3005 68.8184 77.3796 66.258 71.8811 61.9615C71.971 60.3111 72.4416 58.6667 73.2935 57.0997C74.248 55.3441 75.6688 53.7096 77.5077 52.3085C79.347 50.9072 81.5568 49.7763 84.0201 48.9989C86.4828 48.2217 89.1343 47.8184 91.8199 47.8184C94.5054 47.8184 97.1569 48.2217 99.6196 48.9989C102.083 49.7763 104.293 50.9072 106.132 52.3085C107.971 53.7096 109.392 55.3441 110.346 57.0997ZM167.171 158.141C161.672 162.438 154.751 164.999 147.231 164.999C139.713 164.999 132.792 162.439 127.293 158.142C127.383 156.492 127.854 154.847 128.706 153.28C129.66 151.525 131.081 149.89 132.92 148.489C134.759 147.088 136.969 145.957 139.432 145.18C141.895 144.402 144.546 143.999 147.232 143.999C149.918 143.999 152.569 144.402 155.032 145.18C157.495 145.957 159.705 147.088 161.544 148.489C163.383 149.89 164.804 151.525 165.758 153.28C166.61 154.847 167.081 156.491 167.171 158.141ZM170.697 154.945C170.375 153.717 169.897 152.519 169.273 151.37C168.02 149.066 166.207 147.013 163.968 145.307C161.73 143.602 159.1 142.269 156.236 141.365C155.964 141.279 155.691 141.198 155.417 141.12C158.593 138.668 160.64 134.822 160.64 130.499C160.64 123.093 154.636 117.09 147.23 117.09C139.825 117.09 133.821 123.093 133.821 130.499C133.821 134.823 135.868 138.669 139.045 141.121C138.771 141.198 138.499 141.28 138.228 141.365C135.364 142.269 132.734 143.602 130.496 145.307C128.257 147.013 126.444 149.066 125.191 151.37C124.566 152.52 124.089 153.718 123.767 154.946C118.225 149.13 114.822 141.258 114.822 132.59C114.822 114.691 129.332 100.181 147.231 100.181C165.131 100.181 179.641 114.691 179.641 132.59C179.641 141.257 176.238 149.13 170.697 154.945ZM147.23 139.908C152.427 139.908 156.64 135.695 156.64 130.499C156.64 125.302 152.427 121.09 147.23 121.09C142.034 121.09 137.821 125.302 137.821 130.499C137.821 135.695 142.034 139.908 147.23 139.908ZM101.227 34.3183C101.227 39.5148 97.0148 43.7274 91.8183 43.7274C86.6218 43.7274 82.4092 39.5148 82.4092 34.3183C82.4092 29.1218 86.6218 24.9092 91.8183 24.9092C97.0148 24.9092 101.227 29.1218 101.227 34.3183ZM59.8743 154.945C65.4161 149.13 68.8184 141.257 68.8184 132.59C68.8184 114.691 54.3083 100.181 36.4092 100.181C18.5101 100.181 4 114.691 4 132.59C4 141.258 7.4026 149.13 12.9449 154.946C13.2666 153.718 13.7441 152.52 14.3692 151.37C15.6214 149.066 17.4349 147.013 19.6733 145.307C21.9114 143.602 24.5421 142.269 27.4061 141.365C27.6767 141.28 27.9489 141.198 28.2228 141.121C25.0455 138.669 22.999 134.823 22.999 130.499C22.999 123.093 29.0025 117.09 36.4081 117.09C43.8138 117.09 49.8173 123.093 49.8173 130.499C49.8173 134.822 47.7711 138.668 44.5943 141.12C44.869 141.198 45.142 141.279 45.4133 141.365C48.2773 142.269 50.908 143.602 53.146 145.307C55.3845 147.013 57.198 149.066 58.4502 151.37C59.0752 152.519 59.5525 153.717 59.8743 154.945ZM56.3484 158.141C56.2584 156.491 55.7878 154.847 54.936 153.28C53.9816 151.525 52.5608 149.89 50.7219 148.489C48.8826 147.088 46.6727 145.957 44.2094 145.18C41.7467 144.402 39.0953 143.999 36.4097 143.999C33.7241 143.999 31.0726 144.402 28.6099 145.18C26.1466 145.957 23.9368 147.088 22.0975 148.489C20.2586 149.89 18.8378 151.525 17.8834 153.28C17.0315 154.847 16.5608 156.492 16.471 158.142C21.9695 162.439 28.8903 164.999 36.4092 164.999C43.9285 164.999 50.8497 162.438 56.3484 158.141ZM36.4081 139.908C41.6047 139.908 45.8173 135.695 45.8173 130.499C45.8173 125.302 41.6047 121.09 36.4081 121.09C31.2116 121.09 26.999 125.302 26.999 130.499C26.999 135.695 31.2116 139.908 36.4081 139.908Z" fill="white"/>
</svg>
