<svg width="100" height="57" viewBox="0 0 100 57" fill="none" xmlns="http://www.w3.org/2000/svg">
<path d="M11.5 45.0172H7.65703C5.61339 45.0172 3.4357 44.4253 2.46748 42.6256C2.1872 42.1046 2 41.5534 2 41.0172C2 39.9093 2 37.6187 2 35.7058C2 34.2493 2.08251 32.7785 2.60175 31.4177C3.62658 28.7318 5.88905 25.1881 10.0169 23.2644C11.2601 22.685 12.4262 21.9072 13.1731 20.7568C17.6959 13.7905 24.4956 2.01718 35.5 2.01718H51C64.0691 1.53316 70.1093 11.3582 76.3789 21.0585C76.7631 21.653 77.4347 21.9953 78.1424 21.9789C89.028 21.7269 96.5502 24.8852 98 35.5172V43.0172C98 44.1218 97.1046 45.0172 96 45.0172H88" stroke="white" stroke-width="4" stroke-linecap="round"/>
<path d="M27 45.0176H41.5" stroke="white" stroke-width="4" stroke-linecap="round"/>
<path d="M58.5 45.0176H71H73" stroke="white" stroke-width="4" stroke-linecap="round"/>
<path d="M39 21.5176V10.5176C39 9.96528 38.5523 9.51331 38.0029 9.56964C31.8723 10.1982 24.9955 16.3895 21.8598 21.0919C21.441 21.7199 21.9117 22.5176 22.6667 22.5176H38C38.5523 22.5176 39 22.0698 39 21.5176Z" stroke="white" stroke-width="4" stroke-linecap="round"/>
<path d="M47 21.5176V10.5176C47 9.96529 47.4494 9.51549 48.0013 9.53643C58.2287 9.92453 63.9081 16.2249 67.0618 21.0217C67.4888 21.6712 67.0111 22.5176 66.2338 22.5176H48C47.4477 22.5176 47 22.0699 47 21.5176Z" stroke="white" stroke-width="4" stroke-linecap="round"/>
<path d="M46.5 30.0176H50" stroke="white" stroke-width="4" stroke-linecap="round"/>
<circle cx="19.5" cy="47.0176" r="7.5" stroke="white" stroke-width="4"/>
<circle cx="80.5" cy="47.0176" r="7.5" stroke="white" stroke-width="4"/>
<circle cx="80.5" cy="47.0176" r="1.5" fill="white"/>
<circle cx="19.5" cy="47.0176" r="1.5" fill="white"/>
<path d="M48.5 45.0176H51" stroke="white" stroke-width="4" stroke-linecap="round"/>
</svg>
