<svg width="178" height="167" viewBox="0 0 178 167" fill="none" xmlns="http://www.w3.org/2000/svg">
<path fill-rule="evenodd" clip-rule="evenodd" d="M37.0391 0H33.0391V4V88.3112V90.6905H26.0898C24.9853 90.6905 24.0898 91.586 24.0898 92.6905C24.0898 93.7951 24.9853 94.6905 26.0898 94.6905H149.931C151.036 94.6905 151.931 93.7951 151.931 92.6905C151.931 91.586 151.036 90.6905 149.931 90.6905H146.154V88.3112V20.4243V16.4243H142.154H124.635H120.635V20.4243V26.2788H120.256H102.736H102.355V14.9497V10.9497H98.3551H80.8359H76.8359V14.9497V16.4243H76.4566H58.9374H58.5583V4V0H54.5583H37.0391ZM37.0391 4H41.0391H50.5583H54.5583V8V18.8293H37.0391V8V4ZM37.0391 19.8293V22.6616H54.5583V19.8293H37.0391ZM37.0391 23.6616H54.5583V84.3112V88.3112H50.5583H41.0391H37.0391V84.3112V23.6616ZM8 6.95324C3.58173 6.95324 0 10.535 0 14.9532V122.545C0 126.963 3.58172 130.545 8 130.545H169.62C174.039 130.545 177.62 126.963 177.62 122.545V14.9532C177.62 10.535 174.039 6.95324 169.62 6.95324H162.265C161.16 6.95324 160.265 7.84867 160.265 8.95324C160.265 10.0578 161.16 10.9532 162.265 10.9532H169.62C171.83 10.9532 173.62 12.7441 173.62 14.9532V103.472L4 102.874V14.9532C4 12.7441 5.79086 10.9532 8 10.9532H15.3554C16.46 10.9532 17.3554 10.0578 17.3554 8.95324C17.3554 7.84867 16.46 6.95324 15.3554 6.95324H8ZM4 106.874V122.545C4 124.754 5.79086 126.545 8 126.545H169.62C171.83 126.545 173.62 124.754 173.62 122.545V107.472L4 106.874ZM82.1328 115.011C81.0282 115.011 80.1328 115.906 80.1328 117.011C80.1328 118.115 81.0282 119.011 82.1328 119.011H96.7024C97.8069 119.011 98.7024 118.115 98.7024 117.011C98.7024 115.906 97.8069 115.011 96.7024 115.011H82.1328ZM47.957 160.042C47.957 155.623 51.5387 152.042 55.957 152.042H60.6619C60.8334 151.865 61.0406 151.717 61.2791 151.61C61.7813 151.384 62.5385 150.815 63.5017 149.837C64.4303 148.894 65.4241 147.702 66.4092 146.405C68.3785 143.812 70.216 140.925 71.2978 139.071C71.8544 138.117 73.079 137.795 74.0331 138.351C74.9872 138.908 75.3095 140.132 74.7529 141.086C73.6088 143.048 71.6826 146.075 69.5947 148.825C68.7337 149.958 67.8289 151.066 66.9258 152.042H111.908C111.005 151.066 110.1 149.958 109.239 148.825C107.151 146.076 105.225 143.048 104.081 141.087C103.524 140.133 103.847 138.908 104.801 138.351C105.755 137.795 106.98 138.117 107.536 139.071C108.618 140.926 110.455 143.813 112.425 146.406C113.41 147.703 114.404 148.894 115.332 149.837C116.295 150.815 117.053 151.384 117.555 151.61C117.793 151.717 118 151.865 118.172 152.042H121.661C126.08 152.042 129.661 155.623 129.661 160.042V163.969C129.661 165.626 128.318 166.969 126.661 166.969H50.957C49.3002 166.969 47.957 165.626 47.957 163.969V160.042ZM55.957 156.042C53.7479 156.042 51.957 157.832 51.957 160.042V162.969H125.661V160.042C125.661 157.832 123.87 156.042 121.661 156.042H55.957ZM62.9374 20.4243H58.9374V24.4243V30.8735H76.4566V24.4243V20.4243H72.4566H62.9374ZM76.4566 31.8735H58.9374V34.7061H76.4566V31.8735ZM58.9374 84.3112V35.7061H76.4566V84.3112V88.3112H72.4566H62.9374H58.9374V84.3112ZM80.8359 14.9497H84.8359H94.3551H98.3551V18.9497V27.5889H80.8359V18.9497V14.9497ZM80.8359 28.5889H98.3551V31.4214H80.8359V28.5889ZM80.8359 32.4214V84.3114V88.3114H84.8359H94.3551H98.3551V84.3114V32.4214H80.8359ZM106.736 30.2788H102.736V34.2788V37.4435H120.256V34.2788V30.2788H116.256H106.736ZM120.256 38.4435H102.736V41.2758H120.256V38.4435ZM102.736 84.3112V42.2758H120.256V84.3112V88.3112H116.256H106.736H102.736V84.3112ZM124.635 20.4243H128.635H138.154H142.154V24.4243V28.6841H124.635V24.4243V20.4243ZM124.635 29.6841H142.154V32.5161H124.635V29.6841ZM124.635 33.5161V84.3112V88.3112H128.635H138.154H142.154V84.3112V33.5161H124.635Z" fill="white"/>
</svg>
