<svg width="42" height="42" viewBox="0 0 42 42" fill="none" xmlns="http://www.w3.org/2000/svg">
<circle cx="21" cy="21" r="21" fill="white"/>
<path d="M18.8688 23.1325C17.0553 21.319 16.6458 19.5055 16.5534 18.7789C16.5276 18.578 16.5968 18.3765 16.7405 18.2338L18.2081 16.7668C18.424 16.5511 18.4623 16.2148 18.3005 15.956L15.9638 12.3277C15.7847 12.0411 15.4172 11.9377 15.115 12.0888L11.3638 13.8555C11.1194 13.9759 10.9757 14.2355 11.0034 14.5065C11.2 16.3737 12.014 20.9639 16.5249 25.4751C21.0358 29.9864 25.6254 30.8001 27.4936 30.9967C27.7646 31.0244 28.0242 30.8807 28.1445 30.6363L29.9112 26.8851C30.0618 26.5836 29.9591 26.217 29.6737 26.0376L26.0453 23.7016C25.7867 23.5396 25.4505 23.5776 25.2346 23.7933L23.7676 25.2609C23.6249 25.4046 23.4234 25.4738 23.2225 25.448C22.4959 25.3556 20.6824 24.9461 18.8688 23.1325Z" fill="black"/>
<path d="M26.0704 22.1548C25.7085 22.1548 25.4152 21.8614 25.4152 21.4996C25.4121 18.787 23.2139 16.5888 20.5014 16.5857C20.1395 16.5857 19.8462 16.2924 19.8462 15.9306C19.8462 15.5687 20.1395 15.2754 20.5014 15.2754C23.9373 15.2792 26.7218 18.0636 26.7256 21.4996C26.7256 21.8614 26.4322 22.1548 26.0704 22.1548Z" fill="black"/>
<path d="M29.3463 22.1553C28.9844 22.1553 28.6911 21.8619 28.6911 21.5001C28.6861 16.9791 25.0223 13.3154 20.5014 13.3104C20.1395 13.3104 19.8462 13.017 19.8462 12.6552C19.8462 12.2933 20.1395 12 20.5014 12C25.7457 12.0058 29.9957 16.2557 30.0015 21.5001C30.0015 21.6739 29.9324 21.8405 29.8096 21.9634C29.6867 22.0863 29.5201 22.1553 29.3463 22.1553Z" fill="black"/>
</svg>
