<svg width="181" height="167" viewBox="0 0 181 167" fill="none" xmlns="http://www.w3.org/2000/svg">
<path d="M100.242 52.4616C100.848 52.2192 101.76 52.1244 102.838 52.1775C103.878 52.2287 104.885 52.4064 105.565 52.5575C107.057 52.889 107.686 53.5518 108.532 54.4431C108.705 54.6256 108.888 54.8177 109.088 55.0185C109.869 55.7997 111.136 55.7999 111.917 55.019C112.698 54.238 112.698 52.9717 111.917 52.1905C111.807 52.0807 111.686 51.9495 111.55 51.8029C110.675 50.8564 109.206 49.2691 106.433 48.6528C106.04 48.5655 105.55 48.4689 104.999 48.3847V45.1631C104.999 44.0585 104.103 43.1631 102.999 43.1631C101.894 43.1631 100.999 44.0585 100.999 45.1631V48.2249C100.244 48.3022 99.4742 48.4604 98.7561 48.7477C97.1911 49.3737 96.0762 50.6978 95.3892 51.7449C94.748 52.722 94.2595 53.8002 94.0739 54.5511L94.0724 54.5552C93.989 54.7895 93.8305 55.2344 93.791 55.9873C93.7532 56.7092 93.8152 57.729 94.0182 59.3526C94.0898 59.9252 94.2336 60.4632 94.4381 60.9646C95.7827 64.2619 99.1372 65.0551 101.453 65.5478C101.764 65.6139 102.063 65.6753 102.354 65.7348C103.295 65.9274 104.14 66.1004 104.957 66.3524C105.993 66.6723 106.756 67.0594 107.302 67.5798C107.495 67.7641 107.674 67.9737 107.835 68.2146C108.653 69.442 108.852 70.421 108.838 71.1535C108.823 71.908 108.576 72.5638 108.262 73.1129C107.107 75.135 105.229 76.6052 102.499 76.6052C101.258 76.6052 100.036 76.0834 98.9437 75.2955C97.8507 74.5073 97.0394 73.5604 96.6629 72.9958C96.0502 72.0767 94.8085 71.8283 93.8894 72.4411C92.9704 73.0538 92.722 74.2955 93.3347 75.2146C93.9583 76.1499 95.0969 77.453 96.604 78.5398C97.7813 79.3888 99.2766 80.1715 100.999 80.4736V83.1631C100.999 84.2677 101.894 85.1631 102.999 85.1631C104.103 85.1631 104.999 84.2677 104.999 83.1631V80.3216C108.134 79.5817 110.372 77.4838 111.735 75.0974C112.278 74.1469 112.805 72.8369 112.837 71.2335C112.869 69.608 112.39 67.8367 111.163 65.9958C110.834 65.5018 110.463 65.0667 110.063 64.6852C108.887 63.5641 107.465 62.9406 106.136 62.5303C105.114 62.2147 104.009 61.9892 103.035 61.7905L103.033 61.79C102.773 61.7369 102.522 61.6858 102.285 61.6353C99.7141 61.0883 98.5935 60.5616 98.1419 59.4541C98.0687 59.2746 98.0149 59.0774 97.9873 58.8565C97.7903 57.2801 97.767 56.5498 97.7855 56.1968C97.7934 56.0479 97.8074 55.998 97.8082 55.9951C97.8157 55.9661 97.8168 55.9633 97.823 55.9471C97.8309 55.9264 97.8473 55.8838 97.8962 55.737L97.9356 55.6189L97.96 55.4968C97.9599 55.4972 97.9602 55.4964 97.9607 55.4943C97.9673 55.4713 98.0177 55.2955 98.1579 54.9846C98.298 54.6741 98.4933 54.3054 98.7335 53.9393C99.2548 53.1448 99.8066 52.6356 100.242 52.4616Z" fill="white"/>
<path d="M75.9998 114.163C75.9998 115.268 75.1044 116.163 73.9998 116.163C72.8952 116.163 71.9998 115.268 71.9998 114.163C71.9998 113.059 72.8952 112.163 73.9998 112.163C75.1044 112.163 75.9998 113.059 75.9998 114.163Z" fill="white"/>
<path fill-rule="evenodd" clip-rule="evenodd" d="M116.328 0.946027C108.122 -0.283381 96.8209 -0.351821 88.0883 0.96044C85.9868 1.27624 84.9419 3.57846 85.9338 5.36371L92.0133 16.3069C90.5813 17.0355 89.2687 17.8826 88.1464 18.8066C86.3489 20.2865 84.8406 22.1279 84.2742 24.208C83.7839 26.0088 84.0486 27.8269 85.1419 29.4399C77.371 33.921 70.5997 41.4255 65.6157 49.9885C60.0805 59.4983 56.6221 70.5295 56.5021 80.6227C52.6139 81.7552 47.2066 83.7228 42.9173 86.4802C37.3244 90.0756 31.1015 96.6928 28.341 99.9331L28.1441 99.7373C25.7943 97.4008 21.9953 97.4116 19.6588 99.7614L2.57347 116.944C0.236975 119.294 0.247755 123.093 2.59754 125.429L41.8916 164.501C44.2414 166.837 48.0403 166.827 50.3768 164.477L67.4622 147.294C69.7987 144.945 69.7879 141.146 67.4381 138.809L65.28 136.663H118.461C123.812 136.663 128.962 134.62 132.858 130.951L175.118 91.1523C177.59 88.8244 180.618 85.5295 180.641 81.1917C180.658 77.98 179.483 74.2655 175.661 71.5357C171.074 68.2589 165.984 69.2453 161.518 71.3297C158.019 72.9628 154.492 75.466 151.385 77.6718L151.369 77.6831C151.048 77.9105 150.732 78.1347 150.421 78.3545C149.891 68.6369 146.664 58.203 141.366 49.187C136.122 40.2632 128.754 32.5722 119.765 28.3983C120.387 27.2264 120.586 25.93 120.34 24.5848C119.951 22.4542 118.506 20.5508 116.776 19.034C115.41 17.837 113.72 16.7527 111.857 15.8767L118.399 5.48736C119.521 3.70414 118.503 1.27187 116.328 0.946027ZM108.026 14.4542L114.175 4.68772C106.983 3.78635 97.7011 3.74689 90.1479 4.71264L95.7388 14.7764C97.9388 14.0717 100.257 13.6631 102.502 13.6631C104.332 13.6631 106.21 13.9498 108.026 14.4542ZM88.1337 25.2589C87.9258 26.0222 88.0186 26.7757 88.7763 27.6029C97.3141 23.8964 107.286 23.9378 115.994 26.8903C116.447 26.3125 116.494 25.7862 116.406 25.304C116.247 24.4345 115.546 23.2754 114.139 22.0422C111.346 19.5936 106.684 17.6631 102.502 17.6631C98.2926 17.6631 93.6117 19.4882 90.6888 21.8946C89.2221 23.1023 88.3969 24.2921 88.1337 25.2589ZM89.8648 31.4969C97.7085 27.9082 107.195 27.9401 115.439 30.9347C124.652 34.281 132.426 41.8672 137.918 51.2135C143.388 60.5234 146.479 71.3895 146.499 81.072L124.871 95.9774C123.07 93.0858 120.161 91.5353 117.115 90.7051C113.621 89.7528 109.655 89.6624 106.291 89.6624H97.3252C91.4967 84.0399 78.0186 76.1113 60.5275 79.6148C60.857 70.6143 64.0133 60.6931 69.0727 52.0006C74.431 42.7947 81.7916 35.1905 89.8648 31.4969ZM122.798 111.295C125.378 108.476 127.751 104.226 126.46 99.7405L151.298 82.6221C152.151 82.0344 153.009 81.4266 153.87 80.8162L153.878 80.8105C156.952 78.6315 160.074 76.418 163.21 74.9543C167.18 73.1012 170.505 72.7683 173.336 74.7906C175.91 76.6291 176.653 79.0048 176.641 81.1705C176.628 83.6505 174.867 85.8939 172.376 88.2403L130.115 128.039C126.962 131.009 122.793 132.663 118.461 132.663H61.2572L31.1864 102.762C33.7514 99.7155 39.8516 93.2062 45.0804 89.8449C50.3883 86.4327 57.8531 84.2633 60.9108 83.6195C77.2625 80.1774 89.7722 87.7849 94.7944 92.7825C95.3556 93.3409 96.1152 93.6624 96.9224 93.6624H106.291C109.67 93.6624 113.144 93.7687 116.063 94.5643C118.941 95.3486 120.978 96.714 121.969 99.0439C122.185 99.551 122.392 100.117 122.587 100.751C123.354 103.241 122.129 106.101 119.847 108.594C117.719 110.92 114.272 111.662 110.375 111.662H87.4988C86.3943 111.662 85.4988 112.558 85.4988 113.662C85.4988 114.767 86.3943 115.662 87.4988 115.662H110.375C114.54 115.662 119.482 114.918 122.798 111.295ZM64.6177 141.645C65.401 142.424 65.4046 143.691 64.6258 144.474L47.5404 161.656C46.7616 162.44 45.4952 162.443 44.712 161.665L5.41793 122.593C4.63467 121.814 4.63108 120.548 5.40991 119.764L22.4953 102.582C23.2741 101.799 24.5404 101.795 25.3237 102.574L64.6177 141.645Z" fill="white"/>
</svg>
