<svg width="138" height="165" viewBox="0 0 138 165" fill="none" xmlns="http://www.w3.org/2000/svg">
<path d="M121.913 133.752C121.271 134.651 121.48 135.9 122.379 136.542C123.278 137.183 124.527 136.974 125.169 136.075L121.913 133.752ZM135.524 88.0264L137.509 87.7884L137.509 87.7884L135.524 88.0264ZM67.2245 29.0235L67.2775 31.0228L67.2245 29.0235ZM22.5756 47.6908L21.1898 46.2488L21.1898 46.2488L22.5756 47.6908ZM16.5973 137.748L18.1615 136.502L18.1615 136.502L16.5973 137.748ZM58.3868 162.154L58.7037 160.179L58.7037 160.179L58.3868 162.154ZM106.809 153.718C107.733 153.113 107.992 151.873 107.386 150.949C106.781 150.026 105.542 149.767 104.618 150.372L106.809 153.718ZM96.8775 75.45C97.6783 74.6892 97.7108 73.4233 96.95 72.6225C96.1892 71.8217 94.9233 71.7892 94.1225 72.55L96.8775 75.45ZM56.3732 82.546C55.5702 81.7876 54.3044 81.8237 53.546 82.6268C52.7876 83.4298 52.8237 84.6956 53.6268 85.454L56.3732 82.546ZM25 94C23.8954 94 23 94.8954 23 96C23 97.1046 23.8954 98 25 98V94ZM29.5 98C30.6046 98 31.5 97.1046 31.5 96C31.5 94.8954 30.6046 94 29.5 94V98ZM108 94C106.895 94 106 94.8954 106 96C106 97.1046 106.895 98 108 98V94ZM112.5 98C113.605 98 114.5 97.1046 114.5 96C114.5 94.8954 113.605 94 112.5 94V98ZM67 58.5C67 59.6046 67.8954 60.5 69 60.5C70.1046 60.5 71 59.6046 71 58.5H67ZM71 54C71 52.8954 70.1046 52 69 52C67.8954 52 67 52.8954 67 54H71ZM67 139.5C67 140.605 67.8954 141.5 69 141.5C70.1046 141.5 71 140.605 71 139.5H67ZM71 135C71 133.895 70.1046 133 69 133C67.8954 133 67 133.895 67 135H71ZM60 20C60 18.8954 59.1046 18 58 18C56.8954 18 56 18.8954 56 20H60ZM56 29C56 30.1046 56.8954 31 58 31C59.1046 31 60 30.1046 60 29H56ZM80 20C80 18.8954 79.1046 18 78 18C76.8954 18 76 18.8954 76 20H80ZM76 29C76 30.1046 76.8954 31 78 31C79.1046 31 80 30.1046 80 29H76ZM117 96C117 122.51 95.5097 144 69 144V148C97.7188 148 121 124.719 121 96H117ZM69 144C42.4903 144 21 122.51 21 96H17C17 124.719 40.2812 148 69 148V144ZM21 96C21 69.4903 42.4903 48 69 48V44C40.2812 44 17 67.2812 17 96H21ZM69 48C95.5097 48 117 69.4903 117 96H121C121 67.2812 97.7188 44 69 44V48ZM73 96C73 98.2091 71.2091 100 69 100V104C73.4183 104 77 100.418 77 96H73ZM69 100C66.7909 100 65 98.2091 65 96H61C61 100.418 64.5817 104 69 104V100ZM65 96C65 93.7909 66.7909 92 69 92V88C64.5817 88 61 91.5817 61 96H65ZM69 92C71.2091 92 73 93.7909 73 96H77C77 91.5817 73.4183 88 69 88V92ZM125.169 136.075C135.155 122.079 139.556 104.859 137.509 87.7884L133.538 88.2644C135.465 104.346 131.32 120.567 121.913 133.752L125.169 136.075ZM137.509 87.7884C135.463 70.7174 127.118 55.0254 114.107 43.7857L111.492 46.8126C123.749 57.4007 131.61 72.1831 133.538 88.2644L137.509 87.7884ZM114.107 43.7857C101.097 32.5461 84.3586 26.5687 67.1715 27.0243L67.2775 31.0228C83.4683 30.5937 99.236 36.2246 111.492 46.8126L114.107 43.7857ZM67.1715 27.0243C49.9845 27.4798 33.5866 34.3356 21.1898 46.2488L23.9614 49.1329C35.6396 37.9104 51.0868 31.452 67.2775 31.0228L67.1715 27.0243ZM21.1898 46.2488C8.79304 58.1619 1.29047 74.2741 0.151628 91.4295L4.14284 91.6944C5.21566 75.5336 12.2833 60.3554 23.9614 49.1329L21.1898 46.2488ZM0.151628 91.4295C-0.987209 108.585 4.31974 125.547 15.033 138.995L18.1615 136.502C8.06932 123.834 3.07003 107.855 4.14284 91.6944L0.151628 91.4295ZM15.033 138.995C25.7463 152.442 41.094 161.405 58.07 164.129L58.7037 160.179C42.7117 157.614 28.2537 149.17 18.1615 136.502L15.033 138.995ZM58.07 164.129C75.0461 166.852 92.4274 163.14 106.809 153.718L104.618 150.372C91.0692 159.247 74.6956 162.745 58.7037 160.179L58.07 164.129ZM117 145V149C119.209 149 121 147.209 121 145H117ZM117 145H113C113 147.209 114.791 149 117 149V145ZM117 145V141C114.791 141 113 142.791 113 145H117ZM117 145H121C121 142.791 119.209 141 117 141V145ZM76.8775 94.45L96.8775 75.45L94.1225 72.55L74.1225 91.55L76.8775 94.45ZM65.3732 91.046L56.3732 82.546L53.6268 85.454L62.6268 93.954L65.3732 91.046ZM25 98H29.5V94H25V98ZM108 98H112.5V94H108V98ZM71 58.5V54H67V58.5H71ZM71 139.5V135H67V139.5H71ZM50 9.5C50 6.46243 52.4624 4 55.5 4V0C50.2533 0 46 4.25329 46 9.5H50ZM55.5 4H82.5V0H55.5V4ZM82.5 4C85.5376 4 88 6.46243 88 9.5H92C92 4.25329 87.7467 0 82.5 0V4ZM88 9.5C88 12.5376 85.5376 15 82.5 15V19C87.7467 19 92 14.7467 92 9.5H88ZM82.5 15H55.5V19H82.5V15ZM55.5 15C52.4624 15 50 12.5376 50 9.5H46C46 14.7467 50.2533 19 55.5 19V15ZM56 20V29H60V20H56ZM76 20V29H80V20H76Z" fill="white"/>
</svg>
