<svg width="136" height="145" viewBox="0 0 136 145" fill="none" xmlns="http://www.w3.org/2000/svg">
<path fill-rule="evenodd" clip-rule="evenodd" d="M58.5 0.912109C57.6716 0.912109 57 1.58368 57 2.41211V16.4121V124.412C57 124.661 57.062 124.906 57.1804 125.125L67.1804 143.625C67.4451 144.115 67.9592 144.418 68.5159 144.412C69.0725 144.406 69.5801 144.092 69.8344 143.597L79.3344 125.097C79.4432 124.885 79.5 124.65 79.5 124.412V16.4121V2.41211C79.5 1.58368 78.8284 0.912109 78 0.912109H58.5ZM60 14.9121V3.91211H76.5V14.9121H60ZM60 17.9121H66.5V73.9121C66.5 74.7405 67.1716 75.4121 68 75.4121C68.8284 75.4121 69.5 74.7405 69.5 73.9121V17.9121H76.5V122.912H69.5V108.912C69.5 108.084 68.8284 107.412 68 107.412C67.1716 107.412 66.5 108.084 66.5 108.912V122.912H60V17.9121ZM68 125.912H61.0159L68.466 139.695L75.5435 125.912H68ZM44 37.9121C44 37.0837 43.3284 36.4121 42.5 36.4121C41.6716 36.4121 41 37.0837 41 37.9121V78.9121C41 79.3471 41.1889 79.7607 41.5176 80.0456L49.0176 86.5456C49.6436 87.0882 50.591 87.0205 51.1335 86.3945C51.6761 85.7685 51.6084 84.8211 50.9824 84.2786L44 78.2272V37.9121ZM2 17.4121C2.82843 17.4121 3.5 18.0837 3.5 18.9121V54.2908L13.0607 63.8514C13.6464 64.4372 13.6464 65.387 13.0607 65.9728C12.4749 66.5586 11.5251 66.5586 10.9393 65.9728L0.93934 55.9728C0.658035 55.6915 0.5 55.3099 0.5 54.9121V18.9121C0.5 18.0837 1.17157 17.4121 2 17.4121ZM24.5 56.9121C24.5 56.0837 23.8284 55.4121 23 55.4121C22.1716 55.4121 21.5 56.0837 21.5 56.9121V91.9121C21.5 92.3099 21.658 92.6915 21.9393 92.9728L48.4393 119.473C49.0251 120.059 49.9749 120.059 50.5607 119.473C51.1464 118.887 51.1464 117.937 50.5607 117.351L24.5 91.2908V56.9121ZM34.4202 85.8709C34.9953 85.2746 35.9449 85.2573 36.5412 85.8323L50.5412 99.3323C51.1375 99.9074 51.1548 100.857 50.5798 101.453C50.0047 102.05 49.0551 102.067 48.4588 101.492L34.4588 87.9919C33.8625 87.4168 33.8452 86.4672 34.4202 85.8709ZM95 20.4121C95 19.5837 94.3284 18.9121 93.5 18.9121C92.6716 18.9121 92 19.5837 92 20.4121V77.3626L86.8549 83.4432C86.3198 84.0756 86.3987 85.0221 87.0311 85.5572C87.6635 86.0923 88.61 86.0134 89.1451 85.381L94.6451 78.881C94.8742 78.6102 95 78.2669 95 77.9121V20.4121ZM102.061 85.8514C102.646 86.4372 102.646 87.387 102.061 87.9728L89.0607 100.973C88.4749 101.559 87.5251 101.559 86.9393 100.973C86.3536 100.387 86.3536 99.4372 86.9393 98.8514L99.9393 85.8514C100.525 85.2657 101.475 85.2657 102.061 85.8514ZM115 58.9121C115 58.0837 114.328 57.4121 113.5 57.4121C112.672 57.4121 112 58.0837 112 58.9121V91.2821L86.9499 115.841C86.3583 116.421 86.3489 117.371 86.9289 117.962C87.5089 118.554 88.4585 118.563 89.0501 117.983L114.55 92.9832C114.838 92.7011 115 92.3151 115 91.9121V58.9121ZM134 33.4121C134.828 33.4121 135.5 34.0837 135.5 34.9121V53.4121C135.5 53.8099 135.342 54.1915 135.061 54.4728L124.561 64.9728C123.975 65.5586 123.025 65.5586 122.439 64.9728C121.854 64.387 121.854 63.4372 122.439 62.8514L132.5 52.7908V34.9121C132.5 34.0837 133.172 33.4121 134 33.4121ZM25 48.4121H21V52.4121H25V48.4121ZM0 10.4121H4V14.4121H0V10.4121ZM45 29.4121H41V33.4121H45V29.4121ZM92 12.4121H96V16.4121H92V12.4121ZM136 25.4121H132V29.4121H136V25.4121ZM112 48.4121H116V52.4121H112V48.4121ZM70 101.412V97.4121H66V101.412H70ZM21 40.4121H25V44.4121H21V40.4121ZM4 2.41211H0V6.41211H4V2.41211ZM41 21.4121H45V25.4121H41V21.4121ZM96 4.41211H92V8.41211H96V4.41211ZM132 17.4121H136V21.4121H132V17.4121ZM116 40.4121H112V44.4121H116V40.4121ZM70 89.4121V93.4121H66V89.4121H70ZM116 32.4121H112V36.4121H116V32.4121ZM70 81.4121V85.4121H66V81.4121H70ZM25 33.4121H21V37.4121H25V33.4121Z" fill="white"/>
</svg>
