<svg width="109" height="108" viewBox="0 0 109 108" fill="none" xmlns="http://www.w3.org/2000/svg">
<path fill-rule="evenodd" clip-rule="evenodd" d="M54.6787 64C60.2016 64 64.6787 59.5228 64.6787 54C64.6787 52.9176 64.5067 51.8754 64.1887 50.8992L82.5562 33.45C83.357 32.6892 83.3895 31.4233 82.6287 30.6225C81.8679 29.8217 80.602 29.7892 79.8012 30.55L62.1334 47.3344C60.3023 45.288 57.6409 44 54.6787 44C52.2151 44 49.9595 44.8909 48.2166 46.3681L42.052 40.546C41.2489 39.7876 39.9831 39.8237 39.2247 40.6268C38.4663 41.4298 38.5024 42.6956 39.3055 43.454L45.7335 49.5249C45.0586 50.8714 44.6787 52.3913 44.6787 54C44.6787 59.5228 49.1559 64 54.6787 64ZM60.6787 54C60.6787 57.3137 57.9924 60 54.6787 60C51.365 60 48.6787 57.3137 48.6787 54C48.6787 50.6863 51.365 48 54.6787 48C57.9924 48 60.6787 50.6863 60.6787 54Z" fill="white"/>
<path d="M8.67871 54C8.67871 52.8954 9.57414 52 10.6787 52H15.1787C16.2833 52 17.1787 52.8954 17.1787 54C17.1787 55.1046 16.2833 56 15.1787 56H10.6787C9.57414 56 8.67871 55.1046 8.67871 54Z" fill="white"/>
<path d="M93.6787 52C92.5741 52 91.6787 52.8954 91.6787 54C91.6787 55.1046 92.5741 56 93.6787 56H98.1787C99.2833 56 100.179 55.1046 100.179 54C100.179 52.8954 99.2833 52 98.1787 52H93.6787Z" fill="white"/>
<path d="M54.6787 18.5C53.5741 18.5 52.6787 17.6046 52.6787 16.5V12C52.6787 10.8954 53.5741 10 54.6787 10C55.7833 10 56.6787 10.8954 56.6787 12V16.5C56.6787 17.6046 55.7833 18.5 54.6787 18.5Z" fill="white"/>
<path d="M52.6787 97.5C52.6787 98.6046 53.5741 99.5 54.6787 99.5C55.7833 99.5 56.6787 98.6046 56.6787 97.5V93C56.6787 91.8954 55.7833 91 54.6787 91C53.5741 91 52.6787 91.8954 52.6787 93V97.5Z" fill="white"/>
<path fill-rule="evenodd" clip-rule="evenodd" d="M54.6787 108C84.5021 108 108.679 83.8234 108.679 54C108.679 24.1766 84.5021 0 54.6787 0C24.8553 0 0.678711 24.1766 0.678711 54C0.678711 83.8234 24.8553 108 54.6787 108ZM104.679 54C104.679 81.6142 82.2929 104 54.6787 104C27.0645 104 4.67871 81.6142 4.67871 54C4.67871 26.3858 27.0645 4 54.6787 4C82.2929 4 104.679 26.3858 104.679 54Z" fill="white"/>
</svg>
