<svg width="132" height="140" viewBox="0 0 132 140" fill="none" xmlns="http://www.w3.org/2000/svg">
<path fill-rule="evenodd" clip-rule="evenodd" d="M115.679 29C122.858 29 128.679 23.1797 128.679 16C128.679 8.8203 122.858 3 115.679 3C108.499 3 102.679 8.8203 102.679 16C102.679 23.1797 108.499 29 115.679 29ZM115.679 32C124.515 32 131.679 24.8366 131.679 16C131.679 7.16344 124.515 0 115.679 0C106.842 0 99.6787 7.16344 99.6787 16C99.6787 17.717 99.9492 19.3709 100.45 20.9213L39.4209 49.727C35.3857 44.9983 29.3823 42 22.6787 42C10.5284 42 0.678711 51.8497 0.678711 64C0.678711 76.1503 10.5284 86 22.6787 86C27.0595 86 31.1412 84.7196 34.57 82.5126L65.5832 113.526C63.1507 116.332 61.6787 119.994 61.6787 124C61.6787 132.837 68.8422 140 77.6787 140C86.5153 140 93.6787 132.837 93.6787 124C93.6787 115.163 86.5153 108 77.6787 108C73.9283 108 70.4793 109.29 67.7514 111.451L37.0005 80.7004C41.701 76.6657 44.6787 70.6806 44.6787 64C44.6787 59.6519 43.4173 55.5984 41.2405 52.1855L101.638 23.678C104.356 28.6374 109.624 32 115.679 32ZM34.2686 79.0569C38.7753 75.5827 41.6787 70.1304 41.6787 64C41.6787 53.5066 33.1721 45 22.6787 45C12.1853 45 3.67871 53.5066 3.67871 64C3.67871 74.4934 12.1853 83 22.6787 83C26.6697 83 30.3733 81.7695 33.4308 79.6672C33.4846 79.5867 33.547 79.5104 33.618 79.4393C33.8056 79.2518 34.0304 79.1243 34.2686 79.0569ZM68.7199 114.58C68.7152 114.584 68.7105 114.589 68.7058 114.593C66.2246 116.961 64.6787 120.3 64.6787 124C64.6787 131.18 70.499 137 77.6787 137C84.8584 137 90.6787 131.18 90.6787 124C90.6787 116.82 84.8584 111 77.6787 111C74.2062 111 71.0518 112.361 68.7199 114.58Z" fill="white"/>
</svg>
