<svg width="107" height="107" viewBox="0 0 107 107" fill="none" xmlns="http://www.w3.org/2000/svg">
<path fill-rule="evenodd" clip-rule="evenodd" d="M97.361 0.321289H9C4.02944 0.321289 0 4.35072 0 9.32128V97.6823C0 102.653 4.02944 106.682 9 106.682H37.1444C37.1646 106.682 37.1847 106.682 37.2048 106.682H97.361C102.332 106.682 106.361 102.653 106.361 97.6823V9.32129C106.361 4.35073 102.332 0.321289 97.361 0.321289ZM43.8529 103.682H97.361C100.675 103.682 103.361 100.996 103.361 97.6823V9.32129C103.361 6.00758 100.675 3.32129 97.361 3.32129H9C5.68629 3.32129 3 6.00757 3 9.32128V62.8298C4.59227 61.4046 6.69494 60.5381 9 60.5381H37.1444C42.115 60.5381 46.1444 64.5675 46.1444 69.5381V97.6825C46.1444 99.9875 45.2779 102.09 43.8529 103.682ZM3 69.5381C3 66.2244 5.68629 63.5381 9 63.5381H37.1444C40.4581 63.5381 43.1444 66.2244 43.1444 69.5381V97.6825C43.1444 100.98 40.4847 103.656 37.1937 103.682H8.99999C6.1005 103.682 3.68137 101.626 3.1219 98.8915C3.04199 98.501 3.00002 98.0964 3 97.6823" fill="white"/>
</svg>
