<svg width="173" height="170" viewBox="0 0 173 170" fill="none" xmlns="http://www.w3.org/2000/svg">
<path fill-rule="evenodd" clip-rule="evenodd" d="M163.04 0H74.6787C69.7082 0 65.6787 4.02943 65.6787 8.99999V63H9.67871C4.70815 63 0.678711 67.0294 0.678711 72V160.361C0.678711 165.332 4.70814 169.361 9.67871 169.361H98.0397C103.01 169.361 107.04 165.332 107.04 160.361V106.361H163.04C168.01 106.361 172.04 102.332 172.04 97.361V9C172.04 4.02944 168.01 0 163.04 0ZM107.04 103.361H163.04C166.353 103.361 169.04 100.675 169.04 97.361V9C169.04 5.68629 166.353 3 163.04 3H74.6787C71.365 3 68.6787 5.68629 68.6787 8.99999V63H98.0397C103.01 63 107.04 67.0294 107.04 72V103.361ZM68.6787 66H98.0397C101.353 66 104.04 68.6863 104.04 72V103.361H74.6787C71.365 103.361 68.6787 100.675 68.6787 97.361V66ZM65.6787 66V97.361C65.6787 102.332 69.7081 106.361 74.6787 106.361H104.04V160.361C104.04 163.675 101.353 166.361 98.0397 166.361H9.67871C6.365 166.361 3.67871 163.675 3.67871 160.361V72C3.67871 68.6863 6.365 66 9.67871 66H65.6787Z" fill="white"/>
</svg>
