<svg width="88" height="84" viewBox="0 0 88 84" fill="none" xmlns="http://www.w3.org/2000/svg">
<path d="M30.5 26V30C30.5 31.6569 31.8431 33 33.5 33H43.5M56.5 26V30C56.5 31.6569 55.1569 33 53.5 33H43.5M43.5 33V26M43.5 33V42M43.5 42H63.5C65.1569 42 66.5 43.3431 66.5 45V58M43.5 42H24C22.3431 42 21 43.3431 21 45V58" stroke="white" stroke-width="2"/>
<path d="M18.9315 50.5H69.0761C78.2056 50.5 85.6891 43.2578 85.9882 34.1332C86.2969 24.7199 78.86 16.8662 69.4438 16.6615L62.7265 16.5154L57.6446 10.2608C56.9314 9.38299 56.1347 8.57639 55.2659 7.85231L54.3298 7.07229C48.0524 1.84112 38.9397 1.82157 32.6399 7.02575C31.4786 7.98513 30.45 9.09475 29.5813 10.3254L25.2104 16.5176L18.5471 16.669C9.57061 16.873 2.3171 24.054 2.02287 33.0279C1.70957 42.5835 9.37081 50.5 18.9315 50.5Z" stroke="white" stroke-width="3"/>
<circle cx="43.5" cy="22.5" r="3.5" stroke="white" stroke-width="2"/>
<circle cx="56.5" cy="22.5" r="3.5" stroke="white" stroke-width="2"/>
<circle cx="30.5" cy="22.5" r="3.5" stroke="white" stroke-width="2"/>
<path d="M19 72.4086V66.645C19 65.8951 19.7947 65.412 20.4603 65.7572L26.224 68.7458C26.9556 69.1251 26.9401 70.177 26.1975 70.5345L20.4338 73.3096C19.7699 73.6293 19 73.1455 19 72.4086Z" stroke="white" stroke-width="2"/>
<path d="M63 72.4086V66.645C63 65.8951 63.7947 65.412 64.4603 65.7572L70.224 68.7458C70.9556 69.1251 70.9401 70.177 70.1975 70.5345L64.4338 73.3096C63.7699 73.6293 63 73.1455 63 72.4086Z" stroke="white" stroke-width="2"/>
<rect x="4.5" y="57.5" width="35" height="25" rx="3.5" stroke="white" stroke-width="3"/>
<rect x="48.5" y="57.5" width="35" height="25" rx="3.5" stroke="white" stroke-width="3"/>
</svg>
