<svg width="102" height="196" viewBox="0 0 102 196" fill="none" xmlns="http://www.w3.org/2000/svg">
<path fill-rule="evenodd" clip-rule="evenodd" d="M33.4915 0C30.396 0 27.3224 0.494747 24.4427 1.46341C21.5633 2.43197 18.9181 3.861 16.6678 5.68842C14.4169 7.51639 12.5967 9.71471 11.3418 12.1751C10.0854 14.6384 9.42704 17.3039 9.42704 20.0138V41.7304H8.80431C3.94182 41.7304 0 45.6703 0 50.5303V98.5346C0 103.395 3.94182 107.334 8.8043 107.334H10.8688C12.258 107.334 13.3843 106.209 13.3843 104.82C13.3843 103.432 12.258 102.306 10.8688 102.306H8.8043C6.72038 102.306 5.03103 100.617 5.03103 98.5346V50.5303C5.03103 48.4474 6.72038 46.7589 8.80431 46.7589H58.1799C60.2638 46.7589 61.9532 48.4474 61.9532 50.5303V85.8023C61.9532 87.1909 63.0794 88.3165 64.4687 88.3165C65.858 88.3165 66.9842 87.1909 66.9842 85.8023V50.5303C66.9842 45.6703 63.0424 41.7304 58.1799 41.7304H57.5559V20.0138C57.5559 17.3039 56.8976 14.6384 55.6412 12.1751C54.3862 9.71471 52.5661 7.51639 50.3151 5.68841C48.0649 3.861 45.4197 2.43197 42.5403 1.46341C39.6606 0.494746 36.587 0 33.4915 0ZM52.5249 41.7304V20.0138C52.5249 18.1276 52.0685 16.242 51.159 14.459C50.2481 12.6731 48.8937 11.0131 47.1426 9.59108C45.3909 8.16853 43.285 7.01954 40.9355 6.22922C38.5863 5.43901 36.0557 5.02847 33.4915 5.02847C30.9273 5.02847 28.3966 5.43901 26.0474 6.22922C23.6979 7.01954 21.5921 8.16853 19.8404 9.59109C18.0893 11.0131 16.7349 12.6731 15.824 14.459C14.9145 16.242 14.4581 18.1276 14.4581 20.0138V41.7304H52.5249Z" fill="white"/>
<path fill-rule="evenodd" clip-rule="evenodd" d="M33.5433 64.6139C26.9251 64.6139 21.5802 70.0145 21.6521 76.629L22.1362 121.139L21.1908 119.827C17.5221 114.735 10.4332 113.548 5.30498 117.168C0.143457 120.812 -1.08547 127.948 2.56009 133.107L8.8411 141.995L8.84599 142.002L24.6563 164.217C25.2621 165.068 25.5877 166.087 25.5877 167.132V172.888C25.5877 174.351 26.4213 175.62 27.6398 176.245C27.301 177.017 27.113 177.87 27.113 178.767V189.714C27.113 193.186 29.9286 196 33.4018 196H88.799C92.2723 196 95.0878 193.186 95.0878 189.714V178.767C95.0878 177.743 94.8428 176.776 94.4081 175.922C95.3369 175.235 95.9392 174.132 95.9392 172.888L95.9392 166.812C95.9392 165.9 96.187 165.006 96.6561 164.225L100.566 157.712C101.504 156.149 102 154.36 102 152.537L102 131.771L102 131.741V119.626C102 113.033 96.6529 107.689 90.0568 107.689C87.4348 107.689 85.0102 108.533 83.0403 109.965C82.2645 104.122 77.2598 99.6131 71.2015 99.6131C68.3368 99.6131 65.7077 100.621 63.6498 102.302C62.0432 97.6055 57.5893 94.2286 52.3462 94.2286C49.7709 94.2286 47.3859 95.0433 45.4353 96.429V76.4998C45.4353 69.9354 40.1111 64.6139 33.5433 64.6139ZM22.6949 130.52C23.3427 131.419 24.4746 131.763 25.4783 131.453C26.5163 131.134 27.2656 130.163 27.2532 129.023L26.6828 76.5743C26.6413 72.7582 29.725 69.6424 33.5433 69.6424C37.3325 69.6424 40.4042 72.7126 40.4042 76.4998V105.585H40.4169C40.4077 105.777 40.403 105.971 40.403 106.166V125.011C40.403 126.4 41.5293 127.526 42.9185 127.526C44.3078 127.526 45.4341 126.4 45.4341 125.011V106.166C45.4341 102.35 48.5287 99.2571 52.3462 99.2571C56.1637 99.2571 59.2583 102.35 59.2583 106.166L59.2583 126.358C59.2583 127.746 60.3846 128.872 61.7739 128.872C63.1631 128.872 64.2894 127.746 64.2894 126.358V111.55C64.2894 107.735 67.384 104.642 71.2015 104.642C75.019 104.642 78.1136 107.735 78.1136 111.55L78.1137 131.741C78.1137 133.129 79.2399 134.255 80.6292 134.255C82.0184 134.255 83.1447 133.129 83.1447 131.741V119.626C83.1447 115.81 86.2393 112.717 90.0568 112.717C93.8743 112.717 96.969 115.81 96.969 119.626V131.713L96.9688 131.742L96.9688 152.537C96.9688 153.449 96.721 154.343 96.2518 155.124L92.342 161.638C91.4038 163.201 90.9081 164.989 90.9081 166.812L90.9082 171.631H30.6187L30.6187 167.132C30.6187 165.042 29.9676 163.005 28.7559 161.302L12.9505 139.094L6.66948 130.206C4.6269 127.316 5.31546 123.317 8.20742 121.276C11.0807 119.247 15.0526 119.912 17.1082 122.765L22.6949 130.52ZM32.1441 178.767C32.1441 178.073 32.7072 177.51 33.4018 177.51H88.799C89.4937 177.51 90.0568 178.073 90.0568 178.767V189.714C90.0568 190.409 89.4937 190.972 88.799 190.972H33.4018C32.7072 190.972 32.1441 190.409 32.1441 189.714V178.767Z" fill="white"/>
</svg>
