<svg width="249" height="249" viewBox="0 0 249 249" fill="none" xmlns="http://www.w3.org/2000/svg">
<circle cx="124.5" cy="124.5" r="124.5" fill="#222222"/>
<path d="M124.606 86.6754V71.1758C112.606 71.1758 82.1056 77.1759 80.1056 111.176C79.2722 119.009 83.0055 137.576 104.606 151.176V160.176" stroke="white" stroke-width="4" stroke-linecap="round"/>
<path d="M140.105 160.176V151.176C161.705 137.576 164.605 121.676 164.605 111.676H151.605" stroke="white" stroke-width="4" stroke-linecap="round"/>
<rect x="100.105" y="160.176" width="45" height="9" rx="4" stroke="white" stroke-width="4"/>
<rect x="105.105" y="169.176" width="35" height="9" rx="4" stroke="white" stroke-width="4"/>
<path d="M80.6055 111.676H98.1055C98.1055 108.843 99.7888 103.176 104.605 103.176C109.605 103.176 111.105 108.676 111.105 111.676" stroke="white" stroke-width="4" stroke-linecap="square"/>
<path d="M151.605 111.676C151.605 108.676 150.105 103.176 145.105 103.176C140.289 103.176 138.605 108.843 138.605 111.676H121.105H111.105" stroke="white" stroke-width="4" stroke-linecap="square"/>
<path d="M124.606 87.1752C121.606 87.1884 116.112 88.7127 116.134 93.7127C116.156 98.5293 121.83 100.188 124.663 100.175L124.74 117.675L124.74 125.175" stroke="white" stroke-width="4" stroke-linecap="square"/>
<path d="M146.663 82.1764C143.83 82.1889 138.155 80.5306 138.134 75.714C138.112 70.7141 143.605 69.1898 146.606 69.1766L146.647 61.1612C146.656 59.5105 147.997 58.1769 149.647 58.1769L183.605 58.1769C185.262 58.1769 186.605 59.52 186.605 61.1769L186.605 90.6769C186.605 92.3337 185.262 93.6769 183.605 93.6769L174.105 93.6769" stroke="white" stroke-width="4" stroke-linecap="square"/>
<path d="M174.105 93.676C174.105 90.6758 172.605 85.1756 167.605 85.1758C162.789 85.1759 161.105 90.8427 161.105 93.676H147.105V82.1758" stroke="white" stroke-width="4" stroke-linecap="square"/>
<path d="M124.606 125.177C121.606 125.19 116.112 126.715 116.134 131.715C116.156 136.531 121.83 138.19 124.663 138.177L124.741 155.677L124.74 159.177" stroke="white" stroke-width="4" stroke-linecap="square"/>
<path d="M135.105 177.176C135.105 181.021 135.578 184.71 132.859 187.429C130.139 190.148 126.451 191.676 122.605 191.676C118.76 191.676 115.072 190.148 112.352 187.429C109.633 184.71 109.605 181.021 109.605 177.176" stroke="white" stroke-width="4"/>
</svg>
