<svg width="111" height="138" viewBox="0 0 111 138" fill="none" xmlns="http://www.w3.org/2000/svg">
<path d="M46.6056 30.6764V15.1768C34.6056 15.1768 4.10555 21.1769 2.10555 55.1766C1.27222 63.01 5.00553 81.5768 26.6055 95.1768V104.177" stroke="white" stroke-width="4" stroke-linecap="round"/>
<path d="M62.1055 104.177V95.1769C83.7055 81.5769 86.6055 65.6768 86.6055 55.6768H73.6055" stroke="white" stroke-width="4" stroke-linecap="round"/>
<rect x="22.1055" y="104.177" width="45" height="9" rx="4" stroke="white" stroke-width="4"/>
<rect x="27.1055" y="113.177" width="35" height="9" rx="4" stroke="white" stroke-width="4"/>
<path d="M2.60547 55.677H20.1055C20.1055 52.8437 21.7888 47.1769 26.6055 47.1768C31.6055 47.1766 33.1055 52.6768 33.1055 55.677" stroke="white" stroke-width="4" stroke-linecap="square"/>
<path d="M73.6055 55.677C73.6055 52.6768 72.1055 47.1766 67.1055 47.1768C62.2888 47.1769 60.6055 52.8437 60.6055 55.677H43.1055H33.1055" stroke="white" stroke-width="4" stroke-linecap="square"/>
<path d="M46.6058 31.1762C43.6055 31.1894 38.1121 32.7137 38.1343 37.7136C38.1557 42.5302 43.8299 44.1885 46.6632 44.176L46.7405 61.6759L46.7405 69.1765" stroke="white" stroke-width="4" stroke-linecap="square"/>
<path d="M68.6634 26.1764C65.8301 26.1889 60.156 24.5306 60.1345 19.714C60.1123 14.7141 65.6058 13.1898 68.606 13.1766L68.6479 5.1612C68.6565 3.51048 69.9971 2.17686 71.6478 2.17686L105.606 2.17686C107.263 2.17686 108.606 3.52 108.606 5.17686L108.606 34.6769C108.606 36.3337 107.263 37.6769 105.606 37.6769L96.1059 37.6769" stroke="white" stroke-width="4" stroke-linecap="square"/>
<path d="M96.1055 37.677C96.1055 34.6768 94.6055 29.1766 89.6055 29.1768C84.7888 29.1769 83.1055 34.8437 83.1055 37.677H69.1055V26.1768" stroke="white" stroke-width="4" stroke-linecap="square"/>
<path d="M46.6058 69.1762C43.6056 69.1894 38.1121 70.7137 38.1344 75.7137C38.1558 80.5302 43.83 82.1886 46.6633 82.176L46.7406 99.6759L46.7405 103.176" stroke="white" stroke-width="4" stroke-linecap="square"/>
<path d="M57.1055 121.177C57.1055 125.022 57.5778 128.711 54.8585 131.43C52.1392 134.149 48.4511 135.677 44.6055 135.677C40.7598 135.677 37.0717 134.149 34.3524 131.43C31.6331 128.711 31.6055 125.022 31.6055 121.177" stroke="white" stroke-width="4"/>
</svg>
