<svg width="139" height="85" viewBox="0 0 139 85" fill="none" xmlns="http://www.w3.org/2000/svg">
<path fill-rule="evenodd" clip-rule="evenodd" d="M67.8642 0.876362C67.6927 0.501262 67.3744 0.213315 66.984 0.0802343C66.5936 -0.0528464 66.1657 -0.0193183 65.8008 0.172934L19.3008 24.6729C18.5679 25.0591 18.2868 25.9663 18.6729 26.6992C19.0591 27.4321 19.9663 27.7132 20.6992 27.3271L65.7955 3.56668L81.1358 37.1236C81.2676 37.4119 81.4873 37.6511 81.7635 37.8067L106.914 51.9824L53.518 81.2792L25.1663 64.9408L10.3656 32.3793C10.1391 31.881 9.65914 31.5457 9.11336 31.5043C8.56757 31.4629 8.04259 31.7221 7.74359 32.1806L0.243593 43.6806C-0.120214 44.2384 -0.0726475 44.9693 0.36039 45.4753C0.793427 45.9813 1.50823 46.1412 2.11556 45.8679L11.3189 41.7264L22.5016 66.3284C22.7176 66.8036 23.077 67.1993 23.5293 67.46L52.2638 84.0188C53.0202 84.4547 53.9492 84.4645 54.7146 84.0445L110.722 53.3151C111.199 53.0531 111.497 52.5531 111.5 52.0086C111.503 51.4641 111.211 50.9606 110.737 50.6933L83.6614 35.4328L67.8642 0.876362ZM8.76456 36.1069L10.0774 38.9953L5.55304 41.0313L8.76456 36.1069ZM112.231 21.69C111.813 21.4569 111.309 21.4372 110.874 21.637L92.3738 30.137C91.8635 30.3714 91.5269 30.8712 91.5015 31.4322C91.4762 31.9932 91.7662 32.5213 92.2532 32.8009L119.253 48.3009C119.705 48.56 120.258 48.5666 120.716 48.3183L138.216 38.8183C138.696 38.5573 138.997 38.0555 139 37.5085C139.003 36.9616 138.708 36.4563 138.231 36.19L112.231 21.69ZM120.02 45.2821L96.2707 31.648L111.434 24.6809L134.389 37.4823L120.02 45.2821Z" fill="white"/>
</svg>
