<svg width="57" height="57" viewBox="0 0 57 57" fill="none" xmlns="http://www.w3.org/2000/svg">
<rect x="2" y="2" width="53" height="53" rx="7" stroke="white" stroke-width="4"/>
<path d="M30.252 31.877H23.7305V27.7637H30.252C31.2598 27.7637 32.0801 27.5996 32.7129 27.2715C33.3457 26.9316 33.8086 26.4629 34.1016 25.8652C34.3945 25.2676 34.541 24.5938 34.541 23.8438C34.541 23.082 34.3945 22.373 34.1016 21.7168C33.8086 21.0605 33.3457 20.5332 32.7129 20.1348C32.0801 19.7363 31.2598 19.5371 30.252 19.5371H25.5586V41H20.2852V15.4062H30.252C32.2559 15.4062 33.9727 15.7695 35.4023 16.4961C36.8438 17.2109 37.9453 18.2012 38.707 19.4668C39.4688 20.7324 39.8496 22.1797 39.8496 23.8086C39.8496 25.4609 39.4688 26.8906 38.707 28.0977C37.9453 29.3047 36.8438 30.2363 35.4023 30.8926C33.9727 31.5488 32.2559 31.877 30.252 31.877Z" fill="white"/>
</svg>
