<svg width="170" height="169" viewBox="0 0 170 169" fill="none" xmlns="http://www.w3.org/2000/svg">
<path fill-rule="evenodd" clip-rule="evenodd" d="M136.755 66.3744C155.083 66.3744 169.942 51.516 169.942 33.1872C169.942 14.8584 155.083 0 136.755 0C122.875 0 110.986 8.51999 106.031 20.6152L94.531 15.8564C94.5899 15.3647 94.6203 14.8641 94.6203 14.3565C94.6203 7.46748 89.0356 1.88281 82.1466 1.88281C75.2575 1.88281 69.6729 7.46748 69.6729 14.3565C69.6729 21.2456 75.2575 26.8302 82.1466 26.8302C87.1149 26.8302 91.4048 23.9255 93.4107 19.7217L104.74 24.4099C103.976 27.2057 103.567 30.1488 103.567 33.1872C103.567 36.7524 104.13 40.1863 105.17 43.4051L69.8081 58.6242C64.1606 48.373 53.2516 41.4277 40.7204 41.4277C36.6218 41.4277 32.6968 42.1707 29.0726 43.5293L19.9104 24.3719C22.9672 22.0985 24.9474 18.4587 24.9474 14.3565C24.9474 7.46748 19.3627 1.88281 12.4737 1.88281C5.58467 1.88281 0 7.46748 0 14.3565C0 21.2456 5.58467 26.8302 12.4737 26.8302C13.8297 26.8302 15.1351 26.6139 16.3574 26.2138L25.4179 45.1585C14.7906 50.6907 7.5332 61.8053 7.5332 74.6149C7.5332 86.0812 13.3482 96.1892 22.19 102.151L15.662 113.394C14.6443 113.125 13.5757 112.982 12.4737 112.982C5.58467 112.982 0 118.567 0 125.456C0 132.345 5.58467 137.93 12.4737 137.93C19.3627 137.93 24.9474 132.345 24.9474 125.456C24.9474 121.101 22.7157 117.268 19.3336 115.036L25.6353 104.183C30.1612 106.497 35.2884 107.802 40.7204 107.802C48.8937 107.802 56.377 104.848 62.1603 99.9481L74.5039 113.526C69.162 119.417 65.9072 127.235 65.9072 135.813C65.9072 137.781 66.0785 139.709 66.4069 141.583L49.4353 146.136C47.5689 141.599 43.1048 138.404 37.8946 138.404C31.0056 138.404 25.4209 143.989 25.4209 150.878C25.4209 157.767 31.0056 163.352 37.8946 163.352C44.7836 163.352 50.3683 157.767 50.3683 150.878C50.3683 150.595 50.3588 150.313 50.3402 150.035L67.3356 145.475C71.4725 159.091 84.1263 169 99.0944 169C117.423 169 132.282 154.142 132.282 135.813C132.282 129.493 130.515 123.586 127.449 118.558L144.635 107.66C146.909 110.066 150.13 111.568 153.702 111.568C160.591 111.568 166.176 105.983 166.176 99.0938C166.176 92.2048 160.591 86.6201 153.702 86.6201C146.813 86.6201 141.229 92.2048 141.229 99.0938C141.229 100.971 141.643 102.752 142.386 104.349L125.162 115.272C121.578 110.729 116.831 107.146 111.371 104.971L126.118 64.6333C129.457 65.7623 133.034 66.3744 136.755 66.3744ZM122.411 63.1233C115.473 59.7927 109.871 54.1208 106.63 47.1315L71.5238 62.2406C73.0614 66.0645 73.9076 70.2409 73.9076 74.6149C73.9076 83.3306 70.5478 91.2616 65.0528 97.1834L77.3657 110.728C83.1877 105.68 90.7844 102.626 99.0944 102.626C102.024 102.626 104.865 103.006 107.57 103.718L122.411 63.1233ZM165.942 33.1872C165.942 40.909 162.943 47.9305 158.047 53.1507C157.754 52.0707 157.329 51.0172 156.778 50.0054C155.636 47.9038 153.983 46.0336 151.947 44.4825C149.912 42.9318 147.522 41.7209 144.923 40.9006C144.874 40.8853 144.826 40.8701 144.777 40.8551C147.498 38.567 149.228 35.1373 149.228 31.3038C149.228 24.4147 143.643 18.8301 136.754 18.8301C129.865 18.8301 124.28 24.4147 124.28 31.3038C124.28 35.1374 126.01 38.5672 128.731 40.8553C128.683 40.8703 128.634 40.8854 128.586 40.9006C125.987 41.7209 123.597 42.9318 121.561 44.4825C119.526 46.0336 117.873 47.9038 116.73 50.0054C116.18 51.0171 115.755 52.0705 115.462 53.1504C110.566 47.9302 107.567 40.9089 107.567 33.1872C107.567 17.0676 120.635 4 136.755 4C152.874 4 165.942 17.0676 165.942 33.1872ZM137.987 39.6884C137.577 39.6702 137.166 39.6612 136.754 39.6612C136.343 39.6612 135.931 39.6702 135.521 39.6884C131.425 39.0913 128.28 35.5648 128.28 31.3038C128.28 26.6239 132.074 22.8301 136.754 22.8301C141.434 22.8301 145.228 26.6239 145.228 31.3038C145.228 35.5648 142.083 39.0912 137.987 39.6884ZM135.368 43.7013C133.447 43.8129 131.563 44.1556 129.79 44.7151C127.591 45.409 125.622 46.4173 123.986 47.6643C122.349 48.9109 121.089 50.3621 120.245 51.9159C119.467 53.346 119.05 54.846 118.99 56.3475C123.911 60.1274 130.07 62.3744 136.755 62.3744C143.439 62.3744 149.598 60.1275 154.519 56.3477C154.459 54.8462 154.042 53.3461 153.264 51.9159C152.419 50.3621 151.159 48.9109 149.523 47.6643C147.887 46.4173 145.917 45.409 143.719 44.7151C141.946 44.1555 140.062 43.8128 138.14 43.7013C137.685 43.7516 137.223 43.7775 136.754 43.7775C136.285 43.7775 135.823 43.7517 135.368 43.7013ZM69.9076 74.6149C69.9076 82.3368 66.909 89.3582 62.0126 94.5784C61.7194 93.4984 61.2943 92.4449 60.7443 91.4331C59.6017 89.3315 57.949 87.4613 55.9132 85.9103C53.8778 84.3595 51.4878 83.1486 48.8885 82.3283C48.8401 82.313 48.7916 82.2979 48.743 82.2829C51.4641 79.9947 53.1935 76.5651 53.1935 72.7315C53.1935 65.8425 47.6088 60.2578 40.7198 60.2578C33.8308 60.2578 28.2461 65.8425 28.2461 72.7315C28.2461 76.5652 29.9755 79.9949 32.6968 82.2831L32.6096 82.3102L32.5519 82.3283C29.9527 83.1486 27.5626 84.3595 25.5272 85.9103C23.4915 87.4613 21.8387 89.3315 20.6962 91.4331C20.1461 92.4448 19.7211 93.4982 19.4279 94.5781C14.5317 89.358 11.5332 82.3366 11.5332 74.6149C11.5332 58.4953 24.6008 45.4277 40.7204 45.4277C56.84 45.4277 69.9076 58.4953 69.9076 74.6149ZM41.9532 81.1161C41.5429 81.098 41.1318 81.0889 40.7202 81.0889C40.3084 81.0889 39.8971 81.098 39.4866 81.1161C35.3912 80.519 32.2461 76.9926 32.2461 72.7315C32.2461 68.0516 36.0399 64.2578 40.7198 64.2578C45.3997 64.2578 49.1935 68.0516 49.1935 72.7315C49.1935 76.9925 46.0485 80.5189 41.9532 81.1161ZM39.3337 85.1291C37.4124 85.2406 35.5288 85.5833 33.7557 86.1429C31.5572 86.8367 29.588 87.8451 27.9514 89.092C26.3152 90.3387 25.0552 91.7898 24.2104 93.3436C23.4329 94.7738 23.0157 96.2737 22.9558 97.7752C27.8764 101.555 34.036 103.802 40.7204 103.802C47.4047 103.802 53.5641 101.555 58.4847 97.7755C58.4248 96.2739 58.0076 94.7738 57.23 93.3436C56.3853 91.7898 55.1253 90.3387 53.489 89.092C51.8524 87.8451 49.8832 86.8367 47.6847 86.1429C45.9115 85.5832 44.0277 85.2406 42.1062 85.129C41.651 85.1794 41.1884 85.2052 40.7198 85.2052C40.2513 85.2052 39.7888 85.1794 39.3337 85.1291ZM116.859 158.974C111.938 162.753 105.779 165 99.0944 165C92.41 165 86.2504 162.753 81.3298 158.973C81.3898 157.472 81.8069 155.972 82.5844 154.542C83.4292 152.988 84.6892 151.537 86.3254 150.29C87.962 149.043 89.9313 148.035 92.1298 147.341C93.9028 146.782 95.7864 146.439 97.7078 146.327C98.1628 146.378 98.6253 146.403 99.0938 146.403C99.5624 146.403 100.025 146.378 100.48 146.327C102.402 146.439 104.285 146.781 106.059 147.341C108.257 148.035 110.226 149.043 111.863 150.29C113.499 151.537 114.759 152.988 115.604 154.542C116.382 155.972 116.799 157.472 116.859 158.974ZM90.9259 143.527C90.9742 143.511 91.0225 143.496 91.0708 143.481C88.3496 141.193 86.6201 137.763 86.6201 133.93C86.6201 127.041 92.2048 121.456 99.0938 121.456C105.983 121.456 111.568 127.041 111.568 133.93C111.568 137.763 109.838 141.193 107.117 143.481L107.177 143.5L107.263 143.527C109.862 144.347 112.252 145.558 114.287 147.109C116.323 148.66 117.976 150.53 119.118 152.631C119.668 153.643 120.093 154.697 120.387 155.777C125.283 150.556 128.282 143.535 128.282 135.813C128.282 119.694 115.214 106.626 99.0944 106.626C82.9748 106.626 69.9072 119.694 69.9072 135.813C69.9072 143.535 72.9058 150.556 77.8019 155.776C78.0951 154.696 78.5202 153.643 79.0702 152.631C80.2127 150.53 81.8655 148.66 83.9013 147.109C85.9367 145.558 88.3267 144.347 90.9259 143.527ZM99.0942 142.287C99.5058 142.287 99.917 142.296 100.327 142.314C104.423 141.717 107.568 138.191 107.568 133.93C107.568 129.25 103.774 125.456 99.0938 125.456C94.4139 125.456 90.6201 129.25 90.6201 133.93C90.6201 138.191 93.7652 141.717 97.8606 142.314C98.2711 142.296 98.6824 142.287 99.0942 142.287ZM12.4737 22.8302C17.1536 22.8302 20.9474 19.0364 20.9474 14.3565C20.9474 9.67662 17.1536 5.88281 12.4737 5.88281C7.79381 5.88281 4 9.67662 4 14.3565C4 19.0364 7.79381 22.8302 12.4737 22.8302ZM90.6203 14.3565C90.6203 19.0364 86.8265 22.8302 82.1466 22.8302C77.4667 22.8302 73.6729 19.0364 73.6729 14.3565C73.6729 9.67662 77.4667 5.88281 82.1466 5.88281C86.8265 5.88281 90.6203 9.67662 90.6203 14.3565ZM153.702 107.568C158.382 107.568 162.176 103.774 162.176 99.0938C162.176 94.4139 158.382 90.6201 153.702 90.6201C149.022 90.6201 145.229 94.4139 145.229 99.0938C145.229 103.774 149.022 107.568 153.702 107.568ZM37.8946 159.352C42.5745 159.352 46.3683 155.558 46.3683 150.878C46.3683 146.198 42.5745 142.404 37.8946 142.404C33.2147 142.404 29.4209 146.198 29.4209 150.878C29.4209 155.558 33.2147 159.352 37.8946 159.352ZM20.9474 125.456C20.9474 130.136 17.1536 133.93 12.4737 133.93C7.79381 133.93 4 130.136 4 125.456C4 120.776 7.79381 116.982 12.4737 116.982C17.1536 116.982 20.9474 120.776 20.9474 125.456Z" fill="white"/>
</svg>
