<svg width="165" height="154" viewBox="0 0 165 154" fill="none" xmlns="http://www.w3.org/2000/svg">
<circle cx="106.5" cy="92.5" r="34" stroke="white" stroke-width="4"/>
<circle cx="106.5" cy="92.5" r="26" stroke="white" stroke-width="4"/>
<path d="M148.043 150.914L148.825 149.073L148.043 150.914C149.347 151.467 150.737 151.773 152.135 151.804C153.533 151.835 154.915 151.591 156.196 151.076C157.479 150.561 158.632 149.786 159.584 148.794C160.537 147.802 161.264 146.619 161.727 145.317C162.189 144.015 162.377 142.625 162.289 141.229C162.201 139.833 161.84 138.457 161.234 137.177C160.63 135.903 159.794 134.743 158.774 133.759L146.964 121.945C145.809 120.79 143.942 120.771 142.764 121.902L132.251 131.999C131.038 133.163 131.019 135.097 132.208 136.285L144.485 148.552L144.499 148.566L144.513 148.58C145.541 149.566 146.739 150.36 148.043 150.914Z" stroke="white" stroke-width="4"/>
<path d="M124.5 123L132.5 131" stroke="white" stroke-width="4" stroke-linecap="round"/>
<path d="M133 114.5L141 122.5" stroke="white" stroke-width="4" stroke-linecap="round"/>
<path d="M85.5 120H51" stroke="white" stroke-width="4" stroke-linecap="round"/>
<path d="M137 76.5V5C137 3.34315 135.657 2 134 2H5C3.34315 2 2 3.34315 2 5V120.5H23" stroke="white" stroke-width="4" stroke-linecap="round"/>
<path d="M2.5 29.5H137" stroke="white" stroke-width="4" stroke-linecap="round"/>
<circle cx="39.5" cy="16.5" r="2" fill="white"/>
<circle cx="27.5" cy="16.5" r="2" fill="white"/>
<circle cx="37.5" cy="120.5" r="2" fill="white"/>
<circle cx="15.5" cy="16.5" r="2" fill="white"/>
<path d="M58 16.5H106.5" stroke="white" stroke-width="4" stroke-linecap="round"/>
<path d="M18.5 50.5H51.5" stroke="white" stroke-width="4" stroke-linecap="round"/>
<path d="M65.5 50.5H78.5" stroke="white" stroke-width="4" stroke-linecap="round"/>
<path d="M18.5 66H51.5" stroke="white" stroke-width="4" stroke-linecap="round"/>
<rect x="16.5" y="81.5" width="40" height="16" rx="8" stroke="white" stroke-width="4"/>
</svg>
