<svg width="82" height="156" viewBox="0 0 82 156" fill="none" xmlns="http://www.w3.org/2000/svg">
<path fill-rule="evenodd" clip-rule="evenodd" d="M27.5205 0C25.0594 0 22.6157 0.393556 20.3261 1.1641C18.0368 1.93456 15.9337 3.07131 14.1446 4.52496C12.3549 5.97906 10.9078 7.72776 9.91004 9.68493C8.9111 11.6444 8.3877 13.7647 8.3877 15.9204V33.1953H7.89258C4.02659 33.1953 0.892578 36.3293 0.892578 40.1953V78.3813C0.892578 82.2473 4.02658 85.3813 7.89258 85.3813H9.53395C10.6385 85.3813 11.5339 84.4859 11.5339 83.3813C11.5339 82.2768 10.6385 81.3813 9.53395 81.3813H7.89258C6.23572 81.3813 4.89258 80.0382 4.89258 78.3813V40.1953C4.89258 38.5385 6.23572 37.1953 7.89258 37.1953H47.1494C48.8063 37.1953 50.1494 38.5385 50.1494 40.1953V68.2532C50.1494 69.3577 51.0448 70.2532 52.1494 70.2532C53.254 70.2532 54.1494 69.3577 54.1494 68.2532V40.1953C54.1494 36.3293 51.0154 33.1953 47.1494 33.1953H46.6533V15.9204C46.6533 13.7647 46.1299 11.6444 45.131 9.68493C44.1332 7.72776 42.6861 5.97906 40.8964 4.52496C39.1073 3.07131 37.0042 1.93456 34.7149 1.1641C32.4253 0.393556 29.9816 0 27.5205 0ZM42.6533 33.1953V15.9204C42.6533 14.42 42.2904 12.92 41.5673 11.5017C40.8431 10.081 39.7662 8.76058 38.374 7.62942C36.9813 6.49782 35.307 5.58383 33.439 4.95516C31.5712 4.32657 29.5592 4 27.5205 4C25.4818 4 23.4698 4.32657 21.602 4.95516C19.734 5.58383 18.0597 6.49782 16.667 7.62942C15.2748 8.76058 14.1979 10.081 13.4737 11.5017C12.7506 12.92 12.3877 14.42 12.3877 15.9204V33.1953H42.6533Z" fill="white"/>
<path fill-rule="evenodd" clip-rule="evenodd" d="M27.5617 51.3984C22.2998 51.3984 18.0502 55.6944 18.1074 60.9561L18.4923 96.3623L17.7407 95.3186C14.8238 91.2679 9.18762 90.3242 5.11038 93.204C1.00664 96.1024 0.0295594 101.779 2.92802 105.883L7.92183 112.953L7.92572 112.959L20.4959 130.63C20.9776 131.307 21.2365 132.117 21.2365 132.948V137.527C21.2365 138.691 21.8993 139.7 22.868 140.198C22.5987 140.812 22.4492 141.491 22.4492 142.204V150.912C22.4492 153.674 24.6878 155.912 27.4492 155.912H71.4936C74.2551 155.912 76.4936 153.674 76.4936 150.912V142.204C76.4936 141.389 76.2988 140.62 75.9532 139.941C76.6917 139.394 77.1705 138.517 77.1705 137.527L77.1705 132.694C77.1705 131.969 77.3675 131.257 77.7405 130.636L80.8491 125.455C81.5951 124.212 81.9891 122.789 81.9891 121.339L81.9891 104.82L81.9893 104.796V95.1587C81.9893 89.9144 77.7379 85.6631 72.4937 85.6631C70.409 85.6631 68.4812 86.3349 66.915 87.4737C66.2982 82.8256 62.3192 79.2393 57.5024 79.2393C55.2248 79.2393 53.1345 80.0412 51.4984 81.378C50.221 77.6422 46.6798 74.9561 42.5112 74.9561C40.4637 74.9561 38.5675 75.6041 37.0166 76.7063V60.8533C37.0166 55.6315 32.7835 51.3984 27.5617 51.3984ZM18.9365 103.824C19.4515 104.54 20.3514 104.814 21.1495 104.567C21.9747 104.313 22.5705 103.541 22.5607 102.634L22.1072 60.9126C22.0742 57.8769 24.5259 55.3984 27.5617 55.3984C30.5744 55.3984 33.0166 57.8407 33.0166 60.8533V83.9895H33.0267C33.0193 84.1426 33.0156 84.2967 33.0156 84.4517V99.4429C33.0156 100.547 33.9111 101.443 35.0156 101.443C36.1202 101.443 37.0156 100.547 37.0156 99.4429V84.4517C37.0156 81.4165 39.4761 78.9561 42.5112 78.9561C45.5464 78.9561 48.0068 81.4165 48.0068 84.4517L48.0068 100.514C48.0068 101.618 48.9023 102.514 50.0068 102.514C51.1114 102.514 52.0068 101.618 52.0068 100.514V88.7349C52.0068 85.6997 54.4673 83.2393 57.5024 83.2393C60.5376 83.2393 62.998 85.6997 62.998 88.7349L62.998 104.796C62.998 105.9 63.8935 106.796 64.998 106.796C66.1026 106.796 66.998 105.9 66.998 104.796V95.1587C66.998 92.1236 69.4585 89.6631 72.4937 89.6631C75.5288 89.6631 77.9893 92.1236 77.9893 95.1587V104.774L77.9891 104.797L77.9891 121.339C77.9891 122.064 77.7921 122.775 77.4191 123.397L74.3106 128.578C73.5646 129.821 73.1705 131.244 73.1705 132.694L73.1705 136.527H25.2365L25.2365 132.948C25.2365 131.286 24.7188 129.665 23.7554 128.311L11.1891 110.645L6.19525 103.575C4.57126 101.276 5.11872 98.0952 7.41802 96.4712C9.70247 94.8577 12.8604 95.3864 14.4947 97.656L18.9365 103.824ZM26.4492 142.204C26.4492 141.652 26.8969 141.204 27.4492 141.204H71.4936C72.0459 141.204 72.4936 141.652 72.4936 142.204V150.912C72.4936 151.464 72.0459 151.912 71.4936 151.912H27.4492C26.8969 151.912 26.4492 151.464 26.4492 150.912V142.204Z" fill="white"/>
</svg>
