<svg width="66" height="70" viewBox="0 0 66 70" fill="none" xmlns="http://www.w3.org/2000/svg">
<mask id="path-1-inside-1_168_1619" fill="white">
<path fill-rule="evenodd" clip-rule="evenodd" d="M28.4334 0C26.7766 0 25.4334 1.34314 25.4334 3V10.5851C21.8552 11.6098 18.6011 13.4018 15.8605 15.7716L9.62818 11.7087C8.24022 10.8038 6.38154 11.1955 5.4767 12.5834L0.643687 19.997C-0.261149 21.3849 0.130503 23.2436 1.51846 24.1485L7.95673 28.3457C7.39125 30.4485 7.08966 32.6595 7.08966 34.9409C7.08966 37.2985 7.41173 39.5808 8.01427 41.7464L1.42586 45.8088C0.015561 46.6784 -0.422765 48.5267 0.446838 49.937L5.09166 57.4698C5.96126 58.8801 7.80949 59.3185 9.21979 58.4489L16.0261 54.252C18.7318 56.5515 21.927 58.2924 25.4334 59.2966V66.8813C25.4334 68.5382 26.7766 69.8813 28.4334 69.8813H37.2832C38.94 69.8813 40.2832 68.5382 40.2832 66.8813V59.0293C43.2395 58.0651 45.9568 56.5718 48.3232 54.6613L55.0324 59.0351C56.4204 59.94 58.279 59.5483 59.1839 58.1604L64.0169 50.7468C64.9217 49.3589 64.5301 47.5002 63.1421 46.5953L56.6491 42.3624C57.3672 40.0153 57.7536 37.5232 57.7536 34.9409C57.7536 32.8807 57.5077 30.8779 57.0436 28.9604L63.5952 24.9206C65.0055 24.051 65.4438 22.2028 64.5742 20.7925L59.9294 13.2596C59.0598 11.8493 57.2115 11.411 55.8012 12.2806L49.4572 16.1924C46.8405 13.8133 43.7237 11.9746 40.2832 10.8524V3C40.2832 1.34315 38.94 0 37.2832 0H28.4334Z"/>
</mask>
<path d="M25.4334 10.5851L26.5347 14.4305L29.4334 13.6003V10.5851H25.4334ZM15.8605 15.7716L13.6761 19.1225L16.1989 20.7671L18.4769 18.7973L15.8605 15.7716ZM9.62818 11.7087L7.44371 15.0595L7.44371 15.0595L9.62818 11.7087ZM5.4767 12.5834L2.12587 10.399L2.12587 10.399L5.4767 12.5834ZM0.643687 19.997L-2.70715 17.8125L-2.70715 17.8125L0.643687 19.997ZM1.51846 24.1485L-0.666005 27.4993L-0.666004 27.4993L1.51846 24.1485ZM7.95673 28.3457L11.8195 29.3844L12.5735 26.5805L10.1412 24.9948L7.95673 28.3457ZM8.01426 41.7464L10.1137 45.1511L12.6742 43.5723L11.8679 40.6742L8.01426 41.7464ZM1.42586 45.8088L3.52527 49.2136L3.52527 49.2136L1.42586 45.8088ZM0.446837 49.937L3.85161 47.8376L3.85161 47.8375L0.446837 49.937ZM5.09166 57.4698L1.68689 59.5692L1.68689 59.5692L5.09166 57.4698ZM9.21979 58.4489L11.3192 61.8536L11.3192 61.8536L9.21979 58.4489ZM16.0261 54.252L18.6164 51.2041L16.4012 49.3215L13.9267 50.8473L16.0261 54.252ZM25.4334 59.2966H29.4334V56.2814L26.5347 55.4512L25.4334 59.2966ZM40.2832 59.0293L39.0429 55.2264L36.2832 56.1265V59.0293H40.2832ZM48.3232 54.6613L50.5076 51.3104L48.0723 49.7228L45.8104 51.549L48.3232 54.6613ZM55.0324 59.0351L52.8479 62.386L52.8479 62.386L55.0324 59.0351ZM59.1839 58.1604L55.833 55.9759L55.833 55.9759L59.1839 58.1604ZM64.0169 50.7468L60.6661 48.5623L60.6661 48.5623L64.0169 50.7468ZM63.1421 46.5953L65.3266 43.2445L65.3266 43.2445L63.1421 46.5953ZM56.6491 42.3624L52.8241 41.1922L51.9437 44.0698L54.4646 45.7133L56.6491 42.3624ZM57.0436 28.9604L54.9442 25.5556L52.4728 27.0795L53.1558 29.9014L57.0436 28.9604ZM63.5952 24.9206L65.6946 28.3254L65.6946 28.3254L63.5952 24.9206ZM64.5742 20.7925L67.979 18.6931L67.979 18.6931L64.5742 20.7925ZM59.9294 13.2596L56.5246 15.359L56.5246 15.359L59.9294 13.2596ZM55.8012 12.2806L53.7018 8.87583L53.7018 8.87583L55.8012 12.2806ZM49.4572 16.1924L46.7664 19.152L48.994 21.1773L51.5566 19.5971L49.4572 16.1924ZM40.2832 10.8524H36.2832V13.7552L39.0429 14.6553L40.2832 10.8524ZM29.4334 3C29.4334 3.55229 28.9857 4 28.4334 4V-4C24.5674 -4 21.4334 -0.866003 21.4334 3H29.4334ZM29.4334 10.5851V3H21.4334V10.5851H29.4334ZM18.4769 18.7973C20.7876 16.7992 23.5272 15.2918 26.5347 14.4305L24.3321 6.73966C20.1833 7.92786 16.4146 10.0044 13.2442 12.7459L18.4769 18.7973ZM18.045 12.4208L11.8126 8.35783L7.44371 15.0595L13.6761 19.1225L18.045 12.4208ZM11.8126 8.35783C8.57407 6.24654 4.23715 7.1604 2.12587 10.399L8.82754 14.7679C8.52593 15.2306 7.90637 15.3611 7.44371 15.0595L11.8126 8.35783ZM2.12587 10.399L-2.70715 17.8125L3.99452 22.1814L8.82754 14.7679L2.12587 10.399ZM-2.70715 17.8125C-4.81844 21.0511 -3.90458 25.388 -0.666005 27.4993L3.70293 20.7976C4.16558 21.0992 4.29614 21.7188 3.99452 22.1814L-2.70715 17.8125ZM-0.666004 27.4993L5.77226 31.6965L10.1412 24.9948L3.70293 20.7976L-0.666004 27.4993ZM11.0897 34.9409C11.0897 33.0134 11.3443 31.1516 11.8195 29.3844L4.09395 27.3069C3.43821 29.7454 3.08966 32.3055 3.08966 34.9409H11.0897ZM11.8679 40.6742C11.3616 38.8544 11.0897 36.9326 11.0897 34.9409H3.08966C3.08966 37.6643 3.4619 40.3072 4.16065 42.8186L11.8679 40.6742ZM3.52527 49.2136L10.1137 45.1511L5.91486 38.3416L-0.673543 42.4041L3.52527 49.2136ZM3.85161 47.8375C4.14148 48.3077 3.99537 48.9237 3.52527 49.2136L-0.673541 42.4041C-3.96425 44.4331 -4.98702 48.7457 -2.95794 52.0364L3.85161 47.8375ZM8.49644 55.3704L3.85161 47.8376L-2.95794 52.0364L1.68689 59.5692L8.49644 55.3704ZM7.12039 55.0441C7.5905 54.7542 8.20657 54.9003 8.49643 55.3704L1.68689 59.5692C3.71596 62.8599 8.02848 63.8827 11.3192 61.8536L7.12039 55.0441ZM13.9267 50.8473L7.12039 55.0441L11.3192 61.8536L18.1255 57.6568L13.9267 50.8473ZM26.5347 55.4512C23.5875 54.6072 20.8977 53.1427 18.6164 51.2041L13.4358 57.3C16.566 59.9603 20.2665 61.9777 24.3321 63.1421L26.5347 55.4512ZM29.4334 66.8813V59.2966H21.4334V66.8813H29.4334ZM28.4334 65.8813C28.9857 65.8813 29.4334 66.329 29.4334 66.8813H21.4334C21.4334 70.7473 24.5674 73.8813 28.4334 73.8813V65.8813ZM37.2832 65.8813H28.4334V73.8813H37.2832V65.8813ZM36.2832 66.8813C36.2832 66.329 36.7309 65.8813 37.2832 65.8813V73.8813C41.1492 73.8813 44.2832 70.7473 44.2832 66.8813H36.2832ZM36.2832 59.0293V66.8813H44.2832V59.0293H36.2832ZM45.8104 51.549C43.8157 53.1595 41.5281 54.4159 39.0429 55.2264L41.5235 62.8321C44.9509 61.7143 48.0979 59.9841 50.8359 57.7735L45.8104 51.549ZM46.1387 58.0121L52.8479 62.386L57.2169 55.6843L50.5076 51.3104L46.1387 58.0121ZM52.8479 62.386C56.0865 64.4972 60.4234 63.5834 62.5347 60.3448L55.833 55.9759C56.1347 55.5132 56.7542 55.3827 57.2169 55.6843L52.8479 62.386ZM62.5347 60.3448L67.3677 52.9313L60.6661 48.5623L55.833 55.9759L62.5347 60.3448ZM67.3677 52.9313C69.479 49.6927 68.5651 45.3558 65.3266 43.2445L60.9576 49.9462C60.495 49.6446 60.3644 49.025 60.6661 48.5623L67.3677 52.9313ZM65.3266 43.2445L58.8336 39.0116L54.4646 45.7133L60.9576 49.9462L65.3266 43.2445ZM53.7536 34.9409C53.7536 37.1222 53.4275 39.22 52.8241 41.1922L60.4741 43.5327C61.3069 40.8105 61.7536 37.9242 61.7536 34.9409H53.7536ZM53.1558 29.9014C53.5459 31.5131 53.7536 33.2001 53.7536 34.9409H61.7536C61.7536 32.5613 61.4694 30.2427 60.9313 28.0194L53.1558 29.9014ZM61.4957 21.5159L54.9442 25.5556L59.143 32.3652L65.6946 28.3254L61.4957 21.5159ZM61.1694 22.8919C60.8795 22.4218 61.0256 21.8057 61.4957 21.5159L65.6946 28.3254C68.9853 26.2963 70.008 21.9838 67.979 18.6931L61.1694 22.8919ZM56.5246 15.359L61.1694 22.8919L67.979 18.6931L63.3341 11.1602L56.5246 15.359ZM57.9006 15.6854C57.4305 15.9753 56.8144 15.8291 56.5246 15.359L63.3341 11.1602C61.3051 7.86952 56.9925 6.84676 53.7018 8.87583L57.9006 15.6854ZM51.5566 19.5971L57.9006 15.6854L53.7018 8.87583L47.3578 12.7876L51.5566 19.5971ZM39.0429 14.6553C41.9352 15.5986 44.5598 17.1458 46.7664 19.152L52.1481 13.2327C49.1212 10.4808 45.5123 8.35055 41.5235 7.0496L39.0429 14.6553ZM36.2832 3V10.8524H44.2832V3H36.2832ZM37.2832 4C36.7309 4 36.2832 3.55228 36.2832 3H44.2832C44.2832 -0.865988 41.1492 -4 37.2832 -4V4ZM28.4334 4H37.2832V-4H28.4334V4Z" fill="white" mask="url(#path-1-inside-1_168_1619)"/>
<circle cx="32.2902" cy="35.0783" r="10.6789" stroke="white" stroke-width="4"/>
</svg>
