<svg width="168" height="180" viewBox="0 0 168 180" fill="none" xmlns="http://www.w3.org/2000/svg">
<path fill-rule="evenodd" clip-rule="evenodd" d="M130.962 5.01145C134.574 -0.26023 141.787 -1.58612 147.038 2.056C152.501 5.84493 153.634 13.4575 149.512 18.6735L145.372 23.9119H161.5C165.09 23.9119 168 26.822 168 30.4119V142.412C168 146.002 165.09 148.912 161.5 148.912H94.8275L100.146 168.412H108C112.736 168.412 116.663 171.878 117.382 176.412H128C128.828 176.412 129.5 177.083 129.5 177.912C129.5 178.74 128.828 179.412 128 179.412H39C38.1716 179.412 37.5 178.74 37.5 177.912C37.5 177.083 38.1716 176.412 39 176.412H49.1178C49.8369 171.878 53.7637 168.412 58.5 168.412H68.8543L74.1725 148.912H6.5C2.91015 148.912 0 146.002 0 142.412V30.4119C0 26.822 2.91015 23.9119 6.5 23.9119H118.009L130.962 5.01145ZM52.1739 176.412H114.326C113.649 173.545 111.074 171.412 108 171.412H99.0325C99.0102 171.412 98.9879 171.412 98.9658 171.412H70.0342C70.0121 171.412 69.9898 171.412 69.9675 171.412H58.5C55.4264 171.412 52.8511 173.545 52.1739 176.412ZM91.7179 148.912L97.0361 168.412H71.9639L77.2821 148.912H91.7179ZM109.957 68.7216L143.001 26.9119H161.5C163.433 26.9119 165 28.4789 165 30.4119V119.412H44C43.1716 119.412 42.5 120.083 42.5 120.912C42.5 121.74 43.1716 122.412 44 122.412H165V142.412C165 144.345 163.433 145.912 161.5 145.912H6.5C4.567 145.912 3 144.345 3 142.412V122.412H18C18.8284 122.412 19.5 121.74 19.5 120.912C19.5 120.083 18.8284 119.412 18 119.412H3V30.4119C3 28.4789 4.567 26.9119 6.5 26.9119H115.954L94.7063 57.9165C87.3084 58.0597 81.7058 59.8814 77.5747 62.8736C73.3889 65.9054 70.8394 70.048 69.4308 74.5516C66.637 83.4837 68.2757 93.9826 70.5769 100.886C70.7368 101.366 71.1279 101.733 71.617 101.862C72.1061 101.991 72.6273 101.865 73.0033 101.527C74.016 100.615 76.7835 98.7732 80.8262 97.5179C83.8558 96.5771 87.0658 96.6024 90.5316 96.6298C90.9294 96.6329 91.3306 96.6361 91.7353 96.6378C94.293 96.6488 97.1703 96.5301 99.8283 96.1106C102.445 95.6975 105.039 94.9656 106.882 93.625C113.04 89.1463 113.568 82.4365 112.991 77.2462L112.976 77.1098C112.89 76.3235 112.722 74.7978 112.284 73.2021C111.881 71.7357 111.197 70.0013 109.957 68.7216ZM107.62 66.8415L118.022 53.6787L106.942 45.3685L97.3429 59.3762C98.9138 60.597 100.954 62.0647 102.971 63.5031L103.314 63.7478L103.816 64.1053L103.872 64.1452L103.879 64.1503C105.234 65.1152 106.544 66.0483 107.62 66.8415ZM119.883 51.3243L108.64 42.8916L133.436 6.70732C136.109 2.80778 141.444 1.827 145.328 4.52113C149.369 7.32386 150.208 12.955 147.158 16.8134L119.883 51.3243ZM29 122.912C30.1046 122.912 31 122.016 31 120.912C31 119.807 30.1046 118.912 29 118.912C27.8954 118.912 27 119.807 27 120.912C27 122.016 27.8954 122.912 29 122.912ZM79.9366 94.6528C76.9174 95.5903 74.483 96.8436 72.8082 97.9367C70.9786 91.46 70.0077 82.7568 72.294 75.4471C73.5479 71.4383 75.7671 67.8871 79.3345 65.3032C82.8123 62.7842 87.6904 61.0986 94.4695 60.9226C96.2125 62.3516 98.802 64.2147 101.229 65.9456C101.53 66.1601 101.828 66.3724 102.121 66.5815L102.122 66.5817L102.123 66.5823C104.461 68.248 106.524 69.7178 107.54 70.5642C108.381 71.2654 108.986 72.5234 109.391 73.9966C109.764 75.355 109.909 76.6718 109.996 77.456L110.009 77.5775C110.544 82.3872 109.96 87.6774 105.118 91.1988C103.859 92.1141 101.839 92.756 99.3606 93.1473C96.9228 93.5321 94.222 93.6484 91.7482 93.6378C91.3506 93.6361 90.9478 93.6324 90.5408 93.6287C87.1419 93.5977 83.4431 93.564 79.9366 94.6528Z" fill="white"/>
</svg>
