<svg width="175" height="174" viewBox="0 0 175 174" fill="none" xmlns="http://www.w3.org/2000/svg">
<path fill-rule="evenodd" clip-rule="evenodd" d="M39.5 172C39.5 172.828 38.8284 173.5 38 173.5C37.1716 173.5 36.5 172.828 36.5 172V133H2C1.17157 133 0.5 132.328 0.5 131.5C0.5 130.672 1.17157 130 2 130H36.5V59H3C2.17157 59 1.5 58.3284 1.5 57.5C1.5 56.6716 2.17157 56 3 56H36.5V35.5H2.5C1.67157 35.5 1 34.8284 1 34C1 33.1716 1.67157 32.5 2.5 32.5H36.5V1.5C36.5 0.67157 37.1716 0 38 0C38.8284 0 39.5 0.67157 39.5 1.5V32.5H71.8814C72.2772 32.0576 72.9164 31.8752 73.5091 32.089C73.7517 32.1766 73.9579 32.3202 74.1184 32.5H136.5V1.5C136.5 0.67157 137.172 0 138 0C138.828 0 139.5 0.67157 139.5 1.5V32.5H173C173.828 32.5 174.5 33.1716 174.5 34C174.5 34.8284 173.828 35.5 173 35.5H139.5V56H173.5C174.328 56 175 56.6716 175 57.5C175 58.3284 174.328 59 173.5 59H139.5V130H172.5C173.328 130 174 130.672 174 131.5C174 132.328 173.328 133 172.5 133H139.5V172C139.5 172.828 138.828 173.5 138 173.5C137.172 173.5 136.5 172.828 136.5 172V133H39.5V172ZM70.6837 35.5H39.5V56H63.2868L70.6837 35.5ZM66.4761 56L73.873 35.5H136.5V56H66.4761ZM62.2043 59H39.5V121.923L62.2043 59ZM39.7751 130L65.3936 59H85.5576L73.5851 93.0018C73.4235 93.4608 73.4946 93.9697 73.7758 94.3668C74.057 94.7639 74.5134 95 75 95H100C100.487 95 100.943 94.7639 101.224 94.3668C101.505 93.9697 101.576 93.4608 101.415 93.0018L89.4424 59H136.5V130H112.914L112.908 129.981L105.908 110.981C105.69 110.392 105.128 110 104.5 110H69.5C68.8587 110 68.2883 110.408 68.0808 111.014L61.5857 130H39.7751ZM87.5 62.5164L97.8816 92H77.1184L87.5 62.5164ZM109.717 130H64.7564L70.5722 113H103.454L109.717 130Z" fill="white"/>
</svg>
