<svg width="188" height="174" viewBox="0 0 188 174" fill="none" xmlns="http://www.w3.org/2000/svg">
<path fill-rule="evenodd" clip-rule="evenodd" d="M137 5C137 4.44771 137.448 4 138 4H150.786L160.801 9.76247C161.256 10.0243 161.772 10.1622 162.297 10.1622H183C183.552 10.1622 184 10.6099 184 11.1622V37C184 37.5523 183.552 38 183 38H138C137.448 38 137 37.5523 137 37V5ZM138 0C135.239 0 133 2.23858 133 5V37C133 39.7614 135.239 42 138 42H183C185.761 42 188 39.7614 188 37V11.1622C188 8.40074 185.761 6.16216 183 6.16216H162.564L152.549 0.399692C152.094 0.137823 151.578 0 151.053 0H138ZM146 21C145.448 21 145 21.4477 145 22V26C145 26.5523 145.448 27 146 27H150C150.552 27 151 26.5523 151 26V22C151 21.4477 150.552 21 150 21H146ZM158 22C158 21.4477 158.448 21 159 21H163C163.552 21 164 21.4477 164 22V26C164 26.5523 163.552 27 163 27H159C158.448 27 158 26.5523 158 26V22ZM172 21C171.448 21 171 21.4477 171 22V26C171 26.5523 171.448 27 172 27H176C176.552 27 177 26.5523 177 26V22C177 21.4477 176.552 21 176 21H172ZM137 71C137 70.4477 137.448 70 138 70H150.786L160.801 75.7625C161.256 76.0243 161.772 76.1622 162.297 76.1622H183C183.552 76.1622 184 76.6099 184 77.1622V103C184 103.552 183.552 104 183 104H138C137.448 104 137 103.552 137 103V71ZM138 66C135.239 66 133 68.2386 133 71V103C133 105.761 135.239 108 138 108H183C185.761 108 188 105.761 188 103V77.1622C188 74.4007 185.761 72.1622 183 72.1622H162.564L152.549 66.3997C152.094 66.1378 151.578 66 151.053 66H138ZM146 87C145.448 87 145 87.4477 145 88V92C145 92.5523 145.448 93 146 93H150C150.552 93 151 92.5523 151 92V88C151 87.4477 150.552 87 150 87H146ZM158 88C158 87.4477 158.448 87 159 87H163C163.552 87 164 87.4477 164 88V92C164 92.5523 163.552 93 163 93H159C158.448 93 158 92.5523 158 92V88ZM172 87C171.448 87 171 87.4477 171 88V92C171 92.5523 171.448 93 172 93H176C176.552 93 177 92.5523 177 92V88C177 87.4477 176.552 87 176 87H172ZM138 136C137.448 136 137 136.448 137 137V169C137 169.552 137.448 170 138 170H183C183.552 170 184 169.552 184 169V143.162C184 142.61 183.552 142.162 183 142.162H162.297C161.772 142.162 161.256 142.024 160.801 141.762L150.786 136H138ZM133 137C133 134.239 135.239 132 138 132H151.053C151.578 132 152.094 132.138 152.549 132.4L162.564 138.162H183C185.761 138.162 188 140.401 188 143.162V169C188 171.761 185.761 174 183 174H138C135.239 174 133 171.761 133 169V137ZM145 154C145 153.448 145.448 153 146 153H150C150.552 153 151 153.448 151 154V158C151 158.552 150.552 159 150 159H146C145.448 159 145 158.552 145 158V154ZM159 153C158.448 153 158 153.448 158 154V158C158 158.552 158.448 159 159 159H163C163.552 159 164 158.552 164 158V154C164 153.448 163.552 153 163 153H159ZM171 154C171 153.448 171.448 153 172 153H176C176.552 153 177 153.448 177 154V158C177 158.552 176.552 159 176 159H172C171.448 159 171 158.552 171 158V154ZM105 21.5C105 19.8431 106.343 18.5 108 18.5H124C125.105 18.5 126 19.3954 126 20.5C126 21.6046 125.105 22.5 124 22.5H109V77.2C112.918 77.9954 116.005 81.0817 116.8 85H125.5C126.605 85 127.5 85.8954 127.5 87C127.5 88.1046 126.605 89 125.5 89H116.8C116.005 92.9183 112.918 96.0046 109 96.8V152.5H124C125.105 152.5 126 153.395 126 154.5C126 155.605 125.105 156.5 124 156.5H108C106.343 156.5 105 155.157 105 153.5V96.8C101.082 96.0046 97.9954 92.9183 97.2 89H88.5C87.3954 89 86.5 88.1046 86.5 87C86.5 85.8954 87.3954 85 88.5 85H97.2C97.9954 81.0817 101.082 77.9954 105 77.2V21.5ZM113 87C113 83.6863 110.314 81 107 81C103.686 81 101 83.6863 101 87C101 90.3137 103.686 93 107 93C110.314 93 113 90.3137 113 87ZM75.233 52.091C76.8007 50.7639 77 49.8721 77 49.5C77 49.1279 76.8007 48.2361 75.233 46.909C73.683 45.597 71.2034 44.2351 67.7895 43.0129C60.9964 40.5808 51.3485 39 40.5 39C29.6515 39 20.0036 40.5808 13.2105 43.0129C9.79662 44.2351 7.317 45.597 5.76701 46.909C4.19927 48.2361 4 49.1279 4 49.5C4 49.8721 4.19927 50.7639 5.76701 52.091C7.317 53.403 9.79662 54.7649 13.2105 55.9871C20.0036 58.4192 29.6515 60 40.5 60C51.3485 60 60.9964 58.4192 67.7895 55.9871C71.2034 54.7649 73.683 53.403 75.233 52.091ZM40.5 64C56.5715 64 70.4566 60.6484 77 55.791V74C77 75.0738 76.4187 76.3895 74.7499 77.8546C73.0854 79.3158 70.5153 80.7562 67.0401 82.0199C60.0979 84.5444 50.5499 86 40.5 86C30.4501 86 20.9021 84.5444 13.9599 82.0199C10.4847 80.7562 7.91461 79.3158 6.25011 77.8546C4.58131 76.3895 4 75.0738 4 74V55.791C10.5434 60.6484 24.4285 64 40.5 64ZM81 49.5V74V100V125.079C81 127.689 79.572 130.004 77.3846 131.913C75.1961 133.824 72.1103 135.463 68.4037 136.803C64.6786 138.15 60.3014 139.204 55.5295 139.918C50.7539 140.634 45.6482 141 40.5 141C35.3518 141 30.2461 140.634 25.4704 139.918C20.6986 139.204 16.3214 138.15 12.5963 136.803C8.88971 135.463 5.80389 133.824 3.61539 131.913C1.42799 130.004 0 127.689 0 125.079V100V74V49.5C0 41.4919 18.1325 35 40.5 35C62.8675 35 81 41.4919 81 49.5ZM68.4071 85.7791C71.9335 84.4967 74.8598 82.9563 77 81.1913V100C77 101.074 76.4187 102.39 74.7499 103.855C73.0854 105.316 70.5153 106.756 67.0401 108.02C60.0979 110.544 50.5499 112 40.5 112C30.4501 112 20.9021 110.544 13.9599 108.02C10.4847 106.756 7.91461 105.316 6.25011 103.855C4.58131 102.39 4 101.074 4 100V81.1913C6.14024 82.9563 9.06649 84.4967 12.5929 85.7791C20.091 88.5057 30.1282 90 40.5 90C50.8718 90 60.909 88.5057 68.4071 85.7791ZM68.4071 111.779C71.9335 110.497 74.8598 108.956 77 107.191V125.079C77 126.125 76.4363 127.431 74.7541 128.9C73.073 130.367 70.487 131.797 67.0435 133.042C63.6185 134.28 59.5073 135.278 54.9371 135.962C50.3707 136.646 45.4636 137 40.5 137C35.5364 137 30.6293 136.646 26.0629 135.962C21.4927 135.278 17.3815 134.28 13.9565 133.042C10.513 131.797 7.927 130.367 6.24588 128.9C4.56367 127.431 4 126.125 4 125.079V107.191C6.14024 108.956 9.06649 110.497 12.5929 111.779C20.091 114.506 30.1282 116 40.5 116C50.8718 116 60.909 114.506 68.4071 111.779Z" fill="white"/>
</svg>
