<svg width="122" height="139" viewBox="0 0 122 139" fill="none" xmlns="http://www.w3.org/2000/svg">
<path fill-rule="evenodd" clip-rule="evenodd" d="M117.665 18.9762C117.665 19.1158 117.648 19.2796 117.603 19.4664H117.255V20.3246C116.835 21.0763 116.022 22.028 114.51 23.1434C111.931 25.0454 107.943 26.9266 102.656 28.5759C92.1296 31.8596 77.3419 33.9524 60.8324 33.9524C44.3229 33.9524 29.5352 31.8596 19.0086 28.5759C13.7213 26.9266 9.73367 25.0454 7.15471 23.1434C5.64006 22.0263 4.82727 21.0734 4.40826 20.3212V19.4664H4.062C4.01711 19.2796 4 19.1158 4 18.9762C4 18.2243 4.49642 16.7695 7.15471 14.809C9.73367 12.907 13.7213 11.0258 19.0086 9.37652C29.5352 6.09282 44.3229 4 60.8324 4C77.3419 4 92.1296 6.09282 102.656 9.37652C107.943 11.0258 111.931 12.907 114.51 14.809C117.168 16.7695 117.665 18.2243 117.665 18.9762ZM121.665 18.9762C121.665 19.7256 121.526 20.4649 121.255 21.1916V50.7862V84.5159V118.138C121.255 121.435 119.17 124.318 116.008 126.693C112.818 129.089 108.274 131.177 102.737 132.899C97.1774 134.629 90.6197 135.988 83.4446 136.913C76.2657 137.838 68.583 138.313 60.8314 138.313C53.0799 138.313 45.3972 137.838 38.2183 136.913C31.0431 135.988 24.4854 134.629 18.9259 132.899C13.3885 131.177 8.84525 129.089 5.65441 126.693C2.49313 124.318 0.408255 121.435 0.408255 118.138V104.993V84.5159V68.8552V50.7862V35.1263V21.1865C0.138611 20.4614 0 19.7239 0 18.9762C0 8.49593 27.2356 0 60.8324 0C94.4292 0 121.665 8.49593 121.665 18.9762ZM60.8324 37.9524C86.3731 37.9524 108.238 33.0424 117.255 26.0832V50.7862C117.255 52.2619 116.302 54.0889 113.611 56.0983C110.956 58.0807 106.916 59.9932 101.552 61.6522C90.8406 64.965 76.1913 66.8552 60.8314 66.8552C45.4716 66.8552 30.8222 64.965 20.111 61.6522C14.7468 59.9932 10.7071 58.0807 8.05203 56.0983C5.36078 54.0889 4.40826 52.2619 4.40826 50.7862V42.6324C4.80347 42.9798 5.22138 43.3169 5.65888 43.6436C8.82062 46.0043 13.3368 48.0842 18.9291 49.8137C19.9843 50.1401 21.1043 49.5492 21.4307 48.494C21.7571 47.4387 21.1662 46.3187 20.111 45.9923C14.7468 44.3333 10.7071 42.4209 8.05203 40.4385C5.36078 38.429 4.40826 36.602 4.40826 35.1263V26.0818C13.4242 33.0417 35.2899 37.9524 60.8324 37.9524ZM116.004 59.3034C116.441 58.9768 116.859 58.6397 117.255 58.2923V84.5159C117.255 86.208 116.236 88.1967 113.561 90.3272C110.907 92.4413 106.872 94.4782 101.516 96.2451C90.8179 99.7745 76.1815 101.79 60.8314 101.79C45.4814 101.79 30.845 99.7745 20.1466 96.2451C14.7905 94.4782 10.7559 92.4413 8.10145 90.3272C5.42642 88.1967 4.40826 86.208 4.40826 84.5159V76.3613C4.80347 76.7087 5.22138 77.0458 5.65888 77.3725C8.82062 79.7332 13.3368 81.813 18.9291 83.5426C19.9843 83.869 21.1043 83.2781 21.4307 82.2228C21.7571 81.1676 21.1662 80.0476 20.111 79.7212C14.7468 78.0622 10.7071 76.1497 8.05203 74.1673C5.36078 72.1579 4.40826 70.3309 4.40826 68.8552V58.2923C4.80347 58.6397 5.22138 58.9768 5.65888 59.3034C8.82062 61.6642 13.3368 63.744 18.9291 65.4736C30.1307 68.938 45.2017 70.8552 60.8314 70.8552C76.4612 70.8552 91.5322 68.938 102.734 65.4736C108.326 63.744 112.842 61.6642 116.004 59.3034ZM116.053 93.4561C116.474 93.1211 116.875 92.7769 117.255 92.4237V118.138C117.255 119.615 116.317 121.458 113.606 123.494C110.925 125.508 106.862 127.427 101.549 129.08C96.2581 130.726 89.9347 132.044 82.9334 132.946C75.9359 133.847 68.4244 134.313 60.8314 134.313C53.2385 134.313 45.727 133.847 38.7294 132.946C31.7281 132.044 25.4048 130.726 20.1141 129.08C14.8013 127.427 10.7377 125.508 8.05649 123.494C5.34569 121.458 4.40826 119.615 4.40826 118.138V112.499C4.80347 112.847 5.22138 113.184 5.65888 113.51C8.82062 115.871 13.3368 117.951 18.9291 119.681C19.9843 120.007 21.1043 119.416 21.4307 118.361C21.7571 117.306 21.1662 116.186 20.111 115.859C14.7468 114.2 10.7071 112.288 8.05203 110.305C5.36078 108.296 4.40826 106.469 4.40826 104.993V92.4237C4.7877 92.7769 5.18889 93.1211 5.60947 93.4561C8.77179 95.9747 13.293 98.1962 18.8934 100.044C30.108 103.743 45.1919 105.79 60.8314 105.79C76.4709 105.79 91.5549 103.743 102.769 100.044C108.37 98.1962 112.891 95.9747 116.053 93.4561ZM27.7048 51.9904C29.0353 51.9904 30.114 50.9118 30.114 49.5812C30.114 48.2506 29.0353 47.172 27.7048 47.172C26.3742 47.172 25.2955 48.2506 25.2955 49.5812C25.2955 50.9118 26.3742 51.9904 27.7048 51.9904ZM30.114 83.311C30.114 84.6415 29.0353 85.7202 27.7048 85.7202C26.3742 85.7202 25.2955 84.6415 25.2955 83.311C25.2955 81.9804 26.3742 80.9018 27.7048 80.9018C29.0353 80.9018 30.114 81.9804 30.114 83.311ZM27.7048 121.858C29.0353 121.858 30.114 120.78 30.114 119.449C30.114 118.118 29.0353 117.04 27.7048 117.04C26.3742 117.04 25.2955 118.118 25.2955 119.449C25.2955 120.78 26.3742 121.858 27.7048 121.858Z" fill="white"/>
</svg>
