<svg width="180" height="167" viewBox="0 0 180 167" fill="none" xmlns="http://www.w3.org/2000/svg">
<path d="M99.4135 52.4616C100.02 52.2192 100.932 52.1244 102.01 52.1775C103.049 52.2287 104.057 52.4064 104.737 52.5575C106.228 52.889 106.858 53.5518 107.704 54.4431C107.877 54.6256 108.059 54.8177 108.26 55.0185C109.041 55.7997 110.307 55.7999 111.089 55.019C111.87 54.238 111.87 52.9717 111.089 52.1905C110.979 52.0807 110.858 51.9495 110.722 51.8029C109.847 50.8564 108.378 49.2691 105.605 48.6528C105.212 48.5655 104.722 48.4689 104.171 48.3847V45.1631C104.171 44.0585 103.275 43.1631 102.171 43.1631C101.066 43.1631 100.171 44.0585 100.171 45.1631V48.2249C99.4158 48.3022 98.6461 48.4604 97.9279 48.7477C96.3629 49.3737 95.2481 50.6978 94.561 51.7449C93.9199 52.722 93.4314 53.8002 93.2457 54.5511L93.2443 54.5552C93.1608 54.7895 93.0024 55.2344 92.9629 55.9873C92.925 56.7092 92.9871 57.729 93.1901 59.3526C93.2616 59.9252 93.4055 60.4632 93.6099 60.9646C94.9546 64.2619 98.3091 65.0551 100.625 65.5478C100.936 65.6139 101.235 65.6753 101.526 65.7348C102.467 65.9274 103.312 66.1004 104.128 66.3524C105.165 66.6723 105.928 67.0594 106.474 67.5798C106.667 67.7641 106.846 67.9737 107.007 68.2146C107.825 69.442 108.024 70.421 108.01 71.1535C107.994 71.908 107.748 72.5638 107.434 73.1129C106.279 75.135 104.4 76.6052 101.671 76.6052C100.43 76.6052 99.2082 76.0834 98.1156 75.2955C97.0226 74.5073 96.2112 73.5604 95.8348 72.9958C95.2221 72.0767 93.9804 71.8283 93.0613 72.4411C92.1423 73.0538 91.8939 74.2955 92.5066 75.2146C93.1302 76.1499 94.2688 77.453 95.7759 78.5398C96.9532 79.3888 98.4485 80.1715 100.171 80.4736V83.1631C100.171 84.2677 101.066 85.1631 102.171 85.1631C103.275 85.1631 104.171 84.2677 104.171 83.1631V80.3216C107.306 79.5817 109.544 77.4838 110.907 75.0974C111.45 74.1469 111.977 72.8369 112.009 71.2335C112.041 69.608 111.562 67.8367 110.335 65.9958C110.006 65.5018 109.635 65.0667 109.235 64.6852C108.059 63.5641 106.637 62.9406 105.308 62.5303C104.285 62.2147 103.181 61.9892 102.207 61.7905L102.205 61.79C101.945 61.7369 101.694 61.6858 101.457 61.6353C98.8859 61.0883 97.7654 60.5616 97.3138 59.4541C97.2406 59.2746 97.1868 59.0774 97.1592 58.8565C96.9621 57.2801 96.9389 56.5498 96.9574 56.1968C96.9652 56.0479 96.9792 55.998 96.98 55.9951C96.9876 55.9661 96.9887 55.9633 96.9949 55.9471C97.0028 55.9264 97.0191 55.8838 97.0681 55.737L97.1075 55.6189L97.1319 55.4968C97.1318 55.4972 97.132 55.4964 97.1326 55.4943C97.1392 55.4713 97.1896 55.2955 97.3298 54.9846C97.4699 54.6741 97.6651 54.3054 97.9054 53.9393C98.4267 53.1448 98.9785 52.6356 99.4135 52.4616Z" fill="white"/>
<path d="M75.1717 114.163C75.1717 115.268 74.2763 116.163 73.1717 116.163C72.0671 116.163 71.1717 115.268 71.1717 114.163C71.1717 113.059 72.0671 112.163 73.1717 112.163C74.2763 112.163 75.1717 113.059 75.1717 114.163Z" fill="white"/>
<path fill-rule="evenodd" clip-rule="evenodd" d="M115.5 0.946027C107.294 -0.283381 95.9928 -0.351821 87.2602 0.96044C85.1587 1.27624 84.1138 3.57846 85.1056 5.36371L91.1852 16.3069C89.7532 17.0355 88.4406 17.8826 87.3183 18.8066C85.5208 20.2865 84.0124 22.1279 83.4461 24.208C82.9557 26.0088 83.2205 27.8269 84.3138 29.4399C76.5429 33.921 69.7716 41.4255 64.7875 49.9885C59.2524 59.4983 55.794 70.5295 55.6739 80.6227C51.7858 81.7552 46.3785 83.7228 42.0892 86.4802C36.4963 90.0756 30.2734 96.6928 27.5128 99.9331L27.316 99.7373C24.9662 97.4008 21.1672 97.4116 18.8307 99.7614L1.74534 116.944C-0.59115 119.294 -0.58037 123.093 1.76941 125.429L41.0635 164.501C43.4132 166.837 47.2122 166.827 49.5487 164.477L66.6341 147.294C68.9706 144.945 68.9598 141.146 66.61 138.809L64.4519 136.663H117.632C122.984 136.663 128.134 134.62 132.03 130.951L174.29 91.1523C176.762 88.8244 179.79 85.5295 179.813 81.1917C179.83 77.98 178.655 74.2655 174.833 71.5357C170.246 68.2589 165.156 69.2453 160.69 71.3297C157.191 72.9628 153.664 75.466 150.556 77.6718L150.541 77.6831C150.22 77.9105 149.904 78.1347 149.593 78.3545C149.063 68.6369 145.836 58.203 140.538 49.187C135.294 40.2632 127.926 32.5722 118.937 28.3983C119.559 27.2264 119.758 25.93 119.512 24.5848C119.123 22.4542 117.678 20.5508 115.948 19.034C114.582 17.837 112.892 16.7527 111.029 15.8767L117.57 5.48736C118.693 3.70414 117.675 1.27187 115.5 0.946027ZM107.198 14.4542L113.347 4.68772C106.155 3.78635 96.873 3.74689 89.3198 4.71264L94.9107 14.7764C97.1107 14.0717 99.429 13.6631 101.674 13.6631C103.504 13.6631 105.382 13.9498 107.198 14.4542ZM87.3055 25.2589C87.0977 26.0222 87.1905 26.7757 87.9482 27.6029C96.486 23.8964 106.458 23.9378 115.166 26.8903C115.619 26.3125 115.666 25.7862 115.577 25.304C115.419 24.4345 114.718 23.2754 113.311 22.0422C110.517 19.5936 105.856 17.6631 101.674 17.6631C97.4644 17.6631 92.7836 19.4882 89.8607 21.8946C88.3939 23.1023 87.5688 24.2921 87.3055 25.2589ZM89.0366 31.4969C96.8804 27.9082 106.366 27.9401 114.611 30.9347C123.824 34.281 131.597 41.8672 137.09 51.2135C142.56 60.5234 145.651 71.3895 145.671 81.072L124.043 95.9774C122.242 93.0858 119.333 91.5353 116.287 90.7051C112.793 89.7528 108.827 89.6624 105.463 89.6624H96.4971C90.6686 84.0399 77.1905 76.1113 59.6993 79.6148C60.0289 70.6143 63.1851 60.6931 68.2446 52.0006C73.6028 42.7947 80.9635 35.1905 89.0366 31.4969ZM121.969 111.295C124.55 108.476 126.923 104.226 125.632 99.7405L150.47 82.6221C151.323 82.0344 152.18 81.4266 153.042 80.8162L153.05 80.8105C156.123 78.6315 159.246 76.418 162.382 74.9543C166.352 73.1012 169.677 72.7683 172.508 74.7906C175.082 76.6291 175.825 79.0048 175.813 81.1705C175.8 83.6505 174.039 85.8939 171.548 88.2403L129.287 128.039C126.134 131.009 121.965 132.663 117.632 132.663H60.4291L30.3583 102.762C32.9233 99.7155 39.0235 93.2062 44.2522 89.8449C49.5602 86.4327 57.025 84.2633 60.0827 83.6195C76.4344 80.1774 88.9441 87.7849 93.9663 92.7825C94.5275 93.3409 95.2871 93.6624 96.0943 93.6624H105.463C108.842 93.6624 112.316 93.7687 115.235 94.5643C118.113 95.3486 120.15 96.714 121.141 99.0439C121.357 99.551 121.564 100.117 121.759 100.751C122.526 103.241 121.301 106.101 119.019 108.594C116.89 110.92 113.444 111.662 109.546 111.662H86.6707C85.5661 111.662 84.6707 112.558 84.6707 113.662C84.6707 114.767 85.5661 115.662 86.6707 115.662H109.546C113.712 115.662 118.653 114.918 121.969 111.295ZM63.7896 141.645C64.5729 142.424 64.5765 143.691 63.7976 144.474L46.7123 161.656C45.9334 162.44 44.6671 162.443 43.8839 161.665L4.5898 122.593C3.80654 121.814 3.80295 120.548 4.58178 119.764L21.6671 102.582C22.446 101.799 23.7123 101.795 24.4956 102.574L63.7896 141.645Z" fill="white"/>
</svg>
