<svg width="137" height="120" viewBox="0 0 137 120" fill="none" xmlns="http://www.w3.org/2000/svg">
<mask id="path-1-inside-1_168_1483" fill="white">
<rect x="31.875" width="104.062" height="27.1875" rx="3"/>
</mask>
<rect x="31.875" width="104.062" height="27.1875" rx="3" stroke="white" stroke-width="8" mask="url(#path-1-inside-1_168_1483)"/>
<mask id="path-2-inside-2_168_1483" fill="white">
<rect y="63.75" width="19.6875" height="56.25" rx="3"/>
</mask>
<rect y="63.75" width="19.6875" height="56.25" rx="3" stroke="white" stroke-width="8" mask="url(#path-2-inside-2_168_1483)"/>
<path d="M72.1875 34.6875H94.6875" stroke="white" stroke-width="4" stroke-linecap="round"/>
<path d="M40.3125 25.7812V74.0625" stroke="white" stroke-width="4" stroke-linecap="round"/>
<path d="M126.562 26.25V79.6875" stroke="white" stroke-width="4" stroke-linecap="round"/>
<path d="M19.2188 102.188C22.0253 104.059 21.5645 106.863 33.6722 108.738C33.7225 108.746 33.7756 108.75 33.8265 108.75H75.9375" stroke="white" stroke-width="4" stroke-linecap="round"/>
<path d="M75.9374 108.75L129.544 94.469C130.438 94.057 131.249 93.4864 131.93 92.7896C132.611 92.0928 133.149 91.2836 133.512 90.4082C133.876 89.5327 134.058 88.6081 134.049 87.6872C134.04 86.7663 133.84 85.8671 133.459 85.041C133.079 84.2149 132.526 83.478 131.832 82.8724C131.138 82.2668 130.317 81.8043 129.416 81.5115C128.514 81.2186 127.55 81.1011 126.577 81.1655C125.605 81.23 124.645 81.4752 123.75 81.8872L97.0311 90.4082" stroke="white" stroke-width="4"/>
<path d="M67.5001 91.4068L85.2551 96.5186C87.1316 97.0589 89.0957 97.6164 90.9859 97.1261V97.1261C91.929 96.8816 92.8074 96.4667 93.5711 95.9051C94.3349 95.3435 94.9689 94.6463 95.437 93.8532C95.9052 93.0601 96.1982 92.1867 96.2995 91.2828C96.4008 90.3789 96.3083 89.4623 96.0273 88.5853C95.7463 87.7083 95.2823 86.888 94.6618 86.1713C94.0413 85.4546 93.2765 84.8556 92.411 84.4084V84.4084C90.245 83.2892 87.8787 82.6597 85.52 82.0428L62.4509 76.0093C59.8901 75.3396 57.254 75.0006 54.6071 75.0006L33.7501 75.0006C30.1564 75.3129 22.0314 77.4377 18.2814 83.4377" stroke="white" stroke-width="4" stroke-linecap="round"/>
</svg>
