<svg width="112" height="112" viewBox="0 0 112 112" fill="none" xmlns="http://www.w3.org/2000/svg">
<circle cx="46.2204" cy="45.7185" r="36.7517" stroke="white" stroke-width="4"/>
<circle cx="46.2202" cy="45.7183" r="43.7183" stroke="white" stroke-width="4"/>
<circle cx="25.7557" cy="40.9295" r="4.96659" stroke="white" stroke-width="4"/>
<circle cx="44.0428" cy="59.2166" r="4.96659" stroke="white" stroke-width="4"/>
<path d="M71.9098 82.7288L93.779 105.212C94.6665 106.103 95.6908 106.841 96.7933 107.383C97.8958 107.926 99.0549 108.262 100.205 108.373C101.354 108.483 102.472 108.366 103.494 108.028C104.515 107.69 105.421 107.138 106.16 106.403C106.898 105.668 107.454 104.765 107.797 103.744C108.139 102.724 108.261 101.607 108.156 100.457C108.05 99.3068 107.719 98.1461 107.182 97.0412C106.645 95.9363 105.911 94.9087 105.024 94.0172L82.7951 71.4082" stroke="white" stroke-width="4"/>
<circle cx="66.6853" cy="36.576" r="4.96659" stroke="white" stroke-width="4"/>
<circle cx="93.6805" cy="11.3221" r="4.96659" stroke="white" stroke-width="4"/>
<path d="M10.0811 40.9297H20.0955" stroke="white" stroke-width="4"/>
<path d="M30.1094 44.8477L40.1239 54.8621" stroke="white" stroke-width="4"/>
<path d="M47.5264 55.7336L62.7658 40.4941" stroke="white" stroke-width="4"/>
<path d="M76.6991 26.125L70.168 33.0916" stroke="white" stroke-width="4"/>
<path d="M90.1971 13.9316L83.2305 20.0274" stroke="white" stroke-width="4"/>
<path d="M98.9053 11.3223H109.791" stroke="white" stroke-width="4" stroke-linecap="round"/>
<path d="M79.3105 90.5669L90.1958 79.6816" stroke="white" stroke-width="4" stroke-linecap="round"/>
</svg>
