<svg width="125" height="92" viewBox="0 0 125 92" fill="none" xmlns="http://www.w3.org/2000/svg">
<path d="M30.5 15L26 2L2 27.5M2 27.5C19.3333 15.8333 67.9 -0.5 123.5 27.5L111.5 52.5M2 27.5L14 52.5C33.7059 39.9045 54.3319 37.4376 72 39.4138M111.5 52.5C103.462 47.4148 89.1195 41.3286 72 39.4138M111.5 52.5C108.333 51.9886 99 52.4193 87 58.2329M72 39.4138C62.8333 37.7759 39.8 40.7 21 65.5M21 65.5L29 82C37.2791 77.2497 57.1413 70.952 80 76.3377M21 65.5C45.3775 51.3271 70.0228 53.0565 87 58.2329M96 82L75 90.5L80 76.3377M96 82C90.5787 79.4008 85.2115 77.5656 80 76.3377M96 82L103.5 65.5C99.6639 63.0721 93.98 60.3612 87 58.2329" stroke="white" stroke-width="3" stroke-linecap="round" stroke-linejoin="round"/>
</svg>
