<svg width="16" height="16" viewBox="0 0 16 16" fill="none" xmlns="http://www.w3.org/2000/svg">
<path d="M6.44913 9.12557C4.96279 7.63924 4.62718 6.1529 4.55147 5.5574C4.53032 5.39274 4.58698 5.22761 4.70478 5.11064L5.90759 3.90836C6.08453 3.73154 6.11593 3.45596 5.98331 3.24386L4.0682 0.270115C3.92148 0.0352569 3.62021 -0.0495057 3.37255 0.074389L0.298125 1.52233C0.0978506 1.62095 -0.019948 1.83374 0.00279091 2.05581C0.163882 3.58618 0.831068 7.3482 4.52811 11.0455C8.22516 14.7428 11.9866 15.4097 13.5178 15.5708C13.7399 15.5936 13.9527 15.4758 14.0513 15.2755L15.4992 12.2011C15.6227 11.9539 15.5385 11.6535 15.3046 11.5065L12.3308 9.59193C12.1189 9.45917 11.8433 9.49035 11.6663 9.66711L10.4641 10.8699C10.3471 10.9877 10.182 11.0444 10.0173 11.0232C9.4218 10.9475 7.93546 10.6119 6.44913 9.12557V9.12557Z" fill="black"/>
<path d="M12.3512 8.32179C12.0547 8.32179 11.8143 8.08138 11.8143 7.78482C11.8117 5.56165 10.0101 3.76005 7.78697 3.75754C7.49041 3.75754 7.25 3.51713 7.25 3.22056C7.25 2.924 7.49041 2.68359 7.78697 2.68359C10.603 2.6867 12.8851 4.96878 12.8882 7.78482C12.8882 8.08138 12.6478 8.32179 12.3512 8.32179Z" fill="black"/>
<path d="M15.0361 8.32305C14.7395 8.32305 14.4991 8.08264 14.4991 7.78608C14.495 4.08079 11.4923 1.07809 7.78697 1.07394C7.49041 1.07394 7.25 0.833532 7.25 0.536971C7.25 0.24041 7.49041 0 7.78697 0C12.0851 0.00473498 15.5683 3.48791 15.5731 7.78608C15.5731 7.92849 15.5165 8.06507 15.4158 8.16578C15.3151 8.26648 15.1785 8.32305 15.0361 8.32305Z" fill="black"/>
</svg>
