<svg width="99" height="103" viewBox="0 0 99 103" fill="none" xmlns="http://www.w3.org/2000/svg">
<path d="M66.4723 47.6936L12.2649 49.3723C10.0083 49.4422 8.14103 47.6318 8.14107 45.3741L8.14113 41.5822L8.14049 32.6232C8.14035 30.5666 9.69973 28.845 11.7463 28.6424L75.0503 22.3735C75.8986 22.2895 76.4563 23.2375 75.9707 23.9382L71.4148 30.5121L73.1462 30.4621C74.2245 30.4309 75.1333 31.2606 75.2001 32.3373L75.6949 40.3096C75.7624 41.3972 74.9467 42.3388 73.8605 42.4269L70.2944 42.7163L70.3405 43.4419C70.4837 45.6974 68.7313 47.6236 66.4723 47.6936Z" fill="#222222"/>
<path d="M69.6783 33.0176C69.3759 33.6506 68.3313 34.8663 66.2223 36.0634C63.5748 37.5662 60.4849 37.9871 57.4555 38.2889L24.3915 41.5822M69.6783 33.0176L70.2944 42.7163M69.6783 33.0176L71.4148 30.5121M70.2944 42.7163L70.3405 43.4419C70.4837 45.6974 68.7313 47.6236 66.4723 47.6936L12.2649 49.3723C10.0083 49.4422 8.14103 47.6318 8.14107 45.3741L8.14113 41.5822M70.2944 42.7163L73.8605 42.4269C74.9467 42.3388 75.7624 41.3972 75.6949 40.3096L75.2001 32.3373C75.1333 31.2606 74.2245 30.4309 73.1462 30.4621L71.4148 30.5121M71.4148 30.5121L75.9707 23.9382C76.4563 23.2375 75.8986 22.2895 75.0503 22.3735L11.7463 28.6424C9.69974 28.845 8.14035 30.5666 8.14049 32.6232L8.14113 41.5822M8.14113 41.5822C9.4742 42.2336 10.9614 42.5212 12.0793 42.5361" stroke="white" stroke-width="3" stroke-linecap="round"/>
<path d="M61.8395 71.0921L10.799 51.4612C8.71168 50.6583 7.68807 48.3001 8.52716 46.227L11.25 39.5L14.0685 32.5366C14.8698 30.5569 17.0849 29.5559 19.1002 30.2628L80.42 51.7704C81.2308 52.0548 81.3291 53.1618 80.581 53.5846L73.6538 57.5L75.2344 58.2085C76.2188 58.6498 76.6759 59.7923 76.2674 60.7908L73.243 68.1837C72.8304 69.1924 71.6862 69.685 70.6699 69.2916L67.3333 68L66.9797 68.8679C66.1578 70.8853 63.8727 71.8741 61.8395 71.0921Z" fill="#222222"/>
<path d="M71 59C70.4522 59.4382 68.9826 60.0781 66.5629 60.2379C63.5252 60.4386 60.5601 59.4727 57.7014 58.4259L26.5 47M71 59L67.3333 68M71 59L73.6538 57.5M67.3333 68L66.9797 68.8679C66.1578 70.8853 63.8727 71.8741 61.8395 71.0921L10.799 51.4612C8.71168 50.6583 7.68807 48.3001 8.52716 46.227L11.25 39.5M67.3333 68L70.6699 69.2916C71.6862 69.685 72.8304 69.1924 73.243 68.1837L76.2674 60.7908C76.6759 59.7923 76.2188 58.6498 75.2344 58.2085L73.6538 57.5M73.6538 57.5L80.581 53.5846C81.3291 53.1618 81.2308 52.0548 80.42 51.7704L19.1002 30.2628C17.0849 29.5559 14.8698 30.5569 14.0685 32.5366L11.25 39.5M11.25 39.5C12.1667 40.6667 14 42 15 42.5" stroke="white" stroke-width="3" stroke-linecap="round"/>
<path d="M19.5 44.5L22.5 45.5" stroke="white" stroke-width="3" stroke-linecap="round"/>
<path d="M29.4998 58.5C29.0001 60.1241 28.7439 63.1903 30.5 65.298M41 63C40.3758 64.4979 38.6671 66.8934 36 67.3295M30.5 65.298C31.0867 66.0022 31.898 66.5993 32.9998 67C34.1044 67.4017 35.106 67.4756 36 67.3295M30.5 65.298L26.9861 74.4357C26.392 75.9806 24.9078 77 23.2526 77H13.5M36 67.3295L31.6938 78.9351C30.6756 81.6791 28.0578 83.5 25.131 83.5H13.5" stroke="white" stroke-width="3"/>
<path d="M9.28782 71H7.5V90H9.5C10.4443 90 11.3334 89.5554 11.9 88.8C12.2895 88.2807 12.5 87.6491 12.5 87V74.6162C12.5 73.5814 12.0889 72.5889 11.3571 71.8571C10.8083 71.3083 10.064 71 9.28782 71Z" stroke="white" stroke-width="3"/>
<mask id="path-8-inside-1_1601_233" fill="white">
<path fill-rule="evenodd" clip-rule="evenodd" d="M83.8328 78.0833C83.8328 77.485 84.3179 77 84.9162 77H87.0828C87.6811 77 88.1662 77.485 88.1662 78.0833V81.6059C89.0015 81.8209 89.7881 82.1573 90.506 82.5952L93.0345 80.1373C93.4636 79.7203 94.1494 79.73 94.5664 80.1591L96.0766 81.7127C96.4937 82.1417 96.4839 82.8276 96.0549 83.2446L93.5271 85.7017C93.9054 86.3627 94.199 87.0783 94.3934 87.8338H97.9167C98.515 87.8338 99 88.3189 99 88.9172V91.0838C99 91.6821 98.515 92.1672 97.9167 92.1672H94.3929C94.1779 93.002 93.8416 93.7882 93.404 94.5058L95.8596 97.0321C96.2767 97.4611 96.2669 98.147 95.8379 98.564L94.2843 100.074C93.8552 100.491 93.1694 100.481 92.7524 100.052L90.2975 97.527C89.6367 97.9051 88.9214 98.1988 88.1662 98.3931V101.917C88.1662 102.515 87.6811 103 87.0828 103H84.9162C84.3179 103 83.8328 102.515 83.8328 101.917V98.3931C82.9964 98.1778 82.2088 97.8408 81.4901 97.4021L78.9649 99.8566C78.5359 100.274 77.85 100.264 77.433 99.8349L75.9228 98.2813C75.5058 97.8523 75.5155 97.1664 75.9445 96.7494L78.4702 94.2944C78.0931 93.6348 77.8002 92.9208 77.6061 92.1672H74.0833C73.485 92.1672 73 91.6821 73 91.0838V88.9172C73 88.3189 73.485 87.8338 74.0833 87.8338H77.6056C77.8209 86.9969 78.1581 86.2089 78.5971 85.4899L76.1403 82.9625C75.7233 82.5335 75.733 81.8476 76.162 81.4306L77.7157 79.9204C78.1447 79.5034 78.8306 79.5131 79.2476 79.9421L81.7048 82.47C82.3647 82.0929 83.0789 81.7999 83.8328 81.6059V78.0833Z"/>
</mask>
<path d="M88.1662 81.6059H86.6368V82.7915L87.7849 83.087L88.1662 81.6059ZM90.506 82.5952L89.7096 83.9009L90.7218 84.5182L91.572 83.6918L90.506 82.5952ZM93.0345 80.1373L94.1005 81.234L94.1005 81.234L93.0345 80.1373ZM94.5664 80.1591L95.6631 79.093L95.6631 79.093L94.5664 80.1591ZM96.0766 81.7127L94.9799 82.7787L94.9799 82.7787L96.0766 81.7127ZM96.0549 83.2446L94.9889 82.1479L94.9889 82.1479L96.0549 83.2446ZM93.5271 85.7017L92.4611 84.605L91.6106 85.4317L92.1997 86.4612L93.5271 85.7017ZM94.3934 87.8338L92.9122 88.2149L93.2076 89.3632H94.3934V87.8338ZM94.3929 92.1672V90.6378H93.2074L92.9118 91.7858L94.3929 92.1672ZM93.404 94.5058L92.0982 93.7094L91.4809 94.7216L92.3073 95.5718L93.404 94.5058ZM95.8596 97.0321L94.7629 98.0981L94.7629 98.0981L95.8596 97.0321ZM95.8379 98.564L94.7719 97.4673L94.7719 97.4673L95.8379 98.564ZM94.2843 100.074L93.2183 98.9775L93.2183 98.9775L94.2843 100.074ZM92.7524 100.052L93.849 98.9865L93.849 98.9865L92.7524 100.052ZM90.2975 97.527L91.3942 96.461L90.5675 95.6105L89.538 96.1996L90.2975 97.527ZM88.1662 98.3931L87.785 96.912L86.6368 97.2075V98.3931H88.1662ZM83.8328 98.3931H85.3622V97.2075L84.2141 96.912L83.8328 98.3931ZM81.4901 97.4021L82.287 96.0967L81.2746 95.4787L80.4241 96.3054L81.4901 97.4021ZM78.9649 99.8566L77.8989 98.76L77.8989 98.76L78.9649 99.8566ZM77.433 99.8349L78.5297 98.7689L78.5297 98.7689L77.433 99.8349ZM75.9228 98.2813L77.0195 97.2153L77.0195 97.2153L75.9228 98.2813ZM75.9445 96.7494L74.8785 95.6527L74.8785 95.6527L75.9445 96.7494ZM78.4702 94.2944L79.5362 95.3911L80.3864 94.5647L79.7979 93.5354L78.4702 94.2944ZM77.6061 92.1672L79.0872 91.7858L78.7916 90.6378H77.6061V92.1672ZM77.6056 87.8338V89.3632H78.7914L79.0868 88.2149L77.6056 87.8338ZM78.5971 85.4899L79.9024 86.2868L80.5205 85.2744L79.6937 84.4239L78.5971 85.4899ZM76.1403 82.9625L75.0436 84.0285L75.0436 84.0285L76.1403 82.9625ZM76.162 81.4306L75.096 80.3339L75.096 80.3339L76.162 81.4306ZM77.7157 79.9204L76.6497 78.8237L76.6497 78.8237L77.7157 79.9204ZM79.2476 79.9421L80.3443 78.8761L80.3443 78.8761L79.2476 79.9421ZM81.7048 82.47L80.6081 83.5361L81.4345 84.3862L82.4638 83.7978L81.7048 82.47ZM83.8328 81.6059L84.2141 83.087L85.3622 82.7915V81.6059H83.8328ZM84.9162 75.4706C83.4732 75.4706 82.3034 76.6404 82.3034 78.0833H85.3622C85.3622 78.3297 85.1625 78.5294 84.9162 78.5294V75.4706ZM87.0828 75.4706H84.9162V78.5294H87.0828V75.4706ZM89.6956 78.0833C89.6956 76.6404 88.5258 75.4706 87.0828 75.4706V78.5294C86.8365 78.5294 86.6368 78.3297 86.6368 78.0833H89.6956ZM89.6956 81.6059V78.0833H86.6368V81.6059H89.6956ZM87.7849 83.087C88.4715 83.2637 89.1185 83.5403 89.7096 83.9009L91.3024 81.2895C90.4577 80.7743 89.5315 80.378 88.5474 80.1247L87.7849 83.087ZM91.9685 79.0406L89.44 81.4985L91.572 83.6918L94.1005 81.234L91.9685 79.0406ZM95.6631 79.093C94.6574 78.0583 93.0032 78.0349 91.9685 79.0406L94.1005 81.234C93.9239 81.4057 93.6415 81.4017 93.4698 81.2251L95.6631 79.093ZM97.1733 80.6467L95.6631 79.093L93.4698 81.2251L94.9799 82.7787L97.1733 80.6467ZM97.1209 84.3413C98.1556 83.3355 98.1791 81.6814 97.1733 80.6467L94.9799 82.7787C94.8082 82.602 94.8122 82.3196 94.9889 82.1479L97.1209 84.3413ZM94.5932 86.7984L97.1209 84.3413L94.9889 82.1479L92.4611 84.605L94.5932 86.7984ZM92.1997 86.4612C92.511 87.0054 92.7525 87.5939 92.9122 88.2149L95.8746 87.4528C95.6456 86.5628 95.2997 85.72 94.8546 84.9421L92.1997 86.4612ZM97.9167 86.3044H94.3934V89.3632H97.9167V86.3044ZM100.529 88.9172C100.529 87.4742 99.3596 86.3044 97.9167 86.3044V89.3632C97.6703 89.3632 97.4706 89.1635 97.4706 88.9172H100.529ZM100.529 91.0838V88.9172H97.4706V91.0838H100.529ZM97.9167 93.6966C99.3596 93.6966 100.529 92.5268 100.529 91.0838H97.4706C97.4706 90.8375 97.6703 90.6378 97.9167 90.6378V93.6966ZM94.3929 93.6966H97.9167V90.6378H94.3929V93.6966ZM92.9118 91.7858C92.7351 92.472 92.4586 93.1186 92.0982 93.7094L94.7097 95.3021C95.2246 94.4579 95.6207 93.5321 95.874 92.5486L92.9118 91.7858ZM96.9563 95.9661L94.5007 93.4398L92.3073 95.5718L94.7629 98.0981L96.9563 95.9661ZM96.9039 99.6607C97.9386 98.6549 97.9621 97.0008 96.9563 95.9661L94.7629 98.0981C94.5912 97.9215 94.5952 97.639 94.7719 97.4673L96.9039 99.6607ZM95.3503 101.171L96.9039 99.6607L94.7719 97.4673L93.2183 98.9775L95.3503 101.171ZM91.6557 101.118C92.6614 102.153 94.3156 102.177 95.3503 101.171L93.2183 98.9775C93.3949 98.8058 93.6773 98.8098 93.849 98.9865L91.6557 101.118ZM89.2009 98.593L91.6557 101.118L93.849 98.9865L91.3942 96.461L89.2009 98.593ZM89.538 96.1996C88.994 96.5108 88.4057 96.7522 87.785 96.912L88.5474 99.8743C89.4371 99.6453 90.2795 99.2995 91.0571 98.8545L89.538 96.1996ZM89.6956 101.917V98.3931H86.6368V101.917H89.6956ZM87.0828 104.529C88.5258 104.529 89.6956 103.36 89.6956 101.917H86.6368C86.6368 101.67 86.8365 101.471 87.0828 101.471V104.529ZM84.9162 104.529H87.0828V101.471H84.9162V104.529ZM82.3034 101.917C82.3034 103.36 83.4732 104.529 84.9162 104.529V101.471C85.1625 101.471 85.3622 101.67 85.3622 101.917H82.3034ZM82.3034 98.3931V101.917H85.3622V98.3931H82.3034ZM84.2141 96.912C83.5266 96.735 82.8788 96.458 82.287 96.0967L80.6932 98.7075C81.5388 99.2237 82.4662 99.6206 83.4516 99.8743L84.2141 96.912ZM80.0309 100.953L82.5561 98.4988L80.4241 96.3054L77.8989 98.76L80.0309 100.953ZM76.3363 100.901C77.3421 101.936 78.9962 101.959 80.0309 100.953L77.8989 98.76C78.0756 98.5882 78.358 98.5922 78.5297 98.7689L76.3363 100.901ZM74.8261 99.3473L76.3363 100.901L78.5297 98.7689L77.0195 97.2153L74.8261 99.3473ZM74.8785 95.6527C73.8438 96.6585 73.8204 98.3126 74.8261 99.3473L77.0195 97.2153C77.1912 97.3919 77.1872 97.6743 77.0106 97.8461L74.8785 95.6527ZM77.4042 93.1977L74.8785 95.6527L77.0106 97.8461L79.5362 95.3911L77.4042 93.1977ZM79.7979 93.5354C79.4875 92.9924 79.2467 92.4052 79.0872 91.7858L76.125 92.5486C76.3537 93.4364 76.6986 94.2771 77.1424 95.0534L79.7979 93.5354ZM74.0833 93.6966H77.6061V90.6378H74.0833V93.6966ZM71.4706 91.0838C71.4706 92.5268 72.6404 93.6966 74.0833 93.6966V90.6378C74.3297 90.6378 74.5294 90.8375 74.5294 91.0838H71.4706ZM71.4706 88.9172V91.0838H74.5294V88.9172H71.4706ZM74.0833 86.3044C72.6404 86.3044 71.4706 87.4742 71.4706 88.9172H74.5294C74.5294 89.1635 74.3297 89.3632 74.0833 89.3632V86.3044ZM77.6056 86.3044H74.0833V89.3632H77.6056V86.3044ZM79.0868 88.2149C79.2638 87.527 79.541 86.8789 79.9024 86.2868L77.2917 84.693C76.7752 85.539 76.3781 86.4668 76.1244 87.4528L79.0868 88.2149ZM75.0436 84.0285L77.5004 86.5559L79.6937 84.4239L77.237 81.8965L75.0436 84.0285ZM75.096 80.3339C74.0613 81.3397 74.0379 82.9938 75.0436 84.0285L77.237 81.8965C77.4087 82.0731 77.4047 82.3555 77.2281 82.5273L75.096 80.3339ZM76.6497 78.8237L75.096 80.3339L77.2281 82.5273L78.7817 81.0171L76.6497 78.8237ZM80.3443 78.8761C79.3385 77.8414 77.6844 77.8179 76.6497 78.8237L78.7817 81.0171C78.605 81.1888 78.3226 81.1848 78.1509 81.0081L80.3443 78.8761ZM82.8015 81.404L80.3443 78.8761L78.1509 81.0081L80.6081 83.5361L82.8015 81.404ZM82.4638 83.7978C83.007 83.4873 83.5944 83.2465 84.2141 83.087L83.4516 80.1247C82.5635 80.3533 81.7224 80.6984 80.9458 81.1423L82.4638 83.7978ZM82.3034 78.0833V81.6059H85.3622V78.0833H82.3034Z" fill="white" mask="url(#path-8-inside-1_1601_233)"/>
<circle cx="86.0003" cy="90.0003" r="3.56863" stroke="white" stroke-width="1.52941"/>
</svg>
