<svg width="102" height="98" viewBox="0 0 102 98" fill="none" xmlns="http://www.w3.org/2000/svg">
<path fill-rule="evenodd" clip-rule="evenodd" d="M6 2C3.79086 2 2 3.79086 2 6V11.1602H99.5704V6C99.5704 3.79086 97.7795 2 95.5704 2H6ZM99.5704 13.1602V72.0729C99.5704 74.2821 97.7795 76.0729 95.5704 76.0729H92.7585V72.08C92.7585 71.5278 92.3108 71.08 91.7585 71.08C91.2062 71.08 90.7585 71.5278 90.7585 72.08V89.934C90.7585 91.0386 89.8631 91.934 88.7585 91.934H82.5972C82.045 91.934 81.5972 91.4863 81.5972 90.934V89.6471C81.5972 87.9902 80.2541 86.6471 78.5972 86.6471H65.8553C64.1985 86.6471 62.8553 87.9902 62.8553 89.6471V90.934C62.8553 91.4863 62.4076 91.934 61.8553 91.934H56.5752C55.4706 91.934 54.5752 91.0386 54.5752 89.934V77.2781C54.5758 77.2674 54.5763 77.2567 54.5766 77.246L54.5769 77.2288L54.5769 77.2188C54.5769 77.1988 54.5763 77.179 54.5752 77.1594V49.8203C54.5752 48.7157 55.4706 47.8203 56.5752 47.8203H88.7585C89.8631 47.8203 90.7585 48.7157 90.7585 49.8203V65.912C90.7585 66.4643 91.2062 66.912 91.7585 66.912C92.3108 66.912 92.7585 66.4643 92.7585 65.912V49.8203C92.7585 47.6112 90.9677 45.8203 88.7585 45.8203H56.5752C54.3661 45.8203 52.5752 47.6112 52.5752 49.8203V76.2188H43.044C42.3849 74.1477 41.3269 72.2088 39.9089 70.5181C39.5675 70.1111 39.0782 69.8566 38.5489 69.8108C38.0196 69.765 37.4939 69.9317 37.0876 70.2741L35.9838 71.2044C33.1788 68.2345 29.2014 66.3789 24.7916 66.3789C18.1797 66.3789 12.5415 70.5479 10.3623 76.4006C10.2802 76.3789 10.1941 76.3673 10.1053 76.3673H6C3.79086 76.3673 2 74.5764 2 72.3673V24.498C2 23.9458 1.55228 23.498 1 23.498C0.447715 23.498 0 23.9458 0 24.498V72.3673C0 75.681 2.68629 78.3673 6 78.3673H9.77705C9.52988 79.4622 9.39941 80.6014 9.39941 81.7711C9.39941 90.2719 16.2907 97.1633 24.7916 97.1633C29.0797 97.1633 32.9591 95.4087 35.7491 92.5809L36.3645 93.1583C36.7513 93.5213 37.2665 93.7157 37.7966 93.6988C38.3268 93.6819 38.8285 93.4551 39.1915 93.0683C42.0443 90.0278 43.6964 86.055 43.8308 81.8997C43.871 80.6564 43.7745 79.4226 43.5482 78.2188H52.5752V89.934C52.5752 92.1432 54.3661 93.934 56.5752 93.934H61.8553C63.5122 93.934 64.8553 92.5909 64.8553 90.934V89.6471C64.8553 89.0948 65.303 88.6471 65.8553 88.6471H78.5972C79.1495 88.6471 79.5972 89.0948 79.5972 89.6471V90.934C79.5972 92.5909 80.9404 93.934 82.5972 93.934H88.7585C90.9677 93.934 92.7585 92.1432 92.7585 89.934V78.0729H95.5704C98.8841 78.0729 101.57 75.3867 101.57 72.0729V6C101.57 2.68629 98.8841 0 95.5704 0H6C2.68629 0 0 2.68629 0 6V17.4482C0 18.0005 0.447715 18.4482 1 18.4482C1.55228 18.4482 2 18.0005 2 17.4482V13.1602H99.5704ZM41.1658 76.913C41.1349 77.0094 41.1182 77.1121 41.1182 77.2188C41.1182 77.5148 41.2468 77.7808 41.4513 77.964C41.7439 79.2211 41.8743 80.5218 41.8318 81.8351C41.7349 84.8332 40.7423 87.7263 39.0052 90.151C38.6176 90.6919 38.193 91.2096 37.733 91.6998L36.2744 90.3313L28.3353 82.8823L26.8668 81.5044L28.4066 80.2066L36.8473 73.0923L38.3766 71.8034C38.8086 72.3185 39.2028 72.86 39.5577 73.4235C40.2446 74.5142 40.7842 75.6876 41.1658 76.913ZM34.2901 91.212L25.4983 82.9629C25.0818 82.5721 24.8523 82.022 24.8675 81.4511C24.8827 80.8803 25.1412 80.3431 25.5778 79.9751L34.4518 72.4957C32.0136 69.957 28.5874 68.3789 24.7916 68.3789C17.3953 68.3789 11.3994 74.3748 11.3994 81.7711C11.3994 89.1674 17.3953 95.1633 24.7916 95.1633C28.5042 95.1633 31.8633 93.6536 34.2901 91.212ZM56.5127 17.0352C57.065 17.0352 57.5127 17.4829 57.5127 18.0352V28.6134L64.4623 23.517C64.2962 23.0925 64.2051 22.6304 64.2051 22.1471C64.2051 20.0692 65.8895 18.3848 67.9674 18.3848C70.0452 18.3848 71.7297 20.0692 71.7297 22.1471C71.7297 22.841 71.5418 23.491 71.2142 24.0491L74.1831 27.4748C74.6216 27.2958 75.1013 27.1972 75.604 27.1972C76.5469 27.1972 77.4088 27.5441 78.069 28.1171L82.7789 24.3492C82.5462 23.8601 82.416 23.3127 82.416 22.735C82.416 20.6571 84.1005 18.9727 86.1783 18.9727C88.2562 18.9727 89.9406 20.6571 89.9406 22.735C89.9406 24.8128 88.2562 26.4973 86.1783 26.4973C85.4047 26.4973 84.6856 26.2638 84.0877 25.8634L79.1807 29.7891C79.3012 30.1574 79.3663 30.5509 79.3663 30.9595C79.3663 33.0374 77.6819 34.7218 75.604 34.7218C73.5262 34.7218 71.8417 33.0374 71.8417 30.9595C71.8417 30.1108 72.1228 29.3277 72.5969 28.6982L69.7781 25.4458C69.2409 25.7413 68.6238 25.9094 67.9674 25.9094C67.0978 25.9094 66.2971 25.6143 65.6599 25.1189L57.5127 31.0935V36.8891C57.5127 37.4414 57.9604 37.8891 58.5127 37.8891H86.4719C87.0242 37.8891 87.4719 38.3368 87.4719 38.8891C87.4719 39.4414 87.0242 39.8891 86.4719 39.8891H58.5127C56.8558 39.8891 55.5127 38.546 55.5127 36.8891V18.0352C55.5127 17.4829 55.9604 17.0352 56.5127 17.0352ZM8.22365 6.87496C8.22365 6.32268 8.67136 5.87496 9.22365 5.87496H62.6803C63.2326 5.87496 63.6803 6.32268 63.6803 6.87496C63.6803 7.42724 63.2326 7.87496 62.6803 7.87496H9.22365C8.67136 7.87496 8.22365 7.42724 8.22365 6.87496ZM79.7167 5.87496C79.1644 5.87496 78.7167 6.32268 78.7167 6.87496C78.7167 7.42724 79.1644 7.87496 79.7167 7.87496H81.0302C81.5825 7.87496 82.0302 7.42724 82.0302 6.87496C82.0302 6.32268 81.5825 5.87496 81.0302 5.87496H79.7167ZM84.0029 6.87496C84.0029 6.32268 84.4506 5.87496 85.0029 5.87496H86.3164C86.8687 5.87496 87.3164 6.32268 87.3164 6.87496C87.3164 7.42724 86.8687 7.87496 86.3164 7.87496H85.0029C84.4506 7.87496 84.0029 7.42724 84.0029 6.87496ZM90.8778 5.87496C90.3255 5.87496 89.8778 6.32268 89.8778 6.87496C89.8778 7.42724 90.3255 7.87496 90.8778 7.87496H92.1914C92.7437 7.87496 93.1914 7.42724 93.1914 6.87496C93.1914 6.32268 92.7437 5.87496 92.1914 5.87496H90.8778ZM67.9674 23.9094C68.9407 23.9094 69.7297 23.1204 69.7297 22.1471C69.7297 21.1738 68.9407 20.3848 67.9674 20.3848C66.9941 20.3848 66.2051 21.1738 66.2051 22.1471C66.2051 23.1204 66.9941 23.9094 67.9674 23.9094ZM77.3663 30.9595C77.3663 31.9328 76.5773 32.7218 75.604 32.7218C74.6307 32.7218 73.8417 31.9328 73.8417 30.9595C73.8417 29.9862 74.6307 29.1972 75.604 29.1972C76.5773 29.1972 77.3663 29.9862 77.3663 30.9595ZM86.1783 24.4973C87.1516 24.4973 87.9406 23.7083 87.9406 22.735C87.9406 21.7617 87.1516 20.9727 86.1783 20.9727C85.205 20.9727 84.416 21.7617 84.416 22.735C84.416 23.7083 85.205 24.4973 86.1783 24.4973ZM81.066 51.2812H63.6807C62.0238 51.2812 60.6807 52.6244 60.6807 54.2812V59.3305C60.6807 60.9873 62.0238 62.3305 63.6807 62.3305H81.066C82.7229 62.3305 84.066 60.9873 84.066 59.3305V54.2812C84.066 52.6244 82.7229 51.2812 81.066 51.2812ZM62.6807 54.2812C62.6807 53.729 63.1284 53.2812 63.6807 53.2812H81.066C81.6183 53.2812 82.066 53.729 82.066 54.2812V59.3305C82.066 59.8828 81.6183 60.3305 81.066 60.3305H63.6807C63.1284 60.3305 62.6807 59.8828 62.6807 59.3305V54.2812ZM15.5117 51.8691H37.5966C39.2534 51.8691 40.5966 53.2123 40.5966 54.8691V59.3309C40.5966 60.9878 39.2534 62.3309 37.5966 62.3309H15.5117C13.8549 62.3309 12.5117 60.9878 12.5117 59.3309V54.8691C12.5117 53.2123 13.8549 51.8691 15.5117 51.8691ZM15.5117 53.8691C14.9594 53.8691 14.5117 54.3169 14.5117 54.8691V59.3309C14.5117 59.8832 14.9594 60.3309 15.5117 60.3309H37.5966C38.1489 60.3309 38.5966 59.8832 38.5966 59.3309V54.8691C38.5966 54.3169 38.1489 53.8691 37.5966 53.8691H15.5117ZM62.0938 66.9688C61.5415 66.9688 61.0938 67.4165 61.0938 67.9688C61.0938 68.521 61.5415 68.9688 62.0938 68.9688H65.6184C66.1706 68.9688 66.6184 68.521 66.6184 67.9688C66.6184 67.4165 66.1706 66.9688 65.6184 66.9688H62.0938ZM69.3174 67.9688C69.3174 67.4165 69.7651 66.9688 70.3174 66.9688H83.241C83.7933 66.9688 84.241 67.4165 84.241 67.9688C84.241 68.521 83.7933 68.9688 83.241 68.9688H70.3174C69.7651 68.9688 69.3174 68.521 69.3174 67.9688ZM62.0938 73.4297C61.5415 73.4297 61.0938 73.8774 61.0938 74.4297C61.0938 74.982 61.5415 75.4297 62.0938 75.4297H65.6184C66.1706 75.4297 66.6184 74.982 66.6184 74.4297C66.6184 73.8774 66.1706 73.4297 65.6184 73.4297H62.0938ZM69.3174 74.4297C69.3174 73.8774 69.7651 73.4297 70.3174 73.4297H83.241C83.7933 73.4297 84.241 73.8774 84.241 74.4297C84.241 74.982 83.7933 75.4297 83.241 75.4297H70.3174C69.7651 75.4297 69.3174 74.982 69.3174 74.4297ZM62.0938 79.8906C61.5415 79.8906 61.0938 80.3383 61.0938 80.8906C61.0938 81.4429 61.5415 81.8906 62.0938 81.8906H65.6184C66.1706 81.8906 66.6184 81.4429 66.6184 80.8906C66.6184 80.3383 66.1706 79.8906 65.6184 79.8906H62.0938ZM69.3174 80.8906C69.3174 80.3383 69.7651 79.8906 70.3174 79.8906H83.241C83.7933 79.8906 84.241 80.3383 84.241 80.8906C84.241 81.4429 83.7933 81.8906 83.241 81.8906H70.3174C69.7651 81.8906 69.3174 81.4429 69.3174 80.8906ZM45.2928 36.6306L45.2958 36.5761V36.5215C45.2958 34.0671 44.8204 31.6361 43.896 29.3667C42.9715 27.0974 41.6157 25.0332 39.9042 23.293C38.1927 21.5527 36.159 20.1705 33.9184 19.2268C31.6777 18.2831 29.2749 17.7969 26.8476 17.7969C24.4203 17.7969 22.0175 18.2831 19.7769 19.2268C17.5362 20.1705 15.5026 21.5527 13.791 23.293C12.0796 25.0332 10.7237 27.0974 9.79925 29.3667C8.87481 31.6361 8.39941 34.0671 8.39941 36.5215V36.5761L8.40239 36.6306C8.50853 38.5732 9.29665 43.1147 11.794 46.4661L13.3977 45.2711L11.794 46.4661C12.3797 47.2522 13.2818 47.6441 14.1624 47.6441H39.2623C40.0952 47.6441 40.9503 47.2941 41.5394 46.5814C44.3218 43.2149 45.1846 38.612 45.2928 36.6306ZM14.1624 45.6441C13.8628 45.6441 13.5767 45.5114 13.3977 45.2711C11.2312 42.3637 10.4949 38.2699 10.3994 36.5215C10.3994 34.3252 10.8249 32.1504 11.6515 30.1213C12.4781 28.0921 13.6896 26.2484 15.217 24.6954C16.7443 23.1424 18.5576 21.9105 20.5532 21.07C22.5487 20.2295 24.6876 19.7969 26.8476 19.7969C29.0076 19.7969 31.1465 20.2295 33.1421 21.07C35.1377 21.9105 36.9509 23.1424 38.4782 24.6954C40.0056 26.2484 41.2172 28.0921 42.0438 30.1213C42.8704 32.1504 43.2958 34.3252 43.2958 36.5215C43.1999 38.2771 42.4025 42.3977 39.9978 45.3072C39.8174 45.5255 39.5455 45.6441 39.2623 45.6441H34.8963V42.1195C34.8963 38.6101 32.6503 35.6252 29.5173 34.5238C30.8807 33.6451 31.7835 32.1134 31.7835 30.3708C31.7835 27.644 29.5731 25.4336 26.8464 25.4336C24.1196 25.4336 21.9092 27.644 21.9092 30.3708C21.9092 32.1136 22.8122 33.6455 24.1759 34.5241C21.0434 35.6258 18.7979 38.6104 18.7979 42.1195V45.6441H14.1624ZM20.7979 45.6441V42.1195C20.7979 38.7786 23.5062 36.0703 26.8471 36.0703C30.188 36.0703 32.8963 38.7786 32.8963 42.1195V45.6441H20.7979ZM26.8464 33.308C28.4685 33.308 29.7835 31.9929 29.7835 30.3708C29.7835 28.7486 28.4685 27.4336 26.8464 27.4336C25.2242 27.4336 23.9092 28.7486 23.9092 30.3708C23.9092 31.9929 25.2242 33.308 26.8464 33.308Z" fill="white"/>
</svg>
