<svg width="128" height="126" viewBox="0 0 128 126" fill="none" xmlns="http://www.w3.org/2000/svg">
<path d="M2 66.2378V82.0943C2 87.7864 6.30548 93.4785 11.7579 93.4785C17.8565 93.4785 17.9921 88.193 17.8565 86.5667V62.42C17.8565 61.1995 17.517 59.9685 16.6053 59.1572C14.8804 57.6223 11.9763 56.2121 8.50525 57.6997C3.95157 59.6512 2.27105 64.2049 2 66.2378Z" stroke="white" stroke-width="3" stroke-linecap="round"/>
<path d="M126.033 66.4644V82.3209C126.033 88.013 121.728 93.7051 116.275 93.7051C110.177 93.7051 110.041 88.4196 110.177 86.7933V62.6465C110.177 61.4261 110.516 60.1951 111.428 59.3838C113.153 57.8488 116.057 56.4386 119.528 57.9262C124.082 59.8778 125.762 64.4315 126.033 66.4644Z" stroke="white" stroke-width="3" stroke-linecap="round"/>
<rect x="66.9258" y="110.023" width="24.6473" height="14.0763" rx="7.03814" stroke="white" stroke-width="3"/>
<path d="M119.094 57.2949C119.094 50.0335 117.675 42.8432 114.916 36.1346C112.158 29.4259 108.115 23.3303 103.018 18.1957C97.9213 13.0612 91.8705 8.98817 85.2111 6.20936C78.5518 3.43055 71.4144 2.00031 64.2064 2.00031C56.9984 2.00031 49.861 3.43055 43.2016 6.20937C36.5423 8.98818 30.4915 13.0612 25.3947 18.1957C20.2979 23.3303 16.2548 29.4259 13.4965 36.1346C10.7381 42.8432 9.31836 50.0335 9.31836 57.2949" stroke="white" stroke-width="3"/>
<path d="M118.281 94.293V94.8745C118.281 107.577 107.984 117.874 95.2811 117.874H91.8535" stroke="white" stroke-width="3" stroke-linecap="round"/>
<path d="M41.3398 80.4693H47.9438H48.8345C49.4393 80.4693 49.9056 81.002 49.8257 81.6015L48.7537 89.6413C48.37 92.5193 51.8905 94.2095 53.8964 92.1104L64.7246 80.7785C64.9133 80.581 65.1745 80.4693 65.4476 80.4693H86.6673C89.9811 80.4693 92.6673 77.7831 92.6673 74.4693V42.1523C92.6673 38.8386 89.9811 36.1523 86.6673 36.1523H41.3398C38.0261 36.1523 35.3398 38.8386 35.3398 42.1523V74.4693C35.3398 77.7831 38.0261 80.4693 41.3398 80.4693Z" stroke="white" stroke-width="3" stroke-linecap="round"/>
<circle cx="64.613" cy="57.2936" r="3.25262" fill="white"/>
<circle cx="79.2497" cy="57.2936" r="3.25262" fill="white"/>
<circle cx="49.9763" cy="57.2936" r="3.25262" fill="white"/>
</svg>
