<svg width="120" height="120" viewBox="0 0 120 120" fill="none" xmlns="http://www.w3.org/2000/svg">
<path d="M10.9544 13.3965H8C4.68629 13.3965 2 16.0828 2 19.3965V87.5789C2 90.8926 4.68629 93.5789 8 93.5789H112.407C115.721 93.5789 118.407 90.8927 118.407 87.5789V19.3965C118.407 16.0828 115.721 13.3965 112.407 13.3965H109.453" stroke="white" stroke-width="3" stroke-linecap="round"/>
<path d="M55.7266 85.8457H65.495" stroke="white" stroke-width="3" stroke-linecap="round"/>
<path d="M17.874 69.9719V8C17.874 4.68629 20.5603 2 23.874 2H96.1267C99.4404 2 102.127 4.68629 102.127 8V69.9719" stroke="white" stroke-width="3" stroke-linecap="round"/>
<path d="M18.2803 17.4668H101.312" stroke="white" stroke-width="3" stroke-linecap="round"/>
<path d="M69.1582 9.73438H95.2073" stroke="white" stroke-width="3" stroke-linecap="round"/>
<path d="M66.7164 29.2695L54.5059 66.3081" stroke="white" stroke-width="3" stroke-linecap="round"/>
<path d="M2.40723 77.707L118 78.114" stroke="white" stroke-width="3" stroke-linecap="round"/>
<path d="M44.3297 37.4102L33.0231 46.8323C32.5494 47.2271 32.5423 47.9524 33.0083 48.3562L44.3297 58.1681" stroke="white" stroke-width="3" stroke-linecap="round"/>
<path d="M77.2983 37.0039L88.6049 46.4261C89.0786 46.8208 89.0856 47.5461 88.6196 47.95L77.2983 57.7618" stroke="white" stroke-width="3" stroke-linecap="round"/>
<circle cx="39.0382" cy="10.1417" r="1.62807" fill="white"/>
<circle cx="32.5265" cy="10.1417" r="1.62807" fill="white"/>
<circle cx="26.0138" cy="10.1417" r="1.62807" fill="white"/>
<path d="M85.2525 118H35.1543C34.602 118 34.1543 117.552 34.1543 117V116.674C34.1543 113.36 36.8406 110.674 40.1543 110.674H80.2525C83.5662 110.674 86.2525 113.36 86.2525 116.674V117C86.2525 117.552 85.8048 118 85.2525 118Z" stroke="white" stroke-width="3" stroke-linecap="round"/>
<path d="M71.5996 101.312C73.092 103.871 76.6466 109.244 78.9259 110.267" stroke="white" stroke-width="3" stroke-linecap="round"/>
<path d="M49.6211 101.312C48.1287 103.871 44.5741 109.244 42.2948 110.267" stroke="white" stroke-width="3" stroke-linecap="round"/>
</svg>
