<svg width="87" height="113" viewBox="0 0 87 113" fill="none" xmlns="http://www.w3.org/2000/svg">
<path fill-rule="evenodd" clip-rule="evenodd" d="M2 7C2 4.23858 4.23858 2 7 2H53.6403V14.0462C53.6403 17.9122 56.7743 21.0462 60.6403 21.0462H73.0752V88.164C72.2327 88.0818 71.3615 88.355 70.7045 88.9859L70.6271 89.0602C70.5922 89.0088 70.5519 88.96 70.5063 88.9144L65.0723 83.4803C68.7657 78.738 70.9656 72.7753 70.9656 66.2987C70.9656 50.8424 58.4358 38.3125 42.9794 38.3125C27.523 38.3125 14.9932 50.8424 14.9932 66.2987C14.9932 81.7551 27.523 94.285 42.9794 94.285C47.8462 94.285 52.4228 93.0427 56.4095 90.8579L61.1712 95.6196H7C4.23858 95.6196 2 93.3811 2 90.6196V25.8766C2 25.3244 1.55228 24.8766 1 24.8766C0.447715 24.8766 0 25.3244 0 25.8766V90.6196C0 94.4856 3.13401 97.6196 7 97.6196H61.6368C61.8454 97.6196 62.0391 97.5558 62.1994 97.4465C61.6966 98.5514 61.8979 99.901 62.8099 100.812L72.1931 110.188L72.2072 110.202L72.2215 110.216C73.0589 111.02 74.0359 111.667 75.1 112.119C76.1642 112.571 77.3 112.821 78.4449 112.846C79.5904 112.872 80.7241 112.672 81.7782 112.248C82.833 111.825 83.7823 111.187 84.5671 110.37C85.3519 109.553 85.9503 108.578 86.3309 107.507C86.7112 106.437 86.8649 105.296 86.793 104.152C86.7211 103.009 86.4253 101.884 85.9306 100.84C85.4389 99.8011 84.7581 98.8565 83.9278 98.0557L75.0274 89.1521C75.0584 89.0555 75.0752 88.9525 75.0752 88.8457V20.0462V19.626L74.7751 19.332L55.3402 0.285787L55.0486 0H54.6403H7C3.13401 0 0 3.13401 0 7V18.4914C0 19.0437 0.447715 19.4914 1 19.4914C1.55228 19.4914 2 19.0437 2 18.4914V7ZM63.3557 82.4277C63.1788 82.4683 63.0108 82.5574 62.873 82.6952C62.6885 82.8797 62.5912 83.1183 62.581 83.3598C57.817 88.8286 50.8018 92.285 42.9794 92.285C28.6276 92.285 16.9932 80.6505 16.9932 66.2987C16.9932 51.9469 28.6276 40.3125 42.9794 40.3125C57.3312 40.3125 68.9656 51.9469 68.9656 66.2987C68.9656 72.3925 66.8681 77.9963 63.3557 82.4277ZM63.7828 85.0193L69.0921 90.3286C69.1278 90.3643 69.1656 90.3968 69.2049 90.4259L63.9002 95.5202L63.8999 95.5199L58.1806 89.8006C60.2531 88.4573 62.1367 86.8474 63.7828 85.0193ZM71.626 19.0462L55.6403 3.38015V14.0462C55.6403 16.8076 57.8789 19.0462 60.6403 19.0462H71.626ZM42.979 86.0654C53.896 86.0654 62.7461 77.2154 62.7461 66.2983C62.7461 55.3813 53.896 46.5312 42.979 46.5312C32.0619 46.5312 23.2119 55.3813 23.2119 66.2983C23.2119 77.2154 32.0619 86.0654 42.979 86.0654ZM42.979 88.0654C55.0006 88.0654 64.746 78.3199 64.746 66.2983C64.746 54.2767 55.0006 44.5312 42.979 44.5312C30.9574 44.5312 21.2119 54.2767 21.2119 66.2983C21.2119 78.3199 30.9574 88.0654 42.979 88.0654ZM73.6068 108.773C74.2709 109.411 75.044 109.922 75.8817 110.278C76.7195 110.634 77.6056 110.827 78.4894 110.847C79.3732 110.866 80.2374 110.712 81.0327 110.392C81.828 110.073 82.5388 109.595 83.1245 108.985C83.7102 108.375 84.1594 107.645 84.4463 106.837C84.7333 106.03 84.8524 105.16 84.7969 104.278C84.7414 103.395 84.5124 102.518 84.1229 101.695C83.7334 100.873 83.1911 100.121 82.5269 99.4833L73.4897 90.4427C73.1047 90.0577 72.4825 90.0513 72.0898 90.4285L64.2378 97.9689C63.8336 98.357 63.8272 99.0015 64.2236 99.3975L73.6068 108.773Z" fill="white"/>
</svg>
