<svg width="73" height="141" viewBox="0 0 73 141" fill="none" xmlns="http://www.w3.org/2000/svg">
<path fill-rule="evenodd" clip-rule="evenodd" d="M23.9694 0C21.754 0 19.5543 0.355915 17.4933 1.05276C15.4326 1.74953 13.5394 2.77756 11.9289 4.09218C10.318 5.4072 9.01531 6.98864 8.11716 8.75862C7.21796 10.5307 6.74681 12.4482 6.74681 14.3977V30.0204H6.30112C2.82111 30.0204 0 32.8546 0 36.3509V70.8846C0 74.3808 2.82111 77.2151 6.30112 77.2151H7.77862C8.77291 77.2151 9.57894 76.4053 9.57894 75.4064C9.57894 74.4074 8.77291 73.5977 7.77862 73.5977H6.30112C4.80969 73.5977 3.60064 72.383 3.60064 70.8846V36.3509C3.60064 34.8525 4.80969 33.6378 6.30112 33.6378H41.6385C43.13 33.6378 44.339 34.8525 44.339 36.3509V61.7251C44.339 62.7241 45.1451 63.5338 46.1393 63.5338C47.1336 63.5338 47.9397 62.7241 47.9397 61.7251V36.3509C47.9397 32.8546 45.1186 30.0204 41.6385 30.0204H41.192V14.3977C41.192 12.4482 40.7208 10.5307 39.8216 8.75862C38.9235 6.98864 37.6208 5.4072 36.0099 4.09218C34.3994 2.77755 32.5062 1.74953 30.4455 1.05276C28.3845 0.355914 26.1848 0 23.9694 0ZM37.5913 30.0204V14.3977C37.5913 13.0408 37.2647 11.6843 36.6138 10.4016C35.9619 9.11684 34.9925 7.92268 33.7393 6.89971C32.4856 5.87634 30.9785 5.04977 29.297 4.48123C27.6157 3.91276 25.8045 3.61742 23.9694 3.61742C22.1342 3.61742 20.3231 3.91276 18.6418 4.48123C16.9603 5.04977 15.4532 5.87634 14.1995 6.89971C12.9463 7.92268 11.9769 9.11684 11.325 10.4016C10.6741 11.6843 10.3474 13.0408 10.3474 14.3977V30.0204H37.5913Z" fill="white"/>
<path fill-rule="evenodd" clip-rule="evenodd" d="M24.0065 46.4825C19.2699 46.4825 15.4446 50.3676 15.4961 55.126L15.8425 87.1458L15.166 86.2019C12.5403 82.5386 7.46686 81.6852 3.7967 84.2895C0.10267 86.9108 -0.776855 92.0443 1.83222 95.7555L6.32746 102.15L6.33095 102.155L17.6462 118.136C18.0798 118.748 18.3128 119.481 18.3128 120.232V124.374C18.3128 125.426 18.9094 126.339 19.7814 126.789C19.539 127.344 19.4044 127.958 19.4044 128.603V136.478C19.4044 138.976 21.4195 141 23.9052 141H63.5523C66.038 141 68.0531 138.976 68.0531 136.478V128.603C68.0531 127.866 67.8777 127.171 67.5665 126.556C68.2313 126.062 68.6624 125.268 68.6624 124.374L68.6624 120.002C68.6624 119.347 68.8397 118.703 69.1755 118.141L71.9737 113.456C72.6452 112.331 72.9999 111.045 72.9999 109.734L72.9999 94.7942L73 94.7728V86.0573C73 81.3146 69.1731 77.4699 64.4524 77.4699C62.5759 77.4699 60.8406 78.0774 59.4308 79.1074C58.8756 74.9038 55.2938 71.6605 50.9579 71.6605C48.9077 71.6605 47.0261 72.3857 45.5533 73.5947C44.4035 70.2162 41.2158 67.7869 37.4634 67.7869C35.6203 67.7869 33.9134 68.373 32.5174 69.3698V55.033C32.5174 50.3107 28.7069 46.4825 24.0065 46.4825ZM16.2424 93.8941C16.706 94.541 17.5161 94.7888 18.2345 94.5659C18.9773 94.3365 19.5136 93.6377 19.5048 92.8172L19.0965 55.0866C19.0668 52.3413 21.2738 50.0999 24.0065 50.0999C26.7184 50.0999 28.9168 52.3085 28.9168 55.033V75.9564H28.9258C28.9192 76.0949 28.9159 76.2342 28.9159 76.3743V89.9317C28.9159 90.9306 29.7219 91.7404 30.7162 91.7404C31.7105 91.7404 32.5165 90.9306 32.5165 89.9317V76.3743C32.5165 73.6295 34.7313 71.4044 37.4634 71.4044C40.1956 71.4044 42.4104 73.6295 42.4104 76.3743L42.4104 90.9001C42.4104 91.899 43.2164 92.7088 44.2107 92.7088C45.205 92.7088 46.011 91.899 46.011 90.9001V80.2479C46.011 77.503 48.2258 75.2779 50.9579 75.2779C53.6901 75.2779 55.9049 77.503 55.9049 80.2479V94.7728C55.9049 95.7717 56.7109 96.5815 57.7052 96.5815C58.6995 96.5815 59.5055 95.7717 59.5055 94.7728V86.0573C59.5055 83.3125 61.7203 81.0873 64.4524 81.0873C67.1845 81.0873 69.3994 83.3125 69.3994 86.0573V94.7525L69.3992 94.7739L69.3992 109.734C69.3992 110.389 69.2219 111.032 68.8861 111.595L66.0879 116.28C65.4164 117.404 65.0617 118.691 65.0617 120.002L65.0617 123.469H21.9134L21.9134 120.232C21.9134 118.729 21.4474 117.264 20.5802 116.039L9.26849 100.063L4.77326 93.6686C3.31141 91.5892 3.8042 88.7129 5.87394 87.2443C7.93031 85.7851 10.7729 86.2633 12.2441 88.3158L16.2424 93.8941ZM23.0051 128.603C23.0051 128.104 23.4081 127.699 23.9052 127.699H63.5523C64.0494 127.699 64.4524 128.104 64.4524 128.603V136.478C64.4524 136.978 64.0494 137.383 63.5523 137.383H23.9052C23.4081 137.383 23.0051 136.978 23.0051 136.478V128.603Z" fill="white"/>
</svg>
