<svg width="107" height="100" viewBox="0 0 107 100" fill="none" xmlns="http://www.w3.org/2000/svg">
<path d="M55 10.5C55 9.67157 55.6716 9 56.5 9H95C95.8284 9 96.5 9.67157 96.5 10.5C96.5 11.3284 95.8284 12 95 12H56.5C55.6716 12 55 11.3284 55 10.5Z" fill="white"/>
<path fill-rule="evenodd" clip-rule="evenodd" d="M32 49.5C31.924 49.5 31.8493 49.4943 31.7763 49.4834C31.2914 51.0463 30.0606 52.281 28.5 52.7711V57C28.5 59.4853 30.5147 61.5 33 61.5H46.2289C46.7686 59.7817 48.2108 58.4632 50 58.1V55C50 53.6193 51.1193 52.5 52.5 52.5H70.5C71.8807 52.5 73 53.6193 73 55V60C73 60.8284 72.3284 61.5 71.5 61.5C70.6716 61.5 70 60.8284 70 60V55.5H53V58.416C54.7659 59.1876 56 60.9497 56 63C56 65.0503 54.7659 66.8124 53 67.584V71.5H57.5C57.5554 71.5 57.61 71.503 57.6638 71.5088C58.5271 70.0095 60.1456 69 62 69C63.8507 69 65.4666 70.0055 66.3311 71.5H70V66.5C70 65.6716 70.6716 65 71.5 65C72.3284 65 73 65.6716 73 66.5V72C73 73.3807 71.8807 74.5 70.5 74.5H66.9753C66.7517 76.7517 65.0343 78.564 62.8281 78.9317C62.1861 81.5541 59.8203 83.5 57 83.5H39.3311C38.7107 84.5725 37.7034 85.3931 36.5 85.7711V90C36.5 91.3807 35.3807 92.5 34 92.5H16C14.6193 92.5 13.5 91.3807 13.5 90V72C13.5 70.6193 14.6193 69.5 16 69.5H34C35.3807 69.5 36.5 70.6193 36.5 72V76C36.5 76.076 36.4943 76.1507 36.4834 76.2237C38.3674 76.8082 39.7744 78.4767 39.9753 80.5H57C58.3045 80.5 59.4145 79.6674 59.8276 78.5047C58.2967 77.7651 57.2002 76.268 57.0247 74.5H52.5C51.1193 74.5 50 73.3807 50 72V67.9C48.2108 67.5368 46.7686 66.2182 46.2289 64.5H33C28.8579 64.5 25.5 61.1421 25.5 57V52.7711C23.945 52.2827 22.7173 51.055 22.2289 49.5H18C16.6193 49.5 15.5 48.3807 15.5 47V29C15.5 27.6193 16.6193 26.5 18 26.5H36C37.3807 26.5 38.5 27.6193 38.5 29V32.2289C40.2183 32.7686 41.5368 34.2108 41.9 36H67.1C67.4632 34.2108 68.7818 32.7686 70.5 32.2289V28.5C70.5 27.1193 71.6193 26 73 26H91C92.3807 26 93.5 27.1193 93.5 28.5V45.5C93.5 46.8807 92.3807 48 91 48H73C71.6193 48 70.5 46.8807 70.5 45.5V41.7711C69.1158 41.3363 67.9909 40.3158 67.416 39H41.584C41.0091 40.3158 39.8842 41.3363 38.5 41.7711V47C38.5 48.3807 37.3807 49.5 36 49.5H32ZM18.5 46.5V29.5H35.5V32.2289C33.4714 32.866 32 34.7612 32 37C32 39.2388 33.4714 41.134 35.5 41.7711V46.5H32C31.924 46.5 31.8493 46.5057 31.7763 46.5166C31.1443 44.4795 29.2449 43 27 43C24.7612 43 22.866 44.4714 22.2289 46.5H18.5ZM51 65C49.8954 65 49 64.1046 49 63C49 61.8954 49.8954 61 51 61C52.1046 61 53 61.8954 53 63C53 64.1046 52.1046 65 51 65ZM29 48C29 49.1046 28.1046 50 27 50C25.8954 50 25 49.1046 25 48C25 46.8954 25.8954 46 27 46C28.1046 46 29 46.8954 29 48ZM16.5 72.5V89.5H33.5V85.7711C31.4714 85.134 30 83.2388 30 81C30 78.7551 31.4795 76.8557 33.5166 76.2237C33.5057 76.1507 33.5 76.076 33.5 76V72.5H16.5ZM37 39C38.1046 39 39 38.1046 39 37C39 35.8954 38.1046 35 37 35C35.8954 35 35 35.8954 35 37C35 38.1046 35.8954 39 37 39ZM73.5 41.7711C75.5285 41.134 77 39.2388 77 37C77 34.7612 75.5285 32.866 73.5 32.2289V29H90.5V45H73.5V41.7711ZM72 35C70.8954 35 70 35.8954 70 37C70 38.1046 70.8954 39 72 39C73.1046 39 74 38.1046 74 37C74 35.8954 73.1046 35 72 35ZM62 76C63.1046 76 64 75.1046 64 74C64 72.8954 63.1046 72 62 72C60.8954 72 60 72.8954 60 74C60 75.1046 60.8954 76 62 76ZM35 83C36.1046 83 37 82.1046 37 81C37 79.8954 36.1046 79 35 79C33.8954 79 33 79.8954 33 81C33 82.1046 33.8954 83 35 83Z" fill="white"/>
<path fill-rule="evenodd" clip-rule="evenodd" d="M14 15C16.7614 15 19 12.7614 19 10C19 7.23858 16.7614 5 14 5C11.2386 5 9 7.23858 9 10C9 12.7614 11.2386 15 14 15ZM16 10C16 11.1046 15.1046 12 14 12C12.8954 12 12 11.1046 12 10C12 8.89543 12.8954 8 14 8C15.1046 8 16 8.89543 16 10Z" fill="white"/>
<path fill-rule="evenodd" clip-rule="evenodd" d="M32 10C32 12.7614 29.7614 15 27 15C24.2386 15 22 12.7614 22 10C22 7.23858 24.2386 5 27 5C29.7614 5 32 7.23858 32 10ZM27 12C28.1046 12 29 11.1046 29 10C29 8.89543 28.1046 8 27 8C25.8954 8 25 8.89543 25 10C25 11.1046 25.8954 12 27 12Z" fill="white"/>
<path fill-rule="evenodd" clip-rule="evenodd" d="M40 15C42.7614 15 45 12.7614 45 10C45 7.23858 42.7614 5 40 5C37.2386 5 35 7.23858 35 10C35 12.7614 37.2386 15 40 15ZM42 10C42 11.1046 41.1046 12 40 12C38.8954 12 38 11.1046 38 10C38 8.89543 38.8954 8 40 8C41.1046 8 42 8.89543 42 10Z" fill="white"/>
<path fill-rule="evenodd" clip-rule="evenodd" d="M8 0H99C103.418 0 107 3.58172 107 8V92C107 96.4183 103.418 100 99 100H8C3.58172 100 0 96.4183 0 92V8C0 3.58172 3.58172 0 8 0ZM8 3C5.23858 3 3 5.23858 3 8V18H11.5C12.3284 18 13 18.6716 13 19.5C13 20.3284 12.3284 21 11.5 21H3V92C3 94.7614 5.23857 97 8 97H99C101.761 97 104 94.7614 104 92V21H18C17.1716 21 16.5 20.3284 16.5 19.5C16.5 18.6716 17.1716 18 18 18H104V8C104 5.23858 101.761 3 99 3H8Z" fill="white"/>
</svg>
