<svg width="39" height="44" viewBox="0 0 39 44" fill="none" xmlns="http://www.w3.org/2000/svg">
<path d="M1.63672 38.0006V19.3589C1.63672 17.9974 2.19191 16.6948 3.17406 15.752L16.0947 3.34814C17.0259 2.45425 18.2666 1.95508 19.5574 1.95508H32.9095C35.6709 1.95508 37.9095 4.19365 37.9095 6.95507V38.0006C37.9095 40.762 35.6709 43.0006 32.9095 43.0006H6.63672C3.8753 43.0006 1.63672 40.762 1.63672 38.0006Z" stroke="white" stroke-width="2" stroke-linecap="round"/>
<path d="M2.90918 8.63672L6.40918 12.4549" stroke="white" stroke-width="2" stroke-linecap="round"/>
<path d="M8.31836 2.5918L11.8184 6.0918" stroke="white" stroke-width="2" stroke-linecap="round"/>
<path d="M1 9.27274L9.27274 1" stroke="white" stroke-width="2" stroke-linecap="round"/>
<path d="M16.6576 8.82788L13.1322 11.9822C12.4481 12.5943 12.8811 13.7275 13.799 13.7275H30.5908C31.5453 13.6214 33.1362 12.7729 33.1362 10.8638C33.1362 8.8116 31.1211 8.31836 30.2726 8.31836H17.9912C17.4992 8.31836 17.0244 8.49976 16.6576 8.82788Z" stroke="white" stroke-width="2" stroke-linecap="round"/>
<path d="M12.1367 19.1367L30.2731 37.2731" stroke="white" stroke-width="2" stroke-linecap="round"/>
<path d="M30.2734 19.1367L12.1371 37.2731" stroke="white" stroke-width="2" stroke-linecap="round"/>
</svg>
