<svg width="112" height="96" viewBox="0 0 112 96" fill="none" xmlns="http://www.w3.org/2000/svg">
<path d="M15.0095 9.5C13.9049 9.5 13.0095 10.3954 13.0095 11.5C13.0095 12.6046 13.9049 13.5 15.0095 13.5H23.0095C24.1141 13.5 25.0095 12.6046 25.0095 11.5C25.0095 10.3954 24.1141 9.5 23.0095 9.5H15.0095Z" fill="white"/>
<path d="M30.0095 11.5C30.0095 10.3954 30.9049 9.5 32.0095 9.5H40.0095C41.1141 9.5 42.0095 10.3954 42.0095 11.5C42.0095 12.6046 41.1141 13.5 40.0095 13.5H32.0095C30.9049 13.5 30.0095 12.6046 30.0095 11.5Z" fill="white"/>
<path d="M45.6928 46.8944L43.9039 43.3167L24.1151 53.2111L24.076 56.7688L43.8448 67.2023L45.7118 63.6647L29.3855 55.0481L45.6928 46.8944Z" fill="white"/>
<path d="M66.8262 46.8944L83.1335 55.0481L66.8072 63.6647L68.6742 67.2023L88.443 56.7688L88.4039 53.2111L68.6151 43.3167L66.8262 46.8944Z" fill="white"/>
<path d="M63.5095 40L52.5095 69H49.0095L60.0095 40H63.5095Z" fill="white"/>
<path fill-rule="evenodd" clip-rule="evenodd" d="M1 23.4905L1.0095 21.4952V6C1.0095 3.23858 3.24808 1 6.0095 1H106.009C108.771 1 111.009 3.23858 111.009 6V20.0143L111.019 20.0143L111.009 22.0055V90.5C111.009 93.2614 108.771 95.5 106.009 95.5H6.0095C3.24808 95.5 1.0095 93.2614 1.0095 90.5V23.4905L1 23.4905ZM6.0095 5C5.45722 5 5.0095 5.44772 5.0095 6V19.5095L107.009 19.9952V6C107.009 5.44772 106.562 5 106.009 5H6.0095ZM107.009 90.5V23.9953L5.0095 23.5095V90.5C5.0095 91.0523 5.45722 91.5 6.0095 91.5H106.009C106.562 91.5 107.009 91.0523 107.009 90.5Z" fill="white"/>
<path d="M15.0095 9.5C13.9049 9.5 13.0095 10.3954 13.0095 11.5C13.0095 12.6046 13.9049 13.5 15.0095 13.5H23.0095C24.1141 13.5 25.0095 12.6046 25.0095 11.5C25.0095 10.3954 24.1141 9.5 23.0095 9.5H15.0095Z" stroke="white" stroke-width="0.5" stroke-linecap="square"/>
<path d="M30.0095 11.5C30.0095 10.3954 30.9049 9.5 32.0095 9.5H40.0095C41.1141 9.5 42.0095 10.3954 42.0095 11.5C42.0095 12.6046 41.1141 13.5 40.0095 13.5H32.0095C30.9049 13.5 30.0095 12.6046 30.0095 11.5Z" stroke="white" stroke-width="0.5" stroke-linecap="square"/>
<path d="M45.6928 46.8944L43.9039 43.3167L24.1151 53.2111L24.076 56.7688L43.8448 67.2023L45.7118 63.6647L29.3855 55.0481L45.6928 46.8944Z" stroke="white" stroke-width="0.5" stroke-linecap="square"/>
<path d="M66.8262 46.8944L83.1335 55.0481L66.8072 63.6647L68.6742 67.2023L88.443 56.7688L88.4039 53.2111L68.6151 43.3167L66.8262 46.8944Z" stroke="white" stroke-width="0.5" stroke-linecap="square"/>
<path d="M63.5095 40L52.5095 69H49.0095L60.0095 40H63.5095Z" stroke="white" stroke-width="0.5" stroke-linecap="square"/>
<path fill-rule="evenodd" clip-rule="evenodd" d="M1 23.4905L1.0095 21.4952V6C1.0095 3.23858 3.24808 1 6.0095 1H106.009C108.771 1 111.009 3.23858 111.009 6V20.0143L111.019 20.0143L111.009 22.0055V90.5C111.009 93.2614 108.771 95.5 106.009 95.5H6.0095C3.24808 95.5 1.0095 93.2614 1.0095 90.5V23.4905L1 23.4905ZM6.0095 5C5.45722 5 5.0095 5.44772 5.0095 6V19.5095L107.009 19.9952V6C107.009 5.44772 106.562 5 106.009 5H6.0095ZM107.009 90.5V23.9953L5.0095 23.5095V90.5C5.0095 91.0523 5.45722 91.5 6.0095 91.5H106.009C106.562 91.5 107.009 91.0523 107.009 90.5Z" stroke="white" stroke-width="0.5" stroke-linecap="square"/>
</svg>
