<svg width="104" height="103" viewBox="0 0 104 103" fill="none" xmlns="http://www.w3.org/2000/svg">
<path fill-rule="evenodd" clip-rule="evenodd" d="M86.7018 1.61091C84.5539 -0.536973 81.0715 -0.536969 78.9236 1.61091L75.7868 4.74774L75.7733 4.761L75.7601 4.77442L60.0702 20.4642H13.4631V6.78834C13.4631 5.46768 12.3908 4.2632 10.9279 4.32683C5.35918 4.56907 2.29557 8.11618 0.915275 11.129C0.0530558 13.011 0 15.0569 0 16.7589V79.9597C0 86.0715 4.95454 91.026 11.0663 91.026H58.1225L49.458 99.835C49.0341 100.266 48.9103 100.909 49.1439 101.467C49.3775 102.024 49.9229 102.387 50.5273 102.387H102.245C103.073 102.387 103.745 101.715 103.745 100.887V49.4681C103.745 48.8642 103.383 48.3191 102.826 48.0852C102.269 47.8513 101.626 47.9742 101.195 48.3969L95.9726 53.5159V22.9642C95.9726 21.5835 94.8533 20.4642 93.4726 20.4642H82.9171L90.335 12.9959C92.4704 10.8459 92.4645 7.37369 90.3218 5.23096L86.7018 1.61091ZM79.9374 23.4642L49.1992 54.4115C49.0401 54.5717 48.847 54.6939 48.6342 54.769L39.105 58.1322H69.0619C69.8903 58.1322 70.5619 58.8038 70.5619 59.6322C70.5619 60.4606 69.8903 61.1322 69.0619 61.1322H26.0137C25.1852 61.1322 24.5137 60.4606 24.5137 59.6322C24.5137 58.8038 25.1852 58.1322 26.0137 58.1322H31.5138L37.1701 43.5449C37.2494 43.3404 37.3725 43.1559 37.5308 43.0042L44.7055 36.1284C45.3036 35.5552 46.2531 35.5754 46.8263 36.1735C47.3995 36.7717 47.3793 37.7212 46.7812 38.2944L40.7305 44.093L48.1146 51.2464L79.089 20.0613L71.9024 12.8747L50.6903 34.0868C50.1045 34.6726 49.1548 34.6726 48.569 34.0868C47.9832 33.501 47.9832 32.5513 48.569 31.9655L57.0702 23.4642H13.4631V53.6522H10.4631V21.9903L10.4629 21.9642L10.4631 21.9382V7.36746C6.73029 7.75336 4.65872 10.1608 3.64266 12.3785C3.08175 13.6028 3 15.044 3 16.7589V72.3836C4.89016 70.3719 7.52432 69.0675 10.4631 68.9096V58.1367C10.4631 57.3083 11.1347 56.6367 11.9631 56.6367C12.7915 56.6367 13.4631 57.3083 13.4631 58.1367V70.0559C13.4631 71.0708 12.6404 71.8935 11.6256 71.8935H11.0663C6.6114 71.8935 3 75.5049 3 79.9597C3 84.4146 6.6114 88.026 11.0663 88.026H61.0734L67.3947 81.5993C67.9756 81.0087 68.9254 81.0008 69.516 81.5818C70.1066 82.1627 70.1144 83.1124 69.5335 83.703L54.1068 99.3869H100.745V92.2201H98.0596C97.2311 92.2201 96.5596 91.5485 96.5596 90.7201C96.5596 89.8917 97.2311 89.2201 98.0596 89.2201H100.745V85.0463H98.3584C97.53 85.0463 96.8584 84.3747 96.8584 83.5463C96.8584 82.7178 97.53 82.0463 98.3584 82.0463H100.745V77.2728H98.3584C97.53 77.2728 96.8584 76.6013 96.8584 75.7728C96.8584 74.9444 97.53 74.2728 98.3584 74.2728H100.745V68.9056H98.3584C97.53 68.9056 96.8584 68.2341 96.8584 67.4056C96.8584 66.5772 97.53 65.9056 98.3584 65.9056H100.745V53.0389L73.1015 80.135C72.5098 80.7149 71.5602 80.7054 70.9802 80.1138C70.4003 79.5222 70.4098 78.5725 71.0015 77.9926L92.9765 56.4527C92.9739 56.4165 92.9726 56.3799 92.9726 56.343V23.4642H79.9374ZM81.2031 17.9328L84.0039 15.1129L76.8341 7.94306L74.0237 10.7534L81.2031 17.9328ZM78.9554 5.82174L86.1181 12.9844L88.2065 10.8818C89.1771 9.90454 89.1744 8.32625 88.2005 7.35228L84.5804 3.73223C83.6041 2.75592 82.0212 2.75592 81.0449 3.73223L78.9554 5.82174ZM39.1495 46.7383L45.3513 52.7463L35.4672 56.2348L39.1495 46.7383ZM91.4658 73.7921C92.0228 74.0259 92.3852 74.5711 92.3852 75.1752V90.7204C92.3852 91.5488 91.7136 92.2204 90.8852 92.2204H75.041C74.4317 92.2204 73.883 91.8518 73.6525 91.2878C73.422 90.7238 73.5556 90.0764 73.9905 89.6497L89.8346 74.1045C90.2659 73.6814 90.9088 73.5583 91.4658 73.7921ZM78.7117 89.2204H89.3852V78.7483L78.7117 89.2204Z" fill="white"/>
</svg>
