<svg width="115" height="116" viewBox="0 0 115 116" fill="none" xmlns="http://www.w3.org/2000/svg">
<path d="M52.4424 2.85547V114.001" stroke="white" stroke-width="4" stroke-linecap="round"/>
<path d="M23.8018 28.9305C26.7941 23.5157 36.6262 12.8572 52.0155 13.5412" stroke="white" stroke-width="4" stroke-linecap="round"/>
<path d="M19.5262 37.4805C15.2508 49.4499 17.8156 69.1141 36.1975 78.5186V82.7782C36.1975 86.0919 38.8837 88.7782 42.1974 88.7782H52.0148" stroke="white" stroke-width="4" stroke-linecap="round"/>
<path d="M40.4727 89.207V99.3063C40.4727 103.172 43.6067 106.306 47.4727 106.306H51.5872" stroke="white" stroke-width="4" stroke-linecap="round"/>
<path d="M16.9619 12.2598L22.9466 18.2445" stroke="white" stroke-width="4" stroke-linecap="round"/>
<path d="M22.5186 78.0918L16.5338 84.0765" stroke="white" stroke-width="4" stroke-linecap="round"/>
<path d="M10.4639 48.125H2.00018" stroke="white" stroke-width="4" stroke-linecap="round"/>
<path d="M52.8701 37.0542L61.8674 17.4237C62.0938 16.9297 62.6733 16.707 63.1723 16.9221L87.0686 27.2222M87.0686 27.2222L93.9083 43.8939M87.0686 27.2222L82.7375 37.4593C82.5296 37.9506 82.744 38.5185 83.2246 38.75L93.9083 43.8939M93.9083 43.8939L89.6335 53.2985" stroke="white" stroke-width="4" stroke-linecap="round"/>
<path d="M75.9541 79.3737V61.847M75.9541 61.847H104.023C104.575 61.847 105.023 62.2947 105.023 62.847V72.1065M75.9541 61.847L82.9253 54.4657C83.1142 54.2657 83.3772 54.1523 83.6523 54.1523H110.863C111.415 54.1523 111.863 54.6001 111.863 55.1523V82.4134C111.863 82.6583 111.773 82.8947 111.61 83.0777L105.023 90.4882M105.023 90.4882H88.351M105.023 90.4882V80.2287" stroke="white" stroke-width="4" stroke-linecap="round"/>
<path d="M105.022 61.8473L111.862 54.5801" stroke="white" stroke-width="4" stroke-linecap="round"/>
<path d="M53.2979 69.541L75.9543 79.3731" stroke="white" stroke-width="4" stroke-linecap="round"/>
<path d="M78.0918 22.1275C78.5299 20.6977 79.3173 19.3969 80.3842 18.3404C81.4512 17.284 82.7648 16.5044 84.2086 16.0707C85.6525 15.6371 87.182 15.5628 88.6618 15.8544C90.1416 16.146 91.5259 16.7945 92.6922 17.7425C93.8584 18.6905 94.7706 19.9087 95.3479 21.2892C95.9251 22.6696 96.1497 24.1698 96.0018 25.6568C95.8538 27.1438 95.3377 28.5717 94.4994 29.814C93.6611 31.0563 92.5263 32.0747 91.1956 32.7789L89.2063 33.6339" stroke="white" stroke-width="4"/>
<path d="M72.1064 19.5267L73.5445 16.6506C73.7115 16.3166 73.6784 15.9173 73.4588 15.6152L70.8991 12.0956C70.6096 11.6977 70.6528 11.1483 71.0007 10.8004L74.1616 7.63943C74.466 7.33507 74.931 7.25961 75.316 7.4521L79.282 9.43513C79.603 9.59561 79.9847 9.57161 80.2899 9.38282C80.7889 9.0741 81.5306 8.6382 82.3653 8.20336C82.6347 8.06301 82.8305 7.81182 82.8941 7.51478L83.9065 2.79047C84.0053 2.3294 84.4128 2 84.8843 2H89.6797C90.1512 2 90.5587 2.3294 90.6575 2.79047L91.6698 7.51478C91.7335 7.81182 91.9287 8.06382 92.2004 8.19968L94.7755 9.48724C95.0386 9.61879 95.3463 9.62783 95.6167 9.51196L100.476 7.42952C100.889 7.25241 101.37 7.37288 101.65 7.72397L104.118 10.8088C104.4 11.1606 104.411 11.6572 104.146 12.0216L101.175 16.1069" stroke="white" stroke-width="4" stroke-linecap="round"/>
<path d="M101.264 16.8295L102.136 19.9245C102.237 20.2839 102.53 20.557 102.896 20.6325L107.158 21.5126C107.64 21.6121 107.978 22.0474 107.955 22.5389L107.745 27.0042C107.725 27.4342 107.431 27.8029 107.017 27.9197L102.749 29.1226C102.404 29.22 102.138 29.4947 102.039 29.8397C101.878 30.4039 101.623 31.2255 101.298 32.1089C101.193 32.394 101.218 32.7116 101.37 32.9741L103.802 37.1494C104.039 37.5569 103.959 38.0748 103.611 38.3922L100.064 41.6199C99.7154 41.9373 99.1923 41.968 98.8089 41.6935L94.9544 38.934C94.6663 38.7278 94.2907 38.6893 93.9669 38.8329L92.198 39.6174" stroke="white" stroke-width="4" stroke-linecap="round"/>
<circle cx="76.3812" cy="96.9017" r="5.69466" stroke="white" stroke-width="4"/>
<path d="M77.6715 80.2285H73.8085C73.3197 80.2285 72.9025 80.5819 72.8221 81.0641L72.1989 84.8032C72.1415 85.1478 71.9083 85.4375 71.5839 85.5673L70.4449 86.0229C70.1461 86.1424 69.8081 86.1108 69.5366 85.9381L65.9435 83.6515C65.548 83.3999 65.0309 83.4567 64.6995 83.7881L62.8416 85.646C62.5101 85.9774 62.4534 86.4946 62.705 86.89L64.9349 90.3941C65.1383 90.7137 65.1436 91.1207 64.9487 91.4455L64.1974 92.6978C64.0609 92.9252 63.8397 93.0891 63.5824 93.1534L59.612 94.146C59.1668 94.2573 58.8545 94.6573 58.8545 95.1162V98.545C58.8545 99.0651 59.2532 99.4984 59.7714 99.5416L63.3271 99.8379C63.7258 99.8711 64.0663 100.139 64.1928 100.518L65.0975 103.232C65.2032 103.549 65.1434 103.898 64.9381 104.162L62.8538 106.842C62.5285 107.261 62.5859 107.86 62.9846 108.209L65.1043 110.064C65.4507 110.367 65.9592 110.394 66.3363 110.13L69.5261 107.897C69.8025 107.704 70.1577 107.663 70.471 107.788L71.6626 108.265C71.9433 108.377 72.1581 108.61 72.247 108.899L73.5991 113.294C73.7282 113.713 74.1159 114 74.5549 114H77.78C78.219 114 78.6067 113.713 78.7358 113.294L80.0772 108.934C80.1722 108.625 80.4104 108.382 80.7167 108.28L82.2857 107.757C82.6029 107.651 82.952 107.711 83.2159 107.916L85.9439 110.038C86.342 110.347 86.9084 110.312 87.265 109.955L89.1596 108.061C89.4461 107.774 89.5314 107.343 89.3755 106.969L87.6397 102.803C87.5469 102.58 87.5378 102.331 87.6141 102.102L88.1439 100.513C88.2695 100.136 88.6063 99.8694 89.002 99.8334L92.1435 99.5478C92.6586 99.501 93.053 99.0691 93.053 98.5519V95.1309C93.053 94.6652 92.7316 94.2612 92.2778 94.1565L88.0052 93.1705C87.686 93.0969 87.4232 92.8716 87.3015 92.5675L86.8311 91.3914C86.7116 91.0926 86.7432 90.7546 86.9159 90.4831L89.2025 86.89C89.4541 86.4946 89.3973 85.9774 89.0659 85.646L87.1669 83.747C86.8546 83.4347 86.3745 83.3643 85.9857 83.5736L81.5405 85.9672C81.254 86.1214 80.9103 86.1266 80.6192 85.9811L79.829 85.586C79.5429 85.4429 79.3425 85.1716 79.2899 84.856L78.6579 81.0641C78.5775 80.5819 78.1603 80.2285 77.6715 80.2285Z" stroke="white" stroke-width="4" stroke-linecap="round"/>
</svg>
