<svg width="118" height="117" viewBox="0 0 118 117" fill="none" xmlns="http://www.w3.org/2000/svg">
<path fill-rule="evenodd" clip-rule="evenodd" d="M67.5619 5.73609C67.5619 8.90404 64.9938 11.4722 61.8258 11.4722C60.7865 11.4722 59.8118 11.1958 58.9711 10.7124L46.7272 22.9563C59.5089 17.3525 81.2224 13.4865 102.149 27.0481L104.482 24.7934C106.071 23.2583 108.603 23.3017 110.138 24.8903L116.325 31.2922C117.86 32.8808 117.816 35.4131 116.228 36.9482L109.826 43.1344C108.237 44.6695 105.705 44.6261 104.17 43.0375L97.9835 36.6356C96.4484 35.0469 96.4918 32.5146 98.0805 30.9795L99.9314 29.191C76.3769 14.3268 51.8482 22.5186 41.9078 28.8752C42.5656 30.1386 42.9374 31.5747 42.9374 33.0976C42.9374 38.1544 38.838 42.2538 33.7812 42.2538C32.1148 42.2538 30.5524 41.8086 29.2063 41.0307C21.9638 51.219 12.8183 75.6169 29.1957 99.3277L31.2929 97.3012C32.8815 95.7661 35.4138 95.8095 36.9489 97.3981L43.1351 103.8C44.6702 105.389 44.6268 107.921 43.0382 109.456L36.6363 115.642C35.0476 117.177 32.5153 117.134 30.9802 115.545L24.7941 109.143C23.259 107.555 23.3024 105.022 24.891 103.487L27.0105 101.439C12.6873 81.0598 16.2986 60.1594 22.2882 47.1397L10.4637 58.5765C11.0998 59.5002 11.4722 60.6195 11.4722 61.8258C11.4722 64.9938 8.90404 67.5619 5.73609 67.5619C2.56813 67.5619 0 64.9938 0 61.8258C0 58.6579 2.56813 56.0898 5.73609 56.0898C6.60381 56.0898 7.42654 56.2824 8.16381 56.6273L26.6077 38.7882C25.3664 37.2256 24.625 35.2482 24.625 33.0976C24.625 28.0408 28.7244 23.9414 33.7812 23.9414C35.9433 23.9414 37.9304 24.6908 39.4968 25.944L56.8497 8.5912C56.3662 7.75043 56.0898 6.77554 56.0898 5.73609C56.0898 2.56813 58.6579 0 61.8258 0C64.9938 0 67.5619 2.56813 67.5619 5.73609ZM102.835 30.5573L100.165 33.1369C99.768 33.5207 99.7571 34.1538 100.141 34.5509L106.327 40.9528C106.711 41.35 107.344 41.3608 107.741 40.977L114.143 34.7909C114.54 34.4071 114.551 33.774 114.167 33.3769L107.981 26.975C107.597 26.5778 106.964 26.567 106.567 26.9507L103.968 29.4619C103.926 29.627 103.855 29.7878 103.754 29.9367C103.529 30.2664 103.196 30.4783 102.835 30.5573ZM60.5569 8.16077C60.4989 7.88638 60.3633 7.6251 60.1502 7.412C59.9371 7.19885 59.6757 7.06327 59.4013 7.00523C59.2023 6.62591 59.0898 6.19414 59.0898 5.73609C59.0898 4.22499 60.3147 3 61.8258 3C63.3369 3 64.5619 4.22499 64.5619 5.73609C64.5619 7.24718 63.3369 8.47217 61.8258 8.47217C61.3679 8.47217 60.9362 8.35966 60.5569 8.16077ZM37.7554 28.3959C36.683 27.4885 35.296 26.9414 33.7812 26.9414C30.3812 26.9414 27.625 29.6976 27.625 33.0976C27.625 34.6119 28.1718 35.9986 29.0787 37.0708C29.4416 37.0916 29.798 37.2436 30.0707 37.5255C30.2815 37.7434 30.413 38.0087 30.4658 38.2857C31.4228 38.8985 32.5605 39.2538 33.7812 39.2538C37.1812 39.2538 39.9374 36.4976 39.9374 33.0976C39.9374 31.877 39.5821 30.7393 38.9694 29.7824C38.6847 29.7279 38.4127 29.5904 38.1923 29.3699C37.9214 29.0991 37.7758 28.7504 37.7554 28.3959ZM5.73609 59.0898C6.08485 59.0898 6.41836 59.155 6.7251 59.274C6.79517 59.461 6.90396 59.6371 7.05169 59.7898C7.30448 60.0512 7.62925 60.2009 7.96447 60.2379C8.28411 60.6856 8.47217 61.2338 8.47217 61.8258C8.47217 63.3369 7.24718 64.5619 5.73609 64.5619C4.22499 64.5619 3 63.3369 3 61.8258C3 60.3147 4.22499 59.0898 5.73609 59.0898ZM88.0825 76.1907C88.0825 82.3808 83.0644 87.3989 76.8743 87.3989C70.6841 87.3989 65.666 82.3808 65.666 76.1907C65.666 73.7238 66.463 71.4431 67.8134 69.5919L44.8966 46.6751L43.3989 48.1728L60.9356 93.5034L80.2864 101.117L101.459 80.5862L94.1731 61.2637L48.5079 43.0638L47.0179 44.5538L69.8889 67.4249C71.8047 65.8962 74.2328 64.9824 76.8743 64.9824C83.0644 64.9824 88.0825 70.0005 88.0825 76.1907ZM71.5061 69.981C72.9453 68.7357 74.8218 67.9824 76.8743 67.9824C81.4076 67.9824 85.0825 71.6574 85.0825 76.1907C85.0825 80.724 81.4076 84.3989 76.8743 84.3989C72.341 84.3989 68.666 80.724 68.666 76.1907C68.666 74.289 69.3127 72.5385 70.3981 71.1468C70.6534 71.0832 70.8952 70.9516 71.0948 70.7521C71.3137 70.5332 71.4508 70.2635 71.5061 69.981ZM47.085 40.244C47.5088 39.8202 48.1442 39.6894 48.701 39.9113L95.8985 58.7219C96.2901 58.8779 96.598 59.1916 96.7467 59.5861L104.399 79.8808L116.162 85.4357C116.605 85.6449 116.918 86.057 117 86.5397C117.083 87.0224 116.924 87.515 116.576 87.8592L88.1891 115.904C87.8536 116.236 87.3817 116.39 86.9151 116.321C86.4485 116.252 86.0416 115.967 85.8166 115.553L79.5791 104.062L59.2248 96.0542C58.8346 95.9007 58.5264 95.5907 58.3751 95.1996L40.2485 48.3441C40.0342 47.7902 40.1669 47.1621 40.5868 46.7422L47.085 40.244ZM82.4979 103.151L87.5008 112.367L112.942 87.2326L103.508 82.7778L82.4979 103.151ZM34.7916 99.4828C34.4078 99.0856 33.7747 99.0748 33.3776 99.4586L26.9757 105.645C26.5785 106.028 26.5677 106.662 26.9514 107.059L33.1376 113.461C33.5214 113.858 34.1544 113.869 34.5516 113.485L40.9535 107.299C41.3507 106.915 41.3615 106.282 40.9777 105.885L34.7916 99.4828Z" fill="white"/>
</svg>
