<svg width="103" height="46" viewBox="0 0 103 46" fill="none" xmlns="http://www.w3.org/2000/svg">
<path d="M62.625 9.58789H66.9258V11H60.4277V9.96875L64.6465 3.89258H60.4336V2.46875H66.832V3.47656L62.625 9.58789ZM71.6016 11C71.5234 10.8477 71.4668 10.6582 71.4316 10.4316C71.0215 10.8887 70.4883 11.1172 69.832 11.1172C69.2109 11.1172 68.6953 10.9375 68.2852 10.5781C67.8789 10.2188 67.6758 9.76562 67.6758 9.21875C67.6758 8.54688 67.9238 8.03125 68.4199 7.67188C68.9199 7.3125 69.6406 7.13086 70.582 7.12695H71.3613V6.76367C71.3613 6.4707 71.2852 6.23633 71.1328 6.06055C70.9844 5.88477 70.748 5.79688 70.4238 5.79688C70.1387 5.79688 69.9141 5.86523 69.75 6.00195C69.5898 6.13867 69.5098 6.32617 69.5098 6.56445H67.8164C67.8164 6.19727 67.9297 5.85742 68.1562 5.54492C68.3828 5.23242 68.7031 4.98828 69.1172 4.8125C69.5312 4.63281 69.9961 4.54297 70.5117 4.54297C71.293 4.54297 71.9121 4.74023 72.3691 5.13477C72.8301 5.52539 73.0605 6.07617 73.0605 6.78711V9.53516C73.0645 10.1367 73.1484 10.5918 73.3125 10.9004V11H71.6016ZM70.2012 9.82227C70.4512 9.82227 70.6816 9.76758 70.8926 9.6582C71.1035 9.54492 71.2598 9.39453 71.3613 9.20703V8.11719H70.7285C69.8809 8.11719 69.4297 8.41016 69.375 8.99609L69.3691 9.0957C69.3691 9.30664 69.4434 9.48047 69.5918 9.61719C69.7402 9.75391 69.9434 9.82227 70.2012 9.82227ZM76.6641 8.45703L76.0547 9.06641V11H74.3613V2H76.0547V6.98633L76.3828 6.56445L78.0059 4.66016H80.0391L77.748 7.30273L80.2383 11H78.293L76.6641 8.45703ZM80.5078 7.77148C80.5078 7.14258 80.6289 6.58203 80.8711 6.08984C81.1133 5.59766 81.4609 5.2168 81.9141 4.94727C82.3711 4.67773 82.9004 4.54297 83.502 4.54297C84.3574 4.54297 85.0547 4.80469 85.5938 5.32812C86.1367 5.85156 86.4395 6.5625 86.502 7.46094L86.5137 7.89453C86.5137 8.86719 86.2422 9.64844 85.6992 10.2383C85.1562 10.8242 84.4277 11.1172 83.5137 11.1172C82.5996 11.1172 81.8691 10.8242 81.3223 10.2383C80.7793 9.65234 80.5078 8.85547 80.5078 7.84766V7.77148ZM82.2012 7.89453C82.2012 8.49609 82.3145 8.95703 82.541 9.27734C82.7676 9.59375 83.0918 9.75195 83.5137 9.75195C83.9238 9.75195 84.2441 9.5957 84.4746 9.2832C84.7051 8.9668 84.8203 8.46289 84.8203 7.77148C84.8203 7.18164 84.7051 6.72461 84.4746 6.40039C84.2441 6.07617 83.9199 5.91406 83.502 5.91406C83.0879 5.91406 82.7676 6.07617 82.541 6.40039C82.3145 6.7207 82.2012 7.21875 82.2012 7.89453ZM87.293 7.7832C87.293 6.79492 87.5137 6.00781 87.9551 5.42188C88.4004 4.83594 89.0078 4.54297 89.7773 4.54297C90.3945 4.54297 90.9043 4.77344 91.3066 5.23438V2H93.0059V11H91.4766L91.3945 10.3262C90.9727 10.8535 90.4297 11.1172 89.7656 11.1172C89.0195 11.1172 88.4199 10.8242 87.9668 10.2383C87.5176 9.64844 87.293 8.83008 87.293 7.7832ZM88.9863 7.90625C88.9863 8.5 89.0898 8.95508 89.2969 9.27148C89.5039 9.58789 89.8047 9.74609 90.1992 9.74609C90.7227 9.74609 91.0918 9.52539 91.3066 9.08398V6.58203C91.0957 6.14062 90.7305 5.91992 90.2109 5.91992C89.3945 5.91992 88.9863 6.58203 88.9863 7.90625ZM96.1055 11H94.4062V4.66016H96.1055V11ZM94.3066 3.01953C94.3066 2.76563 94.3906 2.55664 94.5586 2.39258C94.7305 2.22852 94.9629 2.14648 95.2559 2.14648C95.5449 2.14648 95.7754 2.22852 95.9473 2.39258C96.1191 2.55664 96.2051 2.76563 96.2051 3.01953C96.2051 3.27734 96.1172 3.48828 95.9414 3.65234C95.7695 3.81641 95.541 3.89844 95.2559 3.89844C94.9707 3.89844 94.7402 3.81641 94.5645 3.65234C94.3926 3.48828 94.3066 3.27734 94.3066 3.01953ZM99.9199 6.55273L100.986 4.66016H102.797L100.992 7.76562L102.873 11H101.057L99.9258 9.00781L98.8008 11H96.9785L98.8594 7.76562L97.0605 4.66016H98.877L99.9199 6.55273Z" fill="white"/>
<path d="M67.1836 19.8926H64.5703V27H62.8125V19.8926H60.2344V18.4688H67.1836V19.8926ZM70.4707 27.1172C69.541 27.1172 68.7832 26.832 68.1973 26.2617C67.6152 25.6914 67.3242 24.9316 67.3242 23.9824V23.8184C67.3242 23.1816 67.4473 22.6133 67.6934 22.1133C67.9395 21.6094 68.2871 21.2227 68.7363 20.9531C69.1895 20.6797 69.7051 20.543 70.2832 20.543C71.1504 20.543 71.832 20.8164 72.3281 21.3633C72.8281 21.9102 73.0781 22.6855 73.0781 23.6895V24.3809H69.041C69.0957 24.7949 69.2598 25.127 69.5332 25.377C69.8105 25.627 70.1602 25.752 70.582 25.752C71.2344 25.752 71.7441 25.5156 72.1113 25.043L72.9434 25.9746C72.6895 26.334 72.3457 26.6152 71.9121 26.8184C71.4785 27.0176 70.998 27.1172 70.4707 27.1172ZM70.2773 21.9141C69.9414 21.9141 69.668 22.0273 69.457 22.2539C69.25 22.4805 69.1172 22.8047 69.0586 23.2266H71.4141V23.0918C71.4062 22.7168 71.3047 22.4277 71.1094 22.2246C70.9141 22.0176 70.6367 21.9141 70.2773 21.9141ZM76.6816 25.752C76.9941 25.752 77.248 25.666 77.4434 25.4941C77.6387 25.3223 77.7402 25.0938 77.748 24.8086H79.3359C79.332 25.2383 79.2148 25.6328 78.9844 25.9922C78.7539 26.3477 78.4375 26.625 78.0352 26.8242C77.6367 27.0195 77.1953 27.1172 76.7109 27.1172C75.8047 27.1172 75.0898 26.8301 74.5664 26.2559C74.043 25.6777 73.7812 24.8809 73.7812 23.8652V23.7539C73.7812 22.7773 74.041 21.998 74.5605 21.416C75.0801 20.834 75.793 20.543 76.6992 20.543C77.4922 20.543 78.127 20.7695 78.6035 21.2227C79.084 21.6719 79.3281 22.2715 79.3359 23.0215H77.748C77.7402 22.6934 77.6387 22.4277 77.4434 22.2246C77.248 22.0176 76.9902 21.9141 76.6699 21.9141C76.2754 21.9141 75.9766 22.0586 75.7734 22.3477C75.5742 22.6328 75.4746 23.0977 75.4746 23.7422V23.918C75.4746 24.5703 75.5742 25.0391 75.7734 25.3242C75.9727 25.6094 76.2754 25.752 76.6816 25.752ZM81.9551 21.3516C82.4043 20.8125 82.9688 20.543 83.6484 20.543C85.0234 20.543 85.7207 21.3418 85.7402 22.9395V27H84.0469V22.9863C84.0469 22.623 83.9688 22.3555 83.8125 22.1836C83.6562 22.0078 83.3965 21.9199 83.0332 21.9199C82.5371 21.9199 82.1777 22.1113 81.9551 22.4941V27H80.2617V18H81.9551V21.3516Z" fill="white"/>
<path d="M67.5117 41.9219C67.1953 42.3008 66.748 42.5957 66.1699 42.8066C65.5918 43.0137 64.9512 43.1172 64.248 43.1172C63.5098 43.1172 62.8613 42.957 62.3027 42.6367C61.748 42.3125 61.3184 41.8438 61.0137 41.2305C60.7129 40.6172 60.5586 39.8965 60.5508 39.0684V38.4883C60.5508 37.6367 60.6934 36.9004 60.9785 36.2793C61.2676 35.6543 61.6816 35.1777 62.2207 34.8496C62.7637 34.5176 63.3984 34.3516 64.125 34.3516C65.1367 34.3516 65.9277 34.5938 66.498 35.0781C67.0684 35.5586 67.4062 36.2598 67.5117 37.1816H65.8008C65.7227 36.6934 65.5488 36.3359 65.2793 36.1094C65.0137 35.8828 64.6465 35.7695 64.1777 35.7695C63.5801 35.7695 63.125 35.9941 62.8125 36.4434C62.5 36.8926 62.3418 37.5605 62.3379 38.4473V38.9922C62.3379 39.8867 62.5078 40.5625 62.8477 41.0195C63.1875 41.4766 63.6855 41.7051 64.3418 41.7051C65.002 41.7051 65.4727 41.5645 65.7539 41.2832V39.8125H64.1543V38.5176H67.5117V41.9219ZM72.3926 38.248C72.1621 38.2168 71.959 38.2012 71.7832 38.2012C71.1426 38.2012 70.7227 38.418 70.5234 38.8516V43H68.8301V36.6602H70.4297L70.4766 37.416C70.8164 36.834 71.2871 36.543 71.8887 36.543C72.0762 36.543 72.252 36.5684 72.416 36.6191L72.3926 38.248ZM72.7383 39.7715C72.7383 39.1426 72.8594 38.582 73.1016 38.0898C73.3438 37.5977 73.6914 37.2168 74.1445 36.9473C74.6016 36.6777 75.1309 36.543 75.7324 36.543C76.5879 36.543 77.2852 36.8047 77.8242 37.3281C78.3672 37.8516 78.6699 38.5625 78.7324 39.4609L78.7441 39.8945C78.7441 40.8672 78.4727 41.6484 77.9297 42.2383C77.3867 42.8242 76.6582 43.1172 75.7441 43.1172C74.8301 43.1172 74.0996 42.8242 73.5527 42.2383C73.0098 41.6523 72.7383 40.8555 72.7383 39.8477V39.7715ZM74.4316 39.8945C74.4316 40.4961 74.5449 40.957 74.7715 41.2773C74.998 41.5938 75.3223 41.752 75.7441 41.752C76.1543 41.752 76.4746 41.5957 76.7051 41.2832C76.9355 40.9668 77.0508 40.4629 77.0508 39.7715C77.0508 39.1816 76.9355 38.7246 76.7051 38.4004C76.4746 38.0762 76.1504 37.9141 75.7324 37.9141C75.3184 37.9141 74.998 38.0762 74.7715 38.4004C74.5449 38.7207 74.4316 39.2188 74.4316 39.8945ZM83.584 42.3555C83.166 42.8633 82.5879 43.1172 81.8496 43.1172C81.1699 43.1172 80.6504 42.9219 80.291 42.5312C79.9355 42.1406 79.7539 41.5684 79.7461 40.8145V36.6602H81.4395V40.7559C81.4395 41.416 81.7402 41.7461 82.3418 41.7461C82.916 41.7461 83.3105 41.5469 83.5254 41.1484V36.6602H85.2246V43H83.6309L83.584 42.3555ZM92.209 39.8887C92.209 40.8652 91.9863 41.6484 91.541 42.2383C91.0996 42.8242 90.502 43.1172 89.748 43.1172C89.1074 43.1172 88.5898 42.8945 88.1953 42.4492V45.4375H86.502V36.6602H88.0723L88.1309 37.2812C88.541 36.7891 89.0762 36.543 89.7363 36.543C90.5176 36.543 91.125 36.832 91.5586 37.4102C91.9922 37.9883 92.209 38.7852 92.209 39.8008V39.8887ZM90.5156 39.7656C90.5156 39.1758 90.4102 38.7207 90.1992 38.4004C89.9922 38.0801 89.6895 37.9199 89.291 37.9199C88.7598 37.9199 88.3945 38.123 88.1953 38.5293V41.125C88.4023 41.543 88.7715 41.752 89.3027 41.752C90.1113 41.752 90.5156 41.0898 90.5156 39.7656Z" fill="white"/>
<rect x="14.5" y="1.5" width="27" height="43" stroke="white"/>
<path d="M41 2L14.5 44.5L1 23L14.5 1.5" stroke="white" stroke-linejoin="bevel"/>
<path d="M14.5 1.5L14.7344 1.05837L14.0766 1.76588L14.5 1.5ZM41.5 44.5L41.2656 44.9416L41.9234 44.7659L41.5 44.5ZM55 23L55.4234 23.2659L55.5904 23L55.4234 22.7341L55 23ZM41.5 1.5L41.9234 1.23412L41.2656 1.05837L41.5 1.5ZM1 23L0.765555 22.5584V23.4416L1 23ZM14.0766 1.76588L41.0766 44.7659L41.9234 44.2341L14.9234 1.23412L14.0766 1.76588ZM41.9234 44.7659L55.4234 23.2659L54.5766 22.7341L41.0766 44.2341L41.9234 44.7659ZM55.4234 22.7341L41.9234 1.23412L41.0766 1.76588L54.5766 23.2659L55.4234 22.7341ZM1 23.5H55V22.5H1V23.5ZM41.7344 44.0584L1.23444 22.5584L0.765555 23.4416L41.2656 44.9416L41.7344 44.0584ZM1.23444 23.4416L41.7344 1.94163L41.2656 1.05837L0.765555 22.5584L1.23444 23.4416ZM55.2344 22.5584L14.7344 1.05837L14.2656 1.94163L54.7656 23.4416L55.2344 22.5584ZM14.7344 44.9416L55.2344 23.4416L54.7656 22.5584L14.2656 44.0584L14.7344 44.9416Z" fill="white"/>
</svg>
