<svg width="21" height="16" viewBox="0 0 21 16" fill="none" xmlns="http://www.w3.org/2000/svg">
<path d="M18.6422 0H1.79599C1.51946 0 1.26058 0.0679839 1.02637 0.180039L10.1792 9.33287L12.2306 7.36134C12.2306 7.36134 12.2308 7.36114 12.2308 7.36106C12.2309 7.36098 12.231 7.3609 12.231 7.3609L19.4121 0.180199C19.1779 0.0680637 18.9188 0 18.6422 0Z" fill="black"/>
<path d="M20.2597 1.02539L13.502 7.78282L20.2595 14.5404C20.3716 14.3062 20.4395 14.0473 20.4395 13.7707V1.79473C20.4395 1.51836 20.3717 1.25952 20.2597 1.02539Z" fill="black"/>
<path d="M0.180039 1.02539C0.0679838 1.2596 0 1.51848 0 1.79501V13.771C0 14.0474 0.067904 14.3063 0.17988 14.5404L6.93766 7.78302L0.180039 1.02539Z" fill="black"/>
<path d="M12.6546 8.63289L10.6029 10.6047C10.4859 10.7216 10.3327 10.7801 10.1795 10.7801C10.0263 10.7801 9.87309 10.7216 9.75616 10.6047L7.78427 8.63281L1.02637 15.3903C1.26062 15.5024 1.51966 15.5705 1.79627 15.5705H18.6425C18.919 15.5705 19.1779 15.5025 19.4121 15.3904L12.6546 8.63289Z" fill="black"/>
</svg>
