<svg width="50" height="56" viewBox="0 0 50 56" fill="none" xmlns="http://www.w3.org/2000/svg">
<path d="M41.25 17.7425C41.25 22.3163 38.6704 27.5345 35.1288 32.6253C31.8588 37.3258 27.8807 41.7648 24.6892 45.2925C21.6563 42.1739 17.7088 37.7561 14.4293 32.9853C10.8469 27.7738 8.1875 22.3182 8.1875 17.7425C8.1875 8.48454 15.6001 1 24.7188 1C33.8375 1 41.25 8.48454 41.25 17.7425Z" stroke="white" stroke-width="2"/>
<circle cx="24.7188" cy="18.2188" r="6.15625" stroke="white" stroke-width="2"/>
<path d="M37.9046 34.8555C42.1233 36.164 45.3258 38.0656 47.0414 40.2808C48.7569 42.496 48.8951 44.908 47.4357 47.1623C45.9762 49.4166 42.996 51.3944 38.9331 52.805C34.8701 54.2155 29.9387 54.9845 24.8635 54.9989C19.7883 55.0132 14.837 54.2722 10.7373 52.8848C6.63751 51.4973 3.60549 49.5365 2.0868 47.2906C0.568103 45.0447 0.642827 42.6321 2.29999 40.4074C3.95715 38.1826 7.10935 36.2631 11.2933 34.9308" stroke="white" stroke-width="2" stroke-linecap="round"/>
</svg>
