<svg width="109" height="108" viewBox="0 0 109 108" fill="none" xmlns="http://www.w3.org/2000/svg">
<path fill-rule="evenodd" clip-rule="evenodd" d="M28.9814 6.5C28.9814 4.56701 30.5485 3 32.4814 3H78.9452C79.7737 3 80.4452 2.32843 80.4452 1.5C80.4452 0.671573 79.7737 0 78.9452 0H32.4814C28.8916 0 25.9814 2.91015 25.9814 6.5V26.7945C18.3347 30.1425 12.9922 37.7766 12.9922 46.6584C12.9922 58.6287 22.696 68.3325 34.6662 68.3325C46.6365 68.3325 56.3403 58.6287 56.3403 46.6584C56.3403 34.6882 46.6365 24.9844 34.6662 24.9844C32.6991 24.9844 30.7932 25.2464 28.9814 25.7376V12.9922H56.4624C57.2908 12.9922 57.9624 12.3206 57.9624 11.4922C57.9624 10.6638 57.2908 9.99219 56.4624 9.99219H28.9814V6.5ZM45.8154 61.6404C42.7039 63.9597 38.8454 65.3325 34.6662 65.3325C30.4867 65.3325 26.6278 63.9594 23.5162 61.6397C23.5293 60.6632 23.7875 59.6825 24.2964 58.7464C24.8205 57.7824 25.605 56.877 26.6298 56.0962C27.655 55.3151 28.8917 54.6811 30.2762 54.2442C31.6603 53.8074 33.1527 53.5801 34.6658 53.5801C36.1789 53.5801 37.6713 53.8074 39.0554 54.2442C40.4399 54.6811 41.6766 55.3151 42.7017 56.0962C43.7266 56.877 44.5111 57.7824 45.0352 58.7464C45.5442 59.6827 45.8024 60.6637 45.8154 61.6404ZM48.4646 59.2414C48.2743 58.5797 48.0084 57.9343 47.6709 57.3135C46.9235 55.9387 45.8444 54.719 44.5199 53.7099C43.1957 52.701 41.6433 51.9151 39.9582 51.3833C39.7297 51.3112 39.4991 51.2438 39.2667 51.1813C41.447 49.6593 42.8733 47.1318 42.8733 44.2711C42.8733 39.62 39.1028 35.8496 34.4518 35.8496C29.8007 35.8496 26.0303 39.62 26.0303 44.2711C26.0303 47.1856 27.5108 49.7543 29.7608 51.2662C29.631 51.3037 29.5019 51.3427 29.3733 51.3833C27.6883 51.9151 26.1359 52.701 24.8117 53.7099C23.4872 54.719 22.4081 55.9387 21.6607 57.3135C21.3233 57.9341 21.0575 58.5792 20.8673 59.2407C17.839 55.9214 15.9922 51.5056 15.9922 46.6584C15.9922 36.345 24.3528 27.9844 34.6662 27.9844C44.9796 27.9844 53.3403 36.345 53.3403 46.6584C53.3403 51.506 51.4933 55.9221 48.4646 59.2414ZM34.4518 49.6926C37.446 49.6926 39.8733 47.2653 39.8733 44.2711C39.8733 41.2769 37.446 38.8496 34.4518 38.8496C31.4576 38.8496 29.0303 41.2769 29.0303 44.2711C29.0303 47.2653 31.4576 49.6926 34.4518 49.6926ZM81.9445 82.9414C82.773 82.9414 83.4445 83.613 83.4445 84.4414V100.926C83.4445 104.516 80.5344 107.426 76.9445 107.426H35.8632C33.6747 107.426 31.541 106.742 29.7602 105.47L28.6096 104.649C27.9355 104.167 27.7793 103.23 28.2608 102.556C28.7424 101.882 29.6792 101.726 30.3533 102.207L31.5039 103.029C32.7759 103.938 34.3 104.426 35.8632 104.426H76.9445C78.8775 104.426 80.4445 102.859 80.4445 100.926V92.9355H48.4678C47.6393 92.9355 46.9678 92.264 46.9678 91.4355C46.9678 90.6071 47.6393 89.9355 48.4678 89.9355H80.4445V84.4414C80.4445 83.613 81.1161 82.9414 81.9445 82.9414ZM83.4443 36.4746C83.4443 35.6462 82.7728 34.9746 81.9443 34.9746C81.1159 34.9746 80.4443 35.6462 80.4443 36.4746V52.3838L69.3142 61.5391C68.0557 61.754 66.3166 62.1935 64.6808 62.9058C62.9267 63.6697 60.9166 64.9076 60.0788 66.8609C58.8273 69.7793 58.4585 72.0179 58.4585 72.9483V72.961V72.9738V72.9866V72.9995V73.0124V73.0254V73.0385V73.0515V73.0647V73.0779V73.0912V73.1045V73.1179V73.1313V73.1448V73.1583V73.1719V73.1855V73.1992V73.2129V73.2267V73.2406V73.2545V73.2684V73.2824V73.2964V73.3105V73.3246V73.3388V73.3531V73.3674V73.3817V73.3961V73.4105V73.425V73.4395V73.4541V73.4687V73.4833V73.4981V73.5128V73.5276V73.5425V73.5573V73.5723V73.5873V73.6023V73.6174V73.6325V73.6476V73.6628V73.6781V73.6933V73.7087V73.7241V73.7395V73.7549V73.7704V73.7859V73.8015V73.8171V73.8328V73.8485V73.8642V73.88V73.8958V73.9117V73.9276V73.9435V73.9595V73.9755V73.9915V74.0076V74.0237V74.0399V74.0561V74.0723V74.0886V74.1049V74.1212V74.1376V74.154V74.1705V74.1869V74.2035V74.22V74.2366V74.2532V74.2698V74.2865V74.3032V74.32V74.3368V74.3536V74.3704V74.3873V74.4042V74.4211V74.4381V74.4551V74.4721V74.4892V74.5062V74.5234V74.5405V74.5577V74.5749V74.5921V74.6094V74.6266V74.6439V74.6613V74.6787V74.696V74.7135V74.7309V74.7484V74.7659V74.7834V74.8009V74.8185V74.8361V74.8537V74.8714V74.889V74.9067V74.9244V74.9422V74.9599V74.9777V74.9955V75.0134V75.0312V75.0491V75.067V75.0849V75.1028V75.1208V75.1387V75.1567V75.1747V75.1928V75.2108V75.2289V75.247V75.2651V75.2832V75.3013V75.3195V75.3377V75.3559V75.3741V75.3923V75.4105V75.4288V75.4471V75.4654V75.4837V75.502V75.5203V75.5387V75.557V75.5754V75.5938V75.6122V75.6306V75.649V75.6675V75.6859V75.7044V75.7229V75.7413V75.7598V75.7783V75.7969V75.8154V75.8339V75.8525V75.871V75.8896V75.9082V75.9268V75.9454V75.964V75.9826V76.0012V76.0198V76.0385V76.0571V76.0757V76.0944V76.113V76.1317V76.1504V76.1691V76.1877V76.2064V76.2251V76.2438V76.2625V76.2812V76.2999V76.3186V76.3373V76.356V76.3747V76.3935V76.4122V76.4309V76.4496V76.4683V76.4871V76.5058V76.5245V76.5432V76.562V76.5807V76.5994V76.6181V76.6369V76.6556V76.6743V76.693V76.7117V76.7304V76.7491V76.7678V76.7865V76.8052V76.8239V76.8426V76.8613V76.88V76.8987V76.9173V76.936V76.9546V76.9733V76.9919V77.0106V77.0292V77.0478V77.0665V77.0851V77.1037V77.1223V77.1409V77.1594V77.178V77.1966V77.2151V77.2336V77.2522V77.2707V77.2892V77.3077V77.3262V77.3447V77.3631V77.3816V77.4V77.4185V77.4369V77.4553V77.4737V77.492V77.5104V77.5288V77.5471V77.5654V77.5837V77.602V77.6203V77.6385V77.6568V77.675V77.6932V77.7114V77.7296V77.7477V77.7659V77.784V77.8021V77.8202V77.8383V77.8563V77.8744V77.8924V77.9104V77.9284V77.9463V77.9642V77.9822V78V78.0179V78.0358V78.0536V78.0714V78.0892V78.1069V78.1247V78.1424V78.1601V78.1778V78.1954V78.213V78.2306V78.2482V78.2658V78.2833V78.3008V78.3183V78.3357V78.3531V78.3705V78.3879V78.4052V78.4225V78.4398V78.4571V78.4743V78.4915V78.5087V78.5258V78.543V78.5601V78.5771V78.5941V78.6111V78.6281V78.645V78.662V78.6788V78.6957V78.7125V78.7293V78.746V78.7627V78.7794V78.7961V78.8127V78.8293V78.8458V78.8623V78.8788V78.8953V78.9117V78.9281V78.9444V78.9607V78.977V78.9932V79.0094V79.0256V79.0417V79.0578V79.0738V79.0899V79.1058V79.1218V79.1377V79.1535V79.1693V79.1851V79.2009V79.2166V79.2322V79.2479V79.2634V79.279V79.2945V79.3099V79.3254V79.3407V79.3561V79.3714V79.3866V79.4018V79.417V79.4321V79.4471V79.4622V79.4772V79.4921V79.507V79.5219V79.5367V79.5514V79.5661V79.5808V79.5954V79.61V79.6245V79.639V79.6534V79.6678V79.6822V79.6965V79.7107V79.7249V79.739V79.7531V79.7672V79.7812V79.7951V79.809V79.8229V79.8367V79.8504V79.8641V79.8777V79.8913V79.9048V79.9183V79.9318V79.9451V79.9585V79.9717V79.9849V79.9981V80.0112V80.0243V80.0373V80.0502V80.0631V80.0759V80.0887V80.1014V80.1141V80.1267V80.1393V80.1517V80.1642V80.1766V80.1889V80.2011V80.2133V80.2255V80.2376V80.2496V80.2616V80.2735V80.2853V80.2971V80.3088V80.3205V80.3321V80.3437V80.3551V80.3666V80.3779V80.3892V80.4004V80.4116V80.4227V80.4338V80.4447V80.4557V80.4665V80.4773V80.488V80.4987V80.5093V80.5198V80.5302V80.5406V80.551V80.5612V80.5714V80.5815V80.5916V80.6016V80.6115V80.6214V80.6311V80.6409V80.6505V80.6601V80.6696V80.679V80.6884V80.6977V80.7069V80.7161V80.7252V80.7342V80.7431V80.752V80.7608V80.7695V80.7782V80.7868V80.7953V80.8037V80.8121V80.8204V80.8286V80.8367V80.8448V80.8528V80.8607V80.8623C58.4443 80.8916 58.4142 80.947 58.3547 81.0304C58.2097 81.2337 57.9739 81.4854 57.656 81.7652C57.0228 82.3223 56.2374 82.8402 55.7168 83.1377C55.1262 83.4752 54.8366 84.1677 55.0112 84.8251C55.1858 85.4825 55.7808 85.9401 56.4609 85.9401H71.4504H71.5383L71.6257 85.9298C75.5865 85.4639 78.0871 83.1968 79.5482 80.638C80.8355 78.3836 81.3417 75.8762 81.43 74.0368L105.98 46.4177C107.079 45.1816 108.035 43.6179 108.388 41.9659C108.754 40.256 108.47 38.3952 106.987 36.9125C106.079 36.0057 104.999 35.5804 103.866 35.5472C102.784 35.5155 101.737 35.8417 100.809 36.2749C99.001 37.1195 97.2175 38.5867 95.883 39.6845L95.8354 39.7237L83.4443 49.9161V36.4746ZM4 80.9414H25.9814V73.9492C25.9814 73.1208 26.653 72.4492 27.4814 72.4492C28.3099 72.4492 28.9814 73.1208 28.9814 73.9492V80.9414H39.9733C42.1824 80.9414 43.9733 82.7323 43.9733 84.9414V94.933C43.9733 97.1421 42.1824 98.933 39.9733 98.933H4C1.79087 98.933 0 97.1421 0 94.933V84.9414C0 82.7323 1.79087 80.9414 4 80.9414ZM4 83.9414H27.4065C27.4313 83.9426 27.4563 83.9432 27.4814 83.9432C27.4969 83.9432 27.5124 83.943 27.5278 83.9425C27.5373 83.9423 27.5469 83.9419 27.5564 83.9414H39.9733C40.5256 83.9414 40.9733 84.3891 40.9733 84.9414V94.933C40.9733 95.4853 40.5256 95.933 39.9733 95.933H4C3.44772 95.933 3 95.4853 3 94.933V84.9414C3 84.3891 3.44772 83.9414 4 83.9414ZM101.928 5.99414H65.9551C63.7459 5.99414 61.9551 7.785 61.9551 9.99414V27.9801C61.9551 30.1892 63.7459 31.9801 65.9551 31.9801H101.928C104.137 31.9801 105.928 30.1892 105.928 27.9801V9.99414C105.928 7.785 104.137 5.99414 101.928 5.99414ZM64.9551 9.99414C64.9551 9.44185 65.4028 8.99414 65.9551 8.99414H101.928C102.481 8.99414 102.928 9.44186 102.928 9.99414V27.9801C102.928 28.5324 102.481 28.9801 101.928 28.9801H65.9551C65.4028 28.9801 64.9551 28.5324 64.9551 27.9801V9.99414ZM70.9522 20.9863C70.1237 20.9863 69.4522 21.6579 69.4522 22.4863C69.4522 23.3148 70.1237 23.9863 70.9522 23.9863H96.4342C97.2626 23.9863 97.9342 23.3148 97.9342 22.4863C97.9342 21.6579 97.2626 20.9863 96.4342 20.9863H70.9522ZM68.9541 15.4883C68.9541 14.6599 69.6257 13.9883 70.4541 13.9883H74.4513C75.2797 13.9883 75.9513 14.6599 75.9513 15.4883C75.9513 16.3167 75.2797 16.9883 74.4513 16.9883H70.4541C69.6257 16.9883 68.9541 16.3167 68.9541 15.4883ZM81.4434 13.9883C80.6149 13.9883 79.9434 14.6599 79.9434 15.4883C79.9434 16.3167 80.6149 16.9883 81.4434 16.9883H96.4328C97.2612 16.9883 97.9328 16.3167 97.9328 15.4883C97.9328 14.6599 97.2612 13.9883 96.4328 13.9883H81.4434ZM69.4389 64.5662C68.4169 64.7668 67.0992 65.1248 65.8786 65.6563C64.2685 66.3575 63.1974 67.2006 62.836 68.0434C61.6893 70.7173 61.4585 72.5447 61.4585 72.9483V72.961V72.9738V72.9866V72.9995V73.0124V73.0254V73.0385V73.0515V73.0647V73.0779V73.0912V73.1045V73.1179V73.1313V73.1448V73.1583V73.1719V73.1855V73.1992V73.2129V73.2267V73.2406V73.2545V73.2684V73.2824V73.2964V73.3105V73.3246V73.3388V73.3531V73.3674V73.3817V73.3961V73.4105V73.425V73.4395V73.4541V73.4687V73.4833V73.4981V73.5128V73.5276V73.5425V73.5573V73.5723V73.5873V73.6023V73.6174V73.6325V73.6476V73.6628V73.6781V73.6933V73.7087V73.7241V73.7395V73.7549V73.7704V73.7859V73.8015V73.8171V73.8328V73.8485V73.8642V73.88V73.8958V73.9117V73.9276V73.9435V73.9595V73.9755V73.9915V74.0076V74.0237V74.0399V74.0561V74.0723V74.0886V74.1049V74.1212V74.1376V74.154V74.1705V74.1869V74.2035V74.22V74.2366V74.2532V74.2698V74.2865V74.3032V74.32V74.3368V74.3536V74.3704V74.3873V74.4042V74.4211V74.4381V74.4551V74.4721V74.4892V74.5062V74.5234V74.5405V74.5577V74.5749V74.5921V74.6094V74.6266V74.6439V74.6613V74.6787V74.696V74.7135V74.7309V74.7484V74.7659V74.7834V74.8009V74.8185V74.8361V74.8537V74.8714V74.889V74.9067V74.9244V74.9422V74.9599V74.9777V74.9955V75.0134V75.0312V75.0491V75.067V75.0849V75.1028V75.1208V75.1387V75.1567V75.1747V75.1928V75.2108V75.2289V75.247V75.2651V75.2832V75.3013V75.3195V75.3377V75.3559V75.3741V75.3923V75.4105V75.4288V75.4471V75.4654V75.4837V75.502V75.5203V75.5387V75.557V75.5754V75.5938V75.6122V75.6306V75.649V75.6675V75.6859V75.7044V75.7229V75.7413V75.7598V75.7783V75.7969V75.8154V75.8339V75.8525V75.871V75.8896V75.9082V75.9268V75.9454V75.964V75.9826V76.0012V76.0198V76.0385V76.0571V76.0757V76.0944V76.113V76.1317V76.1504V76.1691V76.1877V76.2064V76.2251V76.2438V76.2625V76.2812V76.2999V76.3186V76.3373V76.356V76.3747V76.3935V76.4122V76.4309V76.4496V76.4683V76.4871V76.5058V76.5245V76.5432V76.562V76.5807V76.5994V76.6181V76.6369V76.6556V76.6743V76.693V76.7117V76.7304V76.7491V76.7678V76.7865V76.8052V76.8239V76.8426V76.8613V76.88V76.8987V76.9173V76.936V76.9546V76.9733V76.9919V77.0106V77.0292V77.0478V77.0665V77.0851V77.1037V77.1223V77.1409V77.1594V77.178V77.1966V77.2151V77.2336V77.2522V77.2707V77.2892V77.3077V77.3262V77.3447V77.3631V77.3816V77.4V77.4185V77.4369V77.4553V77.4737V77.492V77.5104V77.5288V77.5471V77.5654V77.5837V77.602V77.6203V77.6385V77.6568V77.675V77.6932V77.7114V77.7296V77.7477V77.7659V77.784V77.8021V77.8202V77.8383V77.8563V77.8744V77.8924V77.9104V77.9284V77.9463V77.9642V77.9822V78V78.0179V78.0358V78.0536V78.0714V78.0892V78.1069V78.1247V78.1424V78.1601V78.1778V78.1954V78.213V78.2306V78.2482V78.2658V78.2833V78.3008V78.3183V78.3357V78.3531V78.3705V78.3879V78.4052V78.4225V78.4398V78.4571V78.4743V78.4915V78.5087V78.5258V78.543V78.5601V78.5771V78.5941V78.6111V78.6281V78.645V78.662V78.6788V78.6957V78.7125V78.7293V78.746V78.7627V78.7794V78.7961V78.8127V78.8293V78.8458V78.8623V78.8788V78.8953V78.9117V78.9281V78.9444V78.9607V78.977V78.9932V79.0094V79.0256V79.0417V79.0578V79.0738V79.0899V79.1058V79.1218V79.1377V79.1535V79.1693V79.1851V79.2009V79.2166V79.2322V79.2479V79.2634V79.279V79.2945V79.3099V79.3254V79.3407V79.3561V79.3714V79.3866V79.4018V79.417V79.4321V79.4471V79.4622V79.4772V79.4921V79.507V79.5219V79.5367V79.5514V79.5661V79.5808V79.5954V79.61V79.6245V79.639V79.6534V79.6678V79.6822V79.6965V79.7107V79.7249V79.739V79.7531V79.7672V79.7812V79.7951V79.809V79.8229V79.8367V79.8504V79.8641V79.8777V79.8913V79.9048V79.9183V79.9318V79.9451V79.9585V79.9717V79.9849V79.9981V80.0112V80.0243V80.0373V80.0502V80.0631V80.0759V80.0887V80.1014V80.1141V80.1267V80.1393V80.1517V80.1642V80.1766V80.1889V80.2011V80.2133V80.2255V80.2376V80.2496V80.2616V80.2735V80.2853V80.2971V80.3088V80.3205V80.3321V80.3437V80.3551V80.3666V80.3779V80.3892V80.4004V80.4116V80.4227V80.4338V80.4447V80.4557V80.4665V80.4773V80.488V80.4987V80.5093V80.5198V80.5302V80.5406V80.551V80.5612V80.5714V80.5815V80.5916V80.6016V80.6115V80.6214V80.6311V80.6409V80.6505V80.6601V80.6696V80.679V80.6884V80.6977V80.7069V80.7161V80.7252V80.7342V80.7431V80.752V80.7608V80.7695V80.7782V80.7868V80.7953V80.8037V80.8121V80.8204V80.8286V80.8367V80.8448V80.8528V80.8607V80.8685V80.8763V80.8839V80.8916V80.8991V80.9065V80.9139V80.9212V80.9284V80.9356V80.9426C61.4585 81.7017 61.1055 82.34 60.7972 82.7723C60.7569 82.8288 60.7152 82.8848 60.6723 82.9401H71.3591C74.1441 82.5859 75.8667 81.0352 76.943 79.1504C77.9227 77.4347 78.3383 75.473 78.4262 74.0287L69.8756 65.0031L69.4389 64.5662ZM72.1762 63.0694L79.9092 71.2321L103.738 44.4246C104.614 43.4392 105.243 42.3297 105.455 41.3385C105.654 40.4052 105.485 39.6529 104.866 39.0342C104.513 38.6813 104.165 38.5573 103.778 38.546C103.34 38.5331 102.777 38.6671 102.079 38.9931C100.658 39.6567 99.1538 40.8786 97.7412 42.0406L72.1762 63.0694ZM6.99707 89.9375C6.99707 89.1091 7.66864 88.4375 8.49707 88.4375H14.9925C15.8209 88.4375 16.4925 89.1091 16.4925 89.9375C16.4925 90.7659 15.8209 91.4375 14.9925 91.4375H8.49707C7.66864 91.4375 6.99707 90.7659 6.99707 89.9375ZM20.9893 88.4375C20.1608 88.4375 19.4893 89.1091 19.4893 89.9375C19.4893 90.7659 20.1608 91.4375 20.9893 91.4375H35.4791C36.3075 91.4375 36.9791 90.7659 36.9791 89.9375C36.9791 89.1091 36.3075 88.4375 35.4791 88.4375H20.9893ZM54.9634 100.929C56.0672 100.929 56.962 100.034 56.962 98.9302C56.962 97.8264 56.0672 96.9316 54.9634 96.9316C53.8596 96.9316 52.9648 97.8264 52.9648 98.9302C52.9648 100.034 53.8596 100.929 54.9634 100.929Z" fill="white"/>
</svg>
