<svg width="40" height="40" viewBox="0 0 40 40" fill="none" xmlns="http://www.w3.org/2000/svg">
<rect x="1" y="1" width="38" height="38" rx="6" stroke="white" stroke-width="2"/>
<path d="M21.168 22.918H16.8203V20.1758H21.168C21.8398 20.1758 22.3867 20.0664 22.8086 19.8477C23.2305 19.6211 23.5391 19.3086 23.7344 18.9102C23.9297 18.5117 24.0273 18.0625 24.0273 17.5625C24.0273 17.0547 23.9297 16.582 23.7344 16.1445C23.5391 15.707 23.2305 15.3555 22.8086 15.0898C22.3867 14.8242 21.8398 14.6914 21.168 14.6914H18.0391V29H14.5234V11.9375H21.168C22.5039 11.9375 23.6484 12.1797 24.6016 12.6641C25.5625 13.1406 26.2969 13.8008 26.8047 14.6445C27.3125 15.4883 27.5664 16.4531 27.5664 17.5391C27.5664 18.6406 27.3125 19.5938 26.8047 20.3984C26.2969 21.2031 25.5625 21.8242 24.6016 22.2617C23.6484 22.6992 22.5039 22.918 21.168 22.918Z" fill="white"/>
</svg>
