<svg width="99" height="91" viewBox="0 0 99 91" fill="none" xmlns="http://www.w3.org/2000/svg">
<path fill-rule="evenodd" clip-rule="evenodd" d="M68.1972 52.2109C66.9668 39.2121 58.1205 28.4312 46.1689 24.379C46.0258 25.4537 45.952 26.5502 45.952 27.664C45.952 40.4694 55.7109 50.9955 68.1972 52.2109ZM43.8618 20.6009C46.9837 8.74392 57.7787 0 70.616 0C85.8944 0 98.28 12.3856 98.28 27.664C98.28 42.699 86.2859 54.9326 71.344 55.3186C71.344 55.3218 71.344 55.325 71.344 55.3283C71.344 75.0294 55.3731 91.0003 35.672 91.0003C15.9709 91.0003 0 75.0294 0 55.3283C0 35.6271 15.9709 19.6562 35.672 19.6562C38.4902 19.6562 41.2321 19.9831 43.8618 20.6009ZM46.7517 21.4104C49.52 10.8171 59.1551 3 70.616 3C84.2375 3 95.28 14.0424 95.28 27.664C95.28 41.084 84.562 52.0006 71.219 52.3208C70.008 37.8134 60.1153 25.773 46.7517 21.4104ZM68.3439 55.236C68.344 55.2668 68.344 55.2975 68.344 55.3283C68.344 73.3725 53.7162 88.0003 35.672 88.0003C17.6278 88.0003 3 73.3725 3 55.3283C3 37.284 17.6278 22.6562 35.672 22.6562C38.2832 22.6562 40.8229 22.9626 43.2571 23.5413C43.0561 24.8863 42.952 26.263 42.952 27.664C42.952 42.1774 54.1283 54.0804 68.3439 55.236Z" fill="white"/>
</svg>
