<svg width="149" height="57" viewBox="0 0 149 57" fill="none" xmlns="http://www.w3.org/2000/svg">
<path fill-rule="evenodd" clip-rule="evenodd" d="M28.1521 53.3041C42.0432 53.3041 53.3041 42.0432 53.3041 28.1521C53.3041 14.261 42.0432 3 28.1521 3C14.261 3 3 14.261 3 28.1521C3 42.0432 14.261 53.3041 28.1521 53.3041ZM28.1521 56.3041C42.9645 56.3041 55.105 44.8644 56.2205 30.3379H77.0602C78.1189 37.6453 84.4086 43.2589 92.0093 43.2589C99.6101 43.2589 105.9 37.6453 106.958 30.3379H127.873C128.746 35.3371 133.108 39.1373 138.357 39.1373C144.235 39.1373 149 34.3723 149 28.4944C149 22.6165 144.235 17.8516 138.357 17.8516C132.87 17.8516 128.353 22.004 127.776 27.3379H107.094C106.67 19.374 100.079 13.0469 92.0093 13.0469C83.9399 13.0469 77.3483 19.374 76.9249 27.3379H56.2926C55.8617 12.1665 43.4277 0 28.1521 0C12.6041 0 0 12.6041 0 28.1521C0 43.7 12.6041 56.3041 28.1521 56.3041ZM92.0093 40.2589C98.6953 40.2589 104.115 34.8388 104.115 28.1529C104.115 21.4669 98.6953 16.0469 92.0093 16.0469C85.3234 16.0469 79.9033 21.4669 79.9033 28.1529C79.9033 34.8388 85.3234 40.2589 92.0093 40.2589ZM146 28.4944C146 32.7155 142.578 36.1373 138.357 36.1373C134.136 36.1373 130.714 32.7155 130.714 28.4944C130.714 24.2734 134.136 20.8516 138.357 20.8516C142.578 20.8516 146 24.2734 146 28.4944Z" fill="white"/>
</svg>
