<svg width="142" height="130" viewBox="0 0 142 130" fill="none" xmlns="http://www.w3.org/2000/svg">
<path fill-rule="evenodd" clip-rule="evenodd" d="M72.5457 55.9729C87.3752 55.1743 99.1526 42.959 99.1526 28.0072C99.1526 12.5393 86.5479 0 70.9992 0C55.4506 0 42.8459 12.5393 42.8459 28.0072C42.8459 42.959 54.6233 55.1743 69.4527 55.9729V73.3833L50.4414 84.8793C45.2925 78.2528 37.2239 73.9855 28.1534 73.9855C12.6047 73.9855 0 86.5248 0 101.993C0 117.461 12.6047 130 28.1534 130C43.7021 130 56.3068 117.461 56.3068 101.993C56.3068 96.6536 54.805 91.6634 52.1987 87.4174L70.9829 76.0588L89.589 87.7689C87.1136 91.9378 85.6932 96.8003 85.6932 101.993C85.6932 117.461 98.2979 130 113.847 130C129.395 130 142 117.461 142 101.993C142 86.5248 129.395 73.9855 113.847 73.9855C104.627 73.9855 96.4418 78.3946 91.3065 85.2088L72.5457 73.4014V55.9729ZM96.0596 28.0072C96.0596 34.6744 93.4288 40.7303 89.1436 45.2036C88.8948 44.2591 88.5257 43.3377 88.0425 42.4534C87.0742 40.6816 85.6719 39.102 83.941 37.7901C82.2104 36.4784 80.1762 35.4527 77.9616 34.7574C77.7519 34.6915 77.5407 34.6287 77.3284 34.569C79.7848 32.6827 81.367 29.7246 81.367 26.3988C81.367 20.7022 76.7248 16.0841 70.9984 16.0841C65.272 16.0841 60.6298 20.7022 60.6298 26.3988C60.6298 29.7249 62.2123 32.6833 64.6691 34.5695C64.4573 34.6291 64.2468 34.6917 64.0376 34.7574C61.823 35.4527 59.7888 36.4784 58.0583 37.7901C56.3274 39.102 54.9251 40.6816 53.9568 42.4534C53.4735 43.3378 53.1043 44.2595 52.8555 45.2042C48.5699 40.7308 45.9389 34.6747 45.9389 28.0072C45.9389 14.2386 57.1588 3.07694 70.9992 3.07694C84.8397 3.07694 96.0596 14.2386 96.0596 28.0072ZM85.3251 43.9231C85.9837 45.1283 86.3476 46.393 86.4172 47.6623C82.1654 50.9677 76.8135 52.9375 70.9992 52.9375C65.1853 52.9375 59.8337 50.968 55.582 47.6629C55.6515 46.3934 56.0154 45.1285 56.6742 43.9231C57.4122 42.5726 58.5108 41.3153 59.9328 40.2376C61.355 39.1596 63.0637 38.2897 64.9685 37.6917C66.8728 37.0938 68.923 36.7836 70.9996 36.7836C73.0762 36.7836 75.1265 37.0938 77.0308 37.6917C78.9355 38.2897 80.6443 39.1596 82.0665 40.2376C83.4884 41.3153 84.5871 42.5726 85.3251 43.9231ZM129.265 121.648C125.013 124.953 119.661 126.923 113.847 126.923C108.033 126.923 102.681 124.953 98.4294 121.648C98.4989 120.379 98.8628 119.114 99.5215 117.909C100.26 116.558 101.358 115.301 102.78 114.223C104.202 113.145 105.911 112.275 107.816 111.677C109.72 111.079 111.77 110.769 113.847 110.769C115.924 110.769 117.974 111.079 119.878 111.677C121.783 112.275 123.492 113.145 124.914 114.223C126.336 115.301 127.434 116.558 128.172 117.909C128.831 119.114 129.195 120.379 129.265 121.648ZM131.991 119.189C131.742 118.245 131.373 117.323 130.89 116.439C129.922 114.667 128.519 113.088 126.788 111.776C125.058 110.464 123.024 109.438 120.809 108.743C120.599 108.677 120.388 108.614 120.176 108.555C122.632 106.668 124.214 103.71 124.214 100.384C124.214 94.6877 119.572 90.0696 113.846 90.0696C108.119 90.0696 103.477 94.6877 103.477 100.384C103.477 103.71 105.06 106.669 107.516 108.555C107.305 108.615 107.094 108.677 106.885 108.743C104.67 109.438 102.636 110.464 100.906 111.776C99.1748 113.088 97.7724 114.667 96.8042 116.439C96.3208 117.323 95.9516 118.245 95.7029 119.19C91.4173 114.716 88.7862 108.66 88.7862 101.993C88.7862 88.2241 100.006 77.0625 113.847 77.0625C127.687 77.0625 138.907 88.2241 138.907 101.993C138.907 108.66 136.276 114.716 131.991 119.189ZM113.846 107.622C117.864 107.622 121.121 104.382 121.121 100.384C121.121 96.387 117.864 93.1465 113.846 93.1465C109.828 93.1465 106.57 96.387 106.57 100.384C106.57 104.382 109.828 107.622 113.846 107.622ZM78.274 26.3988C78.274 30.3962 75.0166 33.6367 70.9984 33.6367C66.9802 33.6367 63.7228 30.3962 63.7228 26.3988C63.7228 22.4015 66.9802 19.161 70.9984 19.161C75.0166 19.161 78.274 22.4015 78.274 26.3988ZM46.2977 119.189C50.583 114.716 53.2138 108.66 53.2138 101.993C53.2138 88.2241 41.9939 77.0625 28.1534 77.0625C14.3129 77.0625 3.093 88.2241 3.093 101.993C3.093 108.66 5.72405 114.716 10.0097 119.19C10.2584 118.245 10.6276 117.323 11.1109 116.439C12.0792 114.667 13.4815 113.088 15.2124 111.776C16.943 110.464 18.9772 109.438 21.1917 108.743C21.4009 108.677 21.6115 108.615 21.8232 108.555C19.3664 106.669 17.784 103.71 17.784 100.384C17.784 94.6877 22.4262 90.0696 28.1526 90.0696C33.879 90.0696 38.5212 94.6877 38.5212 100.384C38.5212 103.71 36.939 106.668 34.4825 108.555C34.6949 108.614 34.906 108.677 35.1158 108.743C37.3304 109.438 39.3645 110.464 41.0951 111.776C42.826 113.088 44.2283 114.667 45.1966 116.439C45.6798 117.323 46.049 118.245 46.2977 119.189ZM43.5713 121.648C43.5018 120.379 43.1379 119.114 42.4792 117.909C41.7412 116.558 40.6426 115.301 39.2206 114.223C37.7984 113.145 36.0897 112.275 34.1849 111.677C32.2806 111.079 30.2304 110.769 28.1538 110.769C26.0772 110.769 24.0269 111.079 22.1226 111.677C20.2179 112.275 18.5091 113.145 17.0869 114.223C15.6649 115.301 14.5663 116.558 13.8283 117.909C13.1696 119.114 12.8056 120.379 12.7362 121.648C16.9879 124.953 22.3394 126.923 28.1534 126.923C33.9677 126.923 39.3195 124.953 43.5713 121.648ZM28.1526 107.622C32.1708 107.622 35.4282 104.382 35.4282 100.384C35.4282 96.387 32.1708 93.1465 28.1526 93.1465C24.1344 93.1465 20.877 96.387 20.877 100.384C20.877 104.382 24.1344 107.622 28.1526 107.622Z" fill="white"/>
</svg>
