<svg width="77" height="44" viewBox="0 0 77 44" fill="none" xmlns="http://www.w3.org/2000/svg">
<path d="M8.19176 34.5206H6.10512C4.06148 34.5206 1.67295 33.9757 1.09451 32.0156C1.03429 31.8115 1 31.6062 1 31.4036C1 30.632 1 29.1241 1 27.7482C1 26.2916 1.07564 24.8128 1.65093 23.4747C2.47987 21.5466 4.0921 19.2003 6.8274 17.7768C8.04412 17.1437 9.21754 16.3757 9.96073 15.2228C13.4845 9.75681 18.7331 1.01339 27.1044 1.01339H39.1826C49.2714 0.639745 53.9849 8.14993 58.8219 15.6393C59.2059 16.2339 59.8787 16.5752 60.5865 16.5632C68.9321 16.4217 74.6882 18.9158 75.8067 27.1178V32.5206C75.8067 33.6251 74.9113 34.5206 73.8067 34.5206H68.7033" stroke="white" stroke-width="2" stroke-linecap="round"/>
<path d="M21.1279 34.5215H33.0698" stroke="white" stroke-width="2" stroke-linecap="round"/>
<path d="M43.4814 34.5215H54.767H55.7158" stroke="white" stroke-width="2" stroke-linecap="round"/>
<path d="M29.8319 15.9894V7.85936C29.8319 7.30708 29.3826 6.85451 28.8349 6.9255C24.2452 7.52038 19.1716 12.0109 16.6824 15.5756C16.2502 16.1946 16.7174 16.9894 17.4723 16.9894H28.8319C29.3842 16.9894 29.8319 16.5417 29.8319 15.9894Z" stroke="white" stroke-width="2" stroke-linecap="round"/>
<path d="M36.0657 15.9894V7.85938C36.0657 7.30709 36.5155 6.85663 37.0671 6.88368C44.6713 7.25648 49.0087 11.8439 51.4827 15.5C51.9183 16.1438 51.4408 16.9894 50.6635 16.9894H37.0657C36.5134 16.9894 36.0657 16.5417 36.0657 15.9894Z" stroke="white" stroke-width="2" stroke-linecap="round"/>
<path d="M35.6758 22.834H38.4031" stroke="white" stroke-width="2" stroke-linecap="round"/>
<circle cx="14.6371" cy="36.0805" r="6.40275" stroke="white" stroke-width="2"/>
<circle cx="62.1703" cy="36.0805" r="6.40275" stroke="white" stroke-width="2"/>
<circle cx="62.1698" cy="36.081" r="1.16885" fill="white"/>
<circle cx="14.6366" cy="36.081" r="1.16885" fill="white"/>
<path d="M37.2344 34.5215H39.1825" stroke="white" stroke-width="2" stroke-linecap="round"/>
</svg>
