<svg width="141" height="140" viewBox="0 0 141 140" fill="none" xmlns="http://www.w3.org/2000/svg">
<path fill-rule="evenodd" clip-rule="evenodd" d="M113.465 54.9846C128.672 54.9846 141 42.6759 141 27.4923C141 12.3087 128.672 0 113.465 0C101.949 0 92.0846 7.05796 87.9738 17.0776L78.432 13.1354C78.4809 12.7281 78.506 12.3134 78.506 11.8929C78.506 6.18606 73.8725 1.55972 68.1567 1.55972C62.4409 1.55972 57.8073 6.18606 57.8073 11.8929C57.8073 17.5998 62.4409 22.2262 68.1567 22.2262C72.2789 22.2262 75.8382 19.8199 77.5024 16.3375L86.9027 20.2212C86.2682 22.5372 85.9294 24.9753 85.9294 27.4923C85.9294 30.4457 86.3959 33.2904 87.2592 35.9568L57.9195 48.5643C53.2338 40.0722 44.1826 34.3188 33.7856 34.3188C30.385 34.3188 27.1284 34.9342 24.1215 36.0597L16.5196 20.1897C19.0558 18.3064 20.6988 15.2912 20.6988 11.8929C20.6988 6.18606 16.0652 1.55972 10.3494 1.55972C4.63358 1.55972 0 6.18606 0 11.8929C0 17.5998 4.63358 22.2262 10.3494 22.2262C11.4744 22.2262 12.5575 22.0469 13.5716 21.7155L21.0891 37.4094C12.2717 41.9922 6.25027 51.1995 6.25027 61.8111C6.25027 71.3097 11.0749 79.6832 18.4109 84.622L12.9947 93.9353C12.1503 93.7131 11.2637 93.5947 10.3494 93.5947C4.63358 93.5947 0 98.221 0 103.928C0 109.635 4.63358 114.261 10.3494 114.261C16.0652 114.261 20.6988 109.635 20.6988 103.928C20.6988 100.32 18.8471 97.1445 16.041 95.2962L21.2695 86.3056C25.0246 88.2222 29.2786 89.3033 33.7856 89.3033C40.5669 89.3033 46.7757 86.8557 51.5741 82.797L61.8156 94.0451C57.3834 98.9248 54.683 105.401 54.683 112.508C54.683 114.138 54.8251 115.735 55.0976 117.287L41.0162 121.059C39.4678 117.3 35.7639 114.654 31.441 114.654C25.7252 114.654 21.0916 119.281 21.0916 124.987C21.0916 130.694 25.7252 135.321 31.441 135.321C37.1568 135.321 41.7904 130.694 41.7904 124.987C41.7904 124.753 41.7825 124.52 41.7671 124.289L55.868 120.511C59.3005 131.791 69.7992 140 82.2182 140C97.4256 140 109.754 127.691 109.754 112.508C109.754 107.272 108.288 102.379 105.744 98.2136L120.003 89.1854C121.89 91.1788 124.562 92.4226 127.526 92.4226C133.242 92.4226 137.875 87.7962 137.875 82.0894C137.875 76.3825 133.242 71.7561 127.526 71.7561C121.81 71.7561 117.177 76.3825 117.177 82.0894C117.177 83.6447 117.521 85.1198 118.137 86.4429L103.847 95.4912C100.873 91.728 96.9344 88.7597 92.4042 86.9578L104.64 53.5422C107.41 54.4775 110.378 54.9846 113.465 54.9846ZM101.564 52.2914C95.8071 49.5323 91.1595 44.8337 88.4707 39.0437L59.343 51.5601C60.6188 54.7279 61.3208 58.1876 61.3208 61.8111C61.3208 69.0311 58.5332 75.6012 53.974 80.5068L64.19 91.7268C69.0205 87.5456 75.3234 85.0154 82.2182 85.0154C84.6487 85.0154 87.0057 85.3298 89.2505 85.9201L101.564 52.2914ZM137.681 27.4923C137.681 33.8891 135.193 39.7057 131.131 44.03C130.888 43.1354 130.535 42.2627 130.078 41.4245C129.13 39.6835 127.759 38.1342 126.07 36.8494C124.381 35.5647 122.398 34.5616 120.242 33.8821C120.202 33.8694 120.161 33.8568 120.121 33.8444C122.379 31.9489 123.814 29.1078 123.814 25.9321C123.814 20.2252 119.18 15.5988 113.464 15.5988C107.748 15.5988 103.115 20.2252 103.115 25.9321C103.115 29.1079 104.55 31.9491 106.808 33.8446C106.767 33.857 106.727 33.8695 106.687 33.8821C104.531 34.5616 102.548 35.5647 100.859 36.8494C99.17 38.1342 97.7987 39.6835 96.8507 41.4245C96.3943 42.2626 96.0417 43.1352 95.7984 44.0298C91.7361 39.7054 89.2482 33.889 89.2482 27.4923C89.2482 14.1388 100.09 3.3136 113.465 3.3136C126.839 3.3136 137.681 14.1388 137.681 27.4923ZM114.488 32.8779C114.147 32.8628 113.806 32.8553 113.465 32.8553C113.123 32.8553 112.782 32.8629 112.441 32.8779C109.043 32.3832 106.434 29.4619 106.434 25.9321C106.434 22.0552 109.581 18.9124 113.464 18.9124C117.347 18.9124 120.495 22.0552 120.495 25.9321C120.495 29.4619 117.885 32.3831 114.488 32.8779ZM112.314 36.2023C110.72 36.2946 109.157 36.5785 107.686 37.042C105.862 37.6168 104.228 38.4521 102.87 39.4851C101.513 40.5178 100.467 41.72 99.7664 43.0072C99.1214 44.1919 98.7752 45.4345 98.7255 46.6783C102.808 49.8095 107.919 51.671 113.465 51.671C119.011 51.671 124.121 49.8096 128.204 46.6785C128.154 45.4346 127.808 44.1919 127.163 43.0072C126.462 41.72 125.416 40.5178 124.059 39.4851C122.701 38.4521 121.067 37.6168 119.243 37.042C117.772 36.5784 116.209 36.2946 114.614 36.2023C114.237 36.2439 113.853 36.2653 113.464 36.2653C113.076 36.2653 112.692 36.2439 112.314 36.2023ZM58.0021 61.8111C58.0021 68.2078 55.5141 74.0244 51.4516 78.3488C51.2084 77.4541 50.8557 76.5814 50.3993 75.7432C49.4513 74.0023 48.08 72.453 46.391 71.1681C44.7022 69.8834 42.7192 68.8803 40.5626 68.2008C40.5224 68.1881 40.4822 68.1756 40.4419 68.1632C42.6996 66.2676 44.1344 63.4265 44.1344 60.2508C44.1344 54.5439 39.5009 49.9176 33.785 49.9176C28.0692 49.9176 23.4357 54.5439 23.4357 60.2508C23.4357 63.4266 24.8706 66.2678 27.1284 68.1633L27.056 68.1858L27.0082 68.2008C24.8516 68.8803 22.8686 69.8834 21.1798 71.1681C19.4908 72.453 18.1195 74.0023 17.1715 75.7432C16.7152 76.5813 16.3625 77.454 16.1193 78.3485C12.0569 74.0242 9.56905 68.2077 9.56905 61.8111C9.56905 48.4575 20.4111 37.6324 33.7856 37.6324C47.16 37.6324 58.0021 48.4575 58.0021 61.8111ZM34.8084 67.1966C34.468 67.1816 34.1269 67.1741 33.7854 67.1741C33.4437 67.1741 33.1024 67.1816 32.7619 67.1966C29.3639 66.702 26.7545 63.7807 26.7545 60.2508C26.7545 56.374 29.9022 53.2312 33.785 53.2312C37.6679 53.2312 40.8156 56.374 40.8156 60.2508C40.8156 63.7806 38.2062 66.7019 34.8084 67.1966ZM32.635 70.521C31.0409 70.6134 29.4781 70.8972 28.007 71.3608C26.1829 71.9356 24.5491 72.7709 23.1912 73.8039C21.8336 74.8366 20.7882 76.0387 20.0873 77.3259C19.4422 78.5106 19.0961 79.7532 19.0463 80.997C23.1289 84.1283 28.2395 85.9897 33.7856 85.9897C39.3315 85.9897 44.4419 84.1284 48.5245 80.9972C48.4748 79.7534 48.1286 78.5107 47.4835 77.3259C46.7826 76.0387 45.7372 74.8366 44.3796 73.8039C43.0218 72.7709 41.3879 71.9356 39.5638 71.3608C38.0925 70.8972 36.5296 70.6133 34.9353 70.5209C34.5576 70.5626 34.1739 70.584 33.785 70.584C33.3963 70.584 33.0126 70.5626 32.635 70.521ZM96.9572 131.694C92.8746 134.825 87.7641 136.686 82.2182 136.686C76.6722 136.686 71.5616 134.825 67.479 131.694C67.5287 130.45 67.8749 129.207 68.52 128.023C69.2208 126.735 70.2663 125.533 71.6239 124.501C72.9817 123.468 74.6156 122.632 76.4397 122.057C77.9108 121.594 79.4736 121.31 81.0677 121.218C81.4453 121.259 81.829 121.281 82.2177 121.281C82.6065 121.281 82.9903 121.259 83.368 121.218C84.9623 121.31 86.5252 121.594 87.9965 122.057C89.8206 122.632 91.4544 123.468 92.8123 124.501C94.1699 125.533 95.2153 126.735 95.9162 128.023C96.5613 129.207 96.9075 130.45 96.9572 131.694ZM75.4409 118.897C75.4809 118.885 75.521 118.872 75.5611 118.86C73.3033 116.964 71.8684 114.123 71.8684 110.947C71.8684 105.241 76.5019 100.614 82.2177 100.614C87.9335 100.614 92.5671 105.241 92.5671 110.947C92.5671 114.123 91.1323 116.964 88.8746 118.86L88.9241 118.875L88.9953 118.897C91.1519 119.577 93.1349 120.58 94.8236 121.865C96.5127 123.15 97.884 124.699 98.832 126.44C99.2884 127.278 99.6411 128.151 99.8843 129.045C103.947 124.721 106.435 118.904 106.435 112.508C106.435 99.1542 95.5926 88.329 82.2182 88.329C68.8438 88.329 58.0017 99.1542 58.0017 112.508C58.0017 118.904 60.4896 124.721 64.5519 129.045C64.7952 128.151 65.1479 127.278 65.6042 126.44C66.5522 124.699 67.9235 123.15 69.6125 121.865C71.3013 120.58 73.2843 119.577 75.4409 118.897ZM82.2181 117.871C82.5596 117.871 82.9007 117.878 83.2411 117.893C86.6389 117.399 89.2483 114.477 89.2483 110.947C89.2483 107.071 86.1006 103.928 82.2177 103.928C78.3348 103.928 75.1871 107.071 75.1871 110.947C75.1871 114.477 77.7966 117.399 81.1946 117.893C81.5351 117.878 81.8764 117.871 82.2181 117.871ZM10.3494 18.9126C14.2323 18.9126 17.38 15.7698 17.38 11.8929C17.38 8.01612 14.2323 4.87332 10.3494 4.87332C6.46649 4.87332 3.31878 8.01612 3.31878 11.8929C3.31878 15.7698 6.46649 18.9126 10.3494 18.9126ZM75.1872 11.8929C75.1872 15.7698 72.0396 18.9126 68.1567 18.9126C64.2738 18.9126 61.1261 15.7698 61.1261 11.8929C61.1261 8.01612 64.2738 4.87332 68.1567 4.87332C72.0396 4.87332 75.1872 8.01612 75.1872 11.8929ZM127.526 89.109C131.409 89.109 134.557 85.9662 134.557 82.0894C134.557 78.2125 131.409 75.0697 127.526 75.0697C123.643 75.0697 120.495 78.2125 120.495 82.0894C120.495 85.9662 123.643 89.109 127.526 89.109ZM31.441 132.007C35.3239 132.007 38.4716 128.864 38.4716 124.987C38.4716 121.111 35.3239 117.968 31.441 117.968C27.5581 117.968 24.4104 121.111 24.4104 124.987C24.4104 128.864 27.5581 132.007 31.441 132.007ZM17.38 103.928C17.38 107.805 14.2323 110.948 10.3494 110.948C6.46649 110.948 3.31878 107.805 3.31878 103.928C3.31878 100.051 6.46649 96.9083 10.3494 96.9083C14.2323 96.9083 17.38 100.051 17.38 103.928Z" fill="white"/>
</svg>
