<svg width="117" height="116" viewBox="0 0 117 116" fill="none" xmlns="http://www.w3.org/2000/svg">
<path d="M39.5678 46.0415L39.5887 19.3866C44.3682 19.7359 48.988 21.3195 52.9895 23.9977C57.5468 27.048 61.0972 31.3811 63.1919 36.4492C65.2865 41.5173 65.8312 47.0928 64.7572 52.4705C63.6831 57.8482 61.0385 62.7866 57.1578 66.6613C53.277 70.5359 48.3344 73.1728 42.9551 74.2385C37.5757 75.3041 32.0011 74.7507 26.9363 72.6481C21.8715 70.5455 17.5439 66.9883 14.5008 62.4262C11.8288 58.4206 10.2525 53.7983 9.91059 49.0183L36.5655 49.0391C38.2223 49.0404 39.5665 47.6983 39.5678 46.0415Z" stroke="white" stroke-width="4"/>
<path d="M5.44073 40C5.65483 37.0214 6.3462 34.0921 7.4923 31.3251C8.89414 27.9408 10.9489 24.8657 13.5391 22.2754C16.1294 19.6852 19.2045 17.6305 22.5888 16.2286C25.3558 15.0825 28.2851 14.3912 31.2637 14.1771L31.2637 40L5.44073 40Z" stroke="white" stroke-width="4"/>
<path d="M21.4736 87.4737V108C21.4736 111.314 24.1599 114 27.4736 114H108.947C112.261 114 114.947 111.314 114.947 108V23.4549C114.947 23.1968 114.847 22.9486 114.669 22.7624L95.032 2.30747C94.8434 2.11104 94.5829 2 94.3106 2H26.4736C23.7122 2 21.4736 4.23858 21.4736 7V15.0526" stroke="white" stroke-width="4" stroke-linecap="round"/>
<path d="M21.4736 81.5781V82.4202" stroke="white" stroke-width="4" stroke-linecap="round"/>
<path d="M98.9473 55.8965H99.7894" stroke="white" stroke-width="4" stroke-linecap="round"/>
<path d="M94.3164 2.8418V17.0523C94.3164 20.366 97.0027 23.0523 100.316 23.0523H114.527" stroke="white" stroke-width="4" stroke-linecap="round"/>
<path d="M76.6309 34H105.262" stroke="white" stroke-width="4" stroke-linecap="round"/>
<path d="M76.6309 44.9473H105.262" stroke="white" stroke-width="4" stroke-linecap="round"/>
<path d="M76.6309 55.8965H89.2624" stroke="white" stroke-width="4" stroke-linecap="round"/>
<circle cx="42.1047" cy="101.366" r="5.36842" stroke="white" stroke-width="4"/>
<circle cx="59.7893" cy="83.6848" r="5.36842" stroke="white" stroke-width="4"/>
<circle cx="79.1575" cy="101.366" r="5.36842" stroke="white" stroke-width="4"/>
<circle cx="99.3684" cy="78.6321" r="5.36842" stroke="white" stroke-width="4"/>
<path d="M45.4736 97.158L55.9999 87.0527" stroke="white" stroke-width="4" stroke-linecap="round"/>
<path d="M64 87.4746L74.5263 98.0009" stroke="white" stroke-width="4" stroke-linecap="round"/>
<path d="M82.5264 96.7365L96.4211 82.8418" stroke="white" stroke-width="4" stroke-linecap="round"/>
</svg>
