<svg width="116" height="106" viewBox="0 0 116 106" fill="none" xmlns="http://www.w3.org/2000/svg">
<path fill-rule="evenodd" clip-rule="evenodd" d="M59.2627 45.6395C71.3769 44.9883 80.9979 35.0281 80.9979 22.8367C80.9979 10.2243 70.7011 0 57.9994 0C45.2976 0 35.0008 10.2243 35.0008 22.8367C35.0008 35.0281 44.6218 44.9882 56.736 45.6395V59.8357L41.2056 69.2093C36.9995 63.8061 30.4082 60.3267 22.9985 60.3267C10.2968 60.3267 0 70.551 0 83.1633C0 95.7757 10.2968 106 22.9985 106C35.7003 106 45.9971 95.7757 45.9971 83.1633C45.9971 78.8099 44.7703 74.741 42.6412 71.2788L57.986 62.0172L73.1854 71.5654C71.1633 74.9647 70.0029 78.9295 70.0029 83.1633C70.0029 95.7757 80.2997 106 93.0015 106C105.703 106 116 95.7757 116 83.1633C116 70.551 105.703 60.3267 93.0015 60.3267C85.4697 60.3267 78.7835 63.9217 74.5884 69.478L59.2627 59.8504V45.6395ZM78.4713 22.8367C78.4713 28.273 76.3221 33.2108 72.8215 36.8583C72.6183 36.0882 72.3168 35.3369 71.922 34.6159C71.131 33.1712 69.9855 31.8831 68.5715 30.8134C67.1578 29.7439 65.4961 28.9076 63.687 28.3407C63.5156 28.2869 63.3431 28.2357 63.1697 28.187C65.1763 26.649 66.4688 24.237 66.4688 21.5252C66.4688 16.8802 62.6766 13.1147 57.9987 13.1147C53.3208 13.1147 49.5286 16.8802 49.5286 21.5252C49.5286 24.2372 50.8213 26.6494 52.8283 28.1874C52.6553 28.236 52.4833 28.2871 52.3124 28.3407C50.5033 28.9076 48.8416 29.7439 47.4279 30.8134C46.0139 31.8831 44.8684 33.1712 44.0774 34.6159C43.6825 35.337 43.381 36.0885 43.1777 36.8588C39.6768 33.2113 37.5275 28.2732 37.5275 22.8367C37.5275 11.6099 46.6931 2.50889 57.9994 2.50889C69.3057 2.50889 78.4713 11.6099 78.4713 22.8367ZM69.7022 35.8142C70.2402 36.7969 70.5375 37.8281 70.5943 38.8631C67.121 41.5583 62.7491 43.1644 57.9994 43.1644C53.2499 43.1644 48.8783 41.5585 45.405 38.8636C45.4618 37.8284 45.7591 36.7971 46.2972 35.8142C46.9001 34.7131 47.7976 33.6879 48.9591 32.8091C50.121 31.9301 51.5169 31.2208 53.0728 30.7332C54.6284 30.2457 56.3033 29.9927 57.9997 29.9927C59.6961 29.9927 61.3709 30.2457 62.9266 30.7332C64.4825 31.2208 65.8784 31.9301 67.0402 32.8091C68.2018 33.6879 69.0993 34.7131 69.7022 35.8142ZM105.596 99.1898C102.123 101.885 97.7512 103.491 93.0015 103.491C88.252 103.491 83.8803 101.885 80.4071 99.1903C80.4639 98.1551 80.7611 97.1238 81.2993 96.1409C81.9022 95.0397 82.7996 94.0145 83.9612 93.1358C85.123 92.2568 86.5189 91.5475 88.0749 91.0599C89.6305 90.5724 91.3054 90.3194 93.0018 90.3194C94.6982 90.3194 96.373 90.5724 97.9286 91.0599C99.4846 91.5475 100.881 92.2568 102.042 93.1358C103.204 94.0145 104.101 95.0397 104.704 96.1409C105.242 97.1236 105.54 98.1548 105.596 99.1898ZM107.824 97.185C107.62 96.4148 107.319 95.6635 106.924 94.9425C106.133 93.4978 104.988 92.2098 103.574 91.1401C102.16 90.0706 100.498 89.2342 98.689 88.6673C98.5177 88.6136 98.3452 88.5624 98.1717 88.5137C100.178 86.9757 101.471 84.5636 101.471 81.8519C101.471 77.2069 97.6787 73.4414 93.0008 73.4414C88.3229 73.4414 84.5307 77.2069 84.5307 81.8519C84.5307 84.5639 85.8234 86.9761 87.8304 88.5141C87.6574 88.5627 87.4854 88.6138 87.3145 88.6673C85.5054 89.2342 83.8437 90.0706 82.43 91.1401C81.016 92.2098 79.8704 93.4978 79.0795 94.9425C78.6846 95.6637 78.383 96.4152 78.1798 97.1855C74.6789 93.538 72.5296 88.5999 72.5296 83.1633C72.5296 71.9366 81.6952 62.8356 93.0015 62.8356C104.308 62.8356 113.473 71.9366 113.473 83.1633C113.473 88.5996 111.324 93.5375 107.824 97.185ZM93.0008 87.7535C96.2833 87.7535 98.9442 85.1112 98.9442 81.8519C98.9442 78.5925 96.2833 75.9503 93.0008 75.9503C89.7183 75.9503 87.0573 78.5925 87.0573 81.8519C87.0573 85.1112 89.7183 87.7535 93.0008 87.7535ZM63.9422 21.5252C63.9422 24.7846 61.2812 27.4268 57.9987 27.4268C54.7162 27.4268 52.0553 24.7846 52.0553 21.5252C52.0553 18.2658 54.7162 15.6236 57.9987 15.6236C61.2812 15.6236 63.9422 18.2658 63.9422 21.5252ZM37.8207 97.185C41.3213 93.5375 43.4704 88.5996 43.4704 83.1633C43.4704 71.9366 34.3048 62.8356 22.9985 62.8356C11.6922 62.8356 2.52667 71.9366 2.52667 83.1633C2.52667 88.5999 4.67599 93.538 8.1769 97.1855C8.38012 96.4152 8.68171 95.6637 9.07654 94.9425C9.86753 93.4978 11.0131 92.2098 12.427 91.1401C13.8408 90.0706 15.5025 89.2342 17.3116 88.6673C17.4825 88.6138 17.6545 88.5627 17.8274 88.5141C15.8205 86.9761 14.5278 84.5639 14.5278 81.8519C14.5278 77.2069 18.32 73.4414 22.9979 73.4414C27.6758 73.4414 31.468 77.2069 31.468 81.8519C31.468 84.5636 30.1755 86.9757 28.1688 88.5137C28.3423 88.5624 28.5148 88.6136 28.6861 88.6673C30.4952 89.2342 32.157 90.0706 33.5707 91.1401C34.9846 92.2098 36.1302 93.4978 36.9212 94.9425C37.3159 95.6635 37.6175 96.4148 37.8207 97.185ZM35.5935 99.1898C35.5367 98.1548 35.2394 97.1236 34.7013 96.1409C34.0985 95.0397 33.201 94.0145 32.0394 93.1358C30.8776 92.2568 29.4817 91.5475 27.9257 91.0599C26.3701 90.5724 24.6952 90.3194 22.9989 90.3194C21.3025 90.3194 19.6276 90.5724 18.072 91.0599C16.516 91.5475 15.1201 92.2568 13.9583 93.1358C12.7967 94.0145 11.8993 95.0397 11.2964 96.1409C10.7582 97.1238 10.4609 98.1551 10.4042 99.1903C13.8774 101.885 18.2491 103.491 22.9985 103.491C27.7483 103.491 32.1202 101.885 35.5935 99.1898ZM22.9979 87.7535C26.2803 87.7535 28.9413 85.1112 28.9413 81.8519C28.9413 78.5925 26.2803 75.9503 22.9979 75.9503C19.7154 75.9503 17.0544 78.5925 17.0544 81.8519C17.0544 85.1112 19.7154 87.7535 22.9979 87.7535Z" fill="white"/>
</svg>
