<svg width="114" height="97" viewBox="0 0 114 97" fill="none" xmlns="http://www.w3.org/2000/svg">
<path d="M55.3934 14.6993C56.0767 13.5017 57.8019 13.4788 58.5171 14.6578L61.8296 20.1185C62.1742 20.6866 61.991 21.4252 61.4204 21.7683C60.8499 22.1114 60.108 21.929 59.7634 21.361L56.9834 16.7781L17.8289 85.4037H45.1419C45.8085 85.4037 46.3488 85.9417 46.3488 86.6053C46.3488 87.269 45.8085 87.807 45.1419 87.807H16.7921C15.4041 87.807 14.5325 86.3158 15.218 85.1142L55.3934 14.6993Z" fill="white"/>
<path d="M63.3199 27.3975C62.9892 26.8214 63.1901 26.0873 63.7688 25.758C64.3475 25.4287 65.0847 25.6288 65.4155 26.205L99.2296 85.1087C99.9194 86.3103 99.048 87.8055 97.6579 87.8055H69.3112C68.6447 87.8055 68.1044 87.2676 68.1044 86.6039C68.1044 85.9403 68.6447 85.4023 69.3112 85.4023H96.618L63.3199 27.3975Z" fill="white"/>
<path fill-rule="evenodd" clip-rule="evenodd" d="M50.5669 39.3589C50.5057 38.3236 51.3324 37.4505 52.3741 37.4505H61.7997C62.8473 37.4505 63.6762 38.3332 63.6059 39.3739L61.49 70.6917C61.426 71.6381 60.6364 72.3732 59.6837 72.3732H54.2255C53.267 72.3732 52.4747 71.6293 52.4183 70.6766L50.5669 39.3589ZM53.0141 39.8538L54.7945 69.9699H59.1195L61.1543 39.8538H53.0141Z" fill="white"/>
<path fill-rule="evenodd" clip-rule="evenodd" d="M62.9933 82.7467C62.9933 86.0951 60.2881 88.8096 56.9512 88.8096C53.6142 88.8096 50.9091 86.0951 50.9091 82.7467C50.9091 79.3982 53.6142 76.6837 56.9512 76.6837C60.2881 76.6837 62.9933 79.3982 62.9933 82.7467ZM60.5795 82.7467C60.5795 84.7855 58.9374 86.4063 56.9512 86.4063C54.965 86.4063 53.3228 84.7855 53.3228 82.7467C53.3228 80.7078 54.965 79.087 56.9512 79.087C58.9374 79.087 60.5795 80.7078 60.5795 82.7467Z" fill="white"/>
<path fill-rule="evenodd" clip-rule="evenodd" d="M63.2099 3.50131L112.957 86.0817C115.852 90.8872 112.376 97 106.748 97H7.25243C1.62434 97 -1.85236 90.8872 1.04255 86.0817L50.7901 3.50131C53.6024 -1.1671 60.3976 -1.16711 63.2099 3.50131ZM61.1399 4.73747C59.265 1.6252 54.735 1.6252 52.8601 4.73747L3.11251 87.3179C1.18257 90.5216 3.50037 94.5967 7.25243 94.5967H106.748C110.5 94.5967 112.817 90.5216 110.887 87.3179L61.1399 4.73747Z" fill="white"/>
</svg>
