<svg width="95" height="101" viewBox="0 0 95 101" fill="none" xmlns="http://www.w3.org/2000/svg">
<path fill-rule="evenodd" clip-rule="evenodd" d="M82.9643 20.0857C87.6824 20.0857 91.5071 16.2609 91.5071 11.5429C91.5071 6.82477 87.6824 3 82.9643 3C78.2462 3 74.4214 6.82477 74.4214 11.5429C74.4214 16.2609 78.2462 20.0857 82.9643 20.0857ZM82.9643 23.0857C89.3392 23.0857 94.5071 17.9178 94.5071 11.5429C94.5071 5.16791 89.3392 0 82.9643 0C76.5893 0 71.4214 5.16791 71.4214 11.5429C71.4214 12.6334 71.5726 13.6886 71.8553 14.6886L27.6623 35.5477C24.7575 32.326 20.5509 30.3008 15.8714 30.3008C7.10588 30.3008 0 37.4067 0 46.1722C0 54.9378 7.10588 62.0436 15.8714 62.0436C18.8787 62.0436 21.6907 61.2072 24.0874 59.7544L46.5552 82.2222C44.9612 84.2014 44.0071 86.7178 44.0071 89.4569C44.0071 95.8319 49.175 101 55.5499 101C61.9249 101 67.0928 95.8319 67.0928 89.4569C67.0928 83.082 61.9249 77.9141 55.5499 77.9141C52.9958 77.9141 50.6355 78.7436 48.7236 80.148L26.5185 57.9428C29.7271 55.0386 31.7429 50.8408 31.7429 46.1722C31.7429 43.1855 30.9179 40.3915 29.4833 38.0056L73.0427 17.4455C75.0565 20.8232 78.7462 23.0857 82.9643 23.0857ZM15.8714 59.0436C22.9801 59.0436 28.7429 53.2809 28.7429 46.1722C28.7429 39.0635 22.9801 33.3008 15.8714 33.3008C8.76273 33.3008 3 39.0635 3 46.1722C3 53.2809 8.76273 59.0436 15.8714 59.0436ZM64.0928 89.4569C64.0928 94.175 60.268 97.9998 55.5499 97.9998C50.8318 97.9998 47.0071 94.175 47.0071 89.4569C47.0071 84.7388 50.8318 80.9141 55.5499 80.9141C60.268 80.9141 64.0928 84.7388 64.0928 89.4569Z" fill="white"/>
</svg>
