<svg width="79" height="79" viewBox="0 0 79 79" fill="none" xmlns="http://www.w3.org/2000/svg">
<path fill-rule="evenodd" clip-rule="evenodd" d="M72.3152 0H6.68478C2.99288 0 0 2.99287 0 6.68476V72.3151C0 76.007 2.99288 79 6.68478 79H27.5891C27.6041 79 27.619 78.9999 27.634 78.9999H72.3152C76.0071 78.9999 79 76.007 79 72.3151V6.68477C79 2.99288 76.0071 0 72.3152 0ZM32.5719 76.7716H72.3152C74.7765 76.7716 76.7717 74.7764 76.7717 72.3151V6.68477C76.7717 4.2235 74.7765 2.22826 72.3152 2.22826H6.68478C4.22351 2.22826 2.22826 4.2235 2.22826 6.68476V46.4283C3.41092 45.3698 4.97269 44.7261 6.68478 44.7261H27.5891C31.281 44.7261 34.2739 47.719 34.2739 51.4109V72.3152C34.2739 74.0273 33.6303 75.589 32.5719 76.7716ZM2.22826 51.4109C2.22826 48.9497 4.22351 46.9544 6.68478 46.9544H27.5891C30.0504 46.9544 32.0457 48.9497 32.0457 51.4109V72.3152C32.0457 74.7643 30.0702 76.7519 27.6258 76.7716H6.68478C4.53117 76.7716 2.73435 75.244 2.3188 73.2132C2.25945 72.9232 2.22827 72.6227 2.22826 72.3151" fill="white"/>
</svg>
