<svg width="114" height="113" viewBox="0 0 114 113" fill="none" xmlns="http://www.w3.org/2000/svg">
<path fill-rule="evenodd" clip-rule="evenodd" d="M108.013 0H49.2294C45.9227 0 43.242 2.68849 43.242 6.00492V42.0345H5.98736C2.68064 42.0345 0 44.723 0 48.0394V106.995C0 110.312 2.68063 113 5.98736 113H64.7706C68.0773 113 70.758 110.312 70.758 106.995V70.9655H108.013C111.319 70.9655 114 68.277 114 64.9606V6.00492C114 2.6885 111.319 0 108.013 0ZM70.758 68.9639H108.013C110.217 68.9639 112.004 67.1716 112.004 64.9606V6.00492C112.004 3.79397 110.217 2.00164 108.013 2.00164H49.2294C47.0249 2.00164 45.2378 3.79397 45.2378 6.00492V42.0345H64.7706C68.0773 42.0345 70.758 44.723 70.758 48.0394V68.9639ZM45.2378 44.0361H64.7706C66.9751 44.0361 68.7622 45.8284 68.7622 48.0394V68.9639H49.2294C47.0249 68.9639 45.2378 67.1716 45.2378 64.9606V44.0361ZM43.242 44.0361V64.9606C43.242 68.277 45.9227 70.9655 49.2294 70.9655H68.7622V106.995C68.7622 109.206 66.9751 110.998 64.7706 110.998H5.98736C3.78287 110.998 1.99579 109.206 1.99579 106.995V48.0394C1.99579 45.8284 3.78288 44.0361 5.98736 44.0361H43.242Z" fill="white"/>
</svg>
