<svg width="86" height="86" viewBox="0 0 86 86" fill="none" xmlns="http://www.w3.org/2000/svg">
<path fill-rule="evenodd" clip-rule="evenodd" d="M43 50.963C47.3978 50.963 50.963 47.3978 50.963 43C50.963 42.1381 50.826 41.3082 50.5727 40.5308L65.1988 26.6361C65.8364 26.0303 65.8623 25.0223 65.2565 24.3846C64.6507 23.7469 63.6426 23.7211 63.005 24.3269L48.9361 37.6922C47.478 36.0626 45.3588 35.037 43 35.037C41.0382 35.037 39.2421 35.7465 37.8542 36.9228L32.9454 32.2866C32.3059 31.6827 31.2979 31.7115 30.694 32.3509C30.0901 32.9904 30.1189 33.9984 30.7583 34.6023L35.8769 39.4365C35.3395 40.5087 35.037 41.719 35.037 43C35.037 47.3978 38.6022 50.963 43 50.963ZM47.7778 43C47.7778 45.6387 45.6387 47.7778 43 47.7778C40.3613 47.7778 38.2222 45.6387 38.2222 43C38.2222 40.3613 40.3613 38.2222 43 38.2222C45.6387 38.2222 47.7778 40.3613 47.7778 43Z" fill="white"/>
<path d="M6.37037 43C6.37037 42.1204 7.0834 41.4074 7.96296 41.4074H11.5463C12.4259 41.4074 13.1389 42.1204 13.1389 43C13.1389 43.8796 12.4259 44.5926 11.5463 44.5926H7.96296C7.0834 44.5926 6.37037 43.8796 6.37037 43Z" fill="white"/>
<path d="M74.0556 41.4074C73.176 41.4074 72.463 42.1204 72.463 43C72.463 43.8796 73.176 44.5926 74.0556 44.5926H77.6389C78.5184 44.5926 79.2315 43.8796 79.2315 43C79.2315 42.1204 78.5184 41.4074 77.6389 41.4074H74.0556Z" fill="white"/>
<path d="M43 14.7315C42.1204 14.7315 41.4074 14.0185 41.4074 13.1389V9.55556C41.4074 8.67599 42.1204 7.96296 43 7.96296C43.8796 7.96296 44.5926 8.67599 44.5926 9.55556V13.1389C44.5926 14.0185 43.8796 14.7315 43 14.7315Z" fill="white"/>
<path d="M41.4074 77.6389C41.4074 78.5184 42.1204 79.2315 43 79.2315C43.8796 79.2315 44.5926 78.5184 44.5926 77.6389V74.0556C44.5926 73.176 43.8796 72.463 43 72.463C42.1204 72.463 41.4074 73.176 41.4074 74.0556V77.6389Z" fill="white"/>
<path fill-rule="evenodd" clip-rule="evenodd" d="M43 86C66.7482 86 86 66.7482 86 43C86 19.2518 66.7482 0 43 0C19.2518 0 0 19.2518 0 43C0 66.7482 19.2518 86 43 86ZM82.8148 43C82.8148 64.9891 64.9891 82.8148 43 82.8148C21.0109 82.8148 3.18519 64.9891 3.18519 43C3.18519 21.0109 21.0109 3.18519 43 3.18519C64.9891 3.18519 82.8148 21.0109 82.8148 43Z" fill="white"/>
</svg>
