<svg width="111" height="138" viewBox="0 0 111 138" fill="none" xmlns="http://www.w3.org/2000/svg">
<path d="M46.6056 30.6754V15.1758C34.6056 15.1758 4.10555 21.1759 2.10555 55.1757C1.27222 63.009 5.00553 81.5758 26.6055 95.1758V104.176" stroke="white" stroke-width="4" stroke-linecap="round"/>
<path d="M62.1055 104.176V95.1759C83.7055 81.5759 86.6055 65.6758 86.6055 55.6758H73.6055" stroke="white" stroke-width="4" stroke-linecap="round"/>
<rect x="22.1055" y="104.176" width="45" height="9" rx="4" stroke="white" stroke-width="4"/>
<rect x="27.1055" y="113.176" width="35" height="9" rx="4" stroke="white" stroke-width="4"/>
<path d="M2.60547 55.676H20.1055C20.1055 52.8427 21.7888 47.1759 26.6055 47.1758C31.6055 47.1756 33.1055 52.6758 33.1055 55.676" stroke="white" stroke-width="4" stroke-linecap="square"/>
<path d="M73.6055 55.676C73.6055 52.6758 72.1055 47.1756 67.1055 47.1758C62.2888 47.1759 60.6055 52.8427 60.6055 55.676H43.1055H33.1055" stroke="white" stroke-width="4" stroke-linecap="square"/>
<path d="M46.6058 31.1752C43.6055 31.1884 38.1121 32.7127 38.1343 37.7127C38.1557 42.5293 43.8299 44.1876 46.6632 44.1751L46.7405 61.6749L46.7405 69.1755" stroke="white" stroke-width="4" stroke-linecap="square"/>
<path d="M68.6634 26.1764C65.8301 26.1889 60.156 24.5306 60.1345 19.714C60.1123 14.7141 65.6058 13.1898 68.606 13.1766L68.6479 5.1612C68.6565 3.51048 69.9971 2.17686 71.6478 2.17686L105.606 2.17686C107.263 2.17686 108.606 3.52 108.606 5.17686L108.606 34.6769C108.606 36.3337 107.263 37.6769 105.606 37.6769L96.1059 37.6769" stroke="white" stroke-width="4" stroke-linecap="square"/>
<path d="M96.1055 37.676C96.1055 34.6758 94.6055 29.1756 89.6055 29.1758C84.7888 29.1759 83.1055 34.8427 83.1055 37.676H69.1055V26.1758" stroke="white" stroke-width="4" stroke-linecap="square"/>
<path d="M46.6058 69.1772C43.6056 69.1904 38.1121 70.7147 38.1344 75.7146C38.1558 80.5312 43.83 82.1895 46.6633 82.177L46.7406 99.6769L46.7405 103.177" stroke="white" stroke-width="4" stroke-linecap="square"/>
<path d="M57.1055 121.176C57.1055 125.021 57.5778 128.71 54.8585 131.429C52.1392 134.148 48.4511 135.676 44.6055 135.676C40.7598 135.676 37.0717 134.148 34.3524 131.429C31.6331 128.71 31.6055 125.021 31.6055 121.176" stroke="white" stroke-width="4"/>
</svg>
