<svg width="133" height="125" viewBox="0 0 133 125" fill="none" xmlns="http://www.w3.org/2000/svg">
<circle cx="86.2164" cy="74.9342" r="27.5123" stroke="white" stroke-width="3"/>
<circle cx="86.5" cy="74.5" r="20" stroke="white" stroke-width="3"/>
<path d="M122.996 122.615L123.029 121.14L122.996 122.615C124.109 122.64 125.207 122.446 126.225 122.036C127.244 121.627 128.16 121.012 128.917 120.224C129.673 119.436 130.251 118.496 130.618 117.461C130.986 116.427 131.135 115.322 131.065 114.212C130.996 113.101 130.708 112.006 130.225 110.987C129.745 109.972 129.079 109.048 128.266 108.265L118.882 98.8776C117.92 97.9149 116.364 97.899 115.382 98.8418L107.189 106.71C106.179 107.68 106.163 109.291 107.154 110.281L116.908 120.027L116.918 120.037L116.929 120.048C117.747 120.834 118.702 121.466 119.74 121.907C120.778 122.348 121.884 122.59 122.996 122.615Z" stroke="white" stroke-width="3"/>
<path d="M100.723 99.5137L107.17 105.961" stroke="white" stroke-width="3" stroke-linecap="round"/>
<path d="M107.572 92.6641L114.019 99.1112" stroke="white" stroke-width="3" stroke-linecap="round"/>
<path d="M69.2927 97.0957H41.4893" stroke="white" stroke-width="3" stroke-linecap="round"/>
<path d="M110.796 62.0394V5C110.796 3.34314 109.453 2 107.796 2H5C3.34314 2 2 3.34315 2 5V97.4989H18.9239" stroke="white" stroke-width="3" stroke-linecap="round"/>
<path d="M2.40332 24.1621H110.797" stroke="white" stroke-width="3" stroke-linecap="round"/>
<circle cx="32.2212" cy="13.686" r="1.6118" fill="white"/>
<circle cx="22.5503" cy="13.686" r="1.6118" fill="white"/>
<circle cx="30.6098" cy="97.4985" r="1.6118" fill="white"/>
<circle cx="12.8794" cy="13.686" r="1.6118" fill="white"/>
<path d="M47.1299 13.6855H86.2159" stroke="white" stroke-width="3" stroke-linecap="round"/>
<path d="M15.2969 41.0859H41.8915" stroke="white" stroke-width="3" stroke-linecap="round"/>
<path d="M53.1748 41.0859H63.6515" stroke="white" stroke-width="3" stroke-linecap="round"/>
<path d="M15.2969 53.5781H41.8915" stroke="white" stroke-width="3" stroke-linecap="round"/>
<rect x="13.5732" y="65.957" width="32.4595" height="13.118" rx="6.55898" stroke="white" stroke-width="3"/>
</svg>
