<svg width="92" height="71" viewBox="0 0 92 71" fill="none" xmlns="http://www.w3.org/2000/svg">
<rect x="2" y="6" width="81" height="58" rx="7" stroke="white" stroke-width="4"/>
<path d="M17 2V9" stroke="white" stroke-width="4" stroke-linecap="round"/>
<path d="M34 2V9" stroke="white" stroke-width="4" stroke-linecap="round"/>
<path d="M51 2V9" stroke="white" stroke-width="4" stroke-linecap="round"/>
<path d="M68 2V9" stroke="white" stroke-width="4" stroke-linecap="round"/>
<rect x="10" y="17" width="10" height="8" rx="1" fill="white"/>
<rect x="10" y="31" width="10" height="8" rx="1" fill="white"/>
<rect x="10" y="45" width="10" height="8" rx="1" fill="white"/>
<rect x="24" y="17" width="10" height="8" rx="1" fill="white"/>
<rect x="24" y="31" width="10" height="8" rx="1" fill="white"/>
<rect x="24" y="45" width="10" height="8" rx="1" fill="white"/>
<rect x="38" y="17" width="10" height="8" rx="1" fill="white"/>
<rect x="38" y="31" width="10" height="8" rx="1" fill="white"/>
<rect x="38" y="45" width="10" height="8" rx="1" fill="white"/>
<rect x="52" y="17" width="10" height="8" rx="1" fill="white"/>
<rect x="52" y="31" width="10" height="8" rx="1" fill="white"/>
<rect x="52" y="45" width="10" height="8" rx="1" fill="white"/>
<rect x="66" y="17" width="10" height="8" rx="1" fill="white"/>
<rect x="66" y="31" width="10" height="8" rx="1" fill="white"/>
<mask id="path-20-outside-1_1509_74" maskUnits="userSpaceOnUse" x="64" y="43" width="28" height="28" fill="black">
<rect fill="white" x="64" y="43" width="28" height="28"/>
<path fill-rule="evenodd" clip-rule="evenodd" d="M89 57C89 63.0751 84.0751 68 78 68C71.9249 68 67 63.0751 67 57C67 50.9249 71.9249 46 78 46C84.0751 46 89 50.9249 89 57ZM78 49C78.5523 49 79 49.4477 79 50V56H85C85.5523 56 86 56.4477 86 57C86 57.5523 85.5523 58 85 58H78C77.4477 58 77 57.5523 77 57V50C77 49.4477 77.4477 49 78 49Z"/>
</mask>
<path fill-rule="evenodd" clip-rule="evenodd" d="M89 57C89 63.0751 84.0751 68 78 68C71.9249 68 67 63.0751 67 57C67 50.9249 71.9249 46 78 46C84.0751 46 89 50.9249 89 57ZM78 49C78.5523 49 79 49.4477 79 50V56H85C85.5523 56 86 56.4477 86 57C86 57.5523 85.5523 58 85 58H78C77.4477 58 77 57.5523 77 57V50C77 49.4477 77.4477 49 78 49Z" fill="#222222"/>
<path d="M79 56H76V59H79V56ZM78 71C85.732 71 92 64.732 92 57H86C86 61.4183 82.4183 65 78 65V71ZM64 57C64 64.732 70.268 71 78 71V65C73.5817 65 70 61.4183 70 57H64ZM78 43C70.268 43 64 49.268 64 57H70C70 52.5817 73.5817 49 78 49V43ZM92 57C92 49.268 85.732 43 78 43V49C82.4183 49 86 52.5817 86 57H92ZM82 50C82 47.7909 80.2091 46 78 46V52C76.8954 52 76 51.1046 76 50H82ZM82 56V50H76V56H82ZM79 59H85V53H79V59ZM85 59C83.8954 59 83 58.1046 83 57H89C89 54.7909 87.2091 53 85 53V59ZM83 57C83 55.8954 83.8954 55 85 55V61C87.2091 61 89 59.2091 89 57H83ZM85 55H78V61H85V55ZM74 57C74 59.2091 75.7909 61 78 61V55C79.1046 55 80 55.8954 80 57H74ZM74 50V57H80V50H74ZM78 46C75.7909 46 74 47.7909 74 50H80C80 51.1046 79.1046 52 78 52V46Z" fill="white" mask="url(#path-20-outside-1_1509_74)"/>
</svg>
