<svg width="45" height="48" viewBox="0 0 45 48" fill="none" xmlns="http://www.w3.org/2000/svg">
<mask id="path-1-inside-1_322_466" fill="white">
<path fill-rule="evenodd" clip-rule="evenodd" d="M19.4922 0C18.3876 0 17.4922 0.895431 17.4922 2V7.27022C15.0347 7.97408 12.7998 9.20478 10.9175 10.8323L6.58559 8.00825C5.66028 7.40503 4.42116 7.66613 3.81794 8.59143L0.432008 13.7852C-0.171216 14.7105 0.0898855 15.9497 1.01519 16.5529L5.4883 19.469C5.0998 20.9135 4.89259 22.4324 4.89259 23.9996C4.89259 25.6191 5.11383 27.1869 5.52774 28.6744L0.950577 31.4967C0.0103741 32.0764 -0.281844 33.3086 0.297892 34.2488L3.55197 39.5262C4.13171 40.4664 5.36386 40.7586 6.30407 40.1789L11.031 37.2642C12.8894 38.8435 15.0839 40.0392 17.4922 40.729V46C17.4922 47.1046 18.3876 48 19.4922 48H25.6922C26.7968 48 27.6922 47.1046 27.6922 46V40.5455C29.7231 39.8832 31.5898 38.8573 33.2154 37.5448L37.8744 40.582C38.7997 41.1853 40.0388 40.9242 40.642 39.9989L44.028 34.8051C44.6312 33.8797 44.3701 32.6406 43.4448 32.0374L38.9341 29.0968C39.4272 27.4847 39.6926 25.7732 39.6926 23.9996C39.6926 22.5846 39.5237 21.209 39.2049 19.892L43.7566 17.0854C44.6968 16.5057 44.989 15.2735 44.4093 14.3333L41.1552 9.0559C40.5754 8.1157 39.3433 7.82348 38.4031 8.40322L33.9942 11.1218C32.1967 9.48754 30.0556 8.22446 27.6922 7.45368V2C27.6922 0.895431 26.7968 0 25.6922 0H19.4922Z"/>
</mask>
<path d="M17.4922 7.27022L18.0429 9.19291L19.4922 8.77781V7.27022H17.4922ZM10.9175 10.8323L9.82529 12.5077L11.0866 13.33L12.2256 12.3452L10.9175 10.8323ZM6.58559 8.00825L5.49335 9.68367L5.49335 9.68367L6.58559 8.00825ZM3.81794 8.59143L5.49335 9.68367L5.49335 9.68367L3.81794 8.59143ZM0.432008 13.7852L2.10743 14.8775L2.10743 14.8775L0.432008 13.7852ZM1.01519 16.5529L-0.0770415 18.2283L-0.0770409 18.2283L1.01519 16.5529ZM5.4883 19.469L7.41967 19.9884L7.79673 18.5864L6.58054 17.7936L5.4883 19.469ZM5.52774 28.6744L6.57744 30.3768L7.85775 29.5873L7.45454 28.1383L5.52774 28.6744ZM0.950577 31.4967L-0.0991268 29.7943L-0.0991289 29.7943L0.950577 31.4967ZM0.297892 34.2488L2.00028 33.1991L2.00028 33.1991L0.297892 34.2488ZM3.55197 39.5262L5.25436 38.4765L5.25436 38.4765L3.55197 39.5262ZM6.30407 40.1789L5.25436 38.4765L6.30407 40.1789ZM11.031 37.2642L12.3262 35.7402L11.2186 34.7989L9.98132 35.5618L11.031 37.2642ZM17.4922 40.729H19.4922V39.2214L18.0429 38.8063L17.4922 40.729ZM27.6922 40.5455L27.0721 38.6441L25.6922 39.0941V40.5455H27.6922ZM33.2154 37.5448L34.3077 35.8694L33.09 35.0755L31.959 35.9887L33.2154 37.5448ZM37.8744 40.582L36.7822 42.2575L36.7822 42.2575L37.8744 40.582ZM40.642 39.9989L38.9666 38.9066L38.9666 38.9066L40.642 39.9989ZM44.028 34.8051L42.3525 33.7128L42.3525 33.7128L44.028 34.8051ZM43.4448 32.0374L44.537 30.362L44.537 30.362L43.4448 32.0374ZM38.9341 29.0968L37.0216 28.5117L36.5814 29.9505L37.8419 30.7722L38.9341 29.0968ZM39.2049 19.892L38.1552 18.1896L36.9196 18.9515L37.2611 20.3624L39.2049 19.892ZM43.7566 17.0854L42.7069 15.383L42.7069 15.383L43.7566 17.0854ZM44.4093 14.3333L46.1117 13.2836L46.1117 13.2836L44.4093 14.3333ZM41.1552 9.0559L39.4528 10.1056L39.4528 10.1056L41.1552 9.0559ZM38.4031 8.40322L37.3534 6.70083L37.3534 6.70083L38.4031 8.40322ZM33.9942 11.1218L32.6487 12.6016L33.7625 13.6143L35.0439 12.8242L33.9942 11.1218ZM27.6922 7.45368H25.6922V8.9051L27.0721 9.35512L27.6922 7.45368ZM19.4922 2V2V-2C17.2831 -2 15.4922 -0.209136 15.4922 2H19.4922ZM19.4922 7.27022V2H15.4922V7.27022H19.4922ZM12.2256 12.3452C13.893 10.9035 15.8707 9.81506 18.0429 9.19291L16.9415 5.34753C14.1987 6.13309 11.7066 7.50607 9.6094 9.31943L12.2256 12.3452ZM12.0098 9.1569L7.67782 6.33283L5.49335 9.68367L9.82529 12.5077L12.0098 9.1569ZM7.67782 6.33283C5.82721 5.12638 3.34897 5.64858 2.14252 7.4992L5.49335 9.68367L5.49335 9.68367L7.67782 6.33283ZM2.14252 7.4992L-1.24341 12.693L2.10743 14.8775L5.49335 9.68367L2.14252 7.4992ZM-1.24341 12.693C-2.44986 14.5436 -1.92765 17.0219 -0.0770415 18.2283L2.10743 14.8775L2.10743 14.8775L-1.24341 12.693ZM-0.0770409 18.2283L4.39607 21.1444L6.58054 17.7936L2.10743 14.8775L-0.0770409 18.2283ZM6.89259 23.9996C6.89259 22.6094 7.07631 21.2651 7.41967 19.9884L3.55693 18.9495C3.12328 20.5619 2.89259 22.2554 2.89259 23.9996H6.89259ZM7.45454 28.1383C7.08874 26.8236 6.89259 25.4361 6.89259 23.9996H2.89259C2.89259 25.802 3.13892 27.5501 3.60094 29.2105L7.45454 28.1383ZM2.00028 33.1991L6.57744 30.3768L4.47804 26.972L-0.0991268 29.7943L2.00028 33.1991ZM2.00028 33.1991L2.00028 33.1991L-0.0991289 29.7943C-1.97953 30.9538 -2.56397 33.4181 -1.40449 35.2985L2.00028 33.1991ZM5.25436 38.4765L2.00028 33.1991L-1.4045 35.2985L1.84959 40.5759L5.25436 38.4765ZM5.25436 38.4765L5.25436 38.4765L1.84959 40.5759C3.00906 42.4563 5.47337 43.0407 7.35377 41.8813L5.25436 38.4765ZM9.98132 35.5618L5.25436 38.4765L7.35377 41.8813L12.0807 38.9666L9.98132 35.5618ZM18.0429 38.8063C15.9142 38.1966 13.9723 37.1391 12.3262 35.7402L9.73588 38.7882C11.8065 40.5479 14.2537 41.8819 16.9415 42.6517L18.0429 38.8063ZM19.4922 46V40.729H15.4922V46H19.4922ZM19.4922 46H19.4922H15.4922C15.4922 48.2091 17.2831 50 19.4922 50V46ZM25.6922 46H19.4922V50H25.6922V46ZM25.6922 46V50C27.9013 50 29.6922 48.2091 29.6922 46H25.6922ZM25.6922 40.5455V46H29.6922V40.5455H25.6922ZM31.959 35.9887C30.5192 37.1512 28.8674 38.0586 27.0721 38.6441L28.3123 42.447C30.5788 41.7078 32.6604 40.5635 34.4719 39.1009L31.959 35.9887ZM32.1232 39.2202L36.7822 42.2575L38.9666 38.9066L34.3077 35.8694L32.1232 39.2202ZM36.7822 42.2575C38.6328 43.4639 41.111 42.9417 42.3175 41.0911L38.9666 38.9066L38.9666 38.9066L36.7822 42.2575ZM42.3175 41.0911L45.7034 35.8973L42.3525 33.7128L38.9666 38.9066L42.3175 41.0911ZM45.7034 35.8973C46.9098 34.0467 46.3876 31.5684 44.537 30.362L42.3525 33.7128L42.3525 33.7128L45.7034 35.8973ZM44.537 30.362L40.0263 27.4214L37.8419 30.7722L42.3525 33.7128L44.537 30.362ZM37.6926 23.9996C37.6926 25.5727 37.4574 27.0872 37.0216 28.5117L40.8466 29.6819C41.3971 27.8823 41.6926 25.9736 41.6926 23.9996H37.6926ZM37.2611 20.3624C37.5428 21.5266 37.6926 22.7443 37.6926 23.9996H41.6926C41.6926 22.4249 41.5046 20.8914 41.1488 19.4215L37.2611 20.3624ZM42.7069 15.383L38.1552 18.1896L40.2546 21.5944L44.8063 18.7878L42.7069 15.383ZM42.7069 15.383L42.7069 15.383L44.8063 18.7878C46.6867 17.6283 47.2711 15.164 46.1117 13.2836L42.7069 15.383ZM39.4528 10.1056L42.7069 15.383L46.1117 13.2836L42.8576 8.0062L39.4528 10.1056ZM39.4528 10.1056L39.4528 10.1056L42.8576 8.0062C41.6981 6.12579 39.2338 5.54136 37.3534 6.70083L39.4528 10.1056ZM35.0439 12.8242L39.4528 10.1056L37.3534 6.70083L32.9444 9.41942L35.0439 12.8242ZM27.0721 9.35512C29.1614 10.0365 31.0563 11.1538 32.6487 12.6016L35.3396 9.642C33.337 7.82128 30.9499 6.41244 28.3123 5.55224L27.0721 9.35512ZM25.6922 2V7.45368H29.6922V2H25.6922ZM25.6922 2H25.6922H29.6922C29.6922 -0.209137 27.9013 -2 25.6922 -2V2ZM19.4922 2H25.6922V-2H19.4922V2Z" fill="white" mask="url(#path-1-inside-1_322_466)"/>
<circle cx="22.2025" cy="24.0941" r="6.96132" stroke="white" stroke-width="2"/>
</svg>
