<svg width="106" height="113" viewBox="0 0 106 113" fill="none" xmlns="http://www.w3.org/2000/svg">
<path fill-rule="evenodd" clip-rule="evenodd" d="M81.6502 3.36672C84.0772 -0.174828 88.9223 -1.06556 92.4502 1.38123C96.1203 3.92666 96.8817 9.04084 94.1123 12.545L92.2579 14.8913H99.246C102.836 14.8913 105.746 17.8015 105.746 21.3913V87.3611C105.746 90.951 102.836 93.8611 99.246 93.8611H60.3571L63.36 104.872H67.8181C70.8811 104.872 73.4478 106.996 74.125 109.852H80.2721C81.1006 109.852 81.7721 110.524 81.7721 111.352C81.7721 112.181 81.1006 112.852 80.2721 112.852H24.8516C24.0231 112.852 23.3516 112.181 23.3516 111.352C23.3516 110.524 24.0231 109.852 24.8516 109.852H30.6874C31.3646 106.996 33.9314 104.872 36.9943 104.872H43.0091L46.012 93.8611H6.5C2.91015 93.8611 0 90.9509 0 87.3611V21.3913C0 17.8015 2.91015 14.8913 6.5 14.8913H73.7525L81.6502 3.36672ZM33.8521 109.852H70.9604C70.3998 108.681 69.2034 107.872 67.8181 107.872H36.9943C35.609 107.872 34.4127 108.681 33.8521 109.852ZM57.2475 93.8611L60.2505 104.872H46.1187L49.1216 93.8611H57.2475ZM69.7719 43.3428L89.8869 17.8913H99.246C101.179 17.8913 102.746 19.4583 102.746 21.3913V74.3581H27.9639C27.1354 74.3581 26.4639 75.0297 26.4639 75.8581C26.4639 76.6865 27.1354 77.3581 27.9639 77.3581H102.746V87.3611C102.746 89.2941 101.179 90.8611 99.246 90.8611H6.5C4.56701 90.8611 3 89.2941 3 87.3611V77.3581H11.7748C12.6032 77.3581 13.2748 76.6865 13.2748 75.8581C13.2748 75.0297 12.6032 74.3581 11.7748 74.3581H3V21.3913C3 19.4583 4.567 17.8913 6.5 17.8913H71.6966L59.2366 36.0733C54.6844 36.2057 51.1703 37.3554 48.54 39.2605C45.8169 41.2329 44.167 43.924 43.2607 46.8218C41.4715 52.5422 42.5253 59.2115 43.9776 63.5684C44.1375 64.0482 44.5286 64.4152 45.0177 64.5443C45.5068 64.6734 46.028 64.5474 46.404 64.209C46.7973 63.855 47.759 63.1753 49.2008 62.533C50.7186 61.8567 52.3839 61.5739 54.2071 61.4481C55.1183 61.3853 56.0474 61.3627 57.0101 61.3439L57.3348 61.3377C58.1863 61.3215 59.0653 61.3049 59.9379 61.2607C61.273 61.193 62.6655 61.0465 63.9443 60.7622C65.2027 60.4825 66.4656 60.0449 67.4548 59.3255C71.5378 56.356 71.8553 51.91 71.4883 48.6062L71.4787 48.5194V48.5193L71.4787 48.5191L71.4787 48.5188L71.4786 48.5185C71.4249 48.0278 71.3165 47.0386 71.0313 46.0005C70.8072 45.1845 70.4341 44.1816 69.7719 43.3428ZM67.475 41.4107L73.2558 34.0963L67.293 29.6242L61.9516 37.4185C62.8463 38.0974 63.93 38.8763 65.0149 39.65L65.2233 39.7985L65.5643 40.0415L65.5823 40.0543C66.2451 40.5262 66.8964 40.99 67.475 41.4107ZM75.1166 31.7419L68.9904 27.1473L84.1249 5.06259C85.6115 2.89319 88.5795 2.34756 90.7405 3.84637C92.9887 5.40559 93.4551 8.53832 91.7586 10.6848L75.1166 31.7419ZM18.6233 77.1048C19.3112 77.1048 19.8687 76.5472 19.8687 75.8594C19.8687 75.1716 19.3112 74.614 18.6233 74.614C17.9355 74.614 17.3779 75.1716 17.3779 75.8594C17.3779 76.5472 17.9355 77.1048 18.6233 77.1048ZM47.9799 59.7926C47.3391 60.0781 46.7608 60.3779 46.2534 60.6731C45.2645 56.7991 44.8267 51.8646 46.1239 47.7173C46.8755 45.3143 48.1951 43.2146 50.2998 41.6901C52.3187 40.2279 55.1749 39.2117 59.1989 39.0759C60.2978 39.9618 61.842 41.072 63.273 42.0925L63.8243 42.4854C65.289 43.5289 66.5544 44.4304 67.169 44.9426C67.5577 45.2664 67.8957 45.9114 68.1385 46.7951C68.3586 47.5964 68.4448 48.3773 68.4987 48.8659L68.5066 48.9375C68.8314 51.8607 68.457 54.8871 65.6903 56.8993C65.1785 57.2715 64.3719 57.5939 63.2932 57.8337C62.2349 58.069 61.0226 58.2018 59.786 58.2645C58.9643 58.3062 58.1352 58.3219 57.278 58.3382L56.9516 58.3445C55.9886 58.3632 54.9934 58.3868 54.0007 58.4552C52.0161 58.5921 49.955 58.9127 47.9799 59.7926Z" fill="white"/>
</svg>
