<svg width="125" height="124" viewBox="0 0 125 124" fill="none" xmlns="http://www.w3.org/2000/svg">
<path fill-rule="evenodd" clip-rule="evenodd" d="M28.5215 122.373C28.5215 123.202 27.8499 123.873 27.0215 123.873C26.1931 123.873 25.5215 123.202 25.5215 122.373V95.1623H1.5C0.671573 95.1623 0 94.4907 0 93.6623C0 92.8338 0.671573 92.1623 1.5 92.1623H25.5215V42.7013H2.20898C1.38056 42.7013 0.708984 42.0298 0.708984 41.2013C0.708984 40.3729 1.38056 39.7013 2.20898 39.7013H25.5215V26.0412H1.85449C1.02607 26.0412 0.354492 25.3696 0.354492 24.5412C0.354492 23.7127 1.02607 23.0412 1.85449 23.0412H25.5215V1.5C25.5215 0.671577 26.1931 0 27.0215 0C27.8499 0 28.5215 0.671577 28.5215 1.5V23.0412H50.8642C51.2605 22.706 51.82 22.5859 52.3433 22.7747C52.5167 22.8373 52.6715 22.9285 52.8044 23.0412H96.415V1.5C96.415 0.671577 97.0866 0 97.915 0C98.7435 0 99.415 0.671577 99.415 1.5V23.0412H122.728C123.556 23.0412 124.228 23.7127 124.228 24.5412C124.228 25.3696 123.556 26.0412 122.728 26.0412H99.415V39.7013H123.082C123.911 39.7013 124.582 40.3729 124.582 41.2013C124.582 42.0298 123.911 42.7013 123.082 42.7013H99.415V92.1623H122.373C123.202 92.1623 123.873 92.8338 123.873 93.6623C123.873 94.4907 123.202 95.1623 122.373 95.1623H99.415V122.373C99.415 123.202 98.7435 123.873 97.915 123.873C97.0866 123.873 96.415 123.202 96.415 122.373V95.1623H28.5215V122.373ZM49.57 26.0412H28.5215V39.7013H44.6411L49.57 26.0412ZM47.8304 39.7013L52.7593 26.0412H96.415V39.7013H47.8304ZM43.5586 42.7013H28.5215V84.3756L43.5586 42.7013ZM28.9012 92.1623L46.7479 42.7013H60.1197L51.8371 66.2238C51.6755 66.6828 51.7466 67.1917 52.0278 67.5888C52.309 67.9859 52.7653 68.222 53.252 68.222H70.9753C71.4619 68.222 71.9183 67.9859 72.1995 67.5888C72.4807 67.1917 72.5518 66.6828 72.3902 66.2238L64.1076 42.7013H96.415V92.1623H80.4359L75.5734 78.964C75.3561 78.3743 74.7943 77.9826 74.1659 77.9826H49.3532C48.7119 77.9826 48.1415 78.3903 47.9339 78.997L43.43 92.1623H28.9012ZM62.1136 46.0712L68.8569 65.222H55.3704L62.1136 46.0712ZM77.2388 92.1623H46.6007L50.4254 80.9826H73.1199L77.2388 92.1623Z" fill="white"/>
</svg>
