<svg width="114" height="105" viewBox="0 0 114 105" fill="none" xmlns="http://www.w3.org/2000/svg">
<path d="M63.0273 33.1344C63.4116 32.9813 63.9897 32.9214 64.6734 32.9549C65.3324 32.9873 65.971 33.0995 66.4023 33.195C67.3479 33.4043 67.7468 33.8229 68.2833 34.3859C68.3931 34.5012 68.5087 34.6225 68.636 34.7493C69.1311 35.2427 69.934 35.2428 70.4292 34.7496C70.9245 34.2564 70.9246 33.4566 70.4295 32.9632C70.3599 32.8938 70.2829 32.8109 70.197 32.7184C69.6418 32.1206 68.7107 31.118 66.9524 30.7288C66.7033 30.6736 66.3926 30.6126 66.0433 30.5595V28.5247C66.0433 27.8271 65.4756 27.2615 64.7753 27.2615C64.0751 27.2615 63.5074 27.8271 63.5074 28.5247V30.4585C63.0288 30.5073 62.5408 30.6073 62.0855 30.7887C61.0933 31.1841 60.3864 32.0204 59.9509 32.6817C59.5444 33.2989 59.2347 33.9798 59.117 34.4541L59.1161 34.4567C59.0632 34.6047 58.9627 34.8856 58.9377 35.3612C58.9137 35.8172 58.953 36.4612 59.0817 37.4867C59.1271 37.8483 59.2183 38.1881 59.3479 38.5048C60.2004 40.5873 62.3271 41.0884 63.7951 41.3995C63.9922 41.4413 64.1823 41.4801 64.3666 41.5176C64.9631 41.6393 65.4988 41.7485 66.0165 41.9077C66.6736 42.1098 67.1576 42.3542 67.5035 42.6829C67.626 42.7993 67.7395 42.9317 67.8413 43.0838C68.3601 43.8591 68.4864 44.4774 68.4771 44.94C68.4676 45.4166 68.3113 45.8308 68.1124 46.1776C67.3798 47.4548 66.1889 48.3833 64.4584 48.3833C63.6715 48.3833 62.8971 48.0538 62.2044 47.5561C61.5115 47.0583 60.9971 46.4602 60.7584 46.1036C60.37 45.5231 59.5827 45.3663 59.0001 45.7533C58.4174 46.1402 58.2599 46.9245 58.6484 47.505C59.0437 48.0958 59.7656 48.9188 60.7211 49.6052C61.4675 50.1414 62.4155 50.6358 63.5074 50.8265V52.5252C63.5074 53.2229 64.0751 53.7884 64.7753 53.7884C65.4756 53.7884 66.0433 53.2229 66.0433 52.5252V50.7305C68.0308 50.2632 69.4497 48.9383 70.3142 47.431C70.6586 46.8307 70.9922 46.0033 71.0126 44.9906C71.0332 43.9639 70.7294 42.8452 69.9513 41.6825C69.7426 41.3705 69.5074 41.0957 69.2538 40.8547C68.5085 40.1466 67.6072 39.7528 66.7644 39.4937C66.1161 39.2944 65.4156 39.152 64.7985 39.0265L64.7968 39.0261C64.632 38.9926 64.4732 38.9603 64.3228 38.9285C62.6928 38.583 61.9824 38.2503 61.6961 37.5508C61.6497 37.4374 61.6156 37.3129 61.5981 37.1733C61.4731 36.1777 61.4584 35.7165 61.4702 35.4935C61.4751 35.3995 61.484 35.368 61.4845 35.3661C61.4893 35.3478 61.49 35.346 61.4939 35.3358C61.4989 35.3228 61.5093 35.2958 61.5403 35.2031L61.5653 35.1285L61.5808 35.0514C61.5807 35.0516 61.5809 35.0511 61.5812 35.0498C61.5854 35.0353 61.6174 34.9243 61.7063 34.7279C61.795 34.5318 61.9188 34.2989 62.0712 34.0677C62.4017 33.5659 62.7515 33.2443 63.0273 33.1344Z" fill="white"/>
<path d="M47.6582 72.1046C47.6582 72.8023 47.0905 73.3678 46.3902 73.3678C45.6899 73.3678 45.1222 72.8023 45.1222 72.1046C45.1222 71.407 45.6899 70.8414 46.3902 70.8414C47.0905 70.8414 47.6582 71.407 47.6582 72.1046Z" fill="white"/>
<path fill-rule="evenodd" clip-rule="evenodd" d="M73.2261 0.597504C68.0236 -0.178981 60.8586 -0.222208 55.3222 0.606607C53.9899 0.806064 53.3274 2.26013 53.9562 3.38768L57.8106 10.2994C56.9028 10.7595 56.0705 11.2945 55.359 11.8781C54.2194 12.8128 53.2631 13.9758 52.9041 15.2896C52.5932 16.427 52.761 17.5753 53.4542 18.5941C48.5275 21.4243 44.2346 26.1641 41.0747 31.5724C37.5655 37.5787 35.3729 44.5459 35.2968 50.9207C32.8317 51.636 29.4036 52.8787 26.6842 54.6203C23.1383 56.8911 19.1931 61.0705 17.4429 63.117L17.3181 62.9934C15.8283 61.5177 13.4198 61.5245 11.9385 63.0086L1.10653 73.861C-0.374784 75.3451 -0.367949 77.7445 1.12179 79.2202L26.0339 103.898C27.5236 105.373 29.9321 105.367 31.4134 103.882L42.2454 93.0301C43.7267 91.546 43.7199 89.1466 42.2302 87.6708L40.8619 86.3155H74.5779C77.9708 86.3155 81.2357 85.025 83.7057 82.7077L110.498 57.5711C112.066 56.1009 113.985 54.0198 114 51.2801C114.011 49.2516 113.266 46.9056 110.843 45.1814C107.934 43.1118 104.708 43.7348 101.876 45.0513C99.6578 46.0828 97.4218 47.6638 95.4514 49.057L95.4414 49.0641C95.2383 49.2077 95.038 49.3493 94.8408 49.4881C94.5048 43.3506 92.4589 36.7606 89.1 31.0662C85.7754 25.4299 81.1041 20.5724 75.4049 17.9362C75.7995 17.196 75.9256 16.3772 75.7697 15.5276C75.5229 14.1819 74.607 12.9798 73.5098 12.0218C72.6439 11.2657 71.5728 10.5809 70.3914 10.0276L74.5386 3.46578C75.2504 2.33951 74.605 0.803305 73.2261 0.597504ZM67.9625 9.12916L71.861 2.96073C67.3011 2.39143 61.4166 2.36651 56.6279 2.97647L60.1726 9.33264C61.5673 8.88758 63.0372 8.62953 64.4604 8.62953C65.6208 8.62953 66.811 8.8106 67.9625 9.12916ZM55.351 15.9533C55.2192 16.4354 55.278 16.9113 55.7584 17.4338C61.1713 15.0928 67.4934 15.1189 73.0142 16.9838C73.3012 16.6188 73.331 16.2864 73.2751 15.9818C73.1744 15.4327 72.7304 14.7006 71.8383 13.9217C70.0671 12.3752 67.112 11.1559 64.4604 11.1559C61.7916 11.1559 58.824 12.3086 56.9709 13.8285C56.041 14.5912 55.5178 15.3427 55.351 15.9533ZM56.4485 19.8932C61.4213 17.6266 67.4354 17.6468 72.6624 19.5381C78.5034 21.6516 83.4317 26.4431 86.9136 32.3461C90.382 38.2262 92.3415 45.0891 92.3539 51.2045L78.6423 60.6187C77.5003 58.7923 75.6562 57.8131 73.7248 57.2887C71.5095 56.6872 68.9952 56.6302 66.8624 56.6302H61.1783C57.4831 53.079 48.9381 48.0714 37.8489 50.2842C38.0578 44.5995 40.0588 38.3334 43.2665 32.8432C46.6636 27.0289 51.3301 22.2261 56.4485 19.8932ZM77.3275 70.2933C78.9636 68.5128 80.4678 65.8283 79.6495 62.9954L95.3969 52.1836C95.9375 51.8123 96.4811 51.4285 97.0271 51.0429L97.0321 51.0394C98.9809 49.6631 100.961 48.2651 102.949 47.3406C105.466 46.1702 107.574 45.9599 109.369 47.2372C111.001 48.3984 111.471 49.8989 111.464 51.2667C111.456 52.8331 110.339 54.25 108.76 55.732L81.9671 80.8685C79.9676 82.7445 77.3245 83.7891 74.5779 83.7891H38.3115L19.2469 64.9041C20.8731 62.9796 24.7405 58.8684 28.0555 56.7454C31.4207 54.5903 36.1534 53.2201 38.0919 52.8135C48.4587 50.6395 56.3898 55.4443 59.5738 58.6008C59.9296 58.9535 60.4112 59.1565 60.9229 59.1565H66.8624C69.0048 59.1565 71.2072 59.2237 73.058 59.7262C74.8824 60.2215 76.174 61.0839 76.8024 62.5554C76.9392 62.8757 77.0707 63.2333 77.1943 63.6334C77.6801 65.2064 76.904 67.0126 75.4569 68.5874C74.1075 70.056 71.9225 70.5252 69.4515 70.5252H54.9485C54.2482 70.5252 53.6805 71.0907 53.6805 71.7884C53.6805 72.486 54.2482 73.0516 54.9485 73.0516H69.4515C72.0925 73.0516 75.2252 72.5812 77.3275 70.2933ZM40.4421 89.4623C40.9386 89.9542 40.9409 90.754 40.4471 91.2487L29.6152 102.101C29.1214 102.596 28.3186 102.598 27.822 102.106L2.9099 77.4287C2.41332 76.9368 2.41104 76.137 2.90481 75.6423L13.7368 64.7899C14.2306 64.2952 15.0334 64.293 15.53 64.7849L40.4421 89.4623Z" fill="white"/>
</svg>
