<svg width="89" height="101" viewBox="0 0 89 101" fill="none" xmlns="http://www.w3.org/2000/svg">
<path fill-rule="evenodd" clip-rule="evenodd" d="M85.2213 13.7197C85.2213 14.2129 84.895 15.2366 82.9844 16.6458C81.1333 18.011 78.2628 19.3666 74.446 20.5573C66.8483 22.9272 56.1681 24.4396 44.2396 24.4396C32.311 24.4396 21.6309 22.9272 14.0331 20.5573C10.2164 19.3666 7.34587 18.011 5.49477 16.6458C3.58417 15.2366 3.25781 14.2129 3.25781 13.7197C3.25781 13.2266 3.58417 12.2029 5.49477 10.7938C7.34587 9.42859 10.2164 8.073 14.0331 6.88232C21.6309 4.51233 32.311 3 44.2396 3C56.1681 3 66.8483 4.51233 74.446 6.88232C78.2628 8.073 81.1333 9.42859 82.9844 10.7938C84.895 12.2029 85.2213 13.2266 85.2213 13.7197ZM88.2213 13.7197C88.2213 14.1873 88.1464 14.6493 88 15.1047V86C88 88.4062 86.461 90.4957 84.1588 92.2045C81.8321 93.9313 78.5225 95.4336 74.4928 96.6725C70.4536 97.9142 66.1831 98.8275 60.9535 99.4934C55.7299 100.159 50.1399 100.5 44.5 100.5C38.8601 100.5 33.2701 100.159 28.0465 99.4934C22.8257 98.8286 18.0536 97.851 14.0072 96.6071C9.97754 95.3682 6.66789 93.8658 4.34116 92.139C2.03896 90.4303 0.5 88.3408 0.5 85.9346V75.9102V61.1045V49.7822V36.7188V25.3965V15.1682C0.339897 14.6923 0.257812 14.209 0.257812 13.7197C0.257812 6.14258 19.9491 0 44.2396 0C68.53 0 88.2213 6.14258 88.2213 13.7197ZM44.2396 27.4396C62.6746 27.4396 78.4606 23.9015 85 18.8833V36.7188H84.9798C84.9798 37.7609 84.3069 39.0677 82.367 40.5161C80.4543 41.9443 77.54 43.3247 73.6648 44.5233C65.9272 46.9164 55.3414 48.2826 44.2399 48.2826C33.1384 48.2826 22.5526 46.9164 14.815 44.5233C10.9398 43.3247 8.0255 41.9443 6.11275 40.5161C4.17284 39.0677 3.5 37.7609 3.5 36.7188V30.9421C3.76028 31.1669 4.03347 31.3854 4.31789 31.5978C6.61066 33.3097 9.88229 34.8157 13.9286 36.067C14.72 36.3119 15.56 35.8687 15.8048 35.0773C16.0496 34.2858 15.6064 33.4458 14.815 33.201C10.9398 32.0024 8.02549 30.6221 6.11275 29.1938C4.17284 27.7455 3.5 26.4386 3.5 25.3965V18.8993C10.0521 23.9089 25.8241 27.4396 44.2396 27.4396ZM84.1619 42.92C84.4537 42.7021 84.7337 42.4777 85 42.2468V61.1045H84.9798C84.9798 62.3046 84.2577 63.7284 82.33 65.2638C80.4177 66.7869 77.5072 68.257 73.6381 69.5334C65.9101 72.0829 55.3341 73.5393 44.2399 73.5393C33.1457 73.5393 22.5697 72.0829 14.8417 69.5334C10.9726 68.257 8.06211 66.7869 6.14982 65.2638C4.22207 63.7284 3.5 62.3046 3.5 61.1045V55.3279C3.76028 55.5526 4.03347 55.7711 4.31789 55.9835C6.61066 57.6954 9.88229 59.2014 13.9286 60.4528C14.72 60.6976 15.56 60.2544 15.8048 59.463C16.0496 58.6715 15.6064 57.8315 14.815 57.5868C10.9398 56.3882 8.02549 55.0078 6.11275 53.5796C4.17284 52.1312 3.5 50.8243 3.5 49.7822V42.2644C3.76028 42.4891 4.03347 42.7076 4.31789 42.92C6.61066 44.632 9.88229 46.1379 13.9286 47.3893C22.034 49.8961 32.936 51.2826 44.2399 51.2826C55.5438 51.2826 66.4458 49.8961 74.5512 47.3893C78.5975 46.1379 81.8691 44.632 84.1619 42.92ZM84.199 67.6105C84.4781 67.3882 84.7455 67.1603 85 66.9266V86C85 87.0254 84.3404 88.3337 82.3709 89.7954C80.426 91.2389 77.4746 92.6172 73.6113 93.8049C69.7575 94.9896 65.6576 95.8702 60.5746 96.5175C55.4855 97.1655 50.0224 97.5 44.5 97.5C38.9776 97.5 33.5145 97.1655 28.4254 96.5175C23.3335 95.869 18.7353 94.922 14.8887 93.7395C11.0254 92.5518 8.07399 91.1735 6.12908 89.73C4.15962 88.2683 3.5 86.96 3.5 85.9346V81.4558C3.76028 81.6805 4.03347 81.899 4.31789 82.1115C6.61066 83.8234 9.88229 85.3293 13.9286 86.5807C14.72 86.8256 15.56 86.3823 15.8048 85.5909C16.0496 84.7994 15.6064 83.9595 14.815 83.7147C10.9398 82.5161 8.02549 81.1357 6.11275 79.7075C4.17284 78.2592 3.5 76.9523 3.5 75.9102V66.9451C3.74843 67.1722 4.00912 67.394 4.28083 67.6105C6.57404 69.4369 9.84946 71.0455 13.9018 72.3823C22.0169 75.0596 32.9286 76.5393 44.2399 76.5393C55.5511 76.5393 66.4629 75.0596 74.5779 72.3823C78.6303 71.0455 81.9058 69.4369 84.199 67.6105ZM20.2887 37.5891C21.2507 37.5891 22.0306 36.8093 22.0306 35.8473C22.0306 34.8854 21.2507 34.1055 20.2887 34.1055C19.3267 34.1055 18.5469 34.8854 18.5469 35.8473C18.5469 36.8093 19.3267 37.5891 20.2887 37.5891ZM22.0306 60.233C22.0306 61.1951 21.2507 61.9749 20.2887 61.9749C19.3267 61.9749 18.5469 61.1951 18.5469 60.233C18.5469 59.2711 19.3267 58.4912 20.2887 58.4912C21.2507 58.4912 22.0306 59.2711 22.0306 60.233ZM20.2887 88.1038C21.2507 88.1038 22.0306 87.324 22.0306 86.3619C22.0306 85.4 21.2507 84.6201 20.2887 84.6201C19.3267 84.6201 18.5469 85.4 18.5469 86.3619C18.5469 87.324 19.3267 88.1038 20.2887 88.1038Z" fill="white"/>
</svg>
