<svg width="134" height="124" viewBox="0 0 134 124" fill="none" xmlns="http://www.w3.org/2000/svg">
<path fill-rule="evenodd" clip-rule="evenodd" d="M97.1758 4.5C97.1758 3.67157 97.8474 3 98.6758 3H106.831L113.836 7.03034C114.215 7.24856 114.645 7.36341 115.083 7.36341H128.789C129.617 7.36341 130.289 8.03498 130.289 8.86341V25.4077C130.289 26.2361 129.617 26.9077 128.789 26.9077H98.6758C97.8474 26.9077 97.1758 26.2361 97.1758 25.4077V4.5ZM98.6758 0C96.1905 0 94.1758 2.01472 94.1758 4.5V25.4077C94.1758 27.893 96.1905 29.9077 98.6758 29.9077H128.789C131.274 29.9077 133.289 27.893 133.289 25.4077V8.86341C133.289 6.37813 131.274 4.36341 128.789 4.36341H115.216L108.212 0.333076C107.832 0.114852 107.402 0 106.965 0H98.6758ZM103.758 14.9541C103.206 14.9541 102.758 15.4018 102.758 15.9541V18.2027C102.758 18.755 103.206 19.2027 103.758 19.2027H106.006C106.559 19.2027 107.006 18.755 107.006 18.2027V15.9541C107.006 15.4018 106.559 14.9541 106.006 14.9541H103.758ZM111.961 15.9541C111.961 15.4018 112.409 14.9541 112.961 14.9541H115.21C115.762 14.9541 116.21 15.4018 116.21 15.9541V18.2027C116.21 18.755 115.762 19.2027 115.21 19.2027H112.961C112.409 19.2027 111.961 18.755 111.961 18.2027V15.9541ZM122.168 14.9541C121.616 14.9541 121.168 15.4018 121.168 15.9541V18.2027C121.168 18.755 121.616 19.2027 122.168 19.2027H124.417C124.969 19.2027 125.417 18.755 125.417 18.2027V15.9541C125.417 15.4018 124.969 14.9541 124.417 14.9541H122.168ZM97.1758 51.2344C97.1758 50.4059 97.8474 49.7344 98.6758 49.7344H106.831L113.836 53.7647C114.215 53.9829 114.645 54.0978 115.083 54.0978H128.789C129.617 54.0978 130.289 54.7694 130.289 55.5978V72.1421C130.289 72.9705 129.617 73.6421 128.789 73.6421H98.6758C97.8474 73.6421 97.1758 72.9705 97.1758 72.1421V51.2344ZM98.6758 46.7344C96.1905 46.7344 94.1758 48.7491 94.1758 51.2344V72.1421C94.1758 74.6274 96.1905 76.6421 98.6758 76.6421H128.789C131.274 76.6421 133.289 74.6274 133.289 72.1421V55.5978C133.289 53.1125 131.274 51.0978 128.789 51.0978H115.216L108.212 47.0675C107.832 46.8492 107.402 46.7344 106.965 46.7344H98.6758ZM103.758 61.6885C103.206 61.6885 102.758 62.1362 102.758 62.6885V64.9371C102.758 65.4893 103.206 65.9371 103.758 65.9371H106.006C106.559 65.9371 107.006 65.4893 107.006 64.9371V62.6885C107.006 62.1362 106.559 61.6885 106.006 61.6885H103.758ZM111.961 62.6885C111.961 62.1362 112.409 61.6885 112.961 61.6885H115.21C115.762 61.6885 116.21 62.1362 116.21 62.6885V64.9371C116.21 65.4893 115.762 65.9371 115.21 65.9371H112.961C112.409 65.9371 111.961 65.4893 111.961 64.9371V62.6885ZM122.168 61.6885C121.616 61.6885 121.168 62.1362 121.168 62.6885V64.9371C121.168 65.4893 121.616 65.9371 122.168 65.9371H124.417C124.969 65.9371 125.417 65.4893 125.417 64.9371V62.6885C125.417 62.1362 124.969 61.6885 124.417 61.6885H122.168ZM98.6758 96.4678C97.8474 96.4678 97.1758 97.1393 97.1758 97.9678V118.875C97.1758 119.704 97.8474 120.375 98.6758 120.375H128.789C129.617 120.375 130.289 119.704 130.289 118.875V102.331C130.289 101.503 129.617 100.831 128.789 100.831H115.083C114.645 100.831 114.215 100.716 113.836 100.498L106.831 96.4678H98.6758ZM94.1758 97.9678C94.1758 95.4825 96.1905 93.4678 98.6758 93.4678H106.965C107.402 93.4678 107.832 93.5826 108.212 93.8008L115.216 97.8312H128.789C131.274 97.8312 133.289 99.8459 133.289 102.331V118.875C133.289 121.361 131.274 123.375 128.789 123.375H98.6758C96.1905 123.375 94.1758 121.361 94.1758 118.875V97.9678ZM102.758 109.422C102.758 108.87 103.206 108.422 103.758 108.422H106.006C106.559 108.422 107.006 108.87 107.006 109.422V111.67C107.006 112.223 106.559 112.67 106.006 112.67H103.758C103.206 112.67 102.758 112.223 102.758 111.67V109.422ZM112.961 108.422C112.409 108.422 111.961 108.87 111.961 109.422V111.67C111.961 112.223 112.409 112.67 112.961 112.67H115.21C115.762 112.67 116.21 112.223 116.21 111.67V109.422C116.21 108.87 115.762 108.422 115.21 108.422H112.961ZM121.168 109.422C121.168 108.87 121.616 108.422 122.168 108.422H124.417C124.969 108.422 125.417 108.87 125.417 109.422V111.67C125.417 112.223 124.969 112.67 124.417 112.67H122.168C121.616 112.67 121.168 112.223 121.168 111.67V109.422ZM74.3516 15.6006C74.3516 14.2199 75.4709 13.1006 76.8516 13.1006H87.8892C88.7177 13.1006 89.3892 13.7722 89.3892 14.6006C89.3892 15.429 88.7177 16.1006 87.8892 16.1006H77.3516V54.5961C80.284 55.2138 82.5634 57.604 83.0165 60.5938H88.9742C89.8026 60.5938 90.4742 61.2653 90.4742 62.0938C90.4742 62.9222 89.8026 63.5938 88.9742 63.5938H82.8459C82.1382 66.199 80.0141 68.2211 77.3516 68.7819V107.985H87.8892C88.7177 107.985 89.3892 108.657 89.3892 109.485C89.3892 110.314 88.7177 110.985 87.8892 110.985H76.8516C75.4709 110.985 74.3516 109.866 74.3516 108.485V68.7825C71.5197 68.1872 69.2963 65.9389 68.7376 63.0938H62.75C61.9216 63.0938 61.25 62.4222 61.25 61.5938C61.25 60.7653 61.9216 60.0938 62.75 60.0938H68.7777C69.3963 57.3391 71.5832 55.1775 74.3516 54.5955V15.6006ZM80.0987 61.689C80.0987 64.0354 78.1966 65.9376 75.8502 65.9376C73.5037 65.9376 71.6016 64.0354 71.6016 61.689C71.6016 59.3426 73.5037 57.4404 75.8502 57.4404C78.1966 57.4404 80.0987 59.3426 80.0987 61.689ZM53.2499 36.8413C54.3399 35.9187 54.4418 35.3298 54.4418 35.1346C54.4418 34.9394 54.3399 34.3505 53.2499 33.4279C52.1733 32.5166 50.4379 31.5606 48.031 30.6989C43.2433 28.9848 36.4316 27.8672 28.7639 27.8672C21.0961 27.8672 14.2845 28.9848 9.49673 30.6989C7.0899 31.5606 5.35445 32.5166 4.27784 33.4279C3.18791 34.3505 3.08594 34.9394 3.08594 35.1346C3.08594 35.3298 3.18791 35.9187 4.27784 36.8413C5.35445 37.7527 7.0899 38.7086 9.49673 39.5703C14.2845 41.2845 21.0961 42.402 28.7639 42.402C36.4316 42.402 43.2433 41.2845 48.031 39.5703C50.4379 38.7086 52.1733 37.7527 53.2499 36.8413ZM28.7639 45.402C40.0553 45.402 49.8225 43.0657 54.5 39.6696V52.5C54.5 53.25 54.1021 54.174 52.9449 55.2086C51.7893 56.2419 49.9996 57.2649 47.5709 58.1644C42.7276 59.9582 35.5507 61 28.5 61C21.4623 61 14.7813 59.9616 9.92909 58.1644C7.50036 57.2649 5.71067 56.2419 4.55508 55.2086C3.39793 54.174 3 53.25 3 52.5V39.6494C7.66652 43.0564 17.4501 45.402 28.7639 45.402ZM28.7639 24.8672C44.4768 24.8672 57.2382 29.3915 57.4394 35H57.5V52.5V70.5V88.4374C57.5 90.3383 56.472 92.0235 54.8998 93.4124C53.3278 94.801 51.1143 95.9905 48.4609 96.9614C45.7938 97.9373 42.6615 98.6998 39.2486 99.2171C35.8437 99.7331 32.6924 100 29 100C25.3186 100 21.6672 99.7348 18.2514 99.2171C14.8385 98.6998 11.7062 97.9373 9.03912 96.9614C6.38566 95.9905 4.17217 94.801 2.60022 93.4124C1.02803 92.0235 0 90.3383 0 88.4374V70.5V52.5V35H0.0883514C0.289617 29.3915 13.051 24.8672 28.7639 24.8672ZM48.6129 60.9777C51.0022 60.0928 53.0047 59.0346 54.5 57.8231V70.5C54.5 71.25 54.1021 72.174 52.9449 73.2086C51.7893 74.2419 49.9996 75.2649 47.5709 76.1644C42.7276 77.9583 35.5507 79 28.5 79C21.4623 79 14.7813 77.9616 9.92909 76.1644C7.50036 75.2649 5.71067 74.2419 4.55508 73.2086C3.39793 72.174 3 71.25 3 70.5V57.8231C4.49531 59.0346 6.49781 60.0928 8.88715 60.9777C14.1619 62.9313 21.216 64 28.5 64C35.771 64 43.3292 62.9346 48.6129 60.9777ZM48.6129 78.9777C51.0022 78.0928 53.0047 77.0346 54.5 75.8232V88.4374C54.5 89.1793 54.1054 90.1112 52.9136 91.164C51.7215 92.2171 49.8838 93.2462 47.43 94.1441C44.9898 95.037 42.059 95.7569 38.799 96.251C35.5309 96.7463 32.5303 97 29 97C25.4587 97 21.9581 96.7446 18.701 96.251C15.441 95.7569 12.5102 95.037 10.07 94.1441C7.61624 93.2462 5.77846 92.2171 4.5864 91.164C3.39459 90.1112 3 89.1793 3 88.4374V75.8232C4.49531 77.0346 6.49781 78.0928 8.88715 78.9777C14.1619 80.9313 21.216 82 28.5 82C35.771 82 43.3292 80.9346 48.6129 78.9777Z" fill="white"/>
</svg>
