<svg width="112" height="98" viewBox="0 0 112 98" fill="none" xmlns="http://www.w3.org/2000/svg">
<mask id="path-1-inside-1_322_322" fill="white">
<rect x="26.0312" width="84.9844" height="22.2031" rx="3"/>
</mask>
<rect x="26.0312" width="84.9844" height="22.2031" rx="3" stroke="white" stroke-width="8" mask="url(#path-1-inside-1_322_322)"/>
<mask id="path-2-inside-2_322_322" fill="white">
<rect y="52.0625" width="16.0781" height="45.9375" rx="3"/>
</mask>
<rect y="52.0625" width="16.0781" height="45.9375" rx="3" stroke="white" stroke-width="8" mask="url(#path-2-inside-2_322_322)"/>
<path d="M58.9531 28.3281H77.3281" stroke="white" stroke-width="4" stroke-linecap="round"/>
<path d="M32.9219 21.0547V60.4844" stroke="white" stroke-width="4" stroke-linecap="round"/>
<path d="M103.359 21.4375V65.0781" stroke="white" stroke-width="4" stroke-linecap="round"/>
<path d="M15.6953 83.4531C17.9862 84.9804 17.6114 87.2693 27.4847 88.8005C27.535 88.8083 27.5881 88.8125 27.639 88.8125H62.0156" stroke="white" stroke-width="4" stroke-linecap="round"/>
<path d="M62.0156 88.8126L105.794 77.1497C106.525 76.8133 107.187 76.3473 107.743 75.7782C108.299 75.2092 108.738 74.5484 109.035 73.8334C109.332 73.1184 109.481 72.3634 109.474 71.6113C109.466 70.8592 109.302 70.1249 108.992 69.4502C108.681 68.7755 108.23 68.1737 107.663 67.6792C107.096 67.1846 106.426 66.8069 105.689 66.5678C104.953 66.3286 104.166 66.2326 103.372 66.2853C102.578 66.3379 101.793 66.5382 101.063 66.8746L79.2421 73.8334" stroke="white" stroke-width="4"/>
<path d="M55.1252 74.6483L69.6251 78.8229C71.1576 79.2641 72.7616 79.7194 74.3053 79.319V79.319C75.0754 79.1193 75.7928 78.7804 76.4166 78.3218C77.0403 77.8632 77.558 77.2938 77.9404 76.6461C78.3227 75.9984 78.562 75.2851 78.6447 74.547C78.7274 73.8088 78.6519 73.0603 78.4224 72.344C78.1929 71.6278 77.814 70.9579 77.3073 70.3726C76.8005 69.7873 76.1759 69.2981 75.4691 68.9329V68.9329C73.7002 68.0189 71.7677 67.5048 69.8414 67.001L51.7088 62.2586C49.148 61.5888 46.5119 61.2498 43.865 61.2498L27.5627 61.2498C24.6278 61.5049 17.9924 63.2401 14.9299 68.1401" stroke="white" stroke-width="4" stroke-linecap="round"/>
</svg>
