<svg width="377" height="377" viewBox="0 0 377 377" fill="none" xmlns="http://www.w3.org/2000/svg">
<rect width="377" height="377" fill="#222222"/>
<g clip-path="url(#clip0_1786_201)">
<path d="M226 128H151C147.134 128 144 131.134 144 135V188C144 191.866 147.134 195 151 195H226C229.866 195 233 191.866 233 188V135C233 131.134 229.866 128 226 128Z" stroke="white" stroke-width="4"/>
<path d="M144 144H233" stroke="white" stroke-width="4" stroke-linecap="round"/>
<path d="M152 139C153.105 139 154 138.105 154 137C154 135.895 153.105 135 152 135C150.895 135 150 135.895 150 137C150 138.105 150.895 139 152 139Z" fill="white"/>
<path d="M158 139C159.105 139 160 138.105 160 137C160 135.895 159.105 135 158 135C156.895 135 156 135.895 156 137C156 138.105 156.895 139 158 139Z" fill="white"/>
<path d="M164 139C165.105 139 166 138.105 166 137C166 135.895 165.105 135 164 135C162.895 135 162 135.895 162 137C162 138.105 162.895 139 164 139Z" fill="white"/>
<path d="M174 174C176.761 174 179 171.761 179 169C179 166.239 176.761 164 174 164C171.239 164 169 166.239 169 169C169 171.761 171.239 174 174 174Z" stroke="white" stroke-width="2"/>
<path d="M204 164C206.761 164 209 161.761 209 159C209 156.239 206.761 154 204 154C201.239 154 199 156.239 199 159C199 161.761 201.239 164 204 164Z" stroke="white" stroke-width="2"/>
<path d="M204 184C206.761 184 209 181.761 209 179C209 176.239 206.761 174 204 174C201.239 174 199 176.239 199 179C199 181.761 201.239 184 204 184Z" stroke="white" stroke-width="2"/>
<path d="M179 167L199 160.5" stroke="white" stroke-width="2" stroke-linecap="round"/>
<path d="M199 177.5L179 171" stroke="white" stroke-width="2" stroke-linecap="round"/>
</g>
<path d="M112.305 270.214H115.356C115.259 271.378 114.933 272.415 114.38 273.327C113.826 274.23 113.049 274.942 112.048 275.463C111.047 275.984 109.831 276.244 108.398 276.244C107.3 276.244 106.311 276.049 105.432 275.658C104.553 275.259 103.8 274.698 103.174 273.974C102.547 273.241 102.067 272.358 101.733 271.325C101.408 270.291 101.245 269.136 101.245 267.858V266.381C101.245 265.103 101.412 263.948 101.746 262.914C102.087 261.881 102.576 260.998 103.21 260.265C103.845 259.525 104.606 258.959 105.493 258.568C106.388 258.178 107.393 257.982 108.508 257.982C109.924 257.982 111.121 258.243 112.097 258.764C113.074 259.285 113.831 260.005 114.368 260.924C114.913 261.844 115.247 262.898 115.369 264.086H112.317C112.236 263.321 112.056 262.666 111.78 262.121C111.511 261.575 111.112 261.16 110.583 260.875C110.055 260.583 109.363 260.436 108.508 260.436C107.808 260.436 107.198 260.566 106.677 260.827C106.156 261.087 105.721 261.47 105.371 261.974C105.021 262.479 104.757 263.101 104.578 263.842C104.407 264.574 104.321 265.412 104.321 266.356V267.858C104.321 268.753 104.399 269.567 104.553 270.299C104.716 271.024 104.96 271.646 105.286 272.167C105.619 272.688 106.042 273.091 106.555 273.375C107.068 273.66 107.682 273.803 108.398 273.803C109.269 273.803 109.973 273.664 110.51 273.388C111.056 273.111 111.466 272.708 111.743 272.179C112.028 271.642 112.215 270.987 112.305 270.214ZM125.293 273.351V267.052C125.293 266.58 125.208 266.173 125.037 265.832C124.866 265.49 124.605 265.225 124.255 265.038C123.914 264.851 123.482 264.757 122.961 264.757C122.481 264.757 122.066 264.839 121.716 265.001C121.366 265.164 121.094 265.384 120.898 265.661C120.703 265.937 120.605 266.251 120.605 266.601H117.676C117.676 266.08 117.802 265.575 118.054 265.087C118.306 264.599 118.673 264.163 119.153 263.781C119.633 263.398 120.207 263.097 120.874 262.877C121.541 262.658 122.29 262.548 123.12 262.548C124.113 262.548 124.992 262.715 125.757 263.048C126.53 263.382 127.136 263.887 127.576 264.562C128.023 265.229 128.247 266.068 128.247 267.077V272.948C128.247 273.55 128.288 274.092 128.369 274.572C128.459 275.044 128.585 275.455 128.748 275.805V276H125.732C125.594 275.683 125.484 275.28 125.403 274.792C125.33 274.295 125.293 273.815 125.293 273.351ZM125.72 267.968L125.745 269.787H123.633C123.088 269.787 122.607 269.84 122.192 269.945C121.777 270.043 121.431 270.189 121.155 270.385C120.878 270.58 120.671 270.816 120.532 271.093C120.394 271.369 120.325 271.683 120.325 272.033C120.325 272.383 120.406 272.704 120.569 272.997C120.732 273.282 120.968 273.506 121.277 273.668C121.594 273.831 121.977 273.913 122.424 273.913C123.027 273.913 123.551 273.791 123.999 273.546C124.455 273.294 124.813 272.989 125.073 272.631C125.334 272.265 125.472 271.919 125.488 271.593L126.44 272.899C126.343 273.233 126.176 273.591 125.94 273.974C125.704 274.356 125.395 274.722 125.012 275.072C124.638 275.414 124.186 275.695 123.657 275.915C123.136 276.134 122.534 276.244 121.851 276.244C120.988 276.244 120.219 276.073 119.543 275.731C118.868 275.382 118.339 274.914 117.957 274.328C117.574 273.734 117.383 273.062 117.383 272.313C117.383 271.614 117.513 270.995 117.773 270.458C118.042 269.913 118.433 269.457 118.945 269.091C119.466 268.725 120.101 268.448 120.85 268.261C121.598 268.065 122.453 267.968 123.413 267.968H125.72ZM134.265 265.478V276H131.323V262.792H134.094L134.265 265.478ZM133.789 268.908L132.788 268.896C132.788 267.984 132.902 267.142 133.13 266.369C133.358 265.596 133.691 264.924 134.131 264.354C134.57 263.777 135.116 263.333 135.767 263.024C136.426 262.707 137.187 262.548 138.049 262.548C138.652 262.548 139.201 262.637 139.697 262.816C140.202 262.987 140.637 263.26 141.003 263.634C141.378 264.009 141.663 264.489 141.858 265.075C142.061 265.661 142.163 266.369 142.163 267.199V276H139.221V267.455C139.221 266.812 139.124 266.308 138.928 265.941C138.741 265.575 138.468 265.315 138.11 265.16C137.76 264.997 137.341 264.916 136.853 264.916C136.3 264.916 135.828 265.022 135.437 265.233C135.055 265.445 134.741 265.734 134.497 266.1C134.253 266.466 134.074 266.889 133.96 267.37C133.846 267.85 133.789 268.362 133.789 268.908ZM141.98 268.126L140.601 268.432C140.601 267.634 140.71 266.881 140.93 266.173C141.158 265.457 141.488 264.831 141.919 264.293C142.358 263.748 142.9 263.321 143.542 263.012C144.185 262.702 144.922 262.548 145.752 262.548C146.427 262.548 147.03 262.641 147.559 262.829C148.096 263.008 148.551 263.292 148.926 263.683C149.3 264.074 149.585 264.582 149.78 265.209C149.976 265.827 150.073 266.576 150.073 267.455V276H147.119V267.443C147.119 266.776 147.021 266.259 146.826 265.893C146.639 265.526 146.37 265.274 146.021 265.136C145.671 264.989 145.251 264.916 144.763 264.916C144.307 264.916 143.905 265.001 143.555 265.172C143.213 265.335 142.924 265.567 142.688 265.868C142.452 266.161 142.273 266.499 142.151 266.881C142.037 267.264 141.98 267.679 141.98 268.126ZM158.923 276.244C157.947 276.244 157.064 276.085 156.274 275.768C155.493 275.443 154.826 274.991 154.272 274.413C153.727 273.835 153.308 273.156 153.015 272.375C152.722 271.593 152.576 270.751 152.576 269.848V269.359C152.576 268.326 152.726 267.39 153.027 266.552C153.328 265.714 153.748 264.997 154.285 264.403C154.822 263.801 155.457 263.341 156.189 263.024C156.921 262.707 157.715 262.548 158.569 262.548C159.513 262.548 160.339 262.707 161.047 263.024C161.755 263.341 162.341 263.789 162.805 264.367C163.277 264.936 163.627 265.616 163.855 266.405C164.091 267.195 164.209 268.065 164.209 269.018V270.275H154.004V268.163H161.304V267.931C161.287 267.402 161.182 266.906 160.986 266.442C160.799 265.978 160.51 265.604 160.12 265.319C159.729 265.034 159.208 264.892 158.557 264.892C158.069 264.892 157.633 264.997 157.251 265.209C156.877 265.412 156.563 265.709 156.311 266.1C156.059 266.491 155.863 266.963 155.725 267.516C155.595 268.061 155.53 268.676 155.53 269.359V269.848C155.53 270.425 155.607 270.963 155.762 271.459C155.924 271.947 156.16 272.375 156.47 272.741C156.779 273.107 157.153 273.396 157.593 273.607C158.032 273.811 158.533 273.913 159.094 273.913C159.802 273.913 160.433 273.77 160.986 273.485C161.54 273.201 162.02 272.798 162.427 272.277L163.977 273.778C163.692 274.193 163.322 274.592 162.866 274.975C162.41 275.349 161.853 275.654 161.194 275.89C160.543 276.126 159.786 276.244 158.923 276.244ZM169.458 265.307V276H166.516V262.792H169.324L169.458 265.307ZM173.499 262.707L173.474 265.441C173.295 265.408 173.1 265.384 172.888 265.368C172.685 265.351 172.481 265.343 172.278 265.343C171.773 265.343 171.33 265.417 170.947 265.563C170.565 265.701 170.243 265.905 169.983 266.173C169.731 266.434 169.535 266.751 169.397 267.125C169.259 267.5 169.177 267.919 169.153 268.383L168.481 268.432C168.481 267.602 168.563 266.833 168.726 266.125C168.888 265.417 169.132 264.794 169.458 264.257C169.792 263.72 170.207 263.301 170.703 263C171.208 262.698 171.79 262.548 172.449 262.548C172.628 262.548 172.819 262.564 173.022 262.597C173.234 262.629 173.393 262.666 173.499 262.707ZM182.349 273.351V267.052C182.349 266.58 182.263 266.173 182.092 265.832C181.921 265.49 181.661 265.225 181.311 265.038C180.969 264.851 180.538 264.757 180.017 264.757C179.537 264.757 179.122 264.839 178.772 265.001C178.422 265.164 178.149 265.384 177.954 265.661C177.759 265.937 177.661 266.251 177.661 266.601H174.731C174.731 266.08 174.858 265.575 175.11 265.087C175.362 264.599 175.728 264.163 176.208 263.781C176.689 263.398 177.262 263.097 177.93 262.877C178.597 262.658 179.346 262.548 180.176 262.548C181.169 262.548 182.048 262.715 182.812 263.048C183.586 263.382 184.192 263.887 184.631 264.562C185.079 265.229 185.303 266.068 185.303 267.077V272.948C185.303 273.55 185.343 274.092 185.425 274.572C185.514 275.044 185.64 275.455 185.803 275.805V276H182.788C182.65 275.683 182.54 275.28 182.458 274.792C182.385 274.295 182.349 273.815 182.349 273.351ZM182.776 267.968L182.8 269.787H180.688C180.143 269.787 179.663 269.84 179.248 269.945C178.833 270.043 178.487 270.189 178.21 270.385C177.934 270.58 177.726 270.816 177.588 271.093C177.45 271.369 177.38 271.683 177.38 272.033C177.38 272.383 177.462 272.704 177.625 272.997C177.787 273.282 178.023 273.506 178.333 273.668C178.65 273.831 179.032 273.913 179.48 273.913C180.082 273.913 180.607 273.791 181.055 273.546C181.51 273.294 181.868 272.989 182.129 272.631C182.389 272.265 182.528 271.919 182.544 271.593L183.496 272.899C183.398 273.233 183.232 273.591 182.996 273.974C182.76 274.356 182.45 274.722 182.068 275.072C181.694 275.414 181.242 275.695 180.713 275.915C180.192 276.134 179.59 276.244 178.906 276.244C178.044 276.244 177.275 276.073 176.599 275.731C175.924 275.382 175.395 274.914 175.012 274.328C174.63 273.734 174.438 273.062 174.438 272.313C174.438 271.614 174.569 270.995 174.829 270.458C175.098 269.913 175.488 269.457 176.001 269.091C176.522 268.725 177.157 268.448 177.905 268.261C178.654 268.065 179.508 267.968 180.469 267.968H182.776ZM202.014 272.423C202.014 272.13 201.941 271.866 201.794 271.63C201.648 271.386 201.367 271.166 200.952 270.971C200.545 270.775 199.943 270.596 199.146 270.434C198.446 270.279 197.803 270.096 197.217 269.884C196.639 269.665 196.143 269.4 195.728 269.091C195.312 268.782 194.991 268.415 194.763 267.992C194.535 267.569 194.421 267.081 194.421 266.527C194.421 265.99 194.539 265.482 194.775 265.001C195.011 264.521 195.349 264.098 195.789 263.732C196.228 263.366 196.761 263.077 197.388 262.865C198.022 262.654 198.73 262.548 199.512 262.548C200.618 262.548 201.567 262.735 202.356 263.109C203.153 263.476 203.764 263.976 204.187 264.611C204.61 265.237 204.822 265.945 204.822 266.735H201.88C201.88 266.385 201.79 266.059 201.611 265.758C201.44 265.449 201.18 265.201 200.83 265.014C200.48 264.818 200.041 264.721 199.512 264.721C199.007 264.721 198.588 264.802 198.254 264.965C197.929 265.119 197.685 265.323 197.522 265.575C197.367 265.827 197.29 266.104 197.29 266.405C197.29 266.625 197.331 266.824 197.412 267.003C197.502 267.174 197.648 267.333 197.852 267.479C198.055 267.618 198.332 267.748 198.682 267.87C199.04 267.992 199.487 268.11 200.024 268.224C201.034 268.436 201.9 268.708 202.625 269.042C203.357 269.368 203.918 269.791 204.309 270.312C204.7 270.824 204.895 271.475 204.895 272.265C204.895 272.851 204.769 273.388 204.517 273.876C204.272 274.356 203.914 274.775 203.442 275.133C202.97 275.483 202.405 275.756 201.746 275.951C201.095 276.146 200.362 276.244 199.548 276.244C198.352 276.244 197.339 276.033 196.509 275.609C195.679 275.178 195.048 274.629 194.617 273.961C194.194 273.286 193.982 272.586 193.982 271.862H196.826C196.859 272.407 197.009 272.842 197.278 273.168C197.555 273.485 197.896 273.717 198.303 273.864C198.718 274.002 199.146 274.071 199.585 274.071C200.114 274.071 200.557 274.002 200.916 273.864C201.274 273.717 201.546 273.522 201.733 273.278C201.921 273.026 202.014 272.741 202.014 272.423ZM210.376 257.25V276H207.446V257.25H210.376ZM209.863 268.908L208.911 268.896C208.919 267.984 209.045 267.142 209.29 266.369C209.542 265.596 209.892 264.924 210.339 264.354C210.795 263.777 211.34 263.333 211.975 263.024C212.61 262.707 213.314 262.548 214.087 262.548C214.738 262.548 215.324 262.637 215.845 262.816C216.374 262.995 216.829 263.284 217.212 263.683C217.594 264.074 217.883 264.586 218.079 265.221C218.282 265.848 218.384 266.613 218.384 267.516V276H215.43V267.492C215.43 266.857 215.336 266.352 215.149 265.978C214.97 265.604 214.705 265.335 214.355 265.172C214.006 265.001 213.578 264.916 213.074 264.916C212.545 264.916 212.077 265.022 211.67 265.233C211.271 265.445 210.938 265.734 210.669 266.1C210.4 266.466 210.197 266.889 210.059 267.37C209.928 267.85 209.863 268.362 209.863 268.908ZM228.809 273.351V267.052C228.809 266.58 228.723 266.173 228.552 265.832C228.381 265.49 228.121 265.225 227.771 265.038C227.429 264.851 226.998 264.757 226.477 264.757C225.997 264.757 225.582 264.839 225.232 265.001C224.882 265.164 224.609 265.384 224.414 265.661C224.219 265.937 224.121 266.251 224.121 266.601H221.191C221.191 266.08 221.318 265.575 221.57 265.087C221.822 264.599 222.188 264.163 222.668 263.781C223.149 263.398 223.722 263.097 224.39 262.877C225.057 262.658 225.806 262.548 226.636 262.548C227.629 262.548 228.507 262.715 229.272 263.048C230.046 263.382 230.652 263.887 231.091 264.562C231.539 265.229 231.763 266.068 231.763 267.077V272.948C231.763 273.55 231.803 274.092 231.885 274.572C231.974 275.044 232.1 275.455 232.263 275.805V276H229.248C229.11 275.683 229 275.28 228.918 274.792C228.845 274.295 228.809 273.815 228.809 273.351ZM229.236 267.968L229.26 269.787H227.148C226.603 269.787 226.123 269.84 225.708 269.945C225.293 270.043 224.947 270.189 224.67 270.385C224.394 270.58 224.186 270.816 224.048 271.093C223.91 271.369 223.84 271.683 223.84 272.033C223.84 272.383 223.922 272.704 224.084 272.997C224.247 273.282 224.483 273.506 224.792 273.668C225.11 273.831 225.492 273.913 225.94 273.913C226.542 273.913 227.067 273.791 227.515 273.546C227.97 273.294 228.328 272.989 228.589 272.631C228.849 272.265 228.988 271.919 229.004 271.593L229.956 272.899C229.858 273.233 229.692 273.591 229.456 273.974C229.22 274.356 228.91 274.722 228.528 275.072C228.153 275.414 227.702 275.695 227.173 275.915C226.652 276.134 226.05 276.244 225.366 276.244C224.504 276.244 223.735 276.073 223.059 275.731C222.384 275.382 221.855 274.914 221.472 274.328C221.09 273.734 220.898 273.062 220.898 272.313C220.898 271.614 221.029 270.995 221.289 270.458C221.558 269.913 221.948 269.457 222.461 269.091C222.982 268.725 223.617 268.448 224.365 268.261C225.114 268.065 225.968 267.968 226.929 267.968H229.236ZM237.793 265.307V276H234.851V262.792H237.659L237.793 265.307ZM241.833 262.707L241.809 265.441C241.63 265.408 241.435 265.384 241.223 265.368C241.02 265.351 240.816 265.343 240.613 265.343C240.108 265.343 239.665 265.417 239.282 265.563C238.9 265.701 238.578 265.905 238.318 266.173C238.066 266.434 237.87 266.751 237.732 267.125C237.594 267.5 237.512 267.919 237.488 268.383L236.816 268.432C236.816 267.602 236.898 266.833 237.061 266.125C237.223 265.417 237.467 264.794 237.793 264.257C238.127 263.72 238.542 263.301 239.038 263C239.543 262.698 240.125 262.548 240.784 262.548C240.963 262.548 241.154 262.564 241.357 262.597C241.569 262.629 241.728 262.666 241.833 262.707ZM246.826 262.792V276H243.872V262.792H246.826ZM243.677 259.325C243.677 258.878 243.823 258.507 244.116 258.214C244.417 257.913 244.832 257.763 245.361 257.763C245.882 257.763 246.293 257.913 246.594 258.214C246.895 258.507 247.046 258.878 247.046 259.325C247.046 259.765 246.895 260.131 246.594 260.424C246.293 260.717 245.882 260.863 245.361 260.863C244.832 260.863 244.417 260.717 244.116 260.424C243.823 260.131 243.677 259.765 243.677 259.325ZM252.966 265.612V276H250.024V262.792H252.795L252.966 265.612ZM252.441 268.908L251.489 268.896C251.497 267.96 251.628 267.101 251.88 266.32C252.14 265.539 252.498 264.867 252.954 264.306C253.418 263.744 253.971 263.313 254.614 263.012C255.257 262.702 255.973 262.548 256.763 262.548C257.397 262.548 257.971 262.637 258.484 262.816C259.005 262.987 259.448 263.268 259.814 263.659C260.189 264.049 260.474 264.558 260.669 265.185C260.864 265.803 260.962 266.564 260.962 267.467V276H258.008V267.455C258.008 266.82 257.914 266.32 257.727 265.954C257.548 265.579 257.284 265.315 256.934 265.16C256.592 264.997 256.165 264.916 255.652 264.916C255.147 264.916 254.696 265.022 254.297 265.233C253.898 265.445 253.56 265.734 253.284 266.1C253.015 266.466 252.808 266.889 252.661 267.37C252.515 267.85 252.441 268.362 252.441 268.908ZM272.424 262.792H275.098V275.634C275.098 276.822 274.845 277.831 274.341 278.661C273.836 279.491 273.132 280.122 272.229 280.553C271.326 280.993 270.28 281.212 269.092 281.212C268.587 281.212 268.026 281.139 267.407 280.993C266.797 280.846 266.203 280.61 265.625 280.285C265.055 279.967 264.579 279.548 264.197 279.027L265.576 277.294C266.048 277.855 266.569 278.266 267.139 278.527C267.708 278.787 268.306 278.917 268.933 278.917C269.609 278.917 270.182 278.791 270.654 278.539C271.134 278.295 271.505 277.933 271.765 277.453C272.026 276.972 272.156 276.387 272.156 275.695V265.783L272.424 262.792ZM263.452 269.542V269.286C263.452 268.285 263.574 267.374 263.818 266.552C264.062 265.722 264.412 265.01 264.868 264.416C265.324 263.813 265.877 263.354 266.528 263.036C267.179 262.711 267.916 262.548 268.738 262.548C269.592 262.548 270.321 262.702 270.923 263.012C271.533 263.321 272.042 263.764 272.449 264.342C272.856 264.912 273.173 265.596 273.401 266.393C273.637 267.182 273.812 268.061 273.926 269.03V269.848C273.82 270.792 273.641 271.654 273.389 272.436C273.136 273.217 272.803 273.892 272.388 274.462C271.973 275.032 271.46 275.471 270.85 275.78C270.247 276.09 269.535 276.244 268.713 276.244C267.908 276.244 267.179 276.077 266.528 275.744C265.885 275.41 265.332 274.942 264.868 274.34C264.412 273.738 264.062 273.03 263.818 272.216C263.574 271.394 263.452 270.503 263.452 269.542ZM266.394 269.286V269.542C266.394 270.145 266.451 270.706 266.565 271.227C266.687 271.748 266.87 272.208 267.114 272.606C267.367 272.997 267.684 273.306 268.066 273.534C268.457 273.754 268.917 273.864 269.446 273.864C270.138 273.864 270.703 273.717 271.143 273.424C271.59 273.131 271.932 272.737 272.168 272.24C272.412 271.736 272.583 271.174 272.681 270.556V268.346C272.632 267.866 272.53 267.418 272.375 267.003C272.229 266.588 272.03 266.226 271.777 265.917C271.525 265.6 271.208 265.355 270.825 265.185C270.443 265.006 269.991 264.916 269.47 264.916C268.941 264.916 268.481 265.03 268.091 265.258C267.7 265.486 267.379 265.799 267.126 266.198C266.882 266.597 266.699 267.06 266.577 267.589C266.455 268.118 266.394 268.684 266.394 269.286Z" fill="white" visibility="hidden"/>
<text x="188.5" y="268" text-anchor="middle" fill="white" font-size="24" font-weight="500" font-family="Arial, sans-serif">Доступ к камере</text>
<defs>
<clipPath id="clip0_1786_201">
<rect width="93" height="71" fill="white" transform="translate(142 126)"/>
</clipPath>
</defs>
</svg>
