<svg width="377" height="377" viewBox="0 0 377 377" fill="none" xmlns="http://www.w3.org/2000/svg">
<rect width="377" height="377" fill="#222222"/>
<g clip-path="url(#clip0_1786_202)">
<path d="M231 122H162C158.134 122 155 125.134 155 129V188C155 191.866 158.134 195 162 195H231C234.866 195 238 191.866 238 188V129C238 125.134 234.866 122 231 122Z" stroke="white" stroke-width="4"/>
<path d="M215 106H146C142.134 106 139 109.134 139 113V172C139 175.866 142.134 179 146 179H215C218.866 179 222 175.866 222 172V113C222 109.134 218.866 106 215 106Z" fill="#222222" stroke="white" stroke-width="4"/>
<path d="M172 151.409V134.645C172 133.895 172.795 133.412 173.46 133.757L190.224 142.449C190.956 142.829 190.94 143.881 190.197 144.238L173.434 152.31C172.77 152.629 172 152.145 172 151.409Z" stroke="white" stroke-width="4"/>
<path d="M148 115H154" stroke="white" stroke-width="4" stroke-linecap="round"/>
<path d="M161 115H160" stroke="white" stroke-width="4" stroke-linecap="round"/>
<path d="M165 187H173" stroke="white" stroke-width="4" stroke-linecap="round"/>
<path d="M149 169H157" stroke="white" stroke-width="4" stroke-linecap="round"/>
<path d="M179 187H187" stroke="white" stroke-width="4" stroke-linecap="round"/>
<path d="M163 169H171" stroke="white" stroke-width="4" stroke-linecap="round"/>
<path d="M193 187H201" stroke="white" stroke-width="4" stroke-linecap="round"/>
<path d="M177 169H185" stroke="white" stroke-width="4" stroke-linecap="round"/>
<path d="M207 187H215" stroke="white" stroke-width="4" stroke-linecap="round"/>
<path d="M191 169H199" stroke="white" stroke-width="4" stroke-linecap="round"/>
<path d="M221 187H229" stroke="white" stroke-width="4" stroke-linecap="round"/>
<path d="M205 169H213" stroke="white" stroke-width="4" stroke-linecap="round"/>
</g>
<path d="M49.1572 271.422C49.1572 271.056 49.1003 270.731 48.9863 270.446C48.8805 270.161 48.6893 269.901 48.4126 269.665C48.1359 269.429 47.7453 269.201 47.2407 268.981C46.7443 268.753 46.1095 268.521 45.3364 268.285C44.4901 268.025 43.7088 267.736 42.9927 267.418C42.2847 267.093 41.6662 266.719 41.1372 266.295C40.6082 265.864 40.1973 265.372 39.9043 264.818C39.6113 264.257 39.4648 263.61 39.4648 262.877C39.4648 262.153 39.6154 261.494 39.9165 260.9C40.2257 260.306 40.6611 259.793 41.2227 259.362C41.7923 258.922 42.4637 258.585 43.2368 258.349C44.0099 258.104 44.8644 257.982 45.8003 257.982C47.1187 257.982 48.2539 258.227 49.2061 258.715C50.1663 259.203 50.9028 259.858 51.4155 260.68C51.9364 261.502 52.1968 262.41 52.1968 263.402H49.1572C49.1572 262.816 49.0311 262.3 48.7788 261.852C48.5347 261.396 48.1603 261.038 47.6558 260.778C47.1593 260.517 46.5286 260.387 45.7637 260.387C45.0394 260.387 44.4372 260.497 43.957 260.717C43.4769 260.937 43.1188 261.234 42.8828 261.608C42.6468 261.982 42.5288 262.405 42.5288 262.877C42.5288 263.211 42.6061 263.516 42.7607 263.793C42.9154 264.062 43.1514 264.314 43.4688 264.55C43.7861 264.778 44.1849 264.993 44.665 265.197C45.1452 265.4 45.7108 265.596 46.3618 265.783C47.3465 266.076 48.2051 266.401 48.9375 266.759C49.6699 267.109 50.2803 267.508 50.7686 267.956C51.2568 268.403 51.623 268.912 51.8672 269.481C52.1113 270.043 52.2334 270.682 52.2334 271.398C52.2334 272.147 52.0828 272.822 51.7817 273.424C51.4806 274.018 51.0493 274.527 50.4878 274.95C49.9344 275.365 49.2671 275.687 48.4858 275.915C47.7127 276.134 46.8501 276.244 45.8979 276.244C45.0435 276.244 44.2012 276.13 43.3711 275.902C42.5492 275.674 41.8005 275.329 41.125 274.865C40.4495 274.393 39.9124 273.807 39.5137 273.107C39.1149 272.399 38.9155 271.573 38.9155 270.629H41.9795C41.9795 271.207 42.0771 271.699 42.2725 272.106C42.4759 272.513 42.7567 272.847 43.1147 273.107C43.4728 273.359 43.8879 273.546 44.3599 273.668C44.84 273.791 45.3527 273.852 45.8979 273.852C46.6141 273.852 47.2122 273.75 47.6924 273.546C48.1807 273.343 48.5469 273.058 48.791 272.692C49.0352 272.326 49.1572 271.903 49.1572 271.422ZM62.0967 273.351V267.052C62.0967 266.58 62.0112 266.173 61.8403 265.832C61.6694 265.49 61.409 265.225 61.0591 265.038C60.7173 264.851 60.286 264.757 59.7651 264.757C59.285 264.757 58.87 264.839 58.52 265.001C58.1701 265.164 57.8975 265.384 57.7021 265.661C57.5068 265.937 57.4092 266.251 57.4092 266.601H54.4795C54.4795 266.08 54.6056 265.575 54.8579 265.087C55.1102 264.599 55.4764 264.163 55.9565 263.781C56.4367 263.398 57.0104 263.097 57.6777 262.877C58.3451 262.658 59.0938 262.548 59.9238 262.548C60.9167 262.548 61.7956 262.715 62.5605 263.048C63.3337 263.382 63.9399 263.887 64.3794 264.562C64.827 265.229 65.0508 266.068 65.0508 267.077V272.948C65.0508 273.55 65.0915 274.092 65.1729 274.572C65.2624 275.044 65.3885 275.455 65.5513 275.805V276H62.5361C62.3978 275.683 62.2879 275.28 62.2065 274.792C62.1333 274.295 62.0967 273.815 62.0967 273.351ZM62.5239 267.968L62.5483 269.787H60.4365C59.8913 269.787 59.4111 269.84 58.9961 269.945C58.5811 270.043 58.2352 270.189 57.9585 270.385C57.6818 270.58 57.4743 270.816 57.3359 271.093C57.1976 271.369 57.1284 271.683 57.1284 272.033C57.1284 272.383 57.2098 272.704 57.3726 272.997C57.5353 273.282 57.7713 273.506 58.0806 273.668C58.3979 273.831 58.7804 273.913 59.228 273.913C59.8302 273.913 60.3551 273.791 60.8027 273.546C61.2585 273.294 61.6165 272.989 61.877 272.631C62.1374 272.265 62.2757 271.919 62.292 271.593L63.2441 272.899C63.1465 273.233 62.9797 273.591 62.7437 273.974C62.5076 274.356 62.1984 274.722 61.8159 275.072C61.4416 275.414 60.9899 275.695 60.4609 275.915C59.9401 276.134 59.3379 276.244 58.6543 276.244C57.7917 276.244 57.0226 276.073 56.3472 275.731C55.6717 275.382 55.1427 274.914 54.7603 274.328C54.3778 273.734 54.1865 273.062 54.1865 272.313C54.1865 271.614 54.3167 270.995 54.5771 270.458C54.8457 269.913 55.2363 269.457 55.749 269.091C56.2699 268.725 56.9046 268.448 57.6533 268.261C58.402 268.065 59.2565 267.968 60.2168 267.968H62.5239ZM72.2285 273.668L75.4634 262.792H78.5151L73.9253 276H72.021L72.2285 273.668ZM69.7505 262.792L73.0464 273.717L73.2051 276H71.3008L66.6865 262.792H69.7505ZM85.9858 276.244C85.0093 276.244 84.1263 276.085 83.3369 275.768C82.5557 275.443 81.8883 274.991 81.335 274.413C80.7897 273.835 80.3706 273.156 80.0776 272.375C79.7847 271.593 79.6382 270.751 79.6382 269.848V269.359C79.6382 268.326 79.7887 267.39 80.0898 266.552C80.391 265.714 80.8101 264.997 81.3472 264.403C81.8843 263.801 82.519 263.341 83.2515 263.024C83.9839 262.707 84.7773 262.548 85.6318 262.548C86.5758 262.548 87.4019 262.707 88.1099 263.024C88.8179 263.341 89.4038 263.789 89.8677 264.367C90.3397 264.936 90.6896 265.616 90.9175 266.405C91.1535 267.195 91.2715 268.065 91.2715 269.018V270.275H81.0664V268.163H88.3662V267.931C88.3499 267.402 88.2441 266.906 88.0488 266.442C87.8617 265.978 87.5728 265.604 87.1821 265.319C86.7915 265.034 86.2707 264.892 85.6196 264.892C85.1313 264.892 84.696 264.997 84.3135 265.209C83.9391 265.412 83.6258 265.709 83.3735 266.1C83.1213 266.491 82.9259 266.963 82.7876 267.516C82.6574 268.061 82.5923 268.676 82.5923 269.359V269.848C82.5923 270.425 82.6696 270.963 82.8242 271.459C82.987 271.947 83.223 272.375 83.5322 272.741C83.8415 273.107 84.2158 273.396 84.6553 273.607C85.0947 273.811 85.5952 273.913 86.1567 273.913C86.8647 273.913 87.4954 273.77 88.0488 273.485C88.6022 273.201 89.0824 272.798 89.4893 272.277L91.0396 273.778C90.7547 274.193 90.3844 274.592 89.9287 274.975C89.473 275.349 88.9155 275.654 88.2563 275.89C87.6053 276.126 86.8485 276.244 85.9858 276.244ZM101.623 273.266V257.25H104.577V276H101.904L101.623 273.266ZM93.0293 269.542V269.286C93.0293 268.285 93.1473 267.374 93.3833 266.552C93.6193 265.722 93.9611 265.01 94.4087 264.416C94.8563 263.813 95.4015 263.354 96.0444 263.036C96.6873 262.711 97.4116 262.548 98.2173 262.548C99.0148 262.548 99.7147 262.702 100.317 263.012C100.919 263.321 101.432 263.764 101.855 264.342C102.278 264.912 102.616 265.596 102.868 266.393C103.12 267.182 103.299 268.061 103.405 269.03V269.848C103.299 270.792 103.12 271.654 102.868 272.436C102.616 273.217 102.278 273.892 101.855 274.462C101.432 275.032 100.915 275.471 100.305 275.78C99.7025 276.09 98.9985 276.244 98.1929 276.244C97.3953 276.244 96.6751 276.077 96.0322 275.744C95.3975 275.41 94.8563 274.942 94.4087 274.34C93.9611 273.738 93.6193 273.03 93.3833 272.216C93.1473 271.394 93.0293 270.503 93.0293 269.542ZM95.9712 269.286V269.542C95.9712 270.145 96.0241 270.706 96.1299 271.227C96.2438 271.748 96.4188 272.208 96.6548 272.606C96.8908 272.997 97.196 273.306 97.5703 273.534C97.9528 273.754 98.4085 273.864 98.9375 273.864C99.6048 273.864 100.154 273.717 100.585 273.424C101.017 273.131 101.354 272.737 101.599 272.24C101.851 271.736 102.022 271.174 102.111 270.556V268.346C102.062 267.866 101.961 267.418 101.806 267.003C101.66 266.588 101.46 266.226 101.208 265.917C100.956 265.6 100.642 265.355 100.268 265.185C99.9019 265.006 99.4665 264.916 98.9619 264.916C98.4248 264.916 97.9691 265.03 97.5947 265.258C97.2204 265.486 96.9111 265.799 96.667 266.198C96.431 266.597 96.256 267.06 96.1421 267.589C96.0282 268.118 95.9712 268.684 95.9712 269.286ZM118.176 273.668L121.411 262.792H124.462L119.873 276H117.968L118.176 273.668ZM115.698 262.792L118.994 273.717L119.152 276H117.248L112.634 262.792H115.698ZM129.431 262.792V276H126.477V262.792H129.431ZM126.281 259.325C126.281 258.878 126.428 258.507 126.721 258.214C127.022 257.913 127.437 257.763 127.966 257.763C128.487 257.763 128.898 257.913 129.199 258.214C129.5 258.507 129.65 258.878 129.65 259.325C129.65 259.765 129.5 260.131 129.199 260.424C128.898 260.717 128.487 260.863 127.966 260.863C127.437 260.863 127.022 260.717 126.721 260.424C126.428 260.131 126.281 259.765 126.281 259.325ZM140.71 273.266V257.25H143.664V276H140.991L140.71 273.266ZM132.116 269.542V269.286C132.116 268.285 132.234 267.374 132.47 266.552C132.706 265.722 133.048 265.01 133.496 264.416C133.943 263.813 134.488 263.354 135.131 263.036C135.774 262.711 136.499 262.548 137.304 262.548C138.102 262.548 138.802 262.702 139.404 263.012C140.006 263.321 140.519 263.764 140.942 264.342C141.365 264.912 141.703 265.596 141.955 266.393C142.207 267.182 142.386 268.061 142.492 269.03V269.848C142.386 270.792 142.207 271.654 141.955 272.436C141.703 273.217 141.365 273.892 140.942 274.462C140.519 275.032 140.002 275.471 139.392 275.78C138.789 276.09 138.085 276.244 137.28 276.244C136.482 276.244 135.762 276.077 135.119 275.744C134.484 275.41 133.943 274.942 133.496 274.34C133.048 273.738 132.706 273.03 132.47 272.216C132.234 271.394 132.116 270.503 132.116 269.542ZM135.058 269.286V269.542C135.058 270.145 135.111 270.706 135.217 271.227C135.331 271.748 135.506 272.208 135.742 272.606C135.978 272.997 136.283 273.306 136.657 273.534C137.04 273.754 137.495 273.864 138.024 273.864C138.692 273.864 139.241 273.717 139.672 273.424C140.104 273.131 140.441 272.737 140.686 272.24C140.938 271.736 141.109 271.174 141.198 270.556V268.346C141.149 267.866 141.048 267.418 140.893 267.003C140.747 266.588 140.547 266.226 140.295 265.917C140.043 265.6 139.729 265.355 139.355 265.185C138.989 265.006 138.553 264.916 138.049 264.916C137.512 264.916 137.056 265.03 136.682 265.258C136.307 265.486 135.998 265.799 135.754 266.198C135.518 266.597 135.343 267.06 135.229 267.589C135.115 268.118 135.058 268.684 135.058 269.286ZM152.563 276.244C151.586 276.244 150.703 276.085 149.914 275.768C149.133 275.443 148.465 274.991 147.912 274.413C147.367 273.835 146.948 273.156 146.655 272.375C146.362 271.593 146.215 270.751 146.215 269.848V269.359C146.215 268.326 146.366 267.39 146.667 266.552C146.968 265.714 147.387 264.997 147.924 264.403C148.461 263.801 149.096 263.341 149.829 263.024C150.561 262.707 151.354 262.548 152.209 262.548C153.153 262.548 153.979 262.707 154.687 263.024C155.395 263.341 155.981 263.789 156.445 264.367C156.917 264.936 157.267 265.616 157.495 266.405C157.731 267.195 157.849 268.065 157.849 269.018V270.275H147.644V268.163H154.943V267.931C154.927 267.402 154.821 266.906 154.626 266.442C154.439 265.978 154.15 265.604 153.759 265.319C153.369 265.034 152.848 264.892 152.197 264.892C151.708 264.892 151.273 264.997 150.891 265.209C150.516 265.412 150.203 265.709 149.951 266.1C149.698 266.491 149.503 266.963 149.365 267.516C149.235 268.061 149.169 268.676 149.169 269.359V269.848C149.169 270.425 149.247 270.963 149.401 271.459C149.564 271.947 149.8 272.375 150.109 272.741C150.419 273.107 150.793 273.396 151.232 273.607C151.672 273.811 152.172 273.913 152.734 273.913C153.442 273.913 154.073 273.77 154.626 273.485C155.179 273.201 155.66 272.798 156.066 272.277L157.617 273.778C157.332 274.193 156.962 274.592 156.506 274.975C156.05 275.349 155.493 275.654 154.833 275.89C154.182 276.126 153.426 276.244 152.563 276.244ZM159.582 269.542V269.262C159.582 268.31 159.72 267.427 159.997 266.613C160.274 265.791 160.673 265.079 161.193 264.477C161.722 263.866 162.365 263.394 163.122 263.061C163.887 262.719 164.75 262.548 165.71 262.548C166.678 262.548 167.541 262.719 168.298 263.061C169.063 263.394 169.71 263.866 170.239 264.477C170.768 265.079 171.171 265.791 171.447 266.613C171.724 267.427 171.862 268.31 171.862 269.262V269.542C171.862 270.495 171.724 271.378 171.447 272.191C171.171 273.005 170.768 273.717 170.239 274.328C169.71 274.93 169.067 275.402 168.31 275.744C167.553 276.077 166.695 276.244 165.734 276.244C164.766 276.244 163.899 276.077 163.134 275.744C162.377 275.402 161.735 274.93 161.206 274.328C160.677 273.717 160.274 273.005 159.997 272.191C159.72 271.378 159.582 270.495 159.582 269.542ZM162.524 269.262V269.542C162.524 270.137 162.585 270.698 162.707 271.227C162.829 271.756 163.02 272.22 163.281 272.619C163.541 273.017 163.875 273.331 164.282 273.559C164.689 273.786 165.173 273.9 165.734 273.9C166.28 273.9 166.752 273.786 167.15 273.559C167.557 273.331 167.891 273.017 168.151 272.619C168.412 272.22 168.603 271.756 168.725 271.227C168.855 270.698 168.92 270.137 168.92 269.542V269.262C168.92 268.676 168.855 268.122 168.725 267.602C168.603 267.073 168.408 266.605 168.139 266.198C167.879 265.791 167.545 265.473 167.138 265.246C166.739 265.01 166.263 264.892 165.71 264.892C165.157 264.892 164.676 265.01 164.27 265.246C163.871 265.473 163.541 265.791 163.281 266.198C163.02 266.605 162.829 267.073 162.707 267.602C162.585 268.122 162.524 268.676 162.524 269.262ZM181.738 272.423C181.738 272.13 181.665 271.866 181.518 271.63C181.372 271.386 181.091 271.166 180.676 270.971C180.269 270.775 179.667 270.596 178.869 270.434C178.169 270.279 177.526 270.096 176.94 269.884C176.363 269.665 175.866 269.4 175.451 269.091C175.036 268.782 174.715 268.415 174.487 267.992C174.259 267.569 174.145 267.081 174.145 266.527C174.145 265.99 174.263 265.482 174.499 265.001C174.735 264.521 175.073 264.098 175.512 263.732C175.952 263.366 176.485 263.077 177.111 262.865C177.746 262.654 178.454 262.548 179.235 262.548C180.342 262.548 181.29 262.735 182.08 263.109C182.877 263.476 183.487 263.976 183.911 264.611C184.334 265.237 184.545 265.945 184.545 266.735H181.604C181.604 266.385 181.514 266.059 181.335 265.758C181.164 265.449 180.904 265.201 180.554 265.014C180.204 264.818 179.764 264.721 179.235 264.721C178.731 264.721 178.312 264.802 177.978 264.965C177.653 265.119 177.408 265.323 177.246 265.575C177.091 265.827 177.014 266.104 177.014 266.405C177.014 266.625 177.054 266.824 177.136 267.003C177.225 267.174 177.372 267.333 177.575 267.479C177.779 267.618 178.055 267.748 178.405 267.87C178.763 267.992 179.211 268.11 179.748 268.224C180.757 268.436 181.624 268.708 182.348 269.042C183.081 269.368 183.642 269.791 184.033 270.312C184.423 270.824 184.619 271.475 184.619 272.265C184.619 272.851 184.493 273.388 184.24 273.876C183.996 274.356 183.638 274.775 183.166 275.133C182.694 275.483 182.128 275.756 181.469 275.951C180.818 276.146 180.086 276.244 179.272 276.244C178.076 276.244 177.062 276.033 176.232 275.609C175.402 275.178 174.772 274.629 174.34 273.961C173.917 273.286 173.706 272.586 173.706 271.862H176.55C176.582 272.407 176.733 272.842 177.001 273.168C177.278 273.485 177.62 273.717 178.027 273.864C178.442 274.002 178.869 274.071 179.309 274.071C179.838 274.071 180.281 274.002 180.639 273.864C180.997 273.717 181.27 273.522 181.457 273.278C181.644 273.026 181.738 272.741 181.738 272.423ZM196.362 265.478V276H193.42V262.792H196.191L196.362 265.478ZM195.886 268.908L194.885 268.896C194.885 267.984 194.999 267.142 195.227 266.369C195.454 265.596 195.788 264.924 196.228 264.354C196.667 263.777 197.212 263.333 197.863 263.024C198.522 262.707 199.283 262.548 200.146 262.548C200.748 262.548 201.298 262.637 201.794 262.816C202.299 262.987 202.734 263.26 203.1 263.634C203.474 264.009 203.759 264.489 203.955 265.075C204.158 265.661 204.26 266.369 204.26 267.199V276H201.318V267.455C201.318 266.812 201.22 266.308 201.025 265.941C200.838 265.575 200.565 265.315 200.207 265.16C199.857 264.997 199.438 264.916 198.95 264.916C198.396 264.916 197.924 265.022 197.534 265.233C197.151 265.445 196.838 265.734 196.594 266.1C196.35 266.466 196.171 266.889 196.057 267.37C195.943 267.85 195.886 268.362 195.886 268.908ZM204.077 268.126L202.697 268.432C202.697 267.634 202.807 266.881 203.027 266.173C203.255 265.457 203.584 264.831 204.016 264.293C204.455 263.748 204.996 263.321 205.639 263.012C206.282 262.702 207.019 262.548 207.849 262.548C208.524 262.548 209.126 262.641 209.655 262.829C210.192 263.008 210.648 263.292 211.022 263.683C211.397 264.074 211.682 264.582 211.877 265.209C212.072 265.827 212.17 266.576 212.17 267.455V276H209.216V267.443C209.216 266.776 209.118 266.259 208.923 265.893C208.736 265.526 208.467 265.274 208.117 265.136C207.767 264.989 207.348 264.916 206.86 264.916C206.404 264.916 206.001 265.001 205.651 265.172C205.31 265.335 205.021 265.567 204.785 265.868C204.549 266.161 204.37 266.499 204.248 266.881C204.134 267.264 204.077 267.679 204.077 268.126ZM222.644 273.351V267.052C222.644 266.58 222.558 266.173 222.387 265.832C222.216 265.49 221.956 265.225 221.606 265.038C221.264 264.851 220.833 264.757 220.312 264.757C219.832 264.757 219.417 264.839 219.067 265.001C218.717 265.164 218.444 265.384 218.249 265.661C218.054 265.937 217.956 266.251 217.956 266.601H215.026C215.026 266.08 215.153 265.575 215.405 265.087C215.657 264.599 216.023 264.163 216.503 263.781C216.984 263.398 217.557 263.097 218.225 262.877C218.892 262.658 219.641 262.548 220.471 262.548C221.464 262.548 222.342 262.715 223.107 263.048C223.881 263.382 224.487 263.887 224.926 264.562C225.374 265.229 225.598 266.068 225.598 267.077V272.948C225.598 273.55 225.638 274.092 225.72 274.572C225.809 275.044 225.935 275.455 226.098 275.805V276H223.083C222.945 275.683 222.835 275.28 222.753 274.792C222.68 274.295 222.644 273.815 222.644 273.351ZM223.071 267.968L223.095 269.787H220.983C220.438 269.787 219.958 269.84 219.543 269.945C219.128 270.043 218.782 270.189 218.505 270.385C218.229 270.58 218.021 270.816 217.883 271.093C217.744 271.369 217.675 271.683 217.675 272.033C217.675 272.383 217.757 272.704 217.919 272.997C218.082 273.282 218.318 273.506 218.627 273.668C218.945 273.831 219.327 273.913 219.775 273.913C220.377 273.913 220.902 273.791 221.35 273.546C221.805 273.294 222.163 272.989 222.424 272.631C222.684 272.265 222.823 271.919 222.839 271.593L223.791 272.899C223.693 273.233 223.527 273.591 223.291 273.974C223.055 274.356 222.745 274.722 222.363 275.072C221.988 275.414 221.537 275.695 221.008 275.915C220.487 276.134 219.885 276.244 219.201 276.244C218.339 276.244 217.569 276.073 216.894 275.731C216.219 275.382 215.69 274.914 215.307 274.328C214.925 273.734 214.733 273.062 214.733 272.313C214.733 271.614 214.864 270.995 215.124 270.458C215.393 269.913 215.783 269.457 216.296 269.091C216.817 268.725 217.451 268.448 218.2 268.261C218.949 268.065 219.803 267.968 220.764 267.968H223.071ZM231.591 265.612V276H228.649V262.792H231.42L231.591 265.612ZM231.066 268.908L230.114 268.896C230.122 267.96 230.253 267.101 230.505 266.32C230.765 265.539 231.123 264.867 231.579 264.306C232.043 263.744 232.596 263.313 233.239 263.012C233.882 262.702 234.598 262.548 235.388 262.548C236.022 262.548 236.596 262.637 237.109 262.816C237.63 262.987 238.073 263.268 238.439 263.659C238.814 264.049 239.099 264.558 239.294 265.185C239.489 265.803 239.587 266.564 239.587 267.467V276H236.633V267.455C236.633 266.82 236.539 266.32 236.352 265.954C236.173 265.579 235.909 265.315 235.559 265.16C235.217 264.997 234.79 264.916 234.277 264.916C233.772 264.916 233.321 265.022 232.922 265.233C232.523 265.445 232.185 265.734 231.909 266.1C231.64 266.466 231.433 266.889 231.286 267.37C231.14 267.85 231.066 268.362 231.066 268.908ZM250.036 273.351V267.052C250.036 266.58 249.951 266.173 249.78 265.832C249.609 265.49 249.348 265.225 248.999 265.038C248.657 264.851 248.225 264.757 247.705 264.757C247.224 264.757 246.809 264.839 246.459 265.001C246.11 265.164 245.837 265.384 245.642 265.661C245.446 265.937 245.349 266.251 245.349 266.601H242.419C242.419 266.08 242.545 265.575 242.797 265.087C243.05 264.599 243.416 264.163 243.896 263.781C244.376 263.398 244.95 263.097 245.617 262.877C246.285 262.658 247.033 262.548 247.863 262.548C248.856 262.548 249.735 262.715 250.5 263.048C251.273 263.382 251.879 263.887 252.319 264.562C252.766 265.229 252.99 266.068 252.99 267.077V272.948C252.99 273.55 253.031 274.092 253.112 274.572C253.202 275.044 253.328 275.455 253.491 275.805V276H250.476C250.337 275.683 250.227 275.28 250.146 274.792C250.073 274.295 250.036 273.815 250.036 273.351ZM250.463 267.968L250.488 269.787H248.376C247.831 269.787 247.351 269.84 246.936 269.945C246.521 270.043 246.175 270.189 245.898 270.385C245.621 270.58 245.414 270.816 245.275 271.093C245.137 271.369 245.068 271.683 245.068 272.033C245.068 272.383 245.149 272.704 245.312 272.997C245.475 273.282 245.711 273.506 246.02 273.668C246.337 273.831 246.72 273.913 247.167 273.913C247.77 273.913 248.295 273.791 248.742 273.546C249.198 273.294 249.556 272.989 249.816 272.631C250.077 272.265 250.215 271.919 250.231 271.593L251.184 272.899C251.086 273.233 250.919 273.591 250.683 273.974C250.447 274.356 250.138 274.722 249.755 275.072C249.381 275.414 248.929 275.695 248.4 275.915C247.88 276.134 247.277 276.244 246.594 276.244C245.731 276.244 244.962 276.073 244.287 275.731C243.611 275.382 243.082 274.914 242.7 274.328C242.317 273.734 242.126 273.062 242.126 272.313C242.126 271.614 242.256 270.995 242.517 270.458C242.785 269.913 243.176 269.457 243.688 269.091C244.209 268.725 244.844 268.448 245.593 268.261C246.341 268.065 247.196 267.968 248.156 267.968H250.463ZM264.526 262.792H267.199V275.634C267.199 276.822 266.947 277.831 266.442 278.661C265.938 279.491 265.234 280.122 264.331 280.553C263.427 280.993 262.382 281.212 261.193 281.212C260.689 281.212 260.127 281.139 259.509 280.993C258.898 280.846 258.304 280.61 257.727 280.285C257.157 279.967 256.681 279.548 256.298 279.027L257.678 277.294C258.15 277.855 258.671 278.266 259.24 278.527C259.81 278.787 260.408 278.917 261.035 278.917C261.71 278.917 262.284 278.791 262.756 278.539C263.236 278.295 263.606 277.933 263.867 277.453C264.127 276.972 264.257 276.387 264.257 275.695V265.783L264.526 262.792ZM255.554 269.542V269.286C255.554 268.285 255.676 267.374 255.92 266.552C256.164 265.722 256.514 265.01 256.97 264.416C257.425 263.813 257.979 263.354 258.63 263.036C259.281 262.711 260.017 262.548 260.839 262.548C261.694 262.548 262.422 262.702 263.024 263.012C263.635 263.321 264.143 263.764 264.55 264.342C264.957 264.912 265.275 265.596 265.502 266.393C265.738 267.182 265.913 268.061 266.027 269.03V269.848C265.922 270.792 265.743 271.654 265.49 272.436C265.238 273.217 264.904 273.892 264.489 274.462C264.074 275.032 263.562 275.471 262.951 275.78C262.349 276.09 261.637 276.244 260.815 276.244C260.009 276.244 259.281 276.077 258.63 275.744C257.987 275.41 257.434 274.942 256.97 274.34C256.514 273.738 256.164 273.03 255.92 272.216C255.676 271.394 255.554 270.503 255.554 269.542ZM258.496 269.286V269.542C258.496 270.145 258.553 270.706 258.667 271.227C258.789 271.748 258.972 272.208 259.216 272.606C259.468 272.997 259.785 273.306 260.168 273.534C260.559 273.754 261.018 273.864 261.547 273.864C262.239 273.864 262.805 273.717 263.244 273.424C263.692 273.131 264.034 272.737 264.27 272.24C264.514 271.736 264.685 271.174 264.782 270.556V268.346C264.733 267.866 264.632 267.418 264.477 267.003C264.331 266.588 264.131 266.226 263.879 265.917C263.627 265.6 263.309 265.355 262.927 265.185C262.544 265.006 262.093 264.916 261.572 264.916C261.043 264.916 260.583 265.03 260.192 265.258C259.802 265.486 259.48 265.799 259.228 266.198C258.984 266.597 258.801 267.06 258.679 267.589C258.557 268.118 258.496 268.684 258.496 269.286ZM276.074 276.244C275.097 276.244 274.214 276.085 273.425 275.768C272.644 275.443 271.976 274.991 271.423 274.413C270.878 273.835 270.458 273.156 270.166 272.375C269.873 271.593 269.726 270.751 269.726 269.848V269.359C269.726 268.326 269.877 267.39 270.178 266.552C270.479 265.714 270.898 264.997 271.435 264.403C271.972 263.801 272.607 263.341 273.339 263.024C274.072 262.707 274.865 262.548 275.72 262.548C276.664 262.548 277.49 262.707 278.198 263.024C278.906 263.341 279.492 263.789 279.956 264.367C280.428 264.936 280.778 265.616 281.005 266.405C281.241 267.195 281.359 268.065 281.359 269.018V270.275H271.154V268.163H278.454V267.931C278.438 267.402 278.332 266.906 278.137 266.442C277.95 265.978 277.661 265.604 277.27 265.319C276.879 265.034 276.359 264.892 275.708 264.892C275.219 264.892 274.784 264.997 274.401 265.209C274.027 265.412 273.714 265.709 273.461 266.1C273.209 266.491 273.014 266.963 272.875 267.516C272.745 268.061 272.68 268.676 272.68 269.359V269.848C272.68 270.425 272.757 270.963 272.912 271.459C273.075 271.947 273.311 272.375 273.62 272.741C273.929 273.107 274.304 273.396 274.743 273.607C275.183 273.811 275.683 273.913 276.245 273.913C276.953 273.913 277.583 273.77 278.137 273.485C278.69 273.201 279.17 272.798 279.577 272.277L281.127 273.778C280.843 274.193 280.472 274.592 280.017 274.975C279.561 275.349 279.003 275.654 278.344 275.89C277.693 276.126 276.936 276.244 276.074 276.244ZM286.596 265.478V276H283.654V262.792H286.425L286.596 265.478ZM286.12 268.908L285.119 268.896C285.119 267.984 285.233 267.142 285.461 266.369C285.689 265.596 286.022 264.924 286.462 264.354C286.901 263.777 287.447 263.333 288.098 263.024C288.757 262.707 289.518 262.548 290.38 262.548C290.983 262.548 291.532 262.637 292.028 262.816C292.533 262.987 292.968 263.26 293.334 263.634C293.709 264.009 293.994 264.489 294.189 265.075C294.392 265.661 294.494 266.369 294.494 267.199V276H291.552V267.455C291.552 266.812 291.455 266.308 291.259 265.941C291.072 265.575 290.799 265.315 290.441 265.16C290.091 264.997 289.672 264.916 289.184 264.916C288.631 264.916 288.159 265.022 287.768 265.233C287.386 265.445 287.072 265.734 286.828 266.1C286.584 266.466 286.405 266.889 286.291 267.37C286.177 267.85 286.12 268.362 286.12 268.908ZM294.311 268.126L292.932 268.432C292.932 267.634 293.042 266.881 293.261 266.173C293.489 265.457 293.819 264.831 294.25 264.293C294.689 263.748 295.231 263.321 295.874 263.012C296.516 262.702 297.253 262.548 298.083 262.548C298.758 262.548 299.361 262.641 299.89 262.829C300.427 263.008 300.882 263.292 301.257 263.683C301.631 264.074 301.916 264.582 302.111 265.209C302.307 265.827 302.404 266.576 302.404 267.455V276H299.45V267.443C299.45 266.776 299.353 266.259 299.157 265.893C298.97 265.526 298.701 265.274 298.352 265.136C298.002 264.989 297.583 264.916 297.094 264.916C296.639 264.916 296.236 265.001 295.886 265.172C295.544 265.335 295.255 265.567 295.019 265.868C294.783 266.161 294.604 266.499 294.482 266.881C294.368 267.264 294.311 267.679 294.311 268.126ZM311.254 276.244C310.278 276.244 309.395 276.085 308.605 275.768C307.824 275.443 307.157 274.991 306.604 274.413C306.058 273.835 305.639 273.156 305.346 272.375C305.053 271.593 304.907 270.751 304.907 269.848V269.359C304.907 268.326 305.057 267.39 305.358 266.552C305.66 265.714 306.079 264.997 306.616 264.403C307.153 263.801 307.788 263.341 308.52 263.024C309.252 262.707 310.046 262.548 310.9 262.548C311.844 262.548 312.67 262.707 313.378 263.024C314.086 263.341 314.672 263.789 315.136 264.367C315.608 264.936 315.958 265.616 316.186 266.405C316.422 267.195 316.54 268.065 316.54 269.018V270.275H306.335V268.163H313.635V267.931C313.618 267.402 313.513 266.906 313.317 266.442C313.13 265.978 312.841 265.604 312.451 265.319C312.06 265.034 311.539 264.892 310.888 264.892C310.4 264.892 309.965 264.997 309.582 265.209C309.208 265.412 308.894 265.709 308.642 266.1C308.39 266.491 308.194 266.963 308.056 267.516C307.926 268.061 307.861 268.676 307.861 269.359V269.848C307.861 270.425 307.938 270.963 308.093 271.459C308.256 271.947 308.492 272.375 308.801 272.741C309.11 273.107 309.484 273.396 309.924 273.607C310.363 273.811 310.864 273.913 311.425 273.913C312.133 273.913 312.764 273.77 313.317 273.485C313.871 273.201 314.351 272.798 314.758 272.277L316.308 273.778C316.023 274.193 315.653 274.592 315.197 274.975C314.742 275.349 314.184 275.654 313.525 275.89C312.874 276.126 312.117 276.244 311.254 276.244ZM321.752 265.612V276H318.811V262.792H321.582L321.752 265.612ZM321.228 268.908L320.275 268.896C320.284 267.96 320.414 267.101 320.666 266.32C320.926 265.539 321.285 264.867 321.74 264.306C322.204 263.744 322.757 263.313 323.4 263.012C324.043 262.702 324.759 262.548 325.549 262.548C326.184 262.548 326.757 262.637 327.27 262.816C327.791 262.987 328.234 263.268 328.601 263.659C328.975 264.049 329.26 264.558 329.455 265.185C329.65 265.803 329.748 266.564 329.748 267.467V276H326.794V267.455C326.794 266.82 326.7 266.32 326.513 265.954C326.334 265.579 326.07 265.315 325.72 265.16C325.378 264.997 324.951 264.916 324.438 264.916C323.933 264.916 323.482 265.022 323.083 265.233C322.684 265.445 322.347 265.734 322.07 266.1C321.801 266.466 321.594 266.889 321.447 267.37C321.301 267.85 321.228 268.362 321.228 268.908ZM338.806 262.792V264.94H331.359V262.792H338.806ZM333.508 259.557H336.45V272.35C336.45 272.757 336.507 273.07 336.621 273.29C336.743 273.502 336.91 273.644 337.121 273.717C337.333 273.791 337.581 273.827 337.866 273.827C338.069 273.827 338.264 273.815 338.452 273.791C338.639 273.766 338.789 273.742 338.903 273.717L338.916 275.963C338.671 276.037 338.387 276.102 338.061 276.159C337.744 276.216 337.377 276.244 336.962 276.244C336.287 276.244 335.689 276.126 335.168 275.89C334.647 275.646 334.24 275.251 333.947 274.706C333.654 274.161 333.508 273.437 333.508 272.533V259.557Z" fill="white" visibility="hidden"/>
<text x="188.5" y="258" text-anchor="middle" fill="white" font-size="24" font-weight="500" font-family="Arial, sans-serif"><tspan x="188.5" dy="0">Управление сохранёнными</tspan><tspan x="188.5" dy="1.2em">видео</tspan></text>
<defs>
<clipPath id="clip0_1786_202">
<rect width="103" height="93" fill="white" transform="translate(137 104)"/>
</clipPath>
</defs>
</svg>
