<svg width="377" height="377" viewBox="0 0 377 377" fill="none" xmlns="http://www.w3.org/2000/svg">
<rect width="377" height="377" fill="#222222"/>
<path d="M53.8979 272.753L58.5732 258.227H61.9546L55.5825 276H53.2998L53.8979 272.753ZM49.5767 258.227L54.2153 272.753L54.8501 276H52.5552L46.2075 258.227H49.5767ZM66.8008 262.792V276H63.8467V262.792H66.8008ZM63.6514 259.325C63.6514 258.878 63.7979 258.507 64.0908 258.214C64.3919 257.913 64.807 257.763 65.3359 257.763C65.8568 257.763 66.2677 257.913 66.5688 258.214C66.87 258.507 67.0205 258.878 67.0205 259.325C67.0205 259.765 66.87 260.131 66.5688 260.424C66.2677 260.717 65.8568 260.863 65.3359 260.863C64.807 260.863 64.3919 260.717 64.0908 260.424C63.7979 260.131 63.6514 259.765 63.6514 259.325ZM78.0801 273.266V257.25H81.0342V276H78.3608L78.0801 273.266ZM69.4863 269.542V269.286C69.4863 268.285 69.6043 267.374 69.8403 266.552C70.0763 265.722 70.4181 265.01 70.8657 264.416C71.3133 263.813 71.8586 263.354 72.5015 263.036C73.1444 262.711 73.8687 262.548 74.6743 262.548C75.4718 262.548 76.1717 262.702 76.7739 263.012C77.3761 263.321 77.8888 263.764 78.312 264.342C78.7352 264.912 79.0729 265.596 79.3252 266.393C79.5775 267.182 79.7565 268.061 79.8623 269.03V269.848C79.7565 270.792 79.5775 271.654 79.3252 272.436C79.0729 273.217 78.7352 273.892 78.312 274.462C77.8888 275.032 77.3721 275.471 76.7617 275.78C76.1595 276.09 75.4556 276.244 74.6499 276.244C73.8524 276.244 73.1322 276.077 72.4893 275.744C71.8545 275.41 71.3133 274.942 70.8657 274.34C70.4181 273.738 70.0763 273.03 69.8403 272.216C69.6043 271.394 69.4863 270.503 69.4863 269.542ZM72.4282 269.286V269.542C72.4282 270.145 72.4811 270.706 72.5869 271.227C72.7008 271.748 72.8758 272.208 73.1118 272.606C73.3478 272.997 73.653 273.306 74.0273 273.534C74.4098 273.754 74.8656 273.864 75.3945 273.864C76.0618 273.864 76.6112 273.717 77.0425 273.424C77.4738 273.131 77.8115 272.737 78.0557 272.24C78.3079 271.736 78.4788 271.174 78.5684 270.556V268.346C78.5195 267.866 78.4178 267.418 78.2632 267.003C78.1167 266.588 77.9173 266.226 77.665 265.917C77.4128 265.6 77.0994 265.355 76.7251 265.185C76.3589 265.006 75.9235 264.916 75.4189 264.916C74.8818 264.916 74.4261 265.03 74.0518 265.258C73.6774 265.486 73.3682 265.799 73.124 266.198C72.888 266.597 72.7131 267.06 72.5991 267.589C72.4852 268.118 72.4282 268.684 72.4282 269.286ZM89.9331 276.244C88.9565 276.244 88.0736 276.085 87.2842 275.768C86.5029 275.443 85.8356 274.991 85.2822 274.413C84.737 273.835 84.3179 273.156 84.0249 272.375C83.7319 271.593 83.5854 270.751 83.5854 269.848V269.359C83.5854 268.326 83.736 267.39 84.0371 266.552C84.3382 265.714 84.7573 264.997 85.2944 264.403C85.8315 263.801 86.4663 263.341 87.1987 263.024C87.9312 262.707 88.7246 262.548 89.5791 262.548C90.5231 262.548 91.3491 262.707 92.0571 263.024C92.7651 263.341 93.3511 263.789 93.8149 264.367C94.2869 264.936 94.6369 265.616 94.8647 266.405C95.1007 267.195 95.2188 268.065 95.2188 269.018V270.275H85.0137V268.163H92.3135V267.931C92.2972 267.402 92.1914 266.906 91.9961 266.442C91.8089 265.978 91.52 265.604 91.1294 265.319C90.7388 265.034 90.2179 264.892 89.5669 264.892C89.0786 264.892 88.6432 264.997 88.2607 265.209C87.8864 265.412 87.5731 265.709 87.3208 266.1C87.0685 266.491 86.8732 266.963 86.7349 267.516C86.6047 268.061 86.5396 268.676 86.5396 269.359V269.848C86.5396 270.425 86.6169 270.963 86.7715 271.459C86.9342 271.947 87.1702 272.375 87.4795 272.741C87.7887 273.107 88.1631 273.396 88.6025 273.607C89.042 273.811 89.5425 273.913 90.104 273.913C90.812 273.913 91.4427 273.77 91.9961 273.485C92.5495 273.201 93.0296 272.798 93.4365 272.277L94.9868 273.778C94.702 274.193 94.3317 274.592 93.876 274.975C93.4202 275.349 92.8628 275.654 92.2036 275.89C91.5526 276.126 90.7957 276.244 89.9331 276.244ZM96.9521 269.542V269.262C96.9521 268.31 97.0905 267.427 97.3672 266.613C97.6439 265.791 98.0426 265.079 98.5635 264.477C99.0924 263.866 99.7354 263.394 100.492 263.061C101.257 262.719 102.12 262.548 103.08 262.548C104.049 262.548 104.911 262.719 105.668 263.061C106.433 263.394 107.08 263.866 107.609 264.477C108.138 265.079 108.541 265.791 108.817 266.613C109.094 267.427 109.232 268.31 109.232 269.262V269.542C109.232 270.495 109.094 271.378 108.817 272.191C108.541 273.005 108.138 273.717 107.609 274.328C107.08 274.93 106.437 275.402 105.68 275.744C104.923 276.077 104.065 276.244 103.104 276.244C102.136 276.244 101.269 276.077 100.504 275.744C99.7476 275.402 99.1047 274.93 98.5757 274.328C98.0467 273.717 97.6439 273.005 97.3672 272.191C97.0905 271.378 96.9521 270.495 96.9521 269.542ZM99.894 269.262V269.542C99.894 270.137 99.9551 270.698 100.077 271.227C100.199 271.756 100.39 272.22 100.651 272.619C100.911 273.017 101.245 273.331 101.652 273.559C102.059 273.786 102.543 273.9 103.104 273.9C103.65 273.9 104.122 273.786 104.521 273.559C104.927 273.331 105.261 273.017 105.521 272.619C105.782 272.22 105.973 271.756 106.095 271.227C106.225 270.698 106.291 270.137 106.291 269.542V269.262C106.291 268.676 106.225 268.122 106.095 267.602C105.973 267.073 105.778 266.605 105.509 266.198C105.249 265.791 104.915 265.473 104.508 265.246C104.11 265.01 103.633 264.892 103.08 264.892C102.527 264.892 102.047 265.01 101.64 265.246C101.241 265.473 100.911 265.791 100.651 266.198C100.39 266.605 100.199 267.073 100.077 267.602C99.9551 268.122 99.894 268.676 99.894 269.262ZM120.878 265.307V276H117.936V262.792H120.744L120.878 265.307ZM124.918 262.707L124.894 265.441C124.715 265.408 124.52 265.384 124.308 265.368C124.105 265.351 123.901 265.343 123.698 265.343C123.193 265.343 122.75 265.417 122.367 265.563C121.985 265.701 121.663 265.905 121.403 266.173C121.151 266.434 120.955 266.751 120.817 267.125C120.679 267.5 120.597 267.919 120.573 268.383L119.901 268.432C119.901 267.602 119.983 266.833 120.146 266.125C120.308 265.417 120.552 264.794 120.878 264.257C121.212 263.72 121.627 263.301 122.123 263C122.628 262.698 123.209 262.548 123.869 262.548C124.048 262.548 124.239 262.564 124.442 262.597C124.654 262.629 124.813 262.666 124.918 262.707ZM132.34 276.244C131.364 276.244 130.481 276.085 129.691 275.768C128.91 275.443 128.243 274.991 127.689 274.413C127.144 273.835 126.725 273.156 126.432 272.375C126.139 271.593 125.993 270.751 125.993 269.848V269.359C125.993 268.326 126.143 267.39 126.444 266.552C126.745 265.714 127.165 264.997 127.702 264.403C128.239 263.801 128.874 263.341 129.606 263.024C130.338 262.707 131.132 262.548 131.986 262.548C132.93 262.548 133.756 262.707 134.464 263.024C135.172 263.341 135.758 263.789 136.222 264.367C136.694 264.936 137.044 265.616 137.272 266.405C137.508 267.195 137.626 268.065 137.626 269.018V270.275H127.421V268.163H134.721V267.931C134.704 267.402 134.599 266.906 134.403 266.442C134.216 265.978 133.927 265.604 133.537 265.319C133.146 265.034 132.625 264.892 131.974 264.892C131.486 264.892 131.05 264.997 130.668 265.209C130.294 265.412 129.98 265.709 129.728 266.1C129.476 266.491 129.28 266.963 129.142 267.516C129.012 268.061 128.947 268.676 128.947 269.359V269.848C128.947 270.425 129.024 270.963 129.179 271.459C129.341 271.947 129.577 272.375 129.887 272.741C130.196 273.107 130.57 273.396 131.01 273.607C131.449 273.811 131.95 273.913 132.511 273.913C133.219 273.913 133.85 273.77 134.403 273.485C134.957 273.201 135.437 272.798 135.844 272.277L137.394 273.778C137.109 274.193 136.739 274.592 136.283 274.975C135.827 275.349 135.27 275.654 134.611 275.89C133.96 276.126 133.203 276.244 132.34 276.244ZM145.316 273.9C145.797 273.9 146.228 273.807 146.61 273.62C147.001 273.424 147.314 273.156 147.55 272.814C147.794 272.472 147.929 272.077 147.953 271.63H150.724C150.708 272.484 150.456 273.262 149.967 273.961C149.479 274.661 148.832 275.219 148.026 275.634C147.221 276.041 146.33 276.244 145.353 276.244C144.344 276.244 143.465 276.073 142.716 275.731C141.968 275.382 141.345 274.901 140.849 274.291C140.352 273.681 139.978 272.977 139.726 272.179C139.481 271.382 139.359 270.527 139.359 269.616V269.188C139.359 268.277 139.481 267.423 139.726 266.625C139.978 265.819 140.352 265.111 140.849 264.501C141.345 263.891 141.968 263.415 142.716 263.073C143.465 262.723 144.34 262.548 145.341 262.548C146.399 262.548 147.326 262.759 148.124 263.183C148.922 263.598 149.548 264.18 150.004 264.928C150.468 265.669 150.708 266.531 150.724 267.516H147.953C147.929 267.028 147.807 266.588 147.587 266.198C147.375 265.799 147.074 265.482 146.684 265.246C146.301 265.01 145.841 264.892 145.304 264.892C144.71 264.892 144.218 265.014 143.827 265.258C143.437 265.494 143.131 265.819 142.912 266.234C142.692 266.641 142.533 267.101 142.436 267.614C142.346 268.118 142.301 268.643 142.301 269.188V269.616C142.301 270.161 142.346 270.69 142.436 271.203C142.525 271.715 142.68 272.175 142.899 272.582C143.127 272.981 143.437 273.302 143.827 273.546C144.218 273.782 144.714 273.9 145.316 273.9ZM152.421 269.542V269.262C152.421 268.31 152.559 267.427 152.836 266.613C153.113 265.791 153.511 265.079 154.032 264.477C154.561 263.866 155.204 263.394 155.961 263.061C156.726 262.719 157.589 262.548 158.549 262.548C159.517 262.548 160.38 262.719 161.137 263.061C161.902 263.394 162.549 263.866 163.078 264.477C163.607 265.079 164.009 265.791 164.286 266.613C164.563 267.427 164.701 268.31 164.701 269.262V269.542C164.701 270.495 164.563 271.378 164.286 272.191C164.009 273.005 163.607 273.717 163.078 274.328C162.549 274.93 161.906 275.402 161.149 275.744C160.392 276.077 159.534 276.244 158.573 276.244C157.605 276.244 156.738 276.077 155.973 275.744C155.216 275.402 154.573 274.93 154.044 274.328C153.515 273.717 153.113 273.005 152.836 272.191C152.559 271.378 152.421 270.495 152.421 269.542ZM155.363 269.262V269.542C155.363 270.137 155.424 270.698 155.546 271.227C155.668 271.756 155.859 272.22 156.12 272.619C156.38 273.017 156.714 273.331 157.121 273.559C157.528 273.786 158.012 273.9 158.573 273.9C159.118 273.9 159.59 273.786 159.989 273.559C160.396 273.331 160.73 273.017 160.99 272.619C161.251 272.22 161.442 271.756 161.564 271.227C161.694 270.698 161.759 270.137 161.759 269.542V269.262C161.759 268.676 161.694 268.122 161.564 267.602C161.442 267.073 161.247 266.605 160.978 266.198C160.718 265.791 160.384 265.473 159.977 265.246C159.578 265.01 159.102 264.892 158.549 264.892C157.995 264.892 157.515 265.01 157.108 265.246C156.71 265.473 156.38 265.791 156.12 266.198C155.859 266.605 155.668 267.073 155.546 267.602C155.424 268.122 155.363 268.676 155.363 269.262ZM170.121 265.307V276H167.179V262.792H169.987L170.121 265.307ZM174.162 262.707L174.137 265.441C173.958 265.408 173.763 265.384 173.551 265.368C173.348 265.351 173.144 265.343 172.941 265.343C172.436 265.343 171.993 265.417 171.61 265.563C171.228 265.701 170.906 265.905 170.646 266.173C170.394 266.434 170.198 266.751 170.06 267.125C169.922 267.5 169.84 267.919 169.816 268.383L169.145 268.432C169.145 267.602 169.226 266.833 169.389 266.125C169.551 265.417 169.796 264.794 170.121 264.257C170.455 263.72 170.87 263.301 171.366 263C171.871 262.698 172.453 262.548 173.112 262.548C173.291 262.548 173.482 262.564 173.686 262.597C173.897 262.629 174.056 262.666 174.162 262.707ZM183.817 273.266V257.25H186.771V276H184.098L183.817 273.266ZM175.224 269.542V269.286C175.224 268.285 175.342 267.374 175.578 266.552C175.814 265.722 176.155 265.01 176.603 264.416C177.051 263.813 177.596 263.354 178.239 263.036C178.882 262.711 179.606 262.548 180.412 262.548C181.209 262.548 181.909 262.702 182.511 263.012C183.113 263.321 183.626 263.764 184.049 264.342C184.472 264.912 184.81 265.596 185.062 266.393C185.315 267.182 185.494 268.061 185.6 269.03V269.848C185.494 270.792 185.315 271.654 185.062 272.436C184.81 273.217 184.472 273.892 184.049 274.462C183.626 275.032 183.109 275.471 182.499 275.78C181.897 276.09 181.193 276.244 180.387 276.244C179.59 276.244 178.869 276.077 178.227 275.744C177.592 275.41 177.051 274.942 176.603 274.34C176.155 273.738 175.814 273.03 175.578 272.216C175.342 271.394 175.224 270.503 175.224 269.542ZM178.166 269.286V269.542C178.166 270.145 178.218 270.706 178.324 271.227C178.438 271.748 178.613 272.208 178.849 272.606C179.085 272.997 179.39 273.306 179.765 273.534C180.147 273.754 180.603 273.864 181.132 273.864C181.799 273.864 182.348 273.717 182.78 273.424C183.211 273.131 183.549 272.737 183.793 272.24C184.045 271.736 184.216 271.174 184.306 270.556V268.346C184.257 267.866 184.155 267.418 184 267.003C183.854 266.588 183.655 266.226 183.402 265.917C183.15 265.6 182.837 265.355 182.462 265.185C182.096 265.006 181.661 264.916 181.156 264.916C180.619 264.916 180.163 265.03 179.789 265.258C179.415 265.486 179.105 265.799 178.861 266.198C178.625 266.597 178.45 267.06 178.336 267.589C178.222 268.118 178.166 268.684 178.166 269.286ZM192.997 262.792V276H190.043V262.792H192.997ZM189.848 259.325C189.848 258.878 189.994 258.507 190.287 258.214C190.588 257.913 191.003 257.763 191.532 257.763C192.053 257.763 192.464 257.913 192.765 258.214C193.066 258.507 193.217 258.878 193.217 259.325C193.217 259.765 193.066 260.131 192.765 260.424C192.464 260.717 192.053 260.863 191.532 260.863C191.003 260.863 190.588 260.717 190.287 260.424C189.994 260.131 189.848 259.765 189.848 259.325ZM199.137 265.612V276H196.195V262.792H198.966L199.137 265.612ZM198.612 268.908L197.66 268.896C197.668 267.96 197.799 267.101 198.051 266.32C198.311 265.539 198.669 264.867 199.125 264.306C199.589 263.744 200.142 263.313 200.785 263.012C201.428 262.702 202.144 262.548 202.934 262.548C203.568 262.548 204.142 262.637 204.655 262.816C205.176 262.987 205.619 263.268 205.985 263.659C206.36 264.049 206.645 264.558 206.84 265.185C207.035 265.803 207.133 266.564 207.133 267.467V276H204.179V267.455C204.179 266.82 204.085 266.32 203.898 265.954C203.719 265.579 203.454 265.315 203.104 265.16C202.763 264.997 202.335 264.916 201.823 264.916C201.318 264.916 200.867 265.022 200.468 265.233C200.069 265.445 199.731 265.734 199.455 266.1C199.186 266.466 198.979 266.889 198.832 267.37C198.686 267.85 198.612 268.362 198.612 268.908ZM218.595 262.792H221.269V275.634C221.269 276.822 221.016 277.831 220.512 278.661C220.007 279.491 219.303 280.122 218.4 280.553C217.497 280.993 216.451 281.212 215.263 281.212C214.758 281.212 214.197 281.139 213.578 280.993C212.968 280.846 212.374 280.61 211.796 280.285C211.226 279.967 210.75 279.548 210.368 279.027L211.747 277.294C212.219 277.855 212.74 278.266 213.31 278.527C213.879 278.787 214.477 278.917 215.104 278.917C215.779 278.917 216.353 278.791 216.825 278.539C217.305 278.295 217.676 277.933 217.936 277.453C218.196 276.972 218.327 276.387 218.327 275.695V265.783L218.595 262.792ZM209.623 269.542V269.286C209.623 268.285 209.745 267.374 209.989 266.552C210.233 265.722 210.583 265.01 211.039 264.416C211.495 263.813 212.048 263.354 212.699 263.036C213.35 262.711 214.087 262.548 214.909 262.548C215.763 262.548 216.492 262.702 217.094 263.012C217.704 263.321 218.213 263.764 218.62 264.342C219.027 264.912 219.344 265.596 219.572 266.393C219.808 267.182 219.983 268.061 220.097 269.03V269.848C219.991 270.792 219.812 271.654 219.56 272.436C219.307 273.217 218.974 273.892 218.559 274.462C218.144 275.032 217.631 275.471 217.021 275.78C216.418 276.09 215.706 276.244 214.884 276.244C214.079 276.244 213.35 276.077 212.699 275.744C212.056 275.41 211.503 274.942 211.039 274.34C210.583 273.738 210.233 273.03 209.989 272.216C209.745 271.394 209.623 270.503 209.623 269.542ZM212.565 269.286V269.542C212.565 270.145 212.622 270.706 212.736 271.227C212.858 271.748 213.041 272.208 213.285 272.606C213.537 272.997 213.855 273.306 214.237 273.534C214.628 273.754 215.088 273.864 215.617 273.864C216.308 273.864 216.874 273.717 217.313 273.424C217.761 273.131 218.103 272.737 218.339 272.24C218.583 271.736 218.754 271.174 218.852 270.556V268.346C218.803 267.866 218.701 267.418 218.546 267.003C218.4 266.588 218.201 266.226 217.948 265.917C217.696 265.6 217.379 265.355 216.996 265.185C216.614 265.006 216.162 264.916 215.641 264.916C215.112 264.916 214.652 265.03 214.262 265.258C213.871 265.486 213.55 265.799 213.297 266.198C213.053 266.597 212.87 267.06 212.748 267.589C212.626 268.118 212.565 268.684 212.565 269.286ZM237.956 272.423C237.956 272.13 237.882 271.866 237.736 271.63C237.589 271.386 237.309 271.166 236.894 270.971C236.487 270.775 235.884 270.596 235.087 270.434C234.387 270.279 233.744 270.096 233.158 269.884C232.58 269.665 232.084 269.4 231.669 269.091C231.254 268.782 230.932 268.415 230.705 267.992C230.477 267.569 230.363 267.081 230.363 266.527C230.363 265.99 230.481 265.482 230.717 265.001C230.953 264.521 231.291 264.098 231.73 263.732C232.169 263.366 232.702 263.077 233.329 262.865C233.964 262.654 234.672 262.548 235.453 262.548C236.56 262.548 237.508 262.735 238.297 263.109C239.095 263.476 239.705 263.976 240.128 264.611C240.552 265.237 240.763 265.945 240.763 266.735H237.821C237.821 266.385 237.732 266.059 237.553 265.758C237.382 265.449 237.121 265.201 236.771 265.014C236.422 264.818 235.982 264.721 235.453 264.721C234.949 264.721 234.529 264.802 234.196 264.965C233.87 265.119 233.626 265.323 233.463 265.575C233.309 265.827 233.231 266.104 233.231 266.405C233.231 266.625 233.272 266.824 233.354 267.003C233.443 267.174 233.59 267.333 233.793 267.479C233.996 267.618 234.273 267.748 234.623 267.87C234.981 267.992 235.429 268.11 235.966 268.224C236.975 268.436 237.842 268.708 238.566 269.042C239.298 269.368 239.86 269.791 240.25 270.312C240.641 270.824 240.836 271.475 240.836 272.265C240.836 272.851 240.71 273.388 240.458 273.876C240.214 274.356 239.856 274.775 239.384 275.133C238.912 275.483 238.346 275.756 237.687 275.951C237.036 276.146 236.304 276.244 235.49 276.244C234.293 276.244 233.28 276.033 232.45 275.609C231.62 275.178 230.989 274.629 230.558 273.961C230.135 273.286 229.923 272.586 229.923 271.862H232.768C232.8 272.407 232.951 272.842 233.219 273.168C233.496 273.485 233.838 273.717 234.245 273.864C234.66 274.002 235.087 274.071 235.526 274.071C236.055 274.071 236.499 274.002 236.857 273.864C237.215 273.717 237.488 273.522 237.675 273.278C237.862 273.026 237.956 272.741 237.956 272.423ZM248.808 273.9C249.288 273.9 249.719 273.807 250.102 273.62C250.492 273.424 250.806 273.156 251.042 272.814C251.286 272.472 251.42 272.077 251.444 271.63H254.215C254.199 272.484 253.947 273.262 253.458 273.961C252.97 274.661 252.323 275.219 251.518 275.634C250.712 276.041 249.821 276.244 248.844 276.244C247.835 276.244 246.956 276.073 246.208 275.731C245.459 275.382 244.836 274.901 244.34 274.291C243.843 273.681 243.469 272.977 243.217 272.179C242.973 271.382 242.851 270.527 242.851 269.616V269.188C242.851 268.277 242.973 267.423 243.217 266.625C243.469 265.819 243.843 265.111 244.34 264.501C244.836 263.891 245.459 263.415 246.208 263.073C246.956 262.723 247.831 262.548 248.832 262.548C249.89 262.548 250.818 262.759 251.615 263.183C252.413 263.598 253.039 264.18 253.495 264.928C253.959 265.669 254.199 266.531 254.215 267.516H251.444C251.42 267.028 251.298 266.588 251.078 266.198C250.867 265.799 250.565 265.482 250.175 265.246C249.792 265.01 249.333 264.892 248.795 264.892C248.201 264.892 247.709 265.014 247.318 265.258C246.928 265.494 246.623 265.819 246.403 266.234C246.183 266.641 246.024 267.101 245.927 267.614C245.837 268.118 245.792 268.643 245.792 269.188V269.616C245.792 270.161 245.837 270.69 245.927 271.203C246.016 271.715 246.171 272.175 246.391 272.582C246.618 272.981 246.928 273.302 247.318 273.546C247.709 273.782 248.205 273.9 248.808 273.9ZM259.379 257.25V276H256.449V257.25H259.379ZM258.866 268.908L257.914 268.896C257.922 267.984 258.048 267.142 258.292 266.369C258.545 265.596 258.895 264.924 259.342 264.354C259.798 263.777 260.343 263.333 260.978 263.024C261.613 262.707 262.317 262.548 263.09 262.548C263.741 262.548 264.327 262.637 264.848 262.816C265.377 262.995 265.832 263.284 266.215 263.683C266.597 264.074 266.886 264.586 267.082 265.221C267.285 265.848 267.387 266.613 267.387 267.516V276H264.433V267.492C264.433 266.857 264.339 266.352 264.152 265.978C263.973 265.604 263.708 265.335 263.358 265.172C263.008 265.001 262.581 264.916 262.077 264.916C261.548 264.916 261.08 265.022 260.673 265.233C260.274 265.445 259.94 265.734 259.672 266.1C259.403 266.466 259.2 266.889 259.062 267.37C258.931 267.85 258.866 268.362 258.866 268.908ZM276.188 276.244C275.211 276.244 274.328 276.085 273.539 275.768C272.758 275.443 272.09 274.991 271.537 274.413C270.992 273.835 270.573 273.156 270.28 272.375C269.987 271.593 269.84 270.751 269.84 269.848V269.359C269.84 268.326 269.991 267.39 270.292 266.552C270.593 265.714 271.012 264.997 271.549 264.403C272.086 263.801 272.721 263.341 273.454 263.024C274.186 262.707 274.979 262.548 275.834 262.548C276.778 262.548 277.604 262.707 278.312 263.024C279.02 263.341 279.606 263.789 280.07 264.367C280.542 264.936 280.892 265.616 281.12 266.405C281.356 267.195 281.474 268.065 281.474 269.018V270.275H271.269V268.163H278.568V267.931C278.552 267.402 278.446 266.906 278.251 266.442C278.064 265.978 277.775 265.604 277.384 265.319C276.994 265.034 276.473 264.892 275.822 264.892C275.333 264.892 274.898 264.997 274.516 265.209C274.141 265.412 273.828 265.709 273.576 266.1C273.323 266.491 273.128 266.963 272.99 267.516C272.86 268.061 272.794 268.676 272.794 269.359V269.848C272.794 270.425 272.872 270.963 273.026 271.459C273.189 271.947 273.425 272.375 273.734 272.741C274.044 273.107 274.418 273.396 274.857 273.607C275.297 273.811 275.797 273.913 276.359 273.913C277.067 273.913 277.698 273.77 278.251 273.485C278.804 273.201 279.285 272.798 279.691 272.277L281.242 273.778C280.957 274.193 280.587 274.592 280.131 274.975C279.675 275.349 279.118 275.654 278.458 275.89C277.807 276.126 277.051 276.244 276.188 276.244ZM291.825 273.266V257.25H294.779V276H292.106L291.825 273.266ZM283.231 269.542V269.286C283.231 268.285 283.349 267.374 283.585 266.552C283.821 265.722 284.163 265.01 284.611 264.416C285.058 263.813 285.604 263.354 286.247 263.036C286.889 262.711 287.614 262.548 288.419 262.548C289.217 262.548 289.917 262.702 290.519 263.012C291.121 263.321 291.634 263.764 292.057 264.342C292.48 264.912 292.818 265.596 293.07 266.393C293.323 267.182 293.502 268.061 293.607 269.03V269.848C293.502 270.792 293.323 271.654 293.07 272.436C292.818 273.217 292.48 273.892 292.057 274.462C291.634 275.032 291.117 275.471 290.507 275.78C289.905 276.09 289.201 276.244 288.395 276.244C287.597 276.244 286.877 276.077 286.234 275.744C285.6 275.41 285.058 274.942 284.611 274.34C284.163 273.738 283.821 273.03 283.585 272.216C283.349 271.394 283.231 270.503 283.231 269.542ZM286.173 269.286V269.542C286.173 270.145 286.226 270.706 286.332 271.227C286.446 271.748 286.621 272.208 286.857 272.606C287.093 272.997 287.398 273.306 287.772 273.534C288.155 273.754 288.611 273.864 289.14 273.864C289.807 273.864 290.356 273.717 290.788 273.424C291.219 273.131 291.557 272.737 291.801 272.24C292.053 271.736 292.224 271.174 292.313 270.556V268.346C292.265 267.866 292.163 267.418 292.008 267.003C291.862 266.588 291.662 266.226 291.41 265.917C291.158 265.6 290.845 265.355 290.47 265.185C290.104 265.006 289.669 264.916 289.164 264.916C288.627 264.916 288.171 265.03 287.797 265.258C287.423 265.486 287.113 265.799 286.869 266.198C286.633 266.597 286.458 267.06 286.344 267.589C286.23 268.118 286.173 268.684 286.173 269.286ZM305.802 272.887V262.792H308.756V276H305.973L305.802 272.887ZM306.217 270.141L307.206 270.116C307.206 271.003 307.108 271.821 306.913 272.57C306.718 273.31 306.417 273.957 306.01 274.511C305.603 275.056 305.082 275.483 304.447 275.792C303.812 276.094 303.052 276.244 302.165 276.244C301.522 276.244 300.932 276.151 300.395 275.963C299.857 275.776 299.394 275.487 299.003 275.097C298.62 274.706 298.323 274.197 298.112 273.571C297.9 272.944 297.794 272.195 297.794 271.325V262.792H300.736V271.349C300.736 271.829 300.793 272.232 300.907 272.558C301.021 272.875 301.176 273.131 301.371 273.327C301.566 273.522 301.794 273.66 302.055 273.742C302.315 273.823 302.592 273.864 302.885 273.864C303.723 273.864 304.382 273.701 304.862 273.375C305.351 273.042 305.696 272.594 305.9 272.033C306.111 271.471 306.217 270.84 306.217 270.141ZM314.921 257.25V276H311.967V257.25H314.921ZM323.966 276.244C322.99 276.244 322.107 276.085 321.317 275.768C320.536 275.443 319.869 274.991 319.315 274.413C318.77 273.835 318.351 273.156 318.058 272.375C317.765 271.593 317.619 270.751 317.619 269.848V269.359C317.619 268.326 317.769 267.39 318.07 266.552C318.371 265.714 318.791 264.997 319.328 264.403C319.865 263.801 320.5 263.341 321.232 263.024C321.964 262.707 322.758 262.548 323.612 262.548C324.556 262.548 325.382 262.707 326.09 263.024C326.798 263.341 327.384 263.789 327.848 264.367C328.32 264.936 328.67 265.616 328.898 266.405C329.134 267.195 329.252 268.065 329.252 269.018V270.275H319.047V268.163H326.347V267.931C326.33 267.402 326.225 266.906 326.029 266.442C325.842 265.978 325.553 265.604 325.163 265.319C324.772 265.034 324.251 264.892 323.6 264.892C323.112 264.892 322.676 264.997 322.294 265.209C321.92 265.412 321.606 265.709 321.354 266.1C321.102 266.491 320.906 266.963 320.768 267.516C320.638 268.061 320.573 268.676 320.573 269.359V269.848C320.573 270.425 320.65 270.963 320.805 271.459C320.967 271.947 321.203 272.375 321.513 272.741C321.822 273.107 322.196 273.396 322.636 273.607C323.075 273.811 323.576 273.913 324.137 273.913C324.845 273.913 325.476 273.77 326.029 273.485C326.583 273.201 327.063 272.798 327.47 272.277L329.02 273.778C328.735 274.193 328.365 274.592 327.909 274.975C327.453 275.349 326.896 275.654 326.237 275.89C325.586 276.126 324.829 276.244 323.966 276.244Z" fill="white" visibility="hidden"/>
<text x="188.5" y="268" text-anchor="middle" fill="white" font-size="24" font-weight="500" font-family="Arial, sans-serif">Расписание записи видео</text>
<path d="M219 132H152C148.134 132 145 135.134 145 139V183C145 186.866 148.134 190 152 190H219C222.866 190 226 186.866 226 183V139C226 135.134 222.866 132 219 132Z" stroke="white" stroke-width="4"/>
<path d="M160 128V135" stroke="white" stroke-width="4" stroke-linecap="round"/>
<path d="M177 128V135" stroke="white" stroke-width="4" stroke-linecap="round"/>
<path d="M194 128V135" stroke="white" stroke-width="4" stroke-linecap="round"/>
<path d="M211 128V135" stroke="white" stroke-width="4" stroke-linecap="round"/>
<path d="M162 143H154C153.448 143 153 143.448 153 144V150C153 150.552 153.448 151 154 151H162C162.552 151 163 150.552 163 150V144C163 143.448 162.552 143 162 143Z" fill="white"/>
<path d="M162 157H154C153.448 157 153 157.448 153 158V164C153 164.552 153.448 165 154 165H162C162.552 165 163 164.552 163 164V158C163 157.448 162.552 157 162 157Z" fill="white"/>
<path d="M162 171H154C153.448 171 153 171.448 153 172V178C153 178.552 153.448 179 154 179H162C162.552 179 163 178.552 163 178V172C163 171.448 162.552 171 162 171Z" fill="white"/>
<path d="M176 143H168C167.448 143 167 143.448 167 144V150C167 150.552 167.448 151 168 151H176C176.552 151 177 150.552 177 150V144C177 143.448 176.552 143 176 143Z" fill="white"/>
<path d="M176 157H168C167.448 157 167 157.448 167 158V164C167 164.552 167.448 165 168 165H176C176.552 165 177 164.552 177 164V158C177 157.448 176.552 157 176 157Z" fill="white"/>
<path d="M176 171H168C167.448 171 167 171.448 167 172V178C167 178.552 167.448 179 168 179H176C176.552 179 177 178.552 177 178V172C177 171.448 176.552 171 176 171Z" fill="white"/>
<path d="M190 143H182C181.448 143 181 143.448 181 144V150C181 150.552 181.448 151 182 151H190C190.552 151 191 150.552 191 150V144C191 143.448 190.552 143 190 143Z" fill="white"/>
<path d="M190 157H182C181.448 157 181 157.448 181 158V164C181 164.552 181.448 165 182 165H190C190.552 165 191 164.552 191 164V158C191 157.448 190.552 157 190 157Z" fill="white"/>
<path d="M190 171H182C181.448 171 181 171.448 181 172V178C181 178.552 181.448 179 182 179H190C190.552 179 191 178.552 191 178V172C191 171.448 190.552 171 190 171Z" fill="white"/>
<path d="M204 143H196C195.448 143 195 143.448 195 144V150C195 150.552 195.448 151 196 151H204C204.552 151 205 150.552 205 150V144C205 143.448 204.552 143 204 143Z" fill="white"/>
<path d="M204 157H196C195.448 157 195 157.448 195 158V164C195 164.552 195.448 165 196 165H204C204.552 165 205 164.552 205 164V158C205 157.448 204.552 157 204 157Z" fill="white"/>
<path d="M204 171H196C195.448 171 195 171.448 195 172V178C195 178.552 195.448 179 196 179H204C204.552 179 205 178.552 205 178V172C205 171.448 204.552 171 204 171Z" fill="white"/>
<path d="M218 143H210C209.448 143 209 143.448 209 144V150C209 150.552 209.448 151 210 151H218C218.552 151 219 150.552 219 150V144C219 143.448 218.552 143 218 143Z" fill="white"/>
<path d="M218 157H210C209.448 157 209 157.448 209 158V164C209 164.552 209.448 165 210 165H218C218.552 165 219 164.552 219 164V158C219 157.448 218.552 157 218 157Z" fill="white"/>
<circle cx="220" cy="183" r="12.5" fill="#222222" stroke="white" stroke-width="3"/>
<path d="M220 176V183H227" stroke="white" stroke-width="3" stroke-linecap="round" stroke-linejoin="round"/>
</svg>
