<svg width="119" height="128" viewBox="0 0 119 128" fill="none" xmlns="http://www.w3.org/2000/svg">
<path fill-rule="evenodd" clip-rule="evenodd" d="M29.6123 31.7869C37.3995 34.048 45.5453 29.5682 47.8064 21.781C50.0675 13.9938 45.5877 5.84806 37.8005 3.58695C30.0133 1.32584 21.8676 5.80562 19.6065 13.5928C17.3454 21.38 21.8251 29.5258 29.6123 31.7869ZM30.2167 35.0881C30.2227 35.0674 30.2283 35.0466 30.2334 35.0258C38.6978 36.7312 47.1969 32.0313 50.2462 23.9425L50.2525 23.9443L92.8223 36.305C91.7795 42.2012 94.9776 48.0609 100.489 50.3786C100.479 50.4055 100.471 50.4328 100.463 50.4606L88.1361 92.913C88.1301 92.9336 88.1246 92.9542 88.1195 92.9749C79.5691 91.2524 70.9832 96.066 68.0157 104.306L25.4814 91.9561C26.667 85.9728 23.4565 79.9738 17.8641 77.6217C17.8735 77.5951 17.8822 77.568 17.8901 77.5405L30.2167 35.0881ZM103.365 51.2139C103.359 51.2417 103.352 51.2694 103.344 51.2971L91.0171 93.7495C91.0129 93.7638 91.0086 93.7781 91.004 93.7922L90.998 93.8104C99.4914 97.0681 104.21 106.35 101.628 115.244C98.9047 124.623 89.0946 130.018 79.7162 127.295C70.9436 124.748 65.6563 115.999 67.2387 107.204L67.2108 107.196L67.1881 107.19L24.6241 94.831C24.6036 94.8251 24.5833 94.8187 24.5632 94.812C21.9612 100.531 15.489 103.624 9.27729 101.821C2.45669 99.8401 -1.46703 92.7054 0.513411 85.8848C2.35268 79.5504 8.63751 75.7146 14.9877 76.7863C14.994 76.7589 15.0012 76.7314 15.0091 76.704L27.3357 34.2516C27.3417 34.2309 27.3481 34.2104 27.3549 34.1902C18.8618 30.9324 14.143 21.6502 16.7255 12.7563C19.4486 3.37794 29.2587 -2.01717 38.6371 0.705941C47.496 3.27826 52.8008 12.1744 51.0658 21.0568L51.089 21.0633L93.6821 33.4307C96.2096 27.5573 102.776 24.3507 109.075 26.1797C115.896 28.1601 119.82 35.2948 117.839 42.1154C116 48.4497 109.715 52.2854 103.365 51.2139ZM98.7468 114.408C96.4857 122.195 88.34 126.675 80.5528 124.414C72.7656 122.153 68.2858 114.007 70.5469 106.22C72.808 98.4326 80.9538 93.9528 88.741 96.2139C96.5282 98.475 101.008 106.621 98.7468 114.408ZM10.1138 98.9395C15.3433 100.458 20.8136 97.4496 22.332 92.2201C23.8504 86.9907 20.8421 81.5204 15.6126 80.002C10.3831 78.4835 4.91286 81.4919 3.39442 86.7214C1.87598 91.9508 4.88436 97.4211 10.1138 98.9395ZM114.958 41.2788C113.44 46.5083 107.97 49.5167 102.74 47.9982C97.5106 46.4798 94.5022 41.0095 96.0207 35.7801C97.5391 30.5506 103.009 27.5422 108.239 29.0607C113.468 30.5791 116.477 36.0494 114.958 41.2788Z" fill="white"/>
</svg>
