<svg width="177" height="177" viewBox="0 0 177 177" fill="none" xmlns="http://www.w3.org/2000/svg">
<rect width="177" height="177" fill="#222222"/>
<g clip-path="url(#clip0_20_546)">
<path d="M108.31 42.9718H63.9578C61.3986 42.9718 59.324 45.0464 59.324 47.6056V76.7324C59.324 79.2915 61.3986 81.3662 63.9578 81.3662H108.31C110.869 81.3662 112.944 79.2915 112.944 76.7324V47.6056C112.944 45.0464 110.869 42.9718 108.31 42.9718Z" stroke="white" stroke-width="2.64789"/>
<path d="M69.2534 40.324V44.9578" stroke="white" stroke-width="2.64789" stroke-linecap="round"/>
<path d="M80.5071 40.324V44.9578" stroke="white" stroke-width="2.64789" stroke-linecap="round"/>
<path d="M91.7605 40.324V44.9578" stroke="white" stroke-width="2.64789" stroke-linecap="round"/>
<path d="M103.014 40.324V44.9578" stroke="white" stroke-width="2.64789" stroke-linecap="round"/>
<path d="M70.5774 50.2535H65.2816C64.916 50.2535 64.6196 50.5499 64.6196 50.9155V54.8873C64.6196 55.2529 64.916 55.5493 65.2816 55.5493H70.5774C70.943 55.5493 71.2393 55.2529 71.2393 54.8873V50.9155C71.2393 50.5499 70.943 50.2535 70.5774 50.2535Z" fill="white"/>
<path d="M70.5774 59.5211H65.2816C64.916 59.5211 64.6196 59.8175 64.6196 60.1831V64.1549C64.6196 64.5205 64.916 64.8169 65.2816 64.8169H70.5774C70.943 64.8169 71.2393 64.5205 71.2393 64.1549V60.1831C71.2393 59.8175 70.943 59.5211 70.5774 59.5211Z" fill="white"/>
<path d="M70.5774 68.7887H65.2816C64.916 68.7887 64.6196 69.0851 64.6196 69.4507V73.4225C64.6196 73.7881 64.916 74.0845 65.2816 74.0845H70.5774C70.943 74.0845 71.2393 73.7881 71.2393 73.4225V69.4507C71.2393 69.0851 70.943 68.7887 70.5774 68.7887Z" fill="white"/>
<path d="M79.845 50.2535H74.5492C74.1836 50.2535 73.8872 50.5499 73.8872 50.9155V54.8873C73.8872 55.2529 74.1836 55.5493 74.5492 55.5493H79.845C80.2106 55.5493 80.5069 55.2529 80.5069 54.8873V50.9155C80.5069 50.5499 80.2106 50.2535 79.845 50.2535Z" fill="white"/>
<path d="M79.845 59.5211H74.5492C74.1836 59.5211 73.8872 59.8175 73.8872 60.1831V64.1549C73.8872 64.5205 74.1836 64.8169 74.5492 64.8169H79.845C80.2106 64.8169 80.5069 64.5205 80.5069 64.1549V60.1831C80.5069 59.8175 80.2106 59.5211 79.845 59.5211Z" fill="white"/>
<path d="M79.845 68.7887H74.5492C74.1836 68.7887 73.8872 69.0851 73.8872 69.4507V73.4225C73.8872 73.7881 74.1836 74.0845 74.5492 74.0845H79.845C80.2106 74.0845 80.5069 73.7881 80.5069 73.4225V69.4507C80.5069 69.0851 80.2106 68.7887 79.845 68.7887Z" fill="white"/>
<path d="M89.1128 50.2535H83.817C83.4514 50.2535 83.155 50.5499 83.155 50.9155V54.8873C83.155 55.2529 83.4514 55.5493 83.817 55.5493H89.1128C89.4784 55.5493 89.7747 55.2529 89.7747 54.8873V50.9155C89.7747 50.5499 89.4784 50.2535 89.1128 50.2535Z" fill="white"/>
<path d="M89.1128 59.5211H83.817C83.4514 59.5211 83.155 59.8175 83.155 60.1831V64.1549C83.155 64.5205 83.4514 64.8169 83.817 64.8169H89.1128C89.4784 64.8169 89.7747 64.5205 89.7747 64.1549V60.1831C89.7747 59.8175 89.4784 59.5211 89.1128 59.5211Z" fill="white"/>
<path d="M89.1128 68.7887H83.817C83.4514 68.7887 83.155 69.0851 83.155 69.4507V73.4225C83.155 73.7881 83.4514 74.0845 83.817 74.0845H89.1128C89.4784 74.0845 89.7747 73.7881 89.7747 73.4225V69.4507C89.7747 69.0851 89.4784 68.7887 89.1128 68.7887Z" fill="white"/>
<path d="M98.3804 50.2535H93.0846C92.719 50.2535 92.4226 50.5499 92.4226 50.9155V54.8873C92.4226 55.2529 92.719 55.5493 93.0846 55.5493H98.3804C98.746 55.5493 99.0423 55.2529 99.0423 54.8873V50.9155C99.0423 50.5499 98.746 50.2535 98.3804 50.2535Z" fill="white"/>
<path d="M98.3804 59.5211H93.0846C92.719 59.5211 92.4226 59.8175 92.4226 60.1831V64.1549C92.4226 64.5205 92.719 64.8169 93.0846 64.8169H98.3804C98.746 64.8169 99.0423 64.5205 99.0423 64.1549V60.1831C99.0423 59.8175 98.746 59.5211 98.3804 59.5211Z" fill="white"/>
<path d="M98.3804 68.7887H93.0846C92.719 68.7887 92.4226 69.0851 92.4226 69.4507V73.4225C92.4226 73.7881 92.719 74.0845 93.0846 74.0845H98.3804C98.746 74.0845 99.0423 73.7881 99.0423 73.4225V69.4507C99.0423 69.0851 98.746 68.7887 98.3804 68.7887Z" fill="white"/>
<path d="M107.648 50.2535H102.352C101.987 50.2535 101.69 50.5499 101.69 50.9155V54.8873C101.69 55.2529 101.987 55.5493 102.352 55.5493H107.648C108.014 55.5493 108.31 55.2529 108.31 54.8873V50.9155C108.31 50.5499 108.014 50.2535 107.648 50.2535Z" fill="white"/>
<path d="M107.648 59.5211H102.352C101.987 59.5211 101.69 59.8175 101.69 60.1831V64.1549C101.69 64.5205 101.987 64.8169 102.352 64.8169H107.648C108.014 64.8169 108.31 64.5205 108.31 64.1549V60.1831C108.31 59.8175 108.014 59.5211 107.648 59.5211Z" fill="white"/>
<circle cx="108.972" cy="76.7324" r="8.27465" fill="#222222" stroke="white" stroke-width="1.98592"/>
<path d="M108.972 72.0986V76.7324H113.606" stroke="white" stroke-width="1.98592" stroke-linecap="round" stroke-linejoin="round"/>
</g>
<path d="M14.5771 134.489L17.5098 126.047H18.9385L15.2539 136H14.2354L14.5771 134.489ZM11.8359 126.047L14.7412 134.489L15.1035 136H14.085L10.4072 126.047H11.8359ZM21.4609 128.604V136H20.1895V128.604H21.4609ZM20.0938 126.642C20.0938 126.437 20.1553 126.263 20.2783 126.122C20.4059 125.981 20.5928 125.91 20.8389 125.91C21.0804 125.91 21.265 125.981 21.3926 126.122C21.5247 126.263 21.5908 126.437 21.5908 126.642C21.5908 126.838 21.5247 127.006 21.3926 127.147C21.265 127.284 21.0804 127.353 20.8389 127.353C20.5928 127.353 20.4059 127.284 20.2783 127.147C20.1553 127.006 20.0938 126.838 20.0938 126.642ZM28.1533 134.564V125.5H29.4248V136H28.2627L28.1533 134.564ZM23.1768 132.384V132.24C23.1768 131.675 23.2451 131.162 23.3818 130.702C23.5231 130.237 23.7214 129.839 23.9766 129.506C24.2363 129.173 24.5439 128.918 24.8994 128.74C25.2594 128.558 25.6605 128.467 26.1025 128.467C26.5674 128.467 26.973 128.549 27.3193 128.713C27.6702 128.872 27.9665 129.107 28.208 129.417C28.4541 129.722 28.6478 130.091 28.7891 130.524C28.9303 130.957 29.0283 131.447 29.083 131.994V132.623C29.0329 133.165 28.9349 133.653 28.7891 134.086C28.6478 134.519 28.4541 134.888 28.208 135.193C27.9665 135.499 27.6702 135.733 27.3193 135.897C26.9684 136.057 26.5583 136.137 26.0889 136.137C25.6559 136.137 25.2594 136.043 24.8994 135.856C24.5439 135.67 24.2363 135.408 23.9766 135.07C23.7214 134.733 23.5231 134.337 23.3818 133.881C23.2451 133.421 23.1768 132.922 23.1768 132.384ZM24.4482 132.24V132.384C24.4482 132.753 24.4847 133.099 24.5576 133.423C24.6351 133.746 24.7536 134.031 24.9131 134.277C25.0726 134.523 25.2754 134.717 25.5215 134.858C25.7676 134.995 26.0615 135.063 26.4033 135.063C26.8226 135.063 27.1667 134.975 27.4355 134.797C27.709 134.619 27.9277 134.384 28.0918 134.093C28.2559 133.801 28.3835 133.484 28.4746 133.143V131.495C28.4199 131.244 28.3402 131.003 28.2354 130.771C28.1351 130.534 28.0029 130.324 27.8389 130.142C27.6794 129.955 27.4811 129.807 27.2441 129.697C27.0117 129.588 26.736 129.533 26.417 129.533C26.0706 129.533 25.7721 129.606 25.5215 129.752C25.2754 129.893 25.0726 130.089 24.9131 130.34C24.7536 130.586 24.6351 130.873 24.5576 131.201C24.4847 131.525 24.4482 131.871 24.4482 132.24ZM34.4629 136.137C33.9479 136.137 33.4808 136.05 33.0615 135.877C32.6468 135.699 32.2891 135.451 31.9883 135.132C31.6921 134.813 31.4642 134.435 31.3047 133.997C31.1452 133.56 31.0654 133.081 31.0654 132.562V132.274C31.0654 131.673 31.1543 131.137 31.332 130.668C31.5098 130.194 31.7513 129.793 32.0566 129.465C32.362 129.137 32.7083 128.888 33.0957 128.72C33.4831 128.551 33.8841 128.467 34.2988 128.467C34.8275 128.467 35.2832 128.558 35.666 128.74C36.0534 128.923 36.3701 129.178 36.6162 129.506C36.8623 129.829 37.0446 130.212 37.1631 130.654C37.2816 131.092 37.3408 131.57 37.3408 132.09V132.657H31.8174V131.625H36.0762V131.529C36.0579 131.201 35.9896 130.882 35.8711 130.572C35.7572 130.262 35.5749 130.007 35.3242 129.807C35.0736 129.606 34.7318 129.506 34.2988 129.506C34.0117 129.506 33.7474 129.567 33.5059 129.69C33.2643 129.809 33.057 129.987 32.8838 130.224C32.7106 130.461 32.5762 130.75 32.4805 131.092C32.3848 131.434 32.3369 131.828 32.3369 132.274V132.562C32.3369 132.912 32.3848 133.243 32.4805 133.553C32.5807 133.858 32.7243 134.127 32.9111 134.359C33.1025 134.592 33.3327 134.774 33.6016 134.906C33.875 135.038 34.1849 135.104 34.5312 135.104C34.9779 135.104 35.3561 135.013 35.666 134.831C35.9759 134.649 36.2471 134.405 36.4795 134.1L37.2451 134.708C37.0856 134.95 36.8828 135.18 36.6367 135.398C36.3906 135.617 36.0876 135.795 35.7275 135.932C35.3721 136.068 34.9505 136.137 34.4629 136.137ZM38.4824 132.384V132.227C38.4824 131.693 38.5599 131.199 38.7148 130.743C38.8698 130.283 39.0931 129.884 39.3848 129.547C39.6764 129.205 40.0296 128.941 40.4443 128.754C40.859 128.562 41.3239 128.467 41.8389 128.467C42.3584 128.467 42.8255 128.562 43.2402 128.754C43.6595 128.941 44.015 129.205 44.3066 129.547C44.6029 129.884 44.8285 130.283 44.9834 130.743C45.1383 131.199 45.2158 131.693 45.2158 132.227V132.384C45.2158 132.917 45.1383 133.411 44.9834 133.867C44.8285 134.323 44.6029 134.722 44.3066 135.063C44.015 135.401 43.6618 135.665 43.2471 135.856C42.8369 136.043 42.3721 136.137 41.8525 136.137C41.333 136.137 40.8659 136.043 40.4512 135.856C40.0365 135.665 39.681 135.401 39.3848 135.063C39.0931 134.722 38.8698 134.323 38.7148 133.867C38.5599 133.411 38.4824 132.917 38.4824 132.384ZM39.7471 132.227V132.384C39.7471 132.753 39.7904 133.102 39.877 133.43C39.9635 133.753 40.0934 134.04 40.2666 134.291C40.4443 134.542 40.6654 134.74 40.9297 134.886C41.194 135.027 41.5016 135.098 41.8525 135.098C42.1989 135.098 42.502 135.027 42.7617 134.886C43.026 134.74 43.2448 134.542 43.418 134.291C43.5911 134.04 43.721 133.753 43.8076 133.43C43.8988 133.102 43.9443 132.753 43.9443 132.384V132.227C43.9443 131.862 43.8988 131.518 43.8076 131.194C43.721 130.866 43.5889 130.577 43.4111 130.326C43.238 130.071 43.0192 129.87 42.7549 129.725C42.4951 129.579 42.1898 129.506 41.8389 129.506C41.4925 129.506 41.1872 129.579 40.9229 129.725C40.6631 129.87 40.4443 130.071 40.2666 130.326C40.0934 130.577 39.9635 130.866 39.877 131.194C39.7904 131.518 39.7471 131.862 39.7471 132.227ZM51.5391 129.766V136H50.2744V128.604H51.5049L51.5391 129.766ZM53.8496 128.562L53.8428 129.738C53.738 129.715 53.6377 129.702 53.542 129.697C53.4508 129.688 53.346 129.684 53.2275 129.684C52.9359 129.684 52.6784 129.729 52.4551 129.82C52.2318 129.911 52.0426 130.039 51.8877 130.203C51.7327 130.367 51.6097 130.563 51.5186 130.791C51.432 131.014 51.375 131.26 51.3477 131.529L50.9922 131.734C50.9922 131.288 51.0355 130.868 51.1221 130.477C51.2132 130.085 51.3522 129.738 51.5391 129.438C51.7259 129.132 51.9629 128.895 52.25 128.727C52.5417 128.553 52.888 128.467 53.2891 128.467C53.3802 128.467 53.485 128.478 53.6035 128.501C53.722 128.519 53.804 128.54 53.8496 128.562ZM57.9512 136.137C57.4362 136.137 56.9691 136.05 56.5498 135.877C56.1351 135.699 55.7773 135.451 55.4766 135.132C55.1803 134.813 54.9525 134.435 54.793 133.997C54.6335 133.56 54.5537 133.081 54.5537 132.562V132.274C54.5537 131.673 54.6426 131.137 54.8203 130.668C54.998 130.194 55.2396 129.793 55.5449 129.465C55.8503 129.137 56.1966 128.888 56.584 128.72C56.9714 128.551 57.3724 128.467 57.7871 128.467C58.3158 128.467 58.7715 128.558 59.1543 128.74C59.5417 128.923 59.8584 129.178 60.1045 129.506C60.3506 129.829 60.5329 130.212 60.6514 130.654C60.7699 131.092 60.8291 131.57 60.8291 132.09V132.657H55.3057V131.625H59.5645V131.529C59.5462 131.201 59.4779 130.882 59.3594 130.572C59.2454 130.262 59.0632 130.007 58.8125 129.807C58.5618 129.606 58.2201 129.506 57.7871 129.506C57.5 129.506 57.2357 129.567 56.9941 129.69C56.7526 129.809 56.5452 129.987 56.3721 130.224C56.1989 130.461 56.0645 130.75 55.9688 131.092C55.873 131.434 55.8252 131.828 55.8252 132.274V132.562C55.8252 132.912 55.873 133.243 55.9688 133.553C56.069 133.858 56.2126 134.127 56.3994 134.359C56.5908 134.592 56.821 134.774 57.0898 134.906C57.3633 135.038 57.6732 135.104 58.0195 135.104C58.4661 135.104 58.8444 135.013 59.1543 134.831C59.4642 134.649 59.7354 134.405 59.9678 134.1L60.7334 134.708C60.5739 134.95 60.3711 135.18 60.125 135.398C59.8789 135.617 59.5758 135.795 59.2158 135.932C58.8604 136.068 58.4388 136.137 57.9512 136.137ZM65.2656 135.098C65.5664 135.098 65.8444 135.036 66.0996 134.913C66.3548 134.79 66.5645 134.621 66.7285 134.407C66.8926 134.188 66.986 133.94 67.0088 133.662H68.2119C68.1891 134.1 68.041 134.507 67.7676 134.886C67.4987 135.259 67.1455 135.562 66.708 135.795C66.2705 136.023 65.7897 136.137 65.2656 136.137C64.7096 136.137 64.2243 136.039 63.8096 135.843C63.3994 135.647 63.0576 135.378 62.7842 135.036C62.5153 134.694 62.3125 134.302 62.1758 133.86C62.0436 133.414 61.9775 132.942 61.9775 132.445V132.158C61.9775 131.661 62.0436 131.192 62.1758 130.75C62.3125 130.303 62.5153 129.909 62.7842 129.567C63.0576 129.226 63.3994 128.957 63.8096 128.761C64.2243 128.565 64.7096 128.467 65.2656 128.467C65.8444 128.467 66.3503 128.585 66.7832 128.822C67.2161 129.055 67.5557 129.374 67.8018 129.779C68.0524 130.18 68.1891 130.636 68.2119 131.146H67.0088C66.986 130.841 66.8994 130.565 66.749 130.319C66.6032 130.073 66.4027 129.877 66.1475 129.731C65.8968 129.581 65.6029 129.506 65.2656 129.506C64.8783 129.506 64.5524 129.583 64.2881 129.738C64.0283 129.889 63.821 130.094 63.666 130.354C63.5156 130.609 63.4062 130.894 63.3379 131.208C63.2741 131.518 63.2422 131.835 63.2422 132.158V132.445C63.2422 132.769 63.2741 133.088 63.3379 133.402C63.4017 133.717 63.5088 134.002 63.6592 134.257C63.8141 134.512 64.0215 134.717 64.2812 134.872C64.5456 135.022 64.8737 135.098 65.2656 135.098ZM69.2988 132.384V132.227C69.2988 131.693 69.3763 131.199 69.5312 130.743C69.6862 130.283 69.9095 129.884 70.2012 129.547C70.4928 129.205 70.846 128.941 71.2607 128.754C71.6755 128.562 72.1403 128.467 72.6553 128.467C73.1748 128.467 73.6419 128.562 74.0566 128.754C74.4759 128.941 74.8314 129.205 75.123 129.547C75.4193 129.884 75.6449 130.283 75.7998 130.743C75.9548 131.199 76.0322 131.693 76.0322 132.227V132.384C76.0322 132.917 75.9548 133.411 75.7998 133.867C75.6449 134.323 75.4193 134.722 75.123 135.063C74.8314 135.401 74.4782 135.665 74.0635 135.856C73.6533 136.043 73.1885 136.137 72.6689 136.137C72.1494 136.137 71.6823 136.043 71.2676 135.856C70.8529 135.665 70.4974 135.401 70.2012 135.063C69.9095 134.722 69.6862 134.323 69.5312 133.867C69.3763 133.411 69.2988 132.917 69.2988 132.384ZM70.5635 132.227V132.384C70.5635 132.753 70.6068 133.102 70.6934 133.43C70.7799 133.753 70.9098 134.04 71.083 134.291C71.2607 134.542 71.4818 134.74 71.7461 134.886C72.0104 135.027 72.318 135.098 72.6689 135.098C73.0153 135.098 73.3184 135.027 73.5781 134.886C73.8424 134.74 74.0612 134.542 74.2344 134.291C74.4076 134.04 74.5374 133.753 74.624 133.43C74.7152 133.102 74.7607 132.753 74.7607 132.384V132.227C74.7607 131.862 74.7152 131.518 74.624 131.194C74.5374 130.866 74.4053 130.577 74.2275 130.326C74.0544 130.071 73.8356 129.87 73.5713 129.725C73.3115 129.579 73.0062 129.506 72.6553 129.506C72.3089 129.506 72.0036 129.579 71.7393 129.725C71.4795 129.87 71.2607 130.071 71.083 130.326C70.9098 130.577 70.7799 130.866 70.6934 131.194C70.6068 131.518 70.5635 131.862 70.5635 132.227ZM78.8828 129.766V136H77.6182V128.604H78.8486L78.8828 129.766ZM81.1934 128.562L81.1865 129.738C81.0817 129.715 80.9814 129.702 80.8857 129.697C80.7946 129.688 80.6898 129.684 80.5713 129.684C80.2796 129.684 80.0221 129.729 79.7988 129.82C79.5755 129.911 79.3864 130.039 79.2314 130.203C79.0765 130.367 78.9535 130.563 78.8623 130.791C78.7757 131.014 78.7188 131.26 78.6914 131.529L78.3359 131.734C78.3359 131.288 78.3792 130.868 78.4658 130.477C78.557 130.085 78.696 129.738 78.8828 129.438C79.0697 129.132 79.3066 128.895 79.5938 128.727C79.8854 128.553 80.2318 128.467 80.6328 128.467C80.724 128.467 80.8288 128.478 80.9473 128.501C81.0658 128.519 81.1478 128.54 81.1934 128.562ZM86.8877 134.564V125.5H88.1592V136H86.9971L86.8877 134.564ZM81.9111 132.384V132.24C81.9111 131.675 81.9795 131.162 82.1162 130.702C82.2575 130.237 82.4557 129.839 82.7109 129.506C82.9707 129.173 83.2783 128.918 83.6338 128.74C83.9938 128.558 84.3949 128.467 84.8369 128.467C85.3018 128.467 85.7074 128.549 86.0537 128.713C86.4046 128.872 86.7008 129.107 86.9424 129.417C87.1885 129.722 87.3822 130.091 87.5234 130.524C87.6647 130.957 87.7627 131.447 87.8174 131.994V132.623C87.7673 133.165 87.6693 133.653 87.5234 134.086C87.3822 134.519 87.1885 134.888 86.9424 135.193C86.7008 135.499 86.4046 135.733 86.0537 135.897C85.7028 136.057 85.2926 136.137 84.8232 136.137C84.3903 136.137 83.9938 136.043 83.6338 135.856C83.2783 135.67 82.9707 135.408 82.7109 135.07C82.4557 134.733 82.2575 134.337 82.1162 133.881C81.9795 133.421 81.9111 132.922 81.9111 132.384ZM83.1826 132.24V132.384C83.1826 132.753 83.2191 133.099 83.292 133.423C83.3695 133.746 83.488 134.031 83.6475 134.277C83.807 134.523 84.0098 134.717 84.2559 134.858C84.502 134.995 84.7959 135.063 85.1377 135.063C85.557 135.063 85.901 134.975 86.1699 134.797C86.4434 134.619 86.6621 134.384 86.8262 134.093C86.9902 133.801 87.1178 133.484 87.209 133.143V131.495C87.1543 131.244 87.0745 131.003 86.9697 130.771C86.8695 130.534 86.7373 130.324 86.5732 130.142C86.4137 129.955 86.2155 129.807 85.9785 129.697C85.7461 129.588 85.4704 129.533 85.1514 129.533C84.805 129.533 84.5065 129.606 84.2559 129.752C84.0098 129.893 83.807 130.089 83.6475 130.34C83.488 130.586 83.3695 130.873 83.292 131.201C83.2191 131.525 83.1826 131.871 83.1826 132.24ZM91.502 128.604V136H90.2305V128.604H91.502ZM90.1348 126.642C90.1348 126.437 90.1963 126.263 90.3193 126.122C90.4469 125.981 90.6338 125.91 90.8799 125.91C91.1214 125.91 91.306 125.981 91.4336 126.122C91.5658 126.263 91.6318 126.437 91.6318 126.642C91.6318 126.838 91.5658 127.006 91.4336 127.147C91.306 127.284 91.1214 127.353 90.8799 127.353C90.6338 127.353 90.4469 127.284 90.3193 127.147C90.1963 127.006 90.1348 126.838 90.1348 126.642ZM94.7969 130.183V136H93.5322V128.604H94.7285L94.7969 130.183ZM94.4961 132.021L93.9697 132.001C93.9743 131.495 94.0495 131.028 94.1953 130.6C94.3411 130.167 94.5462 129.791 94.8105 129.472C95.0749 129.153 95.3893 128.907 95.7539 128.733C96.123 128.556 96.5309 128.467 96.9775 128.467C97.3421 128.467 97.6702 128.517 97.9619 128.617C98.2536 128.713 98.502 128.868 98.707 129.082C98.9167 129.296 99.0762 129.574 99.1855 129.916C99.2949 130.253 99.3496 130.666 99.3496 131.153V136H98.0781V131.14C98.0781 130.752 98.0212 130.442 97.9072 130.21C97.7933 129.973 97.627 129.802 97.4082 129.697C97.1895 129.588 96.9206 129.533 96.6016 129.533C96.2871 129.533 96 129.599 95.7402 129.731C95.485 129.864 95.264 130.046 95.0771 130.278C94.8949 130.511 94.7513 130.777 94.6465 131.078C94.5462 131.374 94.4961 131.689 94.4961 132.021ZM106.062 128.604H107.211V135.843C107.211 136.494 107.079 137.05 106.814 137.511C106.55 137.971 106.181 138.32 105.707 138.557C105.238 138.798 104.695 138.919 104.08 138.919C103.825 138.919 103.524 138.878 103.178 138.796C102.836 138.718 102.499 138.584 102.166 138.393C101.838 138.206 101.562 137.953 101.339 137.634L102.002 136.882C102.312 137.256 102.635 137.515 102.973 137.661C103.314 137.807 103.652 137.88 103.984 137.88C104.385 137.88 104.732 137.805 105.023 137.654C105.315 137.504 105.541 137.281 105.7 136.984C105.864 136.693 105.946 136.333 105.946 135.904V130.23L106.062 128.604ZM100.97 132.384V132.24C100.97 131.675 101.036 131.162 101.168 130.702C101.305 130.237 101.498 129.839 101.749 129.506C102.004 129.173 102.312 128.918 102.672 128.74C103.032 128.558 103.438 128.467 103.889 128.467C104.354 128.467 104.759 128.549 105.105 128.713C105.456 128.872 105.753 129.107 105.994 129.417C106.24 129.722 106.434 130.091 106.575 130.524C106.716 130.957 106.814 131.447 106.869 131.994V132.623C106.819 133.165 106.721 133.653 106.575 134.086C106.434 134.519 106.24 134.888 105.994 135.193C105.753 135.499 105.456 135.733 105.105 135.897C104.755 136.057 104.344 136.137 103.875 136.137C103.433 136.137 103.032 136.043 102.672 135.856C102.316 135.67 102.011 135.408 101.756 135.07C101.501 134.733 101.305 134.337 101.168 133.881C101.036 133.421 100.97 132.922 100.97 132.384ZM102.234 132.24V132.384C102.234 132.753 102.271 133.099 102.344 133.423C102.421 133.746 102.537 134.031 102.692 134.277C102.852 134.523 103.055 134.717 103.301 134.858C103.547 134.995 103.841 135.063 104.183 135.063C104.602 135.063 104.948 134.975 105.222 134.797C105.495 134.619 105.712 134.384 105.871 134.093C106.035 133.801 106.163 133.484 106.254 133.143V131.495C106.204 131.244 106.126 131.003 106.021 130.771C105.921 130.534 105.789 130.324 105.625 130.142C105.465 129.955 105.267 129.807 105.03 129.697C104.793 129.588 104.515 129.533 104.196 129.533C103.85 129.533 103.551 129.606 103.301 129.752C103.055 129.893 102.852 130.089 102.692 130.34C102.537 130.586 102.421 130.873 102.344 131.201C102.271 131.525 102.234 131.871 102.234 132.24ZM116.911 134.038C116.911 133.856 116.87 133.687 116.788 133.532C116.711 133.373 116.549 133.229 116.303 133.102C116.061 132.969 115.697 132.855 115.209 132.76C114.799 132.673 114.427 132.571 114.095 132.452C113.767 132.334 113.486 132.19 113.254 132.021C113.026 131.853 112.851 131.655 112.728 131.427C112.604 131.199 112.543 130.932 112.543 130.627C112.543 130.335 112.607 130.06 112.734 129.8C112.867 129.54 113.051 129.31 113.288 129.109C113.53 128.909 113.819 128.752 114.156 128.638C114.493 128.524 114.869 128.467 115.284 128.467C115.877 128.467 116.382 128.572 116.802 128.781C117.221 128.991 117.542 129.271 117.766 129.622C117.989 129.968 118.101 130.354 118.101 130.777H116.836C116.836 130.572 116.774 130.374 116.651 130.183C116.533 129.987 116.357 129.825 116.125 129.697C115.897 129.57 115.617 129.506 115.284 129.506C114.933 129.506 114.648 129.561 114.43 129.67C114.215 129.775 114.058 129.909 113.958 130.073C113.862 130.237 113.814 130.41 113.814 130.593C113.814 130.729 113.837 130.853 113.883 130.962C113.933 131.067 114.02 131.165 114.143 131.256C114.266 131.342 114.439 131.424 114.662 131.502C114.885 131.579 115.17 131.657 115.517 131.734C116.123 131.871 116.622 132.035 117.014 132.227C117.406 132.418 117.697 132.653 117.889 132.931C118.08 133.209 118.176 133.546 118.176 133.942C118.176 134.266 118.107 134.562 117.971 134.831C117.839 135.1 117.645 135.332 117.39 135.528C117.139 135.72 116.838 135.87 116.487 135.979C116.141 136.084 115.751 136.137 115.318 136.137C114.667 136.137 114.115 136.021 113.664 135.788C113.213 135.556 112.871 135.255 112.639 134.886C112.406 134.517 112.29 134.127 112.29 133.717H113.562C113.58 134.063 113.68 134.339 113.862 134.544C114.045 134.744 114.268 134.888 114.532 134.975C114.797 135.057 115.059 135.098 115.318 135.098C115.665 135.098 115.954 135.052 116.187 134.961C116.424 134.87 116.604 134.744 116.727 134.585C116.85 134.425 116.911 134.243 116.911 134.038ZM122.797 135.098C123.098 135.098 123.376 135.036 123.631 134.913C123.886 134.79 124.096 134.621 124.26 134.407C124.424 134.188 124.517 133.94 124.54 133.662H125.743C125.72 134.1 125.572 134.507 125.299 134.886C125.03 135.259 124.677 135.562 124.239 135.795C123.802 136.023 123.321 136.137 122.797 136.137C122.241 136.137 121.756 136.039 121.341 135.843C120.931 135.647 120.589 135.378 120.315 135.036C120.047 134.694 119.844 134.302 119.707 133.86C119.575 133.414 119.509 132.942 119.509 132.445V132.158C119.509 131.661 119.575 131.192 119.707 130.75C119.844 130.303 120.047 129.909 120.315 129.567C120.589 129.226 120.931 128.957 121.341 128.761C121.756 128.565 122.241 128.467 122.797 128.467C123.376 128.467 123.882 128.585 124.314 128.822C124.747 129.055 125.087 129.374 125.333 129.779C125.584 130.18 125.72 130.636 125.743 131.146H124.54C124.517 130.841 124.431 130.565 124.28 130.319C124.134 130.073 123.934 129.877 123.679 129.731C123.428 129.581 123.134 129.506 122.797 129.506C122.41 129.506 122.084 129.583 121.819 129.738C121.56 129.889 121.352 130.094 121.197 130.354C121.047 130.609 120.938 130.894 120.869 131.208C120.805 131.518 120.773 131.835 120.773 132.158V132.445C120.773 132.769 120.805 133.088 120.869 133.402C120.933 133.717 121.04 134.002 121.19 134.257C121.345 134.512 121.553 134.717 121.812 134.872C122.077 135.022 122.405 135.098 122.797 135.098ZM128.43 125.5V136H127.165V125.5H128.43ZM128.129 132.021L127.603 132.001C127.607 131.495 127.682 131.028 127.828 130.6C127.974 130.167 128.179 129.791 128.443 129.472C128.708 129.153 129.022 128.907 129.387 128.733C129.756 128.556 130.164 128.467 130.61 128.467C130.975 128.467 131.303 128.517 131.595 128.617C131.886 128.713 132.135 128.868 132.34 129.082C132.549 129.296 132.709 129.574 132.818 129.916C132.928 130.253 132.982 130.666 132.982 131.153V136H131.711V131.14C131.711 130.752 131.654 130.442 131.54 130.21C131.426 129.973 131.26 129.802 131.041 129.697C130.822 129.588 130.553 129.533 130.234 129.533C129.92 129.533 129.633 129.599 129.373 129.731C129.118 129.864 128.897 130.046 128.71 130.278C128.528 130.511 128.384 130.777 128.279 131.078C128.179 131.374 128.129 131.689 128.129 132.021ZM137.945 136.137C137.43 136.137 136.963 136.05 136.544 135.877C136.129 135.699 135.771 135.451 135.471 135.132C135.174 134.813 134.947 134.435 134.787 133.997C134.628 133.56 134.548 133.081 134.548 132.562V132.274C134.548 131.673 134.637 131.137 134.814 130.668C134.992 130.194 135.234 129.793 135.539 129.465C135.844 129.137 136.191 128.888 136.578 128.72C136.965 128.551 137.367 128.467 137.781 128.467C138.31 128.467 138.766 128.558 139.148 128.74C139.536 128.923 139.853 129.178 140.099 129.506C140.345 129.829 140.527 130.212 140.646 130.654C140.764 131.092 140.823 131.57 140.823 132.09V132.657H135.3V131.625H139.559V131.529C139.54 131.201 139.472 130.882 139.354 130.572C139.24 130.262 139.057 130.007 138.807 129.807C138.556 129.606 138.214 129.506 137.781 129.506C137.494 129.506 137.23 129.567 136.988 129.69C136.747 129.809 136.539 129.987 136.366 130.224C136.193 130.461 136.059 130.75 135.963 131.092C135.867 131.434 135.819 131.828 135.819 132.274V132.562C135.819 132.912 135.867 133.243 135.963 133.553C136.063 133.858 136.207 134.127 136.394 134.359C136.585 134.592 136.815 134.774 137.084 134.906C137.357 135.038 137.667 135.104 138.014 135.104C138.46 135.104 138.839 135.013 139.148 134.831C139.458 134.649 139.729 134.405 139.962 134.1L140.728 134.708C140.568 134.95 140.365 135.18 140.119 135.398C139.873 135.617 139.57 135.795 139.21 135.932C138.854 136.068 138.433 136.137 137.945 136.137ZM146.962 134.564V125.5H148.233V136H147.071L146.962 134.564ZM141.985 132.384V132.24C141.985 131.675 142.054 131.162 142.19 130.702C142.332 130.237 142.53 129.839 142.785 129.506C143.045 129.173 143.353 128.918 143.708 128.74C144.068 128.558 144.469 128.467 144.911 128.467C145.376 128.467 145.782 128.549 146.128 128.713C146.479 128.872 146.775 129.107 147.017 129.417C147.263 129.722 147.456 130.091 147.598 130.524C147.739 130.957 147.837 131.447 147.892 131.994V132.623C147.841 133.165 147.743 133.653 147.598 134.086C147.456 134.519 147.263 134.888 147.017 135.193C146.775 135.499 146.479 135.733 146.128 135.897C145.777 136.057 145.367 136.137 144.897 136.137C144.465 136.137 144.068 136.043 143.708 135.856C143.353 135.67 143.045 135.408 142.785 135.07C142.53 134.733 142.332 134.337 142.19 133.881C142.054 133.421 141.985 132.922 141.985 132.384ZM143.257 132.24V132.384C143.257 132.753 143.293 133.099 143.366 133.423C143.444 133.746 143.562 134.031 143.722 134.277C143.881 134.523 144.084 134.717 144.33 134.858C144.576 134.995 144.87 135.063 145.212 135.063C145.631 135.063 145.975 134.975 146.244 134.797C146.518 134.619 146.736 134.384 146.9 134.093C147.064 133.801 147.192 133.484 147.283 133.143V131.495C147.229 131.244 147.149 131.003 147.044 130.771C146.944 130.534 146.812 130.324 146.647 130.142C146.488 129.955 146.29 129.807 146.053 129.697C145.82 129.588 145.545 129.533 145.226 129.533C144.879 129.533 144.581 129.606 144.33 129.752C144.084 129.893 143.881 130.089 143.722 130.34C143.562 130.586 143.444 130.873 143.366 131.201C143.293 131.525 143.257 131.871 143.257 132.24ZM154.728 134.291V128.604H155.999V136H154.789L154.728 134.291ZM154.967 132.732L155.493 132.719C155.493 133.211 155.441 133.667 155.336 134.086C155.236 134.501 155.072 134.861 154.844 135.166C154.616 135.471 154.317 135.711 153.948 135.884C153.579 136.052 153.13 136.137 152.602 136.137C152.242 136.137 151.911 136.084 151.61 135.979C151.314 135.875 151.059 135.713 150.845 135.494C150.631 135.275 150.464 134.991 150.346 134.64C150.232 134.289 150.175 133.867 150.175 133.375V128.604H151.439V133.389C151.439 133.721 151.476 133.997 151.549 134.216C151.626 134.43 151.729 134.601 151.856 134.729C151.989 134.852 152.134 134.938 152.294 134.988C152.458 135.038 152.627 135.063 152.8 135.063C153.338 135.063 153.764 134.961 154.078 134.756C154.393 134.546 154.618 134.266 154.755 133.915C154.896 133.56 154.967 133.165 154.967 132.732ZM159.301 125.5V136H158.029V125.5H159.301ZM164.4 136.137C163.885 136.137 163.418 136.05 162.999 135.877C162.584 135.699 162.227 135.451 161.926 135.132C161.63 134.813 161.402 134.435 161.242 133.997C161.083 133.56 161.003 133.081 161.003 132.562V132.274C161.003 131.673 161.092 131.137 161.27 130.668C161.447 130.194 161.689 129.793 161.994 129.465C162.299 129.137 162.646 128.888 163.033 128.72C163.421 128.551 163.822 128.467 164.236 128.467C164.765 128.467 165.221 128.558 165.604 128.74C165.991 128.923 166.308 129.178 166.554 129.506C166.8 129.829 166.982 130.212 167.101 130.654C167.219 131.092 167.278 131.57 167.278 132.09V132.657H161.755V131.625H166.014V131.529C165.995 131.201 165.927 130.882 165.809 130.572C165.695 130.262 165.512 130.007 165.262 129.807C165.011 129.606 164.669 129.506 164.236 129.506C163.949 129.506 163.685 129.567 163.443 129.69C163.202 129.809 162.994 129.987 162.821 130.224C162.648 130.461 162.514 130.75 162.418 131.092C162.322 131.434 162.274 131.828 162.274 132.274V132.562C162.274 132.912 162.322 133.243 162.418 133.553C162.518 133.858 162.662 134.127 162.849 134.359C163.04 134.592 163.27 134.774 163.539 134.906C163.812 135.038 164.122 135.104 164.469 135.104C164.915 135.104 165.294 135.013 165.604 134.831C165.913 134.649 166.185 134.405 166.417 134.1L167.183 134.708C167.023 134.95 166.82 135.18 166.574 135.398C166.328 135.617 166.025 135.795 165.665 135.932C165.31 136.068 164.888 136.137 164.4 136.137Z" fill="white"/>
<defs>
<clipPath id="clip0_20_546">
<rect width="60.9014" height="47" fill="white" transform="translate(58 39)"/>
</clipPath>
</defs>
</svg>
