<svg width="103" height="96" viewBox="0 0 103 96" fill="none" xmlns="http://www.w3.org/2000/svg">
<path fill-rule="evenodd" clip-rule="evenodd" d="M5.99999 0C2.68628 0 0 2.68629 0 6V89.7419C0 93.0556 2.68629 95.7419 6 95.7419H101.858C102.41 95.7419 102.858 95.2942 102.858 94.7419C102.858 94.1896 102.41 93.7419 101.858 93.7419H6C3.79086 93.7419 2 91.951 2 89.7419V6C2 3.79086 3.79086 2 5.99999 2H96.8576C99.0667 2 100.858 3.79086 100.858 6V13.6845C100.858 14.2368 101.305 14.6845 101.858 14.6845C102.41 14.6845 102.858 14.2368 102.858 13.6845V6C102.858 2.68629 100.171 0 96.8576 0H5.99999ZM94.852 20.4199C94.5187 20.4199 94.2074 20.5859 94.0217 20.8625L87.6959 30.285L81.6783 35.2004H76.2366H70.1332C69.7351 35.2004 69.375 35.4365 69.2162 35.8014L63.9847 47.8254H57.6212C57.5711 47.8254 57.5211 47.8292 57.4716 47.8367L51.3682 48.7604C51.1716 48.7902 50.9883 48.8779 50.8418 49.0123L44.3557 54.962L38.2528 55.8417C38.2185 55.8467 38.1845 55.8534 38.1509 55.8619L32.0475 57.4015C31.8331 57.4556 31.6426 57.5793 31.5059 57.7532L24.7873 66.301H19.475C19.1851 66.301 18.9094 66.4268 18.7195 66.6459L12.3109 74.0361C12.1532 74.2179 12.0664 74.4505 12.0664 74.6912V87.0083V88.0083H14.0664V87.0083V75.0644L18.475 69.9806V87.0083V88.0083H20.475V87.0083V68.301H24.2732V87.0083V88.0083H26.2732V87.0083V67.647L31.2921 61.2616V87.0083V88.0083H33.2921V87.0083V59.1502L37.3955 58.1151V87.0083V88.0083H39.3955V87.0083V57.6977L43.8041 57.0622V87.0083V88.0083H45.8041V87.0083V56.3474L50.5178 52.0235V87.0083V88.0083H52.5178V87.0083V50.6092L56.6212 49.9881V87.0083V88.0083H58.6212V87.0083V49.8254H63.6401V87.0083V88.0083H65.6401V87.0083V49.0335L69.1332 41.0052V87.0083V88.0083H71.1332V87.0083V37.2004H75.2366V87.0083V88.0083H77.2366V87.0083V37.2004H81.0348V87.0083V88.0083H83.0348V87.0083V36.6748L87.4434 33.0737V87.0083V88.0083H89.4434V87.0083V31.2702L93.852 24.7035V87.0083V88.0083H95.852V87.0083V22.4199H100.858V87.0083V88.0083H102.858V87.0083V21.4199C102.858 20.8676 102.411 20.4199 101.858 20.4199H94.852ZM15.7793 29.084H16.7793H44.0047H45.0047V31.084H44.0047H16.7793H15.7793V29.084ZM11.8291 29.084H12.8291V31.084H11.8291H11.2103H10.2103V29.084H11.2103H11.8291ZM15.7793 23.5156H16.7793H44.0047H45.0047V25.5156H44.0047H16.7793H15.7793V23.5156ZM11.8291 23.5156H12.8291V25.5156H11.8291H11.2103H10.2103V23.5156H11.2103H11.8291ZM15.7793 17.3262H16.7793H44.0047H45.0047V19.3262H44.0047H16.7793H15.7793V17.3262ZM11.8291 17.3262H12.8291V19.3262H11.8291H11.2103H10.2103V17.3262H11.2103H11.8291ZM15.7793 11.1367H16.7793H44.0047H45.0047V13.1367H44.0047H16.7793H15.7793V11.1367ZM11.8291 11.1367H12.8291V13.1367H11.8291H11.2103H10.2103V11.1367H11.2103H11.8291Z" fill="white"/>
</svg>
