<svg width="92" height="116" viewBox="0 0 92 116" fill="none" xmlns="http://www.w3.org/2000/svg">
<path d="M11.2627 20.9473V8C11.2627 4.68629 13.949 2 17.2627 2H69.3677M69.3677 2L90.4202 22.6315M69.3677 2V16.6315C69.3677 19.9452 72.054 22.6315 75.3677 22.6315H90.4202M90.4202 22.6315V99.5784C90.4202 102.892 87.7339 105.578 84.4202 105.578H17.2627C13.949 105.578 11.2627 102.892 11.2627 99.5784V28.9472" stroke="white" stroke-width="3" stroke-linecap="round"/>
<path d="M11.2631 9.57812H8.79372C5.49896 9.57812 2.82059 12.2349 2.79391 15.5295L2.04898 107.529C2.02199 110.862 4.71608 113.578 8.04878 113.578H53.7892" stroke="white" stroke-width="3" stroke-linecap="round"/>
<path d="M27.2627 40.3164H75.2625" stroke="white" stroke-width="3" stroke-linecap="round"/>
<path d="M27.2627 53.3691H75.2625" stroke="white" stroke-width="3" stroke-linecap="round"/>
<path d="M27.2627 66.8418H75.2625" stroke="white" stroke-width="3" stroke-linecap="round"/>
<path d="M82.8419 106.42V107.999C82.8419 111.313 80.1556 113.999 76.8419 113.999H60.9473" stroke="white" stroke-width="3" stroke-linecap="round"/>
</svg>
