<svg width="117" height="116" viewBox="0 0 117 116" fill="none" xmlns="http://www.w3.org/2000/svg">
<path fill-rule="evenodd" clip-rule="evenodd" d="M8 0H108.157C112.575 0 116.157 3.58172 116.157 8V107.455C116.157 111.874 112.575 115.455 108.157 115.455H8C3.58172 115.455 0 111.874 0 107.455V8C0 3.58173 3.58172 0 8 0ZM8 3C5.23858 3 3 5.23858 3 8V15.5332H113.157V8C113.157 5.23858 110.918 3 108.157 3H8ZM3 107.455V18.5332H113.157V107.455C113.157 110.217 110.918 112.455 108.157 112.455H8C5.23858 112.455 3 110.217 3 107.455ZM49.6582 8.51562C48.8298 8.51562 48.1582 9.1872 48.1582 10.0156C48.1582 10.8441 48.8298 11.5156 49.6582 11.5156H97.0187C97.8471 11.5156 98.5187 10.8441 98.5187 10.0156C98.5187 9.1872 97.8471 8.51562 97.0187 8.51562H49.6582ZM101.834 10.0156C101.834 9.1872 102.506 8.51562 103.334 8.51562H106.842C107.671 8.51562 108.342 9.1872 108.342 10.0156C108.342 10.8441 107.671 11.5156 106.842 11.5156H103.334C102.506 11.5156 101.834 10.8441 101.834 10.0156ZM8.61323 8.51563C7.7848 8.51563 7.11323 9.18721 7.11323 10.0156C7.11323 10.8441 7.7848 11.5156 8.61323 11.5156H12.1214C12.9498 11.5156 13.6214 10.8441 13.6214 10.0156C13.6214 9.18721 12.9498 8.51563 12.1214 8.51563H8.61323ZM16.2354 10.0156C16.2354 9.1872 16.9069 8.51562 17.7354 8.51562H21.2435C22.072 8.51562 22.7435 9.1872 22.7435 10.0156C22.7435 10.8441 22.072 11.5156 21.2435 11.5156H17.7354C16.9069 11.5156 16.2354 10.8441 16.2354 10.0156ZM26.8555 8.51562C26.027 8.51562 25.3555 9.1872 25.3555 10.0156C25.3555 10.8441 26.027 11.5156 26.8555 11.5156H30.3637C31.1921 11.5156 31.8637 10.8441 31.8637 10.0156C31.8637 9.1872 31.1921 8.51562 30.3637 8.51562H26.8555ZM17.2266 26.6621H65.9542C69.2679 26.6621 71.9542 29.3484 71.9542 32.6621V64.5505C71.9542 67.8642 69.2679 70.5505 65.9542 70.5505H17.2266C13.9129 70.5505 11.2266 67.8642 11.2266 64.5505V32.6621C11.2266 29.3484 13.9129 26.6621 17.2266 26.6621ZM17.2266 29.6621C15.5697 29.6621 14.2266 31.0053 14.2266 32.6621V64.1454L27.7129 43.916C27.988 43.5033 28.4494 43.2533 28.9454 43.2481C29.4414 43.243 29.9079 43.4834 30.1915 43.8904L37.6971 54.6592L49.2848 35.8916C49.5574 35.4502 50.0387 35.181 50.5575 35.1797C51.0763 35.1784 51.5589 35.4453 51.8336 35.8854L68.9542 63.3147V32.6621C68.9542 31.0053 67.6111 29.6621 65.9542 29.6621H17.2266ZM67.7084 66.9845L67.6823 66.9427L50.568 39.5237L33.2633 67.5505H65.9542C66.6092 67.5505 67.2151 67.3406 67.7084 66.9845ZM29.7412 67.5505C29.7565 67.5218 29.7728 67.4934 29.7901 67.4653L35.9793 57.4412L35.7992 57.1827L28.9885 47.4109L15.8016 67.1912C16.2255 67.4204 16.7108 67.5505 17.2266 67.5505H29.7412ZM32.9778 76.4785H17.9287C14.615 76.4785 11.9287 79.1648 11.9287 82.4785V97.5276C11.9287 100.841 14.615 103.528 17.9287 103.528H32.9778C36.2915 103.528 38.9778 100.841 38.9778 97.5276V82.4785C38.9778 79.1648 36.2915 76.4785 32.9778 76.4785ZM14.9287 82.4785C14.9287 80.8217 16.2719 79.4785 17.9287 79.4785H32.9778C34.6347 79.4785 35.9778 80.8217 35.9778 82.4785V97.5276C35.9778 99.1845 34.6347 100.528 32.9778 100.528H17.9287C16.2719 100.528 14.9287 99.1845 14.9287 97.5276V82.4785ZM50.9043 76.4785H65.9534C69.2671 76.4785 71.9534 79.1648 71.9534 82.4785V97.5276C71.9534 100.841 69.2671 103.528 65.9534 103.528H50.9043C47.5906 103.528 44.9043 100.841 44.9043 97.5276V82.4785C44.9043 79.1648 47.5906 76.4785 50.9043 76.4785ZM50.9043 79.4785C49.2474 79.4785 47.9043 80.8217 47.9043 82.4785V97.5276C47.9043 99.1845 49.2474 100.528 50.9043 100.528H65.9534C67.6103 100.528 68.9534 99.1845 68.9534 97.5276V82.4785C68.9534 80.8217 67.6103 79.4785 65.9534 79.4785H50.9043ZM78.7764 35.1797C77.9479 35.1797 77.2764 35.8513 77.2764 36.6797C77.2764 37.5081 77.9479 38.1797 78.7764 38.1797H102.983C103.811 38.1797 104.483 37.5081 104.483 36.6797C104.483 35.8513 103.811 35.1797 102.983 35.1797H78.7764ZM77.2764 44.3965C77.2764 43.5681 77.9479 42.8965 78.7764 42.8965H102.983C103.811 42.8965 104.483 43.5681 104.483 44.3965C104.483 45.2249 103.811 45.8965 102.983 45.8965H78.7764C77.9479 45.8965 77.2764 45.2249 77.2764 44.3965ZM78.7764 50.6152C77.9479 50.6152 77.2764 51.2868 77.2764 52.1152C77.2764 52.9437 77.9479 53.6152 78.7764 53.6152H102.983C103.811 53.6152 104.483 52.9437 104.483 52.1152C104.483 51.2868 103.811 50.6152 102.983 50.6152H78.7764ZM77.2764 59.832C77.2764 59.0036 77.9479 58.332 78.7764 58.332H102.983C103.811 58.332 104.483 59.0036 104.483 59.832C104.483 60.6605 103.811 61.332 102.983 61.332H78.7764C77.9479 61.332 77.2764 60.6605 77.2764 59.832ZM78.7764 65.3477C77.9479 65.3477 77.2764 66.0192 77.2764 66.8477C77.2764 67.6761 77.9479 68.3477 78.7764 68.3477H93.5107C94.3392 68.3477 95.0107 67.6761 95.0107 66.8477C95.0107 66.0192 94.3392 65.3477 93.5107 65.3477H78.7764ZM87.0986 29.6621C87.0986 28.8337 87.7702 28.1621 88.5986 28.1621H103.333C104.161 28.1621 104.833 28.8337 104.833 29.6621C104.833 30.4905 104.161 31.1621 103.333 31.1621H88.5986C87.7702 31.1621 87.0986 30.4905 87.0986 29.6621ZM78.7764 28.1621C77.9479 28.1621 77.2764 28.8337 77.2764 29.6621C77.2764 30.4905 77.9479 31.1621 78.7764 31.1621H82.2846C83.113 31.1621 83.7846 30.4905 83.7846 29.6621C83.7846 28.8337 83.113 28.1621 82.2846 28.1621H78.7764ZM98.3252 66.8477C98.3252 66.0192 98.9968 65.3477 99.8252 65.3477H103.333C104.162 65.3477 104.833 66.0192 104.833 66.8477C104.833 67.6761 104.162 68.3477 103.333 68.3477H99.8252C98.9968 68.3477 98.3252 67.6761 98.3252 66.8477ZM98.2278 76.4785H83.1787C79.865 76.4785 77.1787 79.1648 77.1787 82.4785V97.5276C77.1787 100.841 79.865 103.528 83.1787 103.528H98.2278C101.542 103.528 104.228 100.841 104.228 97.5276V82.4785C104.228 79.1648 101.542 76.4785 98.2278 76.4785ZM80.1787 82.4785C80.1787 80.8217 81.5219 79.4785 83.1787 79.4785H98.2278C99.8847 79.4785 101.228 80.8217 101.228 82.4785V97.5276C101.228 99.1845 99.8847 100.528 98.2278 100.528H83.1787C81.5219 100.528 80.1787 99.1845 80.1787 97.5276V82.4785Z" fill="white"/>
</svg>
