<svg width="109" height="95" viewBox="0 0 109 95" fill="none" xmlns="http://www.w3.org/2000/svg">
<path fill-rule="evenodd" clip-rule="evenodd" d="M83.049 3H28.1709C27.0663 3 26.1709 3.89543 26.1709 5.00001V32.0732C26.1709 33.1777 27.0663 34.0732 28.1709 34.0732H83.049C84.1535 34.0732 85.049 33.1777 85.049 32.0732V5C85.049 3.89543 84.1535 3 83.049 3ZM28.1709 0C25.4095 0 23.1709 2.23858 23.1709 5.00001V32.0732C23.1709 34.8346 25.4095 37.0732 28.1709 37.0732H31.7116V48.7041H17.2197C15.839 48.7041 14.7197 49.8234 14.7197 51.2041V64.1055H4C1.79086 64.1055 0 65.8963 0 68.1055V80.9591C0 83.1683 1.79086 84.9591 4 84.9591H25.3496C27.5587 84.9591 29.3496 83.1683 29.3496 80.9591V68.1055C29.3496 65.8963 27.5587 64.1055 25.3496 64.1055H17.7197V51.7041H32.2116C33.5923 51.7041 34.7116 50.5848 34.7116 49.2041V37.0732H53.3369V59.4707H44.9346C42.7254 59.4707 40.9346 61.2616 40.9346 63.4707V76.3244C40.9346 78.5335 42.7254 80.3244 44.9346 80.3244H66.2842C68.4933 80.3244 70.2842 78.5335 70.2842 76.3244V63.4707C70.2842 61.2616 68.4933 59.4707 66.2842 59.4707H56.3369V37.0732H71.8737V54.487C71.8737 55.8677 72.993 56.987 74.3737 56.987H91.1826V74.1465H83.5527C81.3436 74.1465 79.5527 75.9373 79.5527 78.1465V91.0001C79.5527 93.2093 81.3436 95.0001 83.5527 95.0001H104.902C107.111 95.0001 108.902 93.2093 108.902 91.0001V78.1465C108.902 75.9373 107.111 74.1465 104.902 74.1465H94.1826V56.487C94.1826 55.1063 93.0633 53.987 91.6826 53.987H74.8737V37.0732H83.049C85.8104 37.0732 88.049 34.8346 88.049 32.0732V5C88.049 2.23858 85.8104 0 83.049 0H28.1709ZM25.3496 67.1055H4C3.44772 67.1055 3 67.5532 3 68.1055V80.9591C3 81.5114 3.44772 81.9591 4 81.9591H25.3496C25.9019 81.9591 26.3496 81.5114 26.3496 80.9591V68.1055C26.3496 67.5532 25.9019 67.1055 25.3496 67.1055ZM44.9346 62.4707H66.2842C66.8364 62.4707 67.2842 62.9184 67.2842 63.4707V76.3244C67.2842 76.8766 66.8364 77.3244 66.2842 77.3244H44.9346C44.3823 77.3244 43.9346 76.8766 43.9346 76.3244V63.4707C43.9346 62.9184 44.3823 62.4707 44.9346 62.4707ZM104.902 77.1465H83.5527C83.0005 77.1465 82.5527 77.5942 82.5527 78.1465V91.0001C82.5527 91.5524 83.0005 92.0001 83.5527 92.0001H104.902C105.455 92.0001 105.902 91.5524 105.902 91.0001V78.1465C105.902 77.5942 105.455 77.1465 104.902 77.1465Z" fill="white"/>
</svg>
