<svg width="118" height="115" viewBox="0 0 118 115" fill="none" xmlns="http://www.w3.org/2000/svg">
<path fill-rule="evenodd" clip-rule="evenodd" d="M6.5 3C4.567 3 3 4.567 3 6.49999V16.0859H104.326V6.5C104.326 4.567 102.759 3 100.826 3H6.5ZM0 6.49999V17.5859V83.3615C0 86.9514 2.91015 89.8615 6.5 89.8615H33.6709C34.4994 89.8615 35.1709 89.1899 35.1709 88.3615C35.1709 87.5331 34.4994 86.8615 33.6709 86.8615H6.5C4.56701 86.8615 3 85.2945 3 83.3615V19.0859H104.326V59.2146L99.7143 55.0743L90.1304 45.5493C87.2025 42.6393 82.4698 42.6539 79.5598 45.5819C78.2531 46.8967 77.5361 48.5754 77.4078 50.2896L77.2623 50.145C74.3343 47.235 69.6017 47.2496 66.6917 50.1776C65.1511 51.7277 64.4302 53.7835 64.5273 55.8069C61.856 54.7986 58.7244 55.3748 56.5813 57.5311C55.2904 58.83 54.575 60.484 54.4342 62.1765L43.2529 51.064C40.3249 48.154 35.5923 48.1686 32.6823 51.0966C29.7723 54.0246 29.7869 58.7572 32.7149 61.6672L62.598 91.3667L65.299 94.7686L54.3881 91.9834C50.3883 90.9624 46.318 93.3772 45.297 97.377C44.276 101.377 46.6908 105.447 50.6906 106.468L64.8355 110.079C68.8186 111.666 75.468 113.533 82.7267 114.081C90.0234 114.633 98.1282 113.866 104.753 109.94L104.798 109.913L104.842 109.883C107.377 108.129 112.141 103.384 115.52 96.0365C117.476 91.7838 117.797 87.0763 117.315 82.6107C117.201 81.5593 117.079 80.5751 116.957 79.8402C116.946 79.7735 116.931 79.7086 116.911 79.6457C115.602 74.7955 114.075 71.0977 112.678 68.4574C111.977 67.1333 111.304 66.0649 110.699 65.2459C110.136 64.4843 109.584 63.8697 109.078 63.4812L107.216 61.8098C107.287 61.6358 107.326 61.4454 107.326 61.246V6.5C107.326 2.91015 104.416 0 100.826 0H6.5C2.91015 0 0 2.91014 0 6.49999ZM46.5391 7.35352C45.7106 7.35352 45.0391 8.02509 45.0391 8.85352C45.0391 9.68194 45.7106 10.3535 46.5391 10.3535H95.7146C96.543 10.3535 97.2146 9.68194 97.2146 8.85352C97.2146 8.02509 96.543 7.35352 95.7146 7.35352H46.5391ZM14.828 9.31294C14.828 10.3282 14.0049 11.1513 12.9896 11.1513C11.9743 11.1513 11.1513 10.3282 11.1513 9.31294C11.1513 8.29765 11.9743 7.4746 12.9896 7.4746C14.0049 7.4746 14.828 8.29765 14.828 9.31294ZM21.2621 11.1513C22.2774 11.1513 23.1005 10.3282 23.1005 9.31294C23.1005 8.29765 22.2774 7.4746 21.2621 7.4746C20.2469 7.4746 19.4238 8.29765 19.4238 9.31294C19.4238 10.3282 20.2469 11.1513 21.2621 11.1513ZM31.373 9.31294C31.373 10.3282 30.55 11.1513 29.5347 11.1513C28.5194 11.1513 27.6963 10.3282 27.6963 9.31294C27.6963 8.29765 28.5194 7.4746 29.5347 7.4746C30.55 7.4746 31.373 8.29765 31.373 9.31294ZM42.4028 90.2001C43.4181 90.2001 44.2411 89.3771 44.2411 88.3618C44.2411 87.3465 43.4181 86.5234 42.4028 86.5234C41.3875 86.5234 40.5645 87.3465 40.5645 88.3618C40.5645 89.3771 41.3875 90.2001 42.4028 90.2001ZM91.336 65.6861C91.2714 65.8005 91.1905 65.9082 91.0934 66.0059C90.5094 66.5935 89.5597 66.5964 88.9721 66.0124L75.1475 52.2728C73.3947 50.5308 70.5615 50.5395 68.8195 52.2924C67.0775 54.0452 67.0862 56.8783 68.839 58.6204L82.6636 72.36C83.2512 72.9439 83.2541 73.8937 82.6701 74.4813C82.1515 75.0031 81.3443 75.0638 80.7585 74.6617C80.3848 74.6553 80.013 74.5101 79.727 74.2259L65.0372 59.6264C63.2843 57.8843 60.4512 57.8931 58.7092 59.6459C56.9671 61.3987 56.9758 64.2318 58.7287 65.9739L73.4185 80.5734C74.0061 81.1574 74.009 82.1071 73.425 82.6947L73.408 82.7115L73.3887 82.7301L73.3757 82.7422C73.3258 82.8141 73.269 82.8827 73.2052 82.9469C72.6212 83.5345 71.6714 83.5374 71.0839 82.9535L41.1382 53.1919C39.3854 51.4498 36.5522 51.4586 34.8102 53.2114C33.0681 54.9642 33.0769 57.7973 34.8297 59.5394L64.7754 89.301L64.8379 89.3632L64.8927 89.4322L70.2336 96.1591C70.7488 96.8079 70.6404 97.7515 69.9916 98.2666C69.5908 98.5848 69.0774 98.6651 68.6221 98.527C68.388 98.5859 68.1364 98.5891 67.8861 98.5252L53.6461 94.8902C51.2516 94.2789 48.815 95.7245 48.2038 98.119C47.5926 100.513 49.0382 102.95 51.4326 103.561L65.6726 107.196L65.7686 107.221L65.8605 107.258C69.5754 108.75 75.9718 110.562 82.9527 111.09C89.934 111.617 97.3085 110.846 103.177 107.387C105.27 105.921 109.652 101.615 112.795 94.7829C114.452 91.1804 114.778 87.0634 114.332 82.9327C114.225 81.9369 114.115 81.0537 114.011 80.412C112.754 75.7612 111.307 72.28 110.026 69.8606C109.383 68.6444 108.787 67.7066 108.285 67.028C107.767 66.3254 107.401 65.9709 107.235 65.8493L107.176 65.8057L107.121 65.7565L97.6818 57.2811L97.6535 57.2557L97.6265 57.2289L88.0157 47.6771C86.2629 45.9351 83.4297 45.9438 81.6877 47.6967C79.9456 49.4495 79.9544 52.2826 81.7072 54.0247L91.318 63.5764C91.9018 64.1566 91.9085 65.0977 91.336 65.6861ZM16.666 54.2305C15.8376 54.2305 15.166 54.902 15.166 55.7305C15.166 56.5589 15.8376 57.2305 16.666 57.2305H23.1002C23.9286 57.2305 24.6002 56.5589 24.6002 55.7305C24.6002 54.902 23.9286 54.2305 23.1002 54.2305H16.666ZM36.8877 42.9844C36.0593 42.9844 35.3877 42.3128 35.3877 41.4844V35.0502C35.3877 34.2218 36.0593 33.5502 36.8877 33.5502C37.7161 33.5502 38.3877 34.2218 38.3877 35.0502V41.4844C38.3877 42.3128 37.7161 42.9844 36.8877 42.9844ZM19.5383 35.8014C18.9378 35.2307 17.9884 35.2548 17.4177 35.8553C16.8469 36.4557 16.871 37.4052 17.4715 37.9759L25.9017 45.9888C26.5021 46.5595 27.4516 46.5354 28.0223 45.935C28.593 45.3345 28.5689 44.3851 27.9685 43.8143L19.5383 35.8014Z" fill="white"/>
</svg>
