<svg width="113" height="104" viewBox="0 0 113 104" fill="none" xmlns="http://www.w3.org/2000/svg">
<path d="M62.4744 32.8188C62.8554 32.6671 63.4284 32.6079 64.1061 32.6411C64.7593 32.6731 65.3923 32.7843 65.8198 32.8788C66.7571 33.0862 67.1525 33.5008 67.6843 34.0584C67.7932 34.1726 67.9078 34.2927 68.034 34.4184C68.5247 34.907 69.3205 34.9072 69.8114 34.4186C70.3023 33.9301 70.3025 33.1379 69.8117 32.6492C69.7427 32.5805 69.6664 32.4985 69.5812 32.4068C69.0309 31.8147 68.108 30.8217 66.3651 30.4361C66.1182 30.3815 65.8102 30.3211 65.464 30.2684V28.253C65.464 27.5621 64.9013 27.0019 64.2071 27.0019C63.513 27.0019 62.9503 27.5621 62.9503 28.253V30.1685C62.4759 30.2168 61.9922 30.3158 61.5409 30.4955C60.5574 30.8871 59.8567 31.7154 59.425 32.3705C59.0221 32.9817 58.7151 33.6562 58.5984 34.126L58.5975 34.1285C58.5451 34.2751 58.4455 34.5534 58.4207 35.0244C58.3969 35.476 58.4359 36.114 58.5634 37.1297C58.6084 37.4879 58.6988 37.8244 58.8273 38.1381C59.6723 40.2008 61.7804 40.6971 63.2355 41.0052C63.4309 41.0466 63.6193 41.085 63.802 41.1222C64.3933 41.2427 64.9242 41.3509 65.4375 41.5086C66.0888 41.7087 66.5685 41.9508 66.9114 42.2764C67.0328 42.3917 67.1453 42.5229 67.2462 42.6735C67.7604 43.4414 67.8857 44.0538 67.8765 44.512C67.867 44.9841 67.7121 45.3943 67.5149 45.7378C66.7887 47.0028 65.6083 47.9225 63.8929 47.9225C63.1129 47.9225 62.3454 47.5961 61.6588 47.1032C60.9719 46.6101 60.462 46.0177 60.2255 45.6645C59.8404 45.0896 59.0601 44.9342 58.4825 45.3175C57.905 45.7008 57.7489 46.4776 58.1339 47.0526C58.5258 47.6377 59.2413 48.4529 60.1884 49.1328C60.9283 49.6639 61.868 50.1535 62.9503 50.3425V52.025C62.9503 52.716 63.513 53.2762 64.2071 53.2762C64.9013 53.2762 65.464 52.716 65.464 52.025V50.2474C67.4341 49.7845 68.8404 48.4722 69.6974 46.9793C70.0387 46.3847 70.3695 45.5651 70.3897 44.5621C70.4101 43.5452 70.109 42.4372 69.3377 41.2855C69.1308 40.9765 68.8977 40.7043 68.6463 40.4656C67.9076 39.7643 67.0141 39.3742 66.1788 39.1176C65.5361 38.9201 64.8418 38.7791 64.2301 38.6548L64.2284 38.6544C64.0651 38.6213 63.9076 38.5893 63.7586 38.5577C62.1429 38.2155 61.4387 37.886 61.1549 37.1932C61.1089 37.0809 61.0751 36.9575 61.0577 36.8193C60.9339 35.8331 60.9193 35.3763 60.931 35.1555C60.9359 35.0623 60.9447 35.0311 60.9452 35.0293C60.9499 35.0112 60.9506 35.0094 60.9545 34.9993C60.9595 34.9863 60.9697 34.9597 61.0005 34.8678L61.0252 34.7939L61.0406 34.7175C61.0405 34.7178 61.0407 34.7173 61.0411 34.716C61.0452 34.7016 61.0769 34.5917 61.165 34.3971C61.253 34.2029 61.3757 33.9723 61.5267 33.7432C61.8543 33.2462 62.2011 32.9277 62.4744 32.8188Z" fill="white"/>
<path d="M47.2401 71.4179C47.2401 72.1089 46.6774 72.6691 45.9833 72.6691C45.2891 72.6691 44.7264 72.1089 44.7264 71.4179C44.7264 70.7269 45.2891 70.1668 45.9833 70.1668C46.6774 70.1668 47.2401 70.7269 47.2401 71.4179Z" fill="white"/>
<path fill-rule="evenodd" clip-rule="evenodd" d="M72.5838 0.591814C67.4269 -0.177277 60.3247 -0.220092 54.8369 0.60083C53.5163 0.798387 52.8596 2.2386 53.4829 3.35542L57.3035 10.2013C56.4036 10.657 55.5787 11.187 54.8734 11.765C53.7438 12.6908 52.7959 13.8427 52.44 15.144C52.1319 16.2705 52.2982 17.4079 52.9853 18.417C48.1018 21.2202 43.8465 25.9149 40.7144 31.2717C37.236 37.2208 35.0626 44.1217 34.9872 50.4358C32.5438 51.1442 29.1456 52.3751 26.4501 54.1001C22.9354 56.3493 19.0247 60.4889 17.2899 62.5159L17.1662 62.3934C15.6895 60.9318 13.3021 60.9385 11.8338 62.4085L1.09683 73.1575C-0.371496 74.6275 -0.364722 77.0041 1.11195 78.4657L25.8055 102.908C27.2822 104.37 29.6696 104.363 31.1379 102.893L41.8748 92.1441C43.3432 90.6741 43.3364 88.2975 41.8597 86.8359L40.5035 85.4934H73.9237C77.2869 85.4934 80.5231 84.2153 82.9714 81.92L109.529 57.0228C111.083 55.5666 112.985 53.5054 113 50.7917C113.011 48.7826 112.272 46.4589 109.87 44.7511C106.988 42.7012 103.789 43.3183 100.983 44.6223C98.7836 45.6439 96.5672 47.2099 94.6142 48.5898L94.6042 48.5968C94.4028 48.7391 94.2043 48.8793 94.0089 49.0168C93.6758 42.9377 91.6479 36.4105 88.3184 30.7703C85.023 25.1877 80.3927 20.3764 74.7435 17.7654C75.1346 17.0322 75.2596 16.2212 75.1051 15.3797C74.8604 14.0469 73.9526 12.8562 72.865 11.9073C72.0067 11.1585 70.9449 10.4801 69.7739 9.93214L73.8848 3.43277C74.5904 2.31723 73.9506 0.795655 72.5838 0.591814ZM67.3663 9.04222L71.2307 2.93254C66.7107 2.36866 60.8779 2.34397 56.1312 2.94812L59.6447 9.24376C61.0273 8.80294 62.4842 8.54735 63.8949 8.54735C65.0452 8.54735 66.2249 8.72669 67.3663 9.04222ZM54.8654 15.8014C54.7348 16.2789 54.7931 16.7503 55.2693 17.2677C60.6347 14.9491 66.9014 14.975 72.3737 16.822C72.6582 16.4605 72.6877 16.1313 72.6323 15.8296C72.5325 15.2857 72.0924 14.5606 71.2082 13.7891C69.4525 12.2573 66.5233 11.0497 63.8949 11.0497C61.2496 11.0497 58.308 12.1914 56.4712 13.6968C55.5494 14.4523 55.0308 15.1966 54.8654 15.8014ZM55.9533 19.7037C60.8826 17.4587 66.8439 17.4787 72.025 19.352C77.8148 21.4454 82.6998 26.1912 86.1512 32.0381C89.5891 37.8621 91.5315 44.6597 91.5438 50.7169L77.9525 60.0413C76.8205 58.2324 74.9925 57.2625 73.0781 56.7431C70.8822 56.1473 68.39 56.0908 66.2759 56.0908H60.6417C56.9789 52.5735 48.5088 47.6135 37.5169 49.8053C37.7239 44.1748 39.7074 37.9683 42.8869 32.5304C46.2542 26.7714 50.8799 22.0144 55.9533 19.7037ZM76.6492 69.6238C78.2709 67.8603 79.762 65.2014 78.9508 62.3955L94.56 51.6866C95.096 51.3189 95.6348 50.9387 96.176 50.5568L96.181 50.5533C98.1127 49.1901 100.075 47.8054 102.046 46.8898C104.541 45.7305 106.63 45.5222 108.409 46.7873C110.027 47.9375 110.493 49.4237 110.486 50.7785C110.478 52.3299 109.372 53.7333 107.806 55.2012L81.2481 80.0984C79.2661 81.9564 76.6463 82.9911 73.9237 82.9911H37.9755L19.0781 64.2859C20.69 62.3798 24.5235 58.3078 27.8094 56.205C31.1451 54.0704 35.8362 52.7132 37.7578 52.3105C48.0336 50.1572 55.8951 54.9163 59.0512 58.0427C59.4039 58.392 59.8813 58.5931 60.3885 58.5931H66.2759C68.3995 58.5931 70.5826 58.6596 72.4171 59.1574C74.2256 59.648 75.5058 60.5021 76.1287 61.9597C76.2643 62.2769 76.3946 62.6311 76.5171 63.0273C76.9987 64.5854 76.2294 66.3744 74.795 67.9342C73.4575 69.3888 71.2916 69.8535 68.8422 69.8535H54.4665C53.7723 69.8535 53.2096 70.4137 53.2096 71.1047C53.2096 71.7957 53.7723 72.3558 54.4665 72.3558H68.8422C71.4602 72.3558 74.5654 71.89 76.6492 69.6238ZM40.0873 88.6103C40.5795 89.0975 40.5818 89.8897 40.0923 90.3797L29.3554 101.129C28.8659 101.619 28.0702 101.621 27.5779 101.134L2.88437 76.6913C2.39215 76.2041 2.38989 75.4119 2.87933 74.9219L13.6163 64.1729C14.1057 63.6829 14.9015 63.6806 15.3937 64.1679L40.0873 88.6103Z" fill="white"/>
</svg>
