<svg width="90" height="107" viewBox="0 0 90 107" fill="none" xmlns="http://www.w3.org/2000/svg">
<path fill-rule="evenodd" clip-rule="evenodd" d="M33.0224 6.79814C33.0224 4.98112 34.5014 3.5 36.3358 3.5H53.6642C55.4986 3.5 56.9776 4.98112 56.9776 6.79814C56.9776 8.61515 55.4986 10.0963 53.6642 10.0963H36.3358C34.5014 10.0963 33.0224 8.61515 33.0224 6.79814ZM36.3358 0.5C32.8535 0.5 30.0224 3.31528 30.0224 6.79814C30.0224 10.281 32.8535 13.0963 36.3358 13.0963H36.4997C36.461 13.2293 36.4403 13.37 36.4403 13.5155V18.6016C28.1096 20.2296 20.3639 24.212 14.1676 30.1476C6.17216 37.8067 1.33245 48.1664 0.597813 59.1977C-0.136828 70.2291 3.28667 81.1359 10.1967 89.7818C17.1065 98.4275 27.0047 104.189 37.9517 105.94C48.8987 107.691 60.1074 105.304 69.3825 99.2478C70.0762 98.7948 70.2713 97.8653 69.8184 97.1717C69.3654 96.4781 68.4359 96.2829 67.7423 96.7359C59.092 102.384 48.637 104.611 38.4254 102.978C28.2139 101.344 18.983 95.9702 12.5401 87.9088C6.09736 79.8475 2.9064 69.6798 3.59118 59.3971C4.27596 49.1144 8.78728 39.456 16.2429 32.314C23.6986 25.1719 33.5616 21.061 43.9001 20.7878C54.2387 20.5146 64.3064 24.0989 72.1315 30.8374C79.9563 37.5757 84.9747 46.9824 86.205 57.2146C87.4354 67.4467 84.7893 77.7686 78.7841 86.1586C78.3019 86.8323 78.4572 87.7693 79.1308 88.2514C79.8044 88.7336 80.7414 88.5784 81.2236 87.9047C87.6645 78.9059 90.5035 67.8335 89.1836 56.8565C87.8637 45.8794 82.4802 35.7901 74.0891 28.5641C67.8554 23.196 60.2955 19.6954 52.2761 18.3702V13.5155C52.2761 13.37 52.2554 13.2293 52.2167 13.0963H53.6642C57.1465 13.0963 59.9776 10.281 59.9776 6.79814C59.9776 3.31528 57.1465 0.5 53.6642 0.5H36.3358ZM39.4403 13.5155C39.4403 13.37 39.4196 13.2293 39.3809 13.0963H49.3355C49.2968 13.2293 49.2761 13.37 49.2761 13.5155V17.9785C47.4719 17.8049 45.6504 17.7405 43.8209 17.7889C42.3501 17.8277 40.8883 17.9391 39.4403 18.1208V13.5155ZM14.4105 62.1367C14.4105 45.3033 28.1014 31.6491 45 31.6491C61.8987 31.6491 75.5896 45.3033 75.5896 62.1367C75.5896 78.97 61.8987 92.6242 45 92.6242C28.1014 92.6242 14.4105 78.97 14.4105 62.1367ZM45 28.6491C26.4535 28.6491 11.4105 43.6375 11.4105 62.1367C11.4105 80.6358 26.4535 95.6242 45 95.6242C63.5465 95.6242 78.5896 80.6358 78.5896 62.1367C78.5896 43.6375 63.5465 28.6491 45 28.6491ZM46.5 35.2671C46.5 34.4387 45.8284 33.7671 45 33.7671C44.1716 33.7671 43.5 34.4387 43.5 35.2671V38.146C43.5 38.9744 44.1716 39.646 45 39.646C45.8284 39.646 46.5 38.9744 46.5 38.146V35.2671ZM63.0389 49.1513C63.6404 48.5816 63.6662 47.6322 63.0966 47.0307C62.527 46.4292 61.5776 46.4034 60.9761 46.973L48.8636 58.4433C47.8889 57.4289 46.5173 56.7981 45 56.7981C43.8043 56.7981 42.6989 57.1899 41.8071 57.8525L37.0431 53.3675C36.44 52.7996 35.4906 52.8283 34.9228 53.4314C34.3549 54.0346 34.3835 54.9839 34.9867 55.5518L39.9887 60.2609C39.7693 60.8442 39.6493 61.4762 39.6493 62.1367C39.6493 65.0895 42.0494 67.4752 45 67.4752C47.9506 67.4752 50.3507 65.0895 50.3507 62.1367C50.3507 61.8303 50.3249 61.5301 50.2753 61.2381L63.0389 49.1513ZM42.6493 62.1367C42.6493 60.8496 43.6972 59.7981 45 59.7981C46.3028 59.7981 47.3507 60.8496 47.3507 62.1367C47.3507 63.4237 46.3028 64.4752 45 64.4752C43.6972 64.4752 42.6493 63.4237 42.6493 62.1367ZM16.7612 60.6367C15.9328 60.6367 15.2612 61.3082 15.2612 62.1367C15.2612 62.9651 15.9328 63.6367 16.7612 63.6367H19.6493C20.4777 63.6367 21.1493 62.9651 21.1493 62.1367C21.1493 61.3082 20.4777 60.6367 19.6493 60.6367H16.7612ZM70.0299 60.6367C69.2014 60.6367 68.5299 61.3082 68.5299 62.1367C68.5299 62.9651 69.2014 63.6367 70.0299 63.6367H72.9179C73.7463 63.6367 74.4179 62.9651 74.4179 62.1367C74.4179 61.3082 73.7463 60.6367 72.9179 60.6367H70.0299ZM46.5 87.087C46.5 86.2585 45.8284 85.587 45 85.587C44.1716 85.587 43.5 86.2585 43.5 87.087V89.9658C43.5 90.7943 44.1716 91.4658 45 91.4658C45.8284 91.4658 46.5 90.7943 46.5 89.9658V87.087ZM74.5 95C75.3284 95 76 94.3284 76 93.5C76 92.6716 75.3284 92 74.5 92C73.6716 92 73 92.6716 73 93.5C73 94.3284 73.6716 95 74.5 95Z" fill="white"/>
</svg>
