<svg width="103" height="110" viewBox="0 0 103 110" fill="none" xmlns="http://www.w3.org/2000/svg">
<path fill-rule="evenodd" clip-rule="evenodd" d="M44.166 0C43.3376 0 42.666 0.671573 42.666 1.5V12.0696V93.6064C42.666 93.8554 42.728 94.1006 42.8465 94.3197L50.3962 108.287C50.6609 108.776 51.175 109.079 51.7316 109.073C52.2882 109.067 52.7958 108.754 53.0501 108.259L60.2223 94.2916C60.3312 94.0796 60.3879 93.8447 60.3879 93.6064V12.0696V1.5C60.3879 0.671573 59.7164 0 58.8879 0H44.166ZM45.666 10.5696V3H57.3879V10.5696H45.666ZM45.666 13.5696H49.8379V55.4806C49.8379 56.309 50.5095 56.9806 51.3379 56.9806C52.1663 56.9806 52.8379 56.309 52.8379 55.4806V13.5696H57.3879V92.1064H52.8379V81.9043C52.8379 81.0759 52.1663 80.4043 51.3379 80.4043C50.5095 80.4043 49.8379 81.0759 49.8379 81.9043V92.1064H45.666V13.5696ZM46.6819 95.1064H56.4315L51.6817 104.356L46.6819 95.1064ZM33.5859 28.3008C33.5859 27.4724 32.9144 26.8008 32.0859 26.8008C31.2575 26.8008 30.5859 27.4724 30.5859 28.3008V59.2546C30.5859 59.6896 30.7748 60.1032 31.1035 60.3881L36.7658 65.2954C37.3919 65.838 38.3392 65.7703 38.8817 65.1443C39.4243 64.5182 39.3566 63.5709 38.7306 63.0283L33.5859 58.5696V28.3008ZM1.50879 12.457C2.33722 12.457 3.00879 13.1286 3.00879 13.957V40.5146L10.1192 47.625C10.7049 48.2108 10.7049 49.1605 10.1192 49.7463C9.53337 50.3321 8.58362 50.3321 7.99783 49.7463L0.448129 42.1966C0.166824 41.9153 0.00878906 41.5338 0.00878906 41.136V13.957C0.00878906 13.1286 0.680362 12.457 1.50879 12.457ZM18.8652 42.6465C18.8652 41.8181 18.1937 41.1465 17.3652 41.1465C16.5368 41.1465 15.8652 41.8181 15.8652 42.6465V69.0704C15.8652 69.4683 16.0233 69.8498 16.3046 70.1311L36.3113 90.1378C36.8971 90.7236 37.8468 90.7236 38.4326 90.1378C39.0184 89.552 39.0184 88.6023 38.4326 88.0165L18.8652 68.4491V42.6465ZM25.721 64.2537C26.2961 63.6574 27.2456 63.6401 27.842 64.2152L38.4116 74.4073C39.0079 74.9823 39.0252 75.9319 38.4501 76.5282C37.8751 77.1246 36.9255 77.1418 36.3292 76.5668L25.7596 66.3747C25.1632 65.7996 25.146 64.8501 25.721 64.2537ZM72.0889 15.0898C72.0889 14.2614 71.4173 13.5898 70.5889 13.5898C69.7604 13.5898 69.0889 14.2614 69.0889 15.0898V57.9512L65.2914 62.439C64.7563 63.0714 64.8352 64.0179 65.4676 64.553C66.1 65.0882 67.0465 65.0093 67.5816 64.3769L71.7339 59.4696C71.9631 59.1987 72.0889 58.8554 72.0889 58.5006V15.0898ZM77.3118 64.2343C77.8976 64.82 77.8976 65.7698 77.3118 66.3556L67.4972 76.1702C66.9114 76.756 65.9616 76.756 65.3759 76.1702C64.7901 75.5844 64.7901 74.6347 65.3759 74.0489L75.1905 64.2343C75.7763 63.6485 76.726 63.6485 77.3118 64.2343ZM87.1883 44.1562C87.1883 43.3278 86.5167 42.6562 85.6883 42.6562C84.8598 42.6562 84.1883 43.3278 84.1883 44.1562V68.4402L65.3864 86.8734C64.7949 87.4534 64.7855 88.4031 65.3654 88.9946C65.9454 89.5862 66.8951 89.5956 67.4866 89.0156L86.7384 70.1414C87.0261 69.8593 87.1883 69.4733 87.1883 69.0703V44.1562ZM101.166 24.5371C101.995 24.5371 102.666 25.2087 102.666 26.0371V40.0041C102.666 40.4019 102.508 40.7834 102.227 41.0647L94.2999 48.9919C93.7141 49.5777 92.7644 49.5777 92.1786 48.9919C91.5928 48.4061 91.5928 47.4564 92.1786 46.8706L99.6665 39.3827V26.0371C99.6665 25.2087 100.338 24.5371 101.166 24.5371ZM18.8744 36.2285H15.8545V39.2484H18.8744V36.2285ZM0 7.54102H3.01988V10.5609H0V7.54102ZM33.974 21.8828H30.9541V24.9027H33.974V21.8828ZM69.457 9.04883H72.4769V12.0687H69.457V9.04883ZM102.675 18.8652H99.6553V21.8851H102.675V18.8652ZM84.5566 36.2285H87.5765V39.2484H84.5566V36.2285ZM52.849 73.2227H49.8291V76.2425H52.849V73.2227ZM15.8545 30.1875H18.8744V33.2074H15.8545V30.1875ZM3.01988 1.5H0V4.51988H3.01988V1.5ZM30.9541 15.8457H33.974V18.8656H30.9541V15.8457ZM72.4769 3.00977H69.457V6.02965H72.4769V3.00977ZM99.6553 12.8242H102.675V15.8441H99.6553V12.8242ZM87.5765 30.1875H84.5566V33.2074H87.5765V30.1875ZM49.8291 67.1836H52.849V70.2035H49.8291V67.1836ZM87.5765 24.1504H84.5566V27.1703H87.5765V24.1504ZM49.8291 61.1426H52.849V64.1625H49.8291V61.1426ZM18.8744 24.9043H15.8545V27.9242H18.8744V24.9043Z" fill="white"/>
</svg>
