<svg width="139" height="85" viewBox="0 0 139 85" fill="none" xmlns="http://www.w3.org/2000/svg">
<path fill-rule="evenodd" clip-rule="evenodd" d="M67.8642 0.87629C67.6927 0.501189 67.3744 0.213243 66.984 0.0801619C66.5936 -0.0529188 66.1657 -0.0193907 65.8008 0.172862L19.3008 24.6729C18.5679 25.059 18.2868 25.9662 18.6729 26.6991C19.0591 27.4321 19.9663 27.7132 20.6992 27.327L65.7955 3.56661L81.1358 37.1236C81.2676 37.4119 81.4873 37.651 81.7635 37.8067L106.914 51.9823L53.518 81.2791L25.1663 64.9408L10.3656 32.3792C10.1391 31.8809 9.65914 31.5456 9.11336 31.5042C8.56757 31.4629 8.04259 31.7221 7.74359 32.1805L0.243593 43.6805C-0.120213 44.2384 -0.0726471 44.9693 0.36039 45.4753C0.793427 45.9812 1.50823 46.1411 2.11556 45.8678L11.3189 41.7263L22.5016 66.3283C22.7176 66.8036 23.077 67.1992 23.5293 67.4599L52.2638 84.0188C53.0202 84.4547 53.9492 84.4644 54.7146 84.0445L110.722 53.315C111.199 53.0531 111.497 52.553 111.5 52.0085C111.503 51.464 111.211 50.9606 110.737 50.6932L83.6614 35.4327L67.8642 0.87629ZM8.76456 36.1069L10.0774 38.9952L5.55304 41.0312L8.76456 36.1069ZM112.231 21.6899C111.813 21.4568 111.309 21.4371 110.874 21.6369L92.3738 30.1369C91.8635 30.3714 91.5269 30.8712 91.5015 31.4321C91.4762 31.9931 91.7662 32.5212 92.2532 32.8008L119.253 48.3008C119.705 48.56 120.258 48.5666 120.716 48.3182L138.216 38.8182C138.696 38.5573 138.997 38.0554 139 37.5085C139.003 36.9615 138.708 36.4563 138.231 36.1899L112.231 21.6899ZM120.02 45.2821L96.2707 31.6479L111.434 24.6808L134.389 37.4822L120.02 45.2821Z" fill="white"/>
</svg>
