<svg width="96" height="95" viewBox="0 0 96 95" fill="none" xmlns="http://www.w3.org/2000/svg">
<path fill-rule="evenodd" clip-rule="evenodd" d="M77.2526 37.311C87.6065 37.311 96 28.9586 96 18.6555C96 8.35234 87.6065 0 77.2526 0C69.4122 0 62.6959 4.78933 59.8971 11.5884L53.4005 8.91333C53.4338 8.63691 53.4509 8.35555 53.4509 8.07021C53.4509 4.19769 50.2961 1.05838 46.4045 1.05838C42.5129 1.05838 39.3581 4.19769 39.3581 8.07021C39.3581 11.9427 42.5129 15.082 46.4045 15.082C49.2111 15.082 51.6345 13.4492 52.7676 11.0861L59.1678 13.7215C58.7358 15.2931 58.5051 16.9475 58.5051 18.6555C58.5051 20.6596 58.8227 22.5899 59.4105 24.3993L39.4346 32.9544C36.2443 27.1919 30.0818 23.2877 23.0029 23.2877C20.6877 23.2877 18.4704 23.7054 16.4231 24.4691L11.2474 13.7002C12.9741 12.4222 14.0928 10.3762 14.0928 8.07021C14.0928 4.19769 10.938 1.05838 7.04639 1.05838C3.15477 1.05838 0 4.19769 0 8.07021C0 11.9427 3.15477 15.082 7.04639 15.082C7.81237 15.082 8.54982 14.9604 9.24027 14.7355L14.3586 25.3849C8.35519 28.4947 4.2555 34.7425 4.2555 41.9432C4.2555 48.3887 7.54037 54.0708 12.5351 57.4221L8.84747 63.7418C8.27256 63.591 7.6689 63.5107 7.04639 63.5107C3.15477 63.5107 0 66.65 0 70.5225C0 74.395 3.15477 77.5343 7.04639 77.5343C10.938 77.5343 14.0928 74.395 14.0928 70.5225C14.0928 68.0745 12.8321 65.9195 10.9215 64.6653L14.4814 58.5645C17.0381 59.8651 19.9344 60.5987 23.0029 60.5987C27.62 60.5987 31.8473 58.9378 35.1143 56.1837L42.0872 63.8163C39.0695 67.1275 37.2309 71.5223 37.2309 76.3445C37.2309 77.4507 37.3277 78.5343 37.5132 79.5876L27.926 82.1472C26.8717 79.5967 24.3499 77.8011 21.4066 77.8011C17.515 77.8011 14.3602 80.9404 14.3602 84.8129C14.3602 88.6854 17.515 91.8247 21.4066 91.8247C25.2982 91.8247 28.453 88.6854 28.453 84.8129C28.453 84.6535 28.4477 84.4954 28.4372 84.3388L38.0378 81.7756C40.3748 89.4297 47.5229 95 55.9784 95C66.3323 95 74.7258 86.6477 74.7258 76.3445C74.7258 72.7919 73.7279 69.4713 71.9958 66.645L81.7041 60.5187C82.9887 61.8713 84.8084 62.7153 86.8263 62.7153C90.7179 62.7153 93.8727 59.576 93.8727 55.7035C93.8727 51.831 90.7179 48.6917 86.8263 48.6917C82.9347 48.6917 79.7799 51.831 79.7799 55.7035C79.7799 56.7589 80.0142 57.7599 80.4339 58.6577L70.7041 64.7976C68.6792 62.244 65.9979 60.2298 62.9135 59.007L71.244 36.3322C73.1303 36.9669 75.151 37.311 77.2526 37.311ZM69.15 35.4834C65.2304 33.6112 62.066 30.4229 60.2353 26.494L40.4038 34.9872C41.2723 37.1368 41.7504 39.4844 41.7504 41.9432C41.7504 46.8426 39.8524 51.3008 36.7483 54.6296L43.7038 62.2432C46.9926 59.4059 51.284 57.689 55.9784 57.689C57.6332 57.689 59.2379 57.9024 60.7663 58.3029L69.15 35.4834ZM93.7404 18.6555C93.7404 22.9962 92.0465 26.9431 89.2805 29.8775C89.1149 29.2704 88.8748 28.6782 88.564 28.1095C87.9186 26.9281 86.985 25.8768 85.835 25.0049C84.6852 24.1332 83.335 23.4525 81.8668 22.9914C81.8394 22.9828 81.812 22.9743 81.7845 22.9658C83.3217 21.6796 84.2986 19.7517 84.2986 17.5968C84.2986 13.7242 81.1438 10.5849 77.2522 10.5849C73.3606 10.5849 70.2058 13.7242 70.2058 17.5968C70.2058 19.7518 71.1828 21.6797 72.72 22.966C72.6927 22.9744 72.6654 22.9828 72.6382 22.9914C71.1699 23.4525 69.8198 24.1332 68.67 25.0049C67.52 25.8768 66.5863 26.9281 65.9409 28.1095C65.6302 28.6782 65.3901 29.2703 65.2245 29.8774C62.4586 26.943 60.7647 22.9961 60.7647 18.6555C60.7647 9.59417 68.1466 2.24852 77.2526 2.24852C86.3586 2.24852 93.7404 9.59417 93.7404 18.6555ZM77.949 22.31C77.7172 22.2998 77.485 22.2947 77.2525 22.2947C77.0198 22.2947 76.7875 22.2998 76.5556 22.31C74.2421 21.9743 72.4654 19.992 72.4654 17.5968C72.4654 14.9661 74.6086 12.8334 77.2522 12.8334C79.8959 12.8334 82.039 14.9661 82.039 17.5968C82.039 19.992 80.2624 21.9743 77.949 22.31ZM76.4692 24.5658C75.3839 24.6285 74.3198 24.8211 73.3182 25.1357C72.0763 25.5257 70.9639 26.0925 70.0394 26.7935C69.1151 27.4942 68.4033 28.31 67.9261 29.1834C67.4869 29.9873 67.2512 30.8305 67.2174 31.6745C69.997 33.7993 73.4766 35.0625 77.2526 35.0625C81.0285 35.0625 84.508 33.7994 87.2876 31.6747C87.2538 30.8306 87.0181 29.9874 86.5788 29.1834C86.1017 28.31 85.3899 27.4942 84.4656 26.7935C83.541 26.0925 82.4286 25.5257 81.1867 25.1357C80.185 24.8211 79.1209 24.6285 78.0354 24.5658C77.7783 24.5941 77.517 24.6086 77.2522 24.6086C76.9876 24.6086 76.7263 24.5941 76.4692 24.5658ZM39.4908 41.9432C39.4908 46.2839 37.7968 50.2309 35.0309 53.1653C34.8653 52.5582 34.6251 51.966 34.3144 51.3972C33.669 50.2158 32.7353 49.1645 31.5853 48.2926C30.4355 47.4209 29.0854 46.7402 27.6171 46.2791C27.5897 46.2705 27.5623 46.262 27.5349 46.2536C29.0721 44.9673 30.049 43.0394 30.049 40.8845C30.049 37.012 26.8942 33.8727 23.0026 33.8727C19.111 33.8727 15.9562 37.012 15.9562 40.8845C15.9562 43.0395 16.9332 44.9674 18.4704 46.2537L18.4211 46.2689L18.3885 46.2791C16.9203 46.7402 15.5701 47.4209 14.4203 48.2926C13.2703 49.1645 12.3367 50.2158 11.6913 51.3972C11.3805 51.9659 11.1404 52.558 10.9748 53.1651C8.20897 50.2307 6.5151 46.2838 6.5151 41.9432C6.5151 32.8819 13.897 25.5362 23.0029 25.5362C32.1089 25.5362 39.4908 32.8819 39.4908 41.9432ZM23.6993 45.5977C23.4676 45.5875 23.2353 45.5824 23.0028 45.5824C22.7702 45.5824 22.5378 45.5875 22.306 45.5977C19.9925 45.2621 18.2158 43.2797 18.2158 40.8845C18.2158 38.2538 20.3589 36.1212 23.0026 36.1212C25.6463 36.1212 27.7894 38.2538 27.7894 40.8845C27.7894 43.2797 26.0128 45.262 23.6993 45.5977ZM22.2196 47.8535C21.1342 47.9162 20.0702 48.1088 19.0686 48.4234C17.8267 48.8134 16.7142 49.3803 15.7897 50.0812C14.8654 50.782 14.1536 51.5977 13.6764 52.4712C13.2372 53.2751 13.0016 54.1183 12.9677 54.9623C15.7474 57.0871 19.2269 58.3502 23.0029 58.3502C26.7789 58.3502 30.2583 57.0871 33.0379 54.9624C33.0041 54.1184 32.7684 53.2751 32.3292 52.4711C31.852 51.5977 31.1402 50.782 30.2159 50.0812C29.2914 49.3803 28.179 48.8134 26.9371 48.4234C25.9354 48.1088 24.8712 47.9162 23.7857 47.8535C23.5286 47.8818 23.2673 47.8963 23.0026 47.8963C22.7379 47.8963 22.4767 47.8818 22.2196 47.8535ZM66.0134 89.3637C63.2338 91.4884 59.7543 92.7515 55.9784 92.7515C52.2024 92.7515 48.7228 91.4884 45.9432 89.3636C45.977 88.5196 46.2127 87.6764 46.6519 86.8725C47.1291 85.999 47.8409 85.1833 48.7652 84.4825C49.6897 83.7815 50.8021 83.2147 52.044 82.8247C53.0457 82.5101 54.1097 82.3175 55.195 82.2548C55.4521 82.2831 55.7134 82.2976 55.978 82.2976C56.2428 82.2976 56.504 82.2831 56.7612 82.2548C57.8467 82.3175 58.9108 82.5101 59.9125 82.8247C61.1544 83.2147 62.2668 83.7815 63.1914 84.4825C64.1157 85.1833 64.8275 85.999 65.3046 86.8725C65.7439 87.6764 65.9795 88.5197 66.0134 89.3637ZM51.364 80.6804C51.3912 80.6719 51.4185 80.6634 51.4459 80.655C49.9086 79.3688 48.9316 77.4408 48.9316 75.2858C48.9316 71.4133 52.0864 68.274 55.978 68.274C59.8696 68.274 63.0244 71.4133 63.0244 75.2858C63.0244 77.4407 62.0475 79.3686 60.5103 80.6549L60.5441 80.6653L60.5926 80.6804C62.0608 81.1415 63.411 81.8222 64.5608 82.694C65.7108 83.5658 66.6444 84.6171 67.2898 85.7985C67.6006 86.3673 67.8407 86.9595 68.0063 87.5666C70.7723 84.6322 72.4662 80.6852 72.4662 76.3445C72.4662 67.2832 65.0844 59.9375 55.9784 59.9375C46.8724 59.9375 39.4905 67.2832 39.4905 76.3445C39.4905 80.6851 41.1844 84.632 43.9503 87.5664C44.1159 86.9594 44.356 86.3672 44.6667 85.7985C45.3121 84.6171 46.2458 83.5658 47.3958 82.694C48.5456 81.8222 49.8957 81.1415 51.364 80.6804ZM55.9783 79.9837C56.2108 79.9837 56.443 79.9888 56.6748 79.999C58.9882 79.6633 60.7648 77.681 60.7648 75.2858C60.7648 72.6551 58.6217 70.5225 55.978 70.5225C53.3344 70.5225 51.1912 72.6551 51.1912 75.2858C51.1912 77.681 52.9679 79.6634 55.2814 79.999C55.5133 79.9888 55.7456 79.9837 55.9783 79.9837ZM7.04639 12.8335C9.69006 12.8335 11.8332 10.7009 11.8332 8.07021C11.8332 5.43951 9.69006 3.3069 7.04639 3.3069C4.40272 3.3069 2.2596 5.43951 2.2596 8.07021C2.2596 10.7009 4.40272 12.8335 7.04639 12.8335ZM51.1913 8.07021C51.1913 10.7009 49.0482 12.8335 46.4045 12.8335C43.7609 12.8335 41.6177 10.7009 41.6177 8.07021C41.6177 5.43951 43.7609 3.3069 46.4045 3.3069C49.0482 3.3069 51.1913 5.43951 51.1913 8.07021ZM86.8263 60.4668C89.4699 60.4668 91.6131 58.3342 91.6131 55.7035C91.6131 53.0728 89.4699 50.9402 86.8263 50.9402C84.1826 50.9402 82.0395 53.0728 82.0395 55.7035C82.0395 58.3342 84.1826 60.4668 86.8263 60.4668ZM21.4066 89.5762C24.0503 89.5762 26.1934 87.4436 26.1934 84.8129C26.1934 82.1822 24.0503 80.0496 21.4066 80.0496C18.763 80.0496 16.6198 82.1822 16.6198 84.8129C16.6198 87.4436 18.763 89.5762 21.4066 89.5762ZM11.8332 70.5225C11.8332 73.1532 9.69006 75.2858 7.04639 75.2858C4.40272 75.2858 2.2596 73.1532 2.2596 70.5225C2.2596 67.8918 4.40272 65.7592 7.04639 65.7592C9.69006 65.7592 11.8332 67.8918 11.8332 70.5225Z" fill="white"/>
</svg>
