<svg width="61" height="117" viewBox="0 0 61 117" fill="none" xmlns="http://www.w3.org/2000/svg">
<path fill-rule="evenodd" clip-rule="evenodd" d="M20.0292 0C18.178 0 16.3399 0.295334 14.6177 0.873565C12.8957 1.45174 11.3138 2.30478 9.96801 3.39564C8.62186 4.48682 7.53334 5.79908 6.78283 7.26779C6.03144 8.73821 5.63774 10.3294 5.63774 11.947V24.9105H5.26532C2.35737 24.9105 0 27.2623 0 30.1635V58.8191C0 61.7203 2.35736 64.0721 5.26532 64.0721H6.49994C7.33078 64.0721 8.00432 63.4001 8.00432 62.5713C8.00432 61.7424 7.33078 61.0704 6.49994 61.0704H5.26532C4.01905 61.0704 3.00875 60.0625 3.00875 58.8191V30.1635C3.00875 28.9201 4.01905 27.9122 5.26532 27.9122H34.7939C36.0401 27.9122 37.0504 28.9201 37.0504 30.1635V51.2187C37.0504 52.0476 37.724 52.7196 38.5548 52.7196C39.3856 52.7196 40.0592 52.0476 40.0592 51.2187V30.1635C40.0592 27.2623 37.7018 24.9105 34.7939 24.9105H34.4207V11.947C34.4207 10.3294 34.027 8.73821 33.2756 7.26779C32.5251 5.79908 31.4366 4.48682 30.0904 3.39564C28.7447 2.30478 27.1627 1.45174 25.4408 0.873565C23.7186 0.295333 21.8805 0 20.0292 0ZM31.4119 24.9105V11.947C31.4119 10.8211 31.139 9.69547 30.5951 8.63111C30.0503 7.56504 29.2403 6.57414 28.1931 5.72529C27.1455 4.87611 25.8861 4.19023 24.4811 3.71846C23.0761 3.24675 21.5627 3.00169 20.0292 3.00169C18.4957 3.00169 16.9823 3.24675 15.5774 3.71846C14.1723 4.19023 12.9129 4.87611 11.8653 5.72529C10.8181 6.57414 10.0081 7.56504 9.46335 8.63111C8.91947 9.69547 8.6465 10.8211 8.6465 11.947V24.9105H31.4119Z" fill="white"/>
<path fill-rule="evenodd" clip-rule="evenodd" d="M20.0602 38.5706C16.1022 38.5706 12.9058 41.7944 12.9488 45.7428L13.2383 72.3125L12.673 71.5293C10.4789 68.4895 6.23943 67.7814 3.17259 69.9424C0.0857931 72.1175 -0.649153 76.3772 1.53103 79.4567L5.28733 84.7625L5.29025 84.7666L14.7454 98.0274C15.1078 98.5356 15.3024 99.1437 15.3024 99.7674V103.204C15.3024 104.077 15.801 104.834 16.5297 105.208C16.3271 105.669 16.2147 106.178 16.2147 106.713V113.248C16.2147 115.32 17.8985 117 19.9756 117H53.1053C55.1824 117 56.8663 115.32 56.8663 113.248V106.713C56.8663 106.102 56.7197 105.525 56.4597 105.015C57.0152 104.605 57.3754 103.946 57.3754 103.204L57.3754 99.5764C57.3754 99.0324 57.5236 98.4986 57.8042 98.0321L60.1424 94.1441C60.7035 93.2111 60.9999 92.1435 60.9999 91.0555L60.9999 78.659L61 78.6412V71.4092C61 67.4738 57.8022 64.2835 53.8575 64.2835C52.2895 64.2835 50.8394 64.7876 49.6613 65.6423C49.1974 62.1542 46.2044 59.4629 42.5813 59.4629C40.8681 59.4629 39.2958 60.0647 38.0651 61.0679C37.1043 58.2645 34.4406 56.2487 31.3051 56.2487C29.7649 56.2487 28.3386 56.7351 27.1721 57.5622V45.6657C27.1721 41.7472 23.988 38.5706 20.0602 38.5706ZM13.5724 77.9122C13.9598 78.4489 14.6367 78.6545 15.237 78.4696C15.8578 78.2792 16.3059 77.6994 16.2985 77.0185L15.9574 45.7102C15.9326 43.4322 17.7767 41.5723 20.0602 41.5723C22.3263 41.5723 24.1633 43.405 24.1633 45.6657V63.0276H24.1709C24.1654 63.1426 24.1626 63.2582 24.1626 63.3745V74.6242C24.1626 75.4531 24.8361 76.125 25.667 76.125C26.4978 76.125 27.1713 75.4531 27.1713 74.6242V63.3745C27.1713 61.0968 29.0221 59.2504 31.3051 59.2504C33.5881 59.2504 35.4388 61.0968 35.4388 63.3745L35.4388 75.4277C35.4388 76.2566 36.1123 76.9286 36.9432 76.9286C37.774 76.9286 38.4476 76.2566 38.4476 75.4277V66.5887C38.4476 64.311 40.2983 62.4646 42.5813 62.4646C44.8643 62.4646 46.715 64.311 46.715 66.5887L46.715 78.6412C46.715 79.4701 47.3886 80.1421 48.2194 80.1421C49.0502 80.1421 49.7238 79.4701 49.7238 78.6412V71.4092C49.7238 69.1316 51.5745 67.2852 53.8575 67.2852C56.1405 67.2852 57.9912 69.1316 57.9912 71.4092V78.6244L57.9911 78.6422L57.9911 91.0555C57.9911 91.5995 57.8429 92.1333 57.5624 92.5998L55.2242 96.4877C54.663 97.4207 54.3666 98.4883 54.3666 99.5764L54.3666 102.453H18.3112L18.3112 99.7674C18.3112 98.5201 17.9218 97.3038 17.1972 96.2875L7.7449 83.0308L3.98861 77.725C2.76707 75.9996 3.17885 73.6129 4.90836 72.3942C6.6267 71.1834 9.00204 71.5802 10.2314 73.2833L13.5724 77.9122ZM19.2234 106.713C19.2234 106.299 19.5602 105.963 19.9756 105.963H53.1053C53.5207 105.963 53.8575 106.299 53.8575 106.713V113.248C53.8575 113.662 53.5207 113.998 53.1053 113.998H19.9756C19.5602 113.998 19.2234 113.662 19.2234 113.248V106.713Z" fill="white"/>
</svg>
