<svg width="177" height="177" viewBox="0 0 177 177" fill="none" xmlns="http://www.w3.org/2000/svg">
<rect width="177" height="177" fill="#222222"/>
<g clip-path="url(#clip0_20_554)">
<path d="M99.8206 56.8762L62.4544 58.0334C60.8988 58.0815 59.6117 56.8336 59.6117 55.2773L59.6118 52.6635L59.6113 46.4879C59.6112 45.0702 60.6861 43.8835 62.0969 43.7438L105.734 39.4225C106.318 39.3646 106.703 40.0181 106.368 40.5011L103.228 45.0326L104.421 44.9982C105.164 44.9767 105.791 45.5486 105.837 46.2908L106.178 51.7863C106.224 52.536 105.662 53.185 104.913 53.2458L102.455 53.4452L102.487 53.9454C102.586 55.5002 101.378 56.828 99.8206 56.8762Z" fill="#222222"/>
<path d="M102.031 46.7597C101.822 47.1961 101.102 48.0341 99.6483 48.8593C97.8233 49.8952 95.6934 50.1853 93.6052 50.3933L70.8135 52.6635M102.031 46.7597L102.455 53.4452M102.031 46.7597L103.228 45.0326M102.455 53.4452L102.487 53.9454C102.586 55.5002 101.378 56.828 99.8206 56.8762L62.4544 58.0334C60.8988 58.0815 59.6117 56.8336 59.6117 55.2773L59.6118 52.6635M102.455 53.4452L104.913 53.2458C105.662 53.185 106.224 52.536 106.178 51.7863L105.837 46.2908C105.791 45.5486 105.164 44.9767 104.421 44.9982L103.228 45.0326M103.228 45.0326L106.368 40.5011C106.703 40.0181 106.318 39.3646 105.734 39.4225L62.0969 43.7438C60.6862 43.8835 59.6112 45.0702 59.6113 46.4879L59.6118 52.6635M59.6118 52.6635C60.5307 53.1125 61.5558 53.3108 62.3264 53.321" stroke="white" stroke-width="2.06796" stroke-linecap="round"/>
<path d="M96.6273 73.0052L61.444 59.4732C60.0052 58.9198 59.2996 57.2942 59.878 55.8652L61.7549 51.2281L63.6978 46.4281C64.2501 45.0635 65.777 44.3735 67.1662 44.8608L109.435 59.6864C109.994 59.8824 110.062 60.6455 109.546 60.9369L104.771 63.6359L105.861 64.1243C106.539 64.4285 106.854 65.216 106.573 65.9043L104.488 71.0004C104.204 71.6957 103.415 72.0353 102.714 71.7641L100.414 70.8738L100.171 71.472C99.604 72.8627 98.0288 73.5443 96.6273 73.0052Z" fill="#222222"/>
<path d="M102.942 64.6699C102.564 64.972 101.551 65.413 99.8832 65.5232C97.7893 65.6615 95.7454 64.9957 93.7748 64.2742L72.267 56.398M102.942 64.6699L100.414 70.8738M102.942 64.6699L104.771 63.6359M100.414 70.8738L100.171 71.472C99.604 72.8627 98.0288 73.5443 96.6273 73.0052L61.444 59.4732C60.0052 58.9198 59.2996 57.2942 59.878 55.8652L61.7549 51.2281M100.414 70.8738L102.714 71.7641C103.415 72.0353 104.204 71.6957 104.488 71.0004L106.573 65.9043C106.854 65.216 106.539 64.4285 105.861 64.1243L104.771 63.6359M104.771 63.6359L109.546 60.9369C110.062 60.6455 109.994 59.8824 109.435 59.6864L67.1662 44.8608C65.777 44.3735 64.2501 45.0635 63.6978 46.4281L61.7549 51.2281M61.7549 51.2281C62.3868 52.0324 63.6505 52.9514 64.3399 53.2961" stroke="white" stroke-width="2.06796" stroke-linecap="round"/>
<path d="M67.4417 54.6747L69.5096 55.3641" stroke="white" stroke-width="2.06796" stroke-linecap="round"/>
<path d="M74.3349 64.3253C73.9904 65.4448 73.8138 67.5584 75.0244 69.0113M75.0244 69.0113C75.4288 69.4967 75.988 69.9083 76.7475 70.1845C77.5089 70.4614 78.1994 70.5123 78.8156 70.4116M75.0244 69.0113L72.6022 75.3101C72.1926 76.375 71.1695 77.0777 70.0286 77.0777H63.3059M82.2622 67.4272C81.8319 68.4597 80.6541 70.111 78.8156 70.4116M78.8156 70.4116L75.8473 78.4116C75.1454 80.3031 73.3409 81.5583 71.3234 81.5583H63.3059" stroke="white" stroke-width="2.06796"/>
<path d="M60.4023 72.9418H59.1699V86.0389H60.5486C61.1995 86.0389 61.8124 85.7324 62.2029 85.2117C62.4714 84.8537 62.6165 84.4183 62.6165 83.9709V75.4345C62.6165 74.7212 62.3331 74.037 61.8287 73.5326C61.4504 73.1543 60.9373 72.9418 60.4023 72.9418Z" stroke="white" stroke-width="2.06796"/>
<mask id="mask0_20_554" style="mask-type:luminance" maskUnits="userSpaceOnUse" x="104" y="77" width="19" height="18">
<path fill-rule="evenodd" clip-rule="evenodd" d="M111.788 77.8244C111.788 77.412 112.122 77.0777 112.534 77.0777H114.028C114.44 77.0777 114.775 77.412 114.775 77.8244V80.2526C115.35 80.4008 115.893 80.6327 116.388 80.9346L118.131 79.2403C118.426 78.9529 118.899 78.9595 119.186 79.2553L120.227 80.3263C120.515 80.622 120.508 81.0948 120.213 81.3822L118.47 83.076C118.731 83.5316 118.933 84.0249 119.067 84.5457H121.496C121.908 84.5457 122.243 84.88 122.243 85.2925V86.7859C122.243 87.1984 121.908 87.5328 121.496 87.5328H119.067C118.919 88.1082 118.687 88.6501 118.385 89.1448L120.078 90.8862C120.365 91.182 120.359 91.6548 120.063 91.9422L118.992 92.9831C118.696 93.2705 118.223 93.2636 117.936 92.9679L116.244 91.2274C115.788 91.488 115.295 91.6905 114.775 91.8244V94.2535C114.775 94.6657 114.44 95 114.028 95H112.534C112.122 95 111.788 94.6657 111.788 94.2535V91.8244C111.211 91.676 110.668 91.4437 110.173 91.1413L108.432 92.8332C108.136 93.1209 107.664 93.114 107.376 92.8183L106.335 91.7473C106.048 91.4516 106.054 90.9788 106.35 90.6914L108.091 88.9991C107.831 88.5444 107.629 88.0522 107.495 87.5328H105.067C104.655 87.5328 104.32 87.1984 104.32 86.7859V85.2925C104.32 84.88 104.655 84.5457 105.067 84.5457H107.495C107.643 83.9688 107.876 83.4256 108.179 82.93L106.485 81.1878C106.198 80.8921 106.204 80.4192 106.5 80.1318L107.571 79.0908C107.867 78.8033 108.339 78.81 108.627 79.1057L110.321 80.8483C110.776 80.5883 111.268 80.3864 111.788 80.2526V77.8244Z" fill="white"/>
</mask>
<g mask="url(#mask0_20_554)">
<path d="M114.775 80.2526H113.72V81.0699L114.512 81.2736L114.775 80.2526ZM116.388 80.9346L115.839 81.8346L116.536 82.2601L117.122 81.6905L116.388 80.9346ZM118.47 83.0759L117.735 82.32L117.149 82.8898L117.555 83.5995L118.47 83.0759ZM119.067 84.5456L118.046 84.8083L118.25 85.5999H119.067V84.5456ZM119.067 87.5327V86.4785H118.25L118.046 87.2698L119.067 87.5327ZM118.385 89.1448L117.485 88.5958L117.06 89.2935L117.629 89.8796L118.385 89.1448ZM116.244 91.2274L117 90.4925L116.43 89.9063L115.72 90.3124L116.244 91.2274ZM114.775 91.8244L114.512 90.8034L113.72 91.0071V91.8244H114.775ZM111.788 91.8244H112.842V91.0071L112.05 90.8034L111.788 91.8244ZM110.173 91.1413L110.722 90.2414L110.024 89.8154L109.438 90.3853L110.173 91.1413ZM108.091 88.9991L108.826 89.755L109.412 89.1854L109.006 88.4759L108.091 88.9991ZM107.495 87.5327L108.516 87.2698L108.313 86.4785H107.495V87.5327ZM107.495 84.5456V85.5999H108.312L108.516 84.8083L107.495 84.5456ZM108.179 82.9299L109.078 83.4793L109.504 82.7814L108.934 82.1951L108.179 82.9299ZM110.321 80.8483L109.565 81.5832L110.134 82.1691L110.844 81.7635L110.321 80.8483ZM111.788 80.2526L112.05 81.2736L112.842 81.0699V80.2526H111.788ZM112.534 76.0234C111.54 76.0234 110.733 76.8298 110.733 77.8244H112.842C112.842 77.9943 112.704 78.1319 112.534 78.1319V76.0234ZM114.028 76.0234H112.534V78.1319H114.028V76.0234ZM115.829 77.8244C115.829 76.8298 115.023 76.0234 114.028 76.0234V78.1319C113.858 78.1319 113.72 77.9943 113.72 77.8244H115.829ZM115.829 80.2526V77.8244H113.72V80.2526H115.829ZM114.512 81.2736C114.985 81.3954 115.431 81.586 115.839 81.8346L116.937 80.0345C116.354 79.6794 115.716 79.4062 115.038 79.2316L114.512 81.2736ZM117.396 78.4843L115.653 80.1786L117.122 81.6905L118.865 79.9963L117.396 78.4843ZM119.943 78.5204C119.249 77.8072 118.109 77.7911 117.396 78.4843L118.865 79.9963C118.744 80.1146 118.549 80.1119 118.431 79.9901L119.943 78.5204ZM120.984 79.5914L119.943 78.5204L118.431 79.9901L119.472 81.0611L120.984 79.5914ZM120.947 82.1382C121.661 81.4449 121.677 80.3047 120.984 79.5914L119.472 81.0611C119.353 80.9393 119.356 80.7446 119.478 80.6262L120.947 82.1382ZM119.205 83.8319L120.947 82.1382L119.478 80.6262L117.735 82.32L119.205 83.8319ZM117.555 83.5995C117.77 83.9746 117.936 84.3803 118.046 84.8083L120.088 84.283C119.93 83.6695 119.692 83.0886 119.385 82.5523L117.555 83.5995ZM121.496 83.4914H119.067V85.5999H121.496V83.4914ZM123.297 85.2925C123.297 84.2978 122.491 83.4914 121.496 83.4914V85.5999C121.326 85.5999 121.188 85.4622 121.188 85.2925H123.297ZM123.297 86.7859V85.2925H121.188V86.7859H123.297ZM121.496 88.587C122.491 88.587 123.297 87.7806 123.297 86.7859H121.188C121.188 86.6162 121.326 86.4785 121.496 86.4785V88.587ZM119.067 88.587H121.496V86.4785H119.067V88.587ZM118.046 87.2698C117.924 87.7428 117.734 88.1886 117.485 88.5958L119.285 89.6937C119.64 89.1118 119.913 88.4736 120.088 87.7957L118.046 87.2698ZM120.834 90.1514L119.141 88.41L117.629 89.8796L119.322 91.621L120.834 90.1514ZM120.798 92.6982C121.511 92.0048 121.527 90.8646 120.834 90.1514L119.322 91.621C119.204 91.4993 119.206 91.3046 119.328 91.1862L120.798 92.6982ZM119.727 93.7392L120.798 92.6982L119.328 91.1862L118.257 92.2272L119.727 93.7392ZM117.18 93.7027C117.873 94.4162 119.014 94.4327 119.727 93.7392L118.257 92.2272C118.379 92.1089 118.574 92.1116 118.692 92.2334L117.18 93.7027ZM115.488 91.9622L117.18 93.7027L118.692 92.2334L117 90.4925L115.488 91.9622ZM115.72 90.3124C115.345 90.5269 114.94 90.6933 114.512 90.8034L115.038 92.8454C115.651 92.6876 116.231 92.4492 116.767 92.1424L115.72 90.3124ZM115.829 94.2535V91.8244H113.72V94.2535H115.829ZM114.028 96.054C115.023 96.054 115.829 95.2482 115.829 94.2535H113.72C113.72 94.0832 113.858 93.946 114.028 93.946V96.054ZM112.534 96.054H114.028V93.946H112.534V96.054ZM110.733 94.2535C110.733 95.2482 111.54 96.054 112.534 96.054V93.946C112.704 93.946 112.842 94.0832 112.842 94.2535H110.733ZM110.733 91.8244V94.2535H112.842V91.8244H110.733ZM112.05 90.8034C111.577 90.6814 111.13 90.4905 110.722 90.2414L109.623 92.0411C110.206 92.3969 110.846 92.6705 111.525 92.8454L112.05 90.8034ZM109.167 93.589L110.908 91.8972L109.438 90.3853L107.697 92.0773L109.167 93.589ZM106.62 93.5531C107.313 94.2666 108.454 94.2824 109.167 93.589L107.697 92.0773C107.819 91.9589 108.014 91.9616 108.132 92.0834L106.62 93.5531ZM105.579 92.4821L106.62 93.5531L108.132 92.0834L107.091 91.0125L105.579 92.4821ZM105.615 89.9354C104.902 90.6287 104.886 91.7689 105.579 92.4821L107.091 91.0125C107.209 91.1342 107.207 91.3289 107.085 91.4473L105.615 89.9354ZM107.356 88.2431L105.615 89.9354L107.085 91.4473L108.826 89.755L107.356 88.2431ZM109.006 88.4759C108.792 88.1016 108.626 87.6968 108.516 87.2698L106.474 87.7957C106.632 88.4076 106.87 88.9871 107.176 89.5223L109.006 88.4759ZM105.067 88.587H107.495V86.4785H105.067V88.587ZM103.266 86.7859C103.266 87.7806 104.072 88.587 105.067 88.587V86.4785C105.237 86.4785 105.375 86.6162 105.375 86.7859H103.266ZM103.266 85.2925V86.7859H105.375V85.2925H103.266ZM105.067 83.4914C104.072 83.4914 103.266 84.2978 103.266 85.2925H105.375C105.375 85.4622 105.237 85.5999 105.067 85.5999V83.4914ZM107.495 83.4914H105.067V85.5999H107.495V83.4914ZM108.516 84.8083C108.638 84.3342 108.829 83.8874 109.078 83.4793L107.279 82.3806C106.923 82.9638 106.649 83.6033 106.474 84.283L108.516 84.8083ZM105.729 81.9226L107.423 83.6648L108.934 82.1951L107.241 80.4529L105.729 81.9226ZM105.765 79.3758C105.052 80.0691 105.036 81.2093 105.729 81.9226L107.241 80.4529C107.359 80.5747 107.357 80.7693 107.235 80.8878L105.765 79.3758ZM106.836 78.3348L105.765 79.3758L107.235 80.8878L108.306 79.8468L106.836 78.3348ZM109.383 78.3709C108.69 77.6577 107.549 77.6415 106.836 78.3348L108.306 79.8468C108.184 79.9651 107.989 79.9624 107.871 79.8406L109.383 78.3709ZM111.077 80.1135L109.383 78.3709L107.871 79.8406L109.565 81.5832L111.077 80.1135ZM110.844 81.7635C111.218 81.5495 111.623 81.3835 112.05 81.2736L111.525 79.2316C110.913 79.3892 110.333 79.6271 109.798 79.9331L110.844 81.7635ZM110.733 77.8244V80.2526H112.842V77.8244H110.733Z" fill="white"/>
</g>
<path d="M113.282 88.499C114.64 88.499 115.742 87.3976 115.742 86.039C115.742 84.6804 114.64 83.5791 113.282 83.5791C111.923 83.5791 110.822 84.6804 110.822 86.039C110.822 87.3976 111.923 88.499 113.282 88.499Z" stroke="white" stroke-width="1.05425"/>
</g>
<path d="M25.2754 132.835H26.5879C26.5195 133.464 26.3395 134.027 26.0479 134.523C25.7562 135.02 25.3438 135.414 24.8105 135.706C24.2773 135.993 23.612 136.137 22.8145 136.137C22.2311 136.137 21.7002 136.027 21.2217 135.809C20.7477 135.59 20.3398 135.28 19.998 134.879C19.6562 134.473 19.3919 133.988 19.2051 133.423C19.0228 132.853 18.9316 132.22 18.9316 131.522V130.531C18.9316 129.834 19.0228 129.203 19.2051 128.638C19.3919 128.068 19.6585 127.58 20.0049 127.175C20.3558 126.769 20.7773 126.457 21.2695 126.238C21.7617 126.02 22.3154 125.91 22.9307 125.91C23.6826 125.91 24.3184 126.051 24.8379 126.334C25.3574 126.617 25.7607 127.008 26.0479 127.51C26.3395 128.007 26.5195 128.583 26.5879 129.239H25.2754C25.2116 128.774 25.0931 128.376 24.9199 128.043C24.7467 127.706 24.5007 127.446 24.1816 127.264C23.8626 127.081 23.4456 126.99 22.9307 126.99C22.4886 126.99 22.099 127.075 21.7617 127.243C21.429 127.412 21.1488 127.651 20.9209 127.961C20.6976 128.271 20.529 128.642 20.415 129.075C20.3011 129.508 20.2441 129.989 20.2441 130.518V131.522C20.2441 132.01 20.2943 132.468 20.3945 132.896C20.4993 133.325 20.6566 133.701 20.8662 134.024C21.0758 134.348 21.3424 134.603 21.666 134.79C21.9896 134.972 22.3724 135.063 22.8145 135.063C23.375 135.063 23.8216 134.975 24.1543 134.797C24.487 134.619 24.7376 134.364 24.9062 134.031C25.0794 133.699 25.2025 133.3 25.2754 132.835ZM32.5557 134.735V130.928C32.5557 130.636 32.4964 130.383 32.3779 130.169C32.264 129.95 32.0908 129.782 31.8584 129.663C31.626 129.545 31.3389 129.485 30.9971 129.485C30.6781 129.485 30.3978 129.54 30.1562 129.649C29.9193 129.759 29.7324 129.902 29.5957 130.08C29.4635 130.258 29.3975 130.449 29.3975 130.654H28.1328C28.1328 130.39 28.2012 130.128 28.3379 129.868C28.4746 129.608 28.6706 129.374 28.9258 129.164C29.1855 128.95 29.4954 128.781 29.8555 128.658C30.2201 128.531 30.6257 128.467 31.0723 128.467C31.61 128.467 32.084 128.558 32.4941 128.74C32.9089 128.923 33.2324 129.198 33.4648 129.567C33.7018 129.932 33.8203 130.39 33.8203 130.941V134.387C33.8203 134.633 33.8408 134.895 33.8818 135.173C33.9274 135.451 33.9935 135.69 34.0801 135.891V136H32.7607C32.6969 135.854 32.6468 135.66 32.6104 135.419C32.5739 135.173 32.5557 134.945 32.5557 134.735ZM32.7744 131.516L32.7881 132.404H31.5098C31.1497 132.404 30.8285 132.434 30.5459 132.493C30.2633 132.548 30.0264 132.632 29.835 132.746C29.6436 132.86 29.4977 133.004 29.3975 133.177C29.2972 133.345 29.2471 133.544 29.2471 133.771C29.2471 134.004 29.2995 134.216 29.4043 134.407C29.5091 134.599 29.6663 134.751 29.876 134.865C30.0902 134.975 30.3522 135.029 30.6621 135.029C31.0495 135.029 31.3913 134.947 31.6875 134.783C31.9837 134.619 32.2184 134.419 32.3916 134.182C32.5693 133.945 32.665 133.715 32.6787 133.491L33.2188 134.1C33.1868 134.291 33.1003 134.503 32.959 134.735C32.8177 134.968 32.6286 135.191 32.3916 135.405C32.1592 135.615 31.8812 135.79 31.5576 135.932C31.2386 136.068 30.8786 136.137 30.4775 136.137C29.9762 136.137 29.5365 136.039 29.1582 135.843C28.7845 135.647 28.4928 135.385 28.2832 135.057C28.0781 134.724 27.9756 134.353 27.9756 133.942C27.9756 133.546 28.0531 133.197 28.208 132.896C28.363 132.591 28.5863 132.338 28.8779 132.138C29.1696 131.933 29.5205 131.778 29.9307 131.673C30.3408 131.568 30.7988 131.516 31.3047 131.516H32.7744ZM37.0674 130.073V136H35.7959V128.604H36.999L37.0674 130.073ZM36.8076 132.021L36.2197 132.001C36.2243 131.495 36.2904 131.028 36.418 130.6C36.5456 130.167 36.7347 129.791 36.9854 129.472C37.236 129.153 37.5482 128.907 37.9219 128.733C38.2956 128.556 38.7285 128.467 39.2207 128.467C39.5671 128.467 39.8861 128.517 40.1777 128.617C40.4694 128.713 40.7223 128.866 40.9365 129.075C41.1507 129.285 41.3171 129.554 41.4355 129.882C41.554 130.21 41.6133 130.606 41.6133 131.071V136H40.3486V131.133C40.3486 130.745 40.2826 130.436 40.1504 130.203C40.0228 129.971 39.8405 129.802 39.6035 129.697C39.3665 129.588 39.0885 129.533 38.7695 129.533C38.3958 129.533 38.0837 129.599 37.833 129.731C37.5824 129.864 37.3818 130.046 37.2314 130.278C37.0811 130.511 36.9717 130.777 36.9033 131.078C36.8395 131.374 36.8076 131.689 36.8076 132.021ZM41.5996 131.324L40.752 131.584C40.7565 131.178 40.8226 130.789 40.9502 130.415C41.0824 130.041 41.2715 129.709 41.5176 129.417C41.7682 129.125 42.0758 128.895 42.4404 128.727C42.805 128.553 43.222 128.467 43.6914 128.467C44.0879 128.467 44.4388 128.519 44.7441 128.624C45.054 128.729 45.3138 128.891 45.5234 129.109C45.7376 129.324 45.8994 129.599 46.0088 129.937C46.1182 130.274 46.1729 130.675 46.1729 131.14V136H44.9014V131.126C44.9014 130.711 44.8353 130.39 44.7031 130.162C44.5755 129.93 44.3932 129.768 44.1562 129.677C43.9238 129.581 43.6458 129.533 43.3223 129.533C43.0443 129.533 42.7982 129.581 42.584 129.677C42.3698 129.772 42.1898 129.905 42.0439 130.073C41.8981 130.237 41.7865 130.426 41.709 130.641C41.6361 130.855 41.5996 131.083 41.5996 131.324ZM51.1562 136.137C50.6413 136.137 50.1742 136.05 49.7549 135.877C49.3402 135.699 48.9824 135.451 48.6816 135.132C48.3854 134.813 48.1576 134.435 47.998 133.997C47.8385 133.56 47.7588 133.081 47.7588 132.562V132.274C47.7588 131.673 47.8477 131.137 48.0254 130.668C48.2031 130.194 48.4447 129.793 48.75 129.465C49.0553 129.137 49.4017 128.888 49.7891 128.72C50.1764 128.551 50.5775 128.467 50.9922 128.467C51.5208 128.467 51.9766 128.558 52.3594 128.74C52.7467 128.923 53.0635 129.178 53.3096 129.506C53.5557 129.829 53.738 130.212 53.8564 130.654C53.9749 131.092 54.0342 131.57 54.0342 132.09V132.657H48.5107V131.625H52.7695V131.529C52.7513 131.201 52.6829 130.882 52.5645 130.572C52.4505 130.262 52.2682 130.007 52.0176 129.807C51.7669 129.606 51.4251 129.506 50.9922 129.506C50.7051 129.506 50.4408 129.567 50.1992 129.69C49.9577 129.809 49.7503 129.987 49.5771 130.224C49.404 130.461 49.2695 130.75 49.1738 131.092C49.0781 131.434 49.0303 131.828 49.0303 132.274V132.562C49.0303 132.912 49.0781 133.243 49.1738 133.553C49.2741 133.858 49.4176 134.127 49.6045 134.359C49.7959 134.592 50.026 134.774 50.2949 134.906C50.5684 135.038 50.8783 135.104 51.2246 135.104C51.6712 135.104 52.0495 135.013 52.3594 134.831C52.6693 134.649 52.9404 134.405 53.1729 134.1L53.9385 134.708C53.779 134.95 53.5762 135.18 53.3301 135.398C53.084 135.617 52.7809 135.795 52.4209 135.932C52.0654 136.068 51.6439 136.137 51.1562 136.137ZM56.7754 129.766V136H55.5107V128.604H56.7412L56.7754 129.766ZM59.0859 128.562L59.0791 129.738C58.9743 129.715 58.874 129.702 58.7783 129.697C58.6872 129.688 58.5824 129.684 58.4639 129.684C58.1722 129.684 57.9147 129.729 57.6914 129.82C57.4681 129.911 57.279 130.039 57.124 130.203C56.9691 130.367 56.846 130.563 56.7549 130.791C56.6683 131.014 56.6113 131.26 56.584 131.529L56.2285 131.734C56.2285 131.288 56.2718 130.868 56.3584 130.477C56.4495 130.085 56.5885 129.738 56.7754 129.438C56.9622 129.132 57.1992 128.895 57.4863 128.727C57.778 128.553 58.1243 128.467 58.5254 128.467C58.6165 128.467 58.7214 128.478 58.8398 128.501C58.9583 128.519 59.0404 128.54 59.0859 128.562ZM64.3428 134.735V130.928C64.3428 130.636 64.2835 130.383 64.165 130.169C64.0511 129.95 63.8779 129.782 63.6455 129.663C63.4131 129.545 63.126 129.485 62.7842 129.485C62.4652 129.485 62.1849 129.54 61.9434 129.649C61.7064 129.759 61.5195 129.902 61.3828 130.08C61.2507 130.258 61.1846 130.449 61.1846 130.654H59.9199C59.9199 130.39 59.9883 130.128 60.125 129.868C60.2617 129.608 60.4577 129.374 60.7129 129.164C60.9727 128.95 61.2826 128.781 61.6426 128.658C62.0072 128.531 62.4128 128.467 62.8594 128.467C63.3971 128.467 63.8711 128.558 64.2812 128.74C64.696 128.923 65.0195 129.198 65.252 129.567C65.4889 129.932 65.6074 130.39 65.6074 130.941V134.387C65.6074 134.633 65.6279 134.895 65.6689 135.173C65.7145 135.451 65.7806 135.69 65.8672 135.891V136H64.5479C64.484 135.854 64.4339 135.66 64.3975 135.419C64.361 135.173 64.3428 134.945 64.3428 134.735ZM64.5615 131.516L64.5752 132.404H63.2969C62.9368 132.404 62.6156 132.434 62.333 132.493C62.0505 132.548 61.8135 132.632 61.6221 132.746C61.4307 132.86 61.2848 133.004 61.1846 133.177C61.0843 133.345 61.0342 133.544 61.0342 133.771C61.0342 134.004 61.0866 134.216 61.1914 134.407C61.2962 134.599 61.4535 134.751 61.6631 134.865C61.8773 134.975 62.1393 135.029 62.4492 135.029C62.8366 135.029 63.1784 134.947 63.4746 134.783C63.7708 134.619 64.0055 134.419 64.1787 134.182C64.3564 133.945 64.4521 133.715 64.4658 133.491L65.0059 134.1C64.974 134.291 64.8874 134.503 64.7461 134.735C64.6048 134.968 64.4157 135.191 64.1787 135.405C63.9463 135.615 63.6683 135.79 63.3447 135.932C63.0257 136.068 62.6657 136.137 62.2646 136.137C61.7633 136.137 61.3236 136.039 60.9453 135.843C60.5716 135.647 60.2799 135.385 60.0703 135.057C59.8652 134.724 59.7627 134.353 59.7627 133.942C59.7627 133.546 59.8402 133.197 59.9951 132.896C60.1501 132.591 60.3734 132.338 60.665 132.138C60.9567 131.933 61.3076 131.778 61.7178 131.673C62.1279 131.568 62.5859 131.516 63.0918 131.516H64.5615ZM71.9033 134.038C71.9033 133.856 71.8623 133.687 71.7803 133.532C71.7028 133.373 71.541 133.229 71.2949 133.102C71.0534 132.969 70.6888 132.855 70.2012 132.76C69.791 132.673 69.4196 132.571 69.0869 132.452C68.7588 132.334 68.4785 132.19 68.2461 132.021C68.0182 131.853 67.8428 131.655 67.7197 131.427C67.5967 131.199 67.5352 130.932 67.5352 130.627C67.5352 130.335 67.599 130.06 67.7266 129.8C67.8587 129.54 68.0433 129.31 68.2803 129.109C68.5218 128.909 68.8112 128.752 69.1484 128.638C69.4857 128.524 69.8617 128.467 70.2764 128.467C70.8688 128.467 71.3747 128.572 71.7939 128.781C72.2132 128.991 72.5345 129.271 72.7578 129.622C72.9811 129.968 73.0928 130.354 73.0928 130.777H71.8281C71.8281 130.572 71.7666 130.374 71.6436 130.183C71.5251 129.987 71.3496 129.825 71.1172 129.697C70.8893 129.57 70.609 129.506 70.2764 129.506C69.9255 129.506 69.6406 129.561 69.4219 129.67C69.2077 129.775 69.0505 129.909 68.9502 130.073C68.8545 130.237 68.8066 130.41 68.8066 130.593C68.8066 130.729 68.8294 130.853 68.875 130.962C68.9251 131.067 69.0117 131.165 69.1348 131.256C69.2578 131.342 69.431 131.424 69.6543 131.502C69.8776 131.579 70.1624 131.657 70.5088 131.734C71.1149 131.871 71.6139 132.035 72.0059 132.227C72.3978 132.418 72.6895 132.653 72.8809 132.931C73.0723 133.209 73.168 133.546 73.168 133.942C73.168 134.266 73.0996 134.562 72.9629 134.831C72.8307 135.1 72.637 135.332 72.3818 135.528C72.1312 135.72 71.8304 135.87 71.4795 135.979C71.1331 136.084 70.7435 136.137 70.3105 136.137C69.6589 136.137 69.1074 136.021 68.6562 135.788C68.2051 135.556 67.8633 135.255 67.6309 134.886C67.3984 134.517 67.2822 134.127 67.2822 133.717H68.5537C68.5719 134.063 68.6722 134.339 68.8545 134.544C69.0368 134.744 69.2601 134.888 69.5244 134.975C69.7887 135.057 70.0508 135.098 70.3105 135.098C70.6569 135.098 70.9463 135.052 71.1787 134.961C71.4157 134.87 71.5957 134.744 71.7188 134.585C71.8418 134.425 71.9033 134.243 71.9033 134.038ZM79.5596 130.073V136H78.2881V128.604H79.4912L79.5596 130.073ZM79.2998 132.021L78.7119 132.001C78.7165 131.495 78.7826 131.028 78.9102 130.6C79.0378 130.167 79.2269 129.791 79.4775 129.472C79.7282 129.153 80.0404 128.907 80.4141 128.733C80.7878 128.556 81.2207 128.467 81.7129 128.467C82.0592 128.467 82.3783 128.517 82.6699 128.617C82.9616 128.713 83.2145 128.866 83.4287 129.075C83.6429 129.285 83.8092 129.554 83.9277 129.882C84.0462 130.21 84.1055 130.606 84.1055 131.071V136H82.8408V131.133C82.8408 130.745 82.7747 130.436 82.6426 130.203C82.515 129.971 82.3327 129.802 82.0957 129.697C81.8587 129.588 81.5807 129.533 81.2617 129.533C80.888 129.533 80.5758 129.599 80.3252 129.731C80.0745 129.864 79.874 130.046 79.7236 130.278C79.5732 130.511 79.4639 130.777 79.3955 131.078C79.3317 131.374 79.2998 131.689 79.2998 132.021ZM84.0918 131.324L83.2441 131.584C83.2487 131.178 83.3148 130.789 83.4424 130.415C83.5745 130.041 83.7637 129.709 84.0098 129.417C84.2604 129.125 84.568 128.895 84.9326 128.727C85.2972 128.553 85.7142 128.467 86.1836 128.467C86.5801 128.467 86.931 128.519 87.2363 128.624C87.5462 128.729 87.806 128.891 88.0156 129.109C88.2298 129.324 88.3916 129.599 88.501 129.937C88.6104 130.274 88.665 130.675 88.665 131.14V136H87.3936V131.126C87.3936 130.711 87.3275 130.39 87.1953 130.162C87.0677 129.93 86.8854 129.768 86.6484 129.677C86.416 129.581 86.138 129.533 85.8145 129.533C85.5365 129.533 85.2904 129.581 85.0762 129.677C84.862 129.772 84.682 129.905 84.5361 130.073C84.3903 130.237 84.2786 130.426 84.2012 130.641C84.1283 130.855 84.0918 131.083 84.0918 131.324ZM94.9404 134.735V130.928C94.9404 130.636 94.8812 130.383 94.7627 130.169C94.6488 129.95 94.4756 129.782 94.2432 129.663C94.0107 129.545 93.7236 129.485 93.3818 129.485C93.0628 129.485 92.7826 129.54 92.541 129.649C92.304 129.759 92.1172 129.902 91.9805 130.08C91.8483 130.258 91.7822 130.449 91.7822 130.654H90.5176C90.5176 130.39 90.5859 130.128 90.7227 129.868C90.8594 129.608 91.0553 129.374 91.3105 129.164C91.5703 128.95 91.8802 128.781 92.2402 128.658C92.6048 128.531 93.0104 128.467 93.457 128.467C93.9948 128.467 94.4688 128.558 94.8789 128.74C95.2936 128.923 95.6172 129.198 95.8496 129.567C96.0866 129.932 96.2051 130.39 96.2051 130.941V134.387C96.2051 134.633 96.2256 134.895 96.2666 135.173C96.3122 135.451 96.3783 135.69 96.4648 135.891V136H95.1455C95.0817 135.854 95.0316 135.66 94.9951 135.419C94.9587 135.173 94.9404 134.945 94.9404 134.735ZM95.1592 131.516L95.1729 132.404H93.8945C93.5345 132.404 93.2132 132.434 92.9307 132.493C92.6481 132.548 92.4111 132.632 92.2197 132.746C92.0283 132.86 91.8825 133.004 91.7822 133.177C91.682 133.345 91.6318 133.544 91.6318 133.771C91.6318 134.004 91.6842 134.216 91.7891 134.407C91.8939 134.599 92.0511 134.751 92.2607 134.865C92.4749 134.975 92.737 135.029 93.0469 135.029C93.4342 135.029 93.776 134.947 94.0723 134.783C94.3685 134.619 94.6032 134.419 94.7764 134.182C94.9541 133.945 95.0498 133.715 95.0635 133.491L95.6035 134.1C95.5716 134.291 95.485 134.503 95.3438 134.735C95.2025 134.968 95.0133 135.191 94.7764 135.405C94.5439 135.615 94.266 135.79 93.9424 135.932C93.6234 136.068 93.2633 136.137 92.8623 136.137C92.361 136.137 91.9212 136.039 91.543 135.843C91.1693 135.647 90.8776 135.385 90.668 135.057C90.4629 134.724 90.3604 134.353 90.3604 133.942C90.3604 133.546 90.4378 133.197 90.5928 132.896C90.7477 132.591 90.971 132.338 91.2627 132.138C91.5544 131.933 91.9053 131.778 92.3154 131.673C92.7256 131.568 93.1836 131.516 93.6895 131.516H95.1592ZM99.459 130.183V136H98.1943V128.604H99.3906L99.459 130.183ZM99.1582 132.021L98.6318 132.001C98.6364 131.495 98.7116 131.028 98.8574 130.6C99.0033 130.167 99.2083 129.791 99.4727 129.472C99.737 129.153 100.051 128.907 100.416 128.733C100.785 128.556 101.193 128.467 101.64 128.467C102.004 128.467 102.332 128.517 102.624 128.617C102.916 128.713 103.164 128.868 103.369 129.082C103.579 129.296 103.738 129.574 103.848 129.916C103.957 130.253 104.012 130.666 104.012 131.153V136H102.74V131.14C102.74 130.752 102.683 130.442 102.569 130.21C102.455 129.973 102.289 129.802 102.07 129.697C101.852 129.588 101.583 129.533 101.264 129.533C100.949 129.533 100.662 129.599 100.402 129.731C100.147 129.864 99.9261 130.046 99.7393 130.278C99.557 130.511 99.4134 130.777 99.3086 131.078C99.2083 131.374 99.1582 131.689 99.1582 132.021ZM110.294 134.735V130.928C110.294 130.636 110.235 130.383 110.116 130.169C110.002 129.95 109.829 129.782 109.597 129.663C109.364 129.545 109.077 129.485 108.735 129.485C108.416 129.485 108.136 129.54 107.895 129.649C107.658 129.759 107.471 129.902 107.334 130.08C107.202 130.258 107.136 130.449 107.136 130.654H105.871C105.871 130.39 105.939 130.128 106.076 129.868C106.213 129.608 106.409 129.374 106.664 129.164C106.924 128.95 107.234 128.781 107.594 128.658C107.958 128.531 108.364 128.467 108.811 128.467C109.348 128.467 109.822 128.558 110.232 128.74C110.647 128.923 110.971 129.198 111.203 129.567C111.44 129.932 111.559 130.39 111.559 130.941V134.387C111.559 134.633 111.579 134.895 111.62 135.173C111.666 135.451 111.732 135.69 111.818 135.891V136H110.499C110.435 135.854 110.385 135.66 110.349 135.419C110.312 135.173 110.294 134.945 110.294 134.735ZM110.513 131.516L110.526 132.404H109.248C108.888 132.404 108.567 132.434 108.284 132.493C108.002 132.548 107.765 132.632 107.573 132.746C107.382 132.86 107.236 133.004 107.136 133.177C107.035 133.345 106.985 133.544 106.985 133.771C106.985 134.004 107.038 134.216 107.143 134.407C107.247 134.599 107.405 134.751 107.614 134.865C107.828 134.975 108.09 135.029 108.4 135.029C108.788 135.029 109.13 134.947 109.426 134.783C109.722 134.619 109.957 134.419 110.13 134.182C110.308 133.945 110.403 133.715 110.417 133.491L110.957 134.1C110.925 134.291 110.839 134.503 110.697 134.735C110.556 134.968 110.367 135.191 110.13 135.405C109.897 135.615 109.619 135.79 109.296 135.932C108.977 136.068 108.617 136.137 108.216 136.137C107.715 136.137 107.275 136.039 106.896 135.843C106.523 135.647 106.231 135.385 106.021 135.057C105.816 134.724 105.714 134.353 105.714 133.942C105.714 133.546 105.791 133.197 105.946 132.896C106.101 132.591 106.325 132.338 106.616 132.138C106.908 131.933 107.259 131.778 107.669 131.673C108.079 131.568 108.537 131.516 109.043 131.516H110.513ZM118.34 128.604H119.488V135.843C119.488 136.494 119.356 137.05 119.092 137.511C118.827 137.971 118.458 138.32 117.984 138.557C117.515 138.798 116.973 138.919 116.357 138.919C116.102 138.919 115.801 138.878 115.455 138.796C115.113 138.718 114.776 138.584 114.443 138.393C114.115 138.206 113.84 137.953 113.616 137.634L114.279 136.882C114.589 137.256 114.913 137.515 115.25 137.661C115.592 137.807 115.929 137.88 116.262 137.88C116.663 137.88 117.009 137.805 117.301 137.654C117.592 137.504 117.818 137.281 117.978 136.984C118.142 136.693 118.224 136.333 118.224 135.904V130.23L118.34 128.604ZM113.247 132.384V132.24C113.247 131.675 113.313 131.162 113.445 130.702C113.582 130.237 113.776 129.839 114.026 129.506C114.282 129.173 114.589 128.918 114.949 128.74C115.309 128.558 115.715 128.467 116.166 128.467C116.631 128.467 117.036 128.549 117.383 128.713C117.734 128.872 118.03 129.107 118.271 129.417C118.518 129.722 118.711 130.091 118.853 130.524C118.994 130.957 119.092 131.447 119.146 131.994V132.623C119.096 133.165 118.998 133.653 118.853 134.086C118.711 134.519 118.518 134.888 118.271 135.193C118.03 135.499 117.734 135.733 117.383 135.897C117.032 136.057 116.622 136.137 116.152 136.137C115.71 136.137 115.309 136.043 114.949 135.856C114.594 135.67 114.288 135.408 114.033 135.07C113.778 134.733 113.582 134.337 113.445 133.881C113.313 133.421 113.247 132.922 113.247 132.384ZM114.512 132.24V132.384C114.512 132.753 114.548 133.099 114.621 133.423C114.699 133.746 114.815 134.031 114.97 134.277C115.129 134.523 115.332 134.717 115.578 134.858C115.824 134.995 116.118 135.063 116.46 135.063C116.879 135.063 117.226 134.975 117.499 134.797C117.772 134.619 117.989 134.384 118.148 134.093C118.312 133.801 118.44 133.484 118.531 133.143V131.495C118.481 131.244 118.404 131.003 118.299 130.771C118.199 130.534 118.066 130.324 117.902 130.142C117.743 129.955 117.545 129.807 117.308 129.697C117.071 129.588 116.793 129.533 116.474 129.533C116.127 129.533 115.829 129.606 115.578 129.752C115.332 129.893 115.129 130.089 114.97 130.34C114.815 130.586 114.699 130.873 114.621 131.201C114.548 131.525 114.512 131.871 114.512 132.24ZM124.479 136.137C123.964 136.137 123.496 136.05 123.077 135.877C122.662 135.699 122.305 135.451 122.004 135.132C121.708 134.813 121.48 134.435 121.32 133.997C121.161 133.56 121.081 133.081 121.081 132.562V132.274C121.081 131.673 121.17 131.137 121.348 130.668C121.525 130.194 121.767 129.793 122.072 129.465C122.378 129.137 122.724 128.888 123.111 128.72C123.499 128.551 123.9 128.467 124.314 128.467C124.843 128.467 125.299 128.558 125.682 128.74C126.069 128.923 126.386 129.178 126.632 129.506C126.878 129.829 127.06 130.212 127.179 130.654C127.297 131.092 127.356 131.57 127.356 132.09V132.657H121.833V131.625H126.092V131.529C126.074 131.201 126.005 130.882 125.887 130.572C125.773 130.262 125.59 130.007 125.34 129.807C125.089 129.606 124.747 129.506 124.314 129.506C124.027 129.506 123.763 129.567 123.521 129.69C123.28 129.809 123.073 129.987 122.899 130.224C122.726 130.461 122.592 130.75 122.496 131.092C122.4 131.434 122.353 131.828 122.353 132.274V132.562C122.353 132.912 122.4 133.243 122.496 133.553C122.596 133.858 122.74 134.127 122.927 134.359C123.118 134.592 123.348 134.774 123.617 134.906C123.891 135.038 124.201 135.104 124.547 135.104C124.993 135.104 125.372 135.013 125.682 134.831C125.992 134.649 126.263 134.405 126.495 134.1L127.261 134.708C127.101 134.95 126.898 135.18 126.652 135.398C126.406 135.617 126.103 135.795 125.743 135.932C125.388 136.068 124.966 136.137 124.479 136.137ZM130.091 130.073V136H128.819V128.604H130.022L130.091 130.073ZM129.831 132.021L129.243 132.001C129.248 131.495 129.314 131.028 129.441 130.6C129.569 130.167 129.758 129.791 130.009 129.472C130.259 129.153 130.572 128.907 130.945 128.733C131.319 128.556 131.752 128.467 132.244 128.467C132.59 128.467 132.91 128.517 133.201 128.617C133.493 128.713 133.746 128.866 133.96 129.075C134.174 129.285 134.34 129.554 134.459 129.882C134.577 130.21 134.637 130.606 134.637 131.071V136H133.372V131.133C133.372 130.745 133.306 130.436 133.174 130.203C133.046 129.971 132.864 129.802 132.627 129.697C132.39 129.588 132.112 129.533 131.793 129.533C131.419 129.533 131.107 129.599 130.856 129.731C130.606 129.864 130.405 130.046 130.255 130.278C130.104 130.511 129.995 130.777 129.927 131.078C129.863 131.374 129.831 131.689 129.831 132.021ZM134.623 131.324L133.775 131.584C133.78 131.178 133.846 130.789 133.974 130.415C134.106 130.041 134.295 129.709 134.541 129.417C134.792 129.125 135.099 128.895 135.464 128.727C135.828 128.553 136.245 128.467 136.715 128.467C137.111 128.467 137.462 128.519 137.768 128.624C138.077 128.729 138.337 128.891 138.547 129.109C138.761 129.324 138.923 129.599 139.032 129.937C139.142 130.274 139.196 130.675 139.196 131.14V136H137.925V131.126C137.925 130.711 137.859 130.39 137.727 130.162C137.599 129.93 137.417 129.768 137.18 129.677C136.947 129.581 136.669 129.533 136.346 129.533C136.068 129.533 135.822 129.581 135.607 129.677C135.393 129.772 135.213 129.905 135.067 130.073C134.922 130.237 134.81 130.426 134.732 130.641C134.66 130.855 134.623 131.083 134.623 131.324ZM144.18 136.137C143.665 136.137 143.198 136.05 142.778 135.877C142.364 135.699 142.006 135.451 141.705 135.132C141.409 134.813 141.181 134.435 141.021 133.997C140.862 133.56 140.782 133.081 140.782 132.562V132.274C140.782 131.673 140.871 131.137 141.049 130.668C141.227 130.194 141.468 129.793 141.773 129.465C142.079 129.137 142.425 128.888 142.812 128.72C143.2 128.551 143.601 128.467 144.016 128.467C144.544 128.467 145 128.558 145.383 128.74C145.77 128.923 146.087 129.178 146.333 129.506C146.579 129.829 146.761 130.212 146.88 130.654C146.998 131.092 147.058 131.57 147.058 132.09V132.657H141.534V131.625H145.793V131.529C145.775 131.201 145.706 130.882 145.588 130.572C145.474 130.262 145.292 130.007 145.041 129.807C144.79 129.606 144.449 129.506 144.016 129.506C143.729 129.506 143.464 129.567 143.223 129.69C142.981 129.809 142.774 129.987 142.601 130.224C142.427 130.461 142.293 130.75 142.197 131.092C142.102 131.434 142.054 131.828 142.054 132.274V132.562C142.054 132.912 142.102 133.243 142.197 133.553C142.298 133.858 142.441 134.127 142.628 134.359C142.819 134.592 143.049 134.774 143.318 134.906C143.592 135.038 143.902 135.104 144.248 135.104C144.695 135.104 145.073 135.013 145.383 134.831C145.693 134.649 145.964 134.405 146.196 134.1L146.962 134.708C146.802 134.95 146.6 135.18 146.354 135.398C146.107 135.617 145.804 135.795 145.444 135.932C145.089 136.068 144.667 136.137 144.18 136.137ZM149.799 130.183V136H148.534V128.604H149.73L149.799 130.183ZM149.498 132.021L148.972 132.001C148.976 131.495 149.051 131.028 149.197 130.6C149.343 130.167 149.548 129.791 149.812 129.472C150.077 129.153 150.391 128.907 150.756 128.733C151.125 128.556 151.533 128.467 151.979 128.467C152.344 128.467 152.672 128.517 152.964 128.617C153.256 128.713 153.504 128.868 153.709 129.082C153.919 129.296 154.078 129.574 154.188 129.916C154.297 130.253 154.352 130.666 154.352 131.153V136H153.08V131.14C153.08 130.752 153.023 130.442 152.909 130.21C152.795 129.973 152.629 129.802 152.41 129.697C152.191 129.588 151.923 129.533 151.604 129.533C151.289 129.533 151.002 129.599 150.742 129.731C150.487 129.864 150.266 130.046 150.079 130.278C149.897 130.511 149.753 130.777 149.648 131.078C149.548 131.374 149.498 131.689 149.498 132.021ZM159.369 128.604V129.574H155.37V128.604H159.369ZM156.724 126.806H157.988V134.168C157.988 134.419 158.027 134.608 158.104 134.735C158.182 134.863 158.282 134.947 158.405 134.988C158.528 135.029 158.66 135.05 158.802 135.05C158.907 135.05 159.016 135.041 159.13 135.022C159.248 135 159.337 134.981 159.396 134.968L159.403 136C159.303 136.032 159.171 136.062 159.007 136.089C158.847 136.121 158.654 136.137 158.426 136.137C158.116 136.137 157.831 136.075 157.571 135.952C157.312 135.829 157.104 135.624 156.949 135.337C156.799 135.045 156.724 134.653 156.724 134.161V126.806Z" fill="white" visibility="hidden"/>
<text x="88.5" y="126" text-anchor="middle" fill="white" font-size="10" font-family="Arial, sans-serif">Прямое видео</text>
<defs>
<clipPath id="clip0_20_554">
<rect width="68.2427" height="71" fill="white" transform="translate(54 24)"/>
</clipPath>
</defs>
</svg>
