<svg width="177" height="177" viewBox="0 0 177 177" fill="none" xmlns="http://www.w3.org/2000/svg">
<rect width="177" height="177" fill="#222222"/>
<g clip-path="url(#clip0_20_555)">
<path d="M92.1916 65.149H64.7448C62.1008 65.149 59.9575 67.2923 59.9575 69.9362V85.2554C59.9575 87.8993 62.1008 90.0426 64.7448 90.0426H92.1916C94.8355 90.0426 96.9788 87.8993 96.9788 85.2554V69.9362C96.9788 67.2923 94.8355 65.149 92.1916 65.149Z" stroke="white" stroke-width="1.91489"/>
<path d="M74.9575 81.0138V74.2151C74.9575 73.7279 75.4816 73.4203 75.907 73.6578L82.2201 77.1831C82.664 77.431 82.6541 78.0731 82.2027 78.3071L75.8896 81.5805C75.4648 81.8009 74.9575 81.4925 74.9575 81.0138Z" stroke="white" stroke-width="1.91489"/>
<path d="M77.1913 50.7873C77.541 51.067 78.479 51.4754 80.0235 51.5774C81.9625 51.7055 83.8551 51.089 85.6798 50.4208L105.596 43.1277M77.1913 50.7873L79.5318 56.5319M77.1913 50.7873L75.4974 49.8298M79.5318 56.5319L79.7575 57.0859C80.2821 58.3736 81.7407 59.0048 83.0385 58.5056L115.617 45.9753C116.95 45.4628 117.603 43.9575 117.068 42.6343L115.33 38.3405M79.5318 56.5319L77.402 57.3564C76.7533 57.6075 76.023 57.293 75.7596 56.6492L73.8292 51.9303C73.5684 51.293 73.8602 50.5637 74.4885 50.282L75.4974 49.8298M75.4974 49.8298L71.0758 47.3306C70.5983 47.0607 70.661 46.3542 71.1786 46.1726L110.319 32.4443C111.605 31.9932 113.019 32.6321 113.531 33.8957L115.33 38.3405M115.33 38.3405C114.745 39.0852 113.574 39.9362 112.936 40.2553" stroke="white" stroke-width="1.91489" stroke-linecap="round"/>
<path d="M110.064 41.532L108.149 42.1703" stroke="white" stroke-width="1.91489" stroke-linecap="round"/>
<path d="M103.681 50.468C104 51.5047 104.164 53.4618 103.043 54.8072M103.043 54.8072C102.668 55.2567 102.15 55.6378 101.447 55.8935C100.742 56.15 100.103 56.1971 99.5321 56.1039M103.043 54.8072L105.286 60.6397C105.665 61.6258 106.612 62.2765 107.669 62.2765H113.894M96.3406 53.3404C96.739 54.2965 97.8297 55.8255 99.5321 56.1039M99.5321 56.1039L102.281 63.5117C102.931 65.2632 104.602 66.4255 106.47 66.4255H113.894" stroke="white" stroke-width="1.91489"/>
<path d="M116.582 58.4468H117.723V70.5744H116.447C115.844 70.5744 115.277 70.2906 114.915 69.8085C114.666 69.477 114.532 69.0739 114.532 68.6595V60.755C114.532 60.0945 114.794 59.461 115.261 58.9939C115.612 58.6436 116.087 58.4468 116.582 58.4468Z" stroke="white" stroke-width="1.91489"/>
</g>
<path d="M64.6768 134.927V136H59.7002V134.927H64.6768ZM59.96 126.047V136H58.6406V126.047H59.96ZM67.3701 128.604V136H66.0986V128.604H67.3701ZM66.0029 126.642C66.0029 126.437 66.0645 126.263 66.1875 126.122C66.3151 125.981 66.502 125.91 66.748 125.91C66.9896 125.91 67.1742 125.981 67.3018 126.122C67.4339 126.263 67.5 126.437 67.5 126.642C67.5 126.838 67.4339 127.006 67.3018 127.147C67.1742 127.284 66.9896 127.353 66.748 127.353C66.502 127.353 66.3151 127.284 66.1875 127.147C66.0645 127.006 66.0029 126.838 66.0029 126.642ZM71.6494 134.858L73.6729 128.604H74.9648L72.3057 136H71.458L71.6494 134.858ZM69.9609 128.604L72.0459 134.893L72.1895 136H71.3418L68.6621 128.604H69.9609ZM79.1553 136.137C78.6403 136.137 78.1732 136.05 77.7539 135.877C77.3392 135.699 76.9814 135.451 76.6807 135.132C76.3844 134.813 76.1566 134.435 75.9971 133.997C75.8376 133.56 75.7578 133.081 75.7578 132.562V132.274C75.7578 131.673 75.8467 131.137 76.0244 130.668C76.2021 130.194 76.4437 129.793 76.749 129.465C77.0544 129.137 77.4007 128.888 77.7881 128.72C78.1755 128.551 78.5765 128.467 78.9912 128.467C79.5199 128.467 79.9756 128.558 80.3584 128.74C80.7458 128.923 81.0625 129.178 81.3086 129.506C81.5547 129.829 81.737 130.212 81.8555 130.654C81.974 131.092 82.0332 131.57 82.0332 132.09V132.657H76.5098V131.625H80.7686V131.529C80.7503 131.201 80.682 130.882 80.5635 130.572C80.4495 130.262 80.2673 130.007 80.0166 129.807C79.766 129.606 79.4242 129.506 78.9912 129.506C78.7041 129.506 78.4398 129.567 78.1982 129.69C77.9567 129.809 77.7493 129.987 77.5762 130.224C77.403 130.461 77.2686 130.75 77.1729 131.092C77.0771 131.434 77.0293 131.828 77.0293 132.274V132.562C77.0293 132.912 77.0771 133.243 77.1729 133.553C77.2731 133.858 77.4167 134.127 77.6035 134.359C77.7949 134.592 78.0251 134.774 78.2939 134.906C78.5674 135.038 78.8773 135.104 79.2236 135.104C79.6702 135.104 80.0485 135.013 80.3584 134.831C80.6683 134.649 80.9395 134.405 81.1719 134.1L81.9375 134.708C81.778 134.95 81.5752 135.18 81.3291 135.398C81.083 135.617 80.7799 135.795 80.4199 135.932C80.0645 136.068 79.6429 136.137 79.1553 136.137ZM89.2314 134.858L91.2549 128.604H92.5469L89.8877 136H89.04L89.2314 134.858ZM87.543 128.604L89.6279 134.893L89.7715 136H88.9238L86.2441 128.604H87.543ZM95.1377 128.604V136H93.8662V128.604H95.1377ZM93.7705 126.642C93.7705 126.437 93.832 126.263 93.9551 126.122C94.0827 125.981 94.2695 125.91 94.5156 125.91C94.7572 125.91 94.9417 125.981 95.0693 126.122C95.2015 126.263 95.2676 126.437 95.2676 126.642C95.2676 126.838 95.2015 127.006 95.0693 127.147C94.9417 127.284 94.7572 127.353 94.5156 127.353C94.2695 127.353 94.0827 127.284 93.9551 127.147C93.832 127.006 93.7705 126.838 93.7705 126.642ZM101.83 134.564V125.5H103.102V136H101.939L101.83 134.564ZM96.8535 132.384V132.24C96.8535 131.675 96.9219 131.162 97.0586 130.702C97.1999 130.237 97.3981 129.839 97.6533 129.506C97.9131 129.173 98.2207 128.918 98.5762 128.74C98.9362 128.558 99.3372 128.467 99.7793 128.467C100.244 128.467 100.65 128.549 100.996 128.713C101.347 128.872 101.643 129.107 101.885 129.417C102.131 129.722 102.325 130.091 102.466 130.524C102.607 130.957 102.705 131.447 102.76 131.994V132.623C102.71 133.165 102.612 133.653 102.466 134.086C102.325 134.519 102.131 134.888 101.885 135.193C101.643 135.499 101.347 135.733 100.996 135.897C100.645 136.057 100.235 136.137 99.7656 136.137C99.3327 136.137 98.9362 136.043 98.5762 135.856C98.2207 135.67 97.9131 135.408 97.6533 135.07C97.3981 134.733 97.1999 134.337 97.0586 133.881C96.9219 133.421 96.8535 132.922 96.8535 132.384ZM98.125 132.24V132.384C98.125 132.753 98.1615 133.099 98.2344 133.423C98.3118 133.746 98.4303 134.031 98.5898 134.277C98.7493 134.523 98.9521 134.717 99.1982 134.858C99.4443 134.995 99.7383 135.063 100.08 135.063C100.499 135.063 100.843 134.975 101.112 134.797C101.386 134.619 101.604 134.384 101.769 134.093C101.933 133.801 102.06 133.484 102.151 133.143V131.495C102.097 131.244 102.017 131.003 101.912 130.771C101.812 130.534 101.68 130.324 101.516 130.142C101.356 129.955 101.158 129.807 100.921 129.697C100.688 129.588 100.413 129.533 100.094 129.533C99.7474 129.533 99.4489 129.606 99.1982 129.752C98.9521 129.893 98.7493 130.089 98.5898 130.34C98.4303 130.586 98.3118 130.873 98.2344 131.201C98.1615 131.525 98.125 131.871 98.125 132.24ZM108.14 136.137C107.625 136.137 107.158 136.05 106.738 135.877C106.324 135.699 105.966 135.451 105.665 135.132C105.369 134.813 105.141 134.435 104.981 133.997C104.822 133.56 104.742 133.081 104.742 132.562V132.274C104.742 131.673 104.831 131.137 105.009 130.668C105.187 130.194 105.428 129.793 105.733 129.465C106.039 129.137 106.385 128.888 106.772 128.72C107.16 128.551 107.561 128.467 107.976 128.467C108.504 128.467 108.96 128.558 109.343 128.74C109.73 128.923 110.047 129.178 110.293 129.506C110.539 129.829 110.721 130.212 110.84 130.654C110.958 131.092 111.018 131.57 111.018 132.09V132.657H105.494V131.625H109.753V131.529C109.735 131.201 109.666 130.882 109.548 130.572C109.434 130.262 109.252 130.007 109.001 129.807C108.75 129.606 108.409 129.506 107.976 129.506C107.688 129.506 107.424 129.567 107.183 129.69C106.941 129.809 106.734 129.987 106.561 130.224C106.387 130.461 106.253 130.75 106.157 131.092C106.062 131.434 106.014 131.828 106.014 132.274V132.562C106.014 132.912 106.062 133.243 106.157 133.553C106.257 133.858 106.401 134.127 106.588 134.359C106.779 134.592 107.009 134.774 107.278 134.906C107.552 135.038 107.862 135.104 108.208 135.104C108.655 135.104 109.033 135.013 109.343 134.831C109.653 134.649 109.924 134.405 110.156 134.1L110.922 134.708C110.762 134.95 110.56 135.18 110.313 135.398C110.067 135.617 109.764 135.795 109.404 135.932C109.049 136.068 108.627 136.137 108.14 136.137ZM112.159 132.384V132.227C112.159 131.693 112.237 131.199 112.392 130.743C112.547 130.283 112.77 129.884 113.062 129.547C113.353 129.205 113.706 128.941 114.121 128.754C114.536 128.562 115.001 128.467 115.516 128.467C116.035 128.467 116.502 128.562 116.917 128.754C117.336 128.941 117.692 129.205 117.983 129.547C118.28 129.884 118.505 130.283 118.66 130.743C118.815 131.199 118.893 131.693 118.893 132.227V132.384C118.893 132.917 118.815 133.411 118.66 133.867C118.505 134.323 118.28 134.722 117.983 135.063C117.692 135.401 117.339 135.665 116.924 135.856C116.514 136.043 116.049 136.137 115.529 136.137C115.01 136.137 114.543 136.043 114.128 135.856C113.713 135.665 113.358 135.401 113.062 135.063C112.77 134.722 112.547 134.323 112.392 133.867C112.237 133.411 112.159 132.917 112.159 132.384ZM113.424 132.227V132.384C113.424 132.753 113.467 133.102 113.554 133.43C113.64 133.753 113.77 134.04 113.943 134.291C114.121 134.542 114.342 134.74 114.606 134.886C114.871 135.027 115.178 135.098 115.529 135.098C115.876 135.098 116.179 135.027 116.438 134.886C116.703 134.74 116.922 134.542 117.095 134.291C117.268 134.04 117.398 133.753 117.484 133.43C117.576 133.102 117.621 132.753 117.621 132.384V132.227C117.621 131.862 117.576 131.518 117.484 131.194C117.398 130.866 117.266 130.577 117.088 130.326C116.915 130.071 116.696 129.87 116.432 129.725C116.172 129.579 115.867 129.506 115.516 129.506C115.169 129.506 114.864 129.579 114.6 129.725C114.34 129.87 114.121 130.071 113.943 130.326C113.77 130.577 113.64 130.866 113.554 131.194C113.467 131.518 113.424 131.862 113.424 132.227Z" fill="white" visibility="hidden"/>
<text x="88.5" y="126" text-anchor="middle" fill="white" font-size="10" font-family="Arial, sans-serif">Доступ к камере</text>
<defs>
<clipPath id="clip0_20_555">
<rect width="60" height="60" fill="white" transform="translate(59 31)"/>
</clipPath>
</defs>
</svg>
