<svg width="177" height="177" viewBox="0 0 177 177" fill="none" xmlns="http://www.w3.org/2000/svg">
<rect width="177" height="177" fill="#222222"/>
<g clip-path="url(#clip0_20_556)">
<path d="M80.5179 50.7858V53.2143C80.5179 54.2203 81.3333 55.0358 82.3393 55.0358H88.4107M88.4107 55.0358H94.4821C95.4881 55.0358 96.3036 54.2203 96.3036 53.2143V50.7858M88.4107 55.0358V50.7858M88.4107 55.0358V60.5001M88.4107 60.5001H100.554C101.56 60.5001 102.375 61.3155 102.375 62.3215V70.2143M88.4107 60.5001H76.5714C75.5655 60.5001 74.75 61.3155 74.75 62.3215V70.2143" stroke="white" stroke-width="1.21429"/>
<path d="M73.4942 65.6607H103.939C109.482 65.6607 114.026 61.2636 114.207 55.7237C114.395 50.0085 109.879 45.2402 104.162 45.1159L100.084 45.0272L96.9986 41.2297C96.5656 40.6968 96.0819 40.2071 95.5544 39.7674L94.9861 39.2939C91.1748 36.1178 85.6421 36.1059 81.8172 39.2656C81.1121 39.8481 80.4876 40.5218 79.9602 41.269L77.3064 45.0285L73.2609 45.1204C67.8108 45.2443 63.4069 49.6042 63.2283 55.0526C63.0381 60.8542 67.6895 65.6607 73.4942 65.6607Z" stroke="white" stroke-width="1.82143"/>
<path d="M88.4106 50.7858C89.5842 50.7858 90.5356 49.8344 90.5356 48.6608C90.5356 47.4872 89.5842 46.5358 88.4106 46.5358C87.237 46.5358 86.2856 47.4872 86.2856 48.6608C86.2856 49.8344 87.237 50.7858 88.4106 50.7858Z" stroke="white" stroke-width="1.21429"/>
<path d="M96.3035 50.7858C97.4771 50.7858 98.4285 49.8344 98.4285 48.6608C98.4285 47.4872 97.4771 46.5358 96.3035 46.5358C95.1299 46.5358 94.1785 47.4872 94.1785 48.6608C94.1785 49.8344 95.1299 50.7858 96.3035 50.7858Z" stroke="white" stroke-width="1.21429"/>
<path d="M80.5178 50.7858C81.6914 50.7858 82.6428 49.8344 82.6428 48.6608C82.6428 47.4872 81.6914 46.5358 80.5178 46.5358C79.3442 46.5358 78.3928 47.4872 78.3928 48.6608C78.3928 49.8344 79.3442 50.7858 80.5178 50.7858Z" stroke="white" stroke-width="1.21429"/>
<path d="M73.5356 78.9623V75.463C73.5356 75.0077 74.0181 74.7144 74.4223 74.924L77.9216 76.7385C78.3658 76.9688 78.3564 77.6074 77.9056 77.8245L74.4062 79.5093C74.0031 79.7034 73.5356 79.4097 73.5356 78.9623Z" stroke="white" stroke-width="1.21429"/>
<path d="M100.25 78.9623V75.463C100.25 75.0077 100.732 74.7144 101.137 74.924L104.636 76.7385C105.08 76.9688 105.071 77.6074 104.62 77.8245L101.121 79.5093C100.717 79.7034 100.25 79.4097 100.25 78.9623Z" stroke="white" stroke-width="1.21429"/>
<path d="M83.8572 69.9108H66.8572C65.6836 69.9108 64.7322 70.8622 64.7322 72.0358V82.9643C64.7322 84.1379 65.6836 85.0893 66.8572 85.0893H83.8572C85.0308 85.0893 85.9822 84.1379 85.9822 82.9643V72.0358C85.9822 70.8622 85.0308 69.9108 83.8572 69.9108Z" stroke="white" stroke-width="1.82143"/>
<path d="M110.572 69.9108H93.5715C92.3979 69.9108 91.4465 70.8622 91.4465 72.0358V82.9643C91.4465 84.1379 92.3979 85.0893 93.5715 85.0893H110.572C111.745 85.0893 112.697 84.1379 112.697 82.9643V72.0358C112.697 70.8622 111.745 69.9108 110.572 69.9108Z" stroke="white" stroke-width="1.82143"/>
</g>
<path d="M43.8008 125.484C43.8008 125.252 43.7643 125.047 43.6914 124.869C43.623 124.687 43.5 124.523 43.3223 124.377C43.1491 124.231 42.9076 124.092 42.5977 123.96C42.2923 123.828 41.9049 123.693 41.4355 123.557C40.9434 123.411 40.499 123.249 40.1025 123.071C39.7061 122.889 39.3665 122.682 39.084 122.449C38.8014 122.217 38.585 121.95 38.4346 121.649C38.2842 121.349 38.209 121.005 38.209 120.617C38.209 120.23 38.2887 119.872 38.4482 119.544C38.6077 119.216 38.8356 118.931 39.1318 118.689C39.4326 118.443 39.7904 118.252 40.2051 118.115C40.6198 117.979 41.0824 117.91 41.5928 117.91C42.3402 117.91 42.9736 118.054 43.4932 118.341C44.0173 118.623 44.416 118.995 44.6895 119.455C44.9629 119.911 45.0996 120.398 45.0996 120.918H43.7871C43.7871 120.544 43.7074 120.214 43.5479 119.927C43.3883 119.635 43.1468 119.407 42.8232 119.243C42.4997 119.075 42.0895 118.99 41.5928 118.99C41.1234 118.99 40.736 119.061 40.4307 119.202C40.1253 119.343 39.8975 119.535 39.7471 119.776C39.6012 120.018 39.5283 120.294 39.5283 120.604C39.5283 120.813 39.5716 121.005 39.6582 121.178C39.7493 121.346 39.8883 121.504 40.0752 121.649C40.2666 121.795 40.5081 121.93 40.7998 122.053C41.096 122.176 41.4492 122.294 41.8594 122.408C42.4245 122.568 42.9121 122.745 43.3223 122.941C43.7324 123.137 44.0697 123.358 44.334 123.604C44.6029 123.846 44.8011 124.122 44.9287 124.432C45.0609 124.737 45.127 125.083 45.127 125.471C45.127 125.876 45.0449 126.243 44.8809 126.571C44.7168 126.899 44.4821 127.18 44.1768 127.412C43.8714 127.645 43.5046 127.825 43.0762 127.952C42.6523 128.075 42.1784 128.137 41.6543 128.137C41.194 128.137 40.7406 128.073 40.2939 127.945C39.8519 127.818 39.4486 127.626 39.084 127.371C38.724 127.116 38.4346 126.801 38.2158 126.428C38.0016 126.049 37.8945 125.612 37.8945 125.115H39.207C39.207 125.457 39.2731 125.751 39.4053 125.997C39.5374 126.239 39.7174 126.439 39.9453 126.599C40.1777 126.758 40.4398 126.877 40.7314 126.954C41.0277 127.027 41.3353 127.063 41.6543 127.063C42.1146 127.063 42.5042 127 42.8232 126.872C43.1423 126.744 43.3838 126.562 43.5479 126.325C43.7165 126.088 43.8008 125.808 43.8008 125.484ZM50.9785 126.735V122.928C50.9785 122.636 50.9193 122.383 50.8008 122.169C50.6868 121.95 50.5137 121.782 50.2812 121.663C50.0488 121.545 49.7617 121.485 49.4199 121.485C49.1009 121.485 48.8206 121.54 48.5791 121.649C48.3421 121.759 48.1553 121.902 48.0186 122.08C47.8864 122.258 47.8203 122.449 47.8203 122.654H46.5557C46.5557 122.39 46.624 122.128 46.7607 121.868C46.8975 121.608 47.0934 121.374 47.3486 121.164C47.6084 120.95 47.9183 120.781 48.2783 120.658C48.6429 120.531 49.0485 120.467 49.4951 120.467C50.0329 120.467 50.5068 120.558 50.917 120.74C51.3317 120.923 51.6553 121.198 51.8877 121.567C52.1247 121.932 52.2432 122.39 52.2432 122.941V126.387C52.2432 126.633 52.2637 126.895 52.3047 127.173C52.3503 127.451 52.4163 127.69 52.5029 127.891V128H51.1836C51.1198 127.854 51.0697 127.66 51.0332 127.419C50.9967 127.173 50.9785 126.945 50.9785 126.735ZM51.1973 123.516L51.2109 124.404H49.9326C49.5726 124.404 49.2513 124.434 48.9688 124.493C48.6862 124.548 48.4492 124.632 48.2578 124.746C48.0664 124.86 47.9206 125.004 47.8203 125.177C47.7201 125.345 47.6699 125.544 47.6699 125.771C47.6699 126.004 47.7223 126.216 47.8271 126.407C47.932 126.599 48.0892 126.751 48.2988 126.865C48.513 126.975 48.7751 127.029 49.085 127.029C49.4723 127.029 49.8141 126.947 50.1104 126.783C50.4066 126.619 50.6413 126.419 50.8145 126.182C50.9922 125.945 51.0879 125.715 51.1016 125.491L51.6416 126.1C51.6097 126.291 51.5231 126.503 51.3818 126.735C51.2406 126.968 51.0514 127.191 50.8145 127.405C50.582 127.615 50.304 127.79 49.9805 127.932C49.6615 128.068 49.3014 128.137 48.9004 128.137C48.3991 128.137 47.9593 128.039 47.5811 127.843C47.2074 127.647 46.9157 127.385 46.7061 127.057C46.501 126.724 46.3984 126.353 46.3984 125.942C46.3984 125.546 46.4759 125.197 46.6309 124.896C46.7858 124.591 47.0091 124.338 47.3008 124.138C47.5924 123.933 47.9434 123.778 48.3535 123.673C48.7637 123.568 49.2217 123.516 49.7275 123.516H51.1973ZM56.3721 126.858L58.3955 120.604H59.6875L57.0283 128H56.1807L56.3721 126.858ZM54.6836 120.604L56.7686 126.893L56.9121 128H56.0645L53.3848 120.604H54.6836ZM62.2783 120.604V128H61.0068V120.604H62.2783ZM60.9111 118.642C60.9111 118.437 60.9727 118.263 61.0957 118.122C61.2233 117.981 61.4102 117.91 61.6562 117.91C61.8978 117.91 62.0824 117.981 62.21 118.122C62.3421 118.263 62.4082 118.437 62.4082 118.642C62.4082 118.838 62.3421 119.006 62.21 119.147C62.0824 119.284 61.8978 119.353 61.6562 119.353C61.4102 119.353 61.2233 119.284 61.0957 119.147C60.9727 119.006 60.9111 118.838 60.9111 118.642ZM65.5732 122.183V128H64.3086V120.604H65.5049L65.5732 122.183ZM65.2725 124.021L64.7461 124.001C64.7507 123.495 64.8258 123.028 64.9717 122.6C65.1175 122.167 65.3226 121.791 65.5869 121.472C65.8512 121.153 66.1657 120.907 66.5303 120.733C66.8994 120.556 67.3073 120.467 67.7539 120.467C68.1185 120.467 68.4466 120.517 68.7383 120.617C69.0299 120.713 69.2783 120.868 69.4834 121.082C69.693 121.296 69.8525 121.574 69.9619 121.916C70.0713 122.253 70.126 122.666 70.126 123.153V128H68.8545V123.14C68.8545 122.752 68.7975 122.442 68.6836 122.21C68.5697 121.973 68.4033 121.802 68.1846 121.697C67.9658 121.588 67.6969 121.533 67.3779 121.533C67.0635 121.533 66.7764 121.599 66.5166 121.731C66.2614 121.864 66.0404 122.046 65.8535 122.278C65.6712 122.511 65.5277 122.777 65.4229 123.078C65.3226 123.374 65.2725 123.689 65.2725 124.021ZM76.8389 120.604H77.9873V127.843C77.9873 128.494 77.8551 129.05 77.5908 129.511C77.3265 129.971 76.9574 130.32 76.4834 130.557C76.014 130.798 75.4717 130.919 74.8564 130.919C74.6012 130.919 74.3005 130.878 73.9541 130.796C73.6123 130.718 73.2751 130.584 72.9424 130.393C72.6143 130.206 72.3385 129.953 72.1152 129.634L72.7783 128.882C73.0882 129.256 73.4118 129.515 73.749 129.661C74.0908 129.807 74.4281 129.88 74.7607 129.88C75.1618 129.88 75.5081 129.805 75.7998 129.654C76.0915 129.504 76.3171 129.281 76.4766 128.984C76.6406 128.693 76.7227 128.333 76.7227 127.904V122.23L76.8389 120.604ZM71.7461 124.384V124.24C71.7461 123.675 71.8122 123.162 71.9443 122.702C72.0811 122.237 72.2747 121.839 72.5254 121.506C72.7806 121.173 73.0882 120.918 73.4482 120.74C73.8083 120.558 74.2139 120.467 74.665 120.467C75.1299 120.467 75.5355 120.549 75.8818 120.713C76.2327 120.872 76.529 121.107 76.7705 121.417C77.0166 121.722 77.2103 122.091 77.3516 122.524C77.4928 122.957 77.5908 123.447 77.6455 123.994V124.623C77.5954 125.165 77.4974 125.653 77.3516 126.086C77.2103 126.519 77.0166 126.888 76.7705 127.193C76.529 127.499 76.2327 127.733 75.8818 127.897C75.5309 128.057 75.1208 128.137 74.6514 128.137C74.2093 128.137 73.8083 128.043 73.4482 127.856C73.0928 127.67 72.7874 127.408 72.5322 127.07C72.277 126.733 72.0811 126.337 71.9443 125.881C71.8122 125.421 71.7461 124.922 71.7461 124.384ZM73.0107 124.24V124.384C73.0107 124.753 73.0472 125.099 73.1201 125.423C73.1976 125.746 73.3138 126.031 73.4688 126.277C73.6283 126.523 73.8311 126.717 74.0771 126.858C74.3232 126.995 74.6172 127.063 74.959 127.063C75.3783 127.063 75.7246 126.975 75.998 126.797C76.2715 126.619 76.488 126.384 76.6475 126.093C76.8115 125.801 76.9391 125.484 77.0303 125.143V123.495C76.9801 123.244 76.9027 123.003 76.7979 122.771C76.6976 122.534 76.5654 122.324 76.4014 122.142C76.2419 121.955 76.0436 121.807 75.8066 121.697C75.5697 121.588 75.2917 121.533 74.9727 121.533C74.6263 121.533 74.3278 121.606 74.0771 121.752C73.8311 121.893 73.6283 122.089 73.4688 122.34C73.3138 122.586 73.1976 122.873 73.1201 123.201C73.0472 123.525 73.0107 123.871 73.0107 124.24ZM85.6299 126.858L87.6533 120.604H88.9453L86.2861 128H85.4385L85.6299 126.858ZM83.9414 120.604L86.0264 126.893L86.1699 128H85.3223L82.6426 120.604H83.9414ZM91.5361 120.604V128H90.2646V120.604H91.5361ZM90.1689 118.642C90.1689 118.437 90.2305 118.263 90.3535 118.122C90.4811 117.981 90.668 117.91 90.9141 117.91C91.1556 117.91 91.3402 117.981 91.4678 118.122C91.5999 118.263 91.666 118.437 91.666 118.642C91.666 118.838 91.5999 119.006 91.4678 119.147C91.3402 119.284 91.1556 119.353 90.9141 119.353C90.668 119.353 90.4811 119.284 90.3535 119.147C90.2305 119.006 90.1689 118.838 90.1689 118.642ZM98.2285 126.564V117.5H99.5V128H98.3379L98.2285 126.564ZM93.252 124.384V124.24C93.252 123.675 93.3203 123.162 93.457 122.702C93.5983 122.237 93.7965 121.839 94.0518 121.506C94.3115 121.173 94.6191 120.918 94.9746 120.74C95.3346 120.558 95.7357 120.467 96.1777 120.467C96.6426 120.467 97.0482 120.549 97.3945 120.713C97.7454 120.872 98.0417 121.107 98.2832 121.417C98.5293 121.722 98.723 122.091 98.8643 122.524C99.0055 122.957 99.1035 123.447 99.1582 123.994V124.623C99.1081 125.165 99.0101 125.653 98.8643 126.086C98.723 126.519 98.5293 126.888 98.2832 127.193C98.0417 127.499 97.7454 127.733 97.3945 127.897C97.0436 128.057 96.6335 128.137 96.1641 128.137C95.7311 128.137 95.3346 128.043 94.9746 127.856C94.6191 127.67 94.3115 127.408 94.0518 127.07C93.7965 126.733 93.5983 126.337 93.457 125.881C93.3203 125.421 93.252 124.922 93.252 124.384ZM94.5234 124.24V124.384C94.5234 124.753 94.5599 125.099 94.6328 125.423C94.7103 125.746 94.8288 126.031 94.9883 126.277C95.1478 126.523 95.3506 126.717 95.5967 126.858C95.8428 126.995 96.1367 127.063 96.4785 127.063C96.8978 127.063 97.2419 126.975 97.5107 126.797C97.7842 126.619 98.0029 126.384 98.167 126.093C98.3311 125.801 98.4587 125.484 98.5498 125.143V123.495C98.4951 123.244 98.4154 123.003 98.3105 122.771C98.2103 122.534 98.0781 122.324 97.9141 122.142C97.7546 121.955 97.5563 121.807 97.3193 121.697C97.0869 121.588 96.8112 121.533 96.4922 121.533C96.1458 121.533 95.8473 121.606 95.5967 121.752C95.3506 121.893 95.1478 122.089 94.9883 122.34C94.8288 122.586 94.7103 122.873 94.6328 123.201C94.5599 123.525 94.5234 123.871 94.5234 124.24ZM104.538 128.137C104.023 128.137 103.556 128.05 103.137 127.877C102.722 127.699 102.364 127.451 102.063 127.132C101.767 126.813 101.539 126.435 101.38 125.997C101.22 125.56 101.141 125.081 101.141 124.562V124.274C101.141 123.673 101.229 123.137 101.407 122.668C101.585 122.194 101.826 121.793 102.132 121.465C102.437 121.137 102.784 120.888 103.171 120.72C103.558 120.551 103.959 120.467 104.374 120.467C104.903 120.467 105.358 120.558 105.741 120.74C106.129 120.923 106.445 121.178 106.691 121.506C106.938 121.829 107.12 122.212 107.238 122.654C107.357 123.092 107.416 123.57 107.416 124.09V124.657H101.893V123.625H106.151V123.529C106.133 123.201 106.065 122.882 105.946 122.572C105.832 122.262 105.65 122.007 105.399 121.807C105.149 121.606 104.807 121.506 104.374 121.506C104.087 121.506 103.823 121.567 103.581 121.69C103.34 121.809 103.132 121.987 102.959 122.224C102.786 122.461 102.651 122.75 102.556 123.092C102.46 123.434 102.412 123.828 102.412 124.274V124.562C102.412 124.912 102.46 125.243 102.556 125.553C102.656 125.858 102.799 126.127 102.986 126.359C103.178 126.592 103.408 126.774 103.677 126.906C103.95 127.038 104.26 127.104 104.606 127.104C105.053 127.104 105.431 127.013 105.741 126.831C106.051 126.649 106.322 126.405 106.555 126.1L107.32 126.708C107.161 126.95 106.958 127.18 106.712 127.398C106.466 127.617 106.163 127.795 105.803 127.932C105.447 128.068 105.026 128.137 104.538 128.137ZM108.558 124.384V124.227C108.558 123.693 108.635 123.199 108.79 122.743C108.945 122.283 109.168 121.884 109.46 121.547C109.752 121.205 110.105 120.941 110.52 120.754C110.934 120.562 111.399 120.467 111.914 120.467C112.434 120.467 112.901 120.562 113.315 120.754C113.735 120.941 114.09 121.205 114.382 121.547C114.678 121.884 114.904 122.283 115.059 122.743C115.214 123.199 115.291 123.693 115.291 124.227V124.384C115.291 124.917 115.214 125.411 115.059 125.867C114.904 126.323 114.678 126.722 114.382 127.063C114.09 127.401 113.737 127.665 113.322 127.856C112.912 128.043 112.447 128.137 111.928 128.137C111.408 128.137 110.941 128.043 110.526 127.856C110.112 127.665 109.756 127.401 109.46 127.063C109.168 126.722 108.945 126.323 108.79 125.867C108.635 125.411 108.558 124.917 108.558 124.384ZM109.822 124.227V124.384C109.822 124.753 109.866 125.102 109.952 125.43C110.039 125.753 110.169 126.04 110.342 126.291C110.52 126.542 110.741 126.74 111.005 126.886C111.269 127.027 111.577 127.098 111.928 127.098C112.274 127.098 112.577 127.027 112.837 126.886C113.101 126.74 113.32 126.542 113.493 126.291C113.666 126.04 113.796 125.753 113.883 125.43C113.974 125.102 114.02 124.753 114.02 124.384V124.227C114.02 123.862 113.974 123.518 113.883 123.194C113.796 122.866 113.664 122.577 113.486 122.326C113.313 122.071 113.094 121.87 112.83 121.725C112.57 121.579 112.265 121.506 111.914 121.506C111.568 121.506 111.262 121.579 110.998 121.725C110.738 121.87 110.52 122.071 110.342 122.326C110.169 122.577 110.039 122.866 109.952 123.194C109.866 123.518 109.822 123.862 109.822 124.227ZM122.599 126.858L124.622 120.604H125.914L123.255 128H122.407L122.599 126.858ZM120.91 120.604L122.995 126.893L123.139 128H122.291L119.611 120.604H120.91ZM128.505 120.604V128H127.233V120.604H128.505ZM127.138 118.642C127.138 118.437 127.199 118.263 127.322 118.122C127.45 117.981 127.637 117.91 127.883 117.91C128.124 117.91 128.309 117.981 128.437 118.122C128.569 118.263 128.635 118.437 128.635 118.642C128.635 118.838 128.569 119.006 128.437 119.147C128.309 119.284 128.124 119.353 127.883 119.353C127.637 119.353 127.45 119.284 127.322 119.147C127.199 119.006 127.138 118.838 127.138 118.642ZM134.896 126.735V122.928C134.896 122.636 134.837 122.383 134.719 122.169C134.605 121.95 134.432 121.782 134.199 121.663C133.967 121.545 133.68 121.485 133.338 121.485C133.019 121.485 132.739 121.54 132.497 121.649C132.26 121.759 132.073 121.902 131.937 122.08C131.804 122.258 131.738 122.449 131.738 122.654H130.474C130.474 122.39 130.542 122.128 130.679 121.868C130.815 121.608 131.011 121.374 131.267 121.164C131.526 120.95 131.836 120.781 132.196 120.658C132.561 120.531 132.966 120.467 133.413 120.467C133.951 120.467 134.425 120.558 134.835 120.74C135.25 120.923 135.573 121.198 135.806 121.567C136.043 121.932 136.161 122.39 136.161 122.941V126.387C136.161 126.633 136.182 126.895 136.223 127.173C136.268 127.451 136.334 127.69 136.421 127.891V128H135.102C135.038 127.854 134.988 127.66 134.951 127.419C134.915 127.173 134.896 126.945 134.896 126.735ZM135.115 123.516L135.129 124.404H133.851C133.491 124.404 133.169 124.434 132.887 124.493C132.604 124.548 132.367 124.632 132.176 124.746C131.984 124.86 131.839 125.004 131.738 125.177C131.638 125.345 131.588 125.544 131.588 125.771C131.588 126.004 131.64 126.216 131.745 126.407C131.85 126.599 132.007 126.751 132.217 126.865C132.431 126.975 132.693 127.029 133.003 127.029C133.39 127.029 133.732 126.947 134.028 126.783C134.325 126.619 134.559 126.419 134.732 126.182C134.91 125.945 135.006 125.715 135.02 125.491L135.56 126.1C135.528 126.291 135.441 126.503 135.3 126.735C135.159 126.968 134.969 127.191 134.732 127.405C134.5 127.615 134.222 127.79 133.898 127.932C133.579 128.068 133.219 128.137 132.818 128.137C132.317 128.137 131.877 128.039 131.499 127.843C131.125 127.647 130.834 127.385 130.624 127.057C130.419 126.724 130.316 126.353 130.316 125.942C130.316 125.546 130.394 125.197 130.549 124.896C130.704 124.591 130.927 124.338 131.219 124.138C131.51 123.933 131.861 123.778 132.271 123.673C132.682 123.568 133.14 123.516 133.646 123.516H135.115ZM59.1816 141.038C59.1816 140.856 59.1406 140.687 59.0586 140.532C58.9811 140.373 58.8193 140.229 58.5732 140.102C58.3317 139.969 57.9671 139.855 57.4795 139.76C57.0693 139.673 56.6979 139.571 56.3652 139.452C56.0371 139.334 55.7568 139.19 55.5244 139.021C55.2965 138.853 55.1211 138.655 54.998 138.427C54.875 138.199 54.8135 137.932 54.8135 137.627C54.8135 137.335 54.8773 137.06 55.0049 136.8C55.137 136.54 55.3216 136.31 55.5586 136.109C55.8001 135.909 56.0895 135.752 56.4268 135.638C56.764 135.524 57.14 135.467 57.5547 135.467C58.1471 135.467 58.653 135.572 59.0723 135.781C59.4915 135.991 59.8128 136.271 60.0361 136.622C60.2594 136.968 60.3711 137.354 60.3711 137.777H59.1064C59.1064 137.572 59.0449 137.374 58.9219 137.183C58.8034 136.987 58.6279 136.825 58.3955 136.697C58.1676 136.57 57.8874 136.506 57.5547 136.506C57.2038 136.506 56.9189 136.561 56.7002 136.67C56.486 136.775 56.3288 136.909 56.2285 137.073C56.1328 137.237 56.085 137.41 56.085 137.593C56.085 137.729 56.1077 137.853 56.1533 137.962C56.2035 138.067 56.29 138.165 56.4131 138.256C56.5361 138.342 56.7093 138.424 56.9326 138.502C57.1559 138.579 57.4408 138.657 57.7871 138.734C58.3932 138.871 58.8923 139.035 59.2842 139.227C59.6761 139.418 59.9678 139.653 60.1592 139.931C60.3506 140.209 60.4463 140.546 60.4463 140.942C60.4463 141.266 60.3779 141.562 60.2412 141.831C60.109 142.1 59.9154 142.332 59.6602 142.528C59.4095 142.72 59.1087 142.87 58.7578 142.979C58.4115 143.084 58.0218 143.137 57.5889 143.137C56.9372 143.137 56.3857 143.021 55.9346 142.788C55.4834 142.556 55.1416 142.255 54.9092 141.886C54.6768 141.517 54.5605 141.127 54.5605 140.717H55.832C55.8503 141.063 55.9505 141.339 56.1328 141.544C56.3151 141.744 56.5384 141.888 56.8027 141.975C57.0671 142.057 57.3291 142.098 57.5889 142.098C57.9352 142.098 58.2246 142.052 58.457 141.961C58.694 141.87 58.874 141.744 58.9971 141.585C59.1201 141.425 59.1816 141.243 59.1816 141.038ZM63.8164 137.401H64.7188C65.1608 137.401 65.5254 137.328 65.8125 137.183C66.1042 137.032 66.3206 136.829 66.4619 136.574C66.6077 136.314 66.6807 136.023 66.6807 135.699C66.6807 135.316 66.6169 134.995 66.4893 134.735C66.3617 134.476 66.1702 134.28 65.915 134.147C65.6598 134.015 65.3363 133.949 64.9443 133.949C64.5889 133.949 64.2744 134.02 64.001 134.161C63.7321 134.298 63.5202 134.494 63.3652 134.749C63.2148 135.004 63.1396 135.305 63.1396 135.651H61.875C61.875 135.146 62.0026 134.685 62.2578 134.271C62.513 133.856 62.8708 133.525 63.3311 133.279C63.7959 133.033 64.3337 132.91 64.9443 132.91C65.5459 132.91 66.0723 133.017 66.5234 133.231C66.9746 133.441 67.3255 133.756 67.5762 134.175C67.8268 134.59 67.9521 135.107 67.9521 135.727C67.9521 135.977 67.8929 136.246 67.7744 136.533C67.6605 136.816 67.4805 137.08 67.2344 137.326C66.9928 137.572 66.6784 137.775 66.291 137.935C65.9036 138.09 65.4388 138.167 64.8965 138.167H63.8164V137.401ZM63.8164 138.44V137.682H64.8965C65.5299 137.682 66.054 137.757 66.4688 137.907C66.8835 138.058 67.2093 138.258 67.4463 138.509C67.6878 138.759 67.8564 139.035 67.9521 139.336C68.0524 139.632 68.1025 139.928 68.1025 140.225C68.1025 140.689 68.0228 141.102 67.8633 141.462C67.7083 141.822 67.4873 142.127 67.2002 142.378C66.9176 142.629 66.585 142.818 66.2021 142.945C65.8193 143.073 65.4023 143.137 64.9512 143.137C64.5182 143.137 64.1104 143.075 63.7275 142.952C63.3493 142.829 63.0143 142.651 62.7227 142.419C62.431 142.182 62.2031 141.893 62.0391 141.551C61.875 141.204 61.793 140.81 61.793 140.368H63.0576C63.0576 140.715 63.1328 141.018 63.2832 141.277C63.4382 141.537 63.6569 141.74 63.9395 141.886C64.2266 142.027 64.5638 142.098 64.9512 142.098C65.3385 142.098 65.6712 142.032 65.9492 141.899C66.2318 141.763 66.4482 141.558 66.5986 141.284C66.7536 141.011 66.8311 140.667 66.8311 140.252C66.8311 139.837 66.7445 139.498 66.5713 139.233C66.3981 138.965 66.152 138.766 65.833 138.639C65.5186 138.507 65.1471 138.44 64.7188 138.44H63.8164ZM74.7197 137.025V145.844H73.4482V135.604H74.6104L74.7197 137.025ZM79.7031 139.24V139.384C79.7031 139.922 79.6393 140.421 79.5117 140.881C79.3841 141.337 79.1973 141.733 78.9512 142.07C78.7096 142.408 78.4111 142.67 78.0557 142.856C77.7002 143.043 77.2923 143.137 76.832 143.137C76.3626 143.137 75.9479 143.059 75.5879 142.904C75.2279 142.749 74.9225 142.524 74.6719 142.228C74.4212 141.931 74.2207 141.576 74.0703 141.161C73.9245 140.746 73.8242 140.279 73.7695 139.76V138.994C73.8242 138.447 73.9268 137.957 74.0771 137.524C74.2275 137.091 74.4258 136.722 74.6719 136.417C74.9225 136.107 75.2256 135.872 75.5811 135.713C75.9365 135.549 76.3467 135.467 76.8115 135.467C77.2764 135.467 77.6888 135.558 78.0488 135.74C78.4089 135.918 78.7119 136.173 78.958 136.506C79.2041 136.839 79.3887 137.237 79.5117 137.702C79.6393 138.162 79.7031 138.675 79.7031 139.24ZM78.4316 139.384V139.24C78.4316 138.871 78.3929 138.525 78.3154 138.201C78.238 137.873 78.1172 137.586 77.9531 137.34C77.7936 137.089 77.5885 136.893 77.3379 136.752C77.0872 136.606 76.7887 136.533 76.4424 136.533C76.1234 136.533 75.8454 136.588 75.6084 136.697C75.376 136.807 75.1777 136.955 75.0137 137.142C74.8496 137.324 74.7152 137.534 74.6104 137.771C74.5101 138.003 74.4349 138.244 74.3848 138.495V140.266C74.4759 140.585 74.6035 140.885 74.7676 141.168C74.9316 141.446 75.1504 141.672 75.4238 141.845C75.6973 142.013 76.0413 142.098 76.4561 142.098C76.7979 142.098 77.0918 142.027 77.3379 141.886C77.5885 141.74 77.7936 141.542 77.9531 141.291C78.1172 141.04 78.238 140.753 78.3154 140.43C78.3929 140.102 78.4316 139.753 78.4316 139.384ZM82.5811 136.766V143H81.3164V135.604H82.5469L82.5811 136.766ZM84.8916 135.562L84.8848 136.738C84.7799 136.715 84.6797 136.702 84.584 136.697C84.4928 136.688 84.388 136.684 84.2695 136.684C83.9779 136.684 83.7204 136.729 83.4971 136.82C83.2738 136.911 83.0846 137.039 82.9297 137.203C82.7747 137.367 82.6517 137.563 82.5605 137.791C82.474 138.014 82.417 138.26 82.3896 138.529L82.0342 138.734C82.0342 138.288 82.0775 137.868 82.1641 137.477C82.2552 137.085 82.3942 136.738 82.5811 136.438C82.7679 136.132 83.0049 135.895 83.292 135.727C83.5837 135.553 83.93 135.467 84.3311 135.467C84.4222 135.467 84.527 135.478 84.6455 135.501C84.764 135.519 84.846 135.54 84.8916 135.562ZM85.5889 139.384V139.227C85.5889 138.693 85.6663 138.199 85.8213 137.743C85.9762 137.283 86.1995 136.884 86.4912 136.547C86.7829 136.205 87.1361 135.941 87.5508 135.754C87.9655 135.562 88.4303 135.467 88.9453 135.467C89.4648 135.467 89.932 135.562 90.3467 135.754C90.766 135.941 91.1214 136.205 91.4131 136.547C91.7093 136.884 91.9349 137.283 92.0898 137.743C92.2448 138.199 92.3223 138.693 92.3223 139.227V139.384C92.3223 139.917 92.2448 140.411 92.0898 140.867C91.9349 141.323 91.7093 141.722 91.4131 142.063C91.1214 142.401 90.7682 142.665 90.3535 142.856C89.9434 143.043 89.4785 143.137 88.959 143.137C88.4395 143.137 87.9723 143.043 87.5576 142.856C87.1429 142.665 86.7874 142.401 86.4912 142.063C86.1995 141.722 85.9762 141.323 85.8213 140.867C85.6663 140.411 85.5889 139.917 85.5889 139.384ZM86.8535 139.227V139.384C86.8535 139.753 86.8968 140.102 86.9834 140.43C87.07 140.753 87.1999 141.04 87.373 141.291C87.5508 141.542 87.7718 141.74 88.0361 141.886C88.3005 142.027 88.6081 142.098 88.959 142.098C89.3053 142.098 89.6084 142.027 89.8682 141.886C90.1325 141.74 90.3512 141.542 90.5244 141.291C90.6976 141.04 90.8275 140.753 90.9141 140.43C91.0052 140.102 91.0508 139.753 91.0508 139.384V139.227C91.0508 138.862 91.0052 138.518 90.9141 138.194C90.8275 137.866 90.6953 137.577 90.5176 137.326C90.3444 137.071 90.1257 136.87 89.8613 136.725C89.6016 136.579 89.2962 136.506 88.9453 136.506C88.599 136.506 88.2936 136.579 88.0293 136.725C87.7695 136.87 87.5508 137.071 87.373 137.326C87.1999 137.577 87.07 137.866 86.9834 138.194C86.8968 138.518 86.8535 138.862 86.8535 139.227ZM97.0049 135.604V136.574H93.0059V135.604H97.0049ZM94.3594 133.806H95.624V141.168C95.624 141.419 95.6628 141.608 95.7402 141.735C95.8177 141.863 95.918 141.947 96.041 141.988C96.1641 142.029 96.2962 142.05 96.4375 142.05C96.5423 142.05 96.6517 142.041 96.7656 142.022C96.8841 142 96.973 141.981 97.0322 141.968L97.0391 143C96.9388 143.032 96.8066 143.062 96.6426 143.089C96.4831 143.121 96.2894 143.137 96.0615 143.137C95.7516 143.137 95.4668 143.075 95.207 142.952C94.9473 142.829 94.7399 142.624 94.585 142.337C94.4346 142.045 94.3594 141.653 94.3594 141.161V133.806ZM98.0166 139.384V139.227C98.0166 138.693 98.0941 138.199 98.249 137.743C98.404 137.283 98.6273 136.884 98.9189 136.547C99.2106 136.205 99.5638 135.941 99.9785 135.754C100.393 135.562 100.858 135.467 101.373 135.467C101.893 135.467 102.36 135.562 102.774 135.754C103.194 135.941 103.549 136.205 103.841 136.547C104.137 136.884 104.363 137.283 104.518 137.743C104.673 138.199 104.75 138.693 104.75 139.227V139.384C104.75 139.917 104.673 140.411 104.518 140.867C104.363 141.323 104.137 141.722 103.841 142.063C103.549 142.401 103.196 142.665 102.781 142.856C102.371 143.043 101.906 143.137 101.387 143.137C100.867 143.137 100.4 143.043 99.9854 142.856C99.5706 142.665 99.2152 142.401 98.9189 142.063C98.6273 141.722 98.404 141.323 98.249 140.867C98.0941 140.411 98.0166 139.917 98.0166 139.384ZM99.2812 139.227V139.384C99.2812 139.753 99.3245 140.102 99.4111 140.43C99.4977 140.753 99.6276 141.04 99.8008 141.291C99.9785 141.542 100.2 141.74 100.464 141.886C100.728 142.027 101.036 142.098 101.387 142.098C101.733 142.098 102.036 142.027 102.296 141.886C102.56 141.74 102.779 141.542 102.952 141.291C103.125 141.04 103.255 140.753 103.342 140.43C103.433 140.102 103.479 139.753 103.479 139.384V139.227C103.479 138.862 103.433 138.518 103.342 138.194C103.255 137.866 103.123 137.577 102.945 137.326C102.772 137.071 102.553 136.87 102.289 136.725C102.029 136.579 101.724 136.506 101.373 136.506C101.027 136.506 100.721 136.579 100.457 136.725C100.197 136.87 99.9785 137.071 99.8008 137.326C99.6276 137.577 99.4977 137.866 99.4111 138.194C99.3245 138.518 99.2812 138.862 99.2812 139.227ZM109.296 142.098C109.597 142.098 109.875 142.036 110.13 141.913C110.385 141.79 110.595 141.621 110.759 141.407C110.923 141.188 111.016 140.94 111.039 140.662H112.242C112.219 141.1 112.071 141.507 111.798 141.886C111.529 142.259 111.176 142.562 110.738 142.795C110.301 143.023 109.82 143.137 109.296 143.137C108.74 143.137 108.255 143.039 107.84 142.843C107.43 142.647 107.088 142.378 106.814 142.036C106.546 141.694 106.343 141.302 106.206 140.86C106.074 140.414 106.008 139.942 106.008 139.445V139.158C106.008 138.661 106.074 138.192 106.206 137.75C106.343 137.303 106.546 136.909 106.814 136.567C107.088 136.226 107.43 135.957 107.84 135.761C108.255 135.565 108.74 135.467 109.296 135.467C109.875 135.467 110.381 135.585 110.813 135.822C111.246 136.055 111.586 136.374 111.832 136.779C112.083 137.18 112.219 137.636 112.242 138.146H111.039C111.016 137.841 110.93 137.565 110.779 137.319C110.633 137.073 110.433 136.877 110.178 136.731C109.927 136.581 109.633 136.506 109.296 136.506C108.909 136.506 108.583 136.583 108.318 136.738C108.059 136.889 107.851 137.094 107.696 137.354C107.546 137.609 107.437 137.894 107.368 138.208C107.304 138.518 107.272 138.835 107.272 139.158V139.445C107.272 139.769 107.304 140.088 107.368 140.402C107.432 140.717 107.539 141.002 107.689 141.257C107.844 141.512 108.052 141.717 108.312 141.872C108.576 142.022 108.904 142.098 109.296 142.098ZM113.329 139.384V139.227C113.329 138.693 113.407 138.199 113.562 137.743C113.716 137.283 113.94 136.884 114.231 136.547C114.523 136.205 114.876 135.941 115.291 135.754C115.706 135.562 116.171 135.467 116.686 135.467C117.205 135.467 117.672 135.562 118.087 135.754C118.506 135.941 118.862 136.205 119.153 136.547C119.45 136.884 119.675 137.283 119.83 137.743C119.985 138.199 120.062 138.693 120.062 139.227V139.384C120.062 139.917 119.985 140.411 119.83 140.867C119.675 141.323 119.45 141.722 119.153 142.063C118.862 142.401 118.508 142.665 118.094 142.856C117.684 143.043 117.219 143.137 116.699 143.137C116.18 143.137 115.713 143.043 115.298 142.856C114.883 142.665 114.528 142.401 114.231 142.063C113.94 141.722 113.716 141.323 113.562 140.867C113.407 140.411 113.329 139.917 113.329 139.384ZM114.594 139.227V139.384C114.594 139.753 114.637 140.102 114.724 140.43C114.81 140.753 114.94 141.04 115.113 141.291C115.291 141.542 115.512 141.74 115.776 141.886C116.041 142.027 116.348 142.098 116.699 142.098C117.046 142.098 117.349 142.027 117.608 141.886C117.873 141.74 118.091 141.542 118.265 141.291C118.438 141.04 118.568 140.753 118.654 140.43C118.745 140.102 118.791 139.753 118.791 139.384V139.227C118.791 138.862 118.745 138.518 118.654 138.194C118.568 137.866 118.436 137.577 118.258 137.326C118.085 137.071 117.866 136.87 117.602 136.725C117.342 136.579 117.036 136.506 116.686 136.506C116.339 136.506 116.034 136.579 115.77 136.725C115.51 136.87 115.291 137.071 115.113 137.326C114.94 137.577 114.81 137.866 114.724 138.194C114.637 138.518 114.594 138.862 114.594 139.227ZM123.022 132.5V143H121.751V132.5H123.022Z" fill="white" visibility="hidden"/>
<text x="88.5" y="126" text-anchor="middle" fill="white" font-size="10" font-family="Arial, sans-serif">Сохранение по протоколу S3</text>
<defs>
<clipPath id="clip0_20_556">
<rect width="53.4286" height="51" fill="white" transform="translate(62 35)"/>
</clipPath>
</defs>
</svg>
