<svg width="177" height="177" viewBox="0 0 177 177" fill="none" xmlns="http://www.w3.org/2000/svg">
<rect width="177" height="177" fill="#222222"/>
<g clip-path="url(#clip0_20_544)">
<path d="M115.957 35.4623H61.1183C58.2915 35.4623 56 37.7538 56 40.5806V79.3332C56 82.16 58.2915 84.4515 61.1183 84.4515H115.957C118.784 84.4515 121.075 82.16 121.075 79.3332V40.5806C121.075 37.7538 118.784 35.4623 115.957 35.4623Z" stroke="white" stroke-width="2.92473"/>
<path d="M56.4622 47.1613H121.537" stroke="white" stroke-width="2.92473" stroke-linecap="round"/>
<path d="M62.3117 43.5053C63.1194 43.5053 63.7741 42.8506 63.7741 42.0429C63.7741 41.2353 63.1194 40.5806 62.3117 40.5806C61.5041 40.5806 60.8494 41.2353 60.8494 42.0429C60.8494 42.8506 61.5041 43.5053 62.3117 43.5053Z" fill="white"/>
<path d="M66.6987 43.5053C67.5063 43.5053 68.1611 42.8506 68.1611 42.0429C68.1611 41.2353 67.5063 40.5806 66.6987 40.5806C65.8911 40.5806 65.2363 41.2353 65.2363 42.0429C65.2363 42.8506 65.8911 43.5053 66.6987 43.5053Z" fill="white"/>
<path d="M71.0861 43.5053C71.8938 43.5053 72.5485 42.8506 72.5485 42.0429C72.5485 41.2353 71.8938 40.5806 71.0861 40.5806C70.2785 40.5806 69.6238 41.2353 69.6238 42.0429C69.6238 42.8506 70.2785 43.5053 71.0861 43.5053Z" fill="white"/>
<path d="M78.3979 69.0967C80.417 69.0967 82.0538 67.4599 82.0538 65.4408C82.0538 63.4217 80.417 61.7849 78.3979 61.7849C76.3788 61.7849 74.7419 63.4217 74.7419 65.4408C74.7419 67.4599 76.3788 69.0967 78.3979 69.0967Z" stroke="white" stroke-width="1.46237"/>
<path d="M100.333 61.785C102.353 61.785 103.989 60.1482 103.989 58.1291C103.989 56.11 102.353 54.4731 100.333 54.4731C98.3143 54.4731 96.6775 56.11 96.6775 58.1291C96.6775 60.1482 98.3143 61.785 100.333 61.785Z" stroke="white" stroke-width="1.46237"/>
<path d="M100.333 76.4086C102.353 76.4086 103.989 74.7718 103.989 72.7527C103.989 70.7336 102.353 69.0968 100.333 69.0968C98.3143 69.0968 96.6775 70.7336 96.6775 72.7527C96.6775 74.7718 98.3143 76.4086 100.333 76.4086Z" stroke="white" stroke-width="1.46237"/>
<path d="M82.054 63.9784L96.6776 59.2257" stroke="white" stroke-width="1.46237" stroke-linecap="round"/>
<path d="M96.6776 71.6559L82.054 66.9032" stroke="white" stroke-width="1.46237" stroke-linecap="round"/>
</g>
<path d="M46.5137 132.835H47.8262C47.7578 133.464 47.5778 134.027 47.2861 134.523C46.9945 135.02 46.582 135.414 46.0488 135.706C45.5156 135.993 44.8503 136.137 44.0527 136.137C43.4694 136.137 42.9385 136.027 42.46 135.809C41.986 135.59 41.5781 135.28 41.2363 134.879C40.8945 134.473 40.6302 133.988 40.4434 133.423C40.2611 132.853 40.1699 132.22 40.1699 131.522V130.531C40.1699 129.834 40.2611 129.203 40.4434 128.638C40.6302 128.068 40.8968 127.58 41.2432 127.175C41.5941 126.769 42.0156 126.457 42.5078 126.238C43 126.02 43.5537 125.91 44.1689 125.91C44.9209 125.91 45.5566 126.051 46.0762 126.334C46.5957 126.617 46.999 127.008 47.2861 127.51C47.5778 128.007 47.7578 128.583 47.8262 129.239H46.5137C46.4499 128.774 46.3314 128.376 46.1582 128.043C45.985 127.706 45.7389 127.446 45.4199 127.264C45.1009 127.081 44.6839 126.99 44.1689 126.99C43.7269 126.99 43.3372 127.075 43 127.243C42.6673 127.412 42.387 127.651 42.1592 127.961C41.9359 128.271 41.7673 128.642 41.6533 129.075C41.5394 129.508 41.4824 129.989 41.4824 130.518V131.522C41.4824 132.01 41.5326 132.468 41.6328 132.896C41.7376 133.325 41.8949 133.701 42.1045 134.024C42.3141 134.348 42.5807 134.603 42.9043 134.79C43.2279 134.972 43.6107 135.063 44.0527 135.063C44.6133 135.063 45.0599 134.975 45.3926 134.797C45.7253 134.619 45.9759 134.364 46.1445 134.031C46.3177 133.699 46.4408 133.3 46.5137 132.835ZM53.7939 134.735V130.928C53.7939 130.636 53.7347 130.383 53.6162 130.169C53.5023 129.95 53.3291 129.782 53.0967 129.663C52.8643 129.545 52.5771 129.485 52.2354 129.485C51.9163 129.485 51.6361 129.54 51.3945 129.649C51.1576 129.759 50.9707 129.902 50.834 130.08C50.7018 130.258 50.6357 130.449 50.6357 130.654H49.3711C49.3711 130.39 49.4395 130.128 49.5762 129.868C49.7129 129.608 49.9089 129.374 50.1641 129.164C50.4238 128.95 50.7337 128.781 51.0938 128.658C51.4583 128.531 51.8639 128.467 52.3105 128.467C52.8483 128.467 53.3223 128.558 53.7324 128.74C54.1471 128.923 54.4707 129.198 54.7031 129.567C54.9401 129.932 55.0586 130.39 55.0586 130.941V134.387C55.0586 134.633 55.0791 134.895 55.1201 135.173C55.1657 135.451 55.2318 135.69 55.3184 135.891V136H53.999C53.9352 135.854 53.8851 135.66 53.8486 135.419C53.8122 135.173 53.7939 134.945 53.7939 134.735ZM54.0127 131.516L54.0264 132.404H52.748C52.388 132.404 52.0667 132.434 51.7842 132.493C51.5016 132.548 51.2646 132.632 51.0732 132.746C50.8818 132.86 50.736 133.004 50.6357 133.177C50.5355 133.345 50.4854 133.544 50.4854 133.771C50.4854 134.004 50.5378 134.216 50.6426 134.407C50.7474 134.599 50.9046 134.751 51.1143 134.865C51.3285 134.975 51.5905 135.029 51.9004 135.029C52.2878 135.029 52.6296 134.947 52.9258 134.783C53.222 134.619 53.4567 134.419 53.6299 134.182C53.8076 133.945 53.9033 133.715 53.917 133.491L54.457 134.1C54.4251 134.291 54.3385 134.503 54.1973 134.735C54.056 134.968 53.8669 135.191 53.6299 135.405C53.3975 135.615 53.1195 135.79 52.7959 135.932C52.4769 136.068 52.1169 136.137 51.7158 136.137C51.2145 136.137 50.7747 136.039 50.3965 135.843C50.0228 135.647 49.7311 135.385 49.5215 135.057C49.3164 134.724 49.2139 134.353 49.2139 133.942C49.2139 133.546 49.2913 133.197 49.4463 132.896C49.6012 132.591 49.8245 132.338 50.1162 132.138C50.4079 131.933 50.7588 131.778 51.1689 131.673C51.5791 131.568 52.0371 131.516 52.543 131.516H54.0127ZM58.3057 130.073V136H57.0342V128.604H58.2373L58.3057 130.073ZM58.0459 132.021L57.458 132.001C57.4626 131.495 57.5286 131.028 57.6562 130.6C57.7839 130.167 57.973 129.791 58.2236 129.472C58.4743 129.153 58.7865 128.907 59.1602 128.733C59.5339 128.556 59.9668 128.467 60.459 128.467C60.8053 128.467 61.1243 128.517 61.416 128.617C61.7077 128.713 61.9606 128.866 62.1748 129.075C62.389 129.285 62.5553 129.554 62.6738 129.882C62.7923 130.21 62.8516 130.606 62.8516 131.071V136H61.5869V131.133C61.5869 130.745 61.5208 130.436 61.3887 130.203C61.2611 129.971 61.0788 129.802 60.8418 129.697C60.6048 129.588 60.3268 129.533 60.0078 129.533C59.6341 129.533 59.3219 129.599 59.0713 129.731C58.8206 129.864 58.6201 130.046 58.4697 130.278C58.3193 130.511 58.21 130.777 58.1416 131.078C58.0778 131.374 58.0459 131.689 58.0459 132.021ZM62.8379 131.324L61.9902 131.584C61.9948 131.178 62.0609 130.789 62.1885 130.415C62.3206 130.041 62.5098 129.709 62.7559 129.417C63.0065 129.125 63.3141 128.895 63.6787 128.727C64.0433 128.553 64.4603 128.467 64.9297 128.467C65.3262 128.467 65.6771 128.519 65.9824 128.624C66.2923 128.729 66.5521 128.891 66.7617 129.109C66.9759 129.324 67.1377 129.599 67.2471 129.937C67.3564 130.274 67.4111 130.675 67.4111 131.14V136H66.1396V131.126C66.1396 130.711 66.0736 130.39 65.9414 130.162C65.8138 129.93 65.6315 129.768 65.3945 129.677C65.1621 129.581 64.8841 129.533 64.5605 129.533C64.2826 129.533 64.0365 129.581 63.8223 129.677C63.6081 129.772 63.4281 129.905 63.2822 130.073C63.1364 130.237 63.0247 130.426 62.9473 130.641C62.8743 130.855 62.8379 131.083 62.8379 131.324ZM72.3945 136.137C71.8796 136.137 71.4124 136.05 70.9932 135.877C70.5785 135.699 70.2207 135.451 69.9199 135.132C69.6237 134.813 69.3958 134.435 69.2363 133.997C69.0768 133.56 68.9971 133.081 68.9971 132.562V132.274C68.9971 131.673 69.0859 131.137 69.2637 130.668C69.4414 130.194 69.6829 129.793 69.9883 129.465C70.2936 129.137 70.64 128.888 71.0273 128.72C71.4147 128.551 71.8158 128.467 72.2305 128.467C72.7591 128.467 73.2148 128.558 73.5977 128.74C73.985 128.923 74.3018 129.178 74.5479 129.506C74.7939 129.829 74.9762 130.212 75.0947 130.654C75.2132 131.092 75.2725 131.57 75.2725 132.09V132.657H69.749V131.625H74.0078V131.529C73.9896 131.201 73.9212 130.882 73.8027 130.572C73.6888 130.262 73.5065 130.007 73.2559 129.807C73.0052 129.606 72.6634 129.506 72.2305 129.506C71.9434 129.506 71.679 129.567 71.4375 129.69C71.196 129.809 70.9886 129.987 70.8154 130.224C70.6423 130.461 70.5078 130.75 70.4121 131.092C70.3164 131.434 70.2686 131.828 70.2686 132.274V132.562C70.2686 132.912 70.3164 133.243 70.4121 133.553C70.5124 133.858 70.6559 134.127 70.8428 134.359C71.0342 134.592 71.2643 134.774 71.5332 134.906C71.8066 135.038 72.1165 135.104 72.4629 135.104C72.9095 135.104 73.2878 135.013 73.5977 134.831C73.9076 134.649 74.1787 134.405 74.4111 134.1L75.1768 134.708C75.0173 134.95 74.8145 135.18 74.5684 135.398C74.3223 135.617 74.0192 135.795 73.6592 135.932C73.3037 136.068 72.8822 136.137 72.3945 136.137ZM78.0137 129.766V136H76.749V128.604H77.9795L78.0137 129.766ZM80.3242 128.562L80.3174 129.738C80.2126 129.715 80.1123 129.702 80.0166 129.697C79.9255 129.688 79.8206 129.684 79.7021 129.684C79.4105 129.684 79.153 129.729 78.9297 129.82C78.7064 129.911 78.5173 130.039 78.3623 130.203C78.2074 130.367 78.0843 130.563 77.9932 130.791C77.9066 131.014 77.8496 131.26 77.8223 131.529L77.4668 131.734C77.4668 131.288 77.5101 130.868 77.5967 130.477C77.6878 130.085 77.8268 129.738 78.0137 129.438C78.2005 129.132 78.4375 128.895 78.7246 128.727C79.0163 128.553 79.3626 128.467 79.7637 128.467C79.8548 128.467 79.9596 128.478 80.0781 128.501C80.1966 128.519 80.2786 128.54 80.3242 128.562ZM85.5811 134.735V130.928C85.5811 130.636 85.5218 130.383 85.4033 130.169C85.2894 129.95 85.1162 129.782 84.8838 129.663C84.6514 129.545 84.3643 129.485 84.0225 129.485C83.7035 129.485 83.4232 129.54 83.1816 129.649C82.9447 129.759 82.7578 129.902 82.6211 130.08C82.4889 130.258 82.4229 130.449 82.4229 130.654H81.1582C81.1582 130.39 81.2266 130.128 81.3633 129.868C81.5 129.608 81.696 129.374 81.9512 129.164C82.2109 128.95 82.5208 128.781 82.8809 128.658C83.2454 128.531 83.651 128.467 84.0977 128.467C84.6354 128.467 85.1094 128.558 85.5195 128.74C85.9342 128.923 86.2578 129.198 86.4902 129.567C86.7272 129.932 86.8457 130.39 86.8457 130.941V134.387C86.8457 134.633 86.8662 134.895 86.9072 135.173C86.9528 135.451 87.0189 135.69 87.1055 135.891V136H85.7861C85.7223 135.854 85.6722 135.66 85.6357 135.419C85.5993 135.173 85.5811 134.945 85.5811 134.735ZM85.7998 131.516L85.8135 132.404H84.5352C84.1751 132.404 83.8538 132.434 83.5713 132.493C83.2887 132.548 83.0518 132.632 82.8604 132.746C82.6689 132.86 82.5231 133.004 82.4229 133.177C82.3226 133.345 82.2725 133.544 82.2725 133.771C82.2725 134.004 82.3249 134.216 82.4297 134.407C82.5345 134.599 82.6917 134.751 82.9014 134.865C83.1156 134.975 83.3776 135.029 83.6875 135.029C84.0749 135.029 84.4167 134.947 84.7129 134.783C85.0091 134.619 85.2438 134.419 85.417 134.182C85.5947 133.945 85.6904 133.715 85.7041 133.491L86.2441 134.1C86.2122 134.291 86.1257 134.503 85.9844 134.735C85.8431 134.968 85.654 135.191 85.417 135.405C85.1846 135.615 84.9066 135.79 84.583 135.932C84.264 136.068 83.904 136.137 83.5029 136.137C83.0016 136.137 82.5618 136.039 82.1836 135.843C81.8099 135.647 81.5182 135.385 81.3086 135.057C81.1035 134.724 81.001 134.353 81.001 133.942C81.001 133.546 81.0785 133.197 81.2334 132.896C81.3883 132.591 81.6117 132.338 81.9033 132.138C82.195 131.933 82.5459 131.778 82.9561 131.673C83.3662 131.568 83.8242 131.516 84.3301 131.516H85.7998ZM96.6143 134.038C96.6143 133.856 96.5732 133.687 96.4912 133.532C96.4137 133.373 96.252 133.229 96.0059 133.102C95.7643 132.969 95.3997 132.855 94.9121 132.76C94.502 132.673 94.1305 132.571 93.7979 132.452C93.4697 132.334 93.1895 132.19 92.957 132.021C92.7292 131.853 92.5537 131.655 92.4307 131.427C92.3076 131.199 92.2461 130.932 92.2461 130.627C92.2461 130.335 92.3099 130.06 92.4375 129.8C92.5697 129.54 92.7542 129.31 92.9912 129.109C93.2327 128.909 93.5221 128.752 93.8594 128.638C94.1966 128.524 94.5726 128.467 94.9873 128.467C95.5798 128.467 96.0856 128.572 96.5049 128.781C96.9242 128.991 97.2454 129.271 97.4688 129.622C97.6921 129.968 97.8037 130.354 97.8037 130.777H96.5391C96.5391 130.572 96.4775 130.374 96.3545 130.183C96.236 129.987 96.0605 129.825 95.8281 129.697C95.6003 129.57 95.32 129.506 94.9873 129.506C94.6364 129.506 94.3516 129.561 94.1328 129.67C93.9186 129.775 93.7614 129.909 93.6611 130.073C93.5654 130.237 93.5176 130.41 93.5176 130.593C93.5176 130.729 93.5404 130.853 93.5859 130.962C93.6361 131.067 93.7227 131.165 93.8457 131.256C93.9688 131.342 94.1419 131.424 94.3652 131.502C94.5885 131.579 94.8734 131.657 95.2197 131.734C95.8258 131.871 96.3249 132.035 96.7168 132.227C97.1087 132.418 97.4004 132.653 97.5918 132.931C97.7832 133.209 97.8789 133.546 97.8789 133.942C97.8789 134.266 97.8105 134.562 97.6738 134.831C97.5417 135.1 97.348 135.332 97.0928 135.528C96.8421 135.72 96.5413 135.87 96.1904 135.979C95.8441 136.084 95.4544 136.137 95.0215 136.137C94.3698 136.137 93.8184 136.021 93.3672 135.788C92.916 135.556 92.5742 135.255 92.3418 134.886C92.1094 134.517 91.9932 134.127 91.9932 133.717H93.2646C93.2829 134.063 93.3831 134.339 93.5654 134.544C93.7477 134.744 93.971 134.888 94.2354 134.975C94.4997 135.057 94.7617 135.098 95.0215 135.098C95.3678 135.098 95.6572 135.052 95.8896 134.961C96.1266 134.87 96.3066 134.744 96.4297 134.585C96.5527 134.425 96.6143 134.243 96.6143 134.038ZM100.805 125.5V136H99.54V125.5H100.805ZM100.504 132.021L99.9775 132.001C99.9821 131.495 100.057 131.028 100.203 130.6C100.349 130.167 100.554 129.791 100.818 129.472C101.083 129.153 101.397 128.907 101.762 128.733C102.131 128.556 102.539 128.467 102.985 128.467C103.35 128.467 103.678 128.517 103.97 128.617C104.261 128.713 104.51 128.868 104.715 129.082C104.924 129.296 105.084 129.574 105.193 129.916C105.303 130.253 105.357 130.666 105.357 131.153V136H104.086V131.14C104.086 130.752 104.029 130.442 103.915 130.21C103.801 129.973 103.635 129.802 103.416 129.697C103.197 129.588 102.928 129.533 102.609 129.533C102.295 129.533 102.008 129.599 101.748 129.731C101.493 129.864 101.272 130.046 101.085 130.278C100.903 130.511 100.759 130.777 100.654 131.078C100.554 131.374 100.504 131.689 100.504 132.021ZM111.612 134.735V130.928C111.612 130.636 111.553 130.383 111.435 130.169C111.321 129.95 111.147 129.782 110.915 129.663C110.683 129.545 110.396 129.485 110.054 129.485C109.735 129.485 109.454 129.54 109.213 129.649C108.976 129.759 108.789 129.902 108.652 130.08C108.52 130.258 108.454 130.449 108.454 130.654H107.189C107.189 130.39 107.258 130.128 107.395 129.868C107.531 129.608 107.727 129.374 107.982 129.164C108.242 128.95 108.552 128.781 108.912 128.658C109.277 128.531 109.682 128.467 110.129 128.467C110.667 128.467 111.141 128.558 111.551 128.74C111.965 128.923 112.289 129.198 112.521 129.567C112.758 129.932 112.877 130.39 112.877 130.941V134.387C112.877 134.633 112.897 134.895 112.938 135.173C112.984 135.451 113.05 135.69 113.137 135.891V136H111.817C111.754 135.854 111.703 135.66 111.667 135.419C111.631 135.173 111.612 134.945 111.612 134.735ZM111.831 131.516L111.845 132.404H110.566C110.206 132.404 109.885 132.434 109.603 132.493C109.32 132.548 109.083 132.632 108.892 132.746C108.7 132.86 108.554 133.004 108.454 133.177C108.354 133.345 108.304 133.544 108.304 133.771C108.304 134.004 108.356 134.216 108.461 134.407C108.566 134.599 108.723 134.751 108.933 134.865C109.147 134.975 109.409 135.029 109.719 135.029C110.106 135.029 110.448 134.947 110.744 134.783C111.04 134.619 111.275 134.419 111.448 134.182C111.626 133.945 111.722 133.715 111.735 133.491L112.275 134.1C112.243 134.291 112.157 134.503 112.016 134.735C111.874 134.968 111.685 135.191 111.448 135.405C111.216 135.615 110.938 135.79 110.614 135.932C110.295 136.068 109.935 136.137 109.534 136.137C109.033 136.137 108.593 136.039 108.215 135.843C107.841 135.647 107.549 135.385 107.34 135.057C107.135 134.724 107.032 134.353 107.032 133.942C107.032 133.546 107.11 133.197 107.265 132.896C107.42 132.591 107.643 132.338 107.935 132.138C108.226 131.933 108.577 131.778 108.987 131.673C109.397 131.568 109.855 131.516 110.361 131.516H111.831ZM116.131 129.766V136H114.866V128.604H116.097L116.131 129.766ZM118.441 128.562L118.435 129.738C118.33 129.715 118.229 129.702 118.134 129.697C118.043 129.688 117.938 129.684 117.819 129.684C117.528 129.684 117.27 129.729 117.047 129.82C116.824 129.911 116.634 130.039 116.479 130.203C116.325 130.367 116.201 130.563 116.11 130.791C116.024 131.014 115.967 131.26 115.939 131.529L115.584 131.734C115.584 131.288 115.627 130.868 115.714 130.477C115.805 130.085 115.944 129.738 116.131 129.438C116.318 129.132 116.555 128.895 116.842 128.727C117.133 128.553 117.48 128.467 117.881 128.467C117.972 128.467 118.077 128.478 118.195 128.501C118.314 128.519 118.396 128.54 118.441 128.562ZM120.984 128.604V136H119.713V128.604H120.984ZM119.617 126.642C119.617 126.437 119.679 126.263 119.802 126.122C119.929 125.981 120.116 125.91 120.362 125.91C120.604 125.91 120.788 125.981 120.916 126.122C121.048 126.263 121.114 126.437 121.114 126.642C121.114 126.838 121.048 127.006 120.916 127.147C120.788 127.284 120.604 127.353 120.362 127.353C120.116 127.353 119.929 127.284 119.802 127.147C119.679 127.006 119.617 126.838 119.617 126.642ZM124.279 130.183V136H123.015V128.604H124.211L124.279 130.183ZM123.979 132.021L123.452 132.001C123.457 131.495 123.532 131.028 123.678 130.6C123.824 130.167 124.029 129.791 124.293 129.472C124.557 129.153 124.872 128.907 125.236 128.733C125.605 128.556 126.013 128.467 126.46 128.467C126.825 128.467 127.153 128.517 127.444 128.617C127.736 128.713 127.984 128.868 128.189 129.082C128.399 129.296 128.559 129.574 128.668 129.916C128.777 130.253 128.832 130.666 128.832 131.153V136H127.561V131.14C127.561 130.752 127.504 130.442 127.39 130.21C127.276 129.973 127.109 129.802 126.891 129.697C126.672 129.588 126.403 129.533 126.084 129.533C125.77 129.533 125.482 129.599 125.223 129.731C124.967 129.864 124.746 130.046 124.56 130.278C124.377 130.511 124.234 130.777 124.129 131.078C124.029 131.374 123.979 131.689 123.979 132.021ZM135.545 128.604H136.693V135.843C136.693 136.494 136.561 137.05 136.297 137.511C136.033 137.971 135.663 138.32 135.189 138.557C134.72 138.798 134.178 138.919 133.562 138.919C133.307 138.919 133.007 138.878 132.66 138.796C132.318 138.718 131.981 138.584 131.648 138.393C131.32 138.206 131.045 137.953 130.821 137.634L131.484 136.882C131.794 137.256 132.118 137.515 132.455 137.661C132.797 137.807 133.134 137.88 133.467 137.88C133.868 137.88 134.214 137.805 134.506 137.654C134.798 137.504 135.023 137.281 135.183 136.984C135.347 136.693 135.429 136.333 135.429 135.904V130.23L135.545 128.604ZM130.452 132.384V132.24C130.452 131.675 130.518 131.162 130.65 130.702C130.787 130.237 130.981 129.839 131.231 129.506C131.487 129.173 131.794 128.918 132.154 128.74C132.514 128.558 132.92 128.467 133.371 128.467C133.836 128.467 134.242 128.549 134.588 128.713C134.939 128.872 135.235 129.107 135.477 129.417C135.723 129.722 135.916 130.091 136.058 130.524C136.199 130.957 136.297 131.447 136.352 131.994V132.623C136.301 133.165 136.203 133.653 136.058 134.086C135.916 134.519 135.723 134.888 135.477 135.193C135.235 135.499 134.939 135.733 134.588 135.897C134.237 136.057 133.827 136.137 133.357 136.137C132.915 136.137 132.514 136.043 132.154 135.856C131.799 135.67 131.493 135.408 131.238 135.07C130.983 134.733 130.787 134.337 130.65 133.881C130.518 133.421 130.452 132.922 130.452 132.384ZM131.717 132.24V132.384C131.717 132.753 131.753 133.099 131.826 133.423C131.904 133.746 132.02 134.031 132.175 134.277C132.334 134.523 132.537 134.717 132.783 134.858C133.029 134.995 133.323 135.063 133.665 135.063C134.084 135.063 134.431 134.975 134.704 134.797C134.978 134.619 135.194 134.384 135.354 134.093C135.518 133.801 135.645 133.484 135.736 133.143V131.495C135.686 131.244 135.609 131.003 135.504 130.771C135.404 130.534 135.271 130.324 135.107 130.142C134.948 129.955 134.75 129.807 134.513 129.697C134.276 129.588 133.998 129.533 133.679 129.533C133.332 129.533 133.034 129.606 132.783 129.752C132.537 129.893 132.334 130.089 132.175 130.34C132.02 130.586 131.904 130.873 131.826 131.201C131.753 131.525 131.717 131.871 131.717 132.24Z" fill="white" visibility="hidden"/>
<text x="88.5" y="126" text-anchor="middle" fill="white" font-size="10" font-family="Arial, sans-serif">Управление сохранёнными видео</text>
<defs>
<clipPath id="clip0_20_544">
<rect width="68" height="51.914" fill="white" transform="translate(55 34)"/>
</clipPath>
</defs>
</svg>
