<svg width="177" height="177" viewBox="0 0 177 177" fill="none" xmlns="http://www.w3.org/2000/svg">
<rect width="177" height="177" fill="#222222"/>
<path d="M54.4443 125.484C54.4443 125.252 54.4079 125.047 54.335 124.869C54.2666 124.687 54.1436 124.523 53.9658 124.377C53.7926 124.231 53.5511 124.092 53.2412 123.96C52.9359 123.828 52.5485 123.693 52.0791 123.557C51.5869 123.411 51.1426 123.249 50.7461 123.071C50.3496 122.889 50.0101 122.682 49.7275 122.449C49.445 122.217 49.2285 121.95 49.0781 121.649C48.9277 121.349 48.8525 121.005 48.8525 120.617C48.8525 120.23 48.9323 119.872 49.0918 119.544C49.2513 119.216 49.4792 118.931 49.7754 118.689C50.0762 118.443 50.4339 118.252 50.8486 118.115C51.2633 117.979 51.7259 117.91 52.2363 117.91C52.9837 117.91 53.6172 118.054 54.1367 118.341C54.6608 118.623 55.0596 118.995 55.333 119.455C55.6064 119.911 55.7432 120.398 55.7432 120.918H54.4307C54.4307 120.544 54.3509 120.214 54.1914 119.927C54.0319 119.635 53.7904 119.407 53.4668 119.243C53.1432 119.075 52.7331 118.99 52.2363 118.99C51.7669 118.99 51.3796 119.061 51.0742 119.202C50.7689 119.343 50.541 119.535 50.3906 119.776C50.2448 120.018 50.1719 120.294 50.1719 120.604C50.1719 120.813 50.2152 121.005 50.3018 121.178C50.3929 121.346 50.5319 121.504 50.7188 121.649C50.9102 121.795 51.1517 121.93 51.4434 122.053C51.7396 122.176 52.0928 122.294 52.5029 122.408C53.068 122.568 53.5557 122.745 53.9658 122.941C54.376 123.137 54.7132 123.358 54.9775 123.604C55.2464 123.846 55.4447 124.122 55.5723 124.432C55.7044 124.737 55.7705 125.083 55.7705 125.471C55.7705 125.876 55.6885 126.243 55.5244 126.571C55.3604 126.899 55.1257 127.18 54.8203 127.412C54.515 127.645 54.1481 127.825 53.7197 127.952C53.2959 128.075 52.8219 128.137 52.2979 128.137C51.8376 128.137 51.3841 128.073 50.9375 127.945C50.4954 127.818 50.0921 127.626 49.7275 127.371C49.3675 127.116 49.0781 126.801 48.8594 126.428C48.6452 126.049 48.5381 125.612 48.5381 125.115H49.8506C49.8506 125.457 49.9167 125.751 50.0488 125.997C50.181 126.239 50.361 126.439 50.5889 126.599C50.8213 126.758 51.0833 126.877 51.375 126.954C51.6712 127.027 51.9788 127.063 52.2979 127.063C52.7581 127.063 53.1478 127 53.4668 126.872C53.7858 126.744 54.0273 126.562 54.1914 126.325C54.36 126.088 54.4443 125.808 54.4443 125.484ZM61.6221 126.735V122.928C61.6221 122.636 61.5628 122.383 61.4443 122.169C61.3304 121.95 61.1572 121.782 60.9248 121.663C60.6924 121.545 60.4053 121.485 60.0635 121.485C59.7445 121.485 59.4642 121.54 59.2227 121.649C58.9857 121.759 58.7988 121.902 58.6621 122.08C58.5299 122.258 58.4639 122.449 58.4639 122.654H57.1992C57.1992 122.39 57.2676 122.128 57.4043 121.868C57.541 121.608 57.737 121.374 57.9922 121.164C58.252 120.95 58.5618 120.781 58.9219 120.658C59.2865 120.531 59.6921 120.467 60.1387 120.467C60.6764 120.467 61.1504 120.558 61.5605 120.74C61.9753 120.923 62.2988 121.198 62.5312 121.567C62.7682 121.932 62.8867 122.39 62.8867 122.941V126.387C62.8867 126.633 62.9072 126.895 62.9482 127.173C62.9938 127.451 63.0599 127.69 63.1465 127.891V128H61.8271C61.7633 127.854 61.7132 127.66 61.6768 127.419C61.6403 127.173 61.6221 126.945 61.6221 126.735ZM61.8408 123.516L61.8545 124.404H60.5762C60.2161 124.404 59.8949 124.434 59.6123 124.493C59.3298 124.548 59.0928 124.632 58.9014 124.746C58.71 124.86 58.5641 125.004 58.4639 125.177C58.3636 125.345 58.3135 125.544 58.3135 125.771C58.3135 126.004 58.3659 126.216 58.4707 126.407C58.5755 126.599 58.7327 126.751 58.9424 126.865C59.1566 126.975 59.4186 127.029 59.7285 127.029C60.1159 127.029 60.4577 126.947 60.7539 126.783C61.0501 126.619 61.2848 126.419 61.458 126.182C61.6357 125.945 61.7314 125.715 61.7451 125.491L62.2852 126.1C62.2533 126.291 62.1667 126.503 62.0254 126.735C61.8841 126.968 61.695 127.191 61.458 127.405C61.2256 127.615 60.9476 127.79 60.624 127.932C60.305 128.068 59.945 128.137 59.5439 128.137C59.0426 128.137 58.6029 128.039 58.2246 127.843C57.8509 127.647 57.5592 127.385 57.3496 127.057C57.1445 126.724 57.042 126.353 57.042 125.942C57.042 125.546 57.1195 125.197 57.2744 124.896C57.4294 124.591 57.6527 124.338 57.9443 124.138C58.236 123.933 58.5869 123.778 58.9971 123.673C59.4072 123.568 59.8652 123.516 60.3711 123.516H61.8408ZM67.0156 126.858L69.0391 120.604H70.3311L67.6719 128H66.8242L67.0156 126.858ZM65.3271 120.604L67.4121 126.893L67.5557 128H66.708L64.0283 120.604H65.3271ZM74.5215 128.137C74.0065 128.137 73.5394 128.05 73.1201 127.877C72.7054 127.699 72.3477 127.451 72.0469 127.132C71.7507 126.813 71.5228 126.435 71.3633 125.997C71.2038 125.56 71.124 125.081 71.124 124.562V124.274C71.124 123.673 71.2129 123.137 71.3906 122.668C71.5684 122.194 71.8099 121.793 72.1152 121.465C72.4206 121.137 72.7669 120.888 73.1543 120.72C73.5417 120.551 73.9427 120.467 74.3574 120.467C74.8861 120.467 75.3418 120.558 75.7246 120.74C76.112 120.923 76.4287 121.178 76.6748 121.506C76.9209 121.829 77.1032 122.212 77.2217 122.654C77.3402 123.092 77.3994 123.57 77.3994 124.09V124.657H71.876V123.625H76.1348V123.529C76.1165 123.201 76.0482 122.882 75.9297 122.572C75.8158 122.262 75.6335 122.007 75.3828 121.807C75.1322 121.606 74.7904 121.506 74.3574 121.506C74.0703 121.506 73.806 121.567 73.5645 121.69C73.3229 121.809 73.1156 121.987 72.9424 122.224C72.7692 122.461 72.6348 122.75 72.5391 123.092C72.4434 123.434 72.3955 123.828 72.3955 124.274V124.562C72.3955 124.912 72.4434 125.243 72.5391 125.553C72.6393 125.858 72.7829 126.127 72.9697 126.359C73.1611 126.592 73.3913 126.774 73.6602 126.906C73.9336 127.038 74.2435 127.104 74.5898 127.104C75.0365 127.104 75.4147 127.013 75.7246 126.831C76.0345 126.649 76.3057 126.405 76.5381 126.1L77.3037 126.708C77.1442 126.95 76.9414 127.18 76.6953 127.398C76.4492 127.617 76.1462 127.795 75.7861 127.932C75.4307 128.068 75.0091 128.137 74.5215 128.137ZM83.5381 126.564V117.5H84.8096V128H83.6475L83.5381 126.564ZM78.5615 124.384V124.24C78.5615 123.675 78.6299 123.162 78.7666 122.702C78.9079 122.237 79.1061 121.839 79.3613 121.506C79.6211 121.173 79.9287 120.918 80.2842 120.74C80.6442 120.558 81.0452 120.467 81.4873 120.467C81.9521 120.467 82.3577 120.549 82.7041 120.713C83.055 120.872 83.3512 121.107 83.5928 121.417C83.8389 121.722 84.0326 122.091 84.1738 122.524C84.3151 122.957 84.4131 123.447 84.4678 123.994V124.623C84.4176 125.165 84.3197 125.653 84.1738 126.086C84.0326 126.519 83.8389 126.888 83.5928 127.193C83.3512 127.499 83.055 127.733 82.7041 127.897C82.3532 128.057 81.943 128.137 81.4736 128.137C81.0407 128.137 80.6442 128.043 80.2842 127.856C79.9287 127.67 79.6211 127.408 79.3613 127.07C79.1061 126.733 78.9079 126.337 78.7666 125.881C78.6299 125.421 78.5615 124.922 78.5615 124.384ZM79.833 124.24V124.384C79.833 124.753 79.8695 125.099 79.9424 125.423C80.0199 125.746 80.1383 126.031 80.2979 126.277C80.4574 126.523 80.6602 126.717 80.9062 126.858C81.1523 126.995 81.4463 127.063 81.7881 127.063C82.2074 127.063 82.5514 126.975 82.8203 126.797C83.0938 126.619 83.3125 126.384 83.4766 126.093C83.6406 125.801 83.7682 125.484 83.8594 125.143V123.495C83.8047 123.244 83.7249 123.003 83.6201 122.771C83.5199 122.534 83.3877 122.324 83.2236 122.142C83.0641 121.955 82.8659 121.807 82.6289 121.697C82.3965 121.588 82.1208 121.533 81.8018 121.533C81.4554 121.533 81.1569 121.606 80.9062 121.752C80.6602 121.893 80.4574 122.089 80.2979 122.34C80.1383 122.586 80.0199 122.873 79.9424 123.201C79.8695 123.525 79.833 123.871 79.833 124.24ZM92.5 126.858L94.5234 120.604H95.8154L93.1562 128H92.3086L92.5 126.858ZM90.8115 120.604L92.8965 126.893L93.04 128H92.1924L89.5127 120.604H90.8115ZM98.4062 120.604V128H97.1348V120.604H98.4062ZM97.0391 118.642C97.0391 118.437 97.1006 118.263 97.2236 118.122C97.3512 117.981 97.5381 117.91 97.7842 117.91C98.0257 117.91 98.2103 117.981 98.3379 118.122C98.4701 118.263 98.5361 118.437 98.5361 118.642C98.5361 118.838 98.4701 119.006 98.3379 119.147C98.2103 119.284 98.0257 119.353 97.7842 119.353C97.5381 119.353 97.3512 119.284 97.2236 119.147C97.1006 119.006 97.0391 118.838 97.0391 118.642ZM105.099 126.564V117.5H106.37V128H105.208L105.099 126.564ZM100.122 124.384V124.24C100.122 123.675 100.19 123.162 100.327 122.702C100.468 122.237 100.667 121.839 100.922 121.506C101.182 121.173 101.489 120.918 101.845 120.74C102.205 120.558 102.606 120.467 103.048 120.467C103.513 120.467 103.918 120.549 104.265 120.713C104.616 120.872 104.912 121.107 105.153 121.417C105.399 121.722 105.593 122.091 105.734 122.524C105.876 122.957 105.974 123.447 106.028 123.994V124.623C105.978 125.165 105.88 125.653 105.734 126.086C105.593 126.519 105.399 126.888 105.153 127.193C104.912 127.499 104.616 127.733 104.265 127.897C103.914 128.057 103.504 128.137 103.034 128.137C102.601 128.137 102.205 128.043 101.845 127.856C101.489 127.67 101.182 127.408 100.922 127.07C100.667 126.733 100.468 126.337 100.327 125.881C100.19 125.421 100.122 124.922 100.122 124.384ZM101.394 124.24V124.384C101.394 124.753 101.43 125.099 101.503 125.423C101.58 125.746 101.699 126.031 101.858 126.277C102.018 126.523 102.221 126.717 102.467 126.858C102.713 126.995 103.007 127.063 103.349 127.063C103.768 127.063 104.112 126.975 104.381 126.797C104.654 126.619 104.873 126.384 105.037 126.093C105.201 125.801 105.329 125.484 105.42 125.143V123.495C105.365 123.244 105.285 123.003 105.181 122.771C105.08 122.534 104.948 122.324 104.784 122.142C104.625 121.955 104.426 121.807 104.189 121.697C103.957 121.588 103.681 121.533 103.362 121.533C103.016 121.533 102.717 121.606 102.467 121.752C102.221 121.893 102.018 122.089 101.858 122.34C101.699 122.586 101.58 122.873 101.503 123.201C101.43 123.525 101.394 123.871 101.394 124.24ZM111.408 128.137C110.893 128.137 110.426 128.05 110.007 127.877C109.592 127.699 109.234 127.451 108.934 127.132C108.637 126.813 108.41 126.435 108.25 125.997C108.09 125.56 108.011 125.081 108.011 124.562V124.274C108.011 123.673 108.1 123.137 108.277 122.668C108.455 122.194 108.697 121.793 109.002 121.465C109.307 121.137 109.654 120.888 110.041 120.72C110.428 120.551 110.829 120.467 111.244 120.467C111.773 120.467 112.229 120.558 112.611 120.74C112.999 120.923 113.315 121.178 113.562 121.506C113.808 121.829 113.99 122.212 114.108 122.654C114.227 123.092 114.286 123.57 114.286 124.09V124.657H108.763V123.625H113.021V123.529C113.003 123.201 112.935 122.882 112.816 122.572C112.702 122.262 112.52 122.007 112.27 121.807C112.019 121.606 111.677 121.506 111.244 121.506C110.957 121.506 110.693 121.567 110.451 121.69C110.21 121.809 110.002 121.987 109.829 122.224C109.656 122.461 109.521 122.75 109.426 123.092C109.33 123.434 109.282 123.828 109.282 124.274V124.562C109.282 124.912 109.33 125.243 109.426 125.553C109.526 125.858 109.67 126.127 109.856 126.359C110.048 126.592 110.278 126.774 110.547 126.906C110.82 127.038 111.13 127.104 111.477 127.104C111.923 127.104 112.301 127.013 112.611 126.831C112.921 126.649 113.192 126.405 113.425 126.1L114.19 126.708C114.031 126.95 113.828 127.18 113.582 127.398C113.336 127.617 113.033 127.795 112.673 127.932C112.317 128.068 111.896 128.137 111.408 128.137ZM115.428 124.384V124.227C115.428 123.693 115.505 123.199 115.66 122.743C115.815 122.283 116.038 121.884 116.33 121.547C116.622 121.205 116.975 120.941 117.39 120.754C117.804 120.562 118.269 120.467 118.784 120.467C119.304 120.467 119.771 120.562 120.186 120.754C120.605 120.941 120.96 121.205 121.252 121.547C121.548 121.884 121.774 122.283 121.929 122.743C122.084 123.199 122.161 123.693 122.161 124.227V124.384C122.161 124.917 122.084 125.411 121.929 125.867C121.774 126.323 121.548 126.722 121.252 127.063C120.96 127.401 120.607 127.665 120.192 127.856C119.782 128.043 119.317 128.137 118.798 128.137C118.278 128.137 117.811 128.043 117.396 127.856C116.982 127.665 116.626 127.401 116.33 127.063C116.038 126.722 115.815 126.323 115.66 125.867C115.505 125.411 115.428 124.917 115.428 124.384ZM116.692 124.227V124.384C116.692 124.753 116.736 125.102 116.822 125.43C116.909 125.753 117.039 126.04 117.212 126.291C117.39 126.542 117.611 126.74 117.875 126.886C118.139 127.027 118.447 127.098 118.798 127.098C119.144 127.098 119.447 127.027 119.707 126.886C119.971 126.74 120.19 126.542 120.363 126.291C120.536 126.04 120.666 125.753 120.753 125.43C120.844 125.102 120.89 124.753 120.89 124.384V124.227C120.89 123.862 120.844 123.518 120.753 123.194C120.666 122.866 120.534 122.577 120.356 122.326C120.183 122.071 119.965 121.87 119.7 121.725C119.44 121.579 119.135 121.506 118.784 121.506C118.438 121.506 118.132 121.579 117.868 121.725C117.608 121.87 117.39 122.071 117.212 122.326C117.039 122.577 116.909 122.866 116.822 123.194C116.736 123.518 116.692 123.862 116.692 124.227ZM128.054 126.038C128.054 125.856 128.013 125.687 127.931 125.532C127.853 125.373 127.691 125.229 127.445 125.102C127.204 124.969 126.839 124.855 126.352 124.76C125.941 124.673 125.57 124.571 125.237 124.452C124.909 124.334 124.629 124.19 124.396 124.021C124.169 123.853 123.993 123.655 123.87 123.427C123.747 123.199 123.686 122.932 123.686 122.627C123.686 122.335 123.749 122.06 123.877 121.8C124.009 121.54 124.194 121.31 124.431 121.109C124.672 120.909 124.962 120.752 125.299 120.638C125.636 120.524 126.012 120.467 126.427 120.467C127.019 120.467 127.525 120.572 127.944 120.781C128.364 120.991 128.685 121.271 128.908 121.622C129.132 121.968 129.243 122.354 129.243 122.777H127.979C127.979 122.572 127.917 122.374 127.794 122.183C127.675 121.987 127.5 121.825 127.268 121.697C127.04 121.57 126.759 121.506 126.427 121.506C126.076 121.506 125.791 121.561 125.572 121.67C125.358 121.775 125.201 121.909 125.101 122.073C125.005 122.237 124.957 122.41 124.957 122.593C124.957 122.729 124.98 122.853 125.025 122.962C125.076 123.067 125.162 123.165 125.285 123.256C125.408 123.342 125.581 123.424 125.805 123.502C126.028 123.579 126.313 123.657 126.659 123.734C127.265 123.871 127.764 124.035 128.156 124.227C128.548 124.418 128.84 124.653 129.031 124.931C129.223 125.209 129.318 125.546 129.318 125.942C129.318 126.266 129.25 126.562 129.113 126.831C128.981 127.1 128.787 127.332 128.532 127.528C128.282 127.72 127.981 127.87 127.63 127.979C127.284 128.084 126.894 128.137 126.461 128.137C125.809 128.137 125.258 128.021 124.807 127.788C124.355 127.556 124.014 127.255 123.781 126.886C123.549 126.517 123.433 126.127 123.433 125.717H124.704C124.722 126.063 124.823 126.339 125.005 126.544C125.187 126.744 125.41 126.888 125.675 126.975C125.939 127.057 126.201 127.098 126.461 127.098C126.807 127.098 127.097 127.052 127.329 126.961C127.566 126.87 127.746 126.744 127.869 126.585C127.992 126.425 128.054 126.243 128.054 126.038ZM49.9463 137.073V143H48.6748V135.604H49.8779L49.9463 137.073ZM49.6865 139.021L49.0986 139.001C49.1032 138.495 49.1693 138.028 49.2969 137.6C49.4245 137.167 49.6136 136.791 49.8643 136.472C50.1149 136.153 50.4271 135.907 50.8008 135.733C51.1745 135.556 51.6074 135.467 52.0996 135.467C52.446 135.467 52.765 135.517 53.0566 135.617C53.3483 135.713 53.6012 135.866 53.8154 136.075C54.0296 136.285 54.196 136.554 54.3145 136.882C54.4329 137.21 54.4922 137.606 54.4922 138.071V143H53.2275V138.133C53.2275 137.745 53.1615 137.436 53.0293 137.203C52.9017 136.971 52.7194 136.802 52.4824 136.697C52.2454 136.588 51.9674 136.533 51.6484 136.533C51.2747 136.533 50.9626 136.599 50.7119 136.731C50.4613 136.864 50.2607 137.046 50.1104 137.278C49.96 137.511 49.8506 137.777 49.7822 138.078C49.7184 138.374 49.6865 138.689 49.6865 139.021ZM54.4785 138.324L53.6309 138.584C53.6354 138.178 53.7015 137.789 53.8291 137.415C53.9613 137.041 54.1504 136.709 54.3965 136.417C54.6471 136.125 54.9548 135.895 55.3193 135.727C55.6839 135.553 56.1009 135.467 56.5703 135.467C56.9668 135.467 57.3177 135.519 57.623 135.624C57.9329 135.729 58.1927 135.891 58.4023 136.109C58.6165 136.324 58.7783 136.599 58.8877 136.937C58.9971 137.274 59.0518 137.675 59.0518 138.14V143H57.7803V138.126C57.7803 137.711 57.7142 137.39 57.582 137.162C57.4544 136.93 57.2721 136.768 57.0352 136.677C56.8027 136.581 56.5247 136.533 56.2012 136.533C55.9232 136.533 55.6771 136.581 55.4629 136.677C55.2487 136.772 55.0687 136.905 54.9229 137.073C54.777 137.237 54.6654 137.426 54.5879 137.641C54.515 137.855 54.4785 138.083 54.4785 138.324ZM65.3271 141.735V137.928C65.3271 137.636 65.2679 137.383 65.1494 137.169C65.0355 136.95 64.8623 136.782 64.6299 136.663C64.3975 136.545 64.1104 136.485 63.7686 136.485C63.4495 136.485 63.1693 136.54 62.9277 136.649C62.6908 136.759 62.5039 136.902 62.3672 137.08C62.235 137.258 62.1689 137.449 62.1689 137.654H60.9043C60.9043 137.39 60.9727 137.128 61.1094 136.868C61.2461 136.608 61.4421 136.374 61.6973 136.164C61.957 135.95 62.2669 135.781 62.627 135.658C62.9915 135.531 63.3971 135.467 63.8438 135.467C64.3815 135.467 64.8555 135.558 65.2656 135.74C65.6803 135.923 66.0039 136.198 66.2363 136.567C66.4733 136.932 66.5918 137.39 66.5918 137.941V141.387C66.5918 141.633 66.6123 141.895 66.6533 142.173C66.6989 142.451 66.765 142.69 66.8516 142.891V143H65.5322C65.4684 142.854 65.4183 142.66 65.3818 142.419C65.3454 142.173 65.3271 141.945 65.3271 141.735ZM65.5459 138.516L65.5596 139.404H64.2812C63.9212 139.404 63.5999 139.434 63.3174 139.493C63.0348 139.548 62.7979 139.632 62.6064 139.746C62.415 139.86 62.2692 140.004 62.1689 140.177C62.0687 140.345 62.0186 140.544 62.0186 140.771C62.0186 141.004 62.071 141.216 62.1758 141.407C62.2806 141.599 62.4378 141.751 62.6475 141.865C62.8617 141.975 63.1237 142.029 63.4336 142.029C63.821 142.029 64.1628 141.947 64.459 141.783C64.7552 141.619 64.9899 141.419 65.1631 141.182C65.3408 140.945 65.4365 140.715 65.4502 140.491L65.9902 141.1C65.9583 141.291 65.8717 141.503 65.7305 141.735C65.5892 141.968 65.4001 142.191 65.1631 142.405C64.9307 142.615 64.6527 142.79 64.3291 142.932C64.0101 143.068 63.6501 143.137 63.249 143.137C62.7477 143.137 62.3079 143.039 61.9297 142.843C61.556 142.647 61.2643 142.385 61.0547 142.057C60.8496 141.724 60.7471 141.353 60.7471 140.942C60.7471 140.546 60.8245 140.197 60.9795 139.896C61.1344 139.591 61.3577 139.338 61.6494 139.138C61.9411 138.933 62.292 138.778 62.7021 138.673C63.1123 138.568 63.5703 138.516 64.0762 138.516H65.5459ZM69.8457 137.183V143H68.5811V135.604H69.7773L69.8457 137.183ZM69.5449 139.021L69.0186 139.001C69.0231 138.495 69.0983 138.028 69.2441 137.6C69.39 137.167 69.5951 136.791 69.8594 136.472C70.1237 136.153 70.4382 135.907 70.8027 135.733C71.1719 135.556 71.5798 135.467 72.0264 135.467C72.391 135.467 72.7191 135.517 73.0107 135.617C73.3024 135.713 73.5508 135.868 73.7559 136.082C73.9655 136.296 74.125 136.574 74.2344 136.916C74.3438 137.253 74.3984 137.666 74.3984 138.153V143H73.127V138.14C73.127 137.752 73.07 137.442 72.9561 137.21C72.8421 136.973 72.6758 136.802 72.457 136.697C72.2383 136.588 71.9694 136.533 71.6504 136.533C71.3359 136.533 71.0488 136.599 70.7891 136.731C70.5339 136.864 70.3128 137.046 70.126 137.278C69.9437 137.511 69.8001 137.777 69.6953 138.078C69.5951 138.374 69.5449 138.689 69.5449 139.021ZM80.6807 141.735V137.928C80.6807 137.636 80.6214 137.383 80.5029 137.169C80.389 136.95 80.2158 136.782 79.9834 136.663C79.751 136.545 79.4639 136.485 79.1221 136.485C78.8031 136.485 78.5228 136.54 78.2812 136.649C78.0443 136.759 77.8574 136.902 77.7207 137.08C77.5885 137.258 77.5225 137.449 77.5225 137.654H76.2578C76.2578 137.39 76.3262 137.128 76.4629 136.868C76.5996 136.608 76.7956 136.374 77.0508 136.164C77.3105 135.95 77.6204 135.781 77.9805 135.658C78.3451 135.531 78.7507 135.467 79.1973 135.467C79.735 135.467 80.209 135.558 80.6191 135.74C81.0339 135.923 81.3574 136.198 81.5898 136.567C81.8268 136.932 81.9453 137.39 81.9453 137.941V141.387C81.9453 141.633 81.9658 141.895 82.0068 142.173C82.0524 142.451 82.1185 142.69 82.2051 142.891V143H80.8857C80.8219 142.854 80.7718 142.66 80.7354 142.419C80.6989 142.173 80.6807 141.945 80.6807 141.735ZM80.8994 138.516L80.9131 139.404H79.6348C79.2747 139.404 78.9535 139.434 78.6709 139.493C78.3883 139.548 78.1514 139.632 77.96 139.746C77.7686 139.86 77.6227 140.004 77.5225 140.177C77.4222 140.345 77.3721 140.544 77.3721 140.771C77.3721 141.004 77.4245 141.216 77.5293 141.407C77.6341 141.599 77.7913 141.751 78.001 141.865C78.2152 141.975 78.4772 142.029 78.7871 142.029C79.1745 142.029 79.5163 141.947 79.8125 141.783C80.1087 141.619 80.3434 141.419 80.5166 141.182C80.6943 140.945 80.79 140.715 80.8037 140.491L81.3438 141.1C81.3118 141.291 81.2253 141.503 81.084 141.735C80.9427 141.968 80.7536 142.191 80.5166 142.405C80.2842 142.615 80.0062 142.79 79.6826 142.932C79.3636 143.068 79.0036 143.137 78.6025 143.137C78.1012 143.137 77.6615 143.039 77.2832 142.843C76.9095 142.647 76.6178 142.385 76.4082 142.057C76.2031 141.724 76.1006 141.353 76.1006 140.942C76.1006 140.546 76.1781 140.197 76.333 139.896C76.488 139.591 76.7113 139.338 77.0029 139.138C77.2946 138.933 77.6455 138.778 78.0557 138.673C78.4658 138.568 78.9238 138.516 79.4297 138.516H80.8994ZM88.7266 135.604H89.875V142.843C89.875 143.494 89.7428 144.05 89.4785 144.511C89.2142 144.971 88.8451 145.32 88.3711 145.557C87.9017 145.798 87.3594 145.919 86.7441 145.919C86.4889 145.919 86.1882 145.878 85.8418 145.796C85.5 145.718 85.1628 145.584 84.8301 145.393C84.502 145.206 84.2262 144.953 84.0029 144.634L84.666 143.882C84.9759 144.256 85.2995 144.515 85.6367 144.661C85.9785 144.807 86.3158 144.88 86.6484 144.88C87.0495 144.88 87.3958 144.805 87.6875 144.654C87.9792 144.504 88.2048 144.281 88.3643 143.984C88.5283 143.693 88.6104 143.333 88.6104 142.904V137.23L88.7266 135.604ZM83.6338 139.384V139.24C83.6338 138.675 83.6999 138.162 83.832 137.702C83.9688 137.237 84.1624 136.839 84.4131 136.506C84.6683 136.173 84.9759 135.918 85.3359 135.74C85.696 135.558 86.1016 135.467 86.5527 135.467C87.0176 135.467 87.4232 135.549 87.7695 135.713C88.1204 135.872 88.4167 136.107 88.6582 136.417C88.9043 136.722 89.098 137.091 89.2393 137.524C89.3805 137.957 89.4785 138.447 89.5332 138.994V139.623C89.4831 140.165 89.3851 140.653 89.2393 141.086C89.098 141.519 88.9043 141.888 88.6582 142.193C88.4167 142.499 88.1204 142.733 87.7695 142.897C87.4186 143.057 87.0085 143.137 86.5391 143.137C86.097 143.137 85.696 143.043 85.3359 142.856C84.9805 142.67 84.6751 142.408 84.4199 142.07C84.1647 141.733 83.9688 141.337 83.832 140.881C83.6999 140.421 83.6338 139.922 83.6338 139.384ZM84.8984 139.24V139.384C84.8984 139.753 84.9349 140.099 85.0078 140.423C85.0853 140.746 85.2015 141.031 85.3564 141.277C85.516 141.523 85.7188 141.717 85.9648 141.858C86.2109 141.995 86.5049 142.063 86.8467 142.063C87.266 142.063 87.6123 141.975 87.8857 141.797C88.1592 141.619 88.3757 141.384 88.5352 141.093C88.6992 140.801 88.8268 140.484 88.918 140.143V138.495C88.8678 138.244 88.7904 138.003 88.6855 137.771C88.5853 137.534 88.4531 137.324 88.2891 137.142C88.1296 136.955 87.9313 136.807 87.6943 136.697C87.4574 136.588 87.1794 136.533 86.8604 136.533C86.514 136.533 86.2155 136.606 85.9648 136.752C85.7188 136.893 85.516 137.089 85.3564 137.34C85.2015 137.586 85.0853 137.873 85.0078 138.201C84.9349 138.525 84.8984 138.871 84.8984 139.24ZM94.8652 143.137C94.3503 143.137 93.8831 143.05 93.4639 142.877C93.0492 142.699 92.6914 142.451 92.3906 142.132C92.0944 141.813 91.8665 141.435 91.707 140.997C91.5475 140.56 91.4678 140.081 91.4678 139.562V139.274C91.4678 138.673 91.5566 138.137 91.7344 137.668C91.9121 137.194 92.1536 136.793 92.459 136.465C92.7643 136.137 93.1107 135.888 93.498 135.72C93.8854 135.551 94.2865 135.467 94.7012 135.467C95.2298 135.467 95.6855 135.558 96.0684 135.74C96.4557 135.923 96.7725 136.178 97.0186 136.506C97.2646 136.829 97.4469 137.212 97.5654 137.654C97.6839 138.092 97.7432 138.57 97.7432 139.09V139.657H92.2197V138.625H96.4785V138.529C96.4603 138.201 96.3919 137.882 96.2734 137.572C96.1595 137.262 95.9772 137.007 95.7266 136.807C95.4759 136.606 95.1341 136.506 94.7012 136.506C94.4141 136.506 94.1497 136.567 93.9082 136.69C93.6667 136.809 93.4593 136.987 93.2861 137.224C93.113 137.461 92.9785 137.75 92.8828 138.092C92.7871 138.434 92.7393 138.828 92.7393 139.274V139.562C92.7393 139.912 92.7871 140.243 92.8828 140.553C92.9831 140.858 93.1266 141.127 93.3135 141.359C93.5049 141.592 93.735 141.774 94.0039 141.906C94.2773 142.038 94.5872 142.104 94.9336 142.104C95.3802 142.104 95.7585 142.013 96.0684 141.831C96.3783 141.649 96.6494 141.405 96.8818 141.1L97.6475 141.708C97.488 141.95 97.2852 142.18 97.0391 142.398C96.793 142.617 96.4899 142.795 96.1299 142.932C95.7744 143.068 95.3529 143.137 94.8652 143.137ZM100.478 137.073V143H99.2061V135.604H100.409L100.478 137.073ZM100.218 139.021L99.6299 139.001C99.6344 138.495 99.7005 138.028 99.8281 137.6C99.9557 137.167 100.145 136.791 100.396 136.472C100.646 136.153 100.958 135.907 101.332 135.733C101.706 135.556 102.139 135.467 102.631 135.467C102.977 135.467 103.296 135.517 103.588 135.617C103.88 135.713 104.132 135.866 104.347 136.075C104.561 136.285 104.727 136.554 104.846 136.882C104.964 137.21 105.023 137.606 105.023 138.071V143H103.759V138.133C103.759 137.745 103.693 137.436 103.561 137.203C103.433 136.971 103.251 136.802 103.014 136.697C102.777 136.588 102.499 136.533 102.18 136.533C101.806 136.533 101.494 136.599 101.243 136.731C100.993 136.864 100.792 137.046 100.642 137.278C100.491 137.511 100.382 137.777 100.313 138.078C100.25 138.374 100.218 138.689 100.218 139.021ZM105.01 138.324L104.162 138.584C104.167 138.178 104.233 137.789 104.36 137.415C104.493 137.041 104.682 136.709 104.928 136.417C105.178 136.125 105.486 135.895 105.851 135.727C106.215 135.553 106.632 135.467 107.102 135.467C107.498 135.467 107.849 135.519 108.154 135.624C108.464 135.729 108.724 135.891 108.934 136.109C109.148 136.324 109.31 136.599 109.419 136.937C109.528 137.274 109.583 137.675 109.583 138.14V143H108.312V138.126C108.312 137.711 108.245 137.39 108.113 137.162C107.986 136.93 107.803 136.768 107.566 136.677C107.334 136.581 107.056 136.533 106.732 136.533C106.454 136.533 106.208 136.581 105.994 136.677C105.78 136.772 105.6 136.905 105.454 137.073C105.308 137.237 105.197 137.426 105.119 137.641C105.046 137.855 105.01 138.083 105.01 138.324ZM114.566 143.137C114.051 143.137 113.584 143.05 113.165 142.877C112.75 142.699 112.393 142.451 112.092 142.132C111.796 141.813 111.568 141.435 111.408 140.997C111.249 140.56 111.169 140.081 111.169 139.562V139.274C111.169 138.673 111.258 138.137 111.436 137.668C111.613 137.194 111.855 136.793 112.16 136.465C112.465 136.137 112.812 135.888 113.199 135.72C113.587 135.551 113.988 135.467 114.402 135.467C114.931 135.467 115.387 135.558 115.77 135.74C116.157 135.923 116.474 136.178 116.72 136.506C116.966 136.829 117.148 137.212 117.267 137.654C117.385 138.092 117.444 138.57 117.444 139.09V139.657H111.921V138.625H116.18V138.529C116.161 138.201 116.093 137.882 115.975 137.572C115.861 137.262 115.678 137.007 115.428 136.807C115.177 136.606 114.835 136.506 114.402 136.506C114.115 136.506 113.851 136.567 113.609 136.69C113.368 136.809 113.16 136.987 112.987 137.224C112.814 137.461 112.68 137.75 112.584 138.092C112.488 138.434 112.44 138.828 112.44 139.274V139.562C112.44 139.912 112.488 140.243 112.584 140.553C112.684 140.858 112.828 141.127 113.015 141.359C113.206 141.592 113.436 141.774 113.705 141.906C113.979 142.038 114.288 142.104 114.635 142.104C115.081 142.104 115.46 142.013 115.77 141.831C116.079 141.649 116.351 141.405 116.583 141.1L117.349 141.708C117.189 141.95 116.986 142.18 116.74 142.398C116.494 142.617 116.191 142.795 115.831 142.932C115.476 143.068 115.054 143.137 114.566 143.137ZM120.186 137.183V143H118.921V135.604H120.117L120.186 137.183ZM119.885 139.021L119.358 139.001C119.363 138.495 119.438 138.028 119.584 137.6C119.73 137.167 119.935 136.791 120.199 136.472C120.464 136.153 120.778 135.907 121.143 135.733C121.512 135.556 121.92 135.467 122.366 135.467C122.731 135.467 123.059 135.517 123.351 135.617C123.642 135.713 123.891 135.868 124.096 136.082C124.305 136.296 124.465 136.574 124.574 136.916C124.684 137.253 124.738 137.666 124.738 138.153V143H123.467V138.14C123.467 137.752 123.41 137.442 123.296 137.21C123.182 136.973 123.016 136.802 122.797 136.697C122.578 136.588 122.309 136.533 121.99 136.533C121.676 136.533 121.389 136.599 121.129 136.731C120.874 136.864 120.653 137.046 120.466 137.278C120.284 137.511 120.14 137.777 120.035 138.078C119.935 138.374 119.885 138.689 119.885 139.021ZM129.756 135.604V136.574H125.757V135.604H129.756ZM127.11 133.806H128.375V141.168C128.375 141.419 128.414 141.608 128.491 141.735C128.569 141.863 128.669 141.947 128.792 141.988C128.915 142.029 129.047 142.05 129.188 142.05C129.293 142.05 129.403 142.041 129.517 142.022C129.635 142 129.724 141.981 129.783 141.968L129.79 143C129.69 143.032 129.558 143.062 129.394 143.089C129.234 143.121 129.04 143.137 128.812 143.137C128.503 143.137 128.218 143.075 127.958 142.952C127.698 142.829 127.491 142.624 127.336 142.337C127.186 142.045 127.11 141.653 127.11 141.161V133.806Z" fill="white"/>
<g clip-path="url(#clip0_20_540)">
<path d="M113.591 41.6451H72.785C70.4987 41.6451 68.6453 43.4986 68.6453 45.7849V80.6774C68.6453 82.9637 70.4987 84.8172 72.785 84.8172H113.591C115.878 84.8172 117.731 82.9637 117.731 80.6774V45.7849C117.731 43.4986 115.878 41.6451 113.591 41.6451Z" stroke="white" stroke-width="2.36559"/>
<path d="M104.129 32.1827H63.3226C61.0363 32.1827 59.1829 34.0362 59.1829 36.3225V71.215C59.1829 73.5013 61.0363 75.3548 63.3226 75.3548H104.129C106.415 75.3548 108.269 73.5013 108.269 71.215V36.3225C108.269 34.0362 106.415 32.1827 104.129 32.1827Z" fill="#222222" stroke="white" stroke-width="2.36559"/>
<path d="M78.699 59.0373V49.1234C78.699 48.6799 79.169 48.3942 79.5626 48.5983L89.4766 53.7389C89.9093 53.9633 89.9001 54.5853 89.4609 54.7968L79.5469 59.5702C79.1543 59.7592 78.699 59.4731 78.699 59.0373Z" stroke="white" stroke-width="2.36559"/>
<path d="M64.5054 37.5054H68.0538" stroke="white" stroke-width="2.36559" stroke-linecap="round"/>
<path d="M72.1934 37.5054H71.6021" stroke="white" stroke-width="2.36559" stroke-linecap="round"/>
<path d="M74.5591 80.0861H79.2903" stroke="white" stroke-width="2.36559" stroke-linecap="round"/>
<path d="M65.0967 69.4409H69.8279" stroke="white" stroke-width="2.36559" stroke-linecap="round"/>
<path d="M82.8386 80.0861H87.5698" stroke="white" stroke-width="2.36559" stroke-linecap="round"/>
<path d="M73.3765 69.4409H78.1076" stroke="white" stroke-width="2.36559" stroke-linecap="round"/>
<path d="M91.1182 80.0861H95.8493" stroke="white" stroke-width="2.36559" stroke-linecap="round"/>
<path d="M81.656 69.4409H86.3872" stroke="white" stroke-width="2.36559" stroke-linecap="round"/>
<path d="M99.3979 80.0861H104.129" stroke="white" stroke-width="2.36559" stroke-linecap="round"/>
<path d="M89.9355 69.4409H94.6667" stroke="white" stroke-width="2.36559" stroke-linecap="round"/>
<path d="M107.677 80.0861H112.409" stroke="white" stroke-width="2.36559" stroke-linecap="round"/>
<path d="M98.2151 69.4409H102.946" stroke="white" stroke-width="2.36559" stroke-linecap="round"/>
</g>
<defs>
<clipPath id="clip0_20_540">
<rect width="60.914" height="55" fill="white" transform="translate(58 31)"/>
</clipPath>
</defs>
</svg>
