<svg width="376" height="377" viewBox="0 0 376 377" fill="none" xmlns="http://www.w3.org/2000/svg">
<rect width="376" height="377" fill="#222222"/>
<path d="M205.472 141.693L151.265 143.372C149.008 143.442 147.141 141.632 147.141 139.374L147.141 135.582L147.141 126.623C147.14 124.566 148.7 122.845 150.746 122.642L214.05 116.373C214.899 116.289 215.456 117.237 214.971 117.938L210.415 124.512L212.146 124.462C213.225 124.431 214.133 125.26 214.2 126.337L214.695 134.309C214.763 135.397 213.947 136.339 212.861 136.427L209.295 136.716L209.341 137.442C209.484 139.697 207.731 141.623 205.472 141.693Z" fill="#222222"/>
<path d="M208.678 127.017C208.376 127.65 207.331 128.866 205.222 130.063C202.575 131.566 199.485 131.987 196.456 132.289L163.392 135.582M208.678 127.017L209.295 136.716M208.678 127.017L210.415 124.512M209.295 136.716L209.341 137.442C209.484 139.697 207.731 141.623 205.472 141.693L151.265 143.372C149.008 143.442 147.141 141.632 147.141 139.374L147.141 135.582M209.295 136.716L212.861 136.427C213.947 136.339 214.763 135.397 214.695 134.309L214.2 126.337C214.133 125.26 213.225 124.431 212.146 124.462L210.415 124.512M210.415 124.512L214.971 117.938C215.456 117.237 214.899 116.289 214.05 116.373L150.746 122.642C148.7 122.845 147.14 124.566 147.141 126.623L147.141 135.582M147.141 135.582C148.474 136.233 149.962 136.521 151.079 136.536" stroke="white" stroke-width="3" stroke-linecap="round"/>
<path d="M200.84 165.092L149.8 145.461C147.712 144.658 146.689 142.3 147.528 140.227L150.251 133.5L153.069 126.537C153.87 124.557 156.085 123.556 158.101 124.263L219.421 145.771C220.231 146.055 220.33 147.162 219.582 147.585L212.654 151.5L214.235 152.209C215.219 152.65 215.676 153.792 215.268 154.791L212.244 162.184C211.831 163.193 210.687 163.685 209.67 163.292L206.334 162L205.98 162.868C205.158 164.885 202.873 165.874 200.84 165.092Z" fill="#222222"/>
<path d="M210.001 153C209.453 153.438 207.983 154.078 205.563 154.238C202.526 154.439 199.561 153.473 196.702 152.426L165.501 141M210.001 153L206.334 162M210.001 153L212.654 151.5M206.334 162L205.98 162.868C205.158 164.885 202.873 165.874 200.84 165.092L149.8 145.461C147.712 144.658 146.689 142.3 147.528 140.227L150.251 133.5M206.334 162L209.67 163.292C210.687 163.685 211.831 163.193 212.244 162.184L215.268 154.791C215.676 153.792 215.219 152.65 214.235 152.209L212.654 151.5M212.654 151.5L219.582 147.585C220.33 147.162 220.231 146.055 219.421 145.771L158.101 124.263C156.085 123.556 153.87 124.557 153.069 126.537L150.251 133.5M150.251 133.5C151.167 134.667 153.001 136 154.001 136.5" stroke="white" stroke-width="3" stroke-linecap="round"/>
<path d="M158.5 138.5L161.5 139.5" stroke="white" stroke-width="3" stroke-linecap="round"/>
<path d="M168.5 152.5C168 154.124 167.744 157.19 169.5 159.298M169.5 159.298C170.087 160.002 170.898 160.599 172 161C173.104 161.402 174.106 161.476 175 161.329M169.5 159.298L165.986 168.436C165.392 169.981 163.908 171 162.253 171H152.5M180 157C179.376 158.498 177.667 160.893 175 161.329M175 161.329L170.694 172.935C169.676 175.679 167.058 177.5 164.131 177.5H152.5" stroke="white" stroke-width="3"/>
<path d="M148.288 165H146.5V184H148.5C149.444 184 150.333 183.555 150.9 182.8C151.289 182.281 151.5 181.649 151.5 181V168.616C151.5 167.581 151.089 166.589 150.357 165.857C149.808 165.308 149.064 165 148.288 165Z" stroke="white" stroke-width="3"/>
<mask id="mask0_1786_197" style="mask-type:luminance" maskUnits="userSpaceOnUse" x="212" y="171" width="26" height="26">
<path fill-rule="evenodd" clip-rule="evenodd" d="M222.833 172.083C222.833 171.485 223.318 171 223.916 171H226.083C226.681 171 227.166 171.485 227.166 172.083V175.606C228.001 175.821 228.788 176.157 229.506 176.595L232.035 174.137C232.464 173.72 233.149 173.73 233.566 174.159L235.077 175.713C235.494 176.142 235.484 176.828 235.055 177.245L232.527 179.702C232.905 180.363 233.199 181.078 233.393 181.834H236.917C237.515 181.834 238 182.319 238 182.917V185.084C238 185.682 237.515 186.167 236.917 186.167H233.393C233.178 187.002 232.842 187.788 232.404 188.506L234.86 191.032C235.277 191.461 235.267 192.147 234.838 192.564L233.284 194.074C232.855 194.491 232.169 194.481 231.752 194.052L229.298 191.527C228.637 191.905 227.921 192.199 227.166 192.393V195.917C227.166 196.515 226.681 197 226.083 197H223.916C223.318 197 222.833 196.515 222.833 195.917V192.393C221.996 192.178 221.209 191.841 220.49 191.402L217.965 193.857C217.536 194.274 216.85 194.264 216.433 193.835L214.923 192.281C214.506 191.852 214.516 191.166 214.945 190.749L217.47 188.294C217.093 187.635 216.8 186.921 216.606 186.167H213.083C212.485 186.167 212 185.682 212 185.084V182.917C212 182.319 212.485 181.834 213.083 181.834H216.606C216.821 180.997 217.158 180.209 217.597 179.49L215.14 176.963C214.723 176.534 214.733 175.848 215.162 175.431L216.716 173.92C217.145 173.503 217.831 173.513 218.248 173.942L220.705 176.47C221.365 176.093 222.079 175.8 222.833 175.606V172.083Z" fill="white"/>
</mask>
<g mask="url(#mask0_1786_197)">
<path d="M227.166 175.606H225.637V176.792L226.785 177.087L227.166 175.606ZM229.506 176.595L228.71 177.901L229.722 178.518L230.572 177.692L229.506 176.595ZM232.527 179.702L231.461 178.605L230.611 179.432L231.2 180.461L232.527 179.702ZM233.394 181.834L231.912 182.215L232.208 183.363H233.394V181.834ZM233.393 186.167V184.638H232.208L231.912 185.786L233.393 186.167ZM232.404 188.506L231.098 187.71L230.481 188.722L231.307 189.572L232.404 188.506ZM229.298 191.527L230.394 190.461L229.568 189.611L228.538 190.2L229.298 191.527ZM227.166 192.393L226.785 190.912L225.637 191.208V192.393H227.166ZM222.833 192.393H224.362V191.208L223.214 190.912L222.833 192.393ZM220.49 191.402L221.287 190.097L220.275 189.479L219.424 190.306L220.49 191.402ZM217.47 188.295L218.536 189.391L219.387 188.565L218.798 187.536L217.47 188.295ZM216.606 186.167L218.087 185.786L217.792 184.638H216.606V186.167ZM216.606 181.834V183.363H217.792L218.087 182.215L216.606 181.834ZM217.597 179.49L218.903 180.287L219.521 179.275L218.694 178.424L217.597 179.49ZM220.705 176.47L219.608 177.536L220.435 178.386L221.464 177.798L220.705 176.47ZM222.833 175.606L223.214 177.087L224.362 176.792V175.606H222.833ZM223.916 169.471C222.473 169.471 221.304 170.641 221.304 172.083H224.362C224.362 172.33 224.163 172.53 223.916 172.53V169.471ZM226.083 169.471H223.916V172.53H226.083V169.471ZM228.696 172.083C228.696 170.641 227.526 169.471 226.083 169.471V172.53C225.837 172.53 225.637 172.33 225.637 172.083H228.696ZM228.696 175.606V172.083H225.637V175.606H228.696ZM226.785 177.087C227.472 177.264 228.119 177.54 228.71 177.901L230.303 175.29C229.458 174.774 228.532 174.378 227.548 174.125L226.785 177.087ZM230.969 173.041L228.44 175.499L230.572 177.692L233.101 175.234L230.969 173.041ZM234.663 173.093C233.658 172.058 232.003 172.035 230.969 173.041L233.101 175.234C232.924 175.406 232.642 175.402 232.47 175.225L234.663 173.093ZM236.173 174.647L234.663 173.093L232.47 175.225L233.98 176.779L236.173 174.647ZM236.121 178.341C237.156 177.336 237.179 175.682 236.173 174.647L233.98 176.779C233.808 176.602 233.812 176.32 233.989 176.148L236.121 178.341ZM233.593 180.799L236.121 178.341L233.989 176.148L231.461 178.605L233.593 180.799ZM231.2 180.461C231.511 181.006 231.753 181.594 231.912 182.215L234.875 181.453C234.646 180.563 234.3 179.72 233.855 178.942L231.2 180.461ZM236.917 180.305H233.394V183.363H236.917V180.305ZM239.529 182.917C239.529 181.474 238.36 180.305 236.917 180.305V183.363C236.67 183.363 236.471 183.164 236.471 182.917H239.529ZM239.529 185.084V182.917H236.471V185.084H239.529ZM236.917 187.697C238.36 187.697 239.529 186.527 239.529 185.084H236.471C236.471 184.838 236.67 184.638 236.917 184.638V187.697ZM233.393 187.697H236.917V184.638H233.393V187.697ZM231.912 185.786C231.735 186.472 231.459 187.119 231.098 187.71L233.71 189.302C234.225 188.458 234.621 187.532 234.874 186.549L231.912 185.786ZM235.956 189.966L233.501 187.44L231.307 189.572L233.763 192.098L235.956 189.966ZM235.904 193.661C236.939 192.655 236.962 191.001 235.956 189.966L233.763 192.098C233.591 191.922 233.595 191.639 233.772 191.467L235.904 193.661ZM234.35 195.171L235.904 193.661L233.772 191.467L232.218 192.978L234.35 195.171ZM230.656 195.118C231.662 196.153 233.316 196.177 234.35 195.171L232.218 192.978C232.395 192.806 232.677 192.81 232.849 192.987L230.656 195.118ZM228.201 192.593L230.656 195.118L232.849 192.987L230.394 190.461L228.201 192.593ZM228.538 190.2C227.994 190.511 227.406 190.752 226.785 190.912L227.548 193.874C228.437 193.645 229.28 193.3 230.057 192.855L228.538 190.2ZM228.696 195.917V192.393H225.637V195.917H228.696ZM226.083 198.529C227.526 198.529 228.696 197.36 228.696 195.917H225.637C225.637 195.67 225.837 195.471 226.083 195.471V198.529ZM223.916 198.529H226.083V195.471H223.916V198.529ZM221.304 195.917C221.304 197.36 222.473 198.529 223.916 198.529V195.471C224.163 195.471 224.362 195.67 224.362 195.917H221.304ZM221.304 192.393V195.917H224.362V192.393H221.304ZM223.214 190.912C222.527 190.735 221.879 190.458 221.287 190.097L219.693 192.708C220.539 193.224 221.466 193.621 222.452 193.874L223.214 190.912ZM219.031 194.953L221.556 192.499L219.424 190.306L216.899 192.76L219.031 194.953ZM215.336 194.901C216.342 195.936 217.996 195.959 219.031 194.953L216.899 192.76C217.076 192.588 217.358 192.592 217.53 192.769L215.336 194.901ZM213.826 193.347L215.336 194.901L217.53 192.769L216.02 191.215L213.826 193.347ZM213.879 189.653C212.844 190.659 212.821 192.313 213.826 193.347L216.02 191.215C216.191 191.392 216.187 191.674 216.011 191.846L213.879 189.653ZM216.404 187.198L213.879 189.653L216.011 191.846L218.536 189.391L216.404 187.198ZM218.798 187.536C218.488 186.993 218.247 186.405 218.087 185.786L215.125 186.549C215.354 187.437 215.699 188.277 216.143 189.054L218.798 187.536ZM213.083 187.697H216.606V184.638H213.083V187.697ZM210.471 185.084C210.471 186.527 211.641 187.697 213.083 187.697V184.638C213.33 184.638 213.53 184.838 213.53 185.084H210.471ZM210.471 182.917V185.084H213.53V182.917H210.471ZM213.083 180.305C211.641 180.305 210.471 181.474 210.471 182.917H213.53C213.53 183.164 213.33 183.363 213.083 183.363V180.305ZM216.606 180.305H213.083V183.363H216.606V180.305ZM218.087 182.215C218.264 181.527 218.541 180.879 218.903 180.287L216.292 178.693C215.775 179.539 215.378 180.467 215.125 181.453L218.087 182.215ZM214.044 178.029L216.501 180.556L218.694 178.424L216.237 175.897L214.044 178.029ZM214.096 174.334C213.061 175.34 213.038 176.994 214.044 178.029L216.237 175.897C216.409 176.073 216.405 176.356 216.228 176.527L214.096 174.334ZM215.65 172.824L214.096 174.334L216.228 176.527L217.782 175.017L215.65 172.824ZM219.344 172.876C218.339 171.842 216.685 171.818 215.65 172.824L217.782 175.017C217.605 175.189 217.323 175.185 217.151 175.008L219.344 172.876ZM221.802 175.404L219.344 172.876L217.151 175.008L219.608 177.536L221.802 175.404ZM221.464 177.798C222.007 177.487 222.595 177.247 223.214 177.087L222.452 174.125C221.564 174.353 220.723 174.699 219.946 175.142L221.464 177.798ZM221.304 172.083V175.606H224.362V172.083H221.304Z" fill="white"/>
</g>
<path d="M225 187.569C226.971 187.569 228.569 185.971 228.569 184C228.569 182.029 226.971 180.432 225 180.432C223.029 180.432 221.432 182.029 221.432 184C221.432 185.971 223.029 187.569 225 187.569Z" stroke="white" stroke-width="1.52941"/>
<path d="M73.3047 270.214H76.3564C76.2588 271.378 75.9333 272.415 75.3799 273.327C74.8265 274.23 74.0493 274.942 73.0483 275.463C72.0474 275.984 70.8307 276.244 69.3984 276.244C68.2998 276.244 67.311 276.049 66.4321 275.658C65.5532 275.259 64.8005 274.698 64.1738 273.974C63.5472 273.241 63.0671 272.358 62.7334 271.325C62.4079 270.291 62.2451 269.136 62.2451 267.858V266.381C62.2451 265.103 62.4119 263.948 62.7456 262.914C63.0874 261.881 63.5757 260.998 64.2104 260.265C64.8452 259.525 65.6061 258.959 66.4932 258.568C67.3883 258.178 68.3934 257.982 69.5083 257.982C70.9243 257.982 72.1206 258.243 73.0972 258.764C74.0737 259.285 74.8306 260.005 75.3677 260.924C75.9129 261.844 76.2466 262.898 76.3687 264.086H73.3169C73.2355 263.321 73.0565 262.666 72.7798 262.121C72.5112 261.575 72.1125 261.16 71.5835 260.875C71.0545 260.583 70.3628 260.436 69.5083 260.436C68.8084 260.436 68.1981 260.566 67.6772 260.827C67.1564 261.087 66.721 261.47 66.3711 261.974C66.0212 262.479 65.7567 263.101 65.5776 263.842C65.4067 264.574 65.3213 265.412 65.3213 266.356V267.858C65.3213 268.753 65.3986 269.567 65.5532 270.299C65.716 271.024 65.9601 271.646 66.2856 272.167C66.6193 272.688 67.0425 273.091 67.5552 273.375C68.0679 273.66 68.6823 273.803 69.3984 273.803C70.2692 273.803 70.9731 273.664 71.5103 273.388C72.0555 273.111 72.4665 272.708 72.7432 272.179C73.028 271.642 73.2152 270.987 73.3047 270.214ZM86.293 273.351V267.052C86.293 266.58 86.2075 266.173 86.0366 265.832C85.8657 265.49 85.6053 265.225 85.2554 265.038C84.9136 264.851 84.4823 264.757 83.9614 264.757C83.4813 264.757 83.0662 264.839 82.7163 265.001C82.3664 265.164 82.0938 265.384 81.8984 265.661C81.7031 265.937 81.6055 266.251 81.6055 266.601H78.6758C78.6758 266.08 78.8019 265.575 79.0542 265.087C79.3065 264.599 79.6727 264.163 80.1528 263.781C80.633 263.398 81.2067 263.097 81.874 262.877C82.5413 262.658 83.29 262.548 84.1201 262.548C85.113 262.548 85.9919 262.715 86.7568 263.048C87.5299 263.382 88.1362 263.887 88.5757 264.562C89.0233 265.229 89.2471 266.068 89.2471 267.077V272.948C89.2471 273.55 89.2878 274.092 89.3691 274.572C89.4587 275.044 89.5848 275.455 89.7476 275.805V276H86.7324C86.5941 275.683 86.4842 275.28 86.4028 274.792C86.3296 274.295 86.293 273.815 86.293 273.351ZM86.7202 267.968L86.7446 269.787H84.6328C84.0876 269.787 83.6074 269.84 83.1924 269.945C82.7773 270.043 82.4315 270.189 82.1548 270.385C81.8781 270.58 81.6706 270.816 81.5322 271.093C81.3939 271.369 81.3247 271.683 81.3247 272.033C81.3247 272.383 81.4061 272.704 81.5688 272.997C81.7316 273.282 81.9676 273.506 82.2769 273.668C82.5942 273.831 82.9767 273.913 83.4243 273.913C84.0265 273.913 84.5514 273.791 84.999 273.546C85.4548 273.294 85.8128 272.989 86.0732 272.631C86.3337 272.265 86.472 271.919 86.4883 271.593L87.4404 272.899C87.3428 273.233 87.1759 273.591 86.9399 273.974C86.7039 274.356 86.3947 274.722 86.0122 275.072C85.6379 275.414 85.1862 275.695 84.6572 275.915C84.1364 276.134 83.5342 276.244 82.8506 276.244C81.988 276.244 81.2189 276.073 80.5435 275.731C79.868 275.382 79.339 274.914 78.9565 274.328C78.5741 273.734 78.3828 273.062 78.3828 272.313C78.3828 271.614 78.513 270.995 78.7734 270.458C79.042 269.913 79.4326 269.457 79.9453 269.091C80.4661 268.725 81.1009 268.448 81.8496 268.261C82.5983 268.065 83.4528 267.968 84.4131 267.968H86.7202ZM95.2651 265.478V276H92.3232V262.792H95.0942L95.2651 265.478ZM94.7891 268.908L93.7881 268.896C93.7881 267.984 93.902 267.142 94.1299 266.369C94.3577 265.596 94.6914 264.924 95.1309 264.354C95.5703 263.777 96.1156 263.333 96.7666 263.024C97.4258 262.707 98.1867 262.548 99.0493 262.548C99.6515 262.548 100.201 262.637 100.697 262.816C101.202 262.987 101.637 263.26 102.003 263.634C102.378 264.009 102.663 264.489 102.858 265.075C103.061 265.661 103.163 266.369 103.163 267.199V276H100.221V267.455C100.221 266.812 100.124 266.308 99.9282 265.941C99.741 265.575 99.4684 265.315 99.1104 265.16C98.7604 264.997 98.3413 264.916 97.853 264.916C97.2996 264.916 96.8276 265.022 96.437 265.233C96.0545 265.445 95.7412 265.734 95.4971 266.1C95.2529 266.466 95.0739 266.889 94.96 267.37C94.846 267.85 94.7891 268.362 94.7891 268.908ZM102.98 268.126L101.601 268.432C101.601 267.634 101.71 266.881 101.93 266.173C102.158 265.457 102.488 264.831 102.919 264.293C103.358 263.748 103.9 263.321 104.542 263.012C105.185 262.702 105.922 262.548 106.752 262.548C107.427 262.548 108.03 262.641 108.559 262.829C109.096 263.008 109.551 263.292 109.926 263.683C110.3 264.074 110.585 264.582 110.78 265.209C110.976 265.827 111.073 266.576 111.073 267.455V276H108.119V267.443C108.119 266.776 108.021 266.259 107.826 265.893C107.639 265.526 107.37 265.274 107.021 265.136C106.671 264.989 106.251 264.916 105.763 264.916C105.307 264.916 104.905 265.001 104.555 265.172C104.213 265.335 103.924 265.567 103.688 265.868C103.452 266.161 103.273 266.499 103.151 266.881C103.037 267.264 102.98 267.679 102.98 268.126ZM119.923 276.244C118.947 276.244 118.064 276.085 117.274 275.768C116.493 275.443 115.826 274.991 115.272 274.413C114.727 273.835 114.308 273.156 114.015 272.375C113.722 271.593 113.576 270.751 113.576 269.848V269.359C113.576 268.326 113.726 267.39 114.027 266.552C114.328 265.714 114.748 264.997 115.285 264.403C115.822 263.801 116.457 263.341 117.189 263.024C117.921 262.707 118.715 262.548 119.569 262.548C120.513 262.548 121.339 262.707 122.047 263.024C122.755 263.341 123.341 263.789 123.805 264.367C124.277 264.936 124.627 265.616 124.855 266.405C125.091 267.195 125.209 268.065 125.209 269.018V270.275H115.004V268.163H122.304V267.931C122.287 267.402 122.182 266.906 121.986 266.442C121.799 265.978 121.51 265.604 121.12 265.319C120.729 265.034 120.208 264.892 119.557 264.892C119.069 264.892 118.633 264.997 118.251 265.209C117.877 265.412 117.563 265.709 117.311 266.1C117.059 266.491 116.863 266.963 116.725 267.516C116.595 268.061 116.53 268.676 116.53 269.359V269.848C116.53 270.425 116.607 270.963 116.762 271.459C116.924 271.947 117.16 272.375 117.47 272.741C117.779 273.107 118.153 273.396 118.593 273.607C119.032 273.811 119.533 273.913 120.094 273.913C120.802 273.913 121.433 273.77 121.986 273.485C122.54 273.201 123.02 272.798 123.427 272.277L124.977 273.778C124.692 274.193 124.322 274.592 123.866 274.975C123.41 275.349 122.853 275.654 122.194 275.89C121.543 276.126 120.786 276.244 119.923 276.244ZM130.458 265.307V276H127.516V262.792H130.324L130.458 265.307ZM134.499 262.707L134.474 265.441C134.295 265.408 134.1 265.384 133.888 265.368C133.685 265.351 133.481 265.343 133.278 265.343C132.773 265.343 132.33 265.417 131.947 265.563C131.565 265.701 131.243 265.905 130.983 266.173C130.731 266.434 130.535 266.751 130.397 267.125C130.259 267.5 130.177 267.919 130.153 268.383L129.481 268.432C129.481 267.602 129.563 266.833 129.726 266.125C129.888 265.417 130.132 264.794 130.458 264.257C130.792 263.72 131.207 263.301 131.703 263C132.208 262.698 132.79 262.548 133.449 262.548C133.628 262.548 133.819 262.564 134.022 262.597C134.234 262.629 134.393 262.666 134.499 262.707ZM143.349 273.351V267.052C143.349 266.58 143.263 266.173 143.092 265.832C142.921 265.49 142.661 265.225 142.311 265.038C141.969 264.851 141.538 264.757 141.017 264.757C140.537 264.757 140.122 264.839 139.772 265.001C139.422 265.164 139.149 265.384 138.954 265.661C138.759 265.937 138.661 266.251 138.661 266.601H135.731C135.731 266.08 135.858 265.575 136.11 265.087C136.362 264.599 136.728 264.163 137.208 263.781C137.689 263.398 138.262 263.097 138.93 262.877C139.597 262.658 140.346 262.548 141.176 262.548C142.169 262.548 143.048 262.715 143.812 263.048C144.586 263.382 145.192 263.887 145.631 264.562C146.079 265.229 146.303 266.068 146.303 267.077V272.948C146.303 273.55 146.343 274.092 146.425 274.572C146.514 275.044 146.64 275.455 146.803 275.805V276H143.788C143.65 275.683 143.54 275.28 143.458 274.792C143.385 274.295 143.349 273.815 143.349 273.351ZM143.776 267.968L143.8 269.787H141.688C141.143 269.787 140.663 269.84 140.248 269.945C139.833 270.043 139.487 270.189 139.21 270.385C138.934 270.58 138.726 270.816 138.588 271.093C138.45 271.369 138.38 271.683 138.38 272.033C138.38 272.383 138.462 272.704 138.625 272.997C138.787 273.282 139.023 273.506 139.333 273.668C139.65 273.831 140.032 273.913 140.48 273.913C141.082 273.913 141.607 273.791 142.055 273.546C142.51 273.294 142.868 272.989 143.129 272.631C143.389 272.265 143.528 271.919 143.544 271.593L144.496 272.899C144.398 273.233 144.232 273.591 143.996 273.974C143.76 274.356 143.45 274.722 143.068 275.072C142.694 275.414 142.242 275.695 141.713 275.915C141.192 276.134 140.59 276.244 139.906 276.244C139.044 276.244 138.275 276.073 137.599 275.731C136.924 275.382 136.395 274.914 136.012 274.328C135.63 273.734 135.438 273.062 135.438 272.313C135.438 271.614 135.569 270.995 135.829 270.458C136.098 269.913 136.488 269.457 137.001 269.091C137.522 268.725 138.157 268.448 138.905 268.261C139.654 268.065 140.508 267.968 141.469 267.968H143.776ZM156.789 272.423C156.789 272.13 156.715 271.866 156.569 271.63C156.422 271.386 156.142 271.166 155.727 270.971C155.32 270.775 154.717 270.596 153.92 270.434C153.22 270.279 152.577 270.096 151.991 269.884C151.413 269.665 150.917 269.4 150.502 269.091C150.087 268.782 149.765 268.415 149.538 267.992C149.31 267.569 149.196 267.081 149.196 266.527C149.196 265.99 149.314 265.482 149.55 265.001C149.786 264.521 150.124 264.098 150.563 263.732C151.002 263.366 151.535 263.077 152.162 262.865C152.797 262.654 153.505 262.548 154.286 262.548C155.393 262.548 156.341 262.735 157.13 263.109C157.928 263.476 158.538 263.976 158.961 264.611C159.385 265.237 159.596 265.945 159.596 266.735H156.654C156.654 266.385 156.565 266.059 156.386 265.758C156.215 265.449 155.954 265.201 155.604 265.014C155.255 264.818 154.815 264.721 154.286 264.721C153.782 264.721 153.362 264.802 153.029 264.965C152.703 265.119 152.459 265.323 152.296 265.575C152.142 265.827 152.064 266.104 152.064 266.405C152.064 266.625 152.105 266.824 152.187 267.003C152.276 267.174 152.423 267.333 152.626 267.479C152.829 267.618 153.106 267.748 153.456 267.87C153.814 267.992 154.262 268.11 154.799 268.224C155.808 268.436 156.675 268.708 157.399 269.042C158.131 269.368 158.693 269.791 159.083 270.312C159.474 270.824 159.669 271.475 159.669 272.265C159.669 272.851 159.543 273.388 159.291 273.876C159.047 274.356 158.689 274.775 158.217 275.133C157.745 275.483 157.179 275.756 156.52 275.951C155.869 276.146 155.137 276.244 154.323 276.244C153.126 276.244 152.113 276.033 151.283 275.609C150.453 275.178 149.822 274.629 149.391 273.961C148.968 273.286 148.756 272.586 148.756 271.862H151.601C151.633 272.407 151.784 272.842 152.052 273.168C152.329 273.485 152.671 273.717 153.078 273.864C153.493 274.002 153.92 274.071 154.359 274.071C154.888 274.071 155.332 274.002 155.69 273.864C156.048 273.717 156.321 273.522 156.508 273.278C156.695 273.026 156.789 272.741 156.789 272.423ZM171.413 265.478V276H168.471V262.792H171.242L171.413 265.478ZM170.937 268.908L169.936 268.896C169.936 267.984 170.049 267.142 170.277 266.369C170.505 265.596 170.839 264.924 171.278 264.354C171.718 263.777 172.263 263.333 172.914 263.024C173.573 262.707 174.334 262.548 175.197 262.548C175.799 262.548 176.348 262.637 176.845 262.816C177.349 262.987 177.785 263.26 178.151 263.634C178.525 264.009 178.81 264.489 179.005 265.075C179.209 265.661 179.311 266.369 179.311 267.199V276H176.369V267.455C176.369 266.812 176.271 266.308 176.076 265.941C175.889 265.575 175.616 265.315 175.258 265.16C174.908 264.997 174.489 264.916 174 264.916C173.447 264.916 172.975 265.022 172.584 265.233C172.202 265.445 171.889 265.734 171.645 266.1C171.4 266.466 171.221 266.889 171.107 267.37C170.993 267.85 170.937 268.362 170.937 268.908ZM179.127 268.126L177.748 268.432C177.748 267.634 177.858 266.881 178.078 266.173C178.306 265.457 178.635 264.831 179.066 264.293C179.506 263.748 180.047 263.321 180.69 263.012C181.333 262.702 182.069 262.548 182.899 262.548C183.575 262.548 184.177 262.641 184.706 262.829C185.243 263.008 185.699 263.292 186.073 263.683C186.448 264.074 186.732 264.582 186.928 265.209C187.123 265.827 187.221 266.576 187.221 267.455V276H184.267V267.443C184.267 266.776 184.169 266.259 183.974 265.893C183.786 265.526 183.518 265.274 183.168 265.136C182.818 264.989 182.399 264.916 181.911 264.916C181.455 264.916 181.052 265.001 180.702 265.172C180.36 265.335 180.071 265.567 179.835 265.868C179.599 266.161 179.42 266.499 179.298 266.881C179.184 267.264 179.127 267.679 179.127 268.126ZM197.694 273.351V267.052C197.694 266.58 197.609 266.173 197.438 265.832C197.267 265.49 197.007 265.225 196.657 265.038C196.315 264.851 195.884 264.757 195.363 264.757C194.883 264.757 194.468 264.839 194.118 265.001C193.768 265.164 193.495 265.384 193.3 265.661C193.104 265.937 193.007 266.251 193.007 266.601H190.077C190.077 266.08 190.203 265.575 190.456 265.087C190.708 264.599 191.074 264.163 191.554 263.781C192.034 263.398 192.608 263.097 193.275 262.877C193.943 262.658 194.691 262.548 195.521 262.548C196.514 262.548 197.393 262.715 198.158 263.048C198.931 263.382 199.538 263.887 199.977 264.562C200.425 265.229 200.648 266.068 200.648 267.077V272.948C200.648 273.55 200.689 274.092 200.771 274.572C200.86 275.044 200.986 275.455 201.149 275.805V276H198.134C197.995 275.683 197.886 275.28 197.804 274.792C197.731 274.295 197.694 273.815 197.694 273.351ZM198.122 267.968L198.146 269.787H196.034C195.489 269.787 195.009 269.84 194.594 269.945C194.179 270.043 193.833 270.189 193.556 270.385C193.279 270.58 193.072 270.816 192.934 271.093C192.795 271.369 192.726 271.683 192.726 272.033C192.726 272.383 192.807 272.704 192.97 272.997C193.133 273.282 193.369 273.506 193.678 273.668C193.996 273.831 194.378 273.913 194.826 273.913C195.428 273.913 195.953 273.791 196.4 273.546C196.856 273.294 197.214 272.989 197.475 272.631C197.735 272.265 197.873 271.919 197.89 271.593L198.842 272.899C198.744 273.233 198.577 273.591 198.341 273.974C198.105 274.356 197.796 274.722 197.414 275.072C197.039 275.414 196.588 275.695 196.059 275.915C195.538 276.134 194.936 276.244 194.252 276.244C193.389 276.244 192.62 276.073 191.945 275.731C191.269 275.382 190.74 274.914 190.358 274.328C189.975 273.734 189.784 273.062 189.784 272.313C189.784 271.614 189.914 270.995 190.175 270.458C190.443 269.913 190.834 269.457 191.347 269.091C191.868 268.725 192.502 268.448 193.251 268.261C194 268.065 194.854 267.968 195.814 267.968H198.122ZM206.642 265.612V276H203.7V262.792H206.471L206.642 265.612ZM206.117 268.908L205.165 268.896C205.173 267.96 205.303 267.101 205.556 266.32C205.816 265.539 206.174 264.867 206.63 264.306C207.094 263.744 207.647 263.313 208.29 263.012C208.933 262.702 209.649 262.548 210.438 262.548C211.073 262.548 211.647 262.637 212.16 262.816C212.681 262.987 213.124 263.268 213.49 263.659C213.865 264.049 214.149 264.558 214.345 265.185C214.54 265.803 214.638 266.564 214.638 267.467V276H211.684V267.455C211.684 266.82 211.59 266.32 211.403 265.954C211.224 265.579 210.959 265.315 210.609 265.16C210.268 264.997 209.84 264.916 209.328 264.916C208.823 264.916 208.371 265.022 207.973 265.233C207.574 265.445 207.236 265.734 206.959 266.1C206.691 266.466 206.483 266.889 206.337 267.37C206.19 267.85 206.117 268.362 206.117 268.908ZM225.087 273.351V267.052C225.087 266.58 225.001 266.173 224.831 265.832C224.66 265.49 224.399 265.225 224.049 265.038C223.708 264.851 223.276 264.757 222.755 264.757C222.275 264.757 221.86 264.839 221.51 265.001C221.16 265.164 220.888 265.384 220.692 265.661C220.497 265.937 220.399 266.251 220.399 266.601H217.47C217.47 266.08 217.596 265.575 217.848 265.087C218.1 264.599 218.467 264.163 218.947 263.781C219.427 263.398 220.001 263.097 220.668 262.877C221.335 262.658 222.084 262.548 222.914 262.548C223.907 262.548 224.786 262.715 225.551 263.048C226.324 263.382 226.93 263.887 227.37 264.562C227.817 265.229 228.041 266.068 228.041 267.077V272.948C228.041 273.55 228.082 274.092 228.163 274.572C228.253 275.044 228.379 275.455 228.542 275.805V276H225.526C225.388 275.683 225.278 275.28 225.197 274.792C225.124 274.295 225.087 273.815 225.087 273.351ZM225.514 267.968L225.539 269.787H223.427C222.882 269.787 222.401 269.84 221.986 269.945C221.571 270.043 221.225 270.189 220.949 270.385C220.672 270.58 220.465 270.816 220.326 271.093C220.188 271.369 220.119 271.683 220.119 272.033C220.119 272.383 220.2 272.704 220.363 272.997C220.526 273.282 220.762 273.506 221.071 273.668C221.388 273.831 221.771 273.913 222.218 273.913C222.82 273.913 223.345 273.791 223.793 273.546C224.249 273.294 224.607 272.989 224.867 272.631C225.128 272.265 225.266 271.919 225.282 271.593L226.234 272.899C226.137 273.233 225.97 273.591 225.734 273.974C225.498 274.356 225.189 274.722 224.806 275.072C224.432 275.414 223.98 275.695 223.451 275.915C222.93 276.134 222.328 276.244 221.645 276.244C220.782 276.244 220.013 276.073 219.337 275.731C218.662 275.382 218.133 274.914 217.75 274.328C217.368 273.734 217.177 273.062 217.177 272.313C217.177 271.614 217.307 270.995 217.567 270.458C217.836 269.913 218.227 269.457 218.739 269.091C219.26 268.725 219.895 268.448 220.644 268.261C221.392 268.065 222.247 267.968 223.207 267.968H225.514ZM239.577 262.792H242.25V275.634C242.25 276.822 241.998 277.831 241.493 278.661C240.989 279.491 240.285 280.122 239.381 280.553C238.478 280.993 237.432 281.212 236.244 281.212C235.74 281.212 235.178 281.139 234.56 280.993C233.949 280.846 233.355 280.61 232.777 280.285C232.208 279.967 231.732 279.548 231.349 279.027L232.729 277.294C233.201 277.855 233.721 278.266 234.291 278.527C234.861 278.787 235.459 278.917 236.085 278.917C236.761 278.917 237.335 278.791 237.807 278.539C238.287 278.295 238.657 277.933 238.917 277.453C239.178 276.972 239.308 276.387 239.308 275.695V265.783L239.577 262.792ZM230.604 269.542V269.286C230.604 268.285 230.727 267.374 230.971 266.552C231.215 265.722 231.565 265.01 232.021 264.416C232.476 263.813 233.03 263.354 233.681 263.036C234.332 262.711 235.068 262.548 235.89 262.548C236.745 262.548 237.473 262.702 238.075 263.012C238.686 263.321 239.194 263.764 239.601 264.342C240.008 264.912 240.325 265.596 240.553 266.393C240.789 267.182 240.964 268.061 241.078 269.03V269.848C240.972 270.792 240.793 271.654 240.541 272.436C240.289 273.217 239.955 273.892 239.54 274.462C239.125 275.032 238.612 275.471 238.002 275.78C237.4 276.09 236.688 276.244 235.866 276.244C235.06 276.244 234.332 276.077 233.681 275.744C233.038 275.41 232.484 274.942 232.021 274.34C231.565 273.738 231.215 273.03 230.971 272.216C230.727 271.394 230.604 270.503 230.604 269.542ZM233.546 269.286V269.542C233.546 270.145 233.603 270.706 233.717 271.227C233.839 271.748 234.022 272.208 234.267 272.606C234.519 272.997 234.836 273.306 235.219 273.534C235.609 273.754 236.069 273.864 236.598 273.864C237.29 273.864 237.855 273.717 238.295 273.424C238.743 273.131 239.084 272.737 239.32 272.24C239.564 271.736 239.735 271.174 239.833 270.556V268.346C239.784 267.866 239.682 267.418 239.528 267.003C239.381 266.588 239.182 266.226 238.93 265.917C238.677 265.6 238.36 265.355 237.978 265.185C237.595 265.006 237.143 264.916 236.623 264.916C236.094 264.916 235.634 265.03 235.243 265.258C234.853 265.486 234.531 265.799 234.279 266.198C234.035 266.597 233.852 267.06 233.729 267.589C233.607 268.118 233.546 268.684 233.546 269.286ZM251.125 276.244C250.148 276.244 249.265 276.085 248.476 275.768C247.694 275.443 247.027 274.991 246.474 274.413C245.928 273.835 245.509 273.156 245.216 272.375C244.923 271.593 244.777 270.751 244.777 269.848V269.359C244.777 268.326 244.927 267.39 245.229 266.552C245.53 265.714 245.949 264.997 246.486 264.403C247.023 263.801 247.658 263.341 248.39 263.024C249.123 262.707 249.916 262.548 250.771 262.548C251.715 262.548 252.541 262.707 253.249 263.024C253.957 263.341 254.542 263.789 255.006 264.367C255.478 264.936 255.828 265.616 256.056 266.405C256.292 267.195 256.41 268.065 256.41 269.018V270.275H246.205V268.163H253.505V267.931C253.489 267.402 253.383 266.906 253.188 266.442C253 265.978 252.711 265.604 252.321 265.319C251.93 265.034 251.409 264.892 250.758 264.892C250.27 264.892 249.835 264.997 249.452 265.209C249.078 265.412 248.764 265.709 248.512 266.1C248.26 266.491 248.065 266.963 247.926 267.516C247.796 268.061 247.731 268.676 247.731 269.359V269.848C247.731 270.425 247.808 270.963 247.963 271.459C248.126 271.947 248.362 272.375 248.671 272.741C248.98 273.107 249.354 273.396 249.794 273.607C250.233 273.811 250.734 273.913 251.295 273.913C252.003 273.913 252.634 273.77 253.188 273.485C253.741 273.201 254.221 272.798 254.628 272.277L256.178 273.778C255.893 274.193 255.523 274.592 255.067 274.975C254.612 275.349 254.054 275.654 253.395 275.89C252.744 276.126 251.987 276.244 251.125 276.244ZM261.647 265.478V276H258.705V262.792H261.476L261.647 265.478ZM261.171 268.908L260.17 268.896C260.17 267.984 260.284 267.142 260.512 266.369C260.74 265.596 261.073 264.924 261.513 264.354C261.952 263.777 262.497 263.333 263.148 263.024C263.808 262.707 264.569 262.548 265.431 262.548C266.033 262.548 266.583 262.637 267.079 262.816C267.584 262.987 268.019 263.26 268.385 263.634C268.76 264.009 269.044 264.489 269.24 265.075C269.443 265.661 269.545 266.369 269.545 267.199V276H266.603V267.455C266.603 266.812 266.505 266.308 266.31 265.941C266.123 265.575 265.85 265.315 265.492 265.16C265.142 264.997 264.723 264.916 264.235 264.916C263.681 264.916 263.209 265.022 262.819 265.233C262.436 265.445 262.123 265.734 261.879 266.1C261.635 266.466 261.456 266.889 261.342 267.37C261.228 267.85 261.171 268.362 261.171 268.908ZM269.362 268.126L267.982 268.432C267.982 267.634 268.092 266.881 268.312 266.173C268.54 265.457 268.869 264.831 269.301 264.293C269.74 263.748 270.281 263.321 270.924 263.012C271.567 262.702 272.304 262.548 273.134 262.548C273.809 262.548 274.411 262.641 274.94 262.829C275.478 263.008 275.933 263.292 276.308 263.683C276.682 264.074 276.967 264.582 277.162 265.209C277.357 265.827 277.455 266.576 277.455 267.455V276H274.501V267.443C274.501 266.776 274.403 266.259 274.208 265.893C274.021 265.526 273.752 265.274 273.402 265.136C273.052 264.989 272.633 264.916 272.145 264.916C271.689 264.916 271.286 265.001 270.937 265.172C270.595 265.335 270.306 265.567 270.07 265.868C269.834 266.161 269.655 266.499 269.533 266.881C269.419 267.264 269.362 267.679 269.362 268.126ZM286.305 276.244C285.329 276.244 284.446 276.085 283.656 275.768C282.875 275.443 282.208 274.991 281.654 274.413C281.109 273.835 280.69 273.156 280.397 272.375C280.104 271.593 279.958 270.751 279.958 269.848V269.359C279.958 268.326 280.108 267.39 280.409 266.552C280.71 265.714 281.129 264.997 281.667 264.403C282.204 263.801 282.838 263.341 283.571 263.024C284.303 262.707 285.097 262.548 285.951 262.548C286.895 262.548 287.721 262.707 288.429 263.024C289.137 263.341 289.723 263.789 290.187 264.367C290.659 264.936 291.009 265.616 291.237 266.405C291.473 267.195 291.591 268.065 291.591 269.018V270.275H281.386V268.163H288.686V267.931C288.669 267.402 288.563 266.906 288.368 266.442C288.181 265.978 287.892 265.604 287.501 265.319C287.111 265.034 286.59 264.892 285.939 264.892C285.451 264.892 285.015 264.997 284.633 265.209C284.258 265.412 283.945 265.709 283.693 266.1C283.441 266.491 283.245 266.963 283.107 267.516C282.977 268.061 282.912 268.676 282.912 269.359V269.848C282.912 270.425 282.989 270.963 283.144 271.459C283.306 271.947 283.542 272.375 283.852 272.741C284.161 273.107 284.535 273.396 284.975 273.607C285.414 273.811 285.915 273.913 286.476 273.913C287.184 273.913 287.815 273.77 288.368 273.485C288.922 273.201 289.402 272.798 289.809 272.277L291.359 273.778C291.074 274.193 290.704 274.592 290.248 274.975C289.792 275.349 289.235 275.654 288.576 275.89C287.925 276.126 287.168 276.244 286.305 276.244ZM296.803 265.612V276H293.861V262.792H296.632L296.803 265.612ZM296.278 268.908L295.326 268.896C295.334 267.96 295.465 267.101 295.717 266.32C295.977 265.539 296.335 264.867 296.791 264.306C297.255 263.744 297.808 263.313 298.451 263.012C299.094 262.702 299.81 262.548 300.6 262.548C301.234 262.548 301.808 262.637 302.321 262.816C302.842 262.987 303.285 263.268 303.651 263.659C304.026 264.049 304.311 264.558 304.506 265.185C304.701 265.803 304.799 266.564 304.799 267.467V276H301.845V267.455C301.845 266.82 301.751 266.32 301.564 265.954C301.385 265.579 301.12 265.315 300.771 265.16C300.429 264.997 300.001 264.916 299.489 264.916C298.984 264.916 298.533 265.022 298.134 265.233C297.735 265.445 297.397 265.734 297.121 266.1C296.852 266.466 296.645 266.889 296.498 267.37C296.352 267.85 296.278 268.362 296.278 268.908ZM313.856 262.792V264.94H306.41V262.792H313.856ZM308.559 259.557H311.5V272.35C311.5 272.757 311.557 273.07 311.671 273.29C311.793 273.502 311.96 273.644 312.172 273.717C312.383 273.791 312.632 273.827 312.917 273.827C313.12 273.827 313.315 273.815 313.502 273.791C313.69 273.766 313.84 273.742 313.954 273.717L313.966 275.963C313.722 276.037 313.437 276.102 313.112 276.159C312.794 276.216 312.428 276.244 312.013 276.244C311.338 276.244 310.74 276.126 310.219 275.89C309.698 275.646 309.291 275.251 308.998 274.706C308.705 274.161 308.559 273.437 308.559 272.533V259.557Z" fill="white"/>
</svg>
